G04*
G04 #@! TF.GenerationSoftware,Altium Limited,Altium Designer,21.0.8 (223)*
G04*
G04 Layer_Color=8388736*
%FSTAX24Y24*%
%MOIN*%
G70*
G04*
G04 #@! TF.SameCoordinates,802AE027-55FB-4EE0-B797-8BAC3B94A1FA*
G04*
G04*
G04 #@! TF.FilePolarity,Negative*
G04*
G01*
G75*
%ADD20C,0.0197*%
%ADD57O,0.0749X0.0316*%
%ADD58R,0.1261X0.0474*%
%ADD59R,0.0512X0.0472*%
%ADD60R,0.0277X0.0651*%
%ADD61R,0.0472X0.0512*%
%ADD62R,0.1064X0.0749*%
G04:AMPARAMS|DCode=63|XSize=258mil|YSize=48.2mil|CornerRadius=14mil|HoleSize=0mil|Usage=FLASHONLY|Rotation=270.000|XOffset=0mil|YOffset=0mil|HoleType=Round|Shape=RoundedRectangle|*
%AMROUNDEDRECTD63*
21,1,0.2580,0.0201,0,0,270.0*
21,1,0.2299,0.0482,0,0,270.0*
1,1,0.0281,-0.0100,-0.1150*
1,1,0.0281,-0.0100,0.1150*
1,1,0.0281,0.0100,0.1150*
1,1,0.0281,0.0100,-0.1150*
%
%ADD63ROUNDEDRECTD63*%
%ADD64R,0.4017X0.3112*%
%ADD65R,0.0434X0.1379*%
%ADD66R,0.1182X0.0454*%
%ADD67R,0.0651X0.0277*%
%ADD68R,0.0552X0.0237*%
%ADD69R,0.0866X0.0315*%
%ADD70R,0.0315X0.0866*%
%ADD71R,0.0474X0.1261*%
G04:AMPARAMS|DCode=72|XSize=39.5mil|YSize=82.8mil|CornerRadius=11.9mil|HoleSize=0mil|Usage=FLASHONLY|Rotation=180.000|XOffset=0mil|YOffset=0mil|HoleType=Round|Shape=RoundedRectangle|*
%AMROUNDEDRECTD72*
21,1,0.0395,0.0591,0,0,180.0*
21,1,0.0157,0.0828,0,0,180.0*
1,1,0.0237,-0.0079,0.0295*
1,1,0.0237,0.0079,0.0295*
1,1,0.0237,0.0079,-0.0295*
1,1,0.0237,-0.0079,-0.0295*
%
%ADD72ROUNDEDRECTD72*%
%ADD73R,0.1360X0.0828*%
%ADD74R,0.0631X0.0867*%
%ADD75R,0.0592X0.0297*%
G04:AMPARAMS|DCode=76|XSize=94.6mil|YSize=67.1mil|CornerRadius=11.4mil|HoleSize=0mil|Usage=FLASHONLY|Rotation=180.000|XOffset=0mil|YOffset=0mil|HoleType=Round|Shape=RoundedRectangle|*
%AMROUNDEDRECTD76*
21,1,0.0946,0.0443,0,0,180.0*
21,1,0.0719,0.0671,0,0,180.0*
1,1,0.0228,-0.0359,0.0221*
1,1,0.0228,0.0359,0.0221*
1,1,0.0228,0.0359,-0.0221*
1,1,0.0228,-0.0359,-0.0221*
%
%ADD76ROUNDEDRECTD76*%
%ADD77R,0.0356X0.0513*%
%ADD78R,0.0867X0.0730*%
%ADD79R,0.0316X0.0710*%
%ADD80R,0.0552X0.0198*%
%ADD81R,0.0198X0.0552*%
%ADD82R,0.1615X0.1773*%
%ADD83R,0.0749X0.1064*%
%ADD84R,0.0560X0.0316*%
%ADD85R,0.1104X0.0867*%
%ADD86R,0.0513X0.0356*%
%ADD87O,0.0690X0.0316*%
%ADD88C,0.0277*%
%ADD89R,0.1340X0.0671*%
%ADD90C,0.0671*%
%ADD91R,0.0671X0.0671*%
%ADD92O,0.0680X0.0980*%
%ADD93R,0.0680X0.0980*%
%ADD94C,0.1280*%
%ADD95C,0.1180*%
%ADD96R,0.0671X0.0671*%
%ADD97C,0.0277*%
%ADD98C,0.3033*%
%ADD99C,0.0907*%
%ADD100C,0.1182*%
%ADD101R,0.0980X0.0730*%
%ADD102O,0.0980X0.0730*%
%ADD103C,0.1064*%
%ADD104C,0.0198*%
G36*
X045769Y049758D02*
X045774Y049757D01*
X045779Y049755D01*
X045784Y049752D01*
X045788Y04975D01*
X045792Y049746D01*
X045796Y049742D01*
X045798Y049738D01*
X045801Y049733D01*
X045802Y049728D01*
X045804Y049723D01*
X045804Y049718D01*
X045804Y046749D01*
X045804Y046744D01*
X045802Y046739D01*
X045801Y046734D01*
X045798Y046729D01*
X045796Y046725D01*
X045792Y046721D01*
X045788Y046717D01*
X045784Y046715D01*
X045779Y046712D01*
X045774Y046711D01*
X045769Y04671D01*
X045764Y046709D01*
X045759Y04671D01*
X045753Y046711D01*
X045748Y046712D01*
X045744Y046715D01*
X045739Y046717D01*
X045735Y046721D01*
X042964Y049492D01*
X010622Y049492D01*
X010417Y049287D01*
Y047052D01*
X010423Y047052D01*
X010428Y047051D01*
X010433Y047049D01*
X010437Y047047D01*
X010442Y047044D01*
X010446Y04704D01*
X010465Y04702D01*
X010469Y047017D01*
X010472Y047012D01*
X010474Y047007D01*
X010476Y047003D01*
X010477Y046997D01*
X010477Y046992D01*
X010477Y013717D01*
X013461Y010733D01*
X031672D01*
X031674Y010733D01*
X031677Y010733D01*
X031677Y010733D01*
X031677Y010733D01*
X03168Y010732D01*
X031682Y010732D01*
X031682Y010732D01*
X031682Y010732D01*
X031685Y010731D01*
X031687Y01073D01*
X031687Y01073D01*
X031687Y01073D01*
X031689Y010729D01*
X031692Y010728D01*
X031692Y010728D01*
X031692Y010728D01*
X031694Y010726D01*
X031696Y010725D01*
X031696Y010725D01*
X031696Y010725D01*
X031698Y010723D01*
X0317Y010721D01*
X0317Y010721D01*
X0317Y010721D01*
X031702Y010719D01*
X031704Y010717D01*
X031704Y010717D01*
X031704Y010717D01*
X031705Y010715D01*
X031706Y010713D01*
X031707Y010713D01*
X031707Y010713D01*
X031708Y010711D01*
X031709Y010708D01*
X031709Y010708D01*
X031709Y010708D01*
X03171Y010706D01*
X031711Y010703D01*
X031711Y010703D01*
X031711Y010703D01*
X031711Y010701D01*
X031712Y010698D01*
X031712Y010698D01*
X031712Y010698D01*
X031712Y010696D01*
X031712Y010693D01*
X031713Y010536D01*
X031712Y010536D01*
X031713Y010536D01*
X031712Y010533D01*
X031712Y010531D01*
X031712Y010531D01*
X031712Y010531D01*
X031712Y010528D01*
X031711Y010526D01*
X031711Y010526D01*
X031711Y010526D01*
X03171Y010523D01*
X03171Y010521D01*
X031709Y010521D01*
X031709Y010521D01*
X031708Y010518D01*
X031707Y010516D01*
X031707Y010516D01*
X031707Y010516D01*
X031706Y010514D01*
X031704Y010512D01*
X031704Y010512D01*
X031704Y010512D01*
X031702Y01051D01*
X031701Y010508D01*
X031701Y010508D01*
X031701Y010508D01*
X031699Y010506D01*
X031697Y010504D01*
X031697Y010504D01*
X031697Y010504D01*
X031695Y010503D01*
X031693Y010501D01*
X031693Y010501D01*
X031692Y010501D01*
X03169Y0105D01*
X031688Y010499D01*
X031688Y010499D01*
X031688Y010499D01*
X031685Y010498D01*
X031683Y010497D01*
X031683Y010497D01*
X031683Y010497D01*
X03168Y010497D01*
X031678Y010496D01*
X031678Y010496D01*
X031678Y010496D01*
X031675Y010496D01*
X031673Y010496D01*
X031672Y010496D01*
X031672Y010496D01*
X010118D01*
X010118Y010496D01*
X010118Y010496D01*
X010115Y010496D01*
X010112Y010496D01*
X010112Y010496D01*
X010112Y010496D01*
X01011Y010497D01*
X010107Y010497D01*
X010107Y010497D01*
X010107Y010497D01*
X010105Y010498D01*
X010102Y010499D01*
X010102Y010499D01*
X010102Y010499D01*
X0101Y0105D01*
X010098Y010501D01*
X010098Y010501D01*
X010098Y010501D01*
X010095Y010503D01*
X010093Y010504D01*
X010093Y010504D01*
X010093Y010504D01*
X010091Y010506D01*
X010089Y010508D01*
X010089Y010508D01*
X010089Y010508D01*
X010088Y01051D01*
X010086Y010512D01*
X010086Y010512D01*
X010086Y010512D01*
X010084Y010514D01*
X010083Y010516D01*
X010083Y010516D01*
X010083Y010516D01*
X010082Y010518D01*
X010081Y010521D01*
X010081Y010521D01*
X010081Y010521D01*
X01008Y010523D01*
X010079Y010526D01*
X010079Y010526D01*
X010079Y010526D01*
X010078Y010528D01*
X010078Y010531D01*
X010078Y010531D01*
X010078Y010531D01*
X010078Y010533D01*
X010078Y010536D01*
X010078Y010536D01*
X010078Y010536D01*
X010078Y010693D01*
Y046967D01*
X010077Y046969D01*
X010075Y046974D01*
X010074Y046979D01*
X010074Y046984D01*
X010074Y046989D01*
X010075Y046995D01*
X010077Y047D01*
X010079Y047004D01*
X010082Y047009D01*
X010086Y047013D01*
X01009Y047016D01*
X010094Y047019D01*
X010099Y047021D01*
X010104Y047023D01*
X010109Y047024D01*
X010114Y047024D01*
Y049718D01*
X042778D01*
X042785Y049733D01*
X042787Y049738D01*
X04279Y049742D01*
X042793Y049746D01*
X042797Y04975D01*
X042802Y049752D01*
X042806Y049755D01*
X04281Y049756D01*
X042811Y049756D01*
X042816Y049758D01*
X042822Y049758D01*
X045764Y049758D01*
X045769Y049758D01*
D02*
G37*
G36*
X049247Y046509D02*
X049249Y046509D01*
X049249Y046509D01*
X049249Y046509D01*
X049252Y046508D01*
X049254Y046508D01*
X049254Y046508D01*
X049254Y046508D01*
X049257Y046507D01*
X049259Y046506D01*
X049259Y046506D01*
X049259Y046506D01*
X049262Y046505D01*
X049264Y046504D01*
X049264Y046504D01*
X049264Y046504D01*
X049266Y046502D01*
X049268Y046501D01*
X049268Y046501D01*
X049268Y046501D01*
X04927Y046499D01*
X049272Y046498D01*
X049272Y046498D01*
X049272Y046497D01*
X049274Y046496D01*
X049276Y046494D01*
X049276Y046494D01*
X049276Y046494D01*
X049277Y046491D01*
X049279Y046489D01*
X049279Y046489D01*
X049279Y046489D01*
X04928Y046487D01*
X049281Y046485D01*
X049281Y046485D01*
X049281Y046484D01*
X049282Y046482D01*
X049283Y04648D01*
X049283Y04648D01*
X049283Y046479D01*
X049283Y046477D01*
X049284Y046474D01*
X049284Y046474D01*
X049284Y046474D01*
X049284Y046472D01*
X049284Y046469D01*
X049284Y046469D01*
X049284Y046469D01*
X049284Y04098D01*
X049284Y04098D01*
X049284Y04098D01*
X049284Y040977D01*
X049284Y040975D01*
X049284Y040974D01*
X049284Y040974D01*
X049283Y040972D01*
X049283Y040969D01*
X049283Y040969D01*
X049283Y040969D01*
X049282Y040967D01*
X049281Y040964D01*
X049281Y040964D01*
X049281Y040964D01*
X04928Y040962D01*
X049279Y04096D01*
X049279Y04096D01*
X049279Y04096D01*
X049277Y040958D01*
X049276Y040955D01*
X049276Y040955D01*
X049276Y040955D01*
X049274Y040953D01*
X049272Y040951D01*
X049272Y040951D01*
X049272Y040951D01*
X04927Y04095D01*
X049268Y040948D01*
X049268Y040948D01*
X049268Y040948D01*
X049266Y040947D01*
X049264Y040945D01*
X049264Y040945D01*
X049264Y040945D01*
X049262Y040944D01*
X049259Y040943D01*
X049259Y040943D01*
X049259Y040943D01*
X049257Y040942D01*
X049254Y040941D01*
X049254Y040941D01*
X049254Y040941D01*
X049252Y04094D01*
X049249Y04094D01*
X049249Y04094D01*
X049249Y04094D01*
X049247Y04094D01*
X049244Y04094D01*
X049244Y04094D01*
X049244Y04094D01*
X049122Y04094D01*
X049119Y04094D01*
X049117Y04094D01*
X049117Y04094D01*
X049117Y04094D01*
X049114Y040941D01*
X049112Y040941D01*
X049112Y040941D01*
X049112Y040941D01*
X049109Y040942D01*
X049107Y040943D01*
X049107Y040943D01*
X049107Y040943D01*
X049104Y040944D01*
X049102Y040945D01*
X049102Y040945D01*
X049102Y040945D01*
X0491Y040947D01*
X049098Y040948D01*
X049098Y040948D01*
X049098Y040948D01*
X049096Y04095D01*
X049094Y040952D01*
X049094Y040952D01*
X049094Y040952D01*
X049092Y040954D01*
X04909Y040956D01*
X04909Y040956D01*
X04909Y040956D01*
X049089Y040958D01*
X049087Y04096D01*
X049087Y04096D01*
X049087Y04096D01*
X049086Y040963D01*
X049085Y040965D01*
X049085Y040965D01*
X049085Y040965D01*
X049084Y040968D01*
X049083Y04097D01*
X049083Y04097D01*
X049083Y04097D01*
X049083Y040973D01*
X049082Y040975D01*
X049082Y040975D01*
X049082Y040975D01*
X049082Y040978D01*
X049082Y04098D01*
Y04098D01*
D01*
D01*
Y04098D01*
X049047D01*
Y046472D01*
X04905Y046469D01*
X049082D01*
X049082Y046471D01*
X049082Y046474D01*
X049082Y046474D01*
X049082Y046474D01*
X049083Y046476D01*
X049083Y046479D01*
X049083Y046479D01*
X049083Y046479D01*
X049084Y046481D01*
X049085Y046484D01*
X049085Y046484D01*
X049085Y046484D01*
X049086Y046486D01*
X049087Y046489D01*
X049087Y046489D01*
X049087Y046489D01*
X049089Y046491D01*
X04909Y046493D01*
X04909Y046493D01*
X04909Y046493D01*
X049092Y046495D01*
X049094Y046497D01*
X049094Y046497D01*
X049094Y046497D01*
X049096Y046499D01*
X049098Y0465D01*
X049098Y0465D01*
X049098Y0465D01*
X0491Y046502D01*
X049102Y046503D01*
X049102Y046503D01*
X049102Y046503D01*
X049104Y046505D01*
X049107Y046506D01*
X049107Y046506D01*
X049107Y046506D01*
X049109Y046506D01*
X049112Y046507D01*
X049112Y046507D01*
X049112Y046507D01*
X049114Y046508D01*
X049117Y046508D01*
X049117Y046508D01*
X049117Y046508D01*
X049119Y046509D01*
X049122Y046509D01*
X049244Y046509D01*
X049244Y046509D01*
X049244Y046509D01*
X049247Y046509D01*
D02*
G37*
G36*
X049241Y014D02*
X049247Y013999D01*
X049252Y013998D01*
X049256Y013995D01*
X049261Y013992D01*
X049265Y013989D01*
X049268Y013985D01*
X049271Y013981D01*
X049273Y013976D01*
X049275Y013971D01*
X049276Y013966D01*
X049276Y013961D01*
Y010591D01*
X049276Y010585D01*
X049275Y01058D01*
X049273Y010575D01*
X049271Y010571D01*
X049268Y010566D01*
X049265Y010562D01*
X049261Y010559D01*
X049256Y010556D01*
X049252Y010554D01*
X049247Y010552D01*
X049241Y010551D01*
X049236Y01055D01*
X045866Y01055D01*
X045861Y010551D01*
X045856Y010552D01*
X045851Y010554D01*
X045846Y010556D01*
X045842Y010559D01*
X045838Y010562D01*
X045834Y010566D01*
X045831Y010571D01*
X045829Y010575D01*
X045827Y01058D01*
X045826Y010585D01*
X045826Y010591D01*
X045826Y010596D01*
X045827Y010601D01*
X045829Y010606D01*
X045831Y010611D01*
X045834Y010615D01*
X045838Y010619D01*
X049208Y013989D01*
X049212Y013992D01*
X049216Y013995D01*
X049221Y013998D01*
X049226Y013999D01*
X049231Y014D01*
X049236Y014001D01*
X049241Y014D01*
D02*
G37*
D20*
X041783Y034327D02*
X04524D01*
D57*
X040972Y019278D02*
D03*
Y018278D02*
D03*
Y018778D02*
D03*
Y019778D02*
D03*
X043098Y018278D02*
D03*
Y018778D02*
D03*
Y019278D02*
D03*
Y019778D02*
D03*
D58*
X011102Y041126D02*
D03*
X012874D02*
D03*
X017429Y048072D02*
D03*
X0192D02*
D03*
D59*
X048819Y028587D02*
D03*
X04815D02*
D03*
X017805Y045706D02*
D03*
X018474D02*
D03*
X035756Y028291D02*
D03*
X035087D02*
D03*
X048841Y026234D02*
D03*
X048171D02*
D03*
X048154Y027854D02*
D03*
X048823D02*
D03*
X017791Y044984D02*
D03*
X018461D02*
D03*
X011626Y03939D02*
D03*
X012295D02*
D03*
X044154Y017638D02*
D03*
X044823D02*
D03*
X045965Y033307D02*
D03*
X046634D02*
D03*
X045948Y034092D02*
D03*
X046617D02*
D03*
X033346Y031354D02*
D03*
X032677D02*
D03*
X033346Y032555D02*
D03*
X032677D02*
D03*
X048815Y040551D02*
D03*
X048146D02*
D03*
X043654Y044169D02*
D03*
X044323D02*
D03*
D60*
X048281Y027044D02*
D03*
X04895D02*
D03*
X048256Y04138D02*
D03*
X048925D02*
D03*
X048921Y039748D02*
D03*
X048252D02*
D03*
D61*
X031941Y035055D02*
D03*
Y035724D02*
D03*
X031961Y033571D02*
D03*
Y03424D02*
D03*
X042591Y042193D02*
D03*
Y041524D02*
D03*
X035228Y037248D02*
D03*
Y037917D02*
D03*
X046441Y024961D02*
D03*
Y024291D02*
D03*
X026453Y042551D02*
D03*
Y041882D02*
D03*
X027071Y039244D02*
D03*
Y038575D02*
D03*
X043319Y042189D02*
D03*
Y04152D02*
D03*
X046972Y041504D02*
D03*
Y042173D02*
D03*
X045307Y044157D02*
D03*
Y044827D02*
D03*
X042685D02*
D03*
Y044157D02*
D03*
X038087Y012756D02*
D03*
Y012087D02*
D03*
X026362Y038575D02*
D03*
X026362Y039244D02*
D03*
X045118Y030374D02*
D03*
Y029705D02*
D03*
X033906Y03726D02*
D03*
Y037929D02*
D03*
X033134Y03726D02*
D03*
Y037929D02*
D03*
X021992Y033732D02*
D03*
Y034402D02*
D03*
X028465Y034358D02*
D03*
Y033689D02*
D03*
X024327Y018661D02*
D03*
Y017992D02*
D03*
X02528D02*
D03*
Y018661D02*
D03*
X026224Y018661D02*
D03*
Y017992D02*
D03*
X021327Y011256D02*
D03*
Y011925D02*
D03*
X042736Y02937D02*
D03*
Y028701D02*
D03*
X043453Y02937D02*
D03*
Y028701D02*
D03*
X024327Y030035D02*
D03*
Y029366D02*
D03*
X02528Y030035D02*
D03*
Y029366D02*
D03*
X026224Y030063D02*
D03*
Y029394D02*
D03*
Y023398D02*
D03*
Y024067D02*
D03*
X02528Y023402D02*
D03*
Y024071D02*
D03*
X024327Y023398D02*
D03*
Y024067D02*
D03*
X036366Y034382D02*
D03*
Y035051D02*
D03*
X037075Y034374D02*
D03*
Y035043D02*
D03*
X037819D02*
D03*
Y034374D02*
D03*
X035547Y030227D02*
D03*
Y029558D02*
D03*
X03472Y030227D02*
D03*
Y029558D02*
D03*
X026453Y04089D02*
D03*
Y04022D02*
D03*
X028571Y039244D02*
D03*
Y038575D02*
D03*
X027811Y039244D02*
D03*
Y038575D02*
D03*
X044882Y01898D02*
D03*
Y01965D02*
D03*
X03385Y012114D02*
D03*
Y012783D02*
D03*
X036024Y012091D02*
D03*
Y01276D02*
D03*
X039803Y01811D02*
D03*
Y01878D02*
D03*
X038945Y01878D02*
D03*
Y01811D02*
D03*
X038921Y016276D02*
D03*
Y016945D02*
D03*
X03978D02*
D03*
Y016276D02*
D03*
X046496Y019626D02*
D03*
Y018957D02*
D03*
X046689Y016756D02*
D03*
Y016087D02*
D03*
X045839Y016756D02*
D03*
Y016087D02*
D03*
X044961Y016752D02*
D03*
Y016083D02*
D03*
X044094Y016752D02*
D03*
Y016083D02*
D03*
X044016Y01965D02*
D03*
Y01898D02*
D03*
X046732Y014488D02*
D03*
Y013819D02*
D03*
X034665Y026091D02*
D03*
Y02676D02*
D03*
X042736Y032358D02*
D03*
Y033028D02*
D03*
X046441Y022642D02*
D03*
Y023311D02*
D03*
X043453Y032354D02*
D03*
Y033024D02*
D03*
X031177Y030551D02*
D03*
Y03122D02*
D03*
X031929Y030551D02*
D03*
Y03122D02*
D03*
X035626Y031748D02*
D03*
Y032417D02*
D03*
X040024Y037933D02*
D03*
Y037264D02*
D03*
X041283Y037264D02*
D03*
Y037933D02*
D03*
X042055Y037264D02*
D03*
Y037933D02*
D03*
D62*
X014554Y048189D02*
D03*
X016154D02*
D03*
X01083Y037937D02*
D03*
X01243D02*
D03*
D63*
X023618Y043748D02*
D03*
X022949D02*
D03*
X02228D02*
D03*
X02161D02*
D03*
X020941D02*
D03*
D64*
X022201Y047597D02*
D03*
D65*
X024272Y037941D02*
D03*
Y039752D02*
D03*
D66*
X044409Y042205D02*
D03*
Y04126D02*
D03*
X045874Y042197D02*
D03*
Y041252D02*
D03*
X037299Y027008D02*
D03*
Y026063D02*
D03*
X035858D02*
D03*
Y027008D02*
D03*
D67*
X0195Y045642D02*
D03*
Y044972D02*
D03*
D68*
X03662Y03827D02*
D03*
Y038014D02*
D03*
Y037758D02*
D03*
Y037502D02*
D03*
Y037246D02*
D03*
Y03699D02*
D03*
Y036734D02*
D03*
Y036478D02*
D03*
Y036222D02*
D03*
Y035967D02*
D03*
X038746Y036222D02*
D03*
Y036478D02*
D03*
Y036734D02*
D03*
Y03699D02*
D03*
Y037246D02*
D03*
Y037502D02*
D03*
Y037758D02*
D03*
Y038014D02*
D03*
Y03827D02*
D03*
Y035967D02*
D03*
D69*
X041603Y048387D02*
D03*
Y047993D02*
D03*
Y0476D02*
D03*
Y039726D02*
D03*
Y040119D02*
D03*
Y040513D02*
D03*
X032154Y039726D02*
D03*
Y040119D02*
D03*
Y040513D02*
D03*
Y047206D02*
D03*
Y048387D02*
D03*
Y047993D02*
D03*
Y0476D02*
D03*
Y043269D02*
D03*
Y043663D02*
D03*
Y044056D02*
D03*
Y04445D02*
D03*
Y044844D02*
D03*
Y045631D02*
D03*
Y046025D02*
D03*
Y046418D02*
D03*
Y046812D02*
D03*
Y045237D02*
D03*
Y042875D02*
D03*
X041603Y043269D02*
D03*
Y042481D02*
D03*
Y042088D02*
D03*
Y041694D02*
D03*
Y0413D02*
D03*
Y040907D02*
D03*
Y043663D02*
D03*
Y044056D02*
D03*
Y042875D02*
D03*
Y04445D02*
D03*
Y044844D02*
D03*
X032154Y042481D02*
D03*
Y0413D02*
D03*
Y042088D02*
D03*
Y041694D02*
D03*
Y040907D02*
D03*
X041603Y045237D02*
D03*
Y045631D02*
D03*
Y046025D02*
D03*
Y046418D02*
D03*
Y046812D02*
D03*
Y047206D02*
D03*
D70*
X033729Y048781D02*
D03*
X03806D02*
D03*
X037666D02*
D03*
X034517D02*
D03*
X03491D02*
D03*
X035304D02*
D03*
X035698D02*
D03*
X036091D02*
D03*
X036485D02*
D03*
X036879D02*
D03*
X034123D02*
D03*
X037272D02*
D03*
X038454D02*
D03*
X033729Y039332D02*
D03*
X034517D02*
D03*
X03491D02*
D03*
X035304D02*
D03*
X034123D02*
D03*
X037272D02*
D03*
X036879D02*
D03*
X036485D02*
D03*
X036091D02*
D03*
X035698D02*
D03*
X037666D02*
D03*
X038847D02*
D03*
X039241D02*
D03*
X039635D02*
D03*
X040028D02*
D03*
X03806D02*
D03*
X038454D02*
D03*
X040028Y048781D02*
D03*
X039635D02*
D03*
X039241D02*
D03*
X038847D02*
D03*
D71*
X020272Y033067D02*
D03*
Y034839D02*
D03*
X023181Y013114D02*
D03*
Y011343D02*
D03*
X026028Y013114D02*
D03*
Y011343D02*
D03*
X026673Y035075D02*
D03*
Y033303D02*
D03*
D72*
X024724Y035165D02*
D03*
X022913D02*
D03*
X023819D02*
D03*
D73*
Y033039D02*
D03*
D74*
X029957Y030736D02*
D03*
Y033256D02*
D03*
D75*
X018748Y037675D02*
D03*
Y038175D02*
D03*
Y038675D02*
D03*
X01674Y037675D02*
D03*
Y038175D02*
D03*
Y038675D02*
D03*
X018748Y039175D02*
D03*
X01674D02*
D03*
D76*
X025815Y020327D02*
D03*
X024161D02*
D03*
X025811Y026087D02*
D03*
X024157D02*
D03*
X024161Y014945D02*
D03*
X025815D02*
D03*
D77*
X025252Y022551D02*
D03*
X024504D02*
D03*
X024878Y021528D02*
D03*
Y027496D02*
D03*
X024504Y02852D02*
D03*
X025252D02*
D03*
Y017165D02*
D03*
X024504D02*
D03*
X024878Y016142D02*
D03*
X034059Y028272D02*
D03*
X033311D02*
D03*
X033685Y027248D02*
D03*
X031819Y037102D02*
D03*
X031445Y038126D02*
D03*
X032193D02*
D03*
D78*
X032945Y034929D02*
D03*
Y033906D02*
D03*
D79*
X045974Y03248D02*
D03*
X046474D02*
D03*
X046974D02*
D03*
X047474D02*
D03*
Y029646D02*
D03*
X046974D02*
D03*
X046474D02*
D03*
X045974D02*
D03*
D80*
X038406Y032988D02*
D03*
Y032791D02*
D03*
X041752Y032988D02*
D03*
Y032791D02*
D03*
Y032594D02*
D03*
Y032398D02*
D03*
Y032201D02*
D03*
Y032004D02*
D03*
Y031807D02*
D03*
Y03161D02*
D03*
Y031413D02*
D03*
Y031217D02*
D03*
Y03102D02*
D03*
Y030823D02*
D03*
X038406D02*
D03*
Y03102D02*
D03*
Y031217D02*
D03*
Y031413D02*
D03*
Y03161D02*
D03*
Y031807D02*
D03*
Y032004D02*
D03*
Y032201D02*
D03*
Y032398D02*
D03*
Y032594D02*
D03*
Y032791D02*
D03*
D81*
X041161Y033579D02*
D03*
X040965D02*
D03*
X040768D02*
D03*
X040571D02*
D03*
X040374D02*
D03*
X040177D02*
D03*
X03998D02*
D03*
X039783D02*
D03*
X039587D02*
D03*
X03939D02*
D03*
X040965Y030232D02*
D03*
X041161D02*
D03*
X040768D02*
D03*
X040571D02*
D03*
X040374D02*
D03*
X040177D02*
D03*
X03998D02*
D03*
X039783D02*
D03*
X039587D02*
D03*
X03939D02*
D03*
X039193Y033579D02*
D03*
Y030232D02*
D03*
X038996Y033579D02*
D03*
Y030232D02*
D03*
D82*
X012075Y034768D02*
D03*
X015815D02*
D03*
D83*
X01465Y0466D02*
D03*
Y045D02*
D03*
D84*
X045065Y014291D02*
D03*
X045959Y014567D02*
D03*
Y014016D02*
D03*
D85*
X034547Y031307D02*
D03*
Y032764D02*
D03*
D86*
X043098Y037972D02*
D03*
Y037224D02*
D03*
X044122Y037598D02*
D03*
D87*
X043071Y015392D02*
D03*
Y015892D02*
D03*
Y016392D02*
D03*
Y016892D02*
D03*
X040945Y015392D02*
D03*
Y015892D02*
D03*
Y016392D02*
D03*
Y016892D02*
D03*
D88*
X030135Y035968D02*
X031295D01*
X038362Y027283D02*
X039252D01*
X038362D02*
Y027874D01*
X029319Y034681D02*
Y035177D01*
X029354Y029283D02*
X030319D01*
X038361Y027874D02*
X038362Y027874D01*
X042638Y027283D02*
X044567D01*
D89*
X030984Y026929D02*
D03*
Y028268D02*
D03*
D90*
X028335Y012823D02*
D03*
X037059Y011051D02*
D03*
X034929Y011055D02*
D03*
X048654Y030528D02*
D03*
Y031528D02*
D03*
Y032528D02*
D03*
X032823Y011071D02*
D03*
X048654Y023319D02*
D03*
Y024319D02*
D03*
Y025319D02*
D03*
X047654Y022319D02*
D03*
Y023319D02*
D03*
Y024319D02*
D03*
Y025319D02*
D03*
X048654Y033638D02*
D03*
Y034638D02*
D03*
Y035638D02*
D03*
Y036638D02*
D03*
Y037638D02*
D03*
D91*
X031335Y012828D02*
D03*
X038059Y011051D02*
D03*
X035929Y011055D02*
D03*
X033823Y011071D02*
D03*
D92*
X027382Y029906D02*
D03*
X028382D02*
D03*
Y026906D02*
D03*
X028358Y015492D02*
D03*
Y018492D02*
D03*
X027358D02*
D03*
Y023902D02*
D03*
X028358D02*
D03*
Y020902D02*
D03*
D93*
X027382Y026906D02*
D03*
X027358Y015492D02*
D03*
Y020902D02*
D03*
D94*
X020366Y018315D02*
D03*
Y013591D02*
D03*
X015563Y018391D02*
D03*
Y013591D02*
D03*
X021154Y015953D02*
D03*
X021126Y028747D02*
D03*
X015535Y026385D02*
D03*
Y031185D02*
D03*
X020339Y026385D02*
D03*
Y031109D02*
D03*
X020354Y024728D02*
D03*
Y020004D02*
D03*
X015551Y024804D02*
D03*
Y020004D02*
D03*
X021142Y022366D02*
D03*
D95*
X011976Y024102D02*
D03*
Y022102D02*
D03*
Y030894D02*
D03*
Y028894D02*
D03*
X01202Y015972D02*
D03*
Y017972D02*
D03*
X0117Y0466D02*
D03*
Y0486D02*
D03*
D96*
X048654Y029528D02*
D03*
Y022319D02*
D03*
Y038638D02*
D03*
D97*
X012386Y011457D02*
D03*
X010811Y012638D02*
D03*
X010614Y012047D02*
D03*
X011598Y011063D02*
D03*
X012583Y012047D02*
D03*
X012386Y012638D02*
D03*
X011598Y013032D02*
D03*
X010811Y011457D02*
D03*
X043465Y047598D02*
D03*
X044252Y049173D02*
D03*
X045039Y04878D02*
D03*
X045236Y048189D02*
D03*
X044252Y047205D02*
D03*
X043268Y048189D02*
D03*
X043465Y04878D02*
D03*
X045039Y047598D02*
D03*
X048513Y011502D02*
D03*
X046939Y012683D02*
D03*
X046742Y012092D02*
D03*
X047726Y011108D02*
D03*
X04871Y012092D02*
D03*
X048513Y012683D02*
D03*
X047726Y013076D02*
D03*
X046939Y011502D02*
D03*
X010965Y043453D02*
D03*
X011752Y045028D02*
D03*
X012539Y044634D02*
D03*
X012736Y044043D02*
D03*
X011752Y043059D02*
D03*
X010768Y044043D02*
D03*
X010965Y044634D02*
D03*
X012539Y043453D02*
D03*
D98*
X011598Y012047D02*
D03*
X044252Y048189D02*
D03*
X047726Y012092D02*
D03*
X011752Y044043D02*
D03*
D99*
X041661Y01385D02*
D03*
X042661D02*
D03*
D100*
X039661Y01185D02*
D03*
X043661D02*
D03*
D101*
X048264Y01439D02*
D03*
X048241Y020465D02*
D03*
D102*
X048264Y01539D02*
D03*
Y01639D02*
D03*
X048241Y019465D02*
D03*
Y018465D02*
D03*
D103*
X0466Y0472D02*
D03*
X0486D02*
D03*
Y0492D02*
D03*
X0466D02*
D03*
X0476Y0482D02*
D03*
D104*
X027651Y010634D02*
D03*
X02706Y010654D02*
D03*
X028033Y010634D02*
D03*
X028533D02*
D03*
X029033D02*
D03*
X020886D02*
D03*
X020504D02*
D03*
X021386D02*
D03*
X017291D02*
D03*
X017622D02*
D03*
X020004D02*
D03*
X030943D02*
D03*
X031443D02*
D03*
X030561D02*
D03*
X02656Y010654D02*
D03*
X02606D02*
D03*
X02556D02*
D03*
X030033Y010634D02*
D03*
X029533D02*
D03*
X022858D02*
D03*
X023769D02*
D03*
X024269D02*
D03*
X024769D02*
D03*
X025178Y010654D02*
D03*
X023386Y010634D02*
D03*
X022386D02*
D03*
X021886D02*
D03*
X017004D02*
D03*
X018004D02*
D03*
X019504D02*
D03*
X019004D02*
D03*
X018504D02*
D03*
X015122D02*
D03*
X015622D02*
D03*
X016122D02*
D03*
X016622D02*
D03*
X014622D02*
D03*
X014122D02*
D03*
X013622D02*
D03*
X01174D02*
D03*
X01224D02*
D03*
X01274D02*
D03*
X01324D02*
D03*
X01124D02*
D03*
X01074D02*
D03*
X01024D02*
D03*
X010236Y017067D02*
D03*
Y016567D02*
D03*
Y016067D02*
D03*
Y015567D02*
D03*
Y015067D02*
D03*
Y014567D02*
D03*
Y014067D02*
D03*
Y013567D02*
D03*
Y013067D02*
D03*
Y011067D02*
D03*
Y011567D02*
D03*
Y012567D02*
D03*
Y024567D02*
D03*
Y024067D02*
D03*
Y023567D02*
D03*
Y023067D02*
D03*
Y022567D02*
D03*
Y022067D02*
D03*
Y021567D02*
D03*
Y021067D02*
D03*
Y020567D02*
D03*
Y017567D02*
D03*
Y018067D02*
D03*
Y018567D02*
D03*
Y019067D02*
D03*
Y019567D02*
D03*
Y020067D02*
D03*
Y032067D02*
D03*
Y031567D02*
D03*
Y031067D02*
D03*
Y030567D02*
D03*
Y030067D02*
D03*
Y029567D02*
D03*
Y029067D02*
D03*
Y028567D02*
D03*
Y028067D02*
D03*
Y025067D02*
D03*
Y025567D02*
D03*
Y026067D02*
D03*
Y026567D02*
D03*
Y027067D02*
D03*
Y027567D02*
D03*
Y039567D02*
D03*
Y039067D02*
D03*
Y038567D02*
D03*
Y038067D02*
D03*
Y037567D02*
D03*
Y037067D02*
D03*
Y036567D02*
D03*
Y036067D02*
D03*
Y035567D02*
D03*
Y032567D02*
D03*
Y033067D02*
D03*
Y033567D02*
D03*
Y034067D02*
D03*
Y034567D02*
D03*
Y035067D02*
D03*
Y047067D02*
D03*
Y046567D02*
D03*
Y046067D02*
D03*
Y045567D02*
D03*
Y045067D02*
D03*
Y044567D02*
D03*
Y044067D02*
D03*
Y040067D02*
D03*
Y040567D02*
D03*
Y041067D02*
D03*
Y041567D02*
D03*
Y042067D02*
D03*
Y042567D02*
D03*
Y047567D02*
D03*
Y048067D02*
D03*
Y048567D02*
D03*
Y049067D02*
D03*
M02*
