G04*
G04 #@! TF.GenerationSoftware,Altium Limited,Altium Designer,21.0.8 (223)*
G04*
G04 Layer_Color=255*
%FSTAX24Y24*%
%MOIN*%
G70*
G04*
G04 #@! TF.SameCoordinates,802AE027-55FB-4EE0-B797-8BAC3B94A1FA*
G04*
G04*
G04 #@! TF.FilePolarity,Positive*
G04*
G01*
G75*
%ADD30R,0.0394X0.0433*%
%ADD113R,0.1260X0.0591*%
%ADD114C,0.0591*%
%ADD115R,0.0591X0.0591*%
%ADD116O,0.0600X0.0900*%
%ADD117R,0.0600X0.0900*%
%ADD118C,0.1200*%
%ADD119C,0.0197*%
%ADD120C,0.1100*%
%ADD121R,0.0591X0.0591*%
%ADD122C,0.2953*%
%ADD123C,0.0827*%
%ADD124C,0.1102*%
%ADD125R,0.0900X0.0650*%
%ADD126O,0.0900X0.0650*%
%ADD127C,0.0984*%
%ADD131C,0.0394*%
%ADD132R,0.0276X0.0449*%
%ADD133R,0.0315X0.0827*%
%ADD134R,0.0236X0.0449*%
G04:AMPARAMS|DCode=135|XSize=52.8mil|YSize=15.7mil|CornerRadius=3.9mil|HoleSize=0mil|Usage=FLASHONLY|Rotation=180.000|XOffset=0mil|YOffset=0mil|HoleType=Round|Shape=RoundedRectangle|*
%AMROUNDEDRECTD135*
21,1,0.0528,0.0079,0,0,180.0*
21,1,0.0449,0.0157,0,0,180.0*
1,1,0.0079,-0.0224,0.0039*
1,1,0.0079,0.0224,0.0039*
1,1,0.0079,0.0224,-0.0039*
1,1,0.0079,-0.0224,-0.0039*
%
%ADD135ROUNDEDRECTD135*%
D30*
X034768Y040378D02*
D03*
Y039709D02*
D03*
X035594Y040378D02*
D03*
Y039709D02*
D03*
X036421Y040366D02*
D03*
Y039697D02*
D03*
X038461Y040992D02*
D03*
Y040323D02*
D03*
X039331Y040984D02*
D03*
Y040315D02*
D03*
X036433Y041575D02*
D03*
Y042244D02*
D03*
X0356Y041588D02*
D03*
Y042257D02*
D03*
X034773Y041592D02*
D03*
Y042261D02*
D03*
D113*
X030984Y026929D02*
D03*
Y028268D02*
D03*
D114*
X028335Y012823D02*
D03*
X037059Y011051D02*
D03*
X034929Y011055D02*
D03*
X048654Y030528D02*
D03*
Y031528D02*
D03*
Y032528D02*
D03*
X032823Y011071D02*
D03*
X048654Y023319D02*
D03*
Y024319D02*
D03*
Y025319D02*
D03*
X047654Y022319D02*
D03*
Y023319D02*
D03*
Y024319D02*
D03*
Y025319D02*
D03*
X048654Y033638D02*
D03*
Y034638D02*
D03*
Y035638D02*
D03*
Y036638D02*
D03*
Y037638D02*
D03*
D115*
X031335Y012828D02*
D03*
X038059Y011051D02*
D03*
X035929Y011055D02*
D03*
X033823Y011071D02*
D03*
D116*
X027382Y029906D02*
D03*
X028382D02*
D03*
Y026906D02*
D03*
X028358Y015492D02*
D03*
Y018492D02*
D03*
X027358D02*
D03*
Y023902D02*
D03*
X028358D02*
D03*
Y020902D02*
D03*
D117*
X027382Y026906D02*
D03*
X027358Y015492D02*
D03*
Y020902D02*
D03*
D118*
X020366Y018315D02*
D03*
Y013591D02*
D03*
X015563Y018391D02*
D03*
Y013591D02*
D03*
X021154Y015953D02*
D03*
X021126Y028747D02*
D03*
X015535Y026385D02*
D03*
Y031185D02*
D03*
X020339Y026385D02*
D03*
Y031109D02*
D03*
X020354Y024728D02*
D03*
Y020004D02*
D03*
X015551Y024804D02*
D03*
Y020004D02*
D03*
X021142Y022366D02*
D03*
D119*
X017744Y037756D02*
D03*
Y038228D02*
D03*
Y038661D02*
D03*
Y039134D02*
D03*
X01798D02*
D03*
Y038661D02*
D03*
Y038228D02*
D03*
Y037756D02*
D03*
X017508D02*
D03*
Y038228D02*
D03*
Y038661D02*
D03*
Y039134D02*
D03*
X012386Y011457D02*
D03*
X010811Y012638D02*
D03*
X010614Y012047D02*
D03*
X011598Y011063D02*
D03*
X012583Y012047D02*
D03*
X012386Y012638D02*
D03*
X011598Y013032D02*
D03*
X010811Y011457D02*
D03*
X043465Y047598D02*
D03*
X044252Y049173D02*
D03*
X045039Y04878D02*
D03*
X045236Y048189D02*
D03*
X044252Y047205D02*
D03*
X043268Y048189D02*
D03*
X043465Y04878D02*
D03*
X045039Y047598D02*
D03*
X048513Y011502D02*
D03*
X046939Y012683D02*
D03*
X046742Y012092D02*
D03*
X047726Y011108D02*
D03*
X04871Y012092D02*
D03*
X048513Y012683D02*
D03*
X047726Y013076D02*
D03*
X046939Y011502D02*
D03*
X010965Y043453D02*
D03*
X011752Y045028D02*
D03*
X012539Y044634D02*
D03*
X012736Y044043D02*
D03*
X011752Y043059D02*
D03*
X010768Y044043D02*
D03*
X010965Y044634D02*
D03*
X012539Y043453D02*
D03*
D120*
X011976Y024102D02*
D03*
Y022102D02*
D03*
Y030894D02*
D03*
Y028894D02*
D03*
X01202Y015972D02*
D03*
Y017972D02*
D03*
X0117Y0466D02*
D03*
Y0486D02*
D03*
D121*
X048654Y029528D02*
D03*
Y022319D02*
D03*
Y038638D02*
D03*
D122*
X011598Y012047D02*
D03*
X044252Y048189D02*
D03*
X047726Y012092D02*
D03*
X011752Y044043D02*
D03*
D123*
X041661Y01385D02*
D03*
X042661D02*
D03*
D124*
X039661Y01185D02*
D03*
X043661D02*
D03*
D125*
X048264Y01439D02*
D03*
X048241Y020465D02*
D03*
D126*
X048264Y01539D02*
D03*
Y01639D02*
D03*
X048241Y019465D02*
D03*
Y018465D02*
D03*
D127*
X0466Y0472D02*
D03*
X0486D02*
D03*
Y0492D02*
D03*
X0466D02*
D03*
X0476Y0482D02*
D03*
D131*
X03315Y048929D02*
D03*
Y048311D02*
D03*
Y047669D02*
D03*
X039012Y031563D02*
D03*
X039004Y032248D02*
D03*
X03902Y032894D02*
D03*
D132*
X036236Y043598D02*
D03*
X037236D02*
D03*
X035736D02*
D03*
X036736D02*
D03*
X037736D02*
D03*
X035236D02*
D03*
D133*
X034579Y044181D02*
D03*
X039697Y048906D02*
D03*
X034579D02*
D03*
X039697Y044181D02*
D03*
D134*
X03811Y043598D02*
D03*
D135*
X037717Y041795D02*
D03*
Y042051D02*
D03*
Y042307D02*
D03*
X038488D02*
D03*
Y042051D02*
D03*
Y041795D02*
D03*
M02*
