G04*
G04 #@! TF.GenerationSoftware,Altium Limited,Altium Designer,21.0.8 (223)*
G04*
G04 Layer_Color=16711935*
%FSTAX24Y24*%
%MOIN*%
G70*
G04*
G04 #@! TF.SameCoordinates,802AE027-55FB-4EE0-B797-8BAC3B94A1FA*
G04*
G04*
G04 #@! TF.FilePolarity,Negative*
G04*
G01*
G75*
%ADD61R,0.0472X0.0512*%
%ADD89R,0.1340X0.0671*%
%ADD90C,0.0671*%
%ADD91R,0.0671X0.0671*%
%ADD92O,0.0680X0.0980*%
%ADD93R,0.0680X0.0980*%
%ADD94C,0.1280*%
%ADD95C,0.1180*%
%ADD96R,0.0671X0.0671*%
%ADD97C,0.0277*%
%ADD98C,0.3033*%
%ADD99C,0.0907*%
%ADD100C,0.1182*%
%ADD101R,0.0980X0.0730*%
%ADD102O,0.0980X0.0730*%
%ADD103C,0.1064*%
%ADD104C,0.0198*%
%ADD137C,0.0474*%
%ADD138R,0.0356X0.0529*%
%ADD139R,0.0395X0.0907*%
%ADD140R,0.0316X0.0529*%
G04:AMPARAMS|DCode=141|XSize=60.8mil|YSize=23.7mil|CornerRadius=7.9mil|HoleSize=0mil|Usage=FLASHONLY|Rotation=180.000|XOffset=0mil|YOffset=0mil|HoleType=Round|Shape=RoundedRectangle|*
%AMROUNDEDRECTD141*
21,1,0.0608,0.0079,0,0,180.0*
21,1,0.0449,0.0237,0,0,180.0*
1,1,0.0159,-0.0224,0.0039*
1,1,0.0159,0.0224,0.0039*
1,1,0.0159,0.0224,-0.0039*
1,1,0.0159,-0.0224,-0.0039*
%
%ADD141ROUNDEDRECTD141*%
G36*
X045748Y049753D02*
X045753Y049752D01*
X045758Y049751D01*
X045763Y04975D01*
X045768Y049747D01*
X045772Y049744D01*
X045776Y049741D01*
X04578Y049737D01*
X045783Y049733D01*
X045785Y049728D01*
X045787Y049723D01*
X045788Y049718D01*
X045788Y049713D01*
X045788Y049476D01*
Y049476D01*
D01*
X045788Y049476D01*
X045788Y048247D01*
X045788Y048242D01*
X045787Y048236D01*
X045785Y048232D01*
X045783Y048227D01*
X045781Y048224D01*
X04578Y048222D01*
X045778Y04822D01*
X045776Y048218D01*
X045772Y048215D01*
X045768Y048212D01*
X045763Y04821D01*
X044628Y04774D01*
X044628Y04774D01*
X044623Y047738D01*
X044618Y047737D01*
X044613Y047737D01*
X044608Y047737D01*
X044603Y047738D01*
X044598Y04774D01*
X044596Y04774D01*
X044593Y047742D01*
X044589Y047745D01*
X044585Y047748D01*
X044585Y047748D01*
X042897Y049436D01*
X010741Y049436D01*
X010741Y013315D01*
X013268Y010788D01*
X032197Y010788D01*
X032202Y010788D01*
X032207Y010787D01*
X032212Y010785D01*
X032217Y010783D01*
X032221Y01078D01*
X032225Y010776D01*
X032229Y010772D01*
X032232Y010768D01*
X032234Y010763D01*
X032236Y010758D01*
X032237Y010753D01*
X032237Y010748D01*
Y010551D01*
X032237Y010546D01*
X032236Y010541D01*
X032234Y010536D01*
X032232Y010531D01*
X032229Y010527D01*
X032225Y010523D01*
X032221Y010519D01*
X032217Y010516D01*
X032212Y010514D01*
X032207Y010512D01*
X032202Y010511D01*
X032197Y010511D01*
X010118Y010511D01*
X010113Y010511D01*
X010108Y010512D01*
X010103Y010514D01*
X010098Y010516D01*
X010094Y010519D01*
X01009Y010523D01*
X010086Y010527D01*
X010083Y010531D01*
X010081Y010536D01*
X010079Y010541D01*
X010078Y010546D01*
X010078Y010551D01*
Y010607D01*
X010076Y01061D01*
X010074Y010615D01*
X010072Y01062D01*
X010071Y010625D01*
X010071Y01063D01*
Y012978D01*
X010071Y012978D01*
X01007Y012983D01*
X010069Y012988D01*
Y049642D01*
X010069Y049642D01*
Y049713D01*
X01007Y049718D01*
X010071Y049723D01*
X010072Y049728D01*
X010075Y049733D01*
X010078Y049737D01*
X010081Y049741D01*
X010085Y049744D01*
X010089Y049747D01*
X010094Y04975D01*
X010099Y049751D01*
X010104Y049752D01*
X010109Y049753D01*
X045748Y049753D01*
D02*
G37*
G36*
X049249Y046457D02*
X049254Y046456D01*
X049259Y046454D01*
X049264Y046452D01*
X049268Y046449D01*
X049272Y046446D01*
X049276Y046442D01*
X049279Y046437D01*
X049281Y046433D01*
X049283Y046428D01*
X049284Y046423D01*
X049284Y046417D01*
X049284Y03815D01*
X049284Y038144D01*
X049283Y038139D01*
X049281Y038134D01*
X049279Y03813D01*
X049276Y038125D01*
X049272Y038121D01*
X049268Y038118D01*
X049264Y038115D01*
X049259Y038113D01*
X049254Y038111D01*
X049249Y03811D01*
X049244Y03811D01*
X048906Y03811D01*
X048906D01*
D01*
X048905Y03811D01*
X048375D01*
X048374Y038109D01*
X048369Y038107D01*
X048363Y038106D01*
X048358Y038106D01*
X048353Y038106D01*
X048348Y038107D01*
X048343Y038109D01*
X048338Y038111D01*
X048334Y038114D01*
X04833Y038117D01*
X048326Y038121D01*
X048324Y038126D01*
X048321Y03813D01*
X04832Y038135D01*
X048319Y03814D01*
X048318Y038146D01*
X048318Y038358D01*
X048319Y038363D01*
X04832Y038369D01*
X048321Y038374D01*
X048324Y038378D01*
X048326Y038383D01*
X04833Y038387D01*
X048334Y03839D01*
X048338Y038393D01*
X048343Y038395D01*
X048348Y038397D01*
X048353Y038398D01*
X048358Y038398D01*
X048865Y038398D01*
X048865Y046417D01*
X048866Y046423D01*
X048867Y046428D01*
X048868Y046433D01*
X048871Y046437D01*
X048874Y046442D01*
X048877Y046446D01*
X048881Y046449D01*
X048885Y046452D01*
X04889Y046454D01*
X048895Y046456D01*
X0489Y046457D01*
X048906Y046457D01*
X049244Y046457D01*
X049249Y046457D01*
D02*
G37*
G36*
X049252Y029922D02*
X049258Y029921D01*
X049263Y029919D01*
X049267Y029917D01*
X049272Y029914D01*
X049276Y02991D01*
X049279Y029906D01*
X049282Y029902D01*
X049284Y029897D01*
X049286Y029892D01*
X049287Y029887D01*
X049287Y029882D01*
X049287Y025217D01*
Y025217D01*
Y025008D01*
X049287Y025003D01*
X049286Y024998D01*
X049284Y024993D01*
X049282Y024988D01*
X049279Y024984D01*
X049276Y02498D01*
X049276Y02498D01*
X049276D01*
Y02498D01*
X049275Y024979D01*
X049272Y024976D01*
X049267Y024973D01*
X049263Y024971D01*
X049258Y024969D01*
X049252Y024968D01*
X049247Y024968D01*
X04898Y024968D01*
D01*
X04898D01*
X04898Y024968D01*
X048379D01*
X048377Y024967D01*
X048372Y024965D01*
X048367Y024964D01*
X048361Y024964D01*
X048356Y024964D01*
X048351Y024965D01*
X048346Y024967D01*
X048341Y024969D01*
X048337Y024972D01*
X048333Y024976D01*
X04833Y02498D01*
X048327Y024984D01*
X048324Y024989D01*
X048323Y024994D01*
X048322Y024999D01*
X048321Y025004D01*
X048321Y025217D01*
X048322Y025222D01*
X048323Y025227D01*
X048324Y025232D01*
X048327Y025237D01*
X04833Y025241D01*
X048333Y025245D01*
X048337Y025249D01*
X048341Y025251D01*
X048346Y025254D01*
X048351Y025255D01*
X048356Y025256D01*
X048361Y025257D01*
X04894Y025257D01*
X04894Y029613D01*
X048375D01*
X048374Y029613D01*
X048369Y029611D01*
X048364Y02961D01*
X048358Y02961D01*
X048353Y02961D01*
X048348Y029611D01*
X048343Y029613D01*
X048338Y029615D01*
X048334Y029618D01*
X04833Y029621D01*
X048326Y029625D01*
X048324Y02963D01*
X048321Y029634D01*
X04832Y029639D01*
X048319Y029644D01*
X048318Y02965D01*
X048318Y029862D01*
X048319Y029867D01*
X04832Y029873D01*
X048321Y029878D01*
X048324Y029882D01*
X048326Y029887D01*
X04833Y029891D01*
X048334Y029894D01*
X048338Y029897D01*
X048343Y029899D01*
X048348Y029901D01*
X048353Y029902D01*
X048358Y029902D01*
X048946Y029902D01*
X048949Y029906D01*
X048952Y02991D01*
X048956Y029914D01*
X04896Y029917D01*
X048965Y029919D01*
X04897Y029921D01*
X048975Y029922D01*
X04898Y029922D01*
X049247Y029922D01*
X049252Y029922D01*
D02*
G37*
G36*
X049226Y013544D02*
X049231Y013543D01*
X049236Y013541D01*
X049241Y013539D01*
X049245Y013536D01*
X049249Y013532D01*
X049252Y013528D01*
X049255Y013524D01*
X049257Y013519D01*
X049259Y013514D01*
X04926Y013509D01*
X049261Y013504D01*
X049261Y010586D01*
X04926Y010581D01*
X049259Y010576D01*
X049258Y010571D01*
X049255Y010566D01*
X049252Y010562D01*
X049249Y010558D01*
X049245Y010555D01*
X049241Y010552D01*
X049236Y010549D01*
X049231Y010548D01*
X049226Y010547D01*
X04922Y010546D01*
X046303D01*
X0463Y010547D01*
X044724D01*
X044719Y010547D01*
X044714Y010548D01*
X044709Y01055D01*
X044704Y010552D01*
X0447Y010555D01*
X044696Y010558D01*
X044693Y010562D01*
X04469Y010567D01*
X044687Y010571D01*
X044686Y010576D01*
X044685Y010581D01*
X044684Y010587D01*
X044684Y010783D01*
Y010783D01*
D01*
X044685Y010789D01*
X044686Y010794D01*
X044687Y010799D01*
X04469Y010804D01*
X044693Y010808D01*
X044696Y010812D01*
X0447Y010815D01*
X044704Y010818D01*
X044709Y01082D01*
X044714Y010822D01*
X044719Y010823D01*
X044724Y010824D01*
D01*
X044724D01*
X046483D01*
X049192Y013532D01*
X049196Y013536D01*
X0492Y013539D01*
X049205Y013541D01*
X04921Y013543D01*
X049215Y013544D01*
X04922Y013544D01*
X049226Y013544D01*
D02*
G37*
D61*
X034768Y040378D02*
D03*
Y039709D02*
D03*
X035594Y040378D02*
D03*
Y039709D02*
D03*
X036421Y040366D02*
D03*
Y039697D02*
D03*
X038461Y040992D02*
D03*
Y040323D02*
D03*
X039331Y040984D02*
D03*
Y040315D02*
D03*
X036433Y041575D02*
D03*
Y042244D02*
D03*
X0356Y041588D02*
D03*
Y042257D02*
D03*
X034773Y041592D02*
D03*
Y042261D02*
D03*
D89*
X030984Y026929D02*
D03*
Y028268D02*
D03*
D90*
X028335Y012823D02*
D03*
X037059Y011051D02*
D03*
X034929Y011055D02*
D03*
X048654Y030528D02*
D03*
Y031528D02*
D03*
Y032528D02*
D03*
X032823Y011071D02*
D03*
X048654Y023319D02*
D03*
Y024319D02*
D03*
Y025319D02*
D03*
X047654Y022319D02*
D03*
Y023319D02*
D03*
Y024319D02*
D03*
Y025319D02*
D03*
X048654Y033638D02*
D03*
Y034638D02*
D03*
Y035638D02*
D03*
Y036638D02*
D03*
Y037638D02*
D03*
D91*
X031335Y012828D02*
D03*
X038059Y011051D02*
D03*
X035929Y011055D02*
D03*
X033823Y011071D02*
D03*
D92*
X027382Y029906D02*
D03*
X028382D02*
D03*
Y026906D02*
D03*
X028358Y015492D02*
D03*
Y018492D02*
D03*
X027358D02*
D03*
Y023902D02*
D03*
X028358D02*
D03*
Y020902D02*
D03*
D93*
X027382Y026906D02*
D03*
X027358Y015492D02*
D03*
Y020902D02*
D03*
D94*
X020366Y018315D02*
D03*
Y013591D02*
D03*
X015563Y018391D02*
D03*
Y013591D02*
D03*
X021154Y015953D02*
D03*
X021126Y028747D02*
D03*
X015535Y026385D02*
D03*
Y031185D02*
D03*
X020339Y026385D02*
D03*
Y031109D02*
D03*
X020354Y024728D02*
D03*
Y020004D02*
D03*
X015551Y024804D02*
D03*
Y020004D02*
D03*
X021142Y022366D02*
D03*
D95*
X011976Y024102D02*
D03*
Y022102D02*
D03*
Y030894D02*
D03*
Y028894D02*
D03*
X01202Y015972D02*
D03*
Y017972D02*
D03*
X0117Y0466D02*
D03*
Y0486D02*
D03*
D96*
X048654Y029528D02*
D03*
Y022319D02*
D03*
Y038638D02*
D03*
D97*
X012386Y011457D02*
D03*
X010811Y012638D02*
D03*
X010614Y012047D02*
D03*
X011598Y011063D02*
D03*
X012583Y012047D02*
D03*
X012386Y012638D02*
D03*
X011598Y013032D02*
D03*
X010811Y011457D02*
D03*
X043465Y047598D02*
D03*
X044252Y049173D02*
D03*
X045039Y04878D02*
D03*
X045236Y048189D02*
D03*
X044252Y047205D02*
D03*
X043268Y048189D02*
D03*
X043465Y04878D02*
D03*
X045039Y047598D02*
D03*
X048513Y011502D02*
D03*
X046939Y012683D02*
D03*
X046742Y012092D02*
D03*
X047726Y011108D02*
D03*
X04871Y012092D02*
D03*
X048513Y012683D02*
D03*
X047726Y013076D02*
D03*
X046939Y011502D02*
D03*
X010965Y043453D02*
D03*
X011752Y045028D02*
D03*
X012539Y044634D02*
D03*
X012736Y044043D02*
D03*
X011752Y043059D02*
D03*
X010768Y044043D02*
D03*
X010965Y044634D02*
D03*
X012539Y043453D02*
D03*
D98*
X011598Y012047D02*
D03*
X044252Y048189D02*
D03*
X047726Y012092D02*
D03*
X011752Y044043D02*
D03*
D99*
X041661Y01385D02*
D03*
X042661D02*
D03*
D100*
X039661Y01185D02*
D03*
X043661D02*
D03*
D101*
X048264Y01439D02*
D03*
X048241Y020465D02*
D03*
D102*
X048264Y01539D02*
D03*
Y01639D02*
D03*
X048241Y019465D02*
D03*
Y018465D02*
D03*
D103*
X0466Y0472D02*
D03*
X0486D02*
D03*
Y0492D02*
D03*
X0466D02*
D03*
X0476Y0482D02*
D03*
D104*
X027651Y010634D02*
D03*
X02706Y010654D02*
D03*
X028033Y010634D02*
D03*
X028533D02*
D03*
X029033D02*
D03*
X020886D02*
D03*
X020504D02*
D03*
X021386D02*
D03*
X017291D02*
D03*
X017622D02*
D03*
X020004D02*
D03*
X030943D02*
D03*
X031443D02*
D03*
X030561D02*
D03*
X02656Y010654D02*
D03*
X02606D02*
D03*
X02556D02*
D03*
X030033Y010634D02*
D03*
X029533D02*
D03*
X022858D02*
D03*
X023769D02*
D03*
X024269D02*
D03*
X024769D02*
D03*
X025178Y010654D02*
D03*
X023386Y010634D02*
D03*
X022386D02*
D03*
X021886D02*
D03*
X017004D02*
D03*
X018004D02*
D03*
X019504D02*
D03*
X019004D02*
D03*
X018504D02*
D03*
X015122D02*
D03*
X015622D02*
D03*
X016122D02*
D03*
X016622D02*
D03*
X014622D02*
D03*
X014122D02*
D03*
X013622D02*
D03*
X01174D02*
D03*
X01224D02*
D03*
X01274D02*
D03*
X01324D02*
D03*
X01124D02*
D03*
X01074D02*
D03*
X01024D02*
D03*
X010236Y017067D02*
D03*
Y016567D02*
D03*
Y016067D02*
D03*
Y015567D02*
D03*
Y015067D02*
D03*
Y014567D02*
D03*
Y014067D02*
D03*
Y013567D02*
D03*
Y013067D02*
D03*
Y011067D02*
D03*
Y011567D02*
D03*
Y012567D02*
D03*
Y024567D02*
D03*
Y024067D02*
D03*
Y023567D02*
D03*
Y023067D02*
D03*
Y022567D02*
D03*
Y022067D02*
D03*
Y021567D02*
D03*
Y021067D02*
D03*
Y020567D02*
D03*
Y017567D02*
D03*
Y018067D02*
D03*
Y018567D02*
D03*
Y019067D02*
D03*
Y019567D02*
D03*
Y020067D02*
D03*
Y032067D02*
D03*
Y031567D02*
D03*
Y031067D02*
D03*
Y030567D02*
D03*
Y030067D02*
D03*
Y029567D02*
D03*
Y029067D02*
D03*
Y028567D02*
D03*
Y028067D02*
D03*
Y025067D02*
D03*
Y025567D02*
D03*
Y026067D02*
D03*
Y026567D02*
D03*
Y027067D02*
D03*
Y027567D02*
D03*
Y039567D02*
D03*
Y039067D02*
D03*
Y038567D02*
D03*
Y038067D02*
D03*
Y037567D02*
D03*
Y037067D02*
D03*
Y036567D02*
D03*
Y036067D02*
D03*
Y035567D02*
D03*
Y032567D02*
D03*
Y033067D02*
D03*
Y033567D02*
D03*
Y034067D02*
D03*
Y034567D02*
D03*
Y035067D02*
D03*
Y047067D02*
D03*
Y046567D02*
D03*
Y046067D02*
D03*
Y045567D02*
D03*
Y045067D02*
D03*
Y044567D02*
D03*
Y044067D02*
D03*
Y040067D02*
D03*
Y040567D02*
D03*
Y041067D02*
D03*
Y041567D02*
D03*
Y042067D02*
D03*
Y042567D02*
D03*
Y047567D02*
D03*
Y048067D02*
D03*
Y048567D02*
D03*
Y049067D02*
D03*
D137*
X03315Y048929D02*
D03*
Y048311D02*
D03*
Y047669D02*
D03*
X039012Y031563D02*
D03*
X039004Y032248D02*
D03*
X03902Y032894D02*
D03*
D138*
X036236Y043598D02*
D03*
X037236D02*
D03*
X035736D02*
D03*
X036736D02*
D03*
X037736D02*
D03*
X035236D02*
D03*
D139*
X034579Y044181D02*
D03*
X039697Y048906D02*
D03*
X034579D02*
D03*
X039697Y044181D02*
D03*
D140*
X03811Y043598D02*
D03*
D141*
X037717Y041795D02*
D03*
Y042051D02*
D03*
Y042307D02*
D03*
X038488D02*
D03*
Y042051D02*
D03*
Y041795D02*
D03*
M02*
