G04*
G04 #@! TF.GenerationSoftware,Altium Limited,Altium Designer,21.0.8 (223)*
G04*
G04 Layer_Color=32896*
%FSTAX24Y24*%
%MOIN*%
G70*
G04*
G04 #@! TF.SameCoordinates,802AE027-55FB-4EE0-B797-8BAC3B94A1FA*
G04*
G04*
G04 #@! TF.FilePolarity,Positive*
G04*
G01*
G75*
%ADD10C,0.0100*%
%ADD11C,0.0079*%
%ADD13C,0.0039*%
%ADD16C,0.0098*%
%ADD19C,0.0059*%
%ADD142C,0.0070*%
G36*
X020217Y046411D02*
X013176D01*
Y046802D01*
D01*
Y046878D01*
X013177Y046874D01*
X013177Y046869D01*
X013179Y046863D01*
X013181Y046856D01*
X013183Y046849D01*
X013187Y046842D01*
X013187Y046841D01*
X013188Y046838D01*
X013191Y046835D01*
X013194Y046831D01*
X013198Y046826D01*
X013203Y046821D01*
X013209Y046816D01*
X013215Y046812D01*
X013216Y046811D01*
X013218Y04681D01*
X013222Y046808D01*
X013227Y046807D01*
X013233Y046805D01*
X01324Y046803D01*
X013247Y046802D01*
X013255Y046802D01*
X013226D01*
X013342D01*
D01*
X013258D01*
X013262Y046802D01*
X013267Y046803D01*
X013274Y046805D01*
X013282Y046806D01*
X01329Y046809D01*
X013301Y046812D01*
X013301D01*
X013302Y046813D01*
X013305Y046814D01*
X013309Y046815D01*
X013312Y046815D01*
X013313D01*
X013315Y046815D01*
X013317Y046814D01*
X013319Y046812D01*
X013321Y04681D01*
X013323Y046807D01*
X013325Y046802D01*
X013335D01*
X013339Y04689D01*
X01333D01*
Y046889D01*
X013329Y046888D01*
X013329Y046886D01*
X013328Y046884D01*
X013325Y046878D01*
X013322Y046871D01*
X013317Y046862D01*
X013312Y046854D01*
X013306Y046845D01*
X013299Y046838D01*
X013298Y046838D01*
X013295Y046836D01*
X013292Y046833D01*
X013286Y04683D01*
X013281Y046827D01*
X013274Y046824D01*
X013267Y046822D01*
X01326Y046821D01*
X013258D01*
X013256Y046822D01*
X013253Y046823D01*
X013247Y046825D01*
X013244Y046826D01*
X01324Y046829D01*
X01324Y04683D01*
X013239Y046831D01*
X013238Y046832D01*
X013236Y046834D01*
X013233Y04684D01*
X013233Y046843D01*
X013232Y046847D01*
Y046848D01*
Y046849D01*
X013233Y046852D01*
X013233Y046855D01*
X013234Y046858D01*
X013235Y046862D01*
X013238Y046865D01*
X01324Y046869D01*
X013241Y04687D01*
X013242Y046871D01*
X013244Y046873D01*
X013247Y046876D01*
X013252Y04688D01*
X013258Y046884D01*
X013265Y04689D01*
X013275Y046896D01*
X013275Y046897D01*
X013276Y046897D01*
X013278Y046899D01*
X013281Y046901D01*
X013288Y046906D01*
X013296Y046912D01*
X013304Y046919D01*
X013313Y046926D01*
X01332Y046932D01*
X013323Y046936D01*
X013325Y046938D01*
X013326Y046939D01*
X013328Y046942D01*
X013331Y046947D01*
X013334Y046952D01*
X013337Y046959D01*
X01334Y046967D01*
X013342Y046976D01*
X013342Y046985D01*
Y046988D01*
X013342Y04699D01*
X013341Y046995D01*
X01334Y047002D01*
X013337Y04701D01*
X013334Y047019D01*
X01333Y047027D01*
X013323Y047036D01*
X013322Y047037D01*
X013319Y04704D01*
X013315Y047043D01*
X013309Y047048D01*
X013301Y047052D01*
X013292Y047055D01*
X013281Y047058D01*
X013268Y047059D01*
X013265D01*
D01*
X013247D01*
X013265D01*
X013261Y047058D01*
X013256Y047058D01*
X01325Y047057D01*
X013244Y047055D01*
X013237Y047052D01*
X01323Y047049D01*
X013229D01*
X013229Y047049D01*
X013226Y047048D01*
X013222Y047046D01*
X013219Y047045D01*
X013216D01*
X013214Y047046D01*
X013211Y047047D01*
X013211Y047048D01*
X013209Y047049D01*
X013208Y047051D01*
X013206Y047053D01*
X013204Y047055D01*
X013202Y047058D01*
X013193D01*
X013189Y046975D01*
X013198D01*
Y046976D01*
X013199Y046977D01*
X0132Y046979D01*
X013201Y046981D01*
X013204Y046988D01*
X013208Y046996D01*
X013213Y047004D01*
X013219Y047012D01*
X013224Y04702D01*
X013231Y047026D01*
X013232Y047026D01*
X013234Y047028D01*
X013237Y04703D01*
X013241Y047033D01*
X013246Y047035D01*
X013252Y047037D01*
X013258Y047039D01*
X013264Y047039D01*
X013266D01*
X013268Y047039D01*
X01327Y047038D01*
X013276Y047036D01*
X01328Y047034D01*
X013282Y047032D01*
X013283Y047031D01*
X013283Y047031D01*
X013284Y047029D01*
X013286Y047027D01*
X013288Y047022D01*
X013289Y047019D01*
X013289Y047015D01*
Y047015D01*
Y047014D01*
X013289Y047011D01*
X013287Y047007D01*
X013284Y047002D01*
X013284Y047002D01*
X013283Y047D01*
X01328Y046997D01*
X013276Y046993D01*
X01327Y046989D01*
X013266Y046985D01*
X013262Y046982D01*
X013257Y046979D01*
X013251Y046974D01*
X013245Y046971D01*
X013239Y046966D01*
X013238Y046965D01*
X013237Y046965D01*
X013235Y046963D01*
X013233Y046961D01*
X013226Y046956D01*
X013218Y04695D01*
X01321Y046944D01*
X013201Y046936D01*
X013194Y046929D01*
X013191Y046925D01*
X013188Y046922D01*
X013188Y046921D01*
X013187Y046919D01*
X013185Y046915D01*
X013182Y04691D01*
X01318Y046904D01*
X013178Y046897D01*
X013177Y04689D01*
X013176Y046882D01*
Y047059D01*
X013247D01*
X013176D01*
Y04756D01*
X020217D01*
Y046411D01*
D02*
G37*
G36*
X020224Y047645D02*
X013165D01*
Y049346D01*
X020224D01*
Y047645D01*
D02*
G37*
G36*
X013371Y045818D02*
X013366D01*
X013362Y045817D01*
X013355D01*
X013352Y045818D01*
X013347Y045818D01*
X01334Y045819D01*
X013332Y045821D01*
X013324Y045825D01*
X013316Y04583D01*
X013309Y045836D01*
X013309Y045837D01*
X013307Y045839D01*
X013304Y045844D01*
X013301Y04585D01*
X013297Y045859D01*
X013295Y045868D01*
X013292Y04588D01*
X013292Y045894D01*
Y045895D01*
Y045896D01*
Y045898D01*
Y045901D01*
X013292Y045904D01*
X013293Y045908D01*
X013294Y045916D01*
X013296Y045925D01*
X013299Y045935D01*
X013303Y045944D01*
X013309Y045951D01*
X01331Y045952D01*
X013313Y045954D01*
X013316Y045957D01*
X013322Y045961D01*
X013329Y045964D01*
X013338Y045967D01*
X013349Y045969D01*
X013361Y04597D01*
X013371D01*
Y045818D01*
D02*
G37*
G36*
X013501Y045647D02*
X013493D01*
X013488Y045647D01*
X013477Y045648D01*
X013472Y045649D01*
X013468Y045651D01*
X013468D01*
X013467Y045652D01*
X013463Y045654D01*
X013459Y045658D01*
X013456Y045663D01*
Y045663D01*
X013456Y045664D01*
X013455Y045666D01*
X013454Y04567D01*
X013453Y045675D01*
X013453Y045681D01*
X013452Y045689D01*
Y045699D01*
Y045928D01*
Y045929D01*
Y04593D01*
Y045933D01*
Y045938D01*
X013453Y045944D01*
X013453Y04595D01*
X013454Y045955D01*
X013455Y045961D01*
X013456Y045964D01*
Y045964D01*
X013457Y045965D01*
X013459Y045968D01*
X013463Y045972D01*
X013465Y045974D01*
X013469Y045976D01*
X013469D01*
X01347Y045976D01*
X013473Y045978D01*
X013476Y045979D01*
X013481Y045979D01*
X013486Y04598D01*
X013493Y045981D01*
X013501D01*
Y045647D01*
D02*
G37*
G36*
X020197Y045232D02*
X013206D01*
Y045637D01*
X013265D01*
X013206D01*
Y045892D01*
X013206Y04589D01*
X013207Y045883D01*
X013208Y045875D01*
X013211Y045866D01*
X013215Y045856D01*
X01322Y045847D01*
X013227Y045837D01*
X013228Y045836D01*
X013231Y045833D01*
X013236Y045829D01*
X013243Y045824D01*
X013251Y045818D01*
X013261Y045812D01*
X013273Y045807D01*
X013286Y045803D01*
X013287D01*
X013289Y045803D01*
X013291Y045802D01*
X013293Y045802D01*
X013297D01*
X013301Y045801D01*
X013306Y045801D01*
X013311Y0458D01*
X013317Y0458D01*
X013325Y045799D01*
X013332Y045798D01*
X013341Y045798D01*
X01335D01*
X01336Y045797D01*
X013371D01*
Y045699D01*
Y045699D01*
Y045698D01*
Y045695D01*
Y04569D01*
X01337Y045684D01*
Y045677D01*
X013369Y045671D01*
X013369Y045666D01*
X013368Y045663D01*
Y045662D01*
X013367Y045661D01*
X013364Y045659D01*
X013361Y045655D01*
X013355Y045651D01*
X013355D01*
X013353Y045651D01*
X013351Y04565D01*
X013347Y045649D01*
X013343Y045648D01*
X013337Y045647D01*
X01333Y045647D01*
X013322D01*
Y045637D01*
X013501D01*
Y04599D01*
X013341D01*
X013335Y04599D01*
X013329D01*
X013322Y045988D01*
X013314Y045988D01*
X013306Y045987D01*
X013288Y045984D01*
X01327Y045979D01*
X013261Y045975D01*
X013253Y045972D01*
X013245Y045968D01*
X013239Y045963D01*
X013238Y045962D01*
X013237Y045962D01*
X013236Y04596D01*
X013233Y045958D01*
X013231Y045955D01*
X013228Y045952D01*
X013222Y045944D01*
X013216Y045934D01*
X01321Y045923D01*
X013209Y045916D01*
X013207Y04591D01*
X013206Y045903D01*
X013206Y045895D01*
Y04599D01*
D01*
Y046288D01*
X020197D01*
Y045232D01*
D02*
G37*
%LPC*%
G36*
X014565Y04717D02*
X014556D01*
X014549Y047169D01*
X014542Y047169D01*
X014534Y047168D01*
X014517Y047165D01*
X014517D01*
X014515Y047165D01*
X014512Y047164D01*
X014509Y047163D01*
X014503Y047162D01*
X014497Y047159D01*
X01449Y047157D01*
X014481Y047153D01*
X01448D01*
X01448Y047153D01*
X014476Y047152D01*
X014473Y047151D01*
X014467Y047149D01*
X014462Y047147D01*
X014457Y047146D01*
X014453Y047145D01*
X01445Y047144D01*
X014449D01*
X014446Y047145D01*
X014441Y047146D01*
X014437Y047149D01*
X014437Y04715D01*
X014436Y04715D01*
X014435Y047152D01*
X014433Y047154D01*
X014431Y047157D01*
X014429Y04716D01*
X014427Y047164D01*
X014425Y04717D01*
X014507D01*
X014374D01*
Y046801D01*
D01*
Y046948D01*
X014375D01*
X014378Y046947D01*
X014381D01*
X014385Y046947D01*
X014395Y046944D01*
X014398Y046943D01*
X014402Y046942D01*
X014403D01*
X014403Y046941D01*
X014407Y046938D01*
X01441Y046934D01*
X014414Y046928D01*
X014414Y046927D01*
Y046926D01*
X014415Y046924D01*
X014415Y04692D01*
Y046916D01*
X014416Y046911D01*
Y046904D01*
Y046831D01*
X014416D01*
X014417Y04683D01*
X014419Y046829D01*
X014422Y046829D01*
X014425Y046827D01*
X014428Y046826D01*
X014437Y046823D01*
X014448Y046819D01*
X01446Y046815D01*
X014473Y046812D01*
X014486Y046808D01*
X014487D01*
X014488Y046808D01*
X01449D01*
X014493Y046807D01*
X014496Y046807D01*
X0145Y046806D01*
X014504Y046805D01*
X014509Y046805D01*
X014521Y046803D01*
X014534Y046802D01*
X014547Y046801D01*
X014562Y046801D01*
X014761D01*
X01457D01*
X014575Y046801D01*
X01458D01*
X014585Y046802D01*
X014591Y046802D01*
X014604Y046804D01*
X014618Y046806D01*
X014632Y046809D01*
X014645Y046814D01*
X014646D01*
X014647Y046814D01*
X014648Y046815D01*
X014651Y046817D01*
X014657Y046819D01*
X014665Y046824D01*
X014674Y046829D01*
X014684Y046835D01*
X014694Y046842D01*
X014704Y04685D01*
Y04685D01*
X014705Y046851D01*
X014708Y046854D01*
X014712Y046859D01*
X014718Y046865D01*
X014724Y046872D01*
X014731Y04688D01*
X014737Y04689D01*
X014743Y0469D01*
Y046901D01*
X014744Y046902D01*
X014745Y046904D01*
X014746Y046907D01*
X014748Y04691D01*
X014749Y046914D01*
X01475Y046919D01*
X014752Y046924D01*
X014756Y046936D01*
X014759Y046949D01*
X014761Y046964D01*
X014761Y04698D01*
Y046984D01*
X014761Y046988D01*
X01476Y046993D01*
X01476Y047001D01*
X014759Y047009D01*
X014756Y047017D01*
X014754Y047027D01*
X014752Y047037D01*
X014748Y047048D01*
X014743Y04706D01*
X014738Y04707D01*
X014731Y047082D01*
X014724Y047093D01*
X014716Y047104D01*
X014706Y047115D01*
X014705Y047115D01*
X014703Y047117D01*
X0147Y04712D01*
X014695Y047123D01*
X01469Y047127D01*
X014683Y047132D01*
X014676Y047137D01*
X014667Y047143D01*
X014657Y047147D01*
X014647Y047152D01*
X014635Y047157D01*
X014623Y047161D01*
X014609Y047165D01*
X014595Y047168D01*
X01458Y047169D01*
X014565Y04717D01*
D02*
G37*
G36*
X015981Y047059D02*
X015978D01*
X015975Y047058D01*
X01597Y047057D01*
X015965Y047056D01*
X01596Y047054D01*
X015956Y04705D01*
X015951Y047046D01*
X01595Y047045D01*
X015948Y047044D01*
X015946Y047041D01*
X015944Y047038D01*
X015942Y047033D01*
X01594Y047028D01*
X015938Y047022D01*
X015938Y047016D01*
Y047059D01*
D01*
Y046802D01*
D01*
Y046842D01*
X015938Y046838D01*
X015939Y046835D01*
X015941Y04683D01*
X015943Y046824D01*
X015946Y046819D01*
X015951Y046814D01*
X015951Y046814D01*
X015953Y046812D01*
X015956Y046811D01*
X015959Y046808D01*
X015964Y046806D01*
X015969Y046804D01*
X015975Y046802D01*
X015981Y046802D01*
X015938D01*
X016024D01*
D01*
X015984D01*
X015988Y046802D01*
X015992Y046803D01*
X015996Y046805D01*
X016002Y046807D01*
X016007Y04681D01*
X016012Y046814D01*
X016012Y046815D01*
X016014Y046817D01*
X016016Y046819D01*
X016018Y046823D01*
X01602Y046827D01*
X016022Y046832D01*
X016024Y046838D01*
X016024Y046845D01*
Y046848D01*
X016024Y046852D01*
X016023Y046855D01*
X016021Y04686D01*
X016019Y046866D01*
X016016Y046871D01*
X016012Y046876D01*
X016011Y046876D01*
X01601Y046878D01*
X016007Y04688D01*
X016003Y046882D01*
X015999Y046884D01*
X015994Y046886D01*
X015988Y046888D01*
X015981Y046889D01*
X015978D01*
X015975Y046888D01*
X015971Y046887D01*
X015966Y046885D01*
X01596Y046883D01*
X015956Y04688D01*
X015951Y046876D01*
X01595Y046875D01*
X015948Y046873D01*
X015946Y046871D01*
X015944Y046867D01*
X015942Y046862D01*
X01594Y046858D01*
X015938Y046852D01*
X015938Y046845D01*
Y047013D01*
X015938Y047009D01*
X015939Y047005D01*
X015941Y047001D01*
X015943Y046995D01*
X015946Y04699D01*
X015951Y046985D01*
X015951Y046985D01*
X015953Y046983D01*
X015956Y046981D01*
X015959Y046979D01*
X015964Y046977D01*
X015969Y046975D01*
X015974Y046973D01*
X015981Y046973D01*
X015983D01*
X015987Y046973D01*
X015991Y046974D01*
X015996Y046976D01*
X016001Y046978D01*
X016006Y046981D01*
X016011Y046985D01*
X016012Y046986D01*
X016013Y046987D01*
X016015Y04699D01*
X016017Y046994D01*
X01602Y046998D01*
X016022Y047003D01*
X016023Y047009D01*
X016024Y047016D01*
Y047016D01*
Y047019D01*
X016023Y047022D01*
X016022Y047026D01*
X01602Y047031D01*
X016018Y047036D01*
X016016Y047041D01*
X016011Y047046D01*
X016011Y047046D01*
X016009Y047048D01*
X016006Y04705D01*
X016002Y047052D01*
X015998Y047055D01*
X015993Y047057D01*
X015987Y047058D01*
X015981Y047059D01*
D02*
G37*
G36*
X016493D02*
X016224D01*
X016316D01*
X016312Y047058D01*
X016307Y047058D01*
X0163Y047056D01*
X016293Y047055D01*
X016287Y047052D01*
X016281Y047048D01*
X01628Y047048D01*
X016278Y047046D01*
X016275Y047044D01*
X016272Y04704D01*
X016268Y047035D01*
X016264Y047029D01*
X01626Y047022D01*
X016257Y047015D01*
Y047015D01*
X016256Y047016D01*
X016253Y047019D01*
X016249Y047023D01*
X016244Y047028D01*
X016238Y047033D01*
X016231Y047039D01*
X016224Y047044D01*
X016217Y047049D01*
X016215Y047049D01*
X016213Y04705D01*
X016209Y047052D01*
X016204Y047054D01*
X016198Y047056D01*
X016191Y047057D01*
X016184Y047058D01*
X016177Y047059D01*
X016084D01*
Y046809D01*
X016212D01*
X016209D01*
Y046818D01*
X016209D01*
X016207Y046819D01*
X016204Y046819D01*
X016201Y04682D01*
X016197Y046821D01*
X016194Y046823D01*
X01619Y046826D01*
X016188Y046829D01*
Y04683D01*
X016187Y046831D01*
X016186Y046833D01*
X016185Y046836D01*
X016184Y04684D01*
X016183Y046846D01*
X016183Y046853D01*
Y046862D01*
Y046966D01*
Y046967D01*
Y046968D01*
Y046969D01*
Y046972D01*
Y046977D01*
X016183Y046984D01*
Y04699D01*
X016184Y046997D01*
X016184Y047003D01*
X016185Y047005D01*
X016185Y047007D01*
Y047008D01*
X016186Y047009D01*
X016187Y047013D01*
X01619Y047017D01*
X016194Y047021D01*
X016195Y047021D01*
X016197Y047023D01*
X016201Y047025D01*
X016207Y047025D01*
X016208D01*
X016211Y047025D01*
X016214Y047024D01*
X016217Y047023D01*
X016221Y047022D01*
X016225Y04702D01*
X016229Y047017D01*
X01623Y047016D01*
X016231Y047015D01*
X016233Y047014D01*
X016236Y047011D01*
X01624Y047007D01*
X016244Y047003D01*
X016248Y046998D01*
X016253Y046992D01*
Y046862D01*
Y046861D01*
Y046861D01*
Y046858D01*
Y046853D01*
X016252Y046848D01*
X016251Y046842D01*
X016251Y046837D01*
X01625Y046832D01*
X016248Y046829D01*
X016248Y046828D01*
X016247Y046827D01*
X016245Y046825D01*
X016243Y046824D01*
X01624Y046821D01*
X016236Y04682D01*
X016231Y046819D01*
X016225Y046818D01*
Y046809D01*
X016351D01*
Y046818D01*
X016347D01*
X016345Y046819D01*
X01634Y04682D01*
X016335Y046823D01*
X016334D01*
X016334Y046824D01*
X016332Y046826D01*
X016329Y046829D01*
X016327Y046833D01*
Y046834D01*
X016327Y046835D01*
Y046837D01*
X016326Y046839D01*
X016326Y046843D01*
Y046848D01*
X016325Y046854D01*
Y046862D01*
Y046966D01*
Y046967D01*
Y046968D01*
Y046969D01*
Y046972D01*
Y046977D01*
X016326Y046984D01*
Y046991D01*
X016326Y046997D01*
X016327Y047003D01*
X016327Y047005D01*
X016328Y047007D01*
Y047008D01*
X016328Y047009D01*
X01633Y047012D01*
X016332Y047016D01*
X016337Y04702D01*
X016338Y047021D01*
X01634Y047023D01*
X016345Y047025D01*
X01635Y047025D01*
X016354D01*
X016356Y047025D01*
X016362Y047023D01*
X016368Y04702D01*
X016369Y047019D01*
X01637Y047018D01*
X016373Y047016D01*
X016376Y047013D01*
X01638Y047009D01*
X016385Y047005D01*
X01639Y046999D01*
X016394Y046992D01*
Y046862D01*
Y046861D01*
Y046861D01*
Y046858D01*
X016394Y046853D01*
Y046848D01*
X016393Y046842D01*
X016392Y046836D01*
X016391Y046831D01*
X01639Y046827D01*
X016389Y046827D01*
X016388Y046826D01*
X016387Y046825D01*
X016385Y046823D01*
X016382Y046821D01*
X016378Y04682D01*
X016374Y046819D01*
X016368Y046818D01*
Y046809D01*
X016493D01*
Y046818D01*
X016493D01*
X016491Y046819D01*
X016488Y046819D01*
X016485Y04682D01*
X016481Y046821D01*
X016477Y046823D01*
X016474Y046825D01*
X016471Y046828D01*
Y046829D01*
X016471Y046829D01*
X01647Y046831D01*
X016469Y046835D01*
X016468Y046839D01*
X016468Y046844D01*
X016467Y046852D01*
Y046862D01*
Y046999D01*
Y046999D01*
Y047D01*
Y047003D01*
Y047008D01*
X016468Y047014D01*
X016468Y04702D01*
X016469Y047025D01*
X01647Y04703D01*
X016472Y047033D01*
Y047034D01*
X016473Y047034D01*
X016474Y047035D01*
X016476Y047037D01*
X016479Y047039D01*
X016483Y04704D01*
X016488Y047042D01*
X016493Y047043D01*
Y047052D01*
X016394D01*
Y04702D01*
X016393Y047021D01*
X016391Y047023D01*
X016387Y047027D01*
X016382Y047032D01*
X016376Y047037D01*
X01637Y047042D01*
X016364Y047046D01*
X016357Y04705D01*
X016357Y047051D01*
X016355Y047052D01*
X016351Y047053D01*
X016346Y047055D01*
X016341Y047056D01*
X016334Y047058D01*
X016328Y047058D01*
X01632Y047059D01*
X016493D01*
D01*
D02*
G37*
G36*
X015752Y047162D02*
X015584D01*
X015579Y047161D01*
X015573Y047161D01*
X015566Y04716D01*
X015558Y047159D01*
X015542Y047157D01*
X015525Y047155D01*
X015508Y04715D01*
X015501Y047147D01*
X015493Y047144D01*
X015493D01*
X015491Y047143D01*
X015489Y047142D01*
X015485Y04714D01*
X015481Y047138D01*
X015477Y047135D01*
X015466Y047128D01*
X015455Y047119D01*
X015443Y047108D01*
X015431Y047095D01*
X015426Y047088D01*
X015422Y04708D01*
X015421Y04708D01*
X01542Y047078D01*
X015419Y047076D01*
X015418Y047073D01*
X015416Y047069D01*
X015414Y047064D01*
X015412Y047058D01*
X015409Y047052D01*
X015407Y047045D01*
X015405Y047038D01*
X015401Y047022D01*
X015398Y047004D01*
X015397Y046994D01*
Y047162D01*
D01*
D01*
Y046809D01*
D01*
Y046978D01*
X015398Y046974D01*
Y046971D01*
X015399Y046961D01*
X0154Y046951D01*
X015402Y046939D01*
X015405Y046927D01*
X015409Y046915D01*
Y046915D01*
X01541Y046914D01*
X01541Y046913D01*
X015411Y04691D01*
X015414Y046904D01*
X015417Y046897D01*
X015422Y046889D01*
X015427Y04688D01*
X015433Y046872D01*
X01544Y046864D01*
X015441Y046862D01*
X015443Y04686D01*
X015447Y046856D01*
X015453Y046852D01*
X015459Y046847D01*
X015467Y046841D01*
X015475Y046836D01*
X015484Y046831D01*
X015485Y04683D01*
X015489Y046829D01*
X015494Y046826D01*
X015501Y046824D01*
X01551Y046821D01*
X01552Y046818D01*
X015532Y046814D01*
X015544Y046812D01*
X015545D01*
X015547Y046811D01*
X015551Y046811D01*
X015556D01*
X015563Y04681D01*
X015572Y046809D01*
X015583Y046809D01*
X015397D01*
X015752D01*
Y046818D01*
X015735D01*
X015732Y046819D01*
X015724Y04682D01*
X01572Y046821D01*
X015717Y046823D01*
X015716D01*
X015716Y046824D01*
X015713Y046826D01*
X015708Y04683D01*
X015705Y046836D01*
Y046836D01*
X015704Y046837D01*
X015704Y046839D01*
X015703Y046842D01*
Y046846D01*
X015703Y046852D01*
X015702Y04686D01*
Y046869D01*
Y047102D01*
Y047102D01*
Y047103D01*
Y047106D01*
Y04711D01*
X015703Y047116D01*
Y047121D01*
X015703Y047127D01*
X015704Y047132D01*
X015705Y047135D01*
Y047135D01*
X015706Y047136D01*
X015708Y047139D01*
X015711Y047143D01*
X015714Y047145D01*
X015717Y047147D01*
X015717D01*
X015719Y047148D01*
X01572Y047149D01*
X015723Y04715D01*
X015726Y047151D01*
X015731Y047151D01*
X015735Y047152D01*
X015752D01*
Y047162D01*
D02*
G37*
G36*
X015026Y046889D02*
X014979D01*
X014976Y046888D01*
X014972Y046887D01*
X014967Y046885D01*
X014962Y046883D01*
X014957Y04688D01*
X014952Y046876D01*
X014951Y046875D01*
X01495Y046873D01*
X014948Y046871D01*
X014945Y046867D01*
X014943Y046862D01*
X014941Y046858D01*
X014939Y046852D01*
X014939Y046845D01*
Y046889D01*
D01*
Y046802D01*
X014979D01*
X014939D01*
Y046842D01*
X014939Y046838D01*
X014941Y046835D01*
X014942Y04683D01*
X014944Y046824D01*
X014948Y046819D01*
X014952Y046814D01*
X014953Y046814D01*
X014954Y046812D01*
X014957Y046811D01*
X014961Y046808D01*
X014965Y046806D01*
X01497Y046804D01*
X014976Y046802D01*
X014983Y046802D01*
X014985D01*
X014989Y046802D01*
X014993Y046803D01*
X014998Y046805D01*
X015003Y046807D01*
X015008Y04681D01*
X015013Y046814D01*
X015014Y046815D01*
X015015Y046817D01*
X015017Y046819D01*
X015019Y046823D01*
X015022Y046827D01*
X015023Y046832D01*
X015025Y046838D01*
X015026Y046845D01*
Y046848D01*
X015025Y046852D01*
X015024Y046855D01*
X015022Y04686D01*
X01502Y046866D01*
X015017Y046871D01*
X015013Y046876D01*
X015013Y046876D01*
X015011Y046878D01*
X015008Y04688D01*
X015004Y046882D01*
X015Y046884D01*
X014995Y046886D01*
X014989Y046888D01*
X014983Y046889D01*
X015026D01*
D02*
G37*
G36*
X017329Y047162D02*
X017032D01*
Y046809D01*
X017329D01*
Y046818D01*
X017315D01*
X017312Y046819D01*
X017309D01*
X017301Y04682D01*
X017297Y046822D01*
X017293Y046824D01*
X017293D01*
X017292Y046824D01*
X017289Y046826D01*
X017286Y04683D01*
X017283Y046836D01*
Y046836D01*
X017282Y046837D01*
X017282Y046839D01*
X017281Y046842D01*
X017281Y046847D01*
X01728Y046853D01*
X01728Y04686D01*
Y046869D01*
Y047102D01*
Y047102D01*
Y047103D01*
Y047106D01*
Y04711D01*
X01728Y047116D01*
Y047121D01*
X017281Y047127D01*
X017282Y047132D01*
X017283Y047135D01*
Y047135D01*
X017283Y047136D01*
X017285Y047139D01*
X017289Y047143D01*
X017291Y047145D01*
X017294Y047147D01*
X017295D01*
X017296Y047148D01*
X017298Y047149D01*
X0173Y04715D01*
X017304Y047151D01*
X017308Y047151D01*
X017312Y047152D01*
X017329D01*
Y047162D01*
D02*
G37*
G36*
X016997Y047059D02*
X016788D01*
Y046809D01*
D01*
Y047022D01*
X016788Y047019D01*
X016789Y047015D01*
X01679Y04701D01*
X016791Y047005D01*
X016794Y047001D01*
X016796Y046997D01*
X016797Y046997D01*
X016798Y046996D01*
X0168Y046995D01*
X016802Y046993D01*
X016808Y04699D01*
X016812Y046989D01*
X016817Y046988D01*
X016819D01*
X016821Y046989D01*
X016825Y046989D01*
X016829Y04699D01*
X016832Y046992D01*
X016837Y046994D01*
X016841Y046997D01*
X016841Y046997D01*
X016842Y046998D01*
X016846Y047001D01*
X01685Y047004D01*
X016852Y047006D01*
X016853Y047007D01*
X016853Y047007D01*
X016854Y047008D01*
X016856Y047008D01*
X016859D01*
X016863Y047008D01*
X016867Y047005D01*
X01687Y047004D01*
X016873Y047002D01*
X016873Y047002D01*
X016874Y047001D01*
X016877Y046998D01*
X016879Y046996D01*
X016881Y046992D01*
X016884Y046988D01*
X016886Y046983D01*
X016889Y046977D01*
X016889Y046976D01*
X01689Y046973D01*
X016891Y046968D01*
X016892Y046961D01*
X016894Y046953D01*
X016896Y046943D01*
X016896Y046932D01*
X016897Y046921D01*
Y046866D01*
Y046852D01*
Y046851D01*
Y046849D01*
Y046847D01*
Y046843D01*
X016896Y046837D01*
X016896Y046835D01*
X016895Y046832D01*
Y046832D01*
X016895Y046831D01*
X016893Y046829D01*
X01689Y046825D01*
X016886Y046822D01*
X016885D01*
X016885Y046821D01*
X016883Y046821D01*
X016881Y04682D01*
X016878Y04682D01*
X016874Y046819D01*
X01687Y046819D01*
X016865Y046818D01*
Y046809D01*
X016997D01*
Y046818D01*
X016996D01*
X016994Y046819D01*
X016991D01*
X016988Y04682D01*
X016981Y046822D01*
X016978Y046824D01*
X016975Y046826D01*
X016975Y046827D01*
X016974Y046828D01*
X016973Y046831D01*
X016972Y046834D01*
X016971Y046839D01*
X016971Y046847D01*
X016969Y046855D01*
Y04686D01*
Y046866D01*
Y047001D01*
Y047002D01*
Y047004D01*
Y047008D01*
Y047011D01*
X01697Y047016D01*
X016971Y04702D01*
X016971Y047024D01*
X016972Y047027D01*
Y047027D01*
X016972Y047028D01*
X016974Y047031D01*
X016976Y047034D01*
X016979Y047038D01*
X01698Y047038D01*
X016981Y047039D01*
X016983Y047039D01*
X016986Y04704D01*
X016989Y047041D01*
X016992Y047042D01*
X016997Y047043D01*
Y047052D01*
X016897D01*
Y046997D01*
X016896Y046997D01*
X016896Y046998D01*
X016895Y047001D01*
X016893Y047003D01*
X016888Y047009D01*
X016883Y047017D01*
X016876Y047026D01*
X016869Y047034D01*
X016862Y047041D01*
X016858Y047044D01*
X016855Y047046D01*
X016854Y047047D01*
X016852Y047049D01*
X016848Y04705D01*
X016843Y047053D01*
X016838Y047055D01*
X016832Y047057D01*
X016826Y047058D01*
X016819Y047059D01*
X016997D01*
D02*
G37*
G36*
X015361Y047162D02*
X015066D01*
Y046809D01*
D01*
Y047063D01*
X015066Y047061D01*
X015067Y047055D01*
X015068Y047046D01*
X015071Y047038D01*
X015075Y047028D01*
X01508Y047018D01*
X015087Y047008D01*
X015088Y047007D01*
X015091Y047004D01*
X015096Y047D01*
X015103Y046995D01*
X015111Y046989D01*
X015121Y046984D01*
X015133Y046979D01*
X015146Y046975D01*
X015147D01*
X015149Y046974D01*
X015151Y046974D01*
X015153Y046973D01*
X015157D01*
X015161Y046973D01*
X015166Y046972D01*
X015171Y046972D01*
X015177Y046971D01*
X015185Y046971D01*
X015192Y04697D01*
X015201Y046969D01*
X01521D01*
X01522Y046969D01*
X015231D01*
Y046871D01*
Y04687D01*
Y04687D01*
Y046866D01*
Y046861D01*
X01523Y046855D01*
Y046849D01*
X015229Y046843D01*
X015229Y046838D01*
X015228Y046834D01*
Y046833D01*
X015227Y046833D01*
X015224Y04683D01*
X015221Y046826D01*
X015215Y046823D01*
X015215D01*
X015214Y046822D01*
X015211Y046821D01*
X015208Y04682D01*
X015203Y04682D01*
X015197Y046819D01*
X01519Y046818D01*
X015182D01*
Y046809D01*
X015361D01*
Y046818D01*
X015353D01*
X015348Y046819D01*
X015337Y04682D01*
X015332Y046821D01*
X015328Y046823D01*
X015328D01*
X015327Y046823D01*
X015323Y046826D01*
X015319Y046829D01*
X015316Y046834D01*
Y046835D01*
X015316Y046836D01*
X015315Y046838D01*
X015314Y046842D01*
X015313Y046847D01*
X015313Y046853D01*
X015312Y046861D01*
Y046871D01*
Y0471D01*
Y0471D01*
Y047101D01*
Y047104D01*
Y047109D01*
X015313Y047115D01*
X015313Y047121D01*
X015314Y047127D01*
X015315Y047132D01*
X015316Y047135D01*
Y047136D01*
X015317Y047137D01*
X015319Y04714D01*
X015323Y047144D01*
X015325Y047146D01*
X015329Y047147D01*
X015329D01*
X01533Y047148D01*
X015333Y047149D01*
X015336Y04715D01*
X015341Y047151D01*
X015346Y047152D01*
X015353Y047152D01*
X015361D01*
Y047162D01*
D02*
G37*
G36*
X01435Y047059D02*
X014141D01*
Y046809D01*
D01*
Y047022D01*
X014141Y047019D01*
X014142Y047015D01*
X014143Y04701D01*
X014144Y047005D01*
X014147Y047001D01*
X014149Y046997D01*
X01415Y046997D01*
X014151Y046996D01*
X014153Y046995D01*
X014155Y046993D01*
X014161Y04699D01*
X014165Y046989D01*
X01417Y046988D01*
X014172D01*
X014174Y046989D01*
X014178Y046989D01*
X014182Y04699D01*
X014185Y046992D01*
X01419Y046994D01*
X014194Y046997D01*
X014194Y046997D01*
X014195Y046998D01*
X014198Y047001D01*
X014203Y047004D01*
X014204Y047006D01*
X014206Y047007D01*
X014206Y047007D01*
X014207Y047008D01*
X014209Y047008D01*
X014212D01*
X014216Y047008D01*
X01422Y047005D01*
X014223Y047004D01*
X014226Y047002D01*
X014226Y047002D01*
X014227Y047001D01*
X01423Y046998D01*
X014232Y046996D01*
X014234Y046992D01*
X014237Y046988D01*
X014239Y046983D01*
X014242Y046977D01*
X014242Y046976D01*
X014243Y046973D01*
X014244Y046968D01*
X014245Y046961D01*
X014247Y046953D01*
X014249Y046943D01*
X014249Y046932D01*
X01425Y046921D01*
Y046866D01*
Y046852D01*
Y046851D01*
Y046849D01*
Y046847D01*
Y046843D01*
X014249Y046837D01*
X014249Y046835D01*
X014248Y046832D01*
Y046832D01*
X014248Y046831D01*
X014246Y046829D01*
X014243Y046825D01*
X014239Y046822D01*
X014238D01*
X014238Y046821D01*
X014236Y046821D01*
X014234Y04682D01*
X014231Y04682D01*
X014227Y046819D01*
X014223Y046819D01*
X014218Y046818D01*
Y046809D01*
X01435D01*
Y046818D01*
X014349D01*
X014347Y046819D01*
X014344D01*
X014341Y04682D01*
X014334Y046822D01*
X014331Y046824D01*
X014328Y046826D01*
X014328Y046827D01*
X014327Y046828D01*
X014326Y046831D01*
X014325Y046834D01*
X014324Y046839D01*
X014324Y046847D01*
X014322Y046855D01*
Y04686D01*
Y046866D01*
Y047001D01*
Y047002D01*
Y047004D01*
Y047008D01*
Y047011D01*
X014323Y047016D01*
X014324Y04702D01*
X014324Y047024D01*
X014325Y047027D01*
Y047027D01*
X014325Y047028D01*
X014327Y047031D01*
X014329Y047034D01*
X014332Y047038D01*
X014333Y047038D01*
X014334Y047039D01*
X014336Y047039D01*
X014339Y04704D01*
X014342Y047041D01*
X014345Y047042D01*
X01435Y047043D01*
Y047052D01*
X01425D01*
Y046997D01*
X014249Y046997D01*
X014249Y046998D01*
X014248Y047001D01*
X014246Y047003D01*
X014241Y047009D01*
X014236Y047017D01*
X014229Y047026D01*
X014222Y047034D01*
X014215Y047041D01*
X014211Y047044D01*
X014208Y047046D01*
X014207Y047047D01*
X014204Y047049D01*
X014201Y04705D01*
X014196Y047053D01*
X014191Y047055D01*
X014185Y047057D01*
X014179Y047058D01*
X014172Y047059D01*
X01435D01*
D02*
G37*
G36*
X01347D02*
X013379D01*
Y046809D01*
X013511D01*
X013502D01*
Y046818D01*
X013502D01*
X0135Y046819D01*
X013497Y046819D01*
X013495Y04682D01*
X013491Y046821D01*
X013488Y046824D01*
X013485Y046826D01*
X013483Y046829D01*
Y04683D01*
X013482Y046831D01*
X013481Y046832D01*
X01348Y046836D01*
X013479Y04684D01*
X013479Y046845D01*
X013478Y046853D01*
Y046862D01*
Y04697D01*
Y046971D01*
Y046971D01*
Y046975D01*
Y04698D01*
X013479Y046986D01*
Y046992D01*
X013479Y046998D01*
X01348Y047003D01*
X013481Y047007D01*
Y047008D01*
X013482Y047009D01*
X013483Y047012D01*
X013485Y047016D01*
X013489Y04702D01*
X01349Y04702D01*
X013493Y047022D01*
X013496Y047023D01*
X013501Y047024D01*
X013502D01*
X013505Y047023D01*
X013509Y047022D01*
X013515Y04702D01*
X013521Y047016D01*
X013525Y047014D01*
X013528Y04701D01*
X013532Y047007D01*
X013536Y047003D01*
X013539Y046997D01*
X013543Y046992D01*
Y046862D01*
Y046861D01*
Y046861D01*
Y046858D01*
X013542Y046853D01*
Y046847D01*
X013542Y046841D01*
X013541Y046836D01*
X013539Y046831D01*
X013538Y046827D01*
Y046826D01*
X013537Y046826D01*
X013536Y046825D01*
X013533Y046823D01*
X013531Y046821D01*
X013527Y04682D01*
X013524Y046819D01*
X013519Y046818D01*
Y046809D01*
X013642D01*
Y046818D01*
X013641D01*
X013639Y046819D01*
X013637Y046819D01*
X013633Y04682D01*
X01363Y046821D01*
X013626Y046823D01*
X013623Y046825D01*
X01362Y046828D01*
Y046829D01*
X01362Y046829D01*
X013619Y046831D01*
X013618Y046835D01*
X013617Y046839D01*
X013616Y046844D01*
X013615Y046852D01*
Y046862D01*
Y046999D01*
Y046999D01*
Y047D01*
Y047003D01*
Y047008D01*
X013616Y047014D01*
X013616Y04702D01*
X013618Y047025D01*
X013619Y04703D01*
X013621Y047033D01*
Y047034D01*
X013622Y047034D01*
X013623Y047035D01*
X013625Y047037D01*
X013628Y047039D01*
X013632Y04704D01*
X013636Y047042D01*
X013642Y047043D01*
Y047052D01*
X013543D01*
Y04702D01*
X013542Y047021D01*
X013539Y047023D01*
X013536Y047027D01*
X013531Y047032D01*
X013526Y047036D01*
X01352Y047041D01*
X013514Y047046D01*
X013507Y04705D01*
X013507Y04705D01*
X013504Y047051D01*
X013501Y047052D01*
X013496Y047055D01*
X01349Y047056D01*
X013484Y047057D01*
X013477Y047058D01*
X01347Y047059D01*
D02*
G37*
G36*
X016647D02*
X016533D01*
Y046802D01*
D01*
Y046925D01*
X016533Y046921D01*
Y046917D01*
X016534Y046912D01*
X016535Y046906D01*
X016536Y0469D01*
X016539Y046886D01*
X016544Y046872D01*
X01655Y046858D01*
X016554Y04685D01*
X016559Y046844D01*
X016559Y046843D01*
X01656Y046842D01*
X016562Y04684D01*
X016565Y046837D01*
X016568Y046834D01*
X016572Y046831D01*
X016576Y046827D01*
X016582Y046823D01*
X016588Y046819D01*
X016594Y046815D01*
X016601Y046812D01*
X016609Y046808D01*
X016617Y046806D01*
X016627Y046803D01*
X016636Y046802D01*
X016646Y046802D01*
X016533D01*
X01676D01*
X016652D01*
X016655Y046802D01*
X01666Y046803D01*
X016665Y046804D01*
X016671Y046805D01*
X016677Y046807D01*
X016684Y046808D01*
X016691Y046811D01*
X016698Y046814D01*
X016705Y046818D01*
X016712Y046823D01*
X016718Y046827D01*
X016724Y046833D01*
X01673Y04684D01*
X016731Y046841D01*
X016731Y046842D01*
X016733Y046844D01*
X016735Y046847D01*
X016737Y04685D01*
X01674Y046855D01*
X016742Y04686D01*
X016745Y046866D01*
X016748Y046872D01*
X01675Y046879D01*
X016755Y046894D01*
X016759Y04691D01*
X016759Y04692D01*
X01676Y046929D01*
Y046934D01*
X016759Y046938D01*
X016759Y046942D01*
X016758Y046948D01*
X016757Y046954D01*
X016756Y04696D01*
X016753Y046974D01*
X016747Y046989D01*
X016743Y046997D01*
X01674Y047005D01*
X016735Y047012D01*
X01673Y04702D01*
X016729Y04702D01*
X016728Y047021D01*
X016726Y047023D01*
X016724Y047026D01*
X016721Y047029D01*
X016718Y047032D01*
X016713Y047035D01*
X016708Y047039D01*
X016702Y047043D01*
X016696Y047046D01*
X01669Y04705D01*
X016682Y047053D01*
X016675Y047055D01*
X016666Y047057D01*
X016657Y047058D01*
X016647Y047059D01*
D02*
G37*
G36*
X014002D02*
X013909D01*
Y046802D01*
D01*
Y046875D01*
X01391Y046874D01*
X013911Y046872D01*
X013912Y046869D01*
X013914Y046866D01*
X013916Y046862D01*
X013922Y046853D01*
X013928Y046844D01*
X013936Y046835D01*
X013944Y046825D01*
X013948Y046821D01*
X013953Y046818D01*
X013954Y046818D01*
X013957Y046815D01*
X013962Y046813D01*
X013969Y04681D01*
X013977Y046807D01*
X013986Y046805D01*
X013996Y046802D01*
X014008Y046802D01*
X01401D01*
X014013Y046802D01*
X014017D01*
X014021Y046803D01*
X014026Y046804D01*
X014033Y046805D01*
X014039Y046807D01*
X014045Y046809D01*
X014052Y046812D01*
X014059Y046815D01*
X014065Y046819D01*
X014072Y046824D01*
X014078Y04683D01*
X014084Y046836D01*
X01409Y046843D01*
Y046844D01*
X014091Y046845D01*
X014092Y046847D01*
X014093Y046849D01*
X014095Y046853D01*
X014097Y046856D01*
X014099Y046861D01*
X014101Y046866D01*
X014103Y046872D01*
X014105Y046878D01*
X014108Y046892D01*
X014111Y046908D01*
X014112Y046926D01*
Y046932D01*
X014111Y046936D01*
X014111Y046942D01*
X01411Y046948D01*
X014109Y046954D01*
X014107Y046961D01*
X014103Y046977D01*
X014101Y046985D01*
X014098Y046993D01*
X014094Y047001D01*
X01409Y047008D01*
X014085Y047016D01*
X014079Y047023D01*
X014078Y047023D01*
X014077Y047025D01*
X014076Y047026D01*
X014073Y047028D01*
X01407Y047031D01*
X014066Y047034D01*
X014062Y047038D01*
X014057Y047041D01*
X014046Y047048D01*
X014033Y047054D01*
X014025Y047056D01*
X014018Y047057D01*
X01401Y047058D01*
X014002Y047059D01*
D02*
G37*
G36*
X014008Y046802D02*
X013909D01*
X014008D01*
D01*
D02*
G37*
G36*
X013766Y047059D02*
X013672D01*
Y046802D01*
D01*
Y046875D01*
X013673Y046874D01*
X013674Y046872D01*
X013675Y046869D01*
X013678Y046866D01*
X01368Y046862D01*
X013685Y046853D01*
X013692Y046844D01*
X013699Y046835D01*
X013708Y046825D01*
X013712Y046821D01*
X013716Y046818D01*
X013717Y046818D01*
X013721Y046815D01*
X013726Y046813D01*
X013732Y04681D01*
X01374Y046807D01*
X01375Y046805D01*
X01376Y046802D01*
X013772Y046802D01*
X013774D01*
X013776Y046802D01*
X01378D01*
X013785Y046803D01*
X01379Y046804D01*
X013796Y046805D01*
X013802Y046807D01*
X013809Y046809D01*
X013815Y046812D01*
X013822Y046815D01*
X013829Y046819D01*
X013835Y046824D01*
X013842Y04683D01*
X013848Y046836D01*
X013853Y046843D01*
Y046844D01*
X013855Y046845D01*
X013856Y046847D01*
X013857Y046849D01*
X013858Y046853D01*
X013861Y046856D01*
X013862Y046861D01*
X013864Y046866D01*
X013867Y046872D01*
X013868Y046878D01*
X013872Y046892D01*
X013874Y046908D01*
X013875Y046926D01*
Y046932D01*
X013875Y046936D01*
X013874Y046942D01*
X013874Y046948D01*
X013873Y046954D01*
X013871Y046961D01*
X013867Y046977D01*
X013864Y046985D01*
X013862Y046993D01*
X013858Y047001D01*
X013853Y047008D01*
X013849Y047016D01*
X013843Y047023D01*
X013842Y047023D01*
X013841Y047025D01*
X013839Y047026D01*
X013836Y047028D01*
X013834Y047031D01*
X01383Y047034D01*
X013826Y047038D01*
X013821Y047041D01*
X013809Y047048D01*
X013796Y047054D01*
X013789Y047056D01*
X013781Y047057D01*
X013774Y047058D01*
X013766Y047059D01*
D02*
G37*
G36*
X013772Y046802D02*
X013672D01*
X013772D01*
D01*
D02*
G37*
%LPD*%
G36*
X014416Y047045D02*
X014425D01*
Y047046D01*
X014426Y047048D01*
X014427Y04705D01*
X014428Y047054D01*
X01443Y047058D01*
X014432Y047063D01*
X014438Y047074D01*
X014445Y047086D01*
X014455Y047099D01*
X014465Y047111D01*
X014471Y047117D01*
X014477Y047122D01*
X014478Y047123D01*
X014479Y047123D01*
X014481Y047125D01*
X014483Y047127D01*
X014487Y047128D01*
X014491Y047131D01*
X014495Y047133D01*
X0145Y047136D01*
X014511Y047141D01*
X014524Y047145D01*
X014538Y047148D01*
X014546Y047149D01*
X014553Y047149D01*
X014557D01*
X01456Y047149D01*
X014563D01*
X014568Y047148D01*
X014576Y047146D01*
X014587Y047144D01*
X014598Y04714D01*
X014609Y047134D01*
X014619Y047127D01*
X01462D01*
X014621Y047126D01*
X014624Y047122D01*
X014628Y047117D01*
X014634Y04711D01*
X01464Y047102D01*
X014646Y047091D01*
X014652Y047079D01*
X014657Y047064D01*
Y047064D01*
X014657Y047063D01*
X014658Y047061D01*
X014658Y047058D01*
X014659Y047054D01*
X01466Y04705D01*
X014661Y047045D01*
X014662Y047039D01*
X014664Y047027D01*
X014666Y047014D01*
X014667Y046999D01*
X014668Y046983D01*
Y046983D01*
Y046981D01*
Y046978D01*
Y046974D01*
X014667Y04697D01*
Y046965D01*
X014666Y046959D01*
X014666Y046953D01*
X014665Y046939D01*
X014663Y046924D01*
X014659Y046909D01*
X014655Y046894D01*
Y046894D01*
X014655Y046892D01*
X014654Y04689D01*
X014653Y046888D01*
X014652Y046885D01*
X01465Y046881D01*
X014646Y046873D01*
X014641Y046864D01*
X014634Y046854D01*
X014627Y046845D01*
X014617Y046838D01*
X014617D01*
X014616Y046837D01*
X014615Y046836D01*
X014612Y046835D01*
X014607Y046832D01*
X014599Y046829D01*
X01459Y046826D01*
X014579Y046823D01*
X014567Y046821D01*
X014554Y04682D01*
X014549D01*
X014546Y046821D01*
X014542D01*
X014538Y046821D01*
X014528Y046823D01*
X014528D01*
X014526Y046824D01*
X014523Y046824D01*
X01452Y046825D01*
X014516Y046826D01*
X014511Y046827D01*
X0145Y046831D01*
Y046904D01*
Y046906D01*
Y046908D01*
Y046912D01*
X014501Y046915D01*
Y04692D01*
X014502Y046925D01*
X014503Y046928D01*
X014504Y046931D01*
Y046932D01*
X014504Y046932D01*
X014506Y046935D01*
X01451Y046938D01*
X014512Y04694D01*
X014516Y046942D01*
X014516D01*
X014517Y046943D01*
X014519Y046944D01*
X014522Y046945D01*
X014525Y046946D01*
X014528Y046947D01*
X014537Y046948D01*
X014546D01*
Y046957D01*
X014374D01*
Y04717D01*
X014416D01*
Y047045D01*
D02*
G37*
G36*
X016168Y047058D02*
X016162Y047057D01*
X016156Y047056D01*
X016149Y047054D01*
X016143Y047051D01*
X016137Y047047D01*
X016136Y047046D01*
X016134Y047045D01*
X016132Y047043D01*
X016129Y047039D01*
X016125Y047035D01*
X016121Y047029D01*
X016118Y047024D01*
X016116Y047017D01*
X016115Y047017D01*
X016115Y047014D01*
X016114Y04701D01*
X016113Y047004D01*
X016112Y046996D01*
X016111Y046986D01*
X01611Y046975D01*
Y046961D01*
Y046862D01*
Y046861D01*
Y046861D01*
Y046858D01*
X016109Y046853D01*
Y046847D01*
X016109Y046841D01*
X016108Y046835D01*
X016107Y04683D01*
X016105Y046826D01*
X016105D01*
X016104Y046825D01*
X016102Y046824D01*
X0161Y046823D01*
X016097Y046821D01*
X016094Y04682D01*
X016089Y046819D01*
X016084Y046818D01*
Y047059D01*
X016172D01*
X016168Y047058D01*
D02*
G37*
G36*
X015618Y046867D02*
Y046866D01*
Y046864D01*
Y04686D01*
Y046855D01*
X015617Y04685D01*
Y046846D01*
X015616Y046842D01*
X015616Y046839D01*
X015615Y046839D01*
X015614Y046837D01*
X015612Y046835D01*
X015609Y046832D01*
X015608D01*
X015608Y046832D01*
X015606Y046831D01*
X015603Y046831D01*
X015601Y04683D01*
X015597Y046829D01*
X015593Y046829D01*
X015584D01*
X015582Y046829D01*
X015578Y04683D01*
X015573Y04683D01*
X015564Y046832D01*
X015553Y046836D01*
X015542Y046841D01*
X015537Y046844D01*
X015532Y046848D01*
X015527Y046853D01*
X015523Y046858D01*
X015522Y046859D01*
X015521Y04686D01*
X01552Y046862D01*
X015518Y046866D01*
X015515Y04687D01*
X015513Y046875D01*
X015509Y046882D01*
X015507Y046889D01*
X015504Y046897D01*
X015501Y046906D01*
X015498Y046916D01*
X015496Y046927D01*
X015494Y046939D01*
X015492Y046953D01*
X015491Y046967D01*
X015491Y046983D01*
Y046983D01*
Y046986D01*
Y046989D01*
X015491Y046994D01*
Y046999D01*
X015492Y047006D01*
X015493Y047014D01*
X015494Y047021D01*
X015496Y047039D01*
X0155Y047057D01*
X015505Y047074D01*
X015508Y047083D01*
X015512Y047091D01*
Y047091D01*
X015513Y047092D01*
X015514Y047094D01*
X015515Y047096D01*
X015519Y047101D01*
X015524Y047108D01*
X01553Y047115D01*
X015538Y047122D01*
X015546Y047129D01*
X015556Y047134D01*
X015557Y047134D01*
X01556Y047135D01*
X015564Y047137D01*
X015571Y047138D01*
X015579Y047139D01*
X01559Y047141D01*
X015596Y047141D01*
X015602D01*
X01561Y047142D01*
X015618D01*
Y046867D01*
D02*
G37*
G36*
X017195Y046996D02*
X017181D01*
X017176Y046997D01*
X017171Y046997D01*
X017165Y046998D01*
X017159Y046999D01*
X017153Y047001D01*
X017147Y047003D01*
X017146Y047003D01*
X017144Y047004D01*
X017141Y047006D01*
X017138Y047008D01*
X017134Y047011D01*
X01713Y047016D01*
X017126Y047021D01*
X017122Y047026D01*
X017121Y047027D01*
X01712Y047029D01*
X017119Y047033D01*
X017116Y047038D01*
X017114Y047045D01*
X017111Y047053D01*
X01711Y047062D01*
X017108Y047072D01*
X017099D01*
Y046895D01*
X017108D01*
Y046896D01*
Y046897D01*
X017109Y0469D01*
X017109Y046903D01*
X01711Y046907D01*
X017111Y046912D01*
X017114Y046922D01*
X017117Y046933D01*
X017122Y046944D01*
X017125Y046949D01*
X017128Y046954D01*
X017132Y046957D01*
X017135Y046961D01*
X017137Y046961D01*
X017139Y046963D01*
X017144Y046966D01*
X01715Y046969D01*
X017157Y046972D01*
X017165Y046974D01*
X017175Y046977D01*
X017185Y046977D01*
X017195D01*
Y046869D01*
Y046868D01*
Y046868D01*
Y046865D01*
Y04686D01*
X017194Y046854D01*
Y046849D01*
X017194Y046843D01*
X017193Y046838D01*
X017192Y046835D01*
Y046834D01*
X017192Y046833D01*
X017189Y046831D01*
X017186Y046827D01*
X017183Y046825D01*
X017181Y046823D01*
X01718D01*
X017179Y046823D01*
X017177Y046821D01*
X017175Y046821D01*
X017171Y04682D01*
X017167Y046819D01*
X017163Y046818D01*
X017145D01*
Y046809D01*
X017032D01*
Y047061D01*
X017043D01*
Y047061D01*
Y047062D01*
X017043Y047064D01*
Y047067D01*
X017045Y047073D01*
X017046Y04708D01*
X017049Y047089D01*
X017052Y047098D01*
X017056Y047106D01*
X017062Y047113D01*
X017062Y047114D01*
X017064Y047116D01*
X017068Y047119D01*
X017073Y047123D01*
X017079Y047127D01*
X017086Y047131D01*
X017095Y047134D01*
X017105Y047137D01*
X017105D01*
X017108Y047138D01*
X017112Y047139D01*
X017118Y047139D01*
X017126Y04714D01*
X01713D01*
X017135Y047141D01*
X017141D01*
X017147Y047141D01*
X017195D01*
Y046996D01*
D02*
G37*
G36*
X016814Y047058D02*
X016811Y047058D01*
X016807Y047057D01*
X016803Y047055D01*
X0168Y047053D01*
X016796Y04705D01*
X016796Y047049D01*
X016795Y047048D01*
X016794Y047046D01*
X016792Y047043D01*
X01679Y04704D01*
X016789Y047035D01*
X016788Y047031D01*
X016788Y047025D01*
Y047059D01*
X016817D01*
X016814Y047058D01*
D02*
G37*
G36*
X015195Y047161D02*
X015189D01*
X015182Y04716D01*
X015174Y047159D01*
X015166Y047158D01*
X015148Y047155D01*
X01513Y04715D01*
X015121Y047147D01*
X015113Y047144D01*
X015105Y047139D01*
X015099Y047134D01*
X015098Y047134D01*
X015097Y047133D01*
X015096Y047132D01*
X015093Y047129D01*
X015091Y047127D01*
X015088Y047124D01*
X015082Y047116D01*
X015076Y047106D01*
X01507Y047094D01*
X015069Y047088D01*
X015067Y047081D01*
X015066Y047074D01*
X015066Y047067D01*
Y047162D01*
X015201D01*
X015195Y047161D01*
D02*
G37*
G36*
X015231Y046989D02*
X015226D01*
X015222Y046989D01*
X015215D01*
X015212Y046989D01*
X015207Y04699D01*
X0152Y046991D01*
X015192Y046993D01*
X015184Y046996D01*
X015176Y047001D01*
X015169Y047007D01*
X015169Y047008D01*
X015167Y047011D01*
X015164Y047015D01*
X015161Y047022D01*
X015157Y04703D01*
X015155Y04704D01*
X015152Y047052D01*
X015152Y047066D01*
Y047066D01*
Y047067D01*
Y047069D01*
Y047072D01*
X015152Y047075D01*
X015153Y047079D01*
X015154Y047087D01*
X015156Y047097D01*
X015159Y047106D01*
X015163Y047115D01*
X015169Y047123D01*
X01517Y047123D01*
X015173Y047126D01*
X015176Y047129D01*
X015182Y047132D01*
X015189Y047135D01*
X015198Y047139D01*
X015209Y047141D01*
X015221Y047141D01*
X015231D01*
Y046989D01*
D02*
G37*
G36*
X014167Y047058D02*
X014164Y047058D01*
X01416Y047057D01*
X014156Y047055D01*
X014153Y047053D01*
X014149Y04705D01*
X014149Y047049D01*
X014148Y047048D01*
X014147Y047046D01*
X014145Y047043D01*
X014143Y04704D01*
X014142Y047035D01*
X014141Y047031D01*
X014141Y047025D01*
Y047059D01*
X01417D01*
X014167Y047058D01*
D02*
G37*
G36*
X013462D02*
X013456Y047057D01*
X01345Y047056D01*
X013444Y047053D01*
X013437Y04705D01*
X013431Y047045D01*
X013431Y047045D01*
X013429Y047043D01*
X013426Y04704D01*
X013423Y047037D01*
X013419Y047032D01*
X013416Y047026D01*
X013413Y04702D01*
X01341Y047013D01*
Y047013D01*
X01341Y04701D01*
X013408Y047006D01*
X013408Y047001D01*
X013407Y046993D01*
Y046988D01*
X013406Y046983D01*
Y046977D01*
X013406Y046971D01*
Y046964D01*
Y046956D01*
Y046862D01*
Y046861D01*
Y046861D01*
Y046858D01*
X013405Y046853D01*
Y046847D01*
X013405Y046841D01*
X013404Y046835D01*
X013402Y04683D01*
X013401Y046826D01*
X0134Y046825D01*
X013399Y046824D01*
X013396Y046823D01*
X013393Y046821D01*
X01339Y04682D01*
X013385Y046819D01*
X013379Y046818D01*
Y047059D01*
X013466D01*
X013462Y047058D01*
D02*
G37*
G36*
X016636Y047058D02*
X016628Y047057D01*
X016619Y047055D01*
X016609Y047052D01*
X016599Y047048D01*
X016588Y047043D01*
X016588D01*
X016587Y047042D01*
X016584Y047039D01*
X016579Y047036D01*
X016573Y047031D01*
X016566Y047024D01*
X016559Y047016D01*
X016553Y047007D01*
X016547Y046996D01*
Y046995D01*
X016546Y046995D01*
X016546Y046993D01*
X016545Y04699D01*
X016544Y046987D01*
X016542Y046984D01*
X01654Y046976D01*
X016537Y046967D01*
X016535Y046955D01*
X016533Y046943D01*
X016533Y04693D01*
Y047059D01*
X016642D01*
X016636Y047058D01*
D02*
G37*
G36*
X016651Y04704D02*
X016654Y04704D01*
X016658Y047038D01*
X016661Y047037D01*
X016665Y047034D01*
X016669Y047031D01*
X01667Y04703D01*
X016671Y047028D01*
X016672Y047026D01*
X016674Y047022D01*
X016676Y047017D01*
X016678Y04701D01*
X01668Y047002D01*
X016681Y046991D01*
Y046991D01*
Y04699D01*
Y046988D01*
X016682Y046986D01*
Y046983D01*
X016682Y046979D01*
Y046975D01*
Y04697D01*
X016683Y046965D01*
Y046959D01*
X016683Y046951D01*
Y046944D01*
X016684Y046937D01*
Y046928D01*
Y046919D01*
Y046909D01*
Y046909D01*
Y046908D01*
Y046907D01*
Y046904D01*
Y0469D01*
X016683Y046892D01*
Y046884D01*
X016682Y046876D01*
X016681Y046858D01*
Y046857D01*
X01668Y046854D01*
X016679Y046851D01*
X016678Y046847D01*
X016675Y046838D01*
X016672Y046833D01*
X016669Y046829D01*
X016668Y046829D01*
X016667Y046827D01*
X016665Y046826D01*
X016662Y046825D01*
X016659Y046823D01*
X016655Y046821D01*
X016651Y04682D01*
X016647Y04682D01*
X016645D01*
X016643Y04682D01*
X01664D01*
X016634Y046823D01*
X01663Y046824D01*
X016628Y046826D01*
X016627Y046826D01*
X016626Y046827D01*
X016624Y04683D01*
X016622Y046832D01*
X01662Y046836D01*
X016617Y046841D01*
X016616Y046845D01*
X016614Y046851D01*
Y046852D01*
Y046852D01*
X016613Y046854D01*
X016613Y046856D01*
Y046859D01*
X016612Y046862D01*
X016612Y046867D01*
X016611Y046873D01*
X016611Y046879D01*
X01661Y046886D01*
X01661Y046894D01*
Y046903D01*
X016609Y046913D01*
X016609Y046925D01*
Y046937D01*
Y04695D01*
Y046951D01*
Y046953D01*
Y046955D01*
Y046957D01*
Y046961D01*
Y046965D01*
X016609Y046974D01*
X01661Y046985D01*
X016611Y046995D01*
X016612Y047004D01*
X016613Y047008D01*
X016614Y047011D01*
Y047011D01*
X016615Y047014D01*
X016616Y047017D01*
X016618Y04702D01*
X016622Y047028D01*
X016625Y047032D01*
X016628Y047035D01*
X016629D01*
X016629Y047037D01*
X016631Y047037D01*
X016633Y047038D01*
X016639Y04704D01*
X016646Y047041D01*
X016648D01*
X016651Y04704D01*
D02*
G37*
G36*
X014011Y047042D02*
X014013Y04704D01*
X014017Y047039D01*
X014021Y047036D01*
X014025Y047033D01*
X014028Y047028D01*
X014029Y047027D01*
X01403Y047024D01*
X014033Y047019D01*
X014035Y047012D01*
X014038Y047003D01*
X014041Y046992D01*
X014042Y046979D01*
X014043Y046965D01*
Y046956D01*
X013972D01*
Y046957D01*
Y046958D01*
Y04696D01*
Y046963D01*
Y046967D01*
Y046971D01*
X013973Y046979D01*
X013974Y046989D01*
X013975Y046998D01*
X013976Y047007D01*
X013976Y04701D01*
X013977Y047013D01*
Y047014D01*
X013978Y047016D01*
X013979Y047019D01*
X013981Y047022D01*
X013985Y04703D01*
X013988Y047034D01*
X013992Y047037D01*
X013993Y047038D01*
X013995Y04704D01*
X014Y047042D01*
X014006Y047042D01*
X014008D01*
X014011Y047042D01*
D02*
G37*
G36*
X013996Y047058D02*
X013993Y047058D01*
X013989Y047057D01*
X01398Y047055D01*
X01397Y047051D01*
X013959Y047046D01*
X013954Y047043D01*
X013948Y047039D01*
X013944Y047034D01*
X013938Y047028D01*
X013937Y047028D01*
X013937Y047027D01*
X013935Y047025D01*
X013934Y047023D01*
X013931Y04702D01*
X013929Y047016D01*
X013927Y047011D01*
X013924Y047006D01*
X013922Y047D01*
X013919Y046993D01*
X013916Y046986D01*
X013914Y046978D01*
X013912Y046969D01*
X01391Y04696D01*
X013909Y04695D01*
X013909Y046939D01*
X014042D01*
Y046939D01*
Y046937D01*
X014041Y046934D01*
Y046931D01*
X014041Y046927D01*
X01404Y046922D01*
X014038Y046912D01*
X014035Y046899D01*
X01403Y046886D01*
X014024Y046874D01*
X014016Y046862D01*
X014016Y046861D01*
X014013Y046859D01*
X014009Y046856D01*
X014004Y046852D01*
X013998Y046848D01*
X01399Y046844D01*
X013982Y046842D01*
X013973Y046841D01*
X01397D01*
X013968Y046842D01*
X013964Y046842D01*
X013959Y046843D01*
X013955Y046844D01*
X01395Y046847D01*
X013945Y046849D01*
X013945Y04685D01*
X013943Y046851D01*
X01394Y046853D01*
X013937Y046856D01*
X013933Y046861D01*
X013928Y046866D01*
X013923Y046873D01*
X013918Y046881D01*
X013909Y046876D01*
Y047059D01*
X013998D01*
X013996Y047058D01*
D02*
G37*
G36*
X013774Y047042D02*
X013777Y04704D01*
X013781Y047039D01*
X013785Y047036D01*
X013788Y047033D01*
X013792Y047028D01*
X013792Y047027D01*
X013794Y047024D01*
X013797Y047019D01*
X013799Y047012D01*
X013802Y047003D01*
X013804Y046992D01*
X013806Y046979D01*
X013806Y046965D01*
Y046956D01*
X013736D01*
Y046957D01*
Y046958D01*
Y04696D01*
Y046963D01*
Y046967D01*
Y046971D01*
X013737Y046979D01*
X013737Y046989D01*
X013738Y046998D01*
X013739Y047007D01*
X01374Y04701D01*
X013741Y047013D01*
Y047014D01*
X013741Y047016D01*
X013743Y047019D01*
X013744Y047022D01*
X013749Y04703D01*
X013752Y047034D01*
X013755Y047037D01*
X013756Y047038D01*
X013759Y04704D01*
X013763Y047042D01*
X013769Y047042D01*
X013772D01*
X013774Y047042D01*
D02*
G37*
G36*
X01376Y047058D02*
X013756Y047058D01*
X013752Y047057D01*
X013744Y047055D01*
X013734Y047051D01*
X013723Y047046D01*
X013717Y047043D01*
X013712Y047039D01*
X013707Y047034D01*
X013702Y047028D01*
X013701Y047028D01*
X013701Y047027D01*
X013699Y047025D01*
X013697Y047023D01*
X013695Y04702D01*
X013693Y047016D01*
X01369Y047011D01*
X013687Y047006D01*
X013685Y047D01*
X013683Y046993D01*
X01368Y046986D01*
X013678Y046978D01*
X013675Y046969D01*
X013674Y04696D01*
X013673Y04695D01*
X013672Y046939D01*
X013805D01*
Y046939D01*
Y046937D01*
X013805Y046934D01*
Y046931D01*
X013804Y046927D01*
X013803Y046922D01*
X013802Y046912D01*
X013798Y046899D01*
X013793Y046886D01*
X013787Y046874D01*
X01378Y046862D01*
X013779Y046861D01*
X013776Y046859D01*
X013773Y046856D01*
X013768Y046852D01*
X013762Y046848D01*
X013754Y046844D01*
X013746Y046842D01*
X013737Y046841D01*
X013734D01*
X013731Y046842D01*
X013727Y046842D01*
X013723Y046843D01*
X013719Y046844D01*
X013714Y046847D01*
X013709Y046849D01*
X013708Y04685D01*
X013707Y046851D01*
X013704Y046853D01*
X013701Y046856D01*
X013696Y046861D01*
X013692Y046866D01*
X013687Y046873D01*
X013681Y046881D01*
X013672Y046876D01*
Y047059D01*
X013762D01*
X01376Y047058D01*
D02*
G37*
%LPC*%
G36*
X019044Y048742D02*
X019042D01*
X019038Y048741D01*
X019034Y04874D01*
X01903Y048739D01*
X019025Y048737D01*
X01902Y048734D01*
X019016Y04873D01*
X019015Y048729D01*
X019014Y048727D01*
X019012Y048725D01*
X019009Y048722D01*
X019007Y048717D01*
X019005Y048713D01*
X019004Y048707D01*
X019003Y048701D01*
Y048698D01*
X019004Y048695D01*
X019005Y048691D01*
X019006Y048686D01*
X019008Y048681D01*
X019012Y048676D01*
X019016Y048671D01*
X019016Y048671D01*
X019018Y04867D01*
X01902Y048667D01*
X019024Y048666D01*
X019028Y048663D01*
X019033Y048661D01*
X019038Y04866D01*
X019044Y048659D01*
X019047D01*
X019051Y04866D01*
X019055Y048661D01*
X019059Y048662D01*
X019064Y048665D01*
X019069Y048667D01*
X019074Y048671D01*
X019074Y048672D01*
X019076Y048674D01*
X019078Y048676D01*
X019079Y048679D01*
X019082Y048684D01*
X019084Y048689D01*
X019085Y048695D01*
X019086Y048701D01*
Y048701D01*
Y048704D01*
X019085Y048707D01*
X019084Y048711D01*
X019083Y048715D01*
X019081Y04872D01*
X019078Y048725D01*
X019074Y04873D01*
X019073Y04873D01*
X019072Y048731D01*
X019069Y048734D01*
X019066Y048736D01*
X019061Y048738D01*
X019056Y04874D01*
X019051Y048741D01*
X019044Y048742D01*
D02*
G37*
G36*
X016017Y048741D02*
X015912D01*
Y048361D01*
Y048492D01*
X015913Y048488D01*
X015913Y048483D01*
X015914Y048477D01*
X015915Y048471D01*
X015917Y048464D01*
X015919Y048456D01*
X015922Y048449D01*
X015926Y04844D01*
X01593Y048432D01*
X015935Y048424D01*
X01594Y048416D01*
X015947Y048408D01*
X015954Y0484D01*
X015954Y0484D01*
X015956Y048398D01*
X015958Y048397D01*
X015961Y048394D01*
X015966Y048391D01*
X015971Y048388D01*
X015976Y048384D01*
X015983Y04838D01*
X015991Y048377D01*
X015999Y048373D01*
X016008Y04837D01*
X016018Y048367D01*
X016028Y048364D01*
X01604Y048362D01*
X016052Y048361D01*
X016065Y048361D01*
X016073D01*
X016076Y048361D01*
X01608D01*
X016091Y048362D01*
X016102Y048365D01*
X016113Y048367D01*
X016123Y048371D01*
X016128Y048373D01*
X016132Y048376D01*
X016133Y048376D01*
X016135Y048378D01*
X016138Y04838D01*
X01614Y048383D01*
X016143Y048387D01*
X016145Y048392D01*
X016147Y048397D01*
X016148Y048404D01*
Y048376D01*
Y048406D01*
X016147Y048408D01*
X016147Y048411D01*
X016145Y048414D01*
X016144Y048418D01*
X016142Y048421D01*
X016139Y048424D01*
X016139Y048425D01*
X016138Y048426D01*
X016136Y048427D01*
X016133Y048429D01*
X016127Y048432D01*
X016123Y048433D01*
X016118Y048433D01*
X016115D01*
X016113Y048433D01*
X016108Y048432D01*
X016102Y04843D01*
X016101Y048429D01*
X016099Y048428D01*
X016096Y048426D01*
X016092Y048423D01*
X016087Y048419D01*
X01608Y048413D01*
X016071Y048406D01*
X016071D01*
X01607Y048405D01*
X016067Y048402D01*
X016062Y048399D01*
X016055Y048396D01*
X016048Y048392D01*
X016039Y048388D01*
X016031Y048386D01*
X016022Y048385D01*
X016018D01*
X016015Y048385D01*
X01601Y048387D01*
X016005Y048389D01*
X015999Y048391D01*
X015993Y048395D01*
X015988Y0484D01*
X015987Y048401D01*
X015986Y048403D01*
X015983Y048406D01*
X01598Y048411D01*
X015978Y048417D01*
X015975Y048424D01*
X015974Y048432D01*
X015973Y04844D01*
Y048441D01*
Y048442D01*
Y048444D01*
X015974Y048446D01*
Y04845D01*
X015974Y048453D01*
X015976Y048462D01*
X015979Y048473D01*
X015984Y048484D01*
X015991Y048496D01*
X015995Y048502D01*
X015999Y048508D01*
X016Y048509D01*
X016Y048509D01*
X016002Y048511D01*
X016004Y048513D01*
X016006Y048516D01*
X01601Y048519D01*
X016014Y048522D01*
X016018Y048526D01*
X016023Y048529D01*
X016029Y048532D01*
X016035Y048536D01*
X016041Y04854D01*
X016057Y048546D01*
X016074Y048552D01*
Y048561D01*
X016074D01*
X016073Y048562D01*
X016071Y048562D01*
X016069Y048563D01*
X016064Y048564D01*
X016057Y048566D01*
X01605Y048569D01*
X016044Y048571D01*
X016037Y048574D01*
X016032Y048577D01*
X016031Y048578D01*
X01603Y048579D01*
X016028Y04858D01*
X016025Y048583D01*
X016022Y048586D01*
X016018Y048591D01*
X016015Y048595D01*
X016012Y048601D01*
X016011Y048601D01*
X01601Y048604D01*
X016009Y048606D01*
X016007Y048611D01*
X016005Y048615D01*
X016004Y048621D01*
X016003Y048627D01*
X016002Y048632D01*
Y048633D01*
Y048636D01*
X016003Y04864D01*
X016005Y048646D01*
X016006Y048652D01*
X016009Y048658D01*
X016013Y048665D01*
X016019Y048671D01*
X016019Y048671D01*
X016022Y048674D01*
X016025Y048676D01*
X01603Y048679D01*
X016036Y048682D01*
X016043Y048685D01*
X016051Y048687D01*
X01606Y048687D01*
X016063D01*
X016066Y048687D01*
X01607Y048686D01*
X016074Y048685D01*
X016082Y048682D01*
X016087Y04868D01*
X016092Y048678D01*
X016097Y048674D01*
X016103Y04867D01*
X016108Y048666D01*
X016114Y04866D01*
X016119Y048654D01*
X016124Y048647D01*
X016134Y048651D01*
Y048652D01*
X016133Y048653D01*
X016132Y048656D01*
X016131Y048658D01*
X016128Y048662D01*
X016126Y048666D01*
X016121Y048676D01*
X016114Y048687D01*
X016105Y048698D01*
X016095Y048709D01*
X016084Y048718D01*
X016084D01*
X016083Y048719D01*
X016082Y04872D01*
X016079Y048722D01*
X016076Y048723D01*
X016073Y048726D01*
X016065Y04873D01*
X016054Y048734D01*
X016043Y048737D01*
X01603Y04874D01*
X016017Y048741D01*
D02*
G37*
G36*
X015729D02*
X015606D01*
X0156Y04874D01*
X015593Y048739D01*
X015586Y048737D01*
X015578Y048735D01*
X015569Y048732D01*
X01556Y048728D01*
X015559Y048727D01*
X015556Y048726D01*
X015552Y048723D01*
X015547Y048719D01*
X015541Y048714D01*
X015535Y048708D01*
X015529Y0487D01*
X015524Y048692D01*
X015523Y048691D01*
X015522Y048688D01*
X01552Y048684D01*
X015517Y048679D01*
X015515Y048672D01*
X015513Y048665D01*
X015511Y048658D01*
X015511Y04865D01*
Y04865D01*
Y048649D01*
Y048647D01*
X015511Y048644D01*
Y048641D01*
X015512Y048637D01*
X015513Y048628D01*
X015516Y048617D01*
X015519Y048605D01*
X015524Y048591D01*
X015531Y048578D01*
X015532Y048577D01*
X015532Y048575D01*
X015534Y048572D01*
X015537Y048569D01*
X01554Y048563D01*
X015545Y048557D01*
X01555Y04855D01*
X015556Y048541D01*
X015563Y048532D01*
X015572Y048522D01*
X015582Y04851D01*
X015593Y048498D01*
X015605Y048485D01*
X015618Y048471D01*
X015634Y048456D01*
X01565Y048439D01*
X015561D01*
X015556Y04844D01*
X015549D01*
X015543Y04844D01*
X015537Y048441D01*
X015534Y048441D01*
X015533D01*
X015532Y048442D01*
X015528Y048443D01*
X015523Y048446D01*
X015519Y048449D01*
Y04845D01*
X015518Y04845D01*
X015517Y048452D01*
X015515Y048455D01*
X015513Y048458D01*
X01551Y048462D01*
X015508Y048468D01*
X015504Y048474D01*
X015494D01*
X015515Y048369D01*
X015494D01*
X015729D01*
Y048374D01*
X015728Y048375D01*
X015728Y048375D01*
X015727Y048377D01*
X015724Y048379D01*
X01572Y048385D01*
X015713Y048393D01*
X015705Y048402D01*
X015697Y048414D01*
X015687Y048426D01*
X015677Y048438D01*
X015656Y048465D01*
X015647Y048478D01*
X015637Y048491D01*
X015628Y048502D01*
X015621Y048514D01*
X015614Y048524D01*
X015609Y048532D01*
Y048533D01*
X015608Y048534D01*
X015608Y048536D01*
X015606Y048539D01*
X015604Y048543D01*
X015602Y048547D01*
X015601Y048552D01*
X015598Y048558D01*
X015595Y04857D01*
X015592Y048583D01*
X015589Y048597D01*
X015588Y048611D01*
Y048612D01*
Y048613D01*
Y048616D01*
X015589Y048622D01*
X015591Y048628D01*
X015593Y048635D01*
X015596Y048643D01*
X0156Y048651D01*
X015606Y048658D01*
X015606Y048659D01*
X015609Y048661D01*
X015613Y048665D01*
X015618Y048668D01*
X015624Y048671D01*
X015631Y048675D01*
X01564Y048677D01*
X015649Y048678D01*
X015653D01*
X015656Y048677D01*
X015659Y048676D01*
X015663Y048675D01*
X015672Y048672D01*
X015677Y04867D01*
X015683Y048667D01*
X015688Y048664D01*
X015693Y04866D01*
X015699Y048655D01*
X015704Y048649D01*
X015708Y048643D01*
X015713Y048636D01*
X015723Y048639D01*
Y04864D01*
X015722Y048641D01*
X015721Y048644D01*
X01572Y048648D01*
X015718Y048652D01*
X015717Y048657D01*
X015711Y048669D01*
X015705Y048681D01*
X015698Y048693D01*
X015689Y048706D01*
X015684Y048711D01*
X015679Y048716D01*
X015678Y048717D01*
X015678Y048717D01*
X015676Y048718D01*
X015674Y04872D01*
X015671Y048722D01*
X015667Y048724D01*
X015659Y048728D01*
X015649Y048733D01*
X015637Y048737D01*
X015624Y04874D01*
X015618Y048741D01*
X015729D01*
D02*
G37*
G36*
X014473D02*
X01435D01*
X014344Y04874D01*
X014337Y048739D01*
X01433Y048737D01*
X014322Y048735D01*
X014313Y048732D01*
X014304Y048728D01*
X014303Y048727D01*
X0143Y048726D01*
X014296Y048723D01*
X014291Y048719D01*
X014285Y048714D01*
X014279Y048708D01*
X014273Y0487D01*
X014268Y048692D01*
X014267Y048691D01*
X014266Y048688D01*
X014264Y048684D01*
X014261Y048679D01*
X014259Y048672D01*
X014257Y048665D01*
X014255Y048658D01*
X014255Y04865D01*
Y04865D01*
Y048649D01*
Y048647D01*
X014255Y048644D01*
Y048641D01*
X014256Y048637D01*
X014257Y048628D01*
X01426Y048617D01*
X014263Y048605D01*
X014268Y048591D01*
X014275Y048578D01*
X014276Y048577D01*
X014276Y048575D01*
X014278Y048572D01*
X014281Y048569D01*
X014284Y048563D01*
X014289Y048557D01*
X014294Y04855D01*
X0143Y048541D01*
X014307Y048532D01*
X014316Y048522D01*
X014326Y04851D01*
X014337Y048498D01*
X014349Y048485D01*
X014362Y048471D01*
X014378Y048456D01*
X014394Y048439D01*
X014305D01*
X0143Y04844D01*
X014293D01*
X014287Y04844D01*
X014281Y048441D01*
X014278Y048441D01*
X014277D01*
X014276Y048442D01*
X014272Y048443D01*
X014267Y048446D01*
X014263Y048449D01*
Y04845D01*
X014262Y04845D01*
X014261Y048452D01*
X014259Y048455D01*
X014257Y048458D01*
X014254Y048462D01*
X014252Y048468D01*
X014248Y048474D01*
X014238D01*
X014259Y048369D01*
X014238D01*
X014473D01*
Y048374D01*
X014472Y048375D01*
X014472Y048375D01*
X014471Y048377D01*
X014468Y048379D01*
X014464Y048385D01*
X014457Y048393D01*
X014449Y048402D01*
X014441Y048414D01*
X014431Y048426D01*
X014421Y048438D01*
X0144Y048465D01*
X014391Y048478D01*
X014381Y048491D01*
X014372Y048502D01*
X014365Y048514D01*
X014358Y048524D01*
X014353Y048532D01*
Y048533D01*
X014352Y048534D01*
X014352Y048536D01*
X01435Y048539D01*
X014348Y048543D01*
X014346Y048547D01*
X014345Y048552D01*
X014343Y048558D01*
X014339Y04857D01*
X014336Y048583D01*
X014333Y048597D01*
X014332Y048611D01*
Y048612D01*
Y048613D01*
Y048616D01*
X014333Y048622D01*
X014335Y048628D01*
X014337Y048635D01*
X01434Y048643D01*
X014344Y048651D01*
X01435Y048658D01*
X01435Y048659D01*
X014353Y048661D01*
X014357Y048665D01*
X014362Y048668D01*
X014368Y048671D01*
X014375Y048675D01*
X014384Y048677D01*
X014393Y048678D01*
X014397D01*
X0144Y048677D01*
X014403Y048676D01*
X014407Y048675D01*
X014416Y048672D01*
X014421Y04867D01*
X014427Y048667D01*
X014432Y048664D01*
X014437Y04866D01*
X014443Y048655D01*
X014448Y048649D01*
X014452Y048643D01*
X014457Y048636D01*
X014467Y048639D01*
Y04864D01*
X014466Y048641D01*
X014465Y048644D01*
X014464Y048648D01*
X014462Y048652D01*
X014461Y048657D01*
X014456Y048669D01*
X014449Y048681D01*
X014442Y048693D01*
X014433Y048706D01*
X014428Y048711D01*
X014423Y048716D01*
X014422Y048717D01*
X014422Y048717D01*
X01442Y048718D01*
X014418Y04872D01*
X014415Y048722D01*
X014411Y048724D01*
X014403Y048728D01*
X014393Y048733D01*
X014381Y048737D01*
X014368Y04874D01*
X014362Y048741D01*
X014473D01*
D02*
G37*
G36*
X013922D02*
X013798D01*
X013793Y04874D01*
X013786Y048739D01*
X013779Y048737D01*
X01377Y048735D01*
X013761Y048732D01*
X013753Y048728D01*
X013752Y048727D01*
X013749Y048726D01*
X013745Y048723D01*
X01374Y048719D01*
X013733Y048714D01*
X013728Y048708D01*
X013722Y0487D01*
X013716Y048692D01*
X013716Y048691D01*
X013714Y048688D01*
X013713Y048684D01*
X01371Y048679D01*
X013707Y048672D01*
X013706Y048665D01*
X013704Y048658D01*
X013703Y04865D01*
Y04865D01*
Y048649D01*
Y048647D01*
X013704Y048644D01*
Y048641D01*
X013705Y048637D01*
X013706Y048628D01*
X013709Y048617D01*
X013712Y048605D01*
X013717Y048591D01*
X013724Y048578D01*
X013724Y048577D01*
X013725Y048575D01*
X013727Y048572D01*
X013729Y048569D01*
X013733Y048563D01*
X013737Y048557D01*
X013742Y04855D01*
X013749Y048541D01*
X013756Y048532D01*
X013765Y048522D01*
X013774Y04851D01*
X013785Y048498D01*
X013797Y048485D01*
X013811Y048471D01*
X013826Y048456D01*
X013842Y048439D01*
X013754D01*
X013748Y04844D01*
X013741D01*
X013736Y04844D01*
X01373Y048441D01*
X013726Y048441D01*
X013726D01*
X013724Y048442D01*
X013721Y048443D01*
X013716Y048446D01*
X013711Y048449D01*
Y04845D01*
X01371Y04845D01*
X013709Y048452D01*
X013707Y048455D01*
X013705Y048458D01*
X013703Y048462D01*
X0137Y048468D01*
X013697Y048474D01*
X013687D01*
X013707Y048369D01*
X013687D01*
X013922D01*
Y048374D01*
X013921Y048375D01*
X01392Y048375D01*
X013919Y048377D01*
X013917Y048379D01*
X013913Y048385D01*
X013906Y048393D01*
X013898Y048402D01*
X013889Y048414D01*
X01388Y048426D01*
X01387Y048438D01*
X013849Y048465D01*
X013839Y048478D01*
X013829Y048491D01*
X01382Y048502D01*
X013813Y048514D01*
X013806Y048524D01*
X013802Y048532D01*
Y048533D01*
X013801Y048534D01*
X0138Y048536D01*
X013798Y048539D01*
X013797Y048543D01*
X013795Y048547D01*
X013793Y048552D01*
X013791Y048558D01*
X013788Y04857D01*
X013784Y048583D01*
X013782Y048597D01*
X013781Y048611D01*
Y048612D01*
Y048613D01*
Y048616D01*
X013782Y048622D01*
X013783Y048628D01*
X013785Y048635D01*
X013788Y048643D01*
X013793Y048651D01*
X013798Y048658D01*
X013799Y048659D01*
X013802Y048661D01*
X013805Y048665D01*
X01381Y048668D01*
X013816Y048671D01*
X013824Y048675D01*
X013832Y048677D01*
X013841Y048678D01*
X013845D01*
X013848Y048677D01*
X013852Y048676D01*
X013855Y048675D01*
X013865Y048672D01*
X01387Y04867D01*
X013875Y048667D01*
X01388Y048664D01*
X013885Y04866D01*
X013891Y048655D01*
X013896Y048649D01*
X013901Y048643D01*
X013905Y048636D01*
X013915Y048639D01*
Y04864D01*
X013915Y048641D01*
X013914Y048644D01*
X013913Y048648D01*
X013911Y048652D01*
X013909Y048657D01*
X013904Y048669D01*
X013898Y048681D01*
X013891Y048693D01*
X013881Y048706D01*
X013876Y048711D01*
X013871Y048716D01*
X013871Y048717D01*
X01387Y048717D01*
X013868Y048718D01*
X013866Y04872D01*
X013863Y048722D01*
X01386Y048724D01*
X013852Y048728D01*
X013842Y048733D01*
X01383Y048737D01*
X013817Y04874D01*
X01381Y048741D01*
X013922D01*
D02*
G37*
G36*
X016963Y048734D02*
X016575D01*
Y04836D01*
Y048724D01*
X016577D01*
X016579Y048723D01*
X016583Y048722D01*
X016587Y04872D01*
X016593Y048717D01*
X016599Y048713D01*
X016605Y048709D01*
X016611Y048702D01*
X016612Y048702D01*
X016613Y0487D01*
X016616Y048696D01*
X016617Y048693D01*
X016619Y048689D01*
X016622Y048685D01*
X016624Y048681D01*
X016627Y048676D01*
X01663Y04867D01*
X016633Y048663D01*
X016636Y048656D01*
X01664Y048648D01*
X016644Y048639D01*
X01677Y04836D01*
X016779D01*
X016904Y04865D01*
Y04865D01*
X016905Y048652D01*
X016906Y048655D01*
X016907Y048658D01*
X016909Y048662D01*
X016911Y048667D01*
X016916Y048678D01*
X016921Y048688D01*
X016926Y048698D01*
X016929Y048703D01*
X016931Y048707D01*
X016932Y04871D01*
X016934Y048712D01*
X016935Y048713D01*
X016936Y048714D01*
X016938Y048715D01*
X01694Y048717D01*
X016944Y048719D01*
X016949Y048721D01*
X016956Y048723D01*
X016963Y048724D01*
Y048627D01*
Y048734D01*
D02*
G37*
G36*
X014783Y048741D02*
X014778D01*
X014771Y04874D01*
X014763Y048739D01*
X014754Y048736D01*
X014744Y048733D01*
X014733Y048728D01*
X014723Y048722D01*
X014722D01*
X014722Y048722D01*
X014718Y048719D01*
X014713Y048715D01*
X014706Y048709D01*
X014699Y048701D01*
X014691Y048692D01*
X014684Y048682D01*
X014677Y048669D01*
Y048669D01*
X014676Y048667D01*
X014675Y048666D01*
X014674Y048663D01*
X014673Y048659D01*
X014671Y048656D01*
X01467Y048652D01*
X014669Y048646D01*
X014665Y048635D01*
X014663Y048621D01*
X014661Y048606D01*
X01466Y04859D01*
Y048741D01*
D01*
D01*
Y048509D01*
Y048584D01*
X014661Y04858D01*
Y048575D01*
X014662Y048569D01*
X014662Y048562D01*
X014663Y048555D01*
X014665Y048546D01*
X014667Y048538D01*
X014672Y048519D01*
X014675Y04851D01*
X014679Y0485D01*
X014683Y04849D01*
X014688Y04848D01*
X014688Y048479D01*
X014689Y048478D01*
X014691Y048475D01*
X014693Y048471D01*
X014696Y048467D01*
X0147Y048462D01*
X014704Y048456D01*
X014709Y04845D01*
X014714Y048443D01*
X01472Y048436D01*
X014727Y048429D01*
X014734Y048422D01*
X014742Y048415D01*
X014751Y048409D01*
X01476Y048402D01*
X01477Y048396D01*
X014771Y048395D01*
X014772Y048394D01*
X014776Y048393D01*
X01478Y048391D01*
X014785Y048388D01*
X014791Y048385D01*
X014798Y048383D01*
X014806Y048379D01*
X014815Y048376D01*
X014826Y048374D01*
X014836Y04837D01*
X014847Y048368D01*
X014859Y048366D01*
X014872Y048363D01*
X014885Y048362D01*
X014898Y048361D01*
X01466D01*
X014898D01*
Y048506D01*
Y048369D01*
X014898D01*
X014896Y048369D01*
X014894Y04837D01*
X014891Y04837D01*
X014887Y048371D01*
X014883Y048373D01*
X014872Y048376D01*
X014861Y04838D01*
X014848Y048385D01*
X014835Y048392D01*
X014823Y048398D01*
X014822D01*
X014822Y0484D01*
X01482Y048401D01*
X014818Y048402D01*
X014812Y048406D01*
X014805Y048412D01*
X014797Y048419D01*
X014789Y048428D01*
X014781Y048437D01*
X014774Y048448D01*
Y048448D01*
X014773Y048449D01*
X014772Y04845D01*
X014771Y048453D01*
X014769Y048456D01*
X014767Y048459D01*
X014763Y048467D01*
X014759Y048477D01*
X014755Y048489D01*
X014752Y048501D01*
X014748Y048515D01*
X014749Y048515D01*
X014751Y048514D01*
X014754Y048513D01*
X014758Y048511D01*
X014767Y048507D01*
X014776Y048504D01*
X014777D01*
X014779Y048503D01*
X014781Y048502D01*
X014784D01*
X014788Y048502D01*
X014792Y048501D01*
X014801Y048501D01*
X014805D01*
X014808Y048501D01*
X014811Y048502D01*
X014816Y048502D01*
X014826Y048505D01*
X014836Y048508D01*
X014848Y048513D01*
X014854Y048517D01*
X014859Y04852D01*
X014865Y048525D01*
X01487Y04853D01*
X014871Y048531D01*
X014871Y048531D01*
X014872Y048533D01*
X014875Y048536D01*
X014876Y048539D01*
X014879Y048543D01*
X014882Y048546D01*
X014884Y048552D01*
X014887Y048557D01*
X014889Y048563D01*
X014892Y04857D01*
X014893Y048578D01*
X014897Y048593D01*
X014897Y048602D01*
X014898Y048612D01*
Y048613D01*
Y048614D01*
Y048615D01*
Y048618D01*
X014897Y048621D01*
Y048625D01*
X014896Y048633D01*
X014895Y048644D01*
X014892Y048655D01*
X014888Y048666D01*
X014883Y048678D01*
Y048678D01*
X014883Y048679D01*
X014882Y04868D01*
X01488Y048683D01*
X014877Y048688D01*
X014872Y048695D01*
X014866Y048702D01*
X014859Y04871D01*
X01485Y048717D01*
X014841Y048724D01*
X01484D01*
X01484Y048724D01*
X014838Y048726D01*
X014836Y048727D01*
X014831Y04873D01*
X014823Y048732D01*
X014815Y048736D01*
X014805Y048738D01*
X014794Y04874D01*
X014783Y048741D01*
D02*
G37*
G36*
X017949Y048734D02*
X017642D01*
Y048629D01*
X017653D01*
Y04863D01*
Y048631D01*
X017653Y048632D01*
Y048635D01*
X017655Y048641D01*
X017657Y048649D01*
X01766Y048658D01*
X017663Y048667D01*
X017667Y048676D01*
X017673Y048683D01*
X017673Y048684D01*
X017675Y048686D01*
X017679Y048689D01*
X017684Y048693D01*
X01769Y048697D01*
X017698Y048701D01*
X017707Y048705D01*
X017717Y048708D01*
X017718D01*
X017721Y048709D01*
X017725Y04871D01*
X017731Y04871D01*
X017739Y048711D01*
X017743D01*
X017749Y048712D01*
X017755D01*
X017761Y048713D01*
X01781D01*
Y048562D01*
X017796D01*
X017791Y048563D01*
X017786Y048563D01*
X01778Y048564D01*
X017773Y048565D01*
X017767Y048567D01*
X017761Y048569D01*
X01776Y04857D01*
X017758Y048571D01*
X017755Y048572D01*
X017752Y048575D01*
X017748Y048578D01*
X017743Y048583D01*
X017739Y048588D01*
X017735Y048593D01*
X017734Y048594D01*
X017733Y048597D01*
X017731Y048601D01*
X017729Y048606D01*
X017727Y048613D01*
X017724Y048621D01*
X017722Y04863D01*
X017721Y048641D01*
X017711D01*
Y048458D01*
X017721D01*
Y048458D01*
Y04846D01*
X017721Y048463D01*
X017722Y048466D01*
X017723Y04847D01*
X017723Y048475D01*
X017726Y048485D01*
X01773Y048497D01*
X017735Y048508D01*
X017738Y048513D01*
X017741Y048518D01*
X017745Y048522D01*
X017749Y048526D01*
X01775Y048526D01*
X017753Y048528D01*
X017757Y048531D01*
X017764Y048534D01*
X017771Y048537D01*
X01778Y04854D01*
X01779Y048542D01*
X0178Y048543D01*
X01781D01*
Y048431D01*
Y04843D01*
Y04843D01*
Y048426D01*
Y048422D01*
X01781Y048415D01*
Y04841D01*
X017809Y048404D01*
X017809Y048398D01*
X017808Y048395D01*
Y048394D01*
X017807Y048394D01*
X017805Y048391D01*
X017801Y048387D01*
X017799Y048385D01*
X017796Y048383D01*
X017795D01*
X017794Y048383D01*
X017792Y048382D01*
X01779Y048381D01*
X017786Y04838D01*
X017782Y048379D01*
X017777Y048378D01*
X017759D01*
Y048369D01*
X017949D01*
Y048378D01*
X017935D01*
X017932Y048379D01*
X017929D01*
X01792Y04838D01*
X017916Y048382D01*
X017912Y048384D01*
X017912D01*
X017911Y048384D01*
X017908Y048387D01*
X017904Y048391D01*
X017901Y048396D01*
Y048397D01*
X017901Y048398D01*
X0179Y0484D01*
X0179Y048403D01*
X017899Y048407D01*
X017899Y048414D01*
X017898Y048421D01*
Y048431D01*
Y048671D01*
Y048672D01*
Y048672D01*
Y048676D01*
Y04868D01*
X017899Y048686D01*
Y048692D01*
X017899Y048697D01*
X0179Y048702D01*
X017901Y048706D01*
Y048706D01*
X017902Y048707D01*
X017904Y04871D01*
X017908Y048714D01*
X01791Y048717D01*
X017913Y048718D01*
X017914D01*
X017915Y048719D01*
X017917Y04872D01*
X01792Y048721D01*
X017923Y048722D01*
X017927Y048723D01*
X017932Y048724D01*
X017949D01*
Y048583D01*
Y048734D01*
D02*
G37*
G36*
X019983D02*
X019677D01*
X019817D01*
X019812Y048733D01*
X019805D01*
X019798Y048732D01*
X01979Y048731D01*
X019781Y04873D01*
X019763Y048727D01*
X019744Y048722D01*
X019735Y048718D01*
X019726Y048715D01*
X019718Y04871D01*
X019712Y048705D01*
X019711Y048705D01*
X01971Y048704D01*
X019708Y048702D01*
X019706Y0487D01*
X019704Y048697D01*
X019701Y048695D01*
X019694Y048686D01*
X019688Y048676D01*
X019682Y048664D01*
X019681Y048657D01*
X019679Y04865D01*
X019678Y048643D01*
X019677Y048635D01*
Y048369D01*
Y048632D01*
X019678Y04863D01*
X019678Y048623D01*
X01968Y048614D01*
X019683Y048605D01*
X019687Y048595D01*
X019692Y048585D01*
X0197Y048575D01*
X019701Y048574D01*
X019704Y048571D01*
X019709Y048566D01*
X019716Y048561D01*
X019724Y048555D01*
X019735Y048549D01*
X019747Y048544D01*
X01976Y04854D01*
X019761D01*
X019763Y04854D01*
X019765Y048539D01*
X019768Y048539D01*
X019772D01*
X019776Y048538D01*
X019781Y048537D01*
X019787Y048537D01*
X019793Y048536D01*
X0198Y048536D01*
X019808Y048535D01*
X019817Y048535D01*
X019827D01*
X019837Y048534D01*
X019848D01*
Y048432D01*
Y048432D01*
Y048431D01*
Y048428D01*
Y048423D01*
X019848Y048417D01*
Y04841D01*
X019847Y048404D01*
X019846Y048398D01*
X019845Y048394D01*
Y048394D01*
X019844Y048393D01*
X019842Y048391D01*
X019838Y048387D01*
X019832Y048383D01*
X019831D01*
X01983Y048382D01*
X019828Y048382D01*
X019824Y04838D01*
X01982Y04838D01*
X019813Y048379D01*
X019806Y048378D01*
X019798D01*
Y048369D01*
X019983D01*
Y048379D01*
Y048378D01*
X019975D01*
X019969Y048379D01*
X019958Y04838D01*
X019953Y048381D01*
X019949Y048383D01*
X019948D01*
X019947Y048383D01*
X019944Y048386D01*
X01994Y048389D01*
X019937Y048394D01*
Y048395D01*
X019936Y048396D01*
X019935Y048398D01*
X019934Y048402D01*
X019934Y048407D01*
X019933Y048414D01*
X019933Y048422D01*
Y048432D01*
Y04867D01*
Y04867D01*
Y048671D01*
Y048674D01*
Y048679D01*
X019933Y048685D01*
X019934Y048692D01*
X019934Y048697D01*
X019935Y048703D01*
X019937Y048706D01*
Y048707D01*
X019937Y048708D01*
X019939Y048711D01*
X019943Y048715D01*
X019946Y048717D01*
X01995Y048719D01*
X01995D01*
X019951Y048719D01*
X019954Y04872D01*
X019957Y048722D01*
X019962Y048722D01*
X019968Y048723D01*
X019975Y048724D01*
X019983D01*
Y048562D01*
Y048734D01*
D02*
G37*
G36*
X015054Y048741D02*
X01505D01*
X015048Y04874D01*
X015043Y04874D01*
X015035Y048738D01*
X015026Y048736D01*
X015015Y048732D01*
X015005Y048726D01*
X014995Y048719D01*
X014994D01*
X014993Y048718D01*
X01499Y048715D01*
X014985Y04871D01*
X014979Y048704D01*
X014972Y048695D01*
X014966Y048685D01*
X014959Y048674D01*
X014954Y048661D01*
Y04866D01*
X014953Y048658D01*
X014952Y048656D01*
X014951Y048652D01*
X01495Y048647D01*
X014948Y048641D01*
X014946Y048635D01*
X014945Y048628D01*
X014943Y048621D01*
X014941Y048612D01*
X01494Y048603D01*
X014939Y048593D01*
X014936Y048573D01*
X014936Y048551D01*
Y048741D01*
D01*
Y048542D01*
X014936Y048537D01*
Y048531D01*
X014937Y048525D01*
X014937Y048518D01*
X01494Y048502D01*
X014943Y048485D01*
X014946Y048467D01*
X014952Y048449D01*
Y048448D01*
X014952Y048448D01*
X014953Y048444D01*
X014956Y048439D01*
X014958Y048432D01*
X014962Y048424D01*
X014966Y048417D01*
X014971Y048409D01*
X014976Y048401D01*
X014977Y048401D01*
X014979Y048398D01*
X014982Y048395D01*
X014987Y048391D01*
X014992Y048386D01*
X014998Y048381D01*
X015004Y048376D01*
X015011Y048372D01*
X015013Y048371D01*
X015015Y04837D01*
X015019Y048369D01*
X015024Y048367D01*
X01503Y048365D01*
X015037Y048363D01*
X015045Y048362D01*
X015054Y048361D01*
X014936D01*
X015171D01*
Y048522D01*
Y048361D01*
X015058D01*
X015063Y048362D01*
X01507Y048363D01*
X015077Y048365D01*
X015085Y048367D01*
X015093Y04837D01*
X015102Y048374D01*
X015103Y048375D01*
X015105Y048376D01*
X015109Y04838D01*
X015114Y048384D01*
X01512Y048389D01*
X015126Y048396D01*
X015133Y048404D01*
X015139Y048413D01*
X01514Y048414D01*
X015141Y048416D01*
X015143Y04842D01*
X015146Y048426D01*
X015149Y048433D01*
X015153Y048441D01*
X015157Y048451D01*
X01516Y048462D01*
Y048462D01*
X015161Y048463D01*
X015161Y048466D01*
X015162Y048469D01*
X015163Y048472D01*
X015163Y048477D01*
X015165Y048482D01*
X015166Y048488D01*
X015168Y0485D01*
X01517Y048515D01*
X015171Y04853D01*
X015171Y048546D01*
Y048522D01*
Y048546D01*
Y048557D01*
X015171Y048562D01*
X01517Y048568D01*
Y048575D01*
X015169Y048583D01*
X015169Y048591D01*
X015167Y048599D01*
X015165Y048618D01*
X015161Y048636D01*
X015155Y048656D01*
Y048656D01*
X015154Y048657D01*
X015153Y048659D01*
X015152Y048662D01*
X015151Y048666D01*
X015149Y04867D01*
X015145Y048679D01*
X015139Y048689D01*
X015132Y0487D01*
X015123Y04871D01*
X015114Y048719D01*
X015113D01*
X015113Y04872D01*
X015111Y048721D01*
X015109Y048722D01*
X015103Y048726D01*
X015096Y04873D01*
X015087Y048734D01*
X015076Y048737D01*
X015066Y04874D01*
X015054Y048741D01*
D02*
G37*
G36*
X014074D02*
X01407D01*
X014068Y04874D01*
X014062Y04874D01*
X014054Y048738D01*
X014045Y048736D01*
X014035Y048732D01*
X014025Y048726D01*
X014014Y048719D01*
X014014D01*
X014013Y048718D01*
X01401Y048715D01*
X014005Y04871D01*
X013999Y048704D01*
X013992Y048695D01*
X013985Y048685D01*
X013979Y048674D01*
X013974Y048661D01*
Y04866D01*
X013973Y048658D01*
X013972Y048656D01*
X013971Y048652D01*
X01397Y048647D01*
X013968Y048641D01*
X013966Y048635D01*
X013965Y048628D01*
X013963Y048621D01*
X013961Y048612D01*
X013959Y048603D01*
X013958Y048593D01*
X013956Y048573D01*
X013955Y048551D01*
Y048741D01*
D01*
Y048542D01*
X013956Y048537D01*
Y048531D01*
X013957Y048525D01*
X013957Y048518D01*
X013959Y048502D01*
X013962Y048485D01*
X013966Y048467D01*
X013971Y048449D01*
Y048448D01*
X013972Y048448D01*
X013973Y048444D01*
X013975Y048439D01*
X013978Y048432D01*
X013981Y048424D01*
X013985Y048417D01*
X013991Y048409D01*
X013996Y048401D01*
X013997Y048401D01*
X013999Y048398D01*
X014002Y048395D01*
X014006Y048391D01*
X014011Y048386D01*
X014018Y048381D01*
X014024Y048376D01*
X014031Y048372D01*
X014032Y048371D01*
X014035Y04837D01*
X014039Y048369D01*
X014044Y048367D01*
X01405Y048365D01*
X014057Y048363D01*
X014065Y048362D01*
X014074Y048361D01*
X013955D01*
X014191D01*
Y048517D01*
Y048361D01*
X014078D01*
X014083Y048362D01*
X014089Y048363D01*
X014097Y048365D01*
X014105Y048367D01*
X014113Y04837D01*
X014122Y048374D01*
X014123Y048375D01*
X014125Y048376D01*
X014129Y04838D01*
X014134Y048384D01*
X01414Y048389D01*
X014146Y048396D01*
X014153Y048404D01*
X014159Y048413D01*
X014159Y048414D01*
X014161Y048416D01*
X014163Y04842D01*
X014166Y048426D01*
X014169Y048433D01*
X014172Y048441D01*
X014176Y048451D01*
X01418Y048462D01*
Y048462D01*
X01418Y048463D01*
X014181Y048466D01*
X014181Y048469D01*
X014183Y048472D01*
X014183Y048477D01*
X014184Y048482D01*
X014185Y048488D01*
X014188Y0485D01*
X014189Y048515D01*
X014191Y04853D01*
X014191Y048546D01*
Y048517D01*
Y048546D01*
Y048557D01*
X014191Y048562D01*
X01419Y048568D01*
Y048575D01*
X014189Y048583D01*
X014188Y048591D01*
X014187Y048599D01*
X014184Y048618D01*
X01418Y048636D01*
X014175Y048656D01*
Y048656D01*
X014174Y048657D01*
X014173Y048659D01*
X014172Y048662D01*
X014171Y048666D01*
X014169Y04867D01*
X014165Y048679D01*
X014159Y048689D01*
X014152Y0487D01*
X014143Y04871D01*
X014133Y048719D01*
X014133D01*
X014132Y04872D01*
X014131Y048721D01*
X014128Y048722D01*
X014123Y048726D01*
X014115Y04873D01*
X014106Y048734D01*
X014096Y048737D01*
X014085Y04874D01*
X014074Y048741D01*
D02*
G37*
G36*
X018236Y048627D02*
X018147D01*
X018188D01*
X018185Y048627D01*
X018181Y048626D01*
X018175Y048624D01*
X01817Y048622D01*
X018165Y048618D01*
X01816Y048614D01*
X01816Y048613D01*
X018158Y048611D01*
X018156Y048609D01*
X018153Y048605D01*
X018151Y0486D01*
X018149Y048595D01*
X018147Y048589D01*
X018147Y048583D01*
Y04858D01*
X018147Y048576D01*
X018148Y048572D01*
X01815Y048567D01*
X018152Y048561D01*
X018156Y048556D01*
X01816Y048551D01*
X018161Y04855D01*
X018162Y048549D01*
X018165Y048547D01*
X018169Y048545D01*
X018174Y048542D01*
X018179Y04854D01*
X018184Y048539D01*
X018191Y048538D01*
X018194D01*
X018198Y048539D01*
X018202Y04854D01*
X018207Y048541D01*
X018213Y048544D01*
X018218Y048546D01*
X018223Y048551D01*
X018223Y048552D01*
X018225Y048553D01*
X018227Y048556D01*
X018229Y04856D01*
X018232Y048565D01*
X018234Y04857D01*
X018235Y048576D01*
X018236Y048583D01*
Y048583D01*
Y048585D01*
X018235Y048589D01*
X018234Y048593D01*
X018233Y048598D01*
X01823Y048604D01*
X018227Y048609D01*
X018223Y048614D01*
X018222Y048614D01*
X018221Y048616D01*
X018218Y048618D01*
X018214Y048621D01*
X018209Y048623D01*
X018204Y048625D01*
X018198Y048627D01*
X018191Y048627D01*
X018236D01*
D02*
G37*
G36*
X013473Y048741D02*
X01344D01*
Y048506D01*
X013406D01*
Y048741D01*
D01*
Y048369D01*
X013646D01*
X013514D01*
Y04845D01*
X013646D01*
Y048506D01*
X013473Y048741D01*
D02*
G37*
G36*
X018935Y048627D02*
Y048496D01*
X018934Y0485D01*
X018934Y048506D01*
X018933Y048512D01*
X018932Y048519D01*
X01893Y048526D01*
X018926Y048542D01*
X018924Y04855D01*
X018921Y048559D01*
X018917Y048567D01*
X018912Y048575D01*
X018907Y048583D01*
X018901Y04859D01*
X0189Y048591D01*
X018899Y048592D01*
X018898Y048593D01*
X018895Y048596D01*
X018892Y048598D01*
X018888Y048602D01*
X018883Y048605D01*
X018878Y048609D01*
X018866Y048615D01*
X018853Y048622D01*
X018846Y048624D01*
X018838Y048626D01*
X01883Y048627D01*
X018821Y048627D01*
X018935D01*
X018725D01*
X018817D01*
X018815Y048627D01*
X018812Y048626D01*
X018808Y048626D01*
X018799Y048623D01*
X018788Y048619D01*
X018777Y048614D01*
X018772Y04861D01*
X018766Y048606D01*
X018761Y048601D01*
X018755Y048596D01*
X018755Y048595D01*
X018754Y048594D01*
X018752Y048592D01*
X018751Y04859D01*
X018748Y048587D01*
X018746Y048583D01*
X018743Y048578D01*
X01874Y048572D01*
X018738Y048566D01*
X018735Y048559D01*
X018733Y048552D01*
X01873Y048544D01*
X018728Y048535D01*
X018726Y048525D01*
X018725Y048515D01*
X018725Y048504D01*
X018863D01*
Y048503D01*
Y048501D01*
X018862Y048498D01*
Y048495D01*
X018861Y048491D01*
X01886Y048486D01*
X018859Y048475D01*
X018855Y048462D01*
X01885Y048449D01*
X018844Y048436D01*
X018836Y048424D01*
X018835Y048423D01*
X018833Y04842D01*
X018829Y048417D01*
X018824Y048413D01*
X018817Y048409D01*
X018809Y048405D01*
X018801Y048403D01*
X018791Y048402D01*
X018788D01*
X018786Y048402D01*
X018782Y048403D01*
X018777Y048404D01*
X018773Y048405D01*
X018768Y048407D01*
X018763Y04841D01*
X018762Y048411D01*
X01876Y048412D01*
X018757Y048414D01*
X018754Y048418D01*
X01875Y048422D01*
X018745Y048428D01*
X01874Y048435D01*
X018734Y048443D01*
X018725Y048437D01*
Y048437D01*
X018726Y048436D01*
X018727Y048433D01*
X018728Y048431D01*
X01873Y048427D01*
X018733Y048423D01*
X018738Y048414D01*
X018745Y048405D01*
X018753Y048395D01*
X018761Y048385D01*
X018766Y048382D01*
X01877Y048378D01*
X018772Y048378D01*
X018775Y048375D01*
X01878Y048373D01*
X018787Y04837D01*
X018795Y048367D01*
X018805Y048364D01*
X018816Y048362D01*
X018827Y048361D01*
X01883D01*
X018833Y048362D01*
X018837D01*
X018841Y048362D01*
X018847Y048363D01*
X018853Y048365D01*
X018859Y048367D01*
X018866Y048369D01*
X018873Y048372D01*
X01888Y048375D01*
X018887Y048379D01*
X018894Y048384D01*
X0189Y04839D01*
X018907Y048397D01*
X018912Y048404D01*
Y048405D01*
X018913Y048406D01*
X018914Y048407D01*
X018916Y04841D01*
X018917Y048414D01*
X01892Y048418D01*
X018921Y048422D01*
X018924Y048428D01*
X018926Y048433D01*
X018927Y04844D01*
X018931Y048455D01*
X018934Y048471D01*
X018935Y04849D01*
Y048627D01*
D02*
G37*
G36*
X017615Y048734D02*
X017466D01*
X017363Y048493D01*
X017264Y048734D01*
X017116D01*
Y048724D01*
X01713D01*
X017133Y048723D01*
X017137D01*
X017145Y048721D01*
X017149Y04872D01*
X017153Y048718D01*
X017155Y048717D01*
X017157Y048715D01*
X017161Y048711D01*
X017164Y048705D01*
Y048705D01*
X017165Y048704D01*
X017165Y048702D01*
Y048698D01*
X017166Y048694D01*
X017166Y048688D01*
X017167Y04868D01*
Y048671D01*
Y048431D01*
Y04843D01*
Y04843D01*
Y048426D01*
Y048422D01*
X017166Y048415D01*
Y04841D01*
X017166Y048404D01*
X017165Y048398D01*
X017164Y048395D01*
Y048394D01*
X017164Y048394D01*
X017161Y048391D01*
X017158Y048387D01*
X017155Y048385D01*
X017152Y048383D01*
X017152D01*
X017151Y048383D01*
X017148Y048382D01*
X017145Y048381D01*
X017142Y04838D01*
X017138Y048379D01*
X017133Y048378D01*
X017116D01*
Y048369D01*
X017615Y048369D01*
Y048378D01*
D01*
X017604D01*
X017596Y048379D01*
X017588Y048382D01*
X017588D01*
X017587Y048382D01*
X017584Y048383D01*
X017582Y048385D01*
X017577Y048388D01*
X017573Y048393D01*
Y048393D01*
X017571Y048394D01*
X017571Y048396D01*
X017569Y048398D01*
X017568Y048401D01*
X017566Y048404D01*
X017564Y048413D01*
Y048414D01*
Y048415D01*
X017564Y048418D01*
Y048421D01*
Y048426D01*
Y048432D01*
Y048441D01*
Y048671D01*
Y048672D01*
Y048672D01*
Y048676D01*
Y04868D01*
X017564Y048686D01*
Y048692D01*
X017565Y048697D01*
X017565Y048702D01*
X017566Y048706D01*
Y048706D01*
X017567Y048707D01*
X017569Y04871D01*
X017573Y048714D01*
X017575Y048717D01*
X017579Y048718D01*
X017579D01*
X017581Y048719D01*
X017582Y04872D01*
X017585Y048721D01*
X017588Y048722D01*
X017593Y048723D01*
X017597Y048724D01*
X017615D01*
Y048593D01*
Y048734D01*
D02*
G37*
G36*
X015856Y048451D02*
Y048409D01*
X015856Y048413D01*
X015854Y048417D01*
X015853Y048422D01*
X01585Y048427D01*
X015848Y048432D01*
X015843Y048437D01*
X015843Y048438D01*
X015841Y04844D01*
X015838Y048442D01*
X015834Y048444D01*
X01583Y048446D01*
X015825Y048449D01*
X015818Y04845D01*
X015812Y048451D01*
X015856D01*
X015808D01*
X015805Y04845D01*
X015801Y048449D01*
X015796Y048448D01*
X01579Y048445D01*
X015785Y048442D01*
X01578Y048437D01*
X015779Y048437D01*
X015778Y048435D01*
X015775Y048432D01*
X015773Y048428D01*
X015771Y048424D01*
X015769Y048419D01*
X015767Y048413D01*
X015766Y048406D01*
Y048406D01*
Y048403D01*
X015767Y048399D01*
X015768Y048395D01*
X01577Y04839D01*
X015772Y048384D01*
X015775Y048379D01*
X01578Y048374D01*
X01578Y048374D01*
X015782Y048372D01*
X015785Y04837D01*
X015789Y048368D01*
X015793Y048365D01*
X015799Y048363D01*
X015805Y048362D01*
X015812Y048361D01*
X015814D01*
X015818Y048362D01*
X015822Y048363D01*
X015827Y048365D01*
X015833Y048367D01*
X015838Y04837D01*
X015843Y048374D01*
X015844Y048375D01*
X015845Y048376D01*
X015847Y048379D01*
X015849Y048383D01*
X015852Y048388D01*
X015854Y048393D01*
X015856Y048399D01*
X015856Y048406D01*
Y048361D01*
D01*
Y048451D01*
D02*
G37*
G36*
X018573Y048627D02*
X01848D01*
X018569D01*
X018566Y048627D01*
X018563D01*
X018559Y048626D01*
X01855Y048625D01*
X01854Y048622D01*
X01853Y048619D01*
X01852Y048614D01*
X018511Y048608D01*
X018509Y048606D01*
X018507Y048604D01*
X018503Y0486D01*
X018499Y048595D01*
X018495Y048588D01*
X018491Y04858D01*
X018488Y048572D01*
X018487Y048563D01*
Y048563D01*
Y048561D01*
X018488Y048558D01*
X018488Y048555D01*
X01849Y048551D01*
X018491Y048547D01*
X018494Y048543D01*
X018497Y048539D01*
X018498Y048539D01*
X018499Y048538D01*
X0185Y048536D01*
X018503Y048535D01*
X018507Y048533D01*
X018511Y048532D01*
X018516Y048531D01*
X018521Y04853D01*
X018524D01*
X018527Y048531D01*
X01853Y048531D01*
X018535Y048532D01*
X018539Y048535D01*
X018543Y048537D01*
X018548Y04854D01*
X018548Y048541D01*
X018549Y048543D01*
X018551Y048545D01*
X018553Y048549D01*
X018555Y048554D01*
X018557Y048561D01*
X018559Y048569D01*
X01856Y048578D01*
Y048579D01*
X018561Y048581D01*
Y048584D01*
X018562Y048588D01*
X018564Y048595D01*
X018566Y048599D01*
X018568Y048602D01*
Y048602D01*
X018569Y048603D01*
X018572Y048605D01*
X018577Y048608D01*
X01858Y048609D01*
X018585D01*
X018587Y048608D01*
X01859Y048607D01*
X018594Y048605D01*
X018598Y048602D01*
X018601Y048599D01*
X018605Y048595D01*
X018605Y048593D01*
X018607Y048591D01*
X018609Y048586D01*
X018612Y048579D01*
X018614Y04857D01*
X018616Y048559D01*
X018618Y048546D01*
X018618Y048531D01*
Y048531D01*
Y04853D01*
Y048528D01*
Y048525D01*
X018618Y048522D01*
Y048518D01*
X018617Y048509D01*
X018616Y048499D01*
X018614Y048488D01*
X018611Y048476D01*
X018608Y048463D01*
Y048463D01*
X018607Y048462D01*
X018607Y048461D01*
X018605Y048458D01*
X018603Y048453D01*
X0186Y048445D01*
X018595Y048437D01*
X01859Y04843D01*
X018583Y048422D01*
X018577Y048415D01*
X018576Y048415D01*
X018574Y048414D01*
X018571Y048412D01*
X018566Y04841D01*
X018561Y048407D01*
X018556Y048406D01*
X018549Y048405D01*
X018542Y048404D01*
X018539D01*
X018537Y048405D01*
X018534D01*
X018526Y048406D01*
X018517Y04841D01*
X018516Y04841D01*
X018514Y048411D01*
X018512Y048413D01*
X018509Y048415D01*
X018505Y048418D01*
X0185Y048422D01*
X018494Y048427D01*
X018488Y048433D01*
X01848Y048427D01*
Y048426D01*
X018481Y048425D01*
X018482Y048423D01*
X018483Y048421D01*
X018487Y048415D01*
X018492Y048408D01*
X018499Y0484D01*
X018507Y048392D01*
X018515Y048384D01*
X018525Y048377D01*
X018525D01*
X018526Y048376D01*
X018529Y048375D01*
X018535Y048372D01*
X018542Y048369D01*
X01855Y048366D01*
X01856Y048363D01*
X01857Y048362D01*
X018581Y048361D01*
X018586D01*
X01859Y048362D01*
X018594Y048362D01*
X018599Y048363D01*
X01861Y048366D01*
X018623Y04837D01*
X01863Y048374D01*
X018636Y048377D01*
X018643Y048382D01*
X018649Y048387D01*
X018656Y048392D01*
X018661Y048399D01*
X018662Y0484D01*
X018662Y048401D01*
X018664Y048403D01*
X018666Y048406D01*
X018668Y048409D01*
X018671Y048414D01*
X018674Y048419D01*
X018676Y048424D01*
X018679Y048431D01*
X018682Y048438D01*
X018687Y048453D01*
X01869Y048471D01*
X018691Y04848D01*
X018691Y04849D01*
Y048495D01*
X018691Y048498D01*
Y048503D01*
X01869Y048508D01*
X018689Y048514D01*
X018688Y04852D01*
X018685Y048534D01*
X01868Y048549D01*
X018673Y048565D01*
X018669Y048572D01*
X018664Y04858D01*
X018664Y04858D01*
X018662Y048582D01*
X018661Y048584D01*
X018658Y048587D01*
X018655Y048591D01*
X018651Y048595D01*
X018646Y048599D01*
X01864Y048604D01*
X018634Y048608D01*
X018627Y048612D01*
X01862Y048617D01*
X018612Y04862D01*
X018603Y048623D01*
X018594Y048625D01*
X018583Y048627D01*
X018573Y048627D01*
D02*
G37*
G36*
X018358Y048713D02*
X018349D01*
Y04862D01*
X018289D01*
Y048593D01*
X018349D01*
Y048438D01*
Y048437D01*
Y048435D01*
Y048431D01*
Y048427D01*
X018348Y048417D01*
X018348Y048413D01*
X018347Y04841D01*
X018347Y048409D01*
X018346Y048406D01*
X018343Y048403D01*
X01834Y0484D01*
X018339Y048399D01*
X018337Y048398D01*
X018334Y048397D01*
X018331Y048396D01*
X01833D01*
X018328Y048397D01*
X018324Y048398D01*
X01832Y0484D01*
X018315Y048403D01*
X018309Y048407D01*
X018303Y048414D01*
X0183Y048418D01*
X018298Y048423D01*
X018289Y048417D01*
Y048416D01*
X01829Y048414D01*
X018291Y048412D01*
X018293Y048409D01*
X018296Y048405D01*
X018299Y0484D01*
X018302Y048396D01*
X018306Y048391D01*
X018311Y048386D01*
X018316Y048382D01*
X018322Y048377D01*
X018329Y048373D01*
X018335Y04837D01*
X018343Y048367D01*
X018351Y048366D01*
X01836Y048365D01*
X018289D01*
X018457D01*
D01*
X018364D01*
X018369Y048366D01*
X018374Y048367D01*
X018381Y048369D01*
X018387Y048371D01*
X018394Y048374D01*
X018401Y048378D01*
X018401Y048379D01*
X018404Y04838D01*
X018407Y048383D01*
X018409Y048387D01*
X018413Y048392D01*
X018417Y048397D01*
X01842Y048402D01*
X018422Y048408D01*
Y048409D01*
X018422Y04841D01*
Y048413D01*
X018423Y048418D01*
X018424Y048424D01*
Y048428D01*
Y048432D01*
X018424Y048438D01*
Y048444D01*
Y04845D01*
Y048457D01*
Y048593D01*
X018457D01*
Y048602D01*
X018456Y048603D01*
X018455Y048604D01*
X018453Y048605D01*
X018451Y048606D01*
X018445Y048611D01*
X018437Y048618D01*
X018428Y048626D01*
X018418Y048634D01*
X018409Y048644D01*
X0184Y048653D01*
X018399Y048654D01*
X018399Y048654D01*
X018396Y048658D01*
X018391Y048663D01*
X018386Y048671D01*
X018379Y048679D01*
X018372Y048689D01*
X018365Y048701D01*
X018358Y048713D01*
D02*
G37*
G36*
X019641Y048627D02*
X019424D01*
X019455D01*
X019452Y048627D01*
X019448Y048626D01*
X019444Y048625D01*
X01944Y048623D01*
X019437Y048621D01*
X019433Y048618D01*
X019433Y048617D01*
X019431Y048616D01*
X01943Y048614D01*
X019429Y048611D01*
X019427Y048608D01*
X019425Y048603D01*
X019425Y048598D01*
X019424Y048592D01*
Y048369D01*
Y048589D01*
X019425Y048585D01*
X019425Y048582D01*
X019426Y048577D01*
X019428Y048572D01*
X01943Y048567D01*
X019433Y048563D01*
X019434Y048563D01*
X019435Y048562D01*
X019437Y048561D01*
X019439Y048559D01*
X019446Y048556D01*
X01945Y048554D01*
X019454Y048554D01*
X019456D01*
X019459Y048554D01*
X019463Y048555D01*
X019466Y048556D01*
X01947Y048558D01*
X019475Y04856D01*
X019479Y048563D01*
X019479Y048563D01*
X019481Y048565D01*
X019484Y048567D01*
X019489Y048571D01*
X01949Y048572D01*
X019491Y048573D01*
X019492Y048574D01*
X019493Y048574D01*
X019495Y048575D01*
X019498D01*
X019502Y048574D01*
X019507Y048572D01*
X019509Y048571D01*
X019512Y048569D01*
X019513Y048568D01*
X019514Y048567D01*
X019516Y048565D01*
X019518Y048562D01*
X019521Y048558D01*
X019524Y048554D01*
X019526Y048549D01*
X019529Y048543D01*
X019529Y048541D01*
X01953Y048538D01*
X019531Y048533D01*
X019533Y048526D01*
X019534Y048517D01*
X019536Y048507D01*
X019537Y048496D01*
X019537Y048485D01*
Y048427D01*
Y048413D01*
Y048412D01*
Y04841D01*
Y048407D01*
Y048404D01*
X019537Y048397D01*
X019536Y048395D01*
X019535Y048393D01*
Y048392D01*
X019535Y048392D01*
X019533Y048389D01*
X01953Y048385D01*
X019526Y048382D01*
X019525D01*
X019525Y048382D01*
X019523Y048381D01*
X019521Y04838D01*
X019518Y04838D01*
X019514Y048379D01*
X019509Y048379D01*
X019504Y048378D01*
Y048369D01*
X019641D01*
Y048378D01*
X01964D01*
X019638Y048379D01*
X019635D01*
X019631Y04838D01*
X019624Y048382D01*
X019621Y048384D01*
X019618Y048387D01*
X019618Y048387D01*
X019617Y048388D01*
X019616Y048391D01*
X019615Y048394D01*
X019614Y0484D01*
X019613Y048407D01*
X019612Y048417D01*
Y048422D01*
Y048428D01*
Y048567D01*
Y048568D01*
Y04857D01*
Y048574D01*
Y048578D01*
X019613Y048583D01*
X019613Y048587D01*
X019614Y048591D01*
X019615Y048594D01*
Y048595D01*
X019615Y048595D01*
X019617Y048598D01*
X019619Y048602D01*
X019622Y048605D01*
X019624Y048606D01*
X019625Y048606D01*
X019626Y048607D01*
X019629Y048608D01*
X019632Y048609D01*
X019636Y04861D01*
X019641Y04861D01*
Y04862D01*
X019537D01*
Y048563D01*
X019537Y048563D01*
X019536Y048565D01*
X019535Y048567D01*
X019533Y048569D01*
X019528Y048576D01*
X019522Y048584D01*
X019516Y048593D01*
X019508Y048601D01*
X019501Y048609D01*
X019497Y048611D01*
X019494Y048614D01*
X019492Y048615D01*
X01949Y048617D01*
X019487Y048618D01*
X019482Y048621D01*
X019476Y048623D01*
X01947Y048625D01*
X019464Y048627D01*
X019457Y048627D01*
X019641D01*
D02*
G37*
G36*
X015494Y048741D02*
D01*
Y048369D01*
Y048741D01*
D01*
D02*
G37*
G36*
X014238D02*
D01*
Y048369D01*
Y048741D01*
D01*
D02*
G37*
G36*
X013687D02*
D01*
Y048369D01*
Y048741D01*
D01*
D02*
G37*
G36*
X018192Y048451D02*
X018188D01*
X018185Y04845D01*
X018181Y048449D01*
X018176Y048448D01*
X01817Y048445D01*
X018165Y048442D01*
X01816Y048437D01*
X01816Y048437D01*
X018158Y048435D01*
X018156Y048432D01*
X018153Y048428D01*
X018151Y048424D01*
X018149Y048419D01*
X018147Y048413D01*
X018147Y048406D01*
Y048403D01*
X018147Y048399D01*
X018148Y048395D01*
X01815Y04839D01*
X018152Y048384D01*
X018156Y048379D01*
X01816Y048374D01*
X018161Y048374D01*
X018162Y048372D01*
X018165Y04837D01*
X018169Y048368D01*
X018174Y048365D01*
X018179Y048363D01*
X018185Y048362D01*
X018192Y048361D01*
X018195D01*
X018199Y048362D01*
X018203Y048363D01*
X018208Y048365D01*
X018213Y048367D01*
X018218Y04837D01*
X018223Y048374D01*
X018224Y048375D01*
X018226Y048376D01*
X018227Y048379D01*
X01823Y048383D01*
X018233Y048388D01*
X018234Y048393D01*
X018236Y048399D01*
X018236Y048406D01*
Y048367D01*
Y04841D01*
Y048409D01*
X018236Y048413D01*
X018235Y048417D01*
X018233Y048422D01*
X018231Y048427D01*
X018228Y048432D01*
X018223Y048437D01*
X018223Y048438D01*
X018221Y04844D01*
X018218Y048442D01*
X018214Y048444D01*
X01821Y048446D01*
X018205Y048449D01*
X018199Y04845D01*
X018192Y048451D01*
D02*
G37*
G36*
X019279Y048627D02*
X019273D01*
X019267Y048626D01*
X019259Y048625D01*
X01925Y048623D01*
X019239Y04862D01*
X019229Y048616D01*
X019218Y04861D01*
X019217D01*
X019217Y04861D01*
X019213Y048607D01*
X019208Y048604D01*
X019202Y048598D01*
X019195Y048591D01*
X019188Y048583D01*
X019181Y048573D01*
X019175Y048562D01*
Y048561D01*
X019174Y048561D01*
X019174Y048559D01*
X019173Y048556D01*
X019172Y048553D01*
X01917Y04855D01*
X019168Y048541D01*
X019165Y048532D01*
X019163Y04852D01*
X019161Y048507D01*
X01916Y048494D01*
Y048489D01*
X019161Y048485D01*
Y04848D01*
X019161Y048475D01*
X019163Y048469D01*
X019164Y048463D01*
X019167Y048449D01*
X019172Y048433D01*
X019178Y048419D01*
X019183Y048411D01*
X019187Y048405D01*
X019188Y048404D01*
X019189Y048403D01*
X019191Y048401D01*
X019194Y048398D01*
X019197Y048394D01*
X019201Y048391D01*
X019205Y048387D01*
X019211Y048383D01*
X019217Y048379D01*
X019224Y048375D01*
X019231Y048371D01*
X019239Y048368D01*
X019248Y048365D01*
X019257Y048363D01*
X019267Y048362D01*
X019278Y048361D01*
X01916D01*
X019395D01*
Y048498D01*
X019395Y048502D01*
X019394Y048506D01*
X019394Y048512D01*
X019392Y048518D01*
X019391Y048524D01*
X019388Y048539D01*
X019382Y048555D01*
X019378Y048563D01*
X019374Y048571D01*
X01937Y048579D01*
X019364Y048587D01*
X019364Y048587D01*
X019363Y048588D01*
X019361Y048591D01*
X019359Y048593D01*
X019355Y048596D01*
X019352Y0486D01*
X019347Y048603D01*
X019342Y048607D01*
X019336Y048611D01*
X01933Y048614D01*
X019323Y048618D01*
X019315Y048621D01*
X019307Y048623D01*
X019298Y048626D01*
X019289Y048627D01*
X019279Y048627D01*
D02*
G37*
G36*
X018581Y048361D02*
D01*
X01848D01*
X018581D01*
D02*
G37*
G36*
X01655Y048741D02*
X016429D01*
X016427Y04874D01*
X016421Y04874D01*
X016413Y048738D01*
X016404Y048736D01*
X016394Y048732D01*
X016384Y048726D01*
X016373Y048719D01*
X016373D01*
X016372Y048718D01*
X016369Y048715D01*
X016364Y04871D01*
X016358Y048704D01*
X016351Y048695D01*
X016344Y048685D01*
X016338Y048674D01*
X016332Y048661D01*
Y04866D01*
X016332Y048658D01*
X016331Y048656D01*
X01633Y048652D01*
X016328Y048647D01*
X016327Y048641D01*
X016325Y048635D01*
X016323Y048628D01*
X016322Y048621D01*
X01632Y048612D01*
X016318Y048603D01*
X016317Y048593D01*
X016315Y048573D01*
X016314Y048551D01*
Y048542D01*
X016315Y048537D01*
Y048531D01*
X016315Y048525D01*
X016316Y048518D01*
X016318Y048502D01*
X016321Y048485D01*
X016325Y048467D01*
X01633Y048449D01*
Y048448D01*
X016331Y048448D01*
X016332Y048444D01*
X016334Y048439D01*
X016336Y048432D01*
X01634Y048424D01*
X016344Y048417D01*
X016349Y048409D01*
X016355Y048401D01*
X016356Y048401D01*
X016358Y048398D01*
X016361Y048395D01*
X016365Y048391D01*
X01637Y048386D01*
X016377Y048381D01*
X016383Y048376D01*
X01639Y048372D01*
X016391Y048371D01*
X016393Y04837D01*
X016397Y048369D01*
X016402Y048367D01*
X016409Y048365D01*
X016416Y048363D01*
X016424Y048362D01*
X016432Y048361D01*
X01655D01*
X016437D01*
X016442Y048362D01*
X016448Y048363D01*
X016456Y048365D01*
X016464Y048367D01*
X016472Y04837D01*
X01648Y048374D01*
X016482Y048375D01*
X016484Y048376D01*
X016488Y04838D01*
X016493Y048384D01*
X016499Y048389D01*
X016505Y048396D01*
X016512Y048404D01*
X016518Y048413D01*
X016518Y048414D01*
X016519Y048416D01*
X016522Y04842D01*
X016525Y048426D01*
X016528Y048433D01*
X016531Y048441D01*
X016535Y048451D01*
X016539Y048462D01*
Y048462D01*
X016539Y048463D01*
X01654Y048466D01*
X01654Y048469D01*
X016541Y048472D01*
X016542Y048477D01*
X016543Y048482D01*
X016544Y048488D01*
X016547Y0485D01*
X016548Y048515D01*
X016549Y04853D01*
X01655Y048546D01*
Y048557D01*
X016549Y048562D01*
X016549Y048568D01*
Y048575D01*
X016548Y048583D01*
X016547Y048591D01*
X016546Y048599D01*
X016543Y048618D01*
X016539Y048636D01*
X016534Y048656D01*
Y048656D01*
X016533Y048657D01*
X016532Y048659D01*
X016531Y048662D01*
X01653Y048666D01*
X016528Y04867D01*
X016523Y048679D01*
X016518Y048689D01*
X01651Y0487D01*
X016502Y04871D01*
X016492Y048719D01*
X016492D01*
X016491Y04872D01*
X016489Y048721D01*
X016487Y048722D01*
X016482Y048726D01*
X016474Y04873D01*
X016465Y048734D01*
X016455Y048737D01*
X016444Y04874D01*
X016432Y048741D01*
X01655D01*
D02*
G37*
G36*
X01627Y048451D02*
X016222D01*
X016218Y04845D01*
X016214Y048449D01*
X016209Y048448D01*
X016204Y048445D01*
X016199Y048442D01*
X016193Y048437D01*
X016193Y048437D01*
X016191Y048435D01*
X016189Y048432D01*
X016187Y048428D01*
X016184Y048424D01*
X016182Y048419D01*
X01618Y048413D01*
X01618Y048406D01*
Y048403D01*
X01618Y048399D01*
X016182Y048395D01*
X016183Y04839D01*
X016186Y048384D01*
X016189Y048379D01*
X016193Y048374D01*
X016194Y048374D01*
X016196Y048372D01*
X016199Y04837D01*
X016202Y048368D01*
X016207Y048365D01*
X016212Y048363D01*
X016218Y048362D01*
X016225Y048361D01*
X016228D01*
X016232Y048362D01*
X016236Y048363D01*
X016241Y048365D01*
X016247Y048367D01*
X016252Y04837D01*
X016257Y048374D01*
X016257Y048375D01*
X016259Y048376D01*
X016261Y048379D01*
X016263Y048383D01*
X016266Y048388D01*
X016267Y048393D01*
X016269Y048399D01*
X01627Y048406D01*
Y048409D01*
X016269Y048413D01*
X016268Y048417D01*
X016266Y048422D01*
X016264Y048427D01*
X016261Y048432D01*
X016257Y048437D01*
X016256Y048438D01*
X016254Y04844D01*
X016252Y048442D01*
X016248Y048444D01*
X016243Y048446D01*
X016238Y048449D01*
X016232Y04845D01*
X016225Y048451D01*
X01627D01*
D02*
G37*
G36*
X014519Y048742D02*
X014485D01*
X014605Y04836D01*
X014639D01*
X014519Y048742D01*
D02*
G37*
G36*
X019112Y04862D02*
X019007D01*
Y048359D01*
Y048359D01*
Y048358D01*
Y048356D01*
Y048354D01*
Y048347D01*
X019007Y048339D01*
X019008Y048331D01*
X019009Y048322D01*
X01901Y048313D01*
X019012Y048306D01*
X019012Y048305D01*
X019013Y048302D01*
X019015Y048297D01*
X019017Y048291D01*
X019021Y048285D01*
X019026Y048278D01*
X019032Y048271D01*
X019039Y048265D01*
X01904Y048265D01*
X019042Y048263D01*
X019047Y04826D01*
X019053Y048257D01*
X01906Y048254D01*
X019069Y048252D01*
X019079Y04825D01*
X019091Y048249D01*
X019097D01*
X019103Y04825D01*
X01911Y048251D01*
X019118Y048253D01*
X019126Y048255D01*
X019134Y048258D01*
X01914Y048263D01*
X01914Y048263D01*
X019142Y048265D01*
X019145Y048268D01*
X019148Y048272D01*
X019151Y048277D01*
X019153Y048283D01*
X019155Y048289D01*
X019156Y048296D01*
Y048298D01*
X019155Y0483D01*
X019155Y048302D01*
X019153Y048306D01*
X019152Y048309D01*
X01915Y048313D01*
X019147Y048316D01*
X019147Y048317D01*
X019146Y048317D01*
X019144Y048319D01*
X019142Y04832D01*
X019136Y048323D01*
X019133Y048324D01*
X019129Y048324D01*
X019125D01*
X019123Y048324D01*
X019117Y048322D01*
X019112Y048319D01*
X019112D01*
X019111Y048318D01*
X01911Y048316D01*
X019109Y048314D01*
X019107Y048309D01*
X019106Y048305D01*
Y048301D01*
Y0483D01*
Y048298D01*
Y048296D01*
X019107Y048293D01*
Y048292D01*
Y04829D01*
X019107Y048287D01*
Y048285D01*
Y048284D01*
Y048283D01*
X019107Y04828D01*
X019105Y048275D01*
X019103Y048271D01*
X019102Y048271D01*
X0191Y048269D01*
X019096Y048267D01*
X019091Y048266D01*
X01909D01*
X019087Y048267D01*
X019084Y048268D01*
X019081Y048272D01*
X01908Y048273D01*
X019078Y048276D01*
X019077Y048281D01*
X019076Y048287D01*
Y048288D01*
Y048288D01*
Y04829D01*
Y048292D01*
X019077Y048295D01*
Y048299D01*
X019077Y048304D01*
X019078Y048309D01*
Y04831D01*
Y04831D01*
X019078Y048314D01*
X019079Y048319D01*
X019079Y048325D01*
X01908Y048331D01*
X019081Y048337D01*
Y048342D01*
X019081Y048345D01*
X019082Y048409D01*
Y048565D01*
Y048578D01*
Y048579D01*
Y048581D01*
X019082Y048584D01*
Y048588D01*
X019085Y048596D01*
X019086Y048599D01*
X019088Y048602D01*
Y048602D01*
X019089Y048603D01*
X019091Y048604D01*
X019093Y048605D01*
X019096Y048607D01*
X0191Y048608D01*
X019105Y048609D01*
X019112Y04861D01*
Y04862D01*
D02*
G37*
%LPD*%
G36*
X01601Y04874D02*
X016007D01*
X016003Y04874D01*
X015995Y048738D01*
X015984Y048735D01*
X015974Y048731D01*
X015963Y048726D01*
X015954Y048718D01*
X015953D01*
X015953Y048717D01*
X01595Y048714D01*
X015946Y048709D01*
X015941Y048702D01*
X015937Y048695D01*
X015933Y048685D01*
X01593Y048675D01*
X015929Y048669D01*
Y048663D01*
Y048662D01*
Y04866D01*
X01593Y048656D01*
X015931Y048651D01*
X015932Y048645D01*
X015934Y048639D01*
X015937Y048631D01*
X015941Y048624D01*
X015941Y048624D01*
X015943Y048621D01*
X015946Y048618D01*
X015949Y048613D01*
X015954Y048608D01*
X015961Y048603D01*
X015969Y048597D01*
X015977Y048592D01*
X015976D01*
X015976Y048591D01*
X015974Y04859D01*
X015972Y048589D01*
X015966Y048585D01*
X015959Y048582D01*
X015952Y048576D01*
X015943Y048569D01*
X015936Y048562D01*
X015929Y048554D01*
X015928Y048553D01*
X015926Y04855D01*
X015923Y048545D01*
X015921Y048539D01*
X015917Y04853D01*
X015915Y04852D01*
X015913Y04851D01*
X015912Y048497D01*
Y048741D01*
X016013D01*
X01601Y04874D01*
D02*
G37*
G36*
X016788Y048724D02*
X016798D01*
X016802Y048723D01*
X016807D01*
X016818Y048721D01*
X016822Y04872D01*
X016826Y048718D01*
X016827Y048717D01*
X016829Y048715D01*
X016831Y048711D01*
X016832Y048709D01*
X016832Y048706D01*
Y048705D01*
Y048702D01*
X016832Y048698D01*
X016831Y048694D01*
Y048693D01*
X01683Y048692D01*
X01683Y048691D01*
X016828Y048687D01*
X016826Y048683D01*
X016823Y048676D01*
X01682Y048669D01*
X016816Y048659D01*
X016738Y048477D01*
X016666Y048639D01*
Y048639D01*
X016666Y04864D01*
X016664Y048643D01*
X016662Y048648D01*
X016659Y048654D01*
X016656Y048661D01*
X016654Y048668D01*
X016652Y048674D01*
X01665Y048678D01*
Y048679D01*
X016649Y04868D01*
X016649Y048682D01*
X016648Y048684D01*
X016648Y048689D01*
X016647Y048695D01*
Y048696D01*
Y048697D01*
X016648Y0487D01*
X016649Y048705D01*
X016652Y04871D01*
Y04871D01*
X016652Y048711D01*
X016654Y048713D01*
X016658Y048716D01*
X016664Y048719D01*
X016665D01*
X016666Y048719D01*
X016669Y04872D01*
X016672Y048722D01*
X016677Y048722D01*
X016682Y048723D01*
X016688Y048724D01*
X016695D01*
Y048734D01*
X016788D01*
Y048724D01*
D02*
G37*
G36*
X014794Y048722D02*
X014797Y048721D01*
X014801Y04872D01*
X014804Y048718D01*
X014807Y048715D01*
X014811Y048711D01*
X014811Y04871D01*
X014813Y048708D01*
X014814Y048704D01*
X014816Y048697D01*
X014818Y048689D01*
X014819Y048684D01*
X014819Y048679D01*
X01482Y048672D01*
X01482Y048666D01*
X014821Y048658D01*
Y04865D01*
Y04865D01*
Y048647D01*
Y048644D01*
X01482Y048639D01*
Y048632D01*
X01482Y048626D01*
X014819Y048618D01*
X014819Y04861D01*
X014817Y048593D01*
X014814Y048576D01*
X014811Y048567D01*
X014809Y04856D01*
X014806Y048553D01*
X014804Y048548D01*
X014803Y048547D01*
X014801Y048545D01*
X014798Y048542D01*
X014795Y048539D01*
X014791Y048535D01*
X014785Y048532D01*
X014779Y04853D01*
X014772Y04853D01*
X01477D01*
X014767Y04853D01*
X014765Y048531D01*
X01476Y048532D01*
X014756Y048533D01*
X01475Y048535D01*
X014744Y048538D01*
Y048539D01*
Y048539D01*
Y048541D01*
X014743Y048543D01*
Y048549D01*
X014743Y048556D01*
X014742Y048564D01*
Y048573D01*
X014741Y048582D01*
Y048591D01*
Y048592D01*
Y048593D01*
Y048596D01*
Y0486D01*
X014742Y048604D01*
Y048609D01*
X014743Y048614D01*
X014743Y048621D01*
X014744Y048635D01*
X014746Y04865D01*
X014749Y048666D01*
X014753Y048682D01*
Y048683D01*
X014754Y048686D01*
X014756Y04869D01*
X014758Y048695D01*
X014761Y048701D01*
X014764Y048706D01*
X014768Y048712D01*
X014772Y048717D01*
Y048717D01*
X014774Y048718D01*
X014777Y04872D01*
X014783Y048722D01*
X014786Y048723D01*
X014792D01*
X014794Y048722D01*
D02*
G37*
G36*
X019848Y048555D02*
X019843D01*
X019839Y048554D01*
X019831D01*
X019829Y048555D01*
X019824Y048556D01*
X019816Y048557D01*
X019808Y048559D01*
X0198Y048562D01*
X019792Y048567D01*
X019785Y048574D01*
X019784Y048575D01*
X019782Y048578D01*
X019779Y048582D01*
X019776Y048589D01*
X019772Y048597D01*
X019769Y048608D01*
X019767Y04862D01*
X019766Y048634D01*
Y048635D01*
Y048636D01*
Y048638D01*
Y048641D01*
X019767Y048644D01*
X019768Y048648D01*
X019769Y048657D01*
X019771Y048666D01*
X019774Y048676D01*
X019778Y048685D01*
X019785Y048693D01*
X019785Y048694D01*
X019788Y048696D01*
X019792Y0487D01*
X019798Y048703D01*
X019805Y048706D01*
X019815Y04871D01*
X019825Y048712D01*
X019838Y048713D01*
X019848D01*
Y048555D01*
D02*
G37*
G36*
X015059Y048722D02*
X015061D01*
X015067Y048719D01*
X01507Y048718D01*
X015073Y048715D01*
X015074Y048715D01*
X015075Y048714D01*
X015076Y048711D01*
X015079Y048708D01*
X015081Y048703D01*
X015083Y048697D01*
X015085Y048691D01*
X015087Y048682D01*
Y048682D01*
Y048681D01*
X015087Y048679D01*
Y048676D01*
Y048672D01*
X015088Y048667D01*
Y048661D01*
X015088Y048653D01*
X015089Y048643D01*
Y048631D01*
X015089Y048618D01*
Y048602D01*
Y048593D01*
Y048584D01*
X01509Y048575D01*
Y048565D01*
Y048553D01*
Y048542D01*
Y04853D01*
Y048517D01*
Y048515D01*
Y048513D01*
Y048509D01*
Y048504D01*
Y048498D01*
X015089Y048491D01*
Y048483D01*
Y048475D01*
X015089Y048457D01*
X015088Y04844D01*
X015087Y048432D01*
X015087Y048424D01*
X015086Y048418D01*
X015085Y048413D01*
Y048412D01*
X015084Y04841D01*
X015083Y048406D01*
X015082Y048402D01*
X015079Y048394D01*
X015076Y04839D01*
X015074Y048387D01*
X015073D01*
X015072Y048386D01*
X01507Y048385D01*
X015068Y048384D01*
X015065Y048383D01*
X015062Y048382D01*
X015058Y048382D01*
X015053Y048381D01*
X015051D01*
X015049Y048382D01*
X015045Y048382D01*
X015043Y048383D01*
X015039Y048384D01*
X015036Y048387D01*
X015033Y048389D01*
X015032Y04839D01*
X015031Y048392D01*
X015029Y048396D01*
X015027Y048401D01*
X015025Y048407D01*
X015023Y048415D01*
X015021Y048424D01*
X01502Y048436D01*
X015019Y048552D01*
Y048553D01*
Y048556D01*
Y048561D01*
Y048567D01*
Y048574D01*
Y048583D01*
Y048592D01*
Y048601D01*
Y048621D01*
X015019Y04863D01*
Y048639D01*
Y048646D01*
Y048654D01*
X01502Y048659D01*
Y048663D01*
Y048663D01*
Y048665D01*
X015021Y048666D01*
Y048669D01*
X015021Y048675D01*
X015023Y048683D01*
X015024Y048692D01*
X015027Y0487D01*
X01503Y048708D01*
X015031Y04871D01*
X015033Y048713D01*
X015034Y048714D01*
X015034Y048715D01*
X015036Y048716D01*
X015038Y048718D01*
X015041Y048719D01*
X015045Y048721D01*
X01505Y048722D01*
X015055Y048722D01*
X015057D01*
X015059Y048722D01*
D02*
G37*
G36*
X014079D02*
X014081D01*
X014087Y048719D01*
X01409Y048718D01*
X014093Y048715D01*
X014093Y048715D01*
X014094Y048714D01*
X014096Y048711D01*
X014098Y048708D01*
X014101Y048703D01*
X014103Y048697D01*
X014105Y048691D01*
X014106Y048682D01*
Y048682D01*
Y048681D01*
X014107Y048679D01*
Y048676D01*
Y048672D01*
X014107Y048667D01*
Y048661D01*
X014108Y048653D01*
X014109Y048643D01*
Y048631D01*
X014109Y048618D01*
Y048602D01*
Y048593D01*
Y048584D01*
X01411Y048575D01*
Y048565D01*
Y048553D01*
Y048542D01*
Y04853D01*
Y048517D01*
Y048515D01*
Y048513D01*
Y048509D01*
Y048504D01*
Y048498D01*
X014109Y048491D01*
Y048483D01*
Y048475D01*
X014109Y048457D01*
X014107Y04844D01*
X014107Y048432D01*
X014106Y048424D01*
X014106Y048418D01*
X014105Y048413D01*
Y048412D01*
X014104Y04841D01*
X014103Y048406D01*
X014102Y048402D01*
X014098Y048394D01*
X014096Y04839D01*
X014093Y048387D01*
X014093D01*
X014092Y048386D01*
X01409Y048385D01*
X014088Y048384D01*
X014085Y048383D01*
X014081Y048382D01*
X014078Y048382D01*
X014073Y048381D01*
X014071D01*
X014068Y048382D01*
X014065Y048382D01*
X014062Y048383D01*
X014059Y048384D01*
X014055Y048387D01*
X014053Y048389D01*
X014052Y04839D01*
X014051Y048392D01*
X014049Y048396D01*
X014047Y048401D01*
X014045Y048407D01*
X014042Y048415D01*
X014041Y048424D01*
X01404Y048436D01*
X014039Y048552D01*
Y048553D01*
Y048556D01*
Y048561D01*
Y048567D01*
Y048574D01*
Y048583D01*
Y048592D01*
Y048601D01*
Y048621D01*
X014039Y04863D01*
Y048639D01*
Y048646D01*
Y048654D01*
X01404Y048659D01*
Y048663D01*
Y048663D01*
Y048665D01*
X01404Y048666D01*
Y048669D01*
X014041Y048675D01*
X014042Y048683D01*
X014044Y048692D01*
X014046Y0487D01*
X014049Y048708D01*
X014051Y04871D01*
X014053Y048713D01*
X014053Y048714D01*
X014054Y048715D01*
X014055Y048716D01*
X014058Y048718D01*
X014061Y048719D01*
X014065Y048721D01*
X01407Y048722D01*
X014075Y048722D01*
X014076D01*
X014079Y048722D01*
D02*
G37*
G36*
X01362Y048506D02*
X013514D01*
Y048649D01*
X01362Y048506D01*
D02*
G37*
G36*
X01344Y048369D02*
X013406D01*
Y04845D01*
X01344D01*
Y048369D01*
D02*
G37*
G36*
X01883Y048609D02*
X018833Y048608D01*
X018837Y048606D01*
X018841Y048604D01*
X018845Y0486D01*
X018848Y048596D01*
X018849Y048595D01*
X018851Y048591D01*
X018853Y048586D01*
X018856Y048579D01*
X018859Y048569D01*
X018861Y048558D01*
X018863Y048545D01*
X018864Y04853D01*
Y048521D01*
X018791D01*
Y048522D01*
Y048523D01*
Y048525D01*
Y048528D01*
Y048532D01*
Y048536D01*
X018791Y048545D01*
X018792Y048554D01*
X018793Y048564D01*
X018794Y048573D01*
X018795Y048576D01*
X018796Y04858D01*
Y04858D01*
X018796Y048583D01*
X018798Y048585D01*
X018799Y048589D01*
X018804Y048597D01*
X018807Y048601D01*
X018811Y048605D01*
X018812Y048605D01*
X018814Y048608D01*
X018819Y048609D01*
X018825Y04861D01*
X018827D01*
X01883Y048609D01*
D02*
G37*
G36*
X017543Y048442D02*
Y048441D01*
Y048441D01*
Y048437D01*
Y048433D01*
Y048428D01*
X017543Y048422D01*
Y048417D01*
X017542Y048412D01*
X017542Y048409D01*
Y048408D01*
X017541Y048406D01*
X01754Y048404D01*
X017538Y048401D01*
X017536Y048397D01*
X017534Y048393D01*
X017531Y04839D01*
X017527Y048387D01*
X017526Y048386D01*
X017525Y048385D01*
X017522Y048384D01*
X017518Y048383D01*
X017513Y048381D01*
X017507Y048379D01*
X017499Y048379D01*
X01749Y048378D01*
Y048369D01*
X017401D01*
X017543Y048698D01*
Y048442D01*
D02*
G37*
G36*
X017395Y048369D02*
X017306Y048369D01*
Y048378D01*
X017292D01*
X017289Y048379D01*
X017285D01*
X017277Y04838D01*
X017273Y048382D01*
X017269Y048384D01*
X017268D01*
X017268Y048384D01*
X017265Y048387D01*
X017261Y048391D01*
X017258Y048396D01*
Y048397D01*
X017257Y048398D01*
X017257Y0484D01*
X017256Y048403D01*
X017256Y048407D01*
X017255Y048414D01*
X017255Y048421D01*
Y048431D01*
Y048701D01*
X017395Y048369D01*
D02*
G37*
G36*
X019283Y048608D02*
X019286Y048608D01*
X01929Y048606D01*
X019294Y048604D01*
X019298Y048601D01*
X019302Y048598D01*
X019302Y048597D01*
X019303Y048596D01*
X019305Y048593D01*
X019307Y048589D01*
X019309Y048584D01*
X019311Y048576D01*
X019313Y048568D01*
X019314Y048557D01*
Y048557D01*
Y048556D01*
Y048554D01*
X019315Y048552D01*
Y048549D01*
X019315Y048545D01*
Y04854D01*
Y048535D01*
X019316Y04853D01*
Y048523D01*
X019316Y048516D01*
Y048509D01*
X019317Y048501D01*
Y048492D01*
Y048483D01*
Y048472D01*
Y048472D01*
Y048471D01*
Y04847D01*
Y048467D01*
Y048462D01*
X019316Y048455D01*
Y048446D01*
X019315Y048437D01*
X019313Y048419D01*
Y048418D01*
X019313Y048415D01*
X019312Y048412D01*
X019311Y048408D01*
X019307Y048398D01*
X019304Y048393D01*
X019301Y048389D01*
X0193Y048389D01*
X019299Y048388D01*
X019297Y048387D01*
X019294Y048385D01*
X019291Y048383D01*
X019287Y048382D01*
X019283Y04838D01*
X019278Y04838D01*
X019276D01*
X019274Y04838D01*
X019272D01*
X019265Y048383D01*
X019261Y048384D01*
X019259Y048386D01*
X019258Y048387D01*
X019257Y048388D01*
X019255Y04839D01*
X019253Y048393D01*
X019251Y048397D01*
X019248Y048401D01*
X019246Y048406D01*
X019244Y048412D01*
Y048413D01*
Y048413D01*
X019244Y048415D01*
X019243Y048417D01*
Y04842D01*
X019243Y048424D01*
X019242Y048429D01*
X019242Y048435D01*
X019241Y048441D01*
X01924Y048448D01*
X01924Y048457D01*
Y048466D01*
X019239Y048476D01*
X019239Y048488D01*
Y048501D01*
Y048515D01*
Y048515D01*
Y048517D01*
Y048519D01*
Y048522D01*
Y048526D01*
Y04853D01*
X019239Y04854D01*
X01924Y04855D01*
X019241Y048561D01*
X019243Y04857D01*
X019243Y048574D01*
X019244Y048578D01*
Y048578D01*
X019246Y04858D01*
X019247Y048584D01*
X019248Y048587D01*
X019253Y048596D01*
X019256Y0486D01*
X019259Y048603D01*
X01926D01*
X01926Y048604D01*
X019262Y048605D01*
X019264Y048606D01*
X01927Y048608D01*
X019278Y048609D01*
X01928D01*
X019283Y048608D01*
D02*
G37*
G36*
X019395Y048361D02*
X019283D01*
X019287Y048362D01*
X019292Y048362D01*
X019297Y048363D01*
X019303Y048365D01*
X01931Y048366D01*
X019317Y048368D01*
X019324Y048371D01*
X019331Y048374D01*
X019338Y048378D01*
X019346Y048383D01*
X019352Y048388D01*
X019359Y048394D01*
X019365Y048401D01*
X019365Y048401D01*
X019366Y048402D01*
X019368Y048405D01*
X019369Y048407D01*
X019372Y048411D01*
X019374Y048416D01*
X019377Y048421D01*
X01938Y048427D01*
X019383Y048433D01*
X019386Y048441D01*
X019391Y048456D01*
X019394Y048474D01*
X019395Y048483D01*
X019395Y048493D01*
Y048361D01*
D02*
G37*
G36*
X016438Y048722D02*
X01644D01*
X016446Y048719D01*
X016449Y048718D01*
X016452Y048715D01*
X016452Y048715D01*
X016453Y048714D01*
X016455Y048711D01*
X016457Y048708D01*
X01646Y048703D01*
X016462Y048697D01*
X016464Y048691D01*
X016465Y048682D01*
Y048682D01*
Y048681D01*
X016466Y048679D01*
Y048676D01*
Y048672D01*
X016466Y048667D01*
Y048661D01*
X016467Y048653D01*
X016467Y048643D01*
Y048631D01*
X016468Y048618D01*
Y048602D01*
Y048593D01*
Y048584D01*
X016469Y048575D01*
Y048565D01*
Y048553D01*
Y048542D01*
Y04853D01*
Y048517D01*
Y048515D01*
Y048513D01*
Y048509D01*
Y048504D01*
Y048498D01*
X016468Y048491D01*
Y048483D01*
Y048475D01*
X016467Y048457D01*
X016466Y04844D01*
X016466Y048432D01*
X016465Y048424D01*
X016465Y048418D01*
X016464Y048413D01*
Y048412D01*
X016463Y04841D01*
X016462Y048406D01*
X016461Y048402D01*
X016457Y048394D01*
X016455Y04839D01*
X016452Y048387D01*
X016452D01*
X016451Y048386D01*
X016449Y048385D01*
X016447Y048384D01*
X016444Y048383D01*
X01644Y048382D01*
X016436Y048382D01*
X016432Y048381D01*
X01643D01*
X016427Y048382D01*
X016424Y048382D01*
X016421Y048383D01*
X016418Y048384D01*
X016414Y048387D01*
X016412Y048389D01*
X016411Y04839D01*
X01641Y048392D01*
X016408Y048396D01*
X016406Y048401D01*
X016404Y048407D01*
X016401Y048415D01*
X0164Y048424D01*
X016399Y048436D01*
X016397Y048552D01*
Y048553D01*
Y048556D01*
Y048561D01*
Y048567D01*
Y048574D01*
Y048583D01*
Y048592D01*
Y048601D01*
Y048621D01*
X016398Y04863D01*
Y048639D01*
Y048646D01*
Y048654D01*
X016399Y048659D01*
Y048663D01*
Y048663D01*
Y048665D01*
X016399Y048666D01*
Y048669D01*
X0164Y048675D01*
X016401Y048683D01*
X016403Y048692D01*
X016405Y0487D01*
X016408Y048708D01*
X01641Y04871D01*
X016412Y048713D01*
X016412Y048714D01*
X016413Y048715D01*
X016414Y048716D01*
X016417Y048718D01*
X01642Y048719D01*
X016423Y048721D01*
X016428Y048722D01*
X016434Y048722D01*
X016435D01*
X016438Y048722D01*
D02*
G37*
%LPC*%
G36*
X015228Y045998D02*
X015226D01*
X015222Y045998D01*
X015219Y045997D01*
X015214Y045996D01*
X015209Y045993D01*
X015204Y04599D01*
X0152Y045986D01*
X0152Y045986D01*
X015198Y045984D01*
X015196Y045981D01*
X015194Y045978D01*
X015192Y045974D01*
X01519Y045969D01*
X015189Y045964D01*
X015188Y045958D01*
Y045957D01*
Y045955D01*
X015189Y045952D01*
X01519Y045948D01*
X015191Y045944D01*
X015193Y045939D01*
X015196Y045934D01*
X0152Y04593D01*
X015201Y045929D01*
X015202Y045928D01*
X015205Y045926D01*
X015208Y045924D01*
X015212Y045922D01*
X015217Y04592D01*
X015222Y045919D01*
X015228Y045918D01*
X015231D01*
X015234Y045919D01*
X015238Y04592D01*
X015243Y045921D01*
X015248Y045923D01*
X015252Y045926D01*
X015257Y04593D01*
X015257Y04593D01*
X015258Y045932D01*
X015261Y045934D01*
X015262Y045937D01*
X015264Y045942D01*
X015267Y045946D01*
X015268Y045952D01*
X015268Y045958D01*
Y045958D01*
Y045961D01*
X015268Y045964D01*
X015267Y045968D01*
X015266Y045972D01*
X015263Y045977D01*
X015261Y045981D01*
X015257Y045986D01*
X015256Y045987D01*
X015255Y045988D01*
X015252Y04599D01*
X015249Y045992D01*
X015245Y045995D01*
X01524Y045997D01*
X015234Y045998D01*
X015228Y045998D01*
D02*
G37*
G36*
X01549Y045887D02*
Y045817D01*
X015489Y045819D01*
X015489Y045824D01*
X015488Y045831D01*
X015485Y045838D01*
X015482Y045847D01*
X015477Y045856D01*
X015471Y045865D01*
X01547Y045866D01*
X015467Y045868D01*
X015463Y045872D01*
X015457Y045876D01*
X015449Y04588D01*
X01544Y045884D01*
X015428Y045886D01*
X015416Y045887D01*
X015412D01*
X015409Y045887D01*
X015404Y045886D01*
X015398Y045885D01*
X015391Y045883D01*
X015385Y045881D01*
X015378Y045878D01*
X015377D01*
X015376Y045877D01*
X015374Y045876D01*
X01537Y045874D01*
X015367Y045874D01*
X015364D01*
X015361Y045874D01*
X015359Y045875D01*
X015358Y045876D01*
X015357Y045878D01*
X015356Y045879D01*
X015354Y045881D01*
X015352Y045884D01*
X01535Y045887D01*
X01534D01*
X015337Y045804D01*
X015346D01*
Y045805D01*
X015346Y045806D01*
X015347Y045807D01*
X015349Y04581D01*
X015352Y045817D01*
X015356Y045824D01*
X015361Y045832D01*
X015367Y045841D01*
X015372Y045848D01*
X015379Y045854D01*
X015379Y045855D01*
X015381Y045856D01*
X015385Y045859D01*
X015389Y045861D01*
X015394Y045863D01*
X0154Y045866D01*
X015406Y045867D01*
X015412Y045868D01*
X015414D01*
X015416Y045867D01*
X015418Y045867D01*
X015424Y045865D01*
X015427Y045863D01*
X01543Y04586D01*
X01543Y04586D01*
X015431Y045859D01*
X015432Y045857D01*
X015433Y045855D01*
X015436Y04585D01*
X015436Y045847D01*
X015437Y045844D01*
Y045843D01*
Y045843D01*
X015436Y045839D01*
X015435Y045835D01*
X015432Y045831D01*
X015432Y04583D01*
X01543Y045829D01*
X015428Y045826D01*
X015423Y045822D01*
X015417Y045817D01*
X015414Y045814D01*
X015409Y04581D01*
X015404Y045807D01*
X015399Y045803D01*
X015393Y045799D01*
X015386Y045794D01*
X015386Y045794D01*
X015385Y045793D01*
X015382Y045791D01*
X01538Y04579D01*
X015374Y045785D01*
X015366Y045779D01*
X015357Y045772D01*
X015349Y045765D01*
X015341Y045758D01*
X015339Y045754D01*
X015336Y04575D01*
X015335Y04575D01*
X015334Y045747D01*
X015332Y045743D01*
X01533Y045738D01*
X015328Y045732D01*
X015326Y045726D01*
X015325Y045718D01*
X015324Y04571D01*
Y045707D01*
X015325Y045702D01*
X015325Y045697D01*
X015327Y045691D01*
X015328Y045685D01*
X015331Y045678D01*
X015334Y04567D01*
X015335Y045669D01*
X015336Y045667D01*
X015338Y045664D01*
X015341Y045659D01*
X015346Y045654D01*
X01535Y045649D01*
X015356Y045645D01*
X015363Y04564D01*
X015363Y04564D01*
X015366Y045639D01*
X01537Y045637D01*
X015374Y045635D01*
X01538Y045634D01*
X015387Y045632D01*
X015394Y045631D01*
X015403Y04563D01*
X015324D01*
X01549D01*
Y045887D01*
D02*
G37*
G36*
X014262Y045998D02*
D01*
Y045812D01*
X014261Y045816D01*
Y04582D01*
X01426Y045826D01*
X01426Y045831D01*
X014259Y045838D01*
X014255Y045853D01*
X014251Y045869D01*
X014245Y045886D01*
X01424Y045894D01*
X014236Y045903D01*
X014235Y045903D01*
X014235Y045905D01*
X014233Y045907D01*
X014231Y04591D01*
X014228Y045914D01*
X014225Y045919D01*
X014222Y045924D01*
X014217Y045928D01*
X014207Y04594D01*
X014195Y045951D01*
X014181Y045963D01*
X014165Y045973D01*
X014164Y045974D01*
X014163Y045974D01*
X01416Y045975D01*
X014157Y045977D01*
X014153Y045979D01*
X014148Y045981D01*
X014142Y045984D01*
X014136Y045986D01*
X014129Y045988D01*
X014122Y04599D01*
X014106Y045995D01*
X014088Y045997D01*
X014079Y045998D01*
X014026D01*
X014063D01*
X01406Y045998D01*
X014056Y045997D01*
X014051D01*
X014046Y045996D01*
X014034Y045995D01*
X014021Y045991D01*
X014007Y045987D01*
X013991Y045982D01*
X013991D01*
X01399Y045981D01*
X013987Y04598D01*
X013983Y045979D01*
X013978Y045978D01*
X013973Y045975D01*
X013968Y045974D01*
X013964Y045973D01*
X013961Y045973D01*
X013959D01*
X013956Y045973D01*
X013951Y045975D01*
X013949Y045976D01*
X013946Y045979D01*
X013946Y045979D01*
X013945Y04598D01*
X013944Y045981D01*
X013943Y045984D01*
X013942Y045986D01*
X01394Y04599D01*
X013939Y045993D01*
X013938Y045998D01*
X013928D01*
Y045876D01*
X013938D01*
Y045877D01*
X013939Y045878D01*
X013939Y04588D01*
X01394Y045884D01*
X013942Y045888D01*
X013944Y045892D01*
X013948Y045903D01*
X013954Y045915D01*
X013961Y045927D01*
X01397Y045939D01*
X013981Y04595D01*
X013981Y04595D01*
X013982Y045951D01*
X013984Y045952D01*
X013986Y045954D01*
X013989Y045956D01*
X013993Y045958D01*
X014001Y045963D01*
X014012Y045967D01*
X014023Y045972D01*
X014037Y045974D01*
X014044Y045975D01*
X014055D01*
X014057Y045975D01*
X01406D01*
X014063Y045974D01*
X014071Y045973D01*
X014081Y04597D01*
X014091Y045967D01*
X014102Y045963D01*
X014112Y045956D01*
X014112D01*
X014113Y045955D01*
X014116Y045953D01*
X014121Y045949D01*
X014127Y045943D01*
X014134Y045936D01*
X01414Y045927D01*
X014147Y045917D01*
X014152Y045906D01*
Y045906D01*
X014153Y045904D01*
X014154Y045902D01*
X014154Y045899D01*
X014156Y045896D01*
X014157Y045891D01*
X014159Y045886D01*
X01416Y04588D01*
X014162Y045874D01*
X014163Y045867D01*
X014165Y045853D01*
X014168Y045836D01*
X014168Y045819D01*
Y045818D01*
Y045817D01*
Y045814D01*
Y04581D01*
X014168Y045807D01*
Y045802D01*
X014167Y045796D01*
X014166Y04579D01*
X014165Y045777D01*
X014163Y045762D01*
X01416Y045747D01*
X014157Y045732D01*
Y045732D01*
X014156Y045731D01*
X014156Y045729D01*
X014154Y045726D01*
X014153Y045723D01*
X014152Y045719D01*
X014147Y045711D01*
X014142Y045701D01*
X014136Y045691D01*
X014128Y045682D01*
X01412Y045673D01*
X014119D01*
X014118Y045672D01*
X014117Y045672D01*
X014115Y04567D01*
X014109Y045667D01*
X014102Y045664D01*
X014092Y04566D01*
X014081Y045657D01*
X014068Y045655D01*
X014053Y045654D01*
X014048D01*
X014045Y045654D01*
X014041D01*
X014033Y045655D01*
X014024Y045657D01*
X014014Y04566D01*
X014003Y045663D01*
X013993Y045668D01*
X013992D01*
X013992Y045669D01*
X01399Y04567D01*
X013988Y045671D01*
X013982Y045675D01*
X013975Y04568D01*
X013966Y045687D01*
X013956Y045695D01*
X013945Y045706D01*
X013934Y045718D01*
Y045688D01*
X013934Y045688D01*
X013935Y045687D01*
X013937Y045685D01*
X013939Y045683D01*
X013945Y045678D01*
X013953Y045671D01*
X013962Y045664D01*
X013973Y045656D01*
X013984Y045649D01*
X013996Y045643D01*
X013997D01*
X013998Y045642D01*
X013999Y045642D01*
X014002Y045641D01*
X014005Y04564D01*
X014008Y045639D01*
X014013Y045637D01*
X014017Y045636D01*
X014028Y045634D01*
X014041Y045631D01*
X014055Y04563D01*
X014071Y045629D01*
X013928D01*
X014262D01*
Y045998D01*
D02*
G37*
G36*
X014505Y045887D02*
X014502D01*
X014499Y045887D01*
X014495Y045886D01*
X01449Y045884D01*
X014485Y045882D01*
X01448Y045879D01*
X014475Y045874D01*
X014474Y045874D01*
X014473Y045872D01*
X014471Y045869D01*
X014468Y045866D01*
X014466Y045861D01*
X014464Y045856D01*
X014462Y045851D01*
X014462Y045844D01*
Y045842D01*
X014462Y045838D01*
X014464Y045834D01*
X014465Y045829D01*
X014467Y045824D01*
X014471Y045819D01*
X014475Y045814D01*
X014476Y045813D01*
X014477Y045812D01*
X01448Y04581D01*
X014483Y045808D01*
X014488Y045805D01*
X014493Y045803D01*
X014498Y045802D01*
X014505Y045801D01*
X014508D01*
X014512Y045802D01*
X014515Y045803D01*
X01452Y045805D01*
X014526Y045807D01*
X014531Y045809D01*
X014536Y045814D01*
X014536Y045814D01*
X014538Y045816D01*
X014539Y045819D01*
X014542Y045823D01*
X014544Y045827D01*
X014546Y045832D01*
X014548Y045838D01*
X014548Y045844D01*
Y045845D01*
Y045847D01*
X014548Y04585D01*
X014547Y045855D01*
X014545Y04586D01*
X014543Y045865D01*
X01454Y045869D01*
X014536Y045874D01*
X014535Y045875D01*
X014533Y045877D01*
X014531Y045879D01*
X014527Y045881D01*
X014522Y045883D01*
X014518Y045885D01*
X014512Y045887D01*
X014505Y045887D01*
D02*
G37*
G36*
X015136D02*
X015029D01*
X015024Y045887D01*
X015018Y045886D01*
X01501Y045885D01*
X015001Y045883D01*
X014992Y04588D01*
X014983Y045877D01*
X014901D01*
Y045849D01*
X014947D01*
X014947Y045848D01*
X014945Y045847D01*
X014943Y045844D01*
X01494Y045841D01*
X014935Y045833D01*
X014932Y045829D01*
X01493Y045825D01*
X014929Y045825D01*
X014929Y045823D01*
X014928Y04582D01*
X014927Y045817D01*
X014925Y045812D01*
X014924Y045807D01*
X014923Y045802D01*
Y045796D01*
Y045795D01*
Y045795D01*
Y045791D01*
X014924Y045786D01*
X014925Y04578D01*
X014927Y045773D01*
X014929Y045766D01*
X014933Y045759D01*
X014938Y045751D01*
X014939Y04575D01*
X014941Y045748D01*
X014944Y045744D01*
X014948Y04574D01*
X014954Y045735D01*
X01496Y04573D01*
X014969Y045725D01*
X014977Y045721D01*
X014978Y04572D01*
X014982Y045719D01*
X014986Y045718D01*
X014992Y045716D01*
X014999Y045714D01*
X015006Y045712D01*
X015013Y045711D01*
X015021Y045711D01*
X015025D01*
X015029Y045711D01*
X015042D01*
X015047Y045712D01*
X015054D01*
X015056Y045711D01*
X015059Y045711D01*
X015065Y045708D01*
X015068Y045707D01*
X015072Y045704D01*
X015072Y045703D01*
X015073Y045703D01*
X015074Y045701D01*
X015076Y045699D01*
X015078Y045693D01*
X015079Y045689D01*
X015079Y045685D01*
Y045685D01*
Y045684D01*
X015079Y045682D01*
X015078Y04568D01*
X015076Y045675D01*
X015074Y045672D01*
X015072Y04567D01*
X015072D01*
X015071Y045669D01*
X015069Y045669D01*
X015067Y045667D01*
X015064Y045666D01*
X01506Y045666D01*
X015055Y045665D01*
X015049D01*
X015004Y045665D01*
X014995D01*
X014991Y045665D01*
X014985D01*
X014974Y045664D01*
X014961Y045663D01*
X014949Y04566D01*
X014938Y045657D01*
X014933Y045655D01*
X014929Y045653D01*
X014928D01*
X014928Y045653D01*
X014924Y04565D01*
X014919Y045646D01*
X014914Y045641D01*
X014908Y045634D01*
X014904Y045625D01*
X0149Y045614D01*
X0149Y045608D01*
X014899Y045602D01*
Y045599D01*
X0149Y045594D01*
X014901Y045589D01*
X014902Y045583D01*
X014905Y045576D01*
X014908Y045569D01*
X014913Y045562D01*
X014913Y045562D01*
X014916Y045559D01*
X014918Y045556D01*
X014923Y045552D01*
X014928Y045548D01*
X014934Y045543D01*
X014941Y045539D01*
X014949Y045535D01*
X014949D01*
X014951Y045535D01*
X014952Y045534D01*
X014955Y045533D01*
X014958Y045532D01*
X014961Y045531D01*
X014966Y04553D01*
X014971Y045529D01*
X014982Y045527D01*
X014995Y045524D01*
X01501Y045523D01*
X015026Y045522D01*
X015031D01*
X015038Y045523D01*
X015046Y045523D01*
X015055Y045524D01*
X015065Y045525D01*
X015076Y045527D01*
X015086Y045529D01*
X015086D01*
X015087Y045529D01*
X01509Y04553D01*
X015095Y045532D01*
X015101Y045534D01*
X015114Y045539D01*
X01512Y045543D01*
X015125Y045547D01*
X015125Y045547D01*
X015126Y045549D01*
X015129Y045551D01*
X01513Y045554D01*
X015132Y045557D01*
X015135Y045562D01*
X015136Y045566D01*
X015136Y04557D01*
Y045532D01*
Y045725D01*
Y045572D01*
X015136Y045575D01*
X015135Y045577D01*
X015134Y045581D01*
X015132Y045584D01*
X01513Y045588D01*
X015127Y045592D01*
X015127Y045593D01*
X015126Y045594D01*
X015124Y045595D01*
X01512Y045598D01*
X015115Y0456D01*
X015109Y045602D01*
X015103Y045605D01*
X015094Y045608D01*
X015095D01*
X015096Y045608D01*
X015097Y04561D01*
X015099Y045611D01*
X015105Y045614D01*
X015111Y04562D01*
X015117Y045627D01*
X015122Y045634D01*
X015124Y045639D01*
X015126Y045643D01*
X015127Y045648D01*
X015127Y045654D01*
Y045655D01*
Y045657D01*
X015127Y04566D01*
X015126Y045665D01*
X015124Y04567D01*
X015121Y045676D01*
X015118Y045682D01*
X015114Y045688D01*
X015113Y045689D01*
X015111Y045691D01*
X015108Y045694D01*
X015103Y045698D01*
X015097Y045703D01*
X01509Y045708D01*
X01508Y045713D01*
X01507Y045718D01*
X015071D01*
X015072Y045718D01*
X015073Y045719D01*
X015076Y04572D01*
X015082Y045723D01*
X01509Y045727D01*
X015098Y045732D01*
X015106Y045737D01*
X015114Y045744D01*
X015121Y045752D01*
X015121Y045753D01*
X015123Y045755D01*
X015126Y04576D01*
X015129Y045765D01*
X015131Y045772D01*
X015134Y04578D01*
X015136Y04579D01*
X015136Y0458D01*
Y045803D01*
X015136Y045806D01*
X015135Y045809D01*
X015135Y045812D01*
X015132Y045821D01*
X015129Y04583D01*
X015124Y045841D01*
X015121Y045846D01*
X015117Y045851D01*
X015112Y045856D01*
X015107Y045861D01*
X015107Y045862D01*
X015106Y045862D01*
X015105Y045863D01*
X015102Y045866D01*
X015099Y045867D01*
X015096Y045869D01*
X015091Y045872D01*
X015087Y045874D01*
X015076Y045879D01*
X015064Y045884D01*
X015049Y045886D01*
X015041Y045887D01*
X015033Y045887D01*
X015136D01*
D02*
G37*
G36*
X015617D02*
X015524D01*
X015613D01*
X015611Y045887D01*
X015608Y045886D01*
X015604Y045886D01*
X015595Y045884D01*
X015586Y04588D01*
X015575Y045874D01*
X015569Y045871D01*
X015564Y045867D01*
X015559Y045862D01*
X015553Y045857D01*
X015553Y045856D01*
X015552Y045855D01*
X015551Y045854D01*
X015549Y045851D01*
X015547Y045848D01*
X015545Y045844D01*
X015542Y04584D01*
X015539Y045835D01*
X015537Y045829D01*
X015534Y045822D01*
X015531Y045815D01*
X015529Y045807D01*
X015527Y045798D01*
X015525Y045789D01*
X015524Y045779D01*
X015524Y045768D01*
X015657D01*
Y045767D01*
Y045766D01*
X015657Y045763D01*
Y04576D01*
X015656Y045756D01*
X015655Y045751D01*
X015653Y04574D01*
X01565Y045728D01*
X015645Y045715D01*
X015639Y045702D01*
X015631Y045691D01*
X015631Y04569D01*
X015628Y045688D01*
X015624Y045684D01*
X015619Y045681D01*
X015613Y045676D01*
X015606Y045673D01*
X015598Y045671D01*
X015588Y04567D01*
X015586D01*
X015583Y04567D01*
X015579Y045671D01*
X015575Y045672D01*
X01557Y045673D01*
X015565Y045675D01*
X01556Y045678D01*
X01556Y045678D01*
X015558Y045679D01*
X015556Y045682D01*
X015552Y045685D01*
X015548Y045689D01*
X015544Y045695D01*
X015539Y045701D01*
X015533Y045709D01*
X015524Y045704D01*
Y045703D01*
X015525Y045702D01*
X015526Y0457D01*
X015527Y045697D01*
X015529Y045694D01*
X015531Y04569D01*
X015537Y045682D01*
X015544Y045672D01*
X015551Y045663D01*
X015559Y045654D01*
X015564Y04565D01*
X015568Y045647D01*
X015569Y045646D01*
X015572Y045644D01*
X015577Y045642D01*
X015584Y045639D01*
X015592Y045636D01*
X015601Y045633D01*
X015612Y045631D01*
X015623Y04563D01*
X015625D01*
X015628Y045631D01*
X015632D01*
X015636Y045631D01*
X015642Y045633D01*
X015648Y045634D01*
X015654Y045636D01*
X01566Y045638D01*
X015667Y045641D01*
X015674Y045644D01*
X015681Y045648D01*
X015687Y045653D01*
X015694Y045658D01*
X0157Y045665D01*
X015705Y045672D01*
Y045672D01*
X015706Y045673D01*
X015707Y045675D01*
X015708Y045678D01*
X01571Y045681D01*
X015712Y045685D01*
X015714Y045689D01*
X015716Y045695D01*
X015718Y0457D01*
X01572Y045707D01*
X015724Y045721D01*
X015726Y045737D01*
X015727Y045755D01*
Y045659D01*
Y045761D01*
X015726Y045765D01*
X015726Y04577D01*
X015725Y045776D01*
X015724Y045783D01*
X015723Y04579D01*
X015719Y045805D01*
X015716Y045813D01*
X015713Y045821D01*
X015709Y045829D01*
X015705Y045837D01*
X0157Y045844D01*
X015694Y045851D01*
X015694Y045852D01*
X015693Y045853D01*
X015691Y045855D01*
X015688Y045857D01*
X015685Y04586D01*
X015682Y045863D01*
X015677Y045866D01*
X015672Y045869D01*
X015661Y045876D01*
X015648Y045882D01*
X015641Y045884D01*
X015633Y045886D01*
X015625Y045887D01*
X015617Y045887D01*
D02*
G37*
G36*
X0147D02*
X014697D01*
X014692Y045887D01*
X014687Y045886D01*
X014681Y045884D01*
X014674Y045881D01*
X014668Y045878D01*
X014662Y045874D01*
X014661Y045873D01*
X014659Y045872D01*
X014656Y045869D01*
X014653Y045865D01*
X01465Y04586D01*
X014646Y045855D01*
X014643Y045849D01*
X01464Y045842D01*
Y045841D01*
X01464Y045839D01*
X014639Y045835D01*
X014638Y045829D01*
X014637Y045821D01*
Y045817D01*
X014637Y045812D01*
Y045806D01*
X014636Y0458D01*
Y045792D01*
Y045785D01*
Y04569D01*
Y04569D01*
Y045689D01*
Y045686D01*
X014635Y045681D01*
Y045675D01*
X014635Y045669D01*
X014634Y045664D01*
X014633Y045659D01*
X014631Y045655D01*
X01463Y045654D01*
X014629Y045653D01*
X014627Y045652D01*
X014623Y04565D01*
X01462Y045649D01*
X014615Y045648D01*
X01461Y045647D01*
D01*
Y045637D01*
X014872D01*
Y04588D01*
D01*
X014773D01*
Y045849D01*
X014772Y04585D01*
X01477Y045852D01*
X014767Y045856D01*
X014762Y04586D01*
X014756Y045865D01*
X01475Y045869D01*
X014744Y045874D01*
X014738Y045878D01*
X014737Y045879D01*
X014734Y04588D01*
X014731Y045881D01*
X014726Y045883D01*
X014721Y045885D01*
X014715Y045886D01*
X014708Y045887D01*
X0147Y045887D01*
D02*
G37*
G36*
X016125Y04599D02*
X015957D01*
X015952Y04599D01*
X015946Y045989D01*
X015939Y045988D01*
X015931Y045988D01*
X015915Y045986D01*
X015898Y045983D01*
X015881Y045979D01*
X015874Y045976D01*
X015866Y045973D01*
X015866D01*
X015864Y045972D01*
X015862Y04597D01*
X015859Y045969D01*
X015854Y045967D01*
X01585Y045964D01*
X015839Y045957D01*
X015828Y045948D01*
X015816Y045937D01*
X015804Y045924D01*
X0158Y045916D01*
X015795Y045909D01*
X015794Y045908D01*
X015794Y045907D01*
X015792Y045904D01*
X015791Y045901D01*
X015789Y045897D01*
X015787Y045892D01*
X015785Y045887D01*
X015782Y045881D01*
X01578Y045874D01*
X015778Y045867D01*
X015774Y04585D01*
X015771Y045832D01*
X01577Y045823D01*
Y045806D01*
X015771Y045803D01*
Y045799D01*
X015772Y04579D01*
X015773Y045779D01*
X015775Y045768D01*
X015778Y045756D01*
X015782Y045744D01*
Y045743D01*
X015783Y045743D01*
X015783Y045741D01*
X015784Y045739D01*
X015787Y045733D01*
X01579Y045726D01*
X015795Y045718D01*
X0158Y045709D01*
X015806Y0457D01*
X015813Y045692D01*
X015814Y045691D01*
X015816Y045689D01*
X01582Y045685D01*
X015826Y045681D01*
X015832Y045675D01*
X01584Y04567D01*
X015848Y045664D01*
X015857Y045659D01*
X015859Y045659D01*
X015862Y045657D01*
X015867Y045655D01*
X015874Y045652D01*
X015883Y045649D01*
X015893Y045646D01*
X015905Y045643D01*
X015918Y04564D01*
X015918D01*
X01592Y04564D01*
X015924Y045639D01*
X01593D01*
X015937Y045639D01*
X015945Y045638D01*
X015956Y045637D01*
X01577D01*
X016125D01*
Y04599D01*
D02*
G37*
G36*
X015294Y045998D02*
D01*
Y04588D01*
X015192D01*
Y045688D01*
Y045687D01*
Y045683D01*
X015191Y045679D01*
Y045674D01*
X015191Y045668D01*
X01519Y045663D01*
X015188Y045658D01*
X015186Y045654D01*
X015186Y045654D01*
X015185Y045653D01*
X015184Y045652D01*
X015181Y045651D01*
X015178Y045649D01*
X015174Y045648D01*
X015168Y045647D01*
X015162Y045647D01*
Y045637D01*
X015294D01*
Y045998D01*
D02*
G37*
G36*
X013892Y04599D02*
X013724D01*
X013719Y04599D01*
X013713Y045989D01*
X013706Y045988D01*
X013698Y045988D01*
X013682Y045986D01*
X013665Y045983D01*
X013648Y045979D01*
X013641Y045976D01*
X013633Y045973D01*
X013632D01*
X013631Y045972D01*
X013629Y04597D01*
X013625Y045969D01*
X013621Y045967D01*
X013617Y045964D01*
X013606Y045957D01*
X013595Y045948D01*
X013583Y045937D01*
X013571Y045924D01*
X013566Y045916D01*
X013562Y045909D01*
X013561Y045908D01*
X01356Y045907D01*
X013559Y045904D01*
X013558Y045901D01*
X013556Y045897D01*
X013554Y045892D01*
X013552Y045887D01*
X013549Y045881D01*
X013547Y045874D01*
X013545Y045867D01*
X013541Y04585D01*
X013538Y045832D01*
X013537Y045823D01*
Y045806D01*
X013537Y045803D01*
Y045799D01*
X013539Y04579D01*
X01354Y045779D01*
X013542Y045768D01*
X013545Y045756D01*
X013549Y045744D01*
Y045743D01*
X013549Y045743D01*
X01355Y045741D01*
X013551Y045739D01*
X013554Y045733D01*
X013557Y045726D01*
X013562Y045718D01*
X013567Y045709D01*
X013573Y0457D01*
X01358Y045692D01*
X013581Y045691D01*
X013583Y045689D01*
X013587Y045685D01*
X013593Y045681D01*
X013599Y045675D01*
X013607Y04567D01*
X013615Y045664D01*
X013624Y045659D01*
X013625Y045659D01*
X013629Y045657D01*
X013634Y045655D01*
X013641Y045652D01*
X01365Y045649D01*
X01366Y045646D01*
X013672Y045643D01*
X013684Y04564D01*
X013685D01*
X013687Y04564D01*
X013691Y045639D01*
X013696D01*
X013703Y045639D01*
X013712Y045638D01*
X013723Y045637D01*
X013537D01*
Y045806D01*
Y045637D01*
D01*
X013892D01*
Y04599D01*
D02*
G37*
G36*
X015623Y04563D02*
D01*
X015524D01*
X015623D01*
D02*
G37*
G36*
X014506Y045717D02*
X014502D01*
X014499Y045717D01*
X014495Y045715D01*
X01449Y045714D01*
X014485Y045712D01*
X01448Y045708D01*
X014475Y045704D01*
X014474Y045703D01*
X014473Y045702D01*
X014471Y045699D01*
X014468Y045695D01*
X014466Y045691D01*
X014464Y045686D01*
X014462Y04568D01*
X014462Y045673D01*
Y045671D01*
X014462Y045667D01*
X014464Y045663D01*
X014465Y045658D01*
X014467Y045653D01*
X014471Y045648D01*
X014475Y045643D01*
X014476Y045642D01*
X014477Y045641D01*
X01448Y045639D01*
X014484Y045637D01*
X014488Y045634D01*
X014493Y045633D01*
X014499Y045631D01*
X014506Y04563D01*
X014462D01*
X014549D01*
Y045677D01*
X014548Y04568D01*
X014547Y045684D01*
X014545Y045689D01*
X014543Y045694D01*
X01454Y045699D01*
X014536Y045704D01*
X014536Y045705D01*
X014534Y045706D01*
X014531Y045708D01*
X014527Y045711D01*
X014523Y045713D01*
X014518Y045715D01*
X014512Y045717D01*
X014506Y045717D01*
D02*
G37*
G36*
X015026Y045522D02*
D01*
X014899D01*
X015026D01*
D02*
G37*
%LPD*%
G36*
X01549Y04563D02*
X015406D01*
X01541Y045631D01*
X015415Y045631D01*
X015422Y045633D01*
X015429Y045635D01*
X015438Y045637D01*
X015448Y045641D01*
X015449D01*
X01545Y045641D01*
X015453Y045642D01*
X015456Y045643D01*
X015459Y045644D01*
X01546D01*
X015462Y045643D01*
X015464Y045642D01*
X015467Y045641D01*
X015469Y045639D01*
X015471Y045635D01*
X015473Y045631D01*
X015482D01*
X015487Y045718D01*
X015477D01*
Y045718D01*
X015477Y045717D01*
X015476Y045715D01*
X015475Y045713D01*
X015473Y045706D01*
X015469Y045699D01*
X015465Y04569D01*
X015459Y045682D01*
X015453Y045674D01*
X015446Y045667D01*
X015445Y045666D01*
X015443Y045664D01*
X015439Y045661D01*
X015434Y045659D01*
X015428Y045655D01*
X015422Y045653D01*
X015415Y045651D01*
X015408Y04565D01*
X015406D01*
X015404Y045651D01*
X015401Y045651D01*
X015394Y045653D01*
X015391Y045655D01*
X015388Y045658D01*
X015387Y045658D01*
X015387Y045659D01*
X015385Y04566D01*
X015384Y045663D01*
X015381Y045669D01*
X01538Y045672D01*
X01538Y045676D01*
Y045676D01*
Y045678D01*
X01538Y04568D01*
X015381Y045683D01*
X015382Y045687D01*
X015383Y04569D01*
X015385Y045694D01*
X015388Y045697D01*
X015388Y045698D01*
X01539Y045699D01*
X015392Y045701D01*
X015395Y045705D01*
X0154Y045708D01*
X015405Y045713D01*
X015413Y045718D01*
X015422Y045725D01*
X015423Y045725D01*
X015424Y045726D01*
X015426Y045728D01*
X015429Y045729D01*
X015435Y045735D01*
X015444Y045741D01*
X015452Y045747D01*
X01546Y045754D01*
X015468Y045761D01*
X01547Y045764D01*
X015473Y045767D01*
X015474Y045768D01*
X015476Y045771D01*
X015479Y045775D01*
X015481Y04578D01*
X015485Y045788D01*
X015487Y045796D01*
X015489Y045805D01*
X01549Y045814D01*
Y04563D01*
D02*
G37*
G36*
X014262Y045629D02*
X014076D01*
X01408Y04563D01*
X014085D01*
X014091Y04563D01*
X014098Y045631D01*
X014104Y045632D01*
X01412Y045635D01*
X014137Y045639D01*
X014154Y045644D01*
X014171Y045652D01*
X014171Y045652D01*
X014172Y045653D01*
X014175Y045654D01*
X014178Y045656D01*
X014182Y045658D01*
X014186Y045661D01*
X014195Y045668D01*
X014206Y045677D01*
X014218Y045689D01*
X014229Y045702D01*
X014239Y045717D01*
Y045717D01*
X01424Y045719D01*
X014241Y045721D01*
X014242Y045724D01*
X014244Y045728D01*
X014246Y045732D01*
X014248Y045738D01*
X01425Y045744D01*
X014252Y04575D01*
X014254Y045758D01*
X014258Y045773D01*
X014261Y04579D01*
X014261Y045798D01*
X014262Y045807D01*
Y045629D01*
D02*
G37*
G36*
X015033Y045871D02*
X015036Y045869D01*
X015041Y045867D01*
X015045Y045865D01*
X015049Y045861D01*
X015053Y045856D01*
X015054Y045855D01*
X015055Y045853D01*
X015056Y045849D01*
X015057Y045845D01*
X015058Y045842D01*
X015059Y045838D01*
X01506Y045834D01*
X015061Y045829D01*
X015061Y045823D01*
X015062Y045817D01*
X015062Y045809D01*
X015063Y045802D01*
Y045793D01*
Y045792D01*
Y045791D01*
Y045789D01*
Y045787D01*
X015062Y04578D01*
X015062Y045772D01*
X015061Y045763D01*
X015059Y045754D01*
X015056Y045747D01*
X015055Y045743D01*
X015053Y04574D01*
X015053Y04574D01*
X015052Y045738D01*
X015049Y045736D01*
X015046Y045733D01*
X015043Y04573D01*
X015038Y045728D01*
X015034Y045726D01*
X015029Y045726D01*
X015026D01*
X015024Y045726D01*
X01502Y045728D01*
X015016Y045729D01*
X015011Y045732D01*
X015007Y045735D01*
X015003Y04574D01*
X015002Y045741D01*
X015001Y045743D01*
X015Y045747D01*
X014997Y045752D01*
X014996Y04576D01*
X014995Y045764D01*
X014994Y04577D01*
X014994Y045775D01*
X014993Y045781D01*
X014993Y045788D01*
Y045795D01*
Y045796D01*
Y045797D01*
Y0458D01*
Y045803D01*
X014993Y045807D01*
Y045811D01*
X014994Y04582D01*
X014995Y045831D01*
X014997Y045842D01*
X015001Y045851D01*
X015002Y045855D01*
X015005Y045859D01*
X015005Y045859D01*
X015006Y045861D01*
X015008Y045862D01*
X015011Y045865D01*
X015014Y045867D01*
X015018Y045869D01*
X015022Y045871D01*
X015028Y045871D01*
X01503D01*
X015033Y045871D01*
D02*
G37*
G36*
X015057Y045601D02*
X015063Y0456D01*
X015069Y0456D01*
X015074Y045599D01*
X015078Y045597D01*
X015078Y045596D01*
X01508Y045595D01*
X015083Y045594D01*
X015085Y045592D01*
X015088Y045588D01*
X01509Y045584D01*
X015092Y04558D01*
X015093Y045575D01*
Y045575D01*
Y045573D01*
X015091Y04557D01*
X01509Y045568D01*
X015089Y045564D01*
X015086Y045559D01*
X015082Y045556D01*
X015077Y045551D01*
X015077Y045551D01*
X015074Y04555D01*
X01507Y045548D01*
X015064Y045546D01*
X015056Y045544D01*
X015052Y045543D01*
X015047Y045542D01*
X015041Y045541D01*
X015035Y045541D01*
X015028Y04554D01*
X015014D01*
X015011Y045541D01*
X015007D01*
X014999Y045541D01*
X01499Y045542D01*
X01498Y045545D01*
X014971Y045547D01*
X014963Y04555D01*
X014961Y045551D01*
X014959Y045552D01*
X014956Y045554D01*
X014952Y045557D01*
X014948Y045561D01*
X014945Y045566D01*
X014943Y045571D01*
X014942Y045577D01*
Y045578D01*
Y045578D01*
X014942Y045581D01*
X014943Y045585D01*
X014946Y045588D01*
X014947Y045589D01*
X014947Y045589D01*
X014949Y045591D01*
X014952Y045593D01*
X014954Y045594D01*
X014958Y045596D01*
X014963Y045598D01*
X014967Y045599D01*
X014968D01*
X014971Y045599D01*
X014972D01*
X014975Y0456D01*
X014978D01*
X014982Y0456D01*
X014992D01*
X014998Y045601D01*
X015005D01*
X015013Y045601D01*
X015052D01*
X015057Y045601D01*
D02*
G37*
G36*
X015626Y04587D02*
X015629Y045869D01*
X015632Y045867D01*
X015636Y045865D01*
X01564Y045861D01*
X015643Y045857D01*
X015644Y045856D01*
X015646Y045853D01*
X015648Y045848D01*
X015651Y045841D01*
X015653Y045831D01*
X015656Y04582D01*
X015658Y045808D01*
X015658Y045794D01*
Y045785D01*
X015588D01*
Y045785D01*
Y045786D01*
Y045789D01*
Y045791D01*
Y045795D01*
Y045799D01*
X015588Y045808D01*
X015589Y045817D01*
X01559Y045826D01*
X015591Y045835D01*
X015592Y045838D01*
X015593Y045842D01*
Y045842D01*
X015593Y045844D01*
X015594Y045847D01*
X015596Y04585D01*
X0156Y045859D01*
X015604Y045862D01*
X015607Y045866D01*
X015608Y045866D01*
X015611Y045868D01*
X015615Y04587D01*
X015621Y045871D01*
X015623D01*
X015626Y04587D01*
D02*
G37*
G36*
X014872Y045647D02*
X014871D01*
X014869Y045647D01*
X014867Y045648D01*
X014864Y045648D01*
X01486Y045649D01*
X014857Y045651D01*
X014853Y045654D01*
X014851Y045657D01*
Y045657D01*
X01485Y045658D01*
X014849Y04566D01*
X014848Y045663D01*
X014847Y045667D01*
X014846Y045673D01*
X014846Y045681D01*
Y04569D01*
Y045827D01*
Y045828D01*
Y045829D01*
Y045832D01*
Y045837D01*
X014846Y045842D01*
X014847Y045848D01*
X014848Y045854D01*
X01485Y045859D01*
X014851Y045862D01*
Y045862D01*
X014852Y045863D01*
X014853Y045864D01*
X014856Y045866D01*
X014858Y045867D01*
X014862Y045869D01*
X014866Y04587D01*
X014872Y045871D01*
Y045647D01*
D02*
G37*
G36*
X014735Y045852D02*
X01474Y045851D01*
X014745Y045849D01*
X014752Y045845D01*
X014755Y045842D01*
X014758Y045839D01*
X014762Y045835D01*
X014766Y045831D01*
X014769Y045826D01*
X014773Y04582D01*
Y04569D01*
Y04569D01*
Y045689D01*
Y045686D01*
X014773Y045681D01*
Y045676D01*
X014772Y04567D01*
X014771Y045664D01*
X01477Y045659D01*
X014768Y045655D01*
Y045655D01*
X014767Y045654D01*
X014766Y045653D01*
X014764Y045652D01*
X014761Y04565D01*
X014758Y045649D01*
X014754Y045648D01*
X014749Y045647D01*
Y045637D01*
X014733D01*
Y045647D01*
X014732D01*
X01473Y045647D01*
X014728Y045648D01*
X014725Y045649D01*
X014722Y04565D01*
X014718Y045652D01*
X014716Y045654D01*
X014713Y045658D01*
Y045658D01*
X014712Y045659D01*
X014711Y045661D01*
X014711Y045664D01*
X01471Y045669D01*
X014709Y045674D01*
X014709Y045682D01*
Y04569D01*
Y045798D01*
Y045799D01*
Y0458D01*
Y045803D01*
Y045808D01*
X014709Y045814D01*
Y04582D01*
X01471Y045827D01*
X01471Y045832D01*
X014711Y045836D01*
Y045836D01*
X014712Y045837D01*
X014713Y045841D01*
X014716Y045844D01*
X01472Y045848D01*
X014721Y045849D01*
X014723Y04585D01*
X014727Y045852D01*
X014732Y045853D01*
X014733D01*
X014735Y045852D01*
D02*
G37*
G36*
X015991Y045695D02*
Y045694D01*
Y045692D01*
Y045688D01*
Y045684D01*
X01599Y045679D01*
Y045675D01*
X01599Y045671D01*
X015989Y045668D01*
X015988Y045667D01*
X015987Y045665D01*
X015985Y045663D01*
X015982Y045661D01*
X015981D01*
X015981Y04566D01*
X015979Y04566D01*
X015976Y045659D01*
X015974Y045658D01*
X01597Y045658D01*
X015966Y045657D01*
X015957D01*
X015955Y045658D01*
X015951Y045658D01*
X015946Y045659D01*
X015937Y045661D01*
X015926Y045664D01*
X015915Y04567D01*
X01591Y045673D01*
X015905Y045677D01*
X0159Y045682D01*
X015896Y045687D01*
X015895Y045687D01*
X015894Y045688D01*
X015893Y045691D01*
X015891Y045694D01*
X015889Y045699D01*
X015886Y045703D01*
X015883Y04571D01*
X01588Y045717D01*
X015877Y045725D01*
X015874Y045735D01*
X015871Y045744D01*
X015869Y045756D01*
X015867Y045768D01*
X015865Y045782D01*
X015865Y045796D01*
X015864Y045811D01*
Y045812D01*
Y045814D01*
Y045818D01*
X015865Y045823D01*
Y045828D01*
X015865Y045835D01*
X015866Y045842D01*
X015867Y04585D01*
X015869Y045867D01*
X015873Y045885D01*
X015878Y045903D01*
X015881Y045912D01*
X015885Y045919D01*
Y04592D01*
X015886Y045921D01*
X015887Y045922D01*
X015889Y045924D01*
X015892Y04593D01*
X015897Y045937D01*
X015903Y045944D01*
X015911Y045951D01*
X015919Y045957D01*
X015929Y045962D01*
X01593Y045963D01*
X015933Y045963D01*
X015937Y045965D01*
X015944Y045967D01*
X015952Y045968D01*
X015963Y045969D01*
X015969Y04597D01*
X015975D01*
X015983Y04597D01*
X015991D01*
Y045695D01*
D02*
G37*
G36*
X016125Y045647D02*
X016108D01*
X016105Y045647D01*
X016097Y045648D01*
X016093Y045649D01*
X01609Y045651D01*
X016089D01*
X016089Y045652D01*
X016086Y045654D01*
X016081Y045659D01*
X016078Y045664D01*
Y045665D01*
X016077Y045665D01*
X016077Y045667D01*
X016076Y04567D01*
Y045675D01*
X016076Y045681D01*
X016075Y045688D01*
Y045697D01*
Y04593D01*
Y045931D01*
Y045931D01*
Y045934D01*
Y045939D01*
X016076Y045944D01*
Y04595D01*
X016076Y045955D01*
X016077Y04596D01*
X016079Y045963D01*
Y045964D01*
X016079Y045964D01*
X016081Y045968D01*
X016085Y045972D01*
X016087Y045974D01*
X01609Y045975D01*
X016091D01*
X016092Y045976D01*
X016093Y045977D01*
X016096Y045978D01*
X016099Y045979D01*
X016104Y04598D01*
X016108Y045981D01*
X016125D01*
Y045647D01*
D02*
G37*
G36*
X015294D02*
X015291D01*
X015289Y045647D01*
X015285Y045648D01*
X015281Y045649D01*
X015277Y045651D01*
X015273Y045653D01*
X01527Y045656D01*
Y045657D01*
X015269Y045657D01*
X015268Y045659D01*
X015267Y045662D01*
X015266Y045666D01*
X015266Y045672D01*
X015264Y045679D01*
Y045688D01*
Y04583D01*
Y04583D01*
Y045831D01*
Y045834D01*
X015265Y045838D01*
Y045843D01*
X015266Y045849D01*
X015267Y045854D01*
X015269Y045859D01*
X015271Y045862D01*
X015272Y045863D01*
X015272Y045863D01*
X015274Y045865D01*
X015276Y045866D01*
X015279Y045868D01*
X015283Y045869D01*
X015288Y045871D01*
X015294Y045871D01*
Y045647D01*
D02*
G37*
G36*
X013758Y045695D02*
Y045694D01*
Y045692D01*
Y045688D01*
Y045684D01*
X013757Y045679D01*
Y045675D01*
X013756Y045671D01*
X013756Y045668D01*
X013755Y045667D01*
X013754Y045665D01*
X013752Y045663D01*
X013749Y045661D01*
X013748D01*
X013748Y04566D01*
X013746Y04566D01*
X013743Y045659D01*
X013741Y045658D01*
X013737Y045658D01*
X013733Y045657D01*
X013724D01*
X013721Y045658D01*
X013718Y045658D01*
X013713Y045659D01*
X013704Y045661D01*
X013693Y045664D01*
X013682Y04567D01*
X013677Y045673D01*
X013672Y045677D01*
X013667Y045682D01*
X013663Y045687D01*
X013662Y045687D01*
X013661Y045688D01*
X01366Y045691D01*
X013658Y045694D01*
X013655Y045699D01*
X013653Y045703D01*
X013649Y04571D01*
X013647Y045717D01*
X013644Y045725D01*
X013641Y045735D01*
X013638Y045744D01*
X013636Y045756D01*
X013634Y045768D01*
X013632Y045782D01*
X013631Y045796D01*
X013631Y045811D01*
Y045812D01*
Y045814D01*
Y045818D01*
X013631Y045823D01*
Y045828D01*
X013632Y045835D01*
X013632Y045842D01*
X013634Y04585D01*
X013636Y045867D01*
X01364Y045885D01*
X013645Y045903D01*
X013648Y045912D01*
X013652Y045919D01*
Y04592D01*
X013653Y045921D01*
X013654Y045922D01*
X013655Y045924D01*
X013659Y04593D01*
X013664Y045937D01*
X01367Y045944D01*
X013678Y045951D01*
X013686Y045957D01*
X013696Y045962D01*
X013697Y045963D01*
X0137Y045963D01*
X013704Y045965D01*
X013711Y045967D01*
X013719Y045968D01*
X01373Y045969D01*
X013736Y04597D01*
X013742D01*
X01375Y04597D01*
X013758D01*
Y045695D01*
D02*
G37*
G36*
X013892Y045647D02*
X013875D01*
X013872Y045647D01*
X013864Y045648D01*
X01386Y045649D01*
X013857Y045651D01*
X013856D01*
X013856Y045652D01*
X013853Y045654D01*
X013848Y045659D01*
X013845Y045664D01*
Y045665D01*
X013844Y045665D01*
X013844Y045667D01*
X013843Y04567D01*
Y045675D01*
X013843Y045681D01*
X013842Y045688D01*
Y045697D01*
Y04593D01*
Y045931D01*
Y045931D01*
Y045934D01*
Y045939D01*
X013843Y045944D01*
Y04595D01*
X013843Y045955D01*
X013844Y04596D01*
X013845Y045963D01*
Y045964D01*
X013846Y045964D01*
X013848Y045968D01*
X013851Y045972D01*
X013854Y045974D01*
X013857Y045975D01*
X013857D01*
X013859Y045976D01*
X01386Y045977D01*
X013863Y045978D01*
X013866Y045979D01*
X013871Y04598D01*
X013875Y045981D01*
X013892D01*
Y045647D01*
D02*
G37*
G36*
X014549Y04563D02*
X014508D01*
X014512Y045631D01*
X014516Y045632D01*
X014521Y045634D01*
X014526Y045636D01*
X014531Y045639D01*
X014536Y045643D01*
X014537Y045643D01*
X014538Y045645D01*
X01454Y045648D01*
X014542Y045652D01*
X014545Y045656D01*
X014547Y045661D01*
X014548Y045667D01*
X014549Y045673D01*
Y04563D01*
D02*
G37*
D10*
X038357Y03298D02*
X038147D01*
X038252D01*
Y032665D01*
X038042D02*
Y03298D01*
X037885D01*
X037832Y032928D01*
Y032823D01*
X037885Y03277D01*
X038042D01*
X037517Y03298D02*
X037622Y032928D01*
X037727Y032823D01*
Y032718D01*
X037675Y032665D01*
X03757D01*
X037517Y032718D01*
Y03277D01*
X03757Y032823D01*
X037727D01*
X032628Y048453D02*
X032419D01*
X032524D01*
Y048138D01*
X032314D02*
Y048453D01*
X032156D01*
X032104Y0484D01*
Y048295D01*
X032156Y048243D01*
X032314D01*
X031789Y048453D02*
X031999D01*
Y048295D01*
X031894Y048348D01*
X031841D01*
X031789Y048295D01*
Y04819D01*
X031841Y048138D01*
X031946D01*
X031999Y04819D01*
X032628Y047815D02*
X032419D01*
X032524D01*
Y0475D01*
X032314D02*
Y047815D01*
X032156D01*
X032104Y047762D01*
Y047657D01*
X032156Y047605D01*
X032314D01*
X031841Y0475D02*
Y047815D01*
X031999Y047657D01*
X031789D01*
X032628Y04911D02*
X032419D01*
X032524D01*
Y048795D01*
X032314D02*
Y04911D01*
X032156D01*
X032104Y049058D01*
Y048953D01*
X032156Y0489D01*
X032314D01*
X031999Y049058D02*
X031946Y04911D01*
X031841D01*
X031789Y049058D01*
Y049005D01*
X031841Y048953D01*
X031894D01*
X031841D01*
X031789Y0489D01*
Y048848D01*
X031841Y048795D01*
X031946D01*
X031999Y048848D01*
X038357Y031685D02*
X038147D01*
X038252D01*
Y03137D01*
X038042D02*
Y031685D01*
X037885D01*
X037832Y031633D01*
Y031528D01*
X037885Y031475D01*
X038042D01*
X037517Y03137D02*
X037727D01*
X037517Y03158D01*
Y031633D01*
X03757Y031685D01*
X037675D01*
X037727Y031633D01*
X038252Y032374D02*
X038042D01*
X038147D01*
Y032059D01*
X037937D02*
Y032374D01*
X03778D01*
X037727Y032321D01*
Y032217D01*
X03778Y032164D01*
X037937D01*
X037622Y032059D02*
X037517D01*
X03757D01*
Y032374D01*
X037622Y032321D01*
X038317Y043114D02*
Y042852D01*
X038265Y042799D01*
X03816D01*
X038108Y042852D01*
Y043114D01*
X038003Y043062D02*
X03795Y043114D01*
X037845D01*
X037793Y043062D01*
Y043009D01*
X037845Y042957D01*
X037793Y042904D01*
Y042852D01*
X037845Y042799D01*
X03795D01*
X038003Y042852D01*
Y042904D01*
X03795Y042957D01*
X038003Y043009D01*
Y043062D01*
X03795Y042957D02*
X037845D01*
X04022Y049266D02*
X040273Y049319D01*
X040378D01*
X04043Y049266D01*
Y049214D01*
X040378Y049161D01*
X040273D01*
X04022Y049109D01*
Y049056D01*
X040273Y049004D01*
X040378D01*
X04043Y049056D01*
X040116Y049004D02*
X040011D01*
X040063D01*
Y049319D01*
X040116Y049266D01*
X035825Y042799D02*
Y043114D01*
X035668D01*
X035615Y043062D01*
Y042957D01*
X035668Y042904D01*
X035825D01*
X03572D02*
X035615Y042799D01*
X03551Y043062D02*
X035458Y043114D01*
X035353D01*
X035301Y043062D01*
Y043009D01*
X035353Y042957D01*
X035406D01*
X035353D01*
X035301Y042904D01*
Y042852D01*
X035353Y042799D01*
X035458D01*
X03551Y042852D01*
X035196Y043062D02*
X035143Y043114D01*
X035038D01*
X034986Y043062D01*
Y042852D01*
X035038Y042799D01*
X035143D01*
X035196Y042852D01*
Y043062D01*
X034731Y042799D02*
Y043114D01*
X034573D01*
X034521Y043062D01*
Y042957D01*
X034573Y042904D01*
X034731D01*
X034626D02*
X034521Y042799D01*
X034206D02*
X034416D01*
X034206Y043009D01*
Y043062D01*
X034259Y043114D01*
X034364D01*
X034416Y043062D01*
X034101Y042852D02*
X034049Y042799D01*
X033944D01*
X033891Y042852D01*
Y043062D01*
X033944Y043114D01*
X034049D01*
X034101Y043062D01*
Y043009D01*
X034049Y042957D01*
X033891D01*
X036939Y042799D02*
Y043114D01*
X036782D01*
X03673Y043062D01*
Y042957D01*
X036782Y042904D01*
X036939D01*
X036835D02*
X03673Y042799D01*
X036415D02*
X036625D01*
X036415Y043009D01*
Y043062D01*
X036467Y043114D01*
X036572D01*
X036625Y043062D01*
X03631D02*
X036257Y043114D01*
X036152D01*
X0361Y043062D01*
Y043009D01*
X036152Y042957D01*
X0361Y042904D01*
Y042852D01*
X036152Y042799D01*
X036257D01*
X03631Y042852D01*
Y042904D01*
X036257Y042957D01*
X03631Y043009D01*
Y043062D01*
X036257Y042957D02*
X036152D01*
X036547Y038987D02*
X0366Y039039D01*
X036705D01*
X036757Y038987D01*
Y038777D01*
X036705Y038724D01*
X0366D01*
X036547Y038777D01*
X036442Y039039D02*
X036232D01*
Y038987D01*
X036442Y038777D01*
Y038724D01*
X036127D02*
X036022D01*
X036075D01*
Y039039D01*
X036127Y038987D01*
X039627Y039711D02*
X03968Y039764D01*
X039785D01*
X039837Y039711D01*
Y039501D01*
X039785Y039449D01*
X03968D01*
X039627Y039501D01*
X039365Y039449D02*
Y039764D01*
X039522Y039606D01*
X039312D01*
X038998Y039764D02*
X039102Y039711D01*
X039207Y039606D01*
Y039501D01*
X039155Y039449D01*
X03905D01*
X038998Y039501D01*
Y039554D01*
X03905Y039606D01*
X039207D01*
X038525Y039711D02*
X038577Y039764D01*
X038682D01*
X038735Y039711D01*
Y039501D01*
X038682Y039449D01*
X038577D01*
X038525Y039501D01*
X038262Y039449D02*
Y039764D01*
X03842Y039606D01*
X03821D01*
X037895Y039764D02*
X038105D01*
Y039606D01*
X038Y039659D01*
X037948D01*
X037895Y039606D01*
Y039501D01*
X037948Y039449D01*
X038053D01*
X038105Y039501D01*
X034545Y038987D02*
X034597Y039039D01*
X034702D01*
X034754Y038987D01*
Y038777D01*
X034702Y038724D01*
X034597D01*
X034545Y038777D01*
X034282Y038724D02*
Y039039D01*
X03444Y038882D01*
X03423D01*
X033967Y038724D02*
Y039039D01*
X034125Y038882D01*
X033915D01*
X0356Y038987D02*
X035652Y039039D01*
X035757D01*
X03581Y038987D01*
Y038777D01*
X035757Y038724D01*
X035652D01*
X0356Y038777D01*
X035337Y038724D02*
Y039039D01*
X035495Y038882D01*
X035285D01*
X03518Y038987D02*
X035127Y039039D01*
X035022D01*
X03497Y038987D01*
Y038934D01*
X035022Y038882D01*
X035075D01*
X035022D01*
X03497Y038829D01*
Y038777D01*
X035022Y038724D01*
X035127D01*
X03518Y038777D01*
D11*
X037835Y041588D02*
X03837D01*
X037835Y042514D02*
X03837D01*
D13*
X033386Y048929D02*
G03*
X033386Y048929I-000236J0D01*
G01*
Y048311D02*
G03*
X033386Y048311I-000236J0D01*
G01*
Y047669D02*
G03*
X033386Y047669I-000236J0D01*
G01*
X039248Y031563D02*
G03*
X039248Y031563I-000236J0D01*
G01*
X03924Y032248D02*
G03*
X03924Y032248I-000236J0D01*
G01*
X039256Y032894D02*
G03*
X039256Y032894I-000236J0D01*
G01*
D16*
X037656Y041535D02*
G03*
X037656Y041535I-000049J0D01*
G01*
D19*
X034449Y040717D02*
X035087D01*
X034449Y03937D02*
X035087D01*
X034449D02*
Y039728D01*
X035087Y03937D02*
Y039728D01*
Y040358D02*
Y040717D01*
X034449Y040358D02*
Y040717D01*
X035276D02*
X035913D01*
X035276Y03937D02*
X035913D01*
X035276D02*
Y039728D01*
X035913Y03937D02*
Y039728D01*
Y040358D02*
Y040717D01*
X035276Y040358D02*
Y040717D01*
X036102Y040705D02*
X03674D01*
X036102Y039358D02*
X03674D01*
X036102D02*
Y039717D01*
X03674Y039358D02*
Y039717D01*
Y040346D02*
Y040705D01*
X036102Y040346D02*
Y040705D01*
X038142Y041331D02*
X03878D01*
X038142Y039984D02*
X03878D01*
X038142D02*
Y040343D01*
X03878Y039984D02*
Y040343D01*
Y040972D02*
Y041331D01*
X038142Y040972D02*
Y041331D01*
X039012Y041323D02*
X03965D01*
X039012Y039976D02*
X03965D01*
X039012D02*
Y040335D01*
X03965Y039976D02*
Y040335D01*
Y040965D02*
Y041323D01*
X039012Y040965D02*
Y041323D01*
X036114Y041236D02*
X036752D01*
X036114Y042583D02*
X036752D01*
Y041236D02*
Y042583D01*
X036114Y041236D02*
Y042583D01*
X035281Y041249D02*
X035919D01*
X035281Y042596D02*
X035919D01*
Y041249D02*
Y042596D01*
X035281Y041249D02*
Y042596D01*
X034454Y041253D02*
X035092D01*
X034454Y0426D02*
X035092D01*
Y041253D02*
Y0426D01*
X034454Y041253D02*
Y0426D01*
D142*
X034886Y043898D02*
X039386D01*
X034586Y044698D02*
Y048348D01*
X039686Y044698D02*
Y048348D01*
X034836Y049398D02*
X039436D01*
M02*
