G04*
G04 #@! TF.GenerationSoftware,Altium Limited,Altium Designer,21.0.8 (223)*
G04*
G04 Layer_Physical_Order=2*
G04 Layer_Color=1275346*
%FSTAX24Y24*%
%MOIN*%
G70*
G04*
G04 #@! TF.SameCoordinates,802AE027-55FB-4EE0-B797-8BAC3B94A1FA*
G04*
G04*
G04 #@! TF.FilePolarity,Positive*
G04*
G01*
G75*
%ADD10C,0.0100*%
%ADD11C,0.0079*%
%ADD20C,0.0197*%
%ADD30R,0.0394X0.0433*%
%ADD106C,0.0100*%
%ADD113R,0.1260X0.0591*%
%ADD114C,0.0591*%
%ADD115R,0.0591X0.0591*%
%ADD116O,0.0600X0.0900*%
%ADD117R,0.0600X0.0900*%
%ADD118C,0.1200*%
%ADD119C,0.0197*%
%ADD120C,0.1100*%
%ADD121R,0.0591X0.0591*%
%ADD122C,0.2953*%
%ADD123C,0.0827*%
%ADD124C,0.1102*%
%ADD125R,0.0900X0.0650*%
%ADD126O,0.0900X0.0650*%
%ADD127C,0.0984*%
%ADD128C,0.0118*%
%ADD129C,0.0276*%
%ADD130C,0.0236*%
%ADD131C,0.0394*%
%ADD132R,0.0276X0.0449*%
%ADD133R,0.0315X0.0827*%
%ADD134R,0.0236X0.0449*%
G04:AMPARAMS|DCode=135|XSize=52.8mil|YSize=15.7mil|CornerRadius=3.9mil|HoleSize=0mil|Usage=FLASHONLY|Rotation=180.000|XOffset=0mil|YOffset=0mil|HoleType=Round|Shape=RoundedRectangle|*
%AMROUNDEDRECTD135*
21,1,0.0528,0.0079,0,0,180.0*
21,1,0.0449,0.0157,0,0,180.0*
1,1,0.0079,-0.0224,0.0039*
1,1,0.0079,0.0224,0.0039*
1,1,0.0079,0.0224,-0.0039*
1,1,0.0079,-0.0224,-0.0039*
%
%ADD135ROUNDEDRECTD135*%
%ADD136C,0.0150*%
G36*
X045748Y049717D02*
Y049713D01*
X045748D01*
X045748Y049476D01*
X045748D01*
X045748Y04898D01*
X045748Y048346D01*
Y046772D01*
X046102Y046417D01*
X046811D01*
X046811Y045984D01*
X046811D01*
X046811Y045899D01*
X046789Y04573D01*
X046745Y045566D01*
X04668Y045408D01*
X046594Y045261D01*
X046491Y045126D01*
X04637Y045005D01*
X046235Y044902D01*
X046088Y044817D01*
X04593Y044751D01*
X045766Y044707D01*
X045597Y044685D01*
X045512D01*
X04126Y044685D01*
Y044843D01*
Y046417D01*
Y047992D01*
X040906Y048346D01*
X034142D01*
Y049083D01*
X033748Y049476D01*
X032965D01*
X032642Y049154D01*
X032642Y039209D01*
X034028Y037823D01*
X035303D01*
Y03752D01*
X031969D01*
X031339Y03752D01*
X031098Y03776D01*
Y038228D01*
Y04076D01*
X030854Y041004D01*
X028583Y041004D01*
X027618D01*
X027421Y040807D01*
Y039181D01*
X027555Y039047D01*
X028457D01*
X028854Y03865D01*
Y036764D01*
X02952Y036098D01*
X03663D01*
Y036102D01*
X042217D01*
X042835Y03672D01*
Y040984D01*
X043268Y041417D01*
X04689Y041417D01*
X047165Y041693D01*
Y043032D01*
X047008Y043189D01*
X04124D01*
Y043583D01*
X045866D01*
X04602Y043597D01*
X046324Y043654D01*
X046619Y043746D01*
X0469Y043873D01*
X047164Y044034D01*
X047408Y044224D01*
X047626Y044443D01*
X047817Y044686D01*
X047977Y04495D01*
X048104Y045232D01*
X048197Y045527D01*
X048253Y04583D01*
X048268Y045984D01*
X048268Y045984D01*
Y046417D01*
X048912Y046417D01*
X049244Y046417D01*
Y046417D01*
X049244D01*
X049244Y041419D01*
X049244D01*
X049244Y03815D01*
X048906Y03815D01*
Y03815D01*
X048362D01*
X048358Y038146D01*
Y03815D01*
X048165D01*
Y035354D01*
Y032835D01*
X045551D01*
X0455Y032886D01*
X0455Y035012D01*
X044984Y035528D01*
X043189D01*
X043189Y035748D01*
X043071Y035866D01*
X039882Y035866D01*
X039488D01*
X03874Y035118D01*
Y034685D01*
X038661Y034606D01*
X038307Y034606D01*
X037953D01*
X037717Y03437D01*
Y033813D01*
X037868Y033661D01*
X03815D01*
X038197Y033661D01*
Y033307D01*
X038197Y031402D01*
X038807Y030791D01*
X039567D01*
X039614Y030744D01*
X040476Y029882D01*
X04185D01*
X041968Y03D01*
Y030748D01*
X041929Y030787D01*
X041181Y030787D01*
X041102Y030866D01*
Y032205D01*
Y034512D01*
X04128Y034689D01*
X044622Y034689D01*
X044745Y034566D01*
X044744Y032205D01*
X044744D01*
Y032102D01*
Y030674D01*
X044866Y030551D01*
X045866Y030551D01*
X046102Y030315D01*
X046102Y028898D01*
X046102D01*
X046102Y026319D01*
X045925Y026142D01*
X044185Y026142D01*
X04365Y025606D01*
Y024992D01*
X043287Y02463D01*
X037988D01*
X037835Y024783D01*
X037835Y026299D01*
X036972Y027161D01*
X03585D01*
D01*
X032925Y027161D01*
X032744Y027343D01*
X032744Y029805D01*
X032508Y03004D01*
X031781D01*
X031663Y030042D01*
X031575Y03013D01*
Y03257D01*
X031389Y032756D01*
X030902Y032756D01*
X030776Y032882D01*
Y034756D01*
X030835Y034815D01*
X031618D01*
X035689Y034815D01*
X035795Y034921D01*
X035795Y035701D01*
X035669Y035827D01*
X030272Y035827D01*
X029972Y035528D01*
Y033831D01*
X027976Y035827D01*
X025131Y035827D01*
Y035827D01*
X022209D01*
X022024Y035642D01*
X022024Y034862D01*
X022244Y034642D01*
X026654D01*
X027655Y034641D01*
X028854Y033441D01*
X028854Y032933D01*
X028799Y032878D01*
X027059Y032878D01*
X026819Y032638D01*
Y032165D01*
X026819D01*
X026819Y030709D01*
X026677Y030567D01*
X02626D01*
X025968Y030276D01*
X025968Y012492D01*
X0265Y011961D01*
X031697D01*
Y011957D01*
X031945Y012205D01*
Y0138D01*
X03178Y013965D01*
X029087Y013965D01*
X029012Y014039D01*
X029012Y019064D01*
X028823Y019253D01*
X027133D01*
X027047Y019339D01*
X027047Y02015D01*
X027158Y02026D01*
X028823Y02026D01*
X029012Y020449D01*
Y021209D01*
X029012Y024811D01*
X028843Y02498D01*
X027138Y02498D01*
X027012Y025106D01*
X027012Y026039D01*
X02713Y026157D01*
X028886Y026157D01*
X029457Y025591D01*
X03515D01*
X035299Y025441D01*
Y023126D01*
X035173Y023D01*
X033091Y023D01*
X032563Y023D01*
X032362Y022799D01*
Y020866D01*
Y013968D01*
X032358Y013965D01*
X032362Y013961D01*
Y01213D01*
Y011776D01*
X032197Y01161D01*
Y010748D01*
Y010551D01*
X010118Y010551D01*
Y01063D01*
X010111D01*
Y012988D01*
X010109D01*
Y049642D01*
X010109Y049642D01*
Y049713D01*
X010113D01*
Y049717D01*
X03122Y049717D01*
X032642D01*
Y049713D01*
X034142D01*
Y049717D01*
X045748Y049717D01*
D02*
G37*
G36*
X033346Y047299D02*
X033346D01*
X03315Y047134D01*
Y047496D01*
X033346Y047299D01*
D02*
G37*
G36*
X039469Y047421D02*
X039961Y046929D01*
X039961Y041496D01*
X039961Y041496D01*
Y03937D01*
X039921Y039331D01*
X039374Y038783D01*
X037298D01*
X037298Y038783D01*
X036299Y038783D01*
X033933D01*
X033583Y039134D01*
X033583Y047063D01*
X035277Y047063D01*
X035433Y047219D01*
Y047421D01*
X039469Y047421D01*
D02*
G37*
G36*
X037467Y038092D02*
X037484Y038075D01*
Y037957D01*
X03747Y037943D01*
X037018Y037943D01*
X036992Y037968D01*
Y038059D01*
X037025Y038092D01*
X037467Y038092D01*
D02*
G37*
G36*
X046929Y042756D02*
X046929Y041929D01*
X046732Y041732D01*
X043031D01*
X042559Y04126D01*
X042559Y03685D01*
X041972Y036264D01*
X029839Y036264D01*
X029173Y036929D01*
X029173Y03874D01*
Y038835D01*
X028598Y039409D01*
X027866Y039409D01*
X027728Y039547D01*
X027728Y040354D01*
X027846Y040472D01*
X029252Y040472D01*
X03037D01*
X03063Y040213D01*
X03063Y03874D01*
D01*
Y038701D01*
Y038622D01*
D01*
X03063Y037559D01*
X031024Y037165D01*
X041181D01*
X041457Y037441D01*
X041457Y042669D01*
X04174Y042953D01*
X046732Y042953D01*
X046929Y042756D01*
D02*
G37*
G36*
X045079Y035185D02*
D01*
X045307Y034957D01*
Y032777D01*
X045438Y032646D01*
X048654Y032646D01*
X048654Y032283D01*
X045454Y032283D01*
X045307Y032137D01*
Y031449D01*
X045417Y031339D01*
X046571D01*
X046811Y031098D01*
X046811Y026732D01*
Y026102D01*
Y025783D01*
X046579Y025551D01*
X044685D01*
X044413Y02528D01*
Y024043D01*
X044264Y023894D01*
X043937Y023894D01*
Y023894D01*
X037512Y023894D01*
X037142Y024264D01*
Y025862D01*
X036508Y026496D01*
X032421Y026496D01*
X032304Y026613D01*
X032304D01*
X032079Y026839D01*
X032079Y029087D01*
X03189Y029276D01*
X031102Y029276D01*
X030957Y029421D01*
X030957Y032508D01*
Y032516D01*
X030963Y03253D01*
X030974Y032541D01*
X030988Y032547D01*
X030996Y032547D01*
X030996Y032547D01*
X031362Y032547D01*
X031398Y032512D01*
X031398Y03D01*
X031555Y029843D01*
X032079Y029843D01*
Y029843D01*
X032315Y029843D01*
X032524Y029634D01*
X032524Y027146D01*
X032732Y026937D01*
Y026933D01*
X036819Y026933D01*
X037606Y026146D01*
Y024543D01*
X037831Y024319D01*
X043665D01*
X043937Y024591D01*
Y025453D01*
X044421Y025937D01*
X04615D01*
X046261Y026048D01*
X046261Y026259D01*
D01*
Y03059D01*
X046102Y030748D01*
X045039Y030748D01*
X045Y030787D01*
X045Y030787D01*
X044936Y030852D01*
X044921Y030866D01*
Y030866D01*
X044878Y030909D01*
X044878Y034748D01*
X04474Y034886D01*
X041106D01*
X040906Y034685D01*
Y03122D01*
X040906Y030768D01*
X041005Y030669D01*
X041772Y030669D01*
X04185Y030591D01*
X04185Y030118D01*
X041811Y030079D01*
X041378Y030079D01*
X041378Y030079D01*
X040736Y030079D01*
X040461Y030354D01*
X040461D01*
X040354Y030461D01*
Y031772D01*
X040354Y033622D01*
X040118Y033858D01*
X038543Y033858D01*
X03815Y033858D01*
X038071Y033937D01*
X038071Y034331D01*
X03815Y034409D01*
X039724D01*
X040157Y034843D01*
Y035276D01*
X040236Y035354D01*
X040236Y035354D01*
X040394D01*
X040669Y035354D01*
X04491D01*
X045079Y035185D01*
D02*
G37*
G36*
X035575Y03563D02*
X035588Y035616D01*
X035588D01*
X035622Y035583D01*
D01*
X035622Y035583D01*
X035622Y03537D01*
Y034992D01*
X035583Y034953D01*
X031425Y034953D01*
X030783D01*
X030555Y034724D01*
X030555Y028792D01*
X03084Y028508D01*
X030555Y028386D01*
Y028012D01*
X030409Y028012D01*
X030268D01*
X030134Y028146D01*
X030134Y035346D01*
X030417Y03563D01*
X0305D01*
X03135Y03563D01*
X031665Y03563D01*
X035575Y03563D01*
D02*
G37*
G36*
X028846Y032654D02*
X028846Y031921D01*
X028748Y031823D01*
X027799Y031823D01*
X027685Y031709D01*
Y029839D01*
X027685D01*
Y029425D01*
X027587Y029327D01*
X026906D01*
X026776Y029197D01*
Y0245D01*
X026941Y024335D01*
X027461D01*
X027555Y02424D01*
Y02352D01*
X027028D01*
X026776Y023268D01*
Y019114D01*
X026949Y018941D01*
X027563Y018941D01*
X027657Y018846D01*
X027657Y018188D01*
X027533Y018063D01*
X026724Y018063D01*
X026402Y018386D01*
Y030063D01*
X026661Y030323D01*
X026921Y030323D01*
X027079Y03048D01*
X027079Y032373D01*
X027079Y032594D01*
X027209Y032724D01*
X028776D01*
X028846Y032654D01*
D02*
G37*
G36*
X047913Y032087D02*
Y030185D01*
X048Y030098D01*
X048217Y029882D01*
X049248D01*
X049248Y02501D01*
X049247D01*
Y025008D01*
X04898Y025008D01*
Y025008D01*
X048365D01*
X048361Y025004D01*
Y02501D01*
X047085Y02501D01*
X046929Y025165D01*
X046929Y029921D01*
Y03126D01*
X046634Y031555D01*
X045583Y031555D01*
X045512Y031626D01*
X045512Y032083D01*
X045555Y032126D01*
X047874Y032126D01*
X047913Y032087D01*
D02*
G37*
G36*
X045083Y021339D02*
Y019685D01*
Y019339D01*
X045248Y019173D01*
X046276D01*
X04648Y019378D01*
Y019846D01*
X046594Y019961D01*
X047402D01*
X047507Y019855D01*
Y019173D01*
X047559Y019121D01*
Y019121D01*
X047901Y01878D01*
X049213D01*
Y017835D01*
X049209D01*
Y017008D01*
X047362D01*
X047244Y01689D01*
Y013504D01*
X04922Y013504D01*
X04922Y01142D01*
X04922Y010586D01*
X046303D01*
X046303Y010587D01*
X044724D01*
X044724Y010783D01*
X044724D01*
Y01248D01*
X044252Y012953D01*
X04374D01*
X04374Y016713D01*
X043996Y016968D01*
X046063D01*
X046272Y017177D01*
X046272Y017665D01*
X046102Y017835D01*
X043425D01*
X04252Y016929D01*
X04252Y014882D01*
X040945D01*
X040748Y014685D01*
Y013386D01*
X04063D01*
X033421Y013386D01*
X033268Y013539D01*
X033268Y021575D01*
X033622Y021929D01*
X042205D01*
X042209Y021925D01*
X042634D01*
X04287Y022161D01*
Y022815D01*
X042929Y022874D01*
X043547D01*
X045083Y021339D01*
D02*
G37*
G36*
X027815Y035531D02*
X029579Y033768D01*
Y027972D01*
D01*
X029579Y026673D01*
X030071Y026181D01*
X035835Y026181D01*
X036157Y025858D01*
X036157Y02374D01*
X036417Y02348D01*
X044343Y02348D01*
X045154Y022669D01*
X048953D01*
X049016Y022606D01*
Y021783D01*
D01*
Y020244D01*
X048886Y020114D01*
X047811D01*
X047736Y020189D01*
Y020575D01*
X047512Y020799D01*
X046362D01*
X046024Y020461D01*
X046024Y019571D01*
X045961Y019508D01*
X045402D01*
X045339Y019571D01*
X045339Y021441D01*
X04452Y022259D01*
X044512Y02226D01*
X04374Y023031D01*
X036045D01*
X035535Y023541D01*
Y025622D01*
X035386Y025772D01*
X029685D01*
X029083Y026374D01*
Y027972D01*
X029083Y033496D01*
X02763Y034949D01*
X022335D01*
X022276Y035008D01*
Y035492D01*
X022315Y035531D01*
X027815Y035531D01*
Y035531D01*
D02*
G37*
G36*
X042441Y022717D02*
X042441Y022244D01*
X042362Y022165D01*
X033385D01*
X033114Y021894D01*
Y013362D01*
X033343Y013134D01*
X037016Y013134D01*
X037179Y01297D01*
X037179Y012512D01*
X037163D01*
Y011945D01*
X036596Y012512D01*
X035541Y012512D01*
X034952Y011923D01*
Y0119D01*
X034941Y011911D01*
X034903Y011873D01*
X034905Y011947D01*
X03434Y012512D01*
X033409Y012512D01*
X032799Y011902D01*
X032815Y012512D01*
X032724D01*
X032724Y013041D01*
X032724Y013041D01*
X032724Y022165D01*
X032724D01*
Y022602D01*
X032917Y022795D01*
X042362Y022795D01*
X042441Y022717D01*
D02*
G37*
%LPC*%
G36*
X012565Y049476D02*
X010701D01*
Y047165D01*
X012565D01*
Y049476D01*
D02*
G37*
G36*
X026654Y048898D02*
D01*
X026654Y041215D01*
X026654D01*
Y048898D01*
D02*
G37*
G36*
X042835Y03815D02*
X042835Y036654D01*
D01*
Y03815D01*
X042835D01*
D02*
G37*
G36*
X038307Y034882D02*
X038271Y034846D01*
X038307Y034811D01*
Y034882D01*
D02*
G37*
G36*
X037402Y034583D02*
X037357Y034567D01*
X037402D01*
Y034583D01*
D02*
G37*
G36*
X038071Y033307D02*
X037717D01*
X038071Y033307D01*
X038071Y033307D01*
D02*
G37*
G36*
X04414Y031971D02*
X044055Y031886D01*
Y031142D01*
Y031024D01*
Y030669D01*
X044173Y030551D01*
X044409D01*
X044547Y03069D01*
X044547Y031894D01*
X04447Y031971D01*
X04414Y031971D01*
D02*
G37*
G36*
X017717Y034134D02*
X011417D01*
X010701Y033417D01*
X010701Y013299D01*
X012039Y011961D01*
X021858Y011961D01*
X022122Y012224D01*
Y015079D01*
X021955Y015246D01*
X02076D01*
X020543Y015463D01*
X020543Y016467D01*
X020744Y016667D01*
X021947Y016667D01*
X022122Y016843D01*
Y02137D01*
X021898Y021594D01*
X020764D01*
X020547Y021811D01*
X020547Y022815D01*
X020748Y023016D01*
X021965Y023016D01*
X022122Y023173D01*
Y027955D01*
X02197Y028106D01*
X020618Y028106D01*
X02052Y028205D01*
X02052Y029307D01*
X020644Y029431D01*
X021967Y029431D01*
X022122Y029587D01*
Y031886D01*
X021843Y032165D01*
X019846Y032165D01*
X017878Y034134D01*
X017717D01*
X017717Y034134D01*
D02*
G37*
G36*
X04443Y029921D02*
X044326Y029817D01*
Y029627D01*
X044807Y029146D01*
X04526Y028693D01*
X045409D01*
X045583Y028867D01*
Y028984D01*
X044882Y029685D01*
X044646Y029921D01*
X04443D01*
D02*
G37*
G36*
X043319Y031875D02*
X043228Y031784D01*
Y028646D01*
X043228Y028638D01*
X043228Y028047D01*
X042768Y027587D01*
X042157D01*
X041929Y027815D01*
Y028075D01*
X041736Y028268D01*
X040236D01*
X038622Y029882D01*
X036815Y029882D01*
X036709Y029776D01*
Y029521D01*
X036773Y029457D01*
X038004Y029457D01*
X040091Y02737D01*
X040409D01*
X040496Y027283D01*
X040496Y027055D01*
X040571Y02698D01*
X042886D01*
X043307Y027402D01*
X043539Y027634D01*
X045512D01*
X045583Y027705D01*
X045583Y027941D01*
X045205Y028319D01*
X043898D01*
X04374Y028476D01*
Y029382D01*
X043744Y029386D01*
Y03039D01*
X04374Y030394D01*
X04374Y031142D01*
Y031815D01*
X04368Y031875D01*
X043319Y031875D01*
D02*
G37*
%LPD*%
G36*
X014496Y033319D02*
X014496Y032142D01*
X013677Y032142D01*
X013201Y031665D01*
Y030402D01*
X013142Y030343D01*
X011512Y030343D01*
X011429Y030425D01*
X011429Y032823D01*
X011925Y033319D01*
X014496Y033319D01*
D02*
G37*
G36*
X017591Y033319D02*
X018961Y031949D01*
X018961Y027819D01*
Y027469D01*
X01926Y027169D01*
X020717D01*
X020878Y027008D01*
X020878Y025945D01*
X020713Y02578D01*
X019339Y02578D01*
X018961Y025402D01*
X018961Y021004D01*
X019358Y020606D01*
X020673D01*
X020866Y020413D01*
Y019583D01*
X020697Y019413D01*
X019236Y019413D01*
X01889Y019067D01*
X01889Y014598D01*
X019276Y014213D01*
X020819Y014213D01*
X020913Y014118D01*
Y013055D01*
X020693Y012835D01*
X01802D01*
X017201Y013654D01*
Y014846D01*
X016913Y015134D01*
X014669Y015134D01*
X012394Y017409D01*
X011429Y017409D01*
X011378Y017461D01*
X011378Y018744D01*
X01148Y018846D01*
X012882Y018846D01*
X015122Y016606D01*
X016791Y016606D01*
X017201Y017016D01*
X017201Y020606D01*
D01*
X017201Y027091D01*
X016713Y027579D01*
X014622Y027579D01*
X013201Y026157D01*
X013201Y023681D01*
X013067Y023547D01*
X011539Y023547D01*
X011386Y023701D01*
X011386Y026488D01*
X013799Y028902D01*
X016657Y028902D01*
X017024Y029268D01*
X017024Y031567D01*
X016449Y032142D01*
X014496D01*
X014496Y033319D01*
X017591Y033319D01*
D02*
G37*
%LPC*%
G36*
X039094Y044764D02*
X037047D01*
X03689Y044606D01*
X036693Y044409D01*
X036693Y044252D01*
X03669D01*
Y044134D01*
X035157Y044134D01*
X034764Y04374D01*
X034252Y04374D01*
X033937Y043425D01*
Y040197D01*
X034213Y039921D01*
X036772D01*
X03689Y040039D01*
Y041457D01*
X037047Y041614D01*
X037874D01*
X037913Y041575D01*
Y040669D01*
X038071Y040512D01*
X039567D01*
X039685Y04063D01*
Y041417D01*
X039606Y041496D01*
X039394D01*
X039394Y044465D01*
X039094Y044764D01*
D02*
G37*
%LPD*%
G36*
X03878Y044213D02*
Y043819D01*
X03874Y04378D01*
X038386Y04378D01*
X038268Y043898D01*
Y043973D01*
X038225Y044016D01*
X037916D01*
X037874Y043974D01*
Y04378D01*
X037598Y04374D01*
Y044213D01*
X037717Y044331D01*
X038661D01*
X03878Y044213D01*
D02*
G37*
G36*
X039094Y044449D02*
Y041339D01*
X039173Y04126D01*
X039528D01*
Y040748D01*
X038189D01*
Y041875D01*
X038869D01*
X038937Y041943D01*
X038937Y044274D01*
X038778Y044433D01*
X037489D01*
X037374Y044317D01*
Y04378D01*
X037104D01*
Y04396D01*
X037049Y044016D01*
X03685D01*
X036811Y044055D01*
Y044331D01*
X036929Y044449D01*
X036929Y044449D01*
X037024Y044543D01*
X037075Y044594D01*
X038949D01*
X039094Y044449D01*
D02*
G37*
%LPC*%
G36*
X041368Y030364D02*
X041211D01*
X04122Y030354D01*
Y030354D01*
X041368Y030354D01*
Y030364D01*
D02*
G37*
G36*
X041094D02*
X040718D01*
X040709Y030354D01*
X041102Y030354D01*
X041094Y030363D01*
Y030364D01*
D02*
G37*
%LPD*%
D10*
X03526Y035403D02*
G03*
X035275Y035402I000014J000099D01*
G01*
X044109Y037278D02*
G03*
X044035Y037243I000001J-0001D01*
G01*
X043811Y036984D02*
G03*
X043796Y036961I000076J-000065D01*
G01*
X043419Y036511D02*
G03*
X043403Y036499I000052J-000085D01*
G01*
X043113Y036254D02*
G03*
X043112Y036254I000063J-000078D01*
G01*
X043091Y036236D02*
G03*
X043066Y036207I000063J-000078D01*
G01*
X039699Y045338D02*
G03*
X039671Y045401I-0001J-000007D01*
G01*
X043077Y036191D02*
G03*
X043056Y036181I000094J-000207D01*
G01*
X042685Y035934D02*
G03*
X042742Y035952I-0J0001D01*
G01*
X045782Y027632D02*
G03*
X045775Y027667I-0001J-0D01*
G01*
X045714Y027866D02*
G03*
X045718Y027817I000227J-000007D01*
G01*
X045715Y027379D02*
G03*
X045782Y027473I-000033J000094D01*
G01*
X023771Y029023D02*
G03*
X023797Y029108I-000073J000068D01*
G01*
X023783Y028972D02*
G03*
X02377Y029022I-0001J0D01*
G01*
X023754Y016109D02*
G03*
X023783Y016179I-000071J000071D01*
G01*
X030052Y039143D02*
G03*
X030047Y03911I000095J-00003D01*
G01*
X045682Y026654D02*
G03*
X045782Y026764I-0J0001D01*
G01*
X035275Y035402D02*
X035339D01*
X035275D02*
X035275D01*
X035019Y03525D02*
X03521Y035409D01*
X035017Y035249D02*
X035019Y03525D01*
X034975Y035129D02*
X035017Y035246D01*
X034968Y035111D02*
X034975Y035129D01*
X030749Y0281D02*
X031067D01*
X035017Y035246D02*
Y035249D01*
X03521Y035409D02*
X03526Y035403D01*
X031523Y035102D02*
X03496D01*
X034968Y035111D01*
X039898Y035987D02*
X039903D01*
X03987Y036015D02*
X039898Y035987D01*
X040034D02*
X040087Y035934D01*
X040029Y035987D02*
X040034D01*
X039445Y036015D02*
X03987D01*
X039903Y035998D02*
X040038D01*
X041973Y035934D02*
X042285D01*
X042616D01*
X042685D01*
X040087D02*
X041973D01*
X044293Y030806D02*
X044297Y03081D01*
Y031637D01*
X0443Y031641D01*
X045814Y024843D02*
X04813D01*
X045811Y02484D02*
X045814Y024843D01*
X04813D02*
X04852Y024453D01*
X047471Y03728D02*
Y038027D01*
X047465Y037275D02*
X047471Y03728D01*
X047385Y036263D02*
Y037147D01*
X04752Y03538D02*
Y036082D01*
X04411Y037278D02*
X045096D01*
X044109Y037278D02*
X04411Y037278D01*
X043811Y036984D02*
X043812Y036985D01*
X043745Y036846D02*
X043796Y036961D01*
X043661Y03666D02*
X043745Y036846D01*
X04378Y032323D02*
X044331D01*
X043344Y036443D02*
X043403Y036499D01*
X043113Y036254D02*
X043344Y036443D01*
X043113Y036254D02*
X043113Y036254D01*
X04378Y032323D02*
Y033787D01*
X042893Y033846D02*
X043721D01*
X03967Y045401D02*
X039671Y045401D01*
X039699Y045338D02*
X039712Y045153D01*
X039725Y044969D01*
X039746Y044149D02*
X039779Y0442D01*
X039697Y044074D02*
X039746Y044149D01*
X035024Y045433D02*
X038189D01*
X035024D02*
Y046535D01*
Y044437D02*
Y045354D01*
X043061Y036212D02*
X043077Y036191D01*
X043066Y036207D02*
X043085Y03618D01*
X043077Y036191D02*
X043085Y03618D01*
X042856Y036045D02*
X042939Y036112D01*
X039306Y03601D02*
X0394D01*
X042742Y035952D02*
X042745Y035954D01*
X042685Y035934D02*
X042685D01*
X042874Y030216D02*
Y033827D01*
X0394Y03601D02*
X039445Y035965D01*
X045684Y027876D02*
X045705Y02787D01*
X045714Y027866D02*
X045715Y027867D01*
X045718Y027817D02*
X045747Y027741D01*
X045782Y027632D02*
X045782D01*
X045775Y027632D02*
X045782Y027632D01*
X045708Y02786D02*
X045715Y027867D01*
X045705Y02787D02*
X045715Y027867D01*
X045691Y027843D02*
X045708Y02786D01*
X045782Y027473D02*
Y027632D01*
Y027473D02*
Y027473D01*
X045715Y027379D02*
X045782D01*
X045715Y027378D02*
X045782Y026764D01*
X043366Y026654D02*
X045682D01*
X043307Y026712D02*
Y026866D01*
Y026712D02*
X043366Y026654D01*
X04685Y017402D02*
X048228D01*
X046654Y015472D02*
Y017205D01*
X04871Y012145D02*
X048976D01*
X048236Y012142D02*
X048973D01*
X047726Y011632D02*
X048236Y012142D01*
X046822Y011945D02*
X047807D01*
X045197Y011929D02*
X046471D01*
X045028Y012098D02*
Y013437D01*
Y012098D02*
X045197Y011929D01*
X044049Y018419D02*
X048196D01*
X038236Y017787D02*
X040941D01*
X036535Y028504D02*
Y030114D01*
X031378Y038622D02*
Y047205D01*
X023977Y047319D02*
X025476D01*
X025945Y04685D01*
X025949Y043032D02*
Y046846D01*
X016654Y041339D02*
Y045708D01*
X011748Y044224D02*
Y045028D01*
X011708Y044434D02*
Y046592D01*
X02359Y030374D02*
X023636Y030092D01*
X023689Y029769D01*
X02377Y029022D02*
X023771Y029023D01*
X02377Y029022D02*
X02377Y029022D01*
X023689Y029769D02*
X023797Y029108D01*
X023495Y028747D02*
X02377Y029022D01*
X023548Y030632D02*
X02359Y030374D01*
X023528Y03076D02*
X023548Y030632D01*
X021126Y028747D02*
X023495D01*
X023783Y022848D02*
Y028972D01*
X023783Y022569D02*
X023783Y022848D01*
X023783Y016179D02*
Y022569D01*
X023754Y016109D02*
X023769Y016094D01*
X021248Y022472D02*
X023657D01*
X031148Y035478D02*
X031523Y035102D01*
X030796Y035478D02*
X031148D01*
X03078Y035494D02*
X030796Y035478D01*
X030474Y035187D02*
X03078Y035494D01*
X030474Y028323D02*
Y035187D01*
X04852Y024453D02*
X048589D01*
X032632Y038607D02*
Y038633D01*
X032472Y038793D02*
X032632Y038633D01*
X032472Y038793D02*
Y042974D01*
X045472Y022118D02*
X045524Y022067D01*
Y019909D02*
Y022067D01*
X035913Y023378D02*
Y023839D01*
Y023378D02*
X043949D01*
X03585D02*
X035913D01*
X043949D02*
X045008Y022319D01*
X047654D01*
X048244D02*
X048654D01*
X047654D02*
X048244D01*
X048241Y020465D02*
Y022316D01*
X048244Y022319D01*
X032913Y022638D02*
X042165D01*
X04505Y032272D02*
X045062Y03226D01*
X040496Y034512D02*
Y035177D01*
X045118Y031063D02*
X046102D01*
X041416Y030364D02*
X041578Y030202D01*
X031661Y029681D02*
Y029744D01*
X027358Y023902D02*
X027402D01*
X026528D02*
X027358D01*
X026586Y0185D02*
X027394D01*
X034773Y042261D02*
Y043407D01*
X035276Y039709D02*
X035594D01*
X03569Y042348D02*
Y043552D01*
X037738Y0436D02*
Y044074D01*
X034839Y044252D02*
X035024Y044437D01*
X038189Y045433D02*
X038478D01*
X039725Y044544D02*
Y044969D01*
X037182Y044468D02*
X037194Y044457D01*
X039738Y044397D02*
X039751Y044235D01*
X037736Y043598D02*
X037738Y0436D01*
X034579Y044181D02*
X03465Y044252D01*
X038999Y045433D02*
X039291D01*
X038478D02*
X038779D01*
X03465Y044252D02*
X034839D01*
X039581Y045433D02*
X039638D01*
X037194Y044457D02*
X037248D01*
Y04361D02*
Y044457D01*
X038779Y045433D02*
X038999D01*
X038407Y044132D02*
X038412Y044127D01*
X039725Y044544D02*
X039738Y044397D01*
X037738Y044074D02*
X037797Y044132D01*
X039697Y044181D02*
X039751Y044235D01*
X039638Y045433D02*
X03967Y045401D01*
X039291Y045433D02*
X039581D01*
X037797Y044132D02*
X038407D01*
X034579Y048906D02*
X039697D01*
X037236Y043598D02*
X037248Y04361D01*
X037059Y011051D02*
X037083Y011075D01*
X034929Y012643D02*
X03514Y012854D01*
X02895Y040018D02*
X029007Y039961D01*
X029044Y039961D02*
X029628D01*
X028603Y040194D02*
X028626Y040342D01*
X029007Y039961D02*
X029044Y039961D01*
X028583Y040328D02*
X028626Y040342D01*
X02895Y040018D02*
X02895Y040018D01*
X029628Y039961D02*
X029687Y039902D01*
X030059Y039495D01*
X030069Y039331D01*
X028603Y040111D02*
X028626Y040053D01*
Y040342D02*
X02895Y040018D01*
X029569Y040019D02*
X029628Y039961D01*
X028984Y040053D02*
X029391Y040053D01*
X02895Y040018D02*
X02895Y040018D01*
X029628Y039961D02*
X030394D01*
X028603Y040111D02*
Y040194D01*
X029391Y040053D02*
X029569Y040019D01*
X028626Y040053D02*
X028984D01*
X030064Y038336D02*
X030086Y037288D01*
X030366Y037008D02*
X041831D01*
X030086Y037288D02*
X030366Y037008D01*
X030058Y038593D02*
X030064Y038336D01*
X04189Y037066D02*
Y041575D01*
X041831Y037008D02*
X04189Y037066D01*
Y041575D02*
X042803Y042488D01*
X030069Y039331D02*
X030077Y039219D01*
X030075Y039217D02*
X030077Y039219D01*
X030047Y03911D02*
X030058Y038593D01*
X042803Y042488D02*
X046705D01*
X030052Y039143D02*
X030075Y039217D01*
Y039213D02*
X030394D01*
X038131Y034982D02*
Y035145D01*
X038128Y03498D02*
X038131Y034982D01*
X037997Y034844D02*
X038128Y034975D01*
X037997Y034759D02*
Y034844D01*
X038128Y034975D02*
Y03498D01*
X038131Y035145D02*
X038134Y035148D01*
X038163Y035356D02*
Y035407D01*
X038108Y035301D02*
X038163Y035356D01*
X038108Y035278D02*
Y035301D01*
Y035278D02*
X03813Y035256D01*
Y035151D02*
Y035256D01*
Y035151D02*
X038134Y035148D01*
X038163Y035407D02*
X03874Y035984D01*
X037938Y0347D02*
X037997Y034759D01*
X037721Y0347D02*
X037938D01*
X038927Y035984D02*
X038937Y035974D01*
X039064D01*
X039097Y036007D01*
X039302D02*
X039306Y03601D01*
X039097Y036007D02*
X039302D01*
X038789Y044519D02*
X038972Y044335D01*
Y040992D02*
Y044335D01*
X03731Y044519D02*
X038789D01*
X035315Y039118D02*
Y039669D01*
X035256Y039059D02*
X035315Y039118D01*
X034012Y039059D02*
X035256D01*
X033661Y039409D02*
X034012Y039059D01*
X03874Y035984D02*
X038927D01*
X020562Y045782D02*
Y045794D01*
X043745Y036846D02*
Y036846D01*
X04752Y035315D02*
Y03538D01*
X04283Y036024D02*
X042856Y036045D01*
X045715Y027379D02*
X045715Y027378D01*
X043366Y026995D02*
Y027214D01*
Y026924D02*
Y026995D01*
X043307Y026866D02*
X043366Y026924D01*
X045715Y027632D02*
X045775Y027632D01*
X043419Y036511D02*
X043661Y03666D01*
X043812Y036985D02*
X044035Y037243D01*
X043032Y036166D02*
X043056Y036181D01*
X043091Y036236D02*
X043112Y036254D01*
X043031Y036166D02*
X043032Y036166D01*
X042745Y035954D02*
X04283Y036024D01*
X042939Y036112D02*
X043031Y036166D01*
X030563Y028287D02*
X030749Y0281D01*
X026528Y023902D02*
Y029847D01*
X026586Y029906D02*
X027382D01*
X026528Y029847D02*
X026586Y029906D01*
X026528Y018559D02*
X026586Y0185D01*
X026528Y018559D02*
Y023902D01*
X011933Y030894D02*
X012078Y031039D01*
X021142Y022366D02*
X021248Y022472D01*
X01848Y020559D02*
X018681Y02076D01*
X01848Y013539D02*
X018539Y01348D01*
X020276D02*
X020295Y0135D01*
X01848Y013539D02*
Y020559D01*
X018539Y01348D02*
X020276D01*
X023769Y010634D02*
Y016094D01*
X023598Y015953D02*
X023754Y016109D01*
X02377Y029022D02*
X02377D01*
X021154Y015953D02*
X023598D01*
X045651Y027887D02*
X045684Y027876D01*
X045747Y027741D02*
X045775Y027667D01*
X045632Y027892D02*
X045651Y027887D01*
X027382Y029906D02*
Y032201D01*
X042874Y030177D02*
X042893Y030197D01*
X042874Y030216D02*
X042893Y030197D01*
Y029079D02*
Y029164D01*
X042874Y029904D02*
X042893Y029923D01*
X042874Y029678D02*
X042893Y029659D01*
X042874Y029943D02*
X042893Y029923D01*
X042874Y029639D02*
X042893Y029659D01*
X042874Y029429D02*
X042893Y029409D01*
X027382Y032201D02*
X027406Y032224D01*
X036748Y026839D02*
X037398Y026189D01*
X032151Y027404D02*
X032717Y026839D01*
X036748D01*
X032151Y027404D02*
Y029454D01*
X031764Y03009D02*
X032459D01*
X032459Y030089D01*
X040681Y030364D02*
X041416D01*
X037587Y033594D02*
Y034566D01*
Y033594D02*
X037776Y033406D01*
X038386Y013602D02*
Y013614D01*
X040729Y031437D02*
X040787Y031496D01*
X012969Y031039D02*
X013028Y031097D01*
X012078Y031039D02*
X012969D01*
X038228Y033937D02*
Y034272D01*
X044992Y035178D02*
X045079Y03509D01*
X040496Y035178D02*
X040496Y035177D01*
X040496Y035178D02*
X044992D01*
X042165Y022638D02*
X042167Y02264D01*
X032913Y022638D02*
X032974Y022577D01*
Y012912D02*
Y022577D01*
X033272Y012854D02*
X03514D01*
X038287Y034331D02*
X040315D01*
X031661Y029681D02*
X031889Y029454D01*
X03557Y030069D02*
X035589Y030087D01*
X035607Y030069D01*
X035853Y030087D02*
X035872Y030069D01*
X035835D02*
X035853Y030087D01*
X035299D02*
X035318Y030069D01*
X035281D02*
X035299Y030087D01*
X034647D02*
X034666Y030069D01*
X034949D02*
X034968Y030087D01*
X034391D02*
X03441Y030069D01*
X034629D02*
X034647Y030087D01*
X034968D02*
X034986Y030069D01*
X034373D02*
X034391Y030087D01*
X034127D02*
X034145Y030069D01*
X033819D02*
X033837Y030087D01*
X033856Y030069D01*
X033487D02*
X033506Y030087D01*
X033524Y030069D01*
X034108D02*
X034127Y030087D01*
X033213Y030069D02*
X033487D01*
X032675Y030089D02*
X032699Y030065D01*
X032701Y030068D01*
X032974Y012894D02*
X033233D01*
X048973Y012142D02*
X048976Y012145D01*
X011756Y044217D02*
X011806Y044267D01*
X011748Y044224D02*
X011756Y044217D01*
X033233Y012894D02*
X033272Y012854D01*
X03519Y012904D02*
X035217D01*
X035248Y012903D02*
X035261Y012889D01*
X03514Y012854D02*
X03519Y012904D01*
X039476Y011854D02*
X043476D01*
X042476Y012854D02*
Y013854D01*
Y012854D02*
X043476Y011854D01*
X047531Y011826D02*
X047726Y011632D01*
X046822Y011945D02*
X047017Y01175D01*
X025945Y04685D02*
X025949Y046846D01*
X036396Y030153D02*
X036496D01*
X036332Y030089D02*
X036396Y030153D01*
X036125Y030089D02*
X036332D01*
X036104Y030069D02*
X036125Y030089D01*
X036086Y030069D02*
X036104Y030087D01*
X035872Y030069D02*
X036086D01*
X035318D02*
X03557D01*
X034666D02*
X034949D01*
X034145D02*
X034373D01*
X033856D02*
X034108D01*
X033524D02*
X033819D01*
X033213Y03007D02*
X033213Y030069D01*
X032459Y030089D02*
X032675D01*
X032967Y03007D02*
X032968Y03007D01*
X032701Y030068D02*
X032965D01*
X034986Y030069D02*
X035281D01*
X035607D02*
X035835D01*
X032965Y030068D02*
X032967Y03007D01*
X03441Y030069D02*
X034629D01*
X032968Y03007D02*
X033213D01*
X042874Y029678D02*
Y029904D01*
Y029429D02*
Y029639D01*
X042893Y029409D02*
X042893Y029409D01*
X042893Y029165D02*
X042893Y029164D01*
X042874Y033827D02*
X042893Y033846D01*
X042874Y029943D02*
Y030177D01*
X042893Y029079D02*
X043105Y028868D01*
X042893Y029165D02*
Y029409D01*
X045562Y019793D02*
Y019845D01*
X045524Y019883D02*
X045562Y019845D01*
X040315Y034331D02*
X040496Y034512D01*
X04505Y032272D02*
Y032476D01*
Y031691D02*
Y032252D01*
X045107Y031074D02*
X045118Y031063D01*
X045042Y032484D02*
X045061Y032503D01*
X0484D02*
X048425Y032528D01*
X04505Y033908D02*
X045079Y033937D01*
X045042Y032484D02*
X04505Y032476D01*
X045061Y032503D02*
X0484D01*
X045079Y033937D02*
Y03509D01*
X045042Y032484D02*
Y032721D01*
X04505Y031691D02*
X045107Y031634D01*
X04505Y032729D02*
Y033908D01*
X045042Y03226D02*
X04505Y032252D01*
X045107Y031074D02*
Y031634D01*
X045042Y032721D02*
X04505Y032729D01*
X037248Y044457D02*
X03731Y044519D01*
X047471Y038027D02*
X047477Y038033D01*
X037587Y034566D02*
X037721Y0347D01*
X016712Y045767D02*
X020547D01*
X016654Y045708D02*
X016712Y045767D01*
X043084Y015017D02*
Y016846D01*
X043718Y01748D01*
X039606Y019488D02*
Y020118D01*
X046654Y017205D02*
X04685Y017402D01*
X043718Y01748D02*
X045866D01*
X044016Y018386D02*
X044049Y018419D01*
X048196D02*
X048241Y018465D01*
X038228Y017795D02*
X038236Y017787D01*
X040941D02*
X040949Y01778D01*
Y018327D02*
X041007Y018386D01*
X040949Y01778D02*
Y018327D01*
X041007Y018386D02*
X044016D01*
X036496Y030153D02*
X036535Y030114D01*
X048461Y025319D02*
X048528Y025251D01*
X040787Y031496D02*
Y034055D01*
X047385Y036216D02*
Y036263D01*
X04063Y034213D02*
X040787Y034055D01*
X043721Y033846D02*
X04378Y033787D01*
X046457Y026579D02*
X046614Y026421D01*
X046102Y031063D02*
X046457Y030709D01*
Y026579D02*
Y030709D01*
X038228Y034272D02*
X038287Y034331D01*
X047465Y037227D02*
Y037275D01*
X047385Y037147D02*
X047465Y037227D01*
X047385Y036216D02*
X04752Y036082D01*
X033661Y04378D02*
X034063Y044181D01*
X033661Y039409D02*
Y04378D01*
X037465Y040111D02*
X037473Y040103D01*
Y039697D02*
Y040103D01*
X036417Y041559D02*
X036433Y041575D01*
X036417Y040453D02*
X036453Y040417D01*
X036417Y040453D02*
Y041559D01*
X03569Y043552D02*
X035736Y043598D01*
X035616Y040378D02*
Y041572D01*
X035596Y040358D02*
X035616Y040378D01*
X034768Y039709D02*
X035276D01*
X035315Y039669D01*
X034063Y044181D02*
X034579D01*
X037473Y039697D02*
X038465D01*
X036421D02*
X037473D01*
X038461Y039701D02*
Y040323D01*
Y039701D02*
X038465Y039697D01*
X038496Y040323D02*
X039323D01*
X038445Y042336D02*
Y043163D01*
X037703Y042307D02*
X037717D01*
X037675Y042336D02*
X037703Y042307D01*
X037675Y042336D02*
Y04283D01*
X0356Y042257D02*
X03569Y042348D01*
X038445Y042336D02*
X038474Y042307D01*
X038488D01*
X039323Y040323D02*
X039331Y040315D01*
X048057Y016596D02*
X048264Y01639D01*
X036299Y042411D02*
Y043535D01*
Y042411D02*
X036457Y042253D01*
X036236Y043598D02*
X036299Y043535D01*
X036457Y042253D02*
X037026D01*
X038461Y040992D02*
X038972D01*
X039323D01*
X035594Y039709D02*
X036409D01*
X036421Y039697D01*
X03472Y040555D02*
Y041539D01*
Y040555D02*
X034811Y040465D01*
X0356Y041588D02*
X035616Y041572D01*
X03472Y041539D02*
X034773Y041592D01*
X037026Y042253D02*
X037118Y042161D01*
Y041882D02*
X037205Y041795D01*
X037118Y041882D02*
Y042161D01*
X037205Y041795D02*
X037717D01*
X034773Y043407D02*
X034862Y043496D01*
X035148D01*
X039323Y040992D02*
X039331Y040984D01*
X038488Y04102D02*
Y041795D01*
X038461Y040992D02*
X038488Y04102D01*
X037705Y041807D02*
X037717Y041795D01*
X035236Y043584D02*
Y043598D01*
X035148Y043496D02*
X035236Y043584D01*
X020547Y045767D02*
X020562Y045782D01*
X0117Y0466D02*
X011708Y046592D01*
D11*
X040754Y027224D02*
X042803D01*
X043433Y027854D02*
X045406D01*
X042803Y027224D02*
X043433Y027854D01*
X04456Y029675D02*
Y029694D01*
X045271Y028945D02*
Y028964D01*
X04456Y029675D02*
X045271Y028964D01*
X043513Y02844D02*
Y030215D01*
X043819Y028134D02*
X045028D01*
X043513Y02844D02*
X043819Y028134D01*
X045811Y024083D02*
Y024469D01*
Y024083D02*
X046083Y023811D01*
X036145Y03827D02*
X039679D01*
X036123Y037766D02*
X036144Y037787D01*
X040023D01*
X040358Y038122D01*
X039679Y03827D02*
X040146Y038736D01*
X037062Y037547D02*
X040173D01*
X040567Y037941D01*
X046083Y023811D02*
X048272D01*
X048654Y023319D02*
Y023429D01*
X048272Y023811D02*
X048654Y023429D01*
X03902Y032894D02*
X03902Y032893D01*
X039428D02*
X039428Y032893D01*
X03902Y032893D02*
X039428D01*
X039018Y031557D02*
X039522D01*
X039012Y031563D02*
X039018Y031557D01*
X039522D02*
X039528Y031551D01*
X039029Y032273D02*
X039462D01*
X039004Y032248D02*
X039029Y032273D01*
X039462D02*
X039487Y032298D01*
X03315Y048929D02*
X033197D01*
X034185Y047941D01*
X036576D01*
X033807Y047685D02*
X036873D01*
X033181Y048311D02*
X033807Y047685D01*
X033165Y048311D02*
X033181D01*
X036873Y047685D02*
X039545D01*
X040146Y047084D01*
X039677Y048157D02*
X040567Y047268D01*
X038862Y048157D02*
X039677D01*
X039512Y047941D02*
X040358Y047094D01*
X036576Y047941D02*
X039512D01*
X039579Y044555D02*
X039697Y044181D01*
Y044074D02*
Y044181D01*
Y04392D02*
Y044074D01*
X040358Y038122D02*
Y047094D01*
X039629Y035574D02*
Y035617D01*
X038941Y034886D02*
X039629Y035574D01*
X039669Y035657D02*
Y035689D01*
X039629Y035617D02*
X039669Y035657D01*
X040567Y037941D02*
Y047268D01*
X038511Y029638D02*
X040135Y028014D01*
X041114D01*
X040146Y038736D02*
Y047084D01*
X039299Y034811D02*
Y034827D01*
X040082Y03561D01*
X042835D01*
X040738Y027208D02*
X040754Y027224D01*
X043513Y030215D02*
Y031626D01*
X041626Y027798D02*
X041631Y027803D01*
X040072Y027798D02*
X041626D01*
X036944Y029638D02*
X038511D01*
X038761Y029109D02*
X039441Y028429D01*
X038734Y029109D02*
X038761D01*
X039441Y028429D02*
Y028429D01*
Y028429D02*
X040072Y027798D01*
X043513Y031626D02*
X043528Y031641D01*
X034184Y041675D02*
X03469D01*
X034773Y041592D01*
D20*
X032823Y011071D02*
Y013211D01*
X037083Y011075D02*
Y012772D01*
X034929Y011055D02*
Y012643D01*
D30*
X034768Y040378D02*
D03*
Y039709D02*
D03*
X035594Y040378D02*
D03*
Y039709D02*
D03*
X036421Y040366D02*
D03*
Y039697D02*
D03*
X038461Y040992D02*
D03*
Y040323D02*
D03*
X039331Y040984D02*
D03*
Y040315D02*
D03*
X036433Y041575D02*
D03*
Y042244D02*
D03*
X0356Y041588D02*
D03*
Y042257D02*
D03*
X034773Y041592D02*
D03*
Y042261D02*
D03*
D106*
X043113Y036254D02*
D03*
X045632Y027892D02*
D03*
D113*
X030984Y026929D02*
D03*
Y028268D02*
D03*
D114*
X028335Y012823D02*
D03*
X037059Y011051D02*
D03*
X034929Y011055D02*
D03*
X048654Y030528D02*
D03*
Y031528D02*
D03*
Y032528D02*
D03*
X032823Y011071D02*
D03*
X048654Y023319D02*
D03*
Y024319D02*
D03*
Y025319D02*
D03*
X047654Y022319D02*
D03*
Y023319D02*
D03*
Y024319D02*
D03*
Y025319D02*
D03*
X048654Y033638D02*
D03*
Y034638D02*
D03*
Y035638D02*
D03*
Y036638D02*
D03*
Y037638D02*
D03*
D115*
X031335Y012828D02*
D03*
X038059Y011051D02*
D03*
X035929Y011055D02*
D03*
X033823Y011071D02*
D03*
D116*
X027382Y029906D02*
D03*
X028382D02*
D03*
Y026906D02*
D03*
X028358Y015492D02*
D03*
Y018492D02*
D03*
X027358D02*
D03*
Y023902D02*
D03*
X028358D02*
D03*
Y020902D02*
D03*
D117*
X027382Y026906D02*
D03*
X027358Y015492D02*
D03*
Y020902D02*
D03*
D118*
X020366Y018315D02*
D03*
Y013591D02*
D03*
X015563Y018391D02*
D03*
Y013591D02*
D03*
X021154Y015953D02*
D03*
X021126Y028747D02*
D03*
X015535Y026385D02*
D03*
Y031185D02*
D03*
X020339Y026385D02*
D03*
Y031109D02*
D03*
X020354Y024728D02*
D03*
Y020004D02*
D03*
X015551Y024804D02*
D03*
Y020004D02*
D03*
X021142Y022366D02*
D03*
D119*
X017744Y037756D02*
D03*
Y038228D02*
D03*
Y038661D02*
D03*
Y039134D02*
D03*
X01798D02*
D03*
Y038661D02*
D03*
Y038228D02*
D03*
Y037756D02*
D03*
X017508D02*
D03*
Y038228D02*
D03*
Y038661D02*
D03*
Y039134D02*
D03*
X012386Y011457D02*
D03*
X010811Y012638D02*
D03*
X010614Y012047D02*
D03*
X011598Y011063D02*
D03*
X012583Y012047D02*
D03*
X012386Y012638D02*
D03*
X011598Y013032D02*
D03*
X010811Y011457D02*
D03*
X043465Y047598D02*
D03*
X044252Y049173D02*
D03*
X045039Y04878D02*
D03*
X045236Y048189D02*
D03*
X044252Y047205D02*
D03*
X043268Y048189D02*
D03*
X043465Y04878D02*
D03*
X045039Y047598D02*
D03*
X048513Y011502D02*
D03*
X046939Y012683D02*
D03*
X046742Y012092D02*
D03*
X047726Y011108D02*
D03*
X04871Y012092D02*
D03*
X048513Y012683D02*
D03*
X047726Y013076D02*
D03*
X046939Y011502D02*
D03*
X010965Y043453D02*
D03*
X011752Y045028D02*
D03*
X012539Y044634D02*
D03*
X012736Y044043D02*
D03*
X011752Y043059D02*
D03*
X010768Y044043D02*
D03*
X010965Y044634D02*
D03*
X012539Y043453D02*
D03*
X01926Y03935D02*
D03*
Y038996D02*
D03*
Y038642D02*
D03*
Y038287D02*
D03*
Y037925D02*
D03*
X019264Y039634D02*
D03*
X019654Y03935D02*
D03*
Y038996D02*
D03*
Y038642D02*
D03*
Y038287D02*
D03*
Y037925D02*
D03*
X019657Y039634D02*
D03*
X020047Y03935D02*
D03*
Y038996D02*
D03*
Y038642D02*
D03*
Y038287D02*
D03*
Y037925D02*
D03*
X020051Y039634D02*
D03*
X020441Y03935D02*
D03*
Y038996D02*
D03*
Y038642D02*
D03*
Y038287D02*
D03*
Y037925D02*
D03*
X020445Y039634D02*
D03*
X020835Y03935D02*
D03*
Y038996D02*
D03*
Y038642D02*
D03*
Y038287D02*
D03*
Y037925D02*
D03*
X020839Y039634D02*
D03*
X021193Y039343D02*
D03*
Y038988D02*
D03*
Y038634D02*
D03*
Y03828D02*
D03*
Y037917D02*
D03*
X021197Y039626D02*
D03*
X021587Y039343D02*
D03*
Y038988D02*
D03*
Y038634D02*
D03*
Y03828D02*
D03*
Y037917D02*
D03*
X021591Y039626D02*
D03*
X02198Y039343D02*
D03*
Y038988D02*
D03*
Y038634D02*
D03*
Y03828D02*
D03*
Y037917D02*
D03*
X021984Y039626D02*
D03*
X022341Y039336D02*
D03*
Y038982D02*
D03*
Y038628D02*
D03*
Y038273D02*
D03*
Y037911D02*
D03*
X022344Y03962D02*
D03*
X016244Y04063D02*
D03*
Y040984D02*
D03*
Y041339D02*
D03*
Y040278D02*
D03*
X016248Y041634D02*
D03*
X01624Y041906D02*
D03*
X017713D02*
D03*
X018106D02*
D03*
X0185D02*
D03*
X016567D02*
D03*
X016961D02*
D03*
X017319D02*
D03*
X019252Y041886D02*
D03*
X018807Y041894D02*
D03*
X020433Y041886D02*
D03*
X020039D02*
D03*
X019646D02*
D03*
X021185Y041878D02*
D03*
X020827Y041886D02*
D03*
X021972Y041878D02*
D03*
X021579D02*
D03*
X022333Y041872D02*
D03*
X01772Y041634D02*
D03*
X018114D02*
D03*
X018508D02*
D03*
X016575D02*
D03*
X016968D02*
D03*
X017327D02*
D03*
X01926Y041614D02*
D03*
X018815Y041622D02*
D03*
X020441Y041614D02*
D03*
X020047D02*
D03*
X019654D02*
D03*
X021193Y041606D02*
D03*
X020835Y041614D02*
D03*
X02198Y041606D02*
D03*
X021587D02*
D03*
X022341Y0416D02*
D03*
X021189Y039898D02*
D03*
X020831Y039906D02*
D03*
X021976Y039898D02*
D03*
X021583D02*
D03*
X022337Y039892D02*
D03*
X021189Y04026D02*
D03*
X020831Y040268D02*
D03*
X021976Y04026D02*
D03*
X021583D02*
D03*
X022337Y040254D02*
D03*
X021189Y040614D02*
D03*
X020831Y040622D02*
D03*
X021976Y040614D02*
D03*
X021583D02*
D03*
X022337Y040608D02*
D03*
X021189Y040968D02*
D03*
X020831Y040976D02*
D03*
X021976Y040968D02*
D03*
X021583D02*
D03*
X022337Y040962D02*
D03*
Y041317D02*
D03*
X021583Y041323D02*
D03*
X021976D02*
D03*
X020831Y041331D02*
D03*
X021189Y041323D02*
D03*
X019256Y039906D02*
D03*
X020437D02*
D03*
X020043D02*
D03*
X01965D02*
D03*
X019256Y040268D02*
D03*
X020437D02*
D03*
X020043D02*
D03*
X01965D02*
D03*
X019256Y040622D02*
D03*
X020437D02*
D03*
X020043D02*
D03*
X01965D02*
D03*
X019256Y040976D02*
D03*
X020437D02*
D03*
X020043D02*
D03*
X01965D02*
D03*
Y041331D02*
D03*
X020043D02*
D03*
X020437D02*
D03*
X018811Y041339D02*
D03*
X019256Y041331D02*
D03*
X029799Y035962D02*
D03*
X029484D02*
D03*
X031142Y041141D02*
D03*
X030433D02*
D03*
X030787D02*
D03*
X029154Y035661D02*
D03*
X029157Y035128D02*
D03*
Y035402D02*
D03*
X019724Y037283D02*
D03*
X020039D02*
D03*
X020354D02*
D03*
X020669D02*
D03*
X020984D02*
D03*
X021299D02*
D03*
X021614D02*
D03*
X021929D02*
D03*
X022244D02*
D03*
X022559D02*
D03*
X022874D02*
D03*
X023189D02*
D03*
X023504D02*
D03*
X023819D02*
D03*
X024134D02*
D03*
X024449D02*
D03*
X028543D02*
D03*
X028228D02*
D03*
X027913D02*
D03*
X027598D02*
D03*
X027283D02*
D03*
X026969D02*
D03*
X026654D02*
D03*
X026339D02*
D03*
X026024D02*
D03*
X025709D02*
D03*
X025394D02*
D03*
X025079D02*
D03*
X024764D02*
D03*
X019724Y036929D02*
D03*
X020039D02*
D03*
X020354D02*
D03*
X020669D02*
D03*
X020984D02*
D03*
X021299D02*
D03*
X021614D02*
D03*
X021929D02*
D03*
X022244D02*
D03*
X022559D02*
D03*
X022874D02*
D03*
X023189D02*
D03*
X023504D02*
D03*
X023819D02*
D03*
X024134D02*
D03*
X024449D02*
D03*
X028543D02*
D03*
X028228D02*
D03*
X027913D02*
D03*
X027598D02*
D03*
X027283D02*
D03*
X026969D02*
D03*
X026654D02*
D03*
X026339D02*
D03*
X026024D02*
D03*
X025709D02*
D03*
X025394D02*
D03*
X025079D02*
D03*
X024764D02*
D03*
X019409Y036614D02*
D03*
X019724D02*
D03*
X020039D02*
D03*
X020354D02*
D03*
X020669D02*
D03*
X020984D02*
D03*
X021299D02*
D03*
X021614D02*
D03*
X021929D02*
D03*
X022244D02*
D03*
X022559D02*
D03*
X022874D02*
D03*
X023189D02*
D03*
X023504D02*
D03*
X023819D02*
D03*
X024134D02*
D03*
X028543D02*
D03*
X028228D02*
D03*
X027913D02*
D03*
X027598D02*
D03*
X027283D02*
D03*
X026969D02*
D03*
X026654D02*
D03*
X026339D02*
D03*
X026024D02*
D03*
X025709D02*
D03*
X025394D02*
D03*
X025079D02*
D03*
X024764D02*
D03*
X024449D02*
D03*
X031075Y032096D02*
D03*
X031062Y031813D02*
D03*
X031066Y032362D02*
D03*
X0443Y031641D02*
D03*
X041628Y022523D02*
D03*
X042228Y022523D02*
D03*
X041363Y022523D02*
D03*
X041903D02*
D03*
X041368Y022305D02*
D03*
X041907D02*
D03*
X041633D02*
D03*
X042224Y022313D02*
D03*
X047532Y027269D02*
D03*
X047777Y027015D02*
D03*
X047039Y027269D02*
D03*
Y027015D02*
D03*
X047283Y026759D02*
D03*
X047532D02*
D03*
X047039D02*
D03*
X047532Y027015D02*
D03*
X047283Y027269D02*
D03*
Y027015D02*
D03*
X047777Y026759D02*
D03*
X045271Y028945D02*
D03*
X045028Y028134D02*
D03*
X045406Y027854D02*
D03*
X045811Y024469D02*
D03*
Y02484D02*
D03*
X045325Y026518D02*
D03*
X027509Y032329D02*
D03*
X028Y032608D02*
D03*
X036145Y03827D02*
D03*
X036123Y037766D02*
D03*
X037062Y037547D02*
D03*
X041611Y024122D02*
D03*
X041346D02*
D03*
X041886D02*
D03*
X042211Y024122D02*
D03*
X030047Y017948D02*
D03*
Y019159D02*
D03*
Y017116D02*
D03*
Y016851D02*
D03*
Y016612D02*
D03*
Y017662D02*
D03*
Y016285D02*
D03*
Y015999D02*
D03*
Y020281D02*
D03*
Y014126D02*
D03*
Y017389D02*
D03*
Y019979D02*
D03*
Y015114D02*
D03*
Y018556D02*
D03*
Y014514D02*
D03*
Y019486D02*
D03*
Y014849D02*
D03*
Y01828D02*
D03*
Y0154D02*
D03*
Y019722D02*
D03*
Y015735D02*
D03*
Y018842D02*
D03*
X017323Y041339D02*
D03*
X036873Y047685D02*
D03*
X036576Y047941D02*
D03*
X038862Y048157D02*
D03*
X038779Y045433D02*
D03*
X034961Y045909D02*
D03*
X038189Y045433D02*
D03*
X038412Y044127D02*
D03*
X039291Y045433D02*
D03*
X034961Y046238D02*
D03*
Y04562D02*
D03*
X038478Y045433D02*
D03*
X034961Y046535D02*
D03*
X038999Y045433D02*
D03*
X039581D02*
D03*
X034976Y045065D02*
D03*
Y045354D02*
D03*
X037182Y044468D02*
D03*
X031516Y011493D02*
D03*
X027925Y040053D02*
D03*
X028626D02*
D03*
X027925Y040342D02*
D03*
X028283Y040053D02*
D03*
X028626Y040342D02*
D03*
X028283D02*
D03*
X028984Y040053D02*
D03*
Y040342D02*
D03*
X030433Y041417D02*
D03*
X03042Y041714D02*
D03*
X030423Y0427D02*
D03*
Y042345D02*
D03*
Y04203D02*
D03*
X030425Y043018D02*
D03*
X030365Y04537D02*
D03*
Y045647D02*
D03*
X030352Y045944D02*
D03*
X030354Y046575D02*
D03*
Y04626D02*
D03*
X030365Y046906D02*
D03*
Y047182D02*
D03*
X030352Y047479D02*
D03*
X030354Y04811D02*
D03*
Y047795D02*
D03*
X030659Y047818D02*
D03*
Y048133D02*
D03*
X030657Y047502D02*
D03*
X030669Y047205D02*
D03*
Y046928D02*
D03*
X030659Y046282D02*
D03*
Y046597D02*
D03*
X030657Y045966D02*
D03*
X030669Y045669D02*
D03*
Y045393D02*
D03*
X030354Y044488D02*
D03*
X030748D02*
D03*
X030354Y044213D02*
D03*
X030748D02*
D03*
X030354Y043898D02*
D03*
X030748D02*
D03*
X030787Y041417D02*
D03*
X030775Y041714D02*
D03*
X030777Y0427D02*
D03*
Y042345D02*
D03*
Y04203D02*
D03*
X03078Y043018D02*
D03*
X031024Y045393D02*
D03*
Y045669D02*
D03*
Y047205D02*
D03*
Y046928D02*
D03*
X031013Y048133D02*
D03*
Y047818D02*
D03*
Y046282D02*
D03*
Y046597D02*
D03*
X031011Y045966D02*
D03*
Y047502D02*
D03*
X031368Y048133D02*
D03*
X032106Y048664D02*
D03*
X031732D02*
D03*
X032539D02*
D03*
X031368Y047818D02*
D03*
X047641Y042145D02*
D03*
Y042736D02*
D03*
Y04187D02*
D03*
Y043051D02*
D03*
Y04246D02*
D03*
X046293Y04224D02*
D03*
X045646Y04252D02*
D03*
X04502D02*
D03*
X046299Y042823D02*
D03*
X045984Y04252D02*
D03*
X044346D02*
D03*
X045335D02*
D03*
X044669D02*
D03*
X046299D02*
D03*
X046614D02*
D03*
X038071Y013602D02*
D03*
X038185Y013618D02*
D03*
X039669Y035689D02*
D03*
X040514Y024751D02*
D03*
X039554Y044773D02*
D03*
X039581Y045144D02*
D03*
X036929Y044173D02*
D03*
X034184Y041675D02*
D03*
X032632Y038607D02*
D03*
X035616Y041193D02*
D03*
X032877Y038607D02*
D03*
X036417Y040906D02*
D03*
X03311Y038607D02*
D03*
X037193Y040111D02*
D03*
X037465D02*
D03*
X038664Y044121D02*
D03*
X032103Y049422D02*
D03*
X043032Y04252D02*
D03*
X042709D02*
D03*
X032106Y049058D02*
D03*
X038941Y034886D02*
D03*
X019204Y03326D02*
D03*
X018946D02*
D03*
X019201Y033479D02*
D03*
X018944D02*
D03*
X042277Y024751D02*
D03*
X043176Y024751D02*
D03*
X042016D02*
D03*
X040839D02*
D03*
X041687D02*
D03*
X041381D02*
D03*
X042907D02*
D03*
X042632D02*
D03*
X041092D02*
D03*
X024769Y036022D02*
D03*
X025084D02*
D03*
X025399D02*
D03*
X026028D02*
D03*
X025714D02*
D03*
X026324Y03603D02*
D03*
X027899D02*
D03*
X026639D02*
D03*
X028214D02*
D03*
X027584D02*
D03*
X026954D02*
D03*
X027269D02*
D03*
X028858Y035382D02*
D03*
X028543Y035726D02*
D03*
X041114Y028014D02*
D03*
X027403Y025245D02*
D03*
X028198Y025245D02*
D03*
X027705Y025245D02*
D03*
X028525D02*
D03*
X027146Y025245D02*
D03*
X027962Y025245D02*
D03*
X027399Y025519D02*
D03*
X027142Y02552D02*
D03*
X028195Y025519D02*
D03*
X027958Y025519D02*
D03*
X027701D02*
D03*
X028521D02*
D03*
X028185Y02576D02*
D03*
X028512Y02576D02*
D03*
X027149Y025753D02*
D03*
X027949Y02576D02*
D03*
X02739D02*
D03*
X027692D02*
D03*
X027755Y02007D02*
D03*
X027453D02*
D03*
X028012D02*
D03*
X027212Y020063D02*
D03*
X028574Y02007D02*
D03*
X028248Y02007D02*
D03*
X028584Y01983D02*
D03*
X027764D02*
D03*
X028021D02*
D03*
X028257Y01983D02*
D03*
X027205Y01983D02*
D03*
X027462Y01983D02*
D03*
X028024Y019555D02*
D03*
X027208Y019555D02*
D03*
X028587Y019555D02*
D03*
X027767D02*
D03*
X028261Y019555D02*
D03*
X027465Y019555D02*
D03*
X038174Y026999D02*
D03*
X038182Y027248D02*
D03*
X038438Y026999D02*
D03*
X038456Y027249D02*
D03*
X039013Y026999D02*
D03*
X039007Y026751D02*
D03*
X038735Y026999D02*
D03*
X03871Y026749D02*
D03*
X038432Y026748D02*
D03*
X037917Y027514D02*
D03*
X036847Y027785D02*
D03*
X037658Y027514D02*
D03*
X038189Y027785D02*
D03*
X038735D02*
D03*
X039031D02*
D03*
X037098Y027514D02*
D03*
X037106Y027785D02*
D03*
X039031Y027514D02*
D03*
X037666Y027785D02*
D03*
X038735Y027514D02*
D03*
X037925Y027785D02*
D03*
X038182Y027514D02*
D03*
X037371Y027785D02*
D03*
X036839Y027514D02*
D03*
X037363D02*
D03*
X034975D02*
D03*
X034451D02*
D03*
X034982Y027785D02*
D03*
X035793Y027514D02*
D03*
X035536Y027785D02*
D03*
X036324Y027514D02*
D03*
X035277Y027785D02*
D03*
X036589Y027514D02*
D03*
X034717Y027785D02*
D03*
X03471Y027514D02*
D03*
X036596Y027785D02*
D03*
X036065Y027514D02*
D03*
X036331Y027785D02*
D03*
X035801D02*
D03*
X03527Y027514D02*
D03*
X034458Y027785D02*
D03*
X035529Y027514D02*
D03*
X036073Y027785D02*
D03*
X038261Y029062D02*
D03*
X036664Y029067D02*
D03*
X036929D02*
D03*
X036405D02*
D03*
X037483D02*
D03*
X037748D02*
D03*
X037224D02*
D03*
X038019D02*
D03*
X032859Y028022D02*
D03*
Y028559D02*
D03*
Y028284D02*
D03*
X033069Y02829D02*
D03*
Y028565D02*
D03*
Y028029D02*
D03*
X038102Y028492D02*
D03*
X038626D02*
D03*
X038361D02*
D03*
X037307D02*
D03*
X037831D02*
D03*
X037566D02*
D03*
X036488D02*
D03*
X037012D02*
D03*
X036747D02*
D03*
X019674Y026211D02*
D03*
X019417D02*
D03*
X019674Y025896D02*
D03*
X019417D02*
D03*
X019679Y020195D02*
D03*
X019422D02*
D03*
X019768Y020488D02*
D03*
X019511D02*
D03*
X019763Y013258D02*
D03*
Y012943D02*
D03*
X019505D02*
D03*
Y013258D02*
D03*
X011601Y031534D02*
D03*
X012664D02*
D03*
X011889D02*
D03*
X012153D02*
D03*
X012409D02*
D03*
X013074Y03125D02*
D03*
Y03073D02*
D03*
Y030994D02*
D03*
X012795Y030985D02*
D03*
Y031241D02*
D03*
Y03072D02*
D03*
X026123Y032227D02*
D03*
X026387D02*
D03*
X026666Y031975D02*
D03*
X026123D02*
D03*
X026387D02*
D03*
X026666Y031707D02*
D03*
X026123D02*
D03*
X026387D02*
D03*
X026395Y03147D02*
D03*
X02613D02*
D03*
X026673D02*
D03*
X026395Y031219D02*
D03*
X02613D02*
D03*
X026673D02*
D03*
X024788Y0312D02*
D03*
X025863Y031204D02*
D03*
X025321D02*
D03*
X025585D02*
D03*
X025047D02*
D03*
X024788Y031451D02*
D03*
X025863Y031455D02*
D03*
X025321D02*
D03*
X025585D02*
D03*
X025047D02*
D03*
X028858Y035653D02*
D03*
X029492Y035394D02*
D03*
Y034856D02*
D03*
Y035121D02*
D03*
X029488Y035653D02*
D03*
X029807Y035394D02*
D03*
Y034856D02*
D03*
Y035121D02*
D03*
Y034578D02*
D03*
X029803Y035653D02*
D03*
X027509Y032608D02*
D03*
X027756D02*
D03*
Y032329D02*
D03*
X028008D02*
D03*
X029377Y02189D02*
D03*
Y022436D02*
D03*
Y022144D02*
D03*
Y021633D02*
D03*
Y021378D02*
D03*
Y021089D02*
D03*
X029142Y0211D02*
D03*
X02966Y021378D02*
D03*
X029142Y02139D02*
D03*
X02966Y021633D02*
D03*
X029142Y021644D02*
D03*
X029953Y021633D02*
D03*
X030247Y02189D02*
D03*
X029656D02*
D03*
X029142Y021902D02*
D03*
X029949Y02189D02*
D03*
X029952Y022144D02*
D03*
X029142Y022155D02*
D03*
X030527Y022135D02*
D03*
X029659Y022144D02*
D03*
X030249D02*
D03*
X044385Y038971D02*
D03*
X042993Y038618D02*
D03*
X043507D02*
D03*
X043251D02*
D03*
X043762D02*
D03*
X029156Y014341D02*
D03*
Y014676D02*
D03*
Y015226D02*
D03*
Y014941D02*
D03*
X029153Y014064D02*
D03*
X029442Y014077D02*
D03*
X029445Y014953D02*
D03*
Y015239D02*
D03*
Y014688D02*
D03*
Y014353D02*
D03*
X029244Y015902D02*
D03*
Y016453D02*
D03*
Y016167D02*
D03*
Y01678D02*
D03*
Y017283D02*
D03*
Y017018D02*
D03*
Y018116D02*
D03*
Y017556D02*
D03*
Y018723D02*
D03*
Y019327D02*
D03*
Y019009D02*
D03*
Y019654D02*
D03*
Y01783D02*
D03*
Y01989D02*
D03*
Y020147D02*
D03*
Y020449D02*
D03*
Y018447D02*
D03*
X030584Y01828D02*
D03*
X030328D02*
D03*
X030571Y014126D02*
D03*
X030315D02*
D03*
X030328Y014514D02*
D03*
Y014849D02*
D03*
Y0154D02*
D03*
Y015114D02*
D03*
Y015735D02*
D03*
X030584Y014849D02*
D03*
Y014514D02*
D03*
Y015114D02*
D03*
Y015735D02*
D03*
Y0154D02*
D03*
Y015999D02*
D03*
Y016851D02*
D03*
Y016285D02*
D03*
Y016612D02*
D03*
X030322Y02053D02*
D03*
X030329Y020281D02*
D03*
X030328Y019979D02*
D03*
Y017948D02*
D03*
Y019722D02*
D03*
Y019159D02*
D03*
Y019486D02*
D03*
Y018842D02*
D03*
Y017662D02*
D03*
Y018556D02*
D03*
Y017116D02*
D03*
Y017389D02*
D03*
Y016851D02*
D03*
Y016285D02*
D03*
Y016612D02*
D03*
Y015999D02*
D03*
X030577Y020816D02*
D03*
X030584Y020538D02*
D03*
X030584Y020281D02*
D03*
Y019979D02*
D03*
Y019486D02*
D03*
Y019722D02*
D03*
Y019159D02*
D03*
Y017948D02*
D03*
Y018556D02*
D03*
Y018842D02*
D03*
Y017389D02*
D03*
Y017662D02*
D03*
Y017116D02*
D03*
X029173Y024981D02*
D03*
X029416Y02524D02*
D03*
X029156Y02445D02*
D03*
Y024715D02*
D03*
Y023907D02*
D03*
Y023618D02*
D03*
Y024172D02*
D03*
Y023022D02*
D03*
Y023272D02*
D03*
Y022741D02*
D03*
X029416Y022741D02*
D03*
X029142Y022447D02*
D03*
X029416Y023272D02*
D03*
Y023022D02*
D03*
X029636Y023279D02*
D03*
X029698Y025489D02*
D03*
X029941D02*
D03*
X030205D02*
D03*
X030221Y02445D02*
D03*
X029416Y024172D02*
D03*
X029659D02*
D03*
X029923D02*
D03*
X030221D02*
D03*
X029416Y023618D02*
D03*
Y023907D02*
D03*
Y024715D02*
D03*
Y024988D02*
D03*
Y02445D02*
D03*
X029659Y023618D02*
D03*
Y023907D02*
D03*
Y024715D02*
D03*
Y024988D02*
D03*
Y02445D02*
D03*
Y02524D02*
D03*
X030819Y022427D02*
D03*
X029653Y022436D02*
D03*
X029951D02*
D03*
X030244D02*
D03*
X030541D02*
D03*
X031105Y022732D02*
D03*
X029646Y022741D02*
D03*
X029939D02*
D03*
X030237D02*
D03*
X03053D02*
D03*
X030827D02*
D03*
X031391Y023008D02*
D03*
X029635Y023017D02*
D03*
X029932D02*
D03*
X030225D02*
D03*
X030523D02*
D03*
X030816D02*
D03*
X031113D02*
D03*
X031097Y025484D02*
D03*
X031394D02*
D03*
X030803D02*
D03*
X030797Y02524D02*
D03*
X0305D02*
D03*
X031388D02*
D03*
X03109D02*
D03*
X029923D02*
D03*
X031402Y02445D02*
D03*
X031104D02*
D03*
Y024988D02*
D03*
X031402D02*
D03*
Y024715D02*
D03*
X031104D02*
D03*
Y023907D02*
D03*
Y024172D02*
D03*
X031402D02*
D03*
Y023618D02*
D03*
Y023907D02*
D03*
X031104Y023618D02*
D03*
X031402Y023286D02*
D03*
X031104D02*
D03*
X030514Y02445D02*
D03*
Y024988D02*
D03*
X030811D02*
D03*
Y02445D02*
D03*
Y024715D02*
D03*
X030514D02*
D03*
Y023907D02*
D03*
Y024172D02*
D03*
X030811D02*
D03*
Y023618D02*
D03*
Y023907D02*
D03*
X030514Y023618D02*
D03*
X030811Y023286D02*
D03*
X030514D02*
D03*
X029923Y02445D02*
D03*
Y024988D02*
D03*
X030221D02*
D03*
Y024715D02*
D03*
X029923D02*
D03*
Y023907D02*
D03*
X030221Y023618D02*
D03*
Y023907D02*
D03*
X029923Y023618D02*
D03*
X030221Y023286D02*
D03*
X029923D02*
D03*
X030221Y02524D02*
D03*
X030457Y025484D02*
D03*
X03168Y023277D02*
D03*
Y023898D02*
D03*
Y023609D02*
D03*
Y024163D02*
D03*
Y024706D02*
D03*
Y024979D02*
D03*
Y024441D02*
D03*
Y02524D02*
D03*
Y025484D02*
D03*
X032251Y021845D02*
D03*
X032011Y021588D02*
D03*
X032251Y021582D02*
D03*
X031752Y021354D02*
D03*
X031996Y021346D02*
D03*
X032248Y02134D02*
D03*
X031512Y021106D02*
D03*
X031756Y021098D02*
D03*
X032008Y021092D02*
D03*
X032248Y021087D02*
D03*
X032247Y016304D02*
D03*
Y016925D02*
D03*
Y016636D02*
D03*
Y01719D02*
D03*
Y017694D02*
D03*
Y017429D02*
D03*
Y018861D02*
D03*
Y018588D02*
D03*
Y017967D02*
D03*
Y019178D02*
D03*
Y019799D02*
D03*
Y01951D02*
D03*
Y020064D02*
D03*
Y018299D02*
D03*
Y0203D02*
D03*
X032248Y020557D02*
D03*
X03224Y020835D02*
D03*
X032007Y01631D02*
D03*
Y016931D02*
D03*
Y016642D02*
D03*
Y017196D02*
D03*
Y017699D02*
D03*
Y017434D02*
D03*
Y018866D02*
D03*
Y018593D02*
D03*
Y017973D02*
D03*
Y019184D02*
D03*
Y019805D02*
D03*
Y019516D02*
D03*
Y02007D02*
D03*
Y018304D02*
D03*
Y020306D02*
D03*
X032007Y020563D02*
D03*
X032Y02084D02*
D03*
X031755Y016316D02*
D03*
Y016937D02*
D03*
Y016648D02*
D03*
Y017202D02*
D03*
Y017705D02*
D03*
Y017441D02*
D03*
Y018873D02*
D03*
Y0186D02*
D03*
Y017979D02*
D03*
Y01919D02*
D03*
Y019811D02*
D03*
Y019522D02*
D03*
Y020076D02*
D03*
Y01831D02*
D03*
Y020312D02*
D03*
X031755Y020569D02*
D03*
X031748Y020846D02*
D03*
X031511Y016324D02*
D03*
Y016945D02*
D03*
Y016656D02*
D03*
Y01721D02*
D03*
Y017713D02*
D03*
Y017449D02*
D03*
Y018881D02*
D03*
Y018608D02*
D03*
Y017987D02*
D03*
Y019198D02*
D03*
Y019819D02*
D03*
Y01953D02*
D03*
Y020084D02*
D03*
Y018318D02*
D03*
Y02032D02*
D03*
X031511Y020577D02*
D03*
X031504Y020854D02*
D03*
X031247Y016316D02*
D03*
Y016937D02*
D03*
Y016648D02*
D03*
Y017202D02*
D03*
Y017705D02*
D03*
Y017441D02*
D03*
Y018873D02*
D03*
Y0186D02*
D03*
Y017979D02*
D03*
Y01919D02*
D03*
Y019811D02*
D03*
Y019522D02*
D03*
Y020076D02*
D03*
Y01831D02*
D03*
Y020312D02*
D03*
X031248Y020569D02*
D03*
X03124Y020846D02*
D03*
X033594Y021567D02*
D03*
X033819Y021803D02*
D03*
X033366Y02135D02*
D03*
X03406Y021788D02*
D03*
X033645Y021312D02*
D03*
X03387Y021548D02*
D03*
X033366Y021094D02*
D03*
X034048Y021374D02*
D03*
X034285Y021571D02*
D03*
X034482Y021768D02*
D03*
X033645Y020898D02*
D03*
X033859Y021134D02*
D03*
X033366Y02068D02*
D03*
X03403Y020936D02*
D03*
X034267Y021132D02*
D03*
X034711Y021587D02*
D03*
X034948Y021815D02*
D03*
X034463Y021329D02*
D03*
X033625Y020459D02*
D03*
X033841Y020695D02*
D03*
X033366Y020242D02*
D03*
X034015Y020482D02*
D03*
X034251Y020678D02*
D03*
X034696Y021133D02*
D03*
X034933Y021361D02*
D03*
X034448Y020875D02*
D03*
X035153Y021572D02*
D03*
X035353Y021781D02*
D03*
X033625Y020005D02*
D03*
X033825Y020241D02*
D03*
X033366Y019788D02*
D03*
Y019345D02*
D03*
X034073Y019306D02*
D03*
X033625Y0193D02*
D03*
X035315Y019291D02*
D03*
X034861Y019259D02*
D03*
X034348Y019188D02*
D03*
X033996Y020039D02*
D03*
X033366Y019048D02*
D03*
X033807Y019799D02*
D03*
X033625Y019563D02*
D03*
X036204Y021829D02*
D03*
X036036Y021646D02*
D03*
X036634Y021818D02*
D03*
X036457Y021634D02*
D03*
X035768Y021818D02*
D03*
X035571Y021621D02*
D03*
X035335Y021339D02*
D03*
X035134Y02113D02*
D03*
X034429Y020433D02*
D03*
X034914Y020919D02*
D03*
X034677Y020691D02*
D03*
X034232Y020236D02*
D03*
X035866Y021457D02*
D03*
X035665Y021248D02*
D03*
X034961Y020551D02*
D03*
X035445Y021037D02*
D03*
X035208Y020809D02*
D03*
X034764Y020354D02*
D03*
X034528Y020157D02*
D03*
X036299Y021457D02*
D03*
X036098Y021248D02*
D03*
X035394Y020551D02*
D03*
X035878Y021037D02*
D03*
X035642Y020809D02*
D03*
X035197Y020354D02*
D03*
X034961Y020157D02*
D03*
X037008Y021818D02*
D03*
X036811Y021621D02*
D03*
X036575Y021339D02*
D03*
X036374Y02113D02*
D03*
X035669Y020433D02*
D03*
X036154Y020919D02*
D03*
X035917Y020691D02*
D03*
X035472Y020236D02*
D03*
X035236Y020039D02*
D03*
X03748Y021818D02*
D03*
X037283Y021621D02*
D03*
X037087Y021417D02*
D03*
X03685Y021181D02*
D03*
X036649Y020972D02*
D03*
X035945Y020276D02*
D03*
X03643Y020762D02*
D03*
X036193Y020533D02*
D03*
X035748Y020079D02*
D03*
X035512Y019882D02*
D03*
X042284Y028777D02*
D03*
X042519D02*
D03*
X041368Y028512D02*
D03*
X041603D02*
D03*
X041822D02*
D03*
X042058D02*
D03*
X041368Y028777D02*
D03*
X041603D02*
D03*
X041822D02*
D03*
X042058D02*
D03*
X045325Y026283D02*
D03*
X045082Y026754D02*
D03*
Y026518D02*
D03*
Y026299D02*
D03*
X044858Y026987D02*
D03*
Y026751D02*
D03*
Y026532D02*
D03*
Y026305D02*
D03*
X043615Y02654D02*
D03*
X043859Y026305D02*
D03*
X044108D02*
D03*
X044602D02*
D03*
X043615D02*
D03*
X044353D02*
D03*
Y02654D02*
D03*
X044602D02*
D03*
X043859D02*
D03*
X043366D02*
D03*
X044108D02*
D03*
X043615Y026995D02*
D03*
X043859Y02676D02*
D03*
X044108D02*
D03*
X044602D02*
D03*
X043615D02*
D03*
X044353D02*
D03*
X043366D02*
D03*
X044353Y026995D02*
D03*
X044602D02*
D03*
X043859D02*
D03*
X043366D02*
D03*
X044108D02*
D03*
X047926Y029179D02*
D03*
Y02945D02*
D03*
Y02974D02*
D03*
X040514Y026752D02*
D03*
Y025573D02*
D03*
Y0253D02*
D03*
Y02589D02*
D03*
Y026487D02*
D03*
Y026222D02*
D03*
Y02501D02*
D03*
X040839Y026752D02*
D03*
Y025573D02*
D03*
Y0253D02*
D03*
Y02589D02*
D03*
Y026487D02*
D03*
Y026222D02*
D03*
Y02501D02*
D03*
X046115Y037289D02*
D03*
Y03701D02*
D03*
X045858Y035107D02*
D03*
X045853Y035381D02*
D03*
X04561Y035107D02*
D03*
X048049Y035371D02*
D03*
X048054Y035098D02*
D03*
X047243Y03538D02*
D03*
X046362D02*
D03*
X046098D02*
D03*
X046919D02*
D03*
X046626D02*
D03*
X04561D02*
D03*
X04752D02*
D03*
X047798Y035106D02*
D03*
X047793Y03538D02*
D03*
X047914Y036263D02*
D03*
X04765D02*
D03*
Y035985D02*
D03*
X047914D02*
D03*
X047994Y037283D02*
D03*
X04773D02*
D03*
Y037005D02*
D03*
X047994D02*
D03*
X043661Y03666D02*
D03*
X043329D02*
D03*
X044215D02*
D03*
X043018D02*
D03*
X04395D02*
D03*
X044553D02*
D03*
X04462Y036896D02*
D03*
X043634D02*
D03*
X043966D02*
D03*
X044331D02*
D03*
X043035Y036898D02*
D03*
X043323Y036896D02*
D03*
X044041Y036443D02*
D03*
X04433D02*
D03*
X043032D02*
D03*
X042744Y036445D02*
D03*
X043675Y036443D02*
D03*
X043344D02*
D03*
X044072Y03618D02*
D03*
X043085D02*
D03*
X043417D02*
D03*
X043782D02*
D03*
X042486Y036182D02*
D03*
X042774Y03618D02*
D03*
X044634Y038031D02*
D03*
Y038266D02*
D03*
Y038503D02*
D03*
Y038734D02*
D03*
X044601Y038973D02*
D03*
Y039208D02*
D03*
X044342D02*
D03*
X043532D02*
D03*
X043821D02*
D03*
X044086D02*
D03*
X0432D02*
D03*
X046344D02*
D03*
X04723D02*
D03*
X046965D02*
D03*
X046676D02*
D03*
X046024D02*
D03*
X045184D02*
D03*
X045473D02*
D03*
X044852D02*
D03*
X045738D02*
D03*
X047485D02*
D03*
X047996D02*
D03*
X047745D02*
D03*
X046344Y038973D02*
D03*
X04723D02*
D03*
X046965D02*
D03*
X046676D02*
D03*
X046024D02*
D03*
X045184D02*
D03*
X045473D02*
D03*
X044852D02*
D03*
X045738D02*
D03*
X047485D02*
D03*
X047996D02*
D03*
X047745D02*
D03*
X046344Y038735D02*
D03*
X04723D02*
D03*
X046965D02*
D03*
X046676D02*
D03*
X046024D02*
D03*
X045184D02*
D03*
X045473D02*
D03*
X044852D02*
D03*
X045738D02*
D03*
X047485D02*
D03*
X047996D02*
D03*
X047745D02*
D03*
X046344Y038504D02*
D03*
X04723D02*
D03*
X046965D02*
D03*
X046676D02*
D03*
X046024D02*
D03*
X045184D02*
D03*
X045473D02*
D03*
X044852D02*
D03*
X045738D02*
D03*
X047485D02*
D03*
X047996D02*
D03*
X047745D02*
D03*
X047485Y038033D02*
D03*
X047745D02*
D03*
Y038268D02*
D03*
X047996D02*
D03*
X025039Y031961D02*
D03*
Y031693D02*
D03*
X025577D02*
D03*
X025313D02*
D03*
X025856D02*
D03*
X023079Y031689D02*
D03*
X023617D02*
D03*
X023352D02*
D03*
X023895D02*
D03*
X024449D02*
D03*
X02416D02*
D03*
X024781D02*
D03*
X025577Y031961D02*
D03*
X025313D02*
D03*
X025856D02*
D03*
X023083Y031957D02*
D03*
X023621D02*
D03*
X023356D02*
D03*
X023899D02*
D03*
X024453D02*
D03*
X024164D02*
D03*
X024781D02*
D03*
X025039Y032213D02*
D03*
X025577D02*
D03*
X025313D02*
D03*
X025856D02*
D03*
X023098Y032209D02*
D03*
X023637D02*
D03*
X023372D02*
D03*
X023915D02*
D03*
X024469D02*
D03*
X024179D02*
D03*
X024781D02*
D03*
X023094Y031445D02*
D03*
X023307Y029618D02*
D03*
Y030239D02*
D03*
Y02995D02*
D03*
Y030504D02*
D03*
Y031047D02*
D03*
Y030782D02*
D03*
Y03132D02*
D03*
X023559Y029748D02*
D03*
Y030369D02*
D03*
Y03008D02*
D03*
Y030634D02*
D03*
Y031177D02*
D03*
Y030912D02*
D03*
Y03145D02*
D03*
X023827Y030381D02*
D03*
Y030092D02*
D03*
Y030634D02*
D03*
Y031177D02*
D03*
Y030912D02*
D03*
Y03145D02*
D03*
X023311Y028543D02*
D03*
Y029086D02*
D03*
Y028822D02*
D03*
Y02936D02*
D03*
X023579Y028369D02*
D03*
Y028634D02*
D03*
Y029177D02*
D03*
Y028912D02*
D03*
Y02945D02*
D03*
X024087Y03145D02*
D03*
Y030912D02*
D03*
Y031177D02*
D03*
Y030634D02*
D03*
X024354Y03145D02*
D03*
Y030912D02*
D03*
Y031177D02*
D03*
Y030634D02*
D03*
X023259Y017651D02*
D03*
Y018272D02*
D03*
Y017983D02*
D03*
Y018537D02*
D03*
Y01908D02*
D03*
Y018815D02*
D03*
Y019353D02*
D03*
X023511Y017781D02*
D03*
Y018402D02*
D03*
Y018113D02*
D03*
Y018667D02*
D03*
Y01921D02*
D03*
Y018945D02*
D03*
Y019483D02*
D03*
X023778Y018667D02*
D03*
Y01921D02*
D03*
Y018945D02*
D03*
Y019483D02*
D03*
X023263Y017119D02*
D03*
Y017392D02*
D03*
X02353Y01721D02*
D03*
Y016945D02*
D03*
Y017483D02*
D03*
X024038Y019483D02*
D03*
Y018945D02*
D03*
Y01921D02*
D03*
X024306Y019483D02*
D03*
Y018945D02*
D03*
Y01921D02*
D03*
X024508Y024569D02*
D03*
Y025112D02*
D03*
Y024848D02*
D03*
Y025386D02*
D03*
X02424Y024569D02*
D03*
Y025112D02*
D03*
Y024848D02*
D03*
Y025386D02*
D03*
X023732Y023386D02*
D03*
Y022848D02*
D03*
Y023112D02*
D03*
Y022569D02*
D03*
Y022305D02*
D03*
X023465Y023295D02*
D03*
Y022757D02*
D03*
Y023022D02*
D03*
Y022479D02*
D03*
X02398Y025386D02*
D03*
Y024848D02*
D03*
Y025112D02*
D03*
Y024569D02*
D03*
Y024027D02*
D03*
Y024317D02*
D03*
X023713Y025386D02*
D03*
Y024848D02*
D03*
Y025112D02*
D03*
Y024569D02*
D03*
Y024015D02*
D03*
Y024305D02*
D03*
Y023684D02*
D03*
X023461Y025256D02*
D03*
Y024718D02*
D03*
Y024983D02*
D03*
Y02444D02*
D03*
Y023886D02*
D03*
Y024175D02*
D03*
Y023554D02*
D03*
X011523Y018608D02*
D03*
X012586D02*
D03*
X011811D02*
D03*
X012076D02*
D03*
X012332D02*
D03*
X012996Y018325D02*
D03*
Y017804D02*
D03*
Y018069D02*
D03*
X012717Y01806D02*
D03*
Y018316D02*
D03*
Y017795D02*
D03*
X039596Y045731D02*
D03*
X039581Y046286D02*
D03*
X044008Y04252D02*
D03*
X039581Y046811D02*
D03*
X043382Y04252D02*
D03*
X043693D02*
D03*
X039581Y046575D02*
D03*
X039596Y04602D02*
D03*
X039021Y025952D02*
D03*
Y02649D02*
D03*
Y026217D02*
D03*
Y025674D02*
D03*
Y02512D02*
D03*
Y025409D02*
D03*
Y024788D02*
D03*
X038724Y02595D02*
D03*
Y026488D02*
D03*
Y026215D02*
D03*
Y025672D02*
D03*
Y025118D02*
D03*
Y025407D02*
D03*
Y024786D02*
D03*
X038446Y025949D02*
D03*
Y026487D02*
D03*
Y026213D02*
D03*
Y02567D02*
D03*
Y025116D02*
D03*
Y025406D02*
D03*
Y024785D02*
D03*
X03816Y026744D02*
D03*
X038174Y026483D02*
D03*
X037946Y027082D02*
D03*
X03794Y026838D02*
D03*
X035016Y025314D02*
D03*
Y02507D02*
D03*
Y024271D02*
D03*
Y024809D02*
D03*
Y024536D02*
D03*
Y023993D02*
D03*
Y023439D02*
D03*
Y023728D02*
D03*
Y023107D02*
D03*
X033794Y025346D02*
D03*
X033557Y02515D02*
D03*
X03326Y023116D02*
D03*
X033557D02*
D03*
X03326Y023448D02*
D03*
X033557Y023737D02*
D03*
Y023448D02*
D03*
Y024002D02*
D03*
X03326D02*
D03*
Y023737D02*
D03*
X033557Y024545D02*
D03*
Y02428D02*
D03*
Y024818D02*
D03*
X03326Y02428D02*
D03*
X03385Y023116D02*
D03*
X034148D02*
D03*
X03385Y023448D02*
D03*
X034148Y023737D02*
D03*
Y023448D02*
D03*
Y024002D02*
D03*
X03385D02*
D03*
Y023737D02*
D03*
Y024545D02*
D03*
X034148D02*
D03*
Y02428D02*
D03*
Y024818D02*
D03*
X03385D02*
D03*
Y02428D02*
D03*
X034441Y023116D02*
D03*
X034738D02*
D03*
X034441Y023448D02*
D03*
X034738Y023737D02*
D03*
Y023448D02*
D03*
Y024002D02*
D03*
X034441D02*
D03*
Y023737D02*
D03*
Y024545D02*
D03*
X034738D02*
D03*
Y024818D02*
D03*
X034441D02*
D03*
Y02428D02*
D03*
X034738D02*
D03*
X034427Y025079D02*
D03*
X034725D02*
D03*
X033837D02*
D03*
X034134D02*
D03*
X03414Y025323D02*
D03*
X034731D02*
D03*
X034433D02*
D03*
X047379Y025597D02*
D03*
X047143D02*
D03*
X041098Y02501D02*
D03*
X041388D02*
D03*
X012795Y023929D02*
D03*
Y02445D02*
D03*
Y024194D02*
D03*
X013074Y024203D02*
D03*
Y023938D02*
D03*
Y024459D02*
D03*
X012409Y024743D02*
D03*
X012153D02*
D03*
X011889D02*
D03*
X012664D02*
D03*
X011601D02*
D03*
X039299Y034811D02*
D03*
X044123Y032313D02*
D03*
X0431Y040095D02*
D03*
X041631Y027803D02*
D03*
X031283Y032096D02*
D03*
Y032362D02*
D03*
Y031813D02*
D03*
X036944Y029638D02*
D03*
X045042Y032484D02*
D03*
X040738Y027208D02*
D03*
X038734Y029109D02*
D03*
X044293Y030806D02*
D03*
X043528Y031641D02*
D03*
X031413Y010945D02*
D03*
Y011222D02*
D03*
X031138Y010949D02*
D03*
Y011226D02*
D03*
X030882Y01095D02*
D03*
Y011227D02*
D03*
X03063Y010957D02*
D03*
Y011234D02*
D03*
X039335Y0195D02*
D03*
X039882Y019492D02*
D03*
X04771Y017657D02*
D03*
X047974D02*
D03*
X047435D02*
D03*
X047171D02*
D03*
X04771Y017402D02*
D03*
X047974D02*
D03*
X047435D02*
D03*
X047171D02*
D03*
X04653Y015644D02*
D03*
X046795D02*
D03*
X046526Y015417D02*
D03*
X046791D02*
D03*
X038983Y014207D02*
D03*
X038685D02*
D03*
Y013875D02*
D03*
X038983D02*
D03*
Y014496D02*
D03*
Y014769D02*
D03*
X038685D02*
D03*
Y014496D02*
D03*
X038983Y013602D02*
D03*
X038685D02*
D03*
X039297D02*
D03*
Y014769D02*
D03*
Y014496D02*
D03*
Y013875D02*
D03*
Y014207D02*
D03*
X039612Y013602D02*
D03*
Y014769D02*
D03*
Y014496D02*
D03*
Y013875D02*
D03*
Y014207D02*
D03*
X039927Y013602D02*
D03*
Y014769D02*
D03*
Y014496D02*
D03*
Y013875D02*
D03*
Y014207D02*
D03*
X040949Y01753D02*
D03*
X041264D02*
D03*
X040315Y01778D02*
D03*
Y01753D02*
D03*
X04063Y01778D02*
D03*
Y01753D02*
D03*
X044638Y032323D02*
D03*
X031618Y029682D02*
D03*
X031886D02*
D03*
X032149D02*
D03*
X032151Y029454D02*
D03*
X031889D02*
D03*
X033516Y030327D02*
D03*
X044008Y042823D02*
D03*
X043693D02*
D03*
X043382D02*
D03*
X043032D02*
D03*
X042709D02*
D03*
X044346D02*
D03*
X046614D02*
D03*
X016965Y040278D02*
D03*
X016571D02*
D03*
X016965Y039924D02*
D03*
X016571D02*
D03*
X016965Y041339D02*
D03*
X016571D02*
D03*
X016965Y040984D02*
D03*
X016571D02*
D03*
Y04063D02*
D03*
X016965D02*
D03*
X047902Y043888D02*
D03*
X044661Y042823D02*
D03*
X04502D02*
D03*
X045335D02*
D03*
X045646D02*
D03*
X045984D02*
D03*
X037126Y041024D02*
D03*
X037441D02*
D03*
X037756D02*
D03*
X038999Y046811D02*
D03*
X038779D02*
D03*
X038189D02*
D03*
X038478D02*
D03*
X039291D02*
D03*
X038189Y045144D02*
D03*
X038478D02*
D03*
X038779D02*
D03*
X038999D02*
D03*
X039291D02*
D03*
Y046575D02*
D03*
Y046286D02*
D03*
X039307Y045731D02*
D03*
Y04602D02*
D03*
X038478Y046575D02*
D03*
X038189D02*
D03*
Y046286D02*
D03*
X038478D02*
D03*
X038779Y046575D02*
D03*
Y046286D02*
D03*
X038999Y046575D02*
D03*
Y046286D02*
D03*
X039015Y045731D02*
D03*
Y04602D02*
D03*
X038794Y045731D02*
D03*
Y04602D02*
D03*
X038494Y045731D02*
D03*
X038205D02*
D03*
Y04602D02*
D03*
X038494D02*
D03*
X034055Y045354D02*
D03*
Y045065D02*
D03*
X034676Y045354D02*
D03*
X034387D02*
D03*
Y045065D02*
D03*
X034676D02*
D03*
X035276Y045354D02*
D03*
Y045065D02*
D03*
X035897Y045354D02*
D03*
X035607D02*
D03*
Y045065D02*
D03*
X035897D02*
D03*
X036197Y045354D02*
D03*
Y045065D02*
D03*
X036417Y045354D02*
D03*
Y045065D02*
D03*
X037038Y045354D02*
D03*
X036749D02*
D03*
Y045065D02*
D03*
X037038D02*
D03*
X037339Y045354D02*
D03*
Y045065D02*
D03*
X037323Y04562D02*
D03*
Y046238D02*
D03*
Y045909D02*
D03*
X037023Y046535D02*
D03*
Y04562D02*
D03*
X036733D02*
D03*
Y045909D02*
D03*
X037023D02*
D03*
X036733Y046238D02*
D03*
X037023D02*
D03*
X036733Y046535D02*
D03*
X036402Y04562D02*
D03*
Y046238D02*
D03*
Y045909D02*
D03*
Y046535D02*
D03*
X036181Y04562D02*
D03*
Y046238D02*
D03*
Y045909D02*
D03*
Y046535D02*
D03*
X035881D02*
D03*
Y04562D02*
D03*
X035592D02*
D03*
Y045909D02*
D03*
X035881D02*
D03*
X035592Y046238D02*
D03*
X035881D02*
D03*
X035592Y046535D02*
D03*
X03526Y04562D02*
D03*
Y046238D02*
D03*
Y045909D02*
D03*
Y046535D02*
D03*
X03466D02*
D03*
Y04562D02*
D03*
X034371D02*
D03*
Y045909D02*
D03*
X03466D02*
D03*
X034371Y046238D02*
D03*
X03466D02*
D03*
X034371Y046535D02*
D03*
X034039Y04562D02*
D03*
Y046238D02*
D03*
Y045909D02*
D03*
Y046535D02*
D03*
X033366Y017498D02*
D03*
Y01834D02*
D03*
Y018655D02*
D03*
Y017985D02*
D03*
X034297Y019954D02*
D03*
X034097Y019745D02*
D03*
X033807Y019534D02*
D03*
X034731Y019954D02*
D03*
X03453Y019745D02*
D03*
X033807Y019048D02*
D03*
X03431Y019534D02*
D03*
X033625Y018852D02*
D03*
X035006Y019836D02*
D03*
X034805Y019627D02*
D03*
X034101Y01893D02*
D03*
X034585Y019416D02*
D03*
X033807Y018733D02*
D03*
X033625Y018537D02*
D03*
X033443Y013819D02*
D03*
X03374D02*
D03*
X034033D02*
D03*
X034331D02*
D03*
X035315Y013661D02*
D03*
X035017D02*
D03*
X035906D02*
D03*
X035608D02*
D03*
X036496D02*
D03*
X036199D02*
D03*
X039449Y020866D02*
D03*
X038543Y020157D02*
D03*
X03979Y020669D02*
D03*
X039134D02*
D03*
X039449D02*
D03*
X038819Y020433D02*
D03*
X039134D02*
D03*
X039449D02*
D03*
X03979D02*
D03*
X038819Y020157D02*
D03*
X039134D02*
D03*
X038228Y019882D02*
D03*
X038543D02*
D03*
X038064Y019629D02*
D03*
X038379D02*
D03*
X037756Y019351D02*
D03*
X038071D02*
D03*
X038386D02*
D03*
X037441Y019094D02*
D03*
X037756D02*
D03*
X038071D02*
D03*
X038386D02*
D03*
X036499Y018159D02*
D03*
X036195Y017868D02*
D03*
X036492D02*
D03*
X036191Y017614D02*
D03*
X036488D02*
D03*
X035898D02*
D03*
X035892Y01737D02*
D03*
X035594D02*
D03*
X036482D02*
D03*
X036185D02*
D03*
X035039Y017383D02*
D03*
X033465Y015811D02*
D03*
X034146Y016549D02*
D03*
X03374Y015811D02*
D03*
X034331Y016293D02*
D03*
X034331Y016063D02*
D03*
X034034D02*
D03*
X034331Y015811D02*
D03*
X034034D02*
D03*
X036496Y016571D02*
D03*
X034033Y014089D02*
D03*
X034331D02*
D03*
X034033Y014983D02*
D03*
Y015256D02*
D03*
X034331D02*
D03*
Y014983D02*
D03*
Y014362D02*
D03*
X034033D02*
D03*
Y015574D02*
D03*
X034331D02*
D03*
X034033Y014694D02*
D03*
X034331D02*
D03*
X033443Y014089D02*
D03*
X03374D02*
D03*
X033443Y014983D02*
D03*
Y015256D02*
D03*
X03374D02*
D03*
Y014983D02*
D03*
Y014362D02*
D03*
X033443D02*
D03*
Y015574D02*
D03*
X03374D02*
D03*
X033443Y014694D02*
D03*
X03374D02*
D03*
X036199Y016571D02*
D03*
Y017109D02*
D03*
X036496D02*
D03*
Y016836D02*
D03*
X036199D02*
D03*
X036496Y014528D02*
D03*
X036199D02*
D03*
Y016028D02*
D03*
Y016293D02*
D03*
X036496D02*
D03*
Y015739D02*
D03*
Y016028D02*
D03*
X036199Y015739D02*
D03*
X036496Y015407D02*
D03*
X036199D02*
D03*
Y014196D02*
D03*
X036496D02*
D03*
Y014817D02*
D03*
Y01509D02*
D03*
X036199D02*
D03*
Y014817D02*
D03*
X036496Y013923D02*
D03*
X036199D02*
D03*
X035608Y016571D02*
D03*
Y017109D02*
D03*
X035906D02*
D03*
Y016571D02*
D03*
Y016836D02*
D03*
X035608D02*
D03*
X035906Y014528D02*
D03*
X035608D02*
D03*
Y016028D02*
D03*
Y016293D02*
D03*
X035906D02*
D03*
Y015739D02*
D03*
Y016028D02*
D03*
X035608Y015739D02*
D03*
X035906Y015407D02*
D03*
X035608D02*
D03*
Y014196D02*
D03*
X035906D02*
D03*
Y014817D02*
D03*
Y01509D02*
D03*
X035608D02*
D03*
Y014817D02*
D03*
X035906Y013923D02*
D03*
X035608D02*
D03*
X035017Y016571D02*
D03*
Y017109D02*
D03*
X035315D02*
D03*
Y016571D02*
D03*
Y016836D02*
D03*
X035017D02*
D03*
X035315Y014528D02*
D03*
X035017D02*
D03*
Y016028D02*
D03*
Y016293D02*
D03*
X035315D02*
D03*
Y015739D02*
D03*
Y016028D02*
D03*
X035017Y015739D02*
D03*
X035315Y015407D02*
D03*
X035017D02*
D03*
Y014196D02*
D03*
X035315D02*
D03*
Y014817D02*
D03*
Y01509D02*
D03*
X035017D02*
D03*
Y014817D02*
D03*
X035315Y013923D02*
D03*
X035017D02*
D03*
X044853Y018307D02*
D03*
X045118D02*
D03*
Y018063D02*
D03*
X044853D02*
D03*
X045911Y01885D02*
D03*
X045372D02*
D03*
X045637D02*
D03*
X046176Y018063D02*
D03*
X045911D02*
D03*
X045372D02*
D03*
X045637D02*
D03*
X045911Y018622D02*
D03*
X045372D02*
D03*
X045637D02*
D03*
Y018307D02*
D03*
X045372D02*
D03*
X045911D02*
D03*
X046198D02*
D03*
X04623Y012613D02*
D03*
X045915Y011675D02*
D03*
Y011402D02*
D03*
Y010781D02*
D03*
Y011992D02*
D03*
Y012613D02*
D03*
Y012324D02*
D03*
Y012878D02*
D03*
Y011112D02*
D03*
Y013417D02*
D03*
Y013152D02*
D03*
X04623D02*
D03*
Y013417D02*
D03*
Y012878D02*
D03*
Y010781D02*
D03*
X045324Y011675D02*
D03*
Y011402D02*
D03*
Y010781D02*
D03*
Y011992D02*
D03*
Y012613D02*
D03*
Y012324D02*
D03*
Y012878D02*
D03*
Y011112D02*
D03*
Y013417D02*
D03*
Y013152D02*
D03*
X045639D02*
D03*
Y013417D02*
D03*
Y011112D02*
D03*
Y012878D02*
D03*
Y012324D02*
D03*
Y012613D02*
D03*
Y011992D02*
D03*
Y010781D02*
D03*
Y011402D02*
D03*
Y011675D02*
D03*
X045039D02*
D03*
Y011402D02*
D03*
Y010781D02*
D03*
Y011992D02*
D03*
Y012613D02*
D03*
Y012324D02*
D03*
Y012878D02*
D03*
Y011112D02*
D03*
Y013417D02*
D03*
Y013152D02*
D03*
Y014564D02*
D03*
Y014291D02*
D03*
Y01367D02*
D03*
Y014882D02*
D03*
Y014002D02*
D03*
X044724Y014022D02*
D03*
Y014902D02*
D03*
Y01369D02*
D03*
Y014311D02*
D03*
Y014584D02*
D03*
Y013152D02*
D03*
Y013417D02*
D03*
Y012878D02*
D03*
Y012613D02*
D03*
X038386Y017093D02*
D03*
Y018858D02*
D03*
Y018304D02*
D03*
Y018594D02*
D03*
Y017973D02*
D03*
Y016761D02*
D03*
Y017382D02*
D03*
Y017655D02*
D03*
Y016223D02*
D03*
Y016488D02*
D03*
Y014207D02*
D03*
Y015984D02*
D03*
Y01543D02*
D03*
Y01572D02*
D03*
Y015099D02*
D03*
Y013875D02*
D03*
Y014496D02*
D03*
Y014769D02*
D03*
Y013602D02*
D03*
X038071Y017093D02*
D03*
Y018858D02*
D03*
Y018304D02*
D03*
Y018594D02*
D03*
Y017973D02*
D03*
Y016761D02*
D03*
Y017382D02*
D03*
Y017655D02*
D03*
Y016223D02*
D03*
Y016488D02*
D03*
Y014207D02*
D03*
Y015984D02*
D03*
Y01543D02*
D03*
Y01572D02*
D03*
Y015099D02*
D03*
Y013875D02*
D03*
Y014496D02*
D03*
Y014769D02*
D03*
X037756Y017093D02*
D03*
Y018858D02*
D03*
Y018304D02*
D03*
Y018594D02*
D03*
Y017973D02*
D03*
Y016761D02*
D03*
Y017382D02*
D03*
Y017655D02*
D03*
Y016223D02*
D03*
Y016488D02*
D03*
Y014207D02*
D03*
Y015984D02*
D03*
Y01543D02*
D03*
Y01572D02*
D03*
Y015099D02*
D03*
Y013875D02*
D03*
Y014496D02*
D03*
Y014769D02*
D03*
X037143Y013602D02*
D03*
X037441D02*
D03*
X037143Y014496D02*
D03*
Y014769D02*
D03*
X037441D02*
D03*
Y014496D02*
D03*
Y013875D02*
D03*
X037143D02*
D03*
Y015099D02*
D03*
X037441D02*
D03*
X037143Y01543D02*
D03*
X037441Y01572D02*
D03*
Y01543D02*
D03*
Y015984D02*
D03*
X037143D02*
D03*
Y01572D02*
D03*
Y014207D02*
D03*
X037441D02*
D03*
X037143Y016488D02*
D03*
X037441D02*
D03*
Y016223D02*
D03*
X037143Y017382D02*
D03*
Y017655D02*
D03*
X037441D02*
D03*
Y017382D02*
D03*
Y016761D02*
D03*
X037143D02*
D03*
Y017973D02*
D03*
X037441D02*
D03*
X037143Y018304D02*
D03*
X037441Y018594D02*
D03*
Y018304D02*
D03*
Y018858D02*
D03*
X037143D02*
D03*
Y018594D02*
D03*
Y017093D02*
D03*
X037441D02*
D03*
X037143Y016211D02*
D03*
X039797Y021273D02*
D03*
X03956Y021096D02*
D03*
X03979Y020866D02*
D03*
X035512Y019488D02*
D03*
X035079Y019055D02*
D03*
X034878Y018846D02*
D03*
X034173Y01815D02*
D03*
X034658Y018636D02*
D03*
X034421Y018407D02*
D03*
X033807Y017953D02*
D03*
X033625Y017756D02*
D03*
X033807Y018379D02*
D03*
X034179Y018576D02*
D03*
X034624Y01903D02*
D03*
X034376Y018773D02*
D03*
X035081Y019469D02*
D03*
X035282Y019678D02*
D03*
X033625Y018182D02*
D03*
X034331Y017165D02*
D03*
X034366Y016759D02*
D03*
X033661Y016063D02*
D03*
X033909Y016293D02*
D03*
X033431D02*
D03*
X033668Y016489D02*
D03*
X034112Y016944D02*
D03*
X033864Y016686D02*
D03*
X037126Y019173D02*
D03*
X035321Y017867D02*
D03*
X035085Y01767D02*
D03*
X035951Y018458D02*
D03*
X036199Y018715D02*
D03*
X035754Y018261D02*
D03*
X035518Y018064D02*
D03*
X035315Y017441D02*
D03*
X035551Y017638D02*
D03*
X035996Y018092D02*
D03*
X036233Y018321D02*
D03*
X035748Y017835D02*
D03*
X036453Y018531D02*
D03*
X036417Y018937D02*
D03*
X038465Y020866D02*
D03*
X039331Y02126D02*
D03*
X039815Y021746D02*
D03*
X039579Y021517D02*
D03*
X039134Y021096D02*
D03*
X038819Y020866D02*
D03*
X039101Y021489D02*
D03*
X039337Y021686D02*
D03*
X038668Y021096D02*
D03*
X038904Y021293D02*
D03*
X038819Y020669D02*
D03*
X038543Y020433D02*
D03*
X037795Y019764D02*
D03*
X03828Y02025D02*
D03*
X038043Y020021D02*
D03*
X037598Y019567D02*
D03*
X037362Y01937D02*
D03*
X037565Y019993D02*
D03*
X037801Y02019D02*
D03*
X038246Y020645D02*
D03*
X037998Y020387D02*
D03*
X037132Y0196D02*
D03*
X037368Y019796D02*
D03*
X035742Y019692D02*
D03*
X035978Y019889D02*
D03*
X036423Y020343D02*
D03*
X03666Y020571D02*
D03*
X036175Y020085D02*
D03*
X036879Y020782D02*
D03*
X03708Y020991D02*
D03*
X037317Y021227D02*
D03*
X037514Y021424D02*
D03*
X03771Y021621D02*
D03*
X037907Y021818D02*
D03*
X036142Y030315D02*
D03*
X032977Y030327D02*
D03*
X034401D02*
D03*
X032709D02*
D03*
X033847D02*
D03*
X034137D02*
D03*
X03324D02*
D03*
X03752Y029311D02*
D03*
X037784D02*
D03*
X037261D02*
D03*
X038512Y030038D02*
D03*
X038031Y030039D02*
D03*
X038296D02*
D03*
X041142Y028512D02*
D03*
Y028777D02*
D03*
X041693Y026222D02*
D03*
X042311Y02501D02*
D03*
X042022D02*
D03*
X041693D02*
D03*
X042638D02*
D03*
X042913D02*
D03*
X042638Y0253D02*
D03*
X041693Y025573D02*
D03*
X042022D02*
D03*
X042311D02*
D03*
Y0253D02*
D03*
X042022D02*
D03*
X041693D02*
D03*
X042022Y02589D02*
D03*
X041693D02*
D03*
X041388Y026487D02*
D03*
Y026222D02*
D03*
X041098D02*
D03*
Y026487D02*
D03*
X041388Y02589D02*
D03*
X041098D02*
D03*
Y0253D02*
D03*
X041388D02*
D03*
Y025573D02*
D03*
X041098D02*
D03*
Y026752D02*
D03*
X041535Y021024D02*
D03*
X04214D02*
D03*
X041809D02*
D03*
X041535Y020748D02*
D03*
X04214D02*
D03*
X041809D02*
D03*
X04063Y021024D02*
D03*
X041235D02*
D03*
X040903D02*
D03*
X04063Y020748D02*
D03*
X041235D02*
D03*
X040903D02*
D03*
X041535Y021575D02*
D03*
X04214D02*
D03*
X041809D02*
D03*
X041535Y021299D02*
D03*
X04214D02*
D03*
X041809D02*
D03*
X04063Y021575D02*
D03*
X041235D02*
D03*
X040903D02*
D03*
X04063Y021299D02*
D03*
X041235D02*
D03*
X040903D02*
D03*
X045524Y019909D02*
D03*
X045812Y019687D02*
D03*
X045529D02*
D03*
X029173Y035984D02*
D03*
X016614Y036614D02*
D03*
Y036969D02*
D03*
Y037283D02*
D03*
X019409Y036929D02*
D03*
Y037283D02*
D03*
X01689D02*
D03*
X017205D02*
D03*
X01752D02*
D03*
X017835D02*
D03*
X01815D02*
D03*
X018465D02*
D03*
X01878D02*
D03*
X019094D02*
D03*
X01689Y036969D02*
D03*
X017205D02*
D03*
X01752D02*
D03*
X017835D02*
D03*
X01815D02*
D03*
X018465D02*
D03*
X01878D02*
D03*
X019094D02*
D03*
X01689Y036614D02*
D03*
X017205D02*
D03*
X01752D02*
D03*
X017835D02*
D03*
X01815D02*
D03*
X018465D02*
D03*
X01878D02*
D03*
X019094D02*
D03*
X028858Y035984D02*
D03*
X028543D02*
D03*
X024764Y036299D02*
D03*
X025079D02*
D03*
X025394D02*
D03*
X025709D02*
D03*
X026024D02*
D03*
X026339D02*
D03*
X026654D02*
D03*
X026969D02*
D03*
X027283D02*
D03*
X027598D02*
D03*
X027913D02*
D03*
X028228D02*
D03*
X028543D02*
D03*
X028858D02*
D03*
X024449D02*
D03*
X024134D02*
D03*
X023819D02*
D03*
X023504D02*
D03*
X023189D02*
D03*
X022874D02*
D03*
X022559D02*
D03*
X022244D02*
D03*
X021929D02*
D03*
X021614D02*
D03*
X021299D02*
D03*
X020984D02*
D03*
X020669D02*
D03*
X020354D02*
D03*
X020039D02*
D03*
X019724D02*
D03*
X019409D02*
D03*
X019094D02*
D03*
X01878D02*
D03*
X018465D02*
D03*
X01815D02*
D03*
X017835D02*
D03*
X01752D02*
D03*
X017205D02*
D03*
X01689D02*
D03*
X031396Y043018D02*
D03*
X031376Y04203D02*
D03*
Y042345D02*
D03*
Y0427D02*
D03*
Y041714D02*
D03*
Y041417D02*
D03*
Y041141D02*
D03*
Y040631D02*
D03*
Y040354D02*
D03*
Y039764D02*
D03*
Y040079D02*
D03*
Y039448D02*
D03*
Y039151D02*
D03*
Y038874D02*
D03*
X032183Y032559D02*
D03*
Y031938D02*
D03*
Y032824D02*
D03*
Y03308D02*
D03*
Y03227D02*
D03*
Y031662D02*
D03*
X03189Y031668D02*
D03*
Y032275D02*
D03*
Y033085D02*
D03*
Y032829D02*
D03*
Y031944D02*
D03*
Y032565D02*
D03*
X041732Y034055D02*
D03*
Y03378D02*
D03*
X04347D02*
D03*
X044356D02*
D03*
X044091D02*
D03*
X043802D02*
D03*
X04315D02*
D03*
X04234D02*
D03*
X042629D02*
D03*
X042008D02*
D03*
X042893D02*
D03*
X044606D02*
D03*
X04347Y034055D02*
D03*
X044356D02*
D03*
X044091D02*
D03*
X043802D02*
D03*
X04315D02*
D03*
X04234D02*
D03*
X042629D02*
D03*
X042008D02*
D03*
X042893D02*
D03*
X044606D02*
D03*
X045124Y030854D02*
D03*
X045364Y030855D02*
D03*
X045358Y031064D02*
D03*
X045042Y032721D02*
D03*
Y03226D02*
D03*
X038728Y034028D02*
D03*
X038492D02*
D03*
X037744Y041232D02*
D03*
X037429D02*
D03*
X037114D02*
D03*
X03716Y044233D02*
D03*
X038475Y043898D02*
D03*
X037746Y040111D02*
D03*
X047525Y035106D02*
D03*
X046924D02*
D03*
X046631D02*
D03*
X046103D02*
D03*
X046368D02*
D03*
X047248D02*
D03*
X047377Y03598D02*
D03*
X04563Y035981D02*
D03*
Y036263D02*
D03*
X047061D02*
D03*
X046769D02*
D03*
X045951D02*
D03*
X046241D02*
D03*
X046505D02*
D03*
Y035981D02*
D03*
X046241D02*
D03*
X045951D02*
D03*
X046769D02*
D03*
X047061D02*
D03*
X047465Y037005D02*
D03*
X047173D02*
D03*
X046355D02*
D03*
X046645D02*
D03*
X046909D02*
D03*
Y037283D02*
D03*
X046645D02*
D03*
X046355D02*
D03*
X047173D02*
D03*
X04317Y035984D02*
D03*
X042285D02*
D03*
X042906D02*
D03*
X042616D02*
D03*
X041973D02*
D03*
X043458D02*
D03*
X043666Y035789D02*
D03*
X045375Y037524D02*
D03*
X044843Y037008D02*
D03*
X044778Y03729D02*
D03*
X045096Y037278D02*
D03*
X044975Y037536D02*
D03*
X044644D02*
D03*
X045055Y037783D02*
D03*
X045344D02*
D03*
X044723D02*
D03*
X045609D02*
D03*
X047485Y038268D02*
D03*
X045738D02*
D03*
X044852D02*
D03*
X045473D02*
D03*
X045184D02*
D03*
X046024D02*
D03*
X045738Y038033D02*
D03*
X044852D02*
D03*
X045473D02*
D03*
X045184D02*
D03*
X046024D02*
D03*
X046676Y038268D02*
D03*
X046965D02*
D03*
X04723D02*
D03*
X046344D02*
D03*
X046676Y038033D02*
D03*
X046965D02*
D03*
X046344D02*
D03*
X04723D02*
D03*
X0434Y040092D02*
D03*
Y04039D02*
D03*
X043068D02*
D03*
X043705D02*
D03*
Y040092D02*
D03*
X044037Y04039D02*
D03*
X044326Y040092D02*
D03*
X044037D02*
D03*
X044326Y04039D02*
D03*
X044626D02*
D03*
Y040092D02*
D03*
X044958Y04039D02*
D03*
X045247Y040092D02*
D03*
X044958D02*
D03*
X045247Y04039D02*
D03*
X048794Y04187D02*
D03*
X046155Y04039D02*
D03*
X045866Y040092D02*
D03*
X046155D02*
D03*
X045866Y04039D02*
D03*
X045535Y040092D02*
D03*
Y04039D02*
D03*
X047897Y042435D02*
D03*
Y043026D02*
D03*
Y043301D02*
D03*
Y043616D02*
D03*
Y042711D02*
D03*
Y04187D02*
D03*
Y042145D02*
D03*
X048782Y044664D02*
D03*
X048518Y044403D02*
D03*
X048782Y044396D02*
D03*
Y044134D02*
D03*
X048518D02*
D03*
X048228Y042717D02*
D03*
X048518Y042441D02*
D03*
X048228D02*
D03*
X048518Y042145D02*
D03*
X048228D02*
D03*
Y04187D02*
D03*
X048518D02*
D03*
X048782Y042145D02*
D03*
Y042427D02*
D03*
Y042703D02*
D03*
X048518Y042711D02*
D03*
X048228Y043898D02*
D03*
X048518Y043622D02*
D03*
X048228D02*
D03*
X048518Y043307D02*
D03*
X048228D02*
D03*
Y043032D02*
D03*
X048518D02*
D03*
X048782Y043018D02*
D03*
Y043294D02*
D03*
Y043609D02*
D03*
Y043884D02*
D03*
X048518Y043892D02*
D03*
X045526Y046333D02*
D03*
X045512Y047244D02*
D03*
Y046929D02*
D03*
X045236D02*
D03*
X04579Y046325D02*
D03*
X046066D02*
D03*
Y046049D02*
D03*
X04579D02*
D03*
X046066Y045735D02*
D03*
X04579D02*
D03*
Y045459D02*
D03*
X045512Y045472D02*
D03*
X045236D02*
D03*
X044921D02*
D03*
X043937D02*
D03*
X044252D02*
D03*
X044568D02*
D03*
X043268D02*
D03*
X042953D02*
D03*
X043583D02*
D03*
X042535Y046591D02*
D03*
Y046276D02*
D03*
Y046D02*
D03*
X04222D02*
D03*
X042535Y045686D02*
D03*
X04222D02*
D03*
X042205Y049134D02*
D03*
X042202Y04938D02*
D03*
X042559Y04748D02*
D03*
Y04685D02*
D03*
Y047165D02*
D03*
Y048466D02*
D03*
Y04815D02*
D03*
Y047835D02*
D03*
Y048819D02*
D03*
Y049134D02*
D03*
X042556Y04938D02*
D03*
X043583Y045748D02*
D03*
X042953D02*
D03*
X043268D02*
D03*
X044568D02*
D03*
X044252D02*
D03*
X043937D02*
D03*
X044921D02*
D03*
X045236D02*
D03*
X045512D02*
D03*
X043583Y046063D02*
D03*
X042953D02*
D03*
X043268D02*
D03*
X044568D02*
D03*
X044252D02*
D03*
X043937D02*
D03*
X044921D02*
D03*
X045236D02*
D03*
X045512D02*
D03*
X043583Y046339D02*
D03*
X042953D02*
D03*
X043268D02*
D03*
X044568D02*
D03*
X044252D02*
D03*
X043937D02*
D03*
X044921D02*
D03*
X045236D02*
D03*
X043583Y046654D02*
D03*
X042953D02*
D03*
X043268D02*
D03*
X044568D02*
D03*
X044252D02*
D03*
X043937D02*
D03*
X044921D02*
D03*
X045236D02*
D03*
X045512D02*
D03*
X031732Y049058D02*
D03*
X031729Y04942D02*
D03*
X032536Y049422D02*
D03*
X032539Y049058D02*
D03*
X026772Y042441D02*
D03*
X026398Y042439D02*
D03*
X025945Y042441D02*
D03*
X025512D02*
D03*
X025118D02*
D03*
X024764D02*
D03*
X024409D02*
D03*
Y045315D02*
D03*
Y045D02*
D03*
Y044685D02*
D03*
Y04437D02*
D03*
Y043385D02*
D03*
Y043701D02*
D03*
Y044016D02*
D03*
X02447Y043031D02*
D03*
X024409Y042717D02*
D03*
X031365Y047502D02*
D03*
X031378Y047205D02*
D03*
Y046928D02*
D03*
X031368Y046282D02*
D03*
Y046597D02*
D03*
X031365Y045966D02*
D03*
X031378Y045669D02*
D03*
Y045393D02*
D03*
X031102Y044488D02*
D03*
X031457D02*
D03*
X031102Y044213D02*
D03*
X031457D02*
D03*
X031102Y043898D02*
D03*
X031457D02*
D03*
X031142Y041417D02*
D03*
X028265Y041141D02*
D03*
X02862D02*
D03*
X028935D02*
D03*
X028937Y041714D02*
D03*
Y041417D02*
D03*
X028622Y041714D02*
D03*
Y041417D02*
D03*
X028268Y041714D02*
D03*
Y041417D02*
D03*
X031129Y041714D02*
D03*
X031131Y0427D02*
D03*
Y042345D02*
D03*
Y04203D02*
D03*
X031134Y043018D02*
D03*
X028937Y043701D02*
D03*
Y043385D02*
D03*
X028622Y043701D02*
D03*
Y043385D02*
D03*
X028265Y042345D02*
D03*
Y0427D02*
D03*
Y043015D02*
D03*
X02862Y042345D02*
D03*
Y0427D02*
D03*
Y043015D02*
D03*
X028935Y042345D02*
D03*
Y0427D02*
D03*
Y043015D02*
D03*
X028932Y04203D02*
D03*
X028617D02*
D03*
X028263D02*
D03*
X027596Y043385D02*
D03*
X02795D02*
D03*
X028265D02*
D03*
X028268Y04437D02*
D03*
Y044016D02*
D03*
Y043701D02*
D03*
Y045D02*
D03*
Y045315D02*
D03*
Y045709D02*
D03*
Y046102D02*
D03*
Y046496D02*
D03*
Y04685D02*
D03*
Y044685D02*
D03*
Y047205D02*
D03*
Y047835D02*
D03*
Y04752D02*
D03*
X027953Y04437D02*
D03*
Y044016D02*
D03*
Y043701D02*
D03*
Y045D02*
D03*
Y045315D02*
D03*
Y045709D02*
D03*
Y046102D02*
D03*
Y046496D02*
D03*
Y04685D02*
D03*
Y044685D02*
D03*
Y047205D02*
D03*
Y047835D02*
D03*
Y04752D02*
D03*
X027598Y04437D02*
D03*
Y044016D02*
D03*
Y043701D02*
D03*
Y045D02*
D03*
Y045315D02*
D03*
Y045709D02*
D03*
Y046102D02*
D03*
Y046496D02*
D03*
Y04685D02*
D03*
Y044685D02*
D03*
Y047205D02*
D03*
Y047835D02*
D03*
Y04752D02*
D03*
X027205Y047205D02*
D03*
Y04752D02*
D03*
Y047835D02*
D03*
Y048228D02*
D03*
Y048622D02*
D03*
Y049016D02*
D03*
Y04685D02*
D03*
Y04437D02*
D03*
Y046496D02*
D03*
Y046102D02*
D03*
Y045709D02*
D03*
Y045315D02*
D03*
Y045D02*
D03*
Y044685D02*
D03*
Y043385D02*
D03*
Y043701D02*
D03*
Y044016D02*
D03*
X024764Y042717D02*
D03*
X025118D02*
D03*
X025512D02*
D03*
X025945D02*
D03*
X026398Y042714D02*
D03*
X026772Y042717D02*
D03*
Y043032D02*
D03*
Y044016D02*
D03*
Y043701D02*
D03*
Y043385D02*
D03*
X026398Y043029D02*
D03*
Y044016D02*
D03*
Y043701D02*
D03*
Y043385D02*
D03*
X025945Y043032D02*
D03*
Y044016D02*
D03*
Y043701D02*
D03*
Y043385D02*
D03*
X025512Y043032D02*
D03*
Y044016D02*
D03*
Y043701D02*
D03*
Y043385D02*
D03*
X025178Y043031D02*
D03*
X025118Y044016D02*
D03*
Y043701D02*
D03*
Y043385D02*
D03*
X024824Y043031D02*
D03*
X024764Y044016D02*
D03*
Y043701D02*
D03*
Y043385D02*
D03*
Y044685D02*
D03*
Y045D02*
D03*
Y045315D02*
D03*
Y045709D02*
D03*
Y046102D02*
D03*
Y046496D02*
D03*
Y04437D02*
D03*
X025118Y044685D02*
D03*
Y045D02*
D03*
Y045315D02*
D03*
Y045709D02*
D03*
Y046102D02*
D03*
Y046496D02*
D03*
Y04437D02*
D03*
X025512Y044685D02*
D03*
Y045D02*
D03*
Y045315D02*
D03*
Y045709D02*
D03*
Y046102D02*
D03*
Y046496D02*
D03*
Y04437D02*
D03*
X025945Y044685D02*
D03*
Y045D02*
D03*
Y045315D02*
D03*
Y045709D02*
D03*
Y046102D02*
D03*
Y046496D02*
D03*
Y04437D02*
D03*
X026398Y044685D02*
D03*
Y045D02*
D03*
Y045315D02*
D03*
Y045709D02*
D03*
Y046102D02*
D03*
Y046496D02*
D03*
Y04437D02*
D03*
X026772Y044685D02*
D03*
Y045D02*
D03*
Y045315D02*
D03*
Y045709D02*
D03*
Y046102D02*
D03*
Y046496D02*
D03*
Y04437D02*
D03*
Y04685D02*
D03*
Y049016D02*
D03*
Y048622D02*
D03*
Y048228D02*
D03*
Y047835D02*
D03*
Y04752D02*
D03*
Y047205D02*
D03*
X026398Y04685D02*
D03*
Y049013D02*
D03*
Y048622D02*
D03*
Y048228D02*
D03*
Y047835D02*
D03*
Y04752D02*
D03*
Y047205D02*
D03*
X025945Y04685D02*
D03*
Y049016D02*
D03*
Y048622D02*
D03*
Y048228D02*
D03*
Y047835D02*
D03*
Y04752D02*
D03*
Y047205D02*
D03*
X025512Y04685D02*
D03*
Y049016D02*
D03*
Y048622D02*
D03*
Y048228D02*
D03*
Y047835D02*
D03*
Y04752D02*
D03*
Y047205D02*
D03*
X025118Y04685D02*
D03*
Y049016D02*
D03*
Y048622D02*
D03*
Y048228D02*
D03*
Y047835D02*
D03*
Y04752D02*
D03*
Y047205D02*
D03*
X024764Y04685D02*
D03*
Y049016D02*
D03*
Y048622D02*
D03*
Y048228D02*
D03*
Y047835D02*
D03*
Y04752D02*
D03*
Y047205D02*
D03*
X018811Y040984D02*
D03*
Y04063D02*
D03*
Y040276D02*
D03*
Y039913D02*
D03*
X018496Y039924D02*
D03*
X018102D02*
D03*
X017709D02*
D03*
X017315D02*
D03*
X017323Y040278D02*
D03*
X017717D02*
D03*
X01811D02*
D03*
X018504D02*
D03*
X017323Y04063D02*
D03*
X017717D02*
D03*
X01811D02*
D03*
X018504D02*
D03*
X017323Y040984D02*
D03*
X017717D02*
D03*
X01811D02*
D03*
X018504D02*
D03*
Y041339D02*
D03*
X01811D02*
D03*
X017717D02*
D03*
X048228Y017402D02*
D03*
X044387Y032323D02*
D03*
X04456Y029694D02*
D03*
X047465Y037283D02*
D03*
X047385Y036263D02*
D03*
X042835Y03561D02*
D03*
X045118Y031063D02*
D03*
X031376Y038622D02*
D03*
X040949Y01778D02*
D03*
D120*
X011976Y024102D02*
D03*
Y022102D02*
D03*
Y030894D02*
D03*
Y028894D02*
D03*
X01202Y015972D02*
D03*
Y017972D02*
D03*
X0117Y0466D02*
D03*
Y0486D02*
D03*
D121*
X048654Y029528D02*
D03*
Y022319D02*
D03*
Y038638D02*
D03*
D122*
X011598Y012047D02*
D03*
X044252Y048189D02*
D03*
X047726Y012092D02*
D03*
X011752Y044043D02*
D03*
D123*
X041661Y01385D02*
D03*
X042661D02*
D03*
D124*
X039661Y01185D02*
D03*
X043661D02*
D03*
D125*
X048264Y01439D02*
D03*
X048241Y020465D02*
D03*
D126*
X048264Y01539D02*
D03*
Y01639D02*
D03*
X048241Y019465D02*
D03*
Y018465D02*
D03*
D127*
X0466Y0472D02*
D03*
X0486D02*
D03*
Y0492D02*
D03*
X0466D02*
D03*
X0476Y0482D02*
D03*
D128*
X03521Y035252D02*
D03*
Y035409D02*
D03*
Y035114D02*
D03*
X035017Y035252D02*
D03*
Y035409D02*
D03*
Y035114D02*
D03*
X040156Y035996D02*
D03*
X040029Y035992D02*
D03*
X039903D02*
D03*
X03539Y035409D02*
D03*
Y035252D02*
D03*
Y035114D02*
D03*
X036428Y034058D02*
D03*
X036062Y034462D02*
D03*
X035317Y03601D02*
D03*
X035129D02*
D03*
X034916D02*
D03*
X034733D02*
D03*
X03455D02*
D03*
X034369D02*
D03*
X034687Y047301D02*
D03*
X034528Y047303D02*
D03*
X038128Y03498D02*
D03*
X038134Y035148D02*
D03*
X038248Y035052D02*
D03*
X038249Y034906D02*
D03*
X03922Y03589D02*
D03*
X039386Y035879D02*
D03*
X039306Y036015D02*
D03*
X039445D02*
D03*
X037249Y038015D02*
D03*
X037096Y038018D02*
D03*
X037392D02*
D03*
X040466Y035111D02*
D03*
X040315Y035118D02*
D03*
X040394Y03524D02*
D03*
X040244D02*
D03*
X039598Y04961D02*
D03*
X019745Y033263D02*
D03*
X019402D02*
D03*
X019567D02*
D03*
X019744Y033476D02*
D03*
X019567D02*
D03*
X019402D02*
D03*
X033288Y025935D02*
D03*
X033111D02*
D03*
X032946D02*
D03*
X033294Y026093D02*
D03*
X033117D02*
D03*
X032952D02*
D03*
X022668Y035438D02*
D03*
Y035273D02*
D03*
Y035096D02*
D03*
X022511Y035444D02*
D03*
Y035279D02*
D03*
Y035102D02*
D03*
X022346Y035102D02*
D03*
Y03528D02*
D03*
Y035445D02*
D03*
X049164Y046341D02*
D03*
Y045972D02*
D03*
Y044074D02*
D03*
Y042574D02*
D03*
Y045074D02*
D03*
Y044574D02*
D03*
Y041074D02*
D03*
Y043574D02*
D03*
Y042074D02*
D03*
Y043074D02*
D03*
Y045574D02*
D03*
Y041574D02*
D03*
X027651Y010634D02*
D03*
X02706Y010654D02*
D03*
X028033Y010634D02*
D03*
X028533D02*
D03*
X029033D02*
D03*
X020886D02*
D03*
X020504D02*
D03*
X021386D02*
D03*
X017291D02*
D03*
X017622D02*
D03*
X020004D02*
D03*
X030943D02*
D03*
X031443D02*
D03*
X030561D02*
D03*
X02656Y010654D02*
D03*
X02606D02*
D03*
X02556D02*
D03*
X030033Y010634D02*
D03*
X029533D02*
D03*
X022858D02*
D03*
X041578Y030202D02*
D03*
X041422D02*
D03*
X041588Y03034D02*
D03*
X041746Y030202D02*
D03*
X041753Y030337D02*
D03*
X04766Y044151D02*
D03*
X047835Y044346D02*
D03*
X047358Y043594D02*
D03*
X047449Y04398D02*
D03*
X047935Y044669D02*
D03*
Y04418D02*
D03*
X047244Y043775D02*
D03*
X047598D02*
D03*
X023769Y010634D02*
D03*
X024269D02*
D03*
X024769D02*
D03*
X025178Y010654D02*
D03*
X023386Y010634D02*
D03*
X022386D02*
D03*
X021886D02*
D03*
X017004D02*
D03*
X018004D02*
D03*
X019504D02*
D03*
X019004D02*
D03*
X018504D02*
D03*
X015122D02*
D03*
X015622D02*
D03*
X016122D02*
D03*
X016622D02*
D03*
X014622D02*
D03*
X014122D02*
D03*
X013622D02*
D03*
X01174D02*
D03*
X01224D02*
D03*
X01274D02*
D03*
X01324D02*
D03*
X01124D02*
D03*
X01074D02*
D03*
X01024D02*
D03*
X047087Y043543D02*
D03*
X047263Y043314D02*
D03*
X047559Y043583D02*
D03*
Y043307D02*
D03*
X048811Y045855D02*
D03*
X048718Y045572D02*
D03*
X048617Y046002D02*
D03*
X048563Y045106D02*
D03*
X04801Y044358D02*
D03*
X048605Y046237D02*
D03*
X046449Y04634D02*
D03*
X013274Y046547D02*
D03*
X010575Y046888D02*
D03*
X011047D02*
D03*
X012504D02*
D03*
X012898D02*
D03*
X010575Y046545D02*
D03*
X011047D02*
D03*
X012504D02*
D03*
X012898D02*
D03*
X013268Y044575D02*
D03*
Y045075D02*
D03*
Y045575D02*
D03*
Y046075D02*
D03*
X012874Y045075D02*
D03*
Y045575D02*
D03*
Y046075D02*
D03*
X01248Y045575D02*
D03*
Y046075D02*
D03*
X012047Y045575D02*
D03*
Y046075D02*
D03*
X011417Y045575D02*
D03*
Y046075D02*
D03*
X010945Y045575D02*
D03*
Y046075D02*
D03*
X010551Y045075D02*
D03*
Y045575D02*
D03*
Y046075D02*
D03*
X034098Y04961D02*
D03*
X034598D02*
D03*
X033598D02*
D03*
X033098D02*
D03*
X032598D02*
D03*
X032098D02*
D03*
X031598D02*
D03*
X031098D02*
D03*
X046496Y046142D02*
D03*
X046417Y045827D02*
D03*
X04626Y045512D02*
D03*
X04601Y045246D02*
D03*
X045748Y045079D02*
D03*
X045045Y044948D02*
D03*
X045488Y045003D02*
D03*
X044136Y044955D02*
D03*
X044491D02*
D03*
X043819Y044961D02*
D03*
X043425D02*
D03*
X043071D02*
D03*
X042583Y044937D02*
D03*
X042323Y044961D02*
D03*
X048543Y045748D02*
D03*
Y045354D02*
D03*
X048425Y044843D02*
D03*
X04825Y045211D02*
D03*
X04815Y044567D02*
D03*
X04685Y043465D02*
D03*
X044039Y044944D02*
D03*
X046024Y043268D02*
D03*
X046654Y046299D02*
D03*
Y045945D02*
D03*
X046535Y045591D02*
D03*
X046299Y045276D02*
D03*
X046063Y045039D02*
D03*
X045748Y044843D02*
D03*
X045275Y044818D02*
D03*
X044803Y044764D02*
D03*
X04437D02*
D03*
X043976D02*
D03*
X043622D02*
D03*
X043268D02*
D03*
X04278Y04474D02*
D03*
X04248Y044764D02*
D03*
X042126D02*
D03*
X048346Y04622D02*
D03*
Y045906D02*
D03*
X048307Y045551D02*
D03*
X048071Y044882D02*
D03*
X046929Y04374D02*
D03*
X046535Y043583D02*
D03*
X046141Y04347D02*
D03*
X045787Y043425D02*
D03*
X043098Y04961D02*
D03*
X043598D02*
D03*
X044098D02*
D03*
X044598D02*
D03*
X045098D02*
D03*
X045598D02*
D03*
X035598D02*
D03*
X036098D02*
D03*
X036598D02*
D03*
X037098D02*
D03*
X037598D02*
D03*
X038098D02*
D03*
X038598D02*
D03*
X039098D02*
D03*
X042598D02*
D03*
X042098D02*
D03*
X041598D02*
D03*
X041098D02*
D03*
X040598D02*
D03*
X040098D02*
D03*
X028098D02*
D03*
X028598D02*
D03*
X029098D02*
D03*
X029598D02*
D03*
X030098D02*
D03*
X030598D02*
D03*
X035098D02*
D03*
X010236Y017067D02*
D03*
Y016567D02*
D03*
Y016067D02*
D03*
Y015567D02*
D03*
Y015067D02*
D03*
Y014567D02*
D03*
Y014067D02*
D03*
Y013567D02*
D03*
Y013067D02*
D03*
Y011067D02*
D03*
Y011567D02*
D03*
Y012567D02*
D03*
Y024567D02*
D03*
Y024067D02*
D03*
Y023567D02*
D03*
Y023067D02*
D03*
Y022567D02*
D03*
Y022067D02*
D03*
Y021567D02*
D03*
Y021067D02*
D03*
Y020567D02*
D03*
Y017567D02*
D03*
Y018067D02*
D03*
Y018567D02*
D03*
Y019067D02*
D03*
Y019567D02*
D03*
Y020067D02*
D03*
Y032067D02*
D03*
Y031567D02*
D03*
Y031067D02*
D03*
Y030567D02*
D03*
Y030067D02*
D03*
Y029567D02*
D03*
Y029067D02*
D03*
Y028567D02*
D03*
Y028067D02*
D03*
Y025067D02*
D03*
Y025567D02*
D03*
Y026067D02*
D03*
Y026567D02*
D03*
Y027067D02*
D03*
Y027567D02*
D03*
Y039567D02*
D03*
Y039067D02*
D03*
Y038567D02*
D03*
Y038067D02*
D03*
Y037567D02*
D03*
Y037067D02*
D03*
Y036567D02*
D03*
Y036067D02*
D03*
Y035567D02*
D03*
Y032567D02*
D03*
Y033067D02*
D03*
Y033567D02*
D03*
Y034067D02*
D03*
Y034567D02*
D03*
Y035067D02*
D03*
Y047067D02*
D03*
Y046567D02*
D03*
Y046067D02*
D03*
Y045567D02*
D03*
Y045067D02*
D03*
Y044567D02*
D03*
Y044067D02*
D03*
Y040067D02*
D03*
Y040567D02*
D03*
Y041067D02*
D03*
Y041567D02*
D03*
Y042067D02*
D03*
Y042567D02*
D03*
Y047567D02*
D03*
Y048067D02*
D03*
Y048567D02*
D03*
Y049067D02*
D03*
X010233Y049538D02*
D03*
X013098Y04961D02*
D03*
X012598D02*
D03*
X012098D02*
D03*
X011598D02*
D03*
X011098D02*
D03*
X010598D02*
D03*
X013598D02*
D03*
X014098D02*
D03*
X014598D02*
D03*
X015098D02*
D03*
X015598D02*
D03*
X016098D02*
D03*
X016598D02*
D03*
X017098D02*
D03*
X017598D02*
D03*
X018098D02*
D03*
X018598D02*
D03*
X019098D02*
D03*
X019598D02*
D03*
X020098D02*
D03*
X020598D02*
D03*
X026098D02*
D03*
X023598D02*
D03*
X021098D02*
D03*
X024598D02*
D03*
X027098D02*
D03*
X025598D02*
D03*
X023098D02*
D03*
X027598D02*
D03*
X025098D02*
D03*
X021598D02*
D03*
X022598D02*
D03*
X026598D02*
D03*
X024098D02*
D03*
X022098D02*
D03*
D129*
X039428Y032893D02*
D03*
X039487Y031551D02*
D03*
Y032298D02*
D03*
X043084Y015017D02*
D03*
X039606Y019488D02*
D03*
Y020118D02*
D03*
X045866Y01748D02*
D03*
X044016Y018386D02*
D03*
D130*
X038445Y043163D02*
D03*
X037675Y04283D02*
D03*
X03569Y042794D02*
D03*
X034803Y04315D02*
D03*
D131*
X03315Y048929D02*
D03*
Y048311D02*
D03*
Y047669D02*
D03*
X039012Y031563D02*
D03*
X039004Y032248D02*
D03*
X03902Y032894D02*
D03*
D132*
X036236Y043598D02*
D03*
X037236D02*
D03*
X035736D02*
D03*
X036736D02*
D03*
X037736D02*
D03*
X035236D02*
D03*
D133*
X034579Y044181D02*
D03*
X039697Y048906D02*
D03*
X034579D02*
D03*
X039697Y044181D02*
D03*
D134*
X03811Y043598D02*
D03*
D135*
X037717Y041795D02*
D03*
Y042051D02*
D03*
Y042307D02*
D03*
X038488D02*
D03*
Y042051D02*
D03*
Y041795D02*
D03*
D136*
X037096Y038018D02*
X037392D01*
X034528Y047303D02*
X034687D01*
X033169D02*
X034528D01*
X03315Y047323D02*
Y047669D01*
Y039101D02*
Y047323D01*
X033169Y047303D01*
X03315Y039101D02*
X034233Y038018D01*
X037096D01*
M02*
