G04*
G04 #@! TF.GenerationSoftware,Altium Limited,Altium Designer,21.0.8 (223)*
G04*
G04 Layer_Color=8388736*
%FSTAX24Y24*%
%MOIN*%
G70*
G04*
G04 #@! TF.SameCoordinates,802AE027-55FB-4EE0-B797-8BAC3B94A1FA*
G04*
G04*
G04 #@! TF.FilePolarity,Positive*
G04*
G01*
G75*
%ADD13C,0.0039*%
%ADD19C,0.0059*%
%ADD144C,0.0020*%
%ADD147C,0.0047*%
D13*
X034579Y049201D02*
X039697D01*
Y04861D02*
Y049201D01*
X034579Y04861D02*
Y049201D01*
X039539Y04861D02*
X039697D01*
X034579D02*
X034736D01*
Y044476D02*
Y04861D01*
X039539Y044476D02*
Y04861D01*
X034579Y044476D02*
X034736D01*
X039539D02*
X039697D01*
X034579Y043886D02*
Y044476D01*
X039697Y043886D02*
Y044476D01*
X034579Y043886D02*
X039697D01*
X034668Y040044D02*
X034868D01*
X034768Y039944D02*
Y040144D01*
X03461Y039729D02*
X034925D01*
X03461D02*
Y040359D01*
X034925D01*
Y039729D02*
Y040359D01*
X035494Y040044D02*
X035694D01*
X035594Y039944D02*
Y040144D01*
X035437Y039729D02*
X035752D01*
X035437D02*
Y040359D01*
X035752D01*
Y039729D02*
Y040359D01*
X036321Y040032D02*
X036521D01*
X036421Y039932D02*
Y040132D01*
X036264Y039717D02*
X036579D01*
X036264D02*
Y040347D01*
X036579D01*
Y039717D02*
Y040347D01*
X038361Y040658D02*
X038561D01*
X038461Y040558D02*
Y040758D01*
X038303Y040343D02*
X038618D01*
X038303D02*
Y040973D01*
X038618D01*
Y040343D02*
Y040973D01*
X039231Y04065D02*
X039431D01*
X039331Y04055D02*
Y04075D01*
X039173Y040335D02*
X039488D01*
X039173D02*
Y040965D01*
X039488D01*
Y040335D02*
Y040965D01*
X036333Y041909D02*
X036533D01*
X036433Y041809D02*
Y042009D01*
X036276Y042224D02*
X036591D01*
Y041594D02*
Y042224D01*
X036276Y041594D02*
X036591D01*
X036276D02*
Y042224D01*
X0355Y041922D02*
X0357D01*
X0356Y041822D02*
Y042022D01*
X035442Y042237D02*
X035757D01*
Y041607D02*
Y042237D01*
X035442Y041607D02*
X035757D01*
X035442D02*
Y042237D01*
X034673Y041926D02*
X034873D01*
X034773Y041826D02*
Y042026D01*
X034615Y042241D02*
X03493D01*
Y041611D02*
Y042241D01*
X034615Y041611D02*
X03493D01*
X034615D02*
Y042241D01*
D19*
X038457Y049201D02*
X039539D01*
D144*
X038102Y041913D02*
Y042189D01*
X037965Y042051D02*
X03824D01*
D147*
X037835Y041618D02*
X03837D01*
Y042484D01*
X037835D02*
X03837D01*
X037835Y041618D02*
Y042484D01*
M02*
