G04*
G04 #@! TF.GenerationSoftware,Altium Limited,Altium Designer,21.0.8 (223)*
G04*
G04 Layer_Color=16711935*
%FSTAX24Y24*%
%MOIN*%
G70*
G04*
G04 #@! TF.SameCoordinates,802AE027-55FB-4EE0-B797-8BAC3B94A1FA*
G04*
G04*
G04 #@! TF.FilePolarity,Positive*
G04*
G01*
G75*
%ADD10C,0.0100*%
%ADD13C,0.0039*%
%ADD143C,0.0012*%
%ADD144C,0.0020*%
D10*
X012308Y012047D02*
G03*
X012308Y012047I-00071J0D01*
G01*
X044962Y048189D02*
G03*
X044962Y048189I-00071J0D01*
G01*
X048436Y012092D02*
G03*
X048436Y012092I-00071J0D01*
G01*
X012462Y044043D02*
G03*
X012462Y044043I-00071J0D01*
G01*
D13*
X031575Y028061D02*
Y028415D01*
X030394D02*
X031575D01*
X030394Y028061D02*
Y028415D01*
Y028061D02*
X031575D01*
X030394Y027136D02*
X030394Y026781D01*
X031575D01*
X031575Y027136D01*
X030394D02*
X031575D01*
D143*
X012283Y040929D02*
Y041323D01*
Y040929D02*
X013465D01*
Y041323D01*
X012283D02*
X013465D01*
X011693Y040929D02*
Y041323D01*
X010512Y040929D02*
X011693D01*
X010512D02*
Y041323D01*
X011693D01*
X048832Y026729D02*
X049068D01*
Y027359D01*
X048832D02*
X049068D01*
X048832Y026729D02*
Y027359D01*
X048163D02*
X048399D01*
X048163Y026729D02*
Y027359D01*
Y026729D02*
X048399D01*
Y027359D01*
X019185Y044854D02*
Y045091D01*
Y044854D02*
X019815D01*
Y045091D01*
X019185D02*
X019815D01*
Y045524D02*
Y04576D01*
X019185D02*
X019815D01*
X019185Y045524D02*
Y04576D01*
Y045524D02*
X019815D01*
X048807Y041065D02*
Y041695D01*
X049043D01*
Y041065D02*
Y041695D01*
X048807Y041065D02*
X049043D01*
X048374Y041065D02*
Y041695D01*
X048138Y041065D02*
X048374Y041065D01*
X048138Y041065D02*
Y041695D01*
X048374Y041695D01*
X01861Y047875D02*
X019791D01*
Y048269D01*
X01861D02*
X019791D01*
X01861Y047875D02*
Y048269D01*
X016838Y047875D02*
X018019D01*
X016838D02*
Y048269D01*
X018019D01*
Y047875D02*
Y048269D01*
X020075Y034248D02*
X020468D01*
Y035429D01*
X020075D02*
X020468D01*
X020075Y034248D02*
Y035429D01*
Y033657D02*
X020468D01*
Y032476D02*
Y033657D01*
X020075Y032476D02*
X020468D01*
X020075D02*
Y033657D01*
X018492Y039278D02*
X019004D01*
Y039073D02*
Y039278D01*
X018492Y039073D02*
X019004D01*
X018492D02*
Y039278D01*
Y038778D02*
X019004D01*
Y038573D02*
Y038778D01*
X018492Y038573D02*
X019004D01*
X018492D02*
Y038778D01*
Y038278D02*
X019004D01*
Y038073D02*
Y038278D01*
X018492Y038073D02*
X019004D01*
X018492D02*
Y038278D01*
Y037778D02*
X019004D01*
Y037573D02*
Y037778D01*
X018492Y037573D02*
X019004D01*
X018492D02*
Y037778D01*
X019004D01*
Y037573D02*
Y037778D01*
X018492Y037573D02*
X019004D01*
X018492D02*
Y037778D01*
X016484Y037573D02*
X016996D01*
X016484D02*
Y037778D01*
X016996D01*
Y037573D02*
Y037778D01*
X016484Y038073D02*
X016996D01*
X016484D02*
Y038278D01*
X016996D01*
Y038073D02*
Y038278D01*
X016484Y038573D02*
X016996D01*
X016484D02*
Y038778D01*
X016996D01*
Y038573D02*
Y038778D01*
X016484Y039073D02*
X016996D01*
X016484D02*
Y039278D01*
X016996D01*
Y039073D02*
Y039278D01*
X016484Y039073D02*
X016996D01*
X016484D02*
Y039278D01*
X016996D01*
Y039073D02*
Y039278D01*
X048134Y040063D02*
X04837D01*
X048134Y039433D02*
Y040063D01*
Y039433D02*
X04837D01*
Y040063D01*
X048803Y039433D02*
X049039D01*
Y040063D01*
X048803D02*
X049039D01*
X048803Y039433D02*
Y040063D01*
X022984Y010752D02*
Y011933D01*
Y010752D02*
X023378D01*
Y011933D01*
X022984D02*
X023378D01*
X022984Y012524D02*
Y013705D01*
X023378D01*
Y012524D02*
Y013705D01*
X022984Y012524D02*
X023378D01*
X025831Y010752D02*
Y011933D01*
Y010752D02*
X026224D01*
Y011933D01*
X025831D02*
X026224D01*
X025831Y012524D02*
Y013705D01*
X026224D01*
Y012524D02*
Y013705D01*
X025831Y012524D02*
X026224D01*
X045856Y032165D02*
X046093D01*
X045856D02*
Y032795D01*
X046093D01*
Y032165D02*
Y032795D01*
X046356Y032165D02*
X046593D01*
X046356D02*
Y032795D01*
X046593D01*
Y032165D02*
Y032795D01*
X046856Y032165D02*
X047093D01*
X046856D02*
Y032795D01*
X047093D01*
Y032165D02*
Y032795D01*
X047356Y032165D02*
X047593D01*
X047356D02*
Y032795D01*
X047593D01*
Y032165D02*
Y032795D01*
X047356Y032165D02*
X047593D01*
X047356D02*
Y032795D01*
X047593D01*
Y032165D02*
Y032795D01*
X047356Y029961D02*
X047593D01*
Y029331D02*
Y029961D01*
X047356Y029331D02*
X047593D01*
X047356D02*
Y029961D01*
X046856D02*
X047093D01*
Y029331D02*
Y029961D01*
X046856Y029331D02*
X047093D01*
X046856D02*
Y029961D01*
X046356D02*
X046593D01*
Y029331D02*
Y029961D01*
X046356Y029331D02*
X046593D01*
X046356D02*
Y029961D01*
X045856D02*
X046093D01*
Y029331D02*
Y029961D01*
X045856Y029331D02*
X046093D01*
X045856D02*
Y029961D01*
X046093D01*
Y029331D02*
Y029961D01*
X045856Y029331D02*
X046093D01*
X045856D02*
Y029961D01*
X011307Y035614D02*
X012843D01*
X011307Y033921D02*
Y035614D01*
Y033921D02*
X012843D01*
Y035614D01*
X015047Y033921D02*
X016583D01*
Y035614D01*
X015047D02*
X016583D01*
X015047Y033921D02*
Y035614D01*
X026476Y033894D02*
X02687D01*
X026476Y032713D02*
Y033894D01*
Y032713D02*
X02687D01*
Y033894D01*
X026476Y034484D02*
X02687D01*
X026476D02*
Y035665D01*
X02687D01*
Y034484D02*
Y035665D01*
D144*
X043858Y042008D02*
X044961D01*
X043858D02*
Y042402D01*
X044961D01*
Y042008D02*
Y042402D01*
X043858Y041457D02*
X044961D01*
Y041063D02*
Y041457D01*
X043858Y041063D02*
X044961D01*
X043858D02*
Y041457D01*
X045323Y042D02*
X046425D01*
X045323D02*
Y042394D01*
X046425D01*
Y042D02*
Y042394D01*
X045323Y041449D02*
X046425D01*
Y041055D02*
Y041449D01*
X045323Y041055D02*
X046425D01*
X045323D02*
Y041449D01*
X024724Y034821D02*
X024862D01*
Y03551D01*
X024587D02*
X024862D01*
X024587Y034821D02*
Y03551D01*
X023823Y034821D02*
X023961D01*
Y03551D01*
X023685D02*
X023961D01*
X023685Y034821D02*
Y03551D01*
Y034821D02*
X023892D01*
X022921D02*
X023059D01*
Y03551D01*
X022783D02*
X023059D01*
X022783Y034821D02*
Y03551D01*
Y034821D02*
X02299D01*
X024587D02*
X024793D01*
X023681Y032708D02*
X02437D01*
Y033381D01*
X023268D02*
X02437D01*
X023268Y032708D02*
Y033381D01*
Y032708D02*
X023819D01*
X03785Y026811D02*
Y027205D01*
X036748D02*
X03785D01*
X036748Y026811D02*
Y027205D01*
Y026811D02*
X03785D01*
X036748Y025866D02*
Y02626D01*
Y025866D02*
X03785D01*
Y02626D01*
X036748D02*
X03785D01*
X035307D02*
X036409D01*
Y025866D02*
Y02626D01*
X035307Y025866D02*
X036409D01*
X035307D02*
Y02626D01*
Y026811D02*
X036409D01*
X035307D02*
Y027205D01*
X036409D01*
Y026811D02*
Y027205D01*
X041098Y033815D02*
X041217D01*
X040902D02*
X04102D01*
X041217Y033343D02*
Y033815D01*
X041098Y033343D02*
Y033815D01*
X04102Y033343D02*
Y033815D01*
X040902Y033343D02*
Y033815D01*
X041098Y033343D02*
X041217D01*
X040902D02*
X04102D01*
X041516Y033051D02*
X041988D01*
X041516Y032933D02*
Y033051D01*
X041988Y032933D02*
Y033051D01*
X041516Y032933D02*
X041988D01*
X041516Y032854D02*
X041988D01*
X041516Y032736D02*
Y032854D01*
X041988Y032736D02*
Y032854D01*
X041516Y032736D02*
X041988D01*
X041516Y032657D02*
X041988D01*
Y032539D02*
Y032657D01*
X041516Y032539D02*
Y032657D01*
Y032539D02*
X041988D01*
X041516Y032461D02*
X041988D01*
Y032343D02*
Y032461D01*
X041516Y032343D02*
Y032461D01*
Y032343D02*
X041988D01*
X041516Y032264D02*
X041988D01*
Y032146D02*
Y032264D01*
X041516Y032146D02*
Y032264D01*
Y032146D02*
X041988D01*
X041516Y032067D02*
X041988D01*
X041516Y031949D02*
Y032067D01*
X041988Y031949D02*
Y032067D01*
X041516Y031949D02*
X041988D01*
X040823Y033343D02*
Y033815D01*
X040705D02*
X040823D01*
X040705Y033343D02*
X040823D01*
X040705D02*
Y033815D01*
X040626Y033343D02*
Y033815D01*
X040508D02*
X040626D01*
X040508Y033343D02*
X040626D01*
X040508D02*
Y033815D01*
X040429Y033343D02*
Y033815D01*
X040311D02*
X040429D01*
X040311Y033343D02*
X040429D01*
X040311D02*
Y033815D01*
X040232Y033343D02*
Y033815D01*
X040114Y033343D02*
X040232D01*
X040114Y033815D02*
X040232D01*
X040114Y033343D02*
Y033815D01*
X041516Y03187D02*
X041988D01*
X041516Y031752D02*
Y03187D01*
X041988Y031752D02*
Y03187D01*
X041516Y031752D02*
X041988D01*
X041516Y031673D02*
X041988D01*
Y031555D02*
Y031673D01*
X041516Y031555D02*
Y031673D01*
Y031555D02*
X041988D01*
X041516Y031476D02*
X041988D01*
X041516Y031358D02*
Y031476D01*
X041988Y031358D02*
Y031476D01*
X041516Y031358D02*
X041988D01*
X041516Y03128D02*
X041988D01*
X041516Y031161D02*
Y03128D01*
X041988Y031161D02*
Y03128D01*
X041516Y031161D02*
X041988D01*
X041516Y031083D02*
X041988D01*
X041516Y030965D02*
Y031083D01*
X041988Y030965D02*
Y031083D01*
X041516Y030965D02*
X041988D01*
X041516Y030886D02*
X041988D01*
X041516Y030768D02*
Y030886D01*
X041988Y030768D02*
Y030886D01*
X041516Y030768D02*
X041988D01*
X041106Y030468D02*
X041224D01*
X040909D02*
X041028D01*
X041224Y029996D02*
Y030468D01*
X041106Y029996D02*
Y030468D01*
X041028Y029996D02*
Y030468D01*
X040909Y029996D02*
Y030468D01*
X041106Y029996D02*
X041224D01*
X040909D02*
X041028D01*
X040831D02*
Y030468D01*
X040713Y029996D02*
X040831D01*
X040713Y030468D02*
X040831D01*
X040713Y029996D02*
Y030468D01*
X040634Y029996D02*
Y030468D01*
X040516Y029996D02*
X040634D01*
X040516Y030468D02*
X040634D01*
X040516Y029996D02*
Y030468D01*
X040437Y029996D02*
Y030468D01*
X040319Y029996D02*
X040437D01*
X040319Y030468D02*
X040437D01*
X040319Y029996D02*
Y030468D01*
X04024Y029996D02*
Y030468D01*
X040122D02*
X04024D01*
X040122Y029996D02*
X04024D01*
X040122D02*
Y030468D01*
X03972Y033815D02*
X039839D01*
X039327D02*
X039445D01*
X039917D02*
X040035D01*
X039524D02*
X039642D01*
X03913D02*
X039248D01*
X038933D02*
X039051D01*
X040035Y033343D02*
Y033815D01*
X039642Y033343D02*
Y033815D01*
X039327Y033343D02*
Y033815D01*
X039917Y033343D02*
Y033815D01*
X039839Y033343D02*
Y033815D01*
X039248Y033343D02*
Y033815D01*
X039524Y033343D02*
Y033815D01*
X03972Y033343D02*
Y033815D01*
X039445Y033343D02*
Y033815D01*
X03913Y033343D02*
Y033815D01*
X039051Y033343D02*
Y033815D01*
X038933Y033343D02*
Y033815D01*
X039917Y033343D02*
X040035D01*
X039327D02*
X039445D01*
X039524D02*
X039642D01*
X03972D02*
X039839D01*
X03913D02*
X039248D01*
X038933D02*
X039051D01*
X038642Y032925D02*
Y033043D01*
Y032728D02*
Y032846D01*
X038169Y032728D02*
X038642D01*
X038169Y03265D02*
X038642D01*
Y032531D02*
Y03265D01*
Y032335D02*
Y032453D01*
Y032138D02*
Y032256D01*
Y031941D02*
Y032059D01*
X038169Y033043D02*
X038642D01*
X038169Y032531D02*
X038642D01*
X038169Y032846D02*
X038642D01*
X038169Y032925D02*
X038642D01*
X038169Y032453D02*
X038642D01*
X038169Y032256D02*
X038642D01*
X038169Y032138D02*
X038642D01*
X038169Y032335D02*
X038642D01*
X038169Y032059D02*
X038642D01*
X038169Y031941D02*
X038642D01*
X038169Y032728D02*
Y032846D01*
Y032531D02*
Y03265D01*
Y032925D02*
Y033043D01*
Y032138D02*
Y032256D01*
Y032335D02*
Y032453D01*
Y031941D02*
Y032059D01*
X038642Y031744D02*
Y031862D01*
Y031547D02*
Y031665D01*
Y03135D02*
Y031468D01*
Y031154D02*
Y031272D01*
X038169Y031154D02*
X038642D01*
X038169Y031075D02*
X038642D01*
Y030957D02*
Y031075D01*
Y03076D02*
Y030878D01*
X039532Y030468D02*
X03965D01*
X038941D02*
X039059D01*
X039728D02*
X039846D01*
X039138D02*
X039256D01*
X039925D02*
X040043D01*
X039335D02*
X039453D01*
X039728Y029996D02*
Y030468D01*
X039846Y029996D02*
Y030468D01*
X039925Y029996D02*
Y030468D01*
X039335Y029996D02*
Y030468D01*
X039453Y029996D02*
Y030468D01*
X039256Y029996D02*
Y030468D01*
X039532Y029996D02*
Y030468D01*
X03965Y029996D02*
Y030468D01*
X039059Y029996D02*
Y030468D01*
X038941Y029996D02*
Y030468D01*
X040043Y029996D02*
Y030468D01*
X039138Y029996D02*
Y030468D01*
Y029996D02*
X039256D01*
X039532D02*
X03965D01*
X039728D02*
X039846D01*
X039335D02*
X039453D01*
X038941D02*
X039059D01*
X039925D02*
X040043D01*
X038169Y030957D02*
X038642D01*
X038169Y030878D02*
X038642D01*
X038169Y031862D02*
X038642D01*
X038169Y03076D02*
X038642D01*
X038169Y031744D02*
X038642D01*
X038169Y031665D02*
X038642D01*
X038169Y031547D02*
X038642D01*
X038169Y031468D02*
X038642D01*
X038169Y03135D02*
X038642D01*
X038169Y031272D02*
X038642D01*
X038169Y03076D02*
Y030878D01*
Y031154D02*
Y031272D01*
Y03135D02*
Y031468D01*
Y031547D02*
Y031665D01*
Y031744D02*
Y031862D01*
Y030957D02*
Y031075D01*
X034035Y031701D02*
X035059D01*
Y030913D02*
Y031701D01*
X034035Y030913D02*
X035059D01*
X034035D02*
Y031701D01*
Y03237D02*
X035059D01*
X034035D02*
Y033157D01*
X035059D01*
Y03237D02*
Y033157D01*
M02*
