G04*
G04 #@! TF.GenerationSoftware,Altium Limited,Altium Designer,21.0.8 (223)*
G04*
G04 Layer_Color=128*
%FSTAX24Y24*%
%MOIN*%
G70*
G04*
G04 #@! TF.SameCoordinates,802AE027-55FB-4EE0-B797-8BAC3B94A1FA*
G04*
G04*
G04 #@! TF.FilePolarity,Positive*
G04*
G01*
G75*
%ADD21C,0.0020*%
D21*
X030748Y026929D02*
X03122D01*
X030984Y026693D02*
Y027165D01*
X030748Y028268D02*
X03122D01*
X030984Y028031D02*
Y028504D01*
X028177Y012823D02*
X028492D01*
X028335Y012665D02*
Y01298D01*
X031177Y012828D02*
X031492D01*
X031335Y01267D02*
Y012985D01*
X037882Y011051D02*
X038236D01*
X038059Y010874D02*
Y011228D01*
X036882Y011051D02*
X037236D01*
X037059Y010874D02*
Y011228D01*
X034752Y011055D02*
X035106D01*
X034929Y010878D02*
Y011232D01*
X035752Y011055D02*
X036106D01*
X035929Y010878D02*
Y011232D01*
X027227Y029906D02*
X027537D01*
X027382Y029751D02*
Y030061D01*
X028227Y029906D02*
X028537D01*
X028382Y029751D02*
Y030061D01*
X028227Y026906D02*
X028537D01*
X028382Y026751D02*
Y027061D01*
X027227Y026906D02*
X027537D01*
X027382Y026751D02*
Y027061D01*
X020141Y018315D02*
X020591D01*
X020366Y01809D02*
Y01854D01*
X020141Y013591D02*
X020591D01*
X020366Y013366D02*
Y013816D01*
X015338Y018391D02*
X015788D01*
X015563Y018166D02*
Y018616D01*
X015338Y013591D02*
X015788D01*
X015563Y013366D02*
Y013816D01*
X020929Y015953D02*
X021379D01*
X021154Y015728D02*
Y016178D01*
X017646Y037756D02*
X017843D01*
X017744Y037657D02*
Y037854D01*
X017646Y038228D02*
X017843D01*
X017744Y03813D02*
Y038327D01*
X017646Y038661D02*
X017843D01*
X017744Y038563D02*
Y03876D01*
X017646Y039134D02*
X017843D01*
X017744Y039035D02*
Y039232D01*
X017882Y039134D02*
X018079D01*
X01798Y039035D02*
Y039232D01*
X017882Y038661D02*
X018079D01*
X01798Y038563D02*
Y03876D01*
X017882Y038228D02*
X018079D01*
X01798Y03813D02*
Y038327D01*
X017882Y037756D02*
X018079D01*
X01798Y037657D02*
Y037854D01*
X017409Y037756D02*
X017606D01*
X017508Y037657D02*
Y037854D01*
X017409Y038228D02*
X017606D01*
X017508Y03813D02*
Y038327D01*
X017409Y038661D02*
X017606D01*
X017508Y038563D02*
Y03876D01*
X017409Y039134D02*
X017606D01*
X017508Y039035D02*
Y039232D01*
X027203Y015492D02*
X027513D01*
X027358Y015337D02*
Y015647D01*
X028203Y015492D02*
X028513D01*
X028358Y015337D02*
Y015647D01*
X028203Y018492D02*
X028513D01*
X028358Y018337D02*
Y018647D01*
X027203Y018492D02*
X027513D01*
X027358Y018337D02*
Y018647D01*
X027203Y023902D02*
X027513D01*
X027358Y023747D02*
Y024057D01*
X028203Y023902D02*
X028513D01*
X028358Y023747D02*
Y024057D01*
X028203Y020902D02*
X028513D01*
X028358Y020747D02*
Y021057D01*
X027203Y020902D02*
X027513D01*
X027358Y020747D02*
Y021057D01*
X011726Y024102D02*
X012226D01*
X011976Y023852D02*
Y024352D01*
X011726Y022102D02*
X012226D01*
X011976Y021852D02*
Y022352D01*
X020901Y028747D02*
X021351D01*
X021126Y028522D02*
Y028972D01*
X01531Y026385D02*
X01576D01*
X015535Y02616D02*
Y02661D01*
X01531Y031185D02*
X01576D01*
X015535Y03096D02*
Y03141D01*
X020114Y026385D02*
X020564D01*
X020339Y02616D02*
Y02661D01*
X020114Y031109D02*
X020564D01*
X020339Y030884D02*
Y031334D01*
X020129Y024728D02*
X020579D01*
X020354Y024503D02*
Y024953D01*
X020129Y020004D02*
X020579D01*
X020354Y019779D02*
Y020229D01*
X015326Y024804D02*
X015776D01*
X015551Y024579D02*
Y025029D01*
X015326Y020004D02*
X015776D01*
X015551Y019779D02*
Y020229D01*
X020917Y022366D02*
X021367D01*
X021142Y022141D02*
Y022591D01*
X048476Y029528D02*
X048831D01*
X048654Y02935D02*
Y029705D01*
X048476Y030528D02*
X048831D01*
X048654Y03035D02*
Y030705D01*
X048476Y031528D02*
X048831D01*
X048654Y03135D02*
Y031705D01*
X048476Y032528D02*
X048831D01*
X048654Y03235D02*
Y032705D01*
X011726Y030894D02*
X012226D01*
X011976Y030644D02*
Y031144D01*
X011726Y028894D02*
X012226D01*
X011976Y028644D02*
Y029144D01*
X01177Y015972D02*
X01227D01*
X01202Y015722D02*
Y016222D01*
X01177Y017972D02*
X01227D01*
X01202Y017722D02*
Y018222D01*
X012287Y011457D02*
X012484D01*
X012386Y011358D02*
Y011555D01*
X010969Y012047D02*
X012228D01*
X011598Y011417D02*
Y012677D01*
X010713Y012638D02*
X010909D01*
X010811Y012539D02*
Y012736D01*
X010516Y012047D02*
X010713D01*
X010614Y011949D02*
Y012146D01*
X0115Y011063D02*
X011697D01*
X011598Y010965D02*
Y011161D01*
X012484Y012047D02*
X012681D01*
X012583Y011949D02*
Y012146D01*
X012287Y012638D02*
X012484D01*
X012386Y012539D02*
Y012736D01*
X0115Y013032D02*
X011697D01*
X011598Y012933D02*
Y01313D01*
X010713Y011457D02*
X010909D01*
X010811Y011358D02*
Y011555D01*
X01145Y0466D02*
X01195D01*
X0117Y04635D02*
Y04685D01*
X01145Y0486D02*
X01195D01*
X0117Y04835D02*
Y04885D01*
X043366Y047598D02*
X043563D01*
X043465Y0475D02*
Y047697D01*
X044154Y049173D02*
X04435D01*
X044252Y049075D02*
Y049272D01*
X044941Y04878D02*
X045138D01*
X045039Y048681D02*
Y048878D01*
X045138Y048189D02*
X045335D01*
X045236Y048091D02*
Y048287D01*
X044154Y047205D02*
X04435D01*
X044252Y047106D02*
Y047303D01*
X043169Y048189D02*
X043366D01*
X043268Y048091D02*
Y048287D01*
X043366Y04878D02*
X043563D01*
X043465Y048681D02*
Y048878D01*
X043622Y048189D02*
X044882D01*
X044252Y047559D02*
Y048819D01*
X044941Y047598D02*
X045138D01*
X045039Y0475D02*
Y047697D01*
X048415Y011502D02*
X048612D01*
X048513Y011403D02*
Y0116D01*
X047096Y012092D02*
X048356D01*
X047726Y011462D02*
Y012722D01*
X04684Y012683D02*
X047037D01*
X046939Y012584D02*
Y012781D01*
X046643Y012092D02*
X04684D01*
X046742Y011994D02*
Y012191D01*
X047628Y011108D02*
X047824D01*
X047726Y011009D02*
Y011206D01*
X048612Y012092D02*
X048809D01*
X04871Y011994D02*
Y012191D01*
X048415Y012683D02*
X048612D01*
X048513Y012584D02*
Y012781D01*
X047628Y013076D02*
X047824D01*
X047726Y012978D02*
Y013175D01*
X04684Y011502D02*
X047037D01*
X046939Y011403D02*
Y0116D01*
X010866Y043453D02*
X011063D01*
X010965Y043354D02*
Y043551D01*
X011654Y045028D02*
X01185D01*
X011752Y044929D02*
Y045126D01*
X012441Y044634D02*
X012638D01*
X012539Y044535D02*
Y044732D01*
X012638Y044043D02*
X012835D01*
X012736Y043945D02*
Y044142D01*
X011654Y043059D02*
X01185D01*
X011752Y042961D02*
Y043157D01*
X010669Y044043D02*
X010866D01*
X010768Y043945D02*
Y044142D01*
X010866Y044634D02*
X011063D01*
X010965Y044535D02*
Y044732D01*
X011122Y044043D02*
X012382D01*
X011752Y043413D02*
Y044673D01*
X012441Y043453D02*
X012638D01*
X012539Y043354D02*
Y043551D01*
X041465Y01385D02*
X041858D01*
X041661Y013654D02*
Y014047D01*
X042465Y01385D02*
X042858D01*
X042661Y013654D02*
Y014047D01*
X039248Y01185D02*
X040075D01*
X039661Y011437D02*
Y012264D01*
X043248Y01185D02*
X044075D01*
X043661Y011437D02*
Y012264D01*
X033646Y011071D02*
X034D01*
X033823Y010894D02*
Y011248D01*
X032646Y011071D02*
X033D01*
X032823Y010894D02*
Y011248D01*
X048114Y01439D02*
X048414D01*
X048264Y01424D02*
Y01454D01*
X048114Y01539D02*
X048414D01*
X048264Y01524D02*
Y01554D01*
X048114Y01639D02*
X048414D01*
X048264Y01624D02*
Y01654D01*
X048091Y020465D02*
X048391D01*
X048241Y020315D02*
Y020615D01*
X048091Y019465D02*
X048391D01*
X048241Y019315D02*
Y019615D01*
X048091Y018465D02*
X048391D01*
X048241Y018315D02*
Y018615D01*
X048476Y022319D02*
X048831D01*
X048654Y022142D02*
Y022496D01*
X048476Y023319D02*
X048831D01*
X048654Y023142D02*
Y023496D01*
X048476Y024319D02*
X048831D01*
X048654Y024142D02*
Y024496D01*
X048476Y025319D02*
X048831D01*
X048654Y025142D02*
Y025496D01*
X047476Y022319D02*
X047831D01*
X047654Y022142D02*
Y022496D01*
X047476Y023319D02*
X047831D01*
X047654Y023142D02*
Y023496D01*
X047476Y024319D02*
X047831D01*
X047654Y024142D02*
Y024496D01*
X047476Y025319D02*
X047831D01*
X047654Y025142D02*
Y025496D01*
X048476Y033638D02*
X048831D01*
X048654Y033461D02*
Y033815D01*
X048476Y034638D02*
X048831D01*
X048654Y034461D02*
Y034815D01*
X048476Y035638D02*
X048831D01*
X048654Y035461D02*
Y035815D01*
X048476Y036638D02*
X048831D01*
X048654Y036461D02*
Y036815D01*
X048476Y037638D02*
X048831D01*
X048654Y037461D02*
Y037815D01*
X048476Y038638D02*
X048831D01*
X048654Y038461D02*
Y038815D01*
X046305Y0472D02*
X046895D01*
X0466Y046905D02*
Y047495D01*
X048305Y0472D02*
X048895D01*
X0486Y046905D02*
Y047495D01*
X048305Y0492D02*
X048895D01*
X0486Y048905D02*
Y049495D01*
X046305Y0492D02*
X046895D01*
X0466Y048905D02*
Y049495D01*
X047305Y0482D02*
X047895D01*
X0476Y047905D02*
Y048495D01*
X019201Y03935D02*
X019319D01*
X01926Y039291D02*
Y039409D01*
X019201Y038996D02*
X019319D01*
X01926Y038937D02*
Y039055D01*
X019201Y038642D02*
X019319D01*
X01926Y038583D02*
Y038701D01*
X019201Y038287D02*
X019319D01*
X01926Y038228D02*
Y038346D01*
X019201Y037925D02*
X019319D01*
X01926Y037866D02*
Y037984D01*
X019205Y039634D02*
X019323D01*
X019264Y039575D02*
Y039693D01*
X019594Y03935D02*
X019713D01*
X019654Y039291D02*
Y039409D01*
X019594Y038996D02*
X019713D01*
X019654Y038937D02*
Y039055D01*
X019594Y038642D02*
X019713D01*
X019654Y038583D02*
Y038701D01*
X019594Y038287D02*
X019713D01*
X019654Y038228D02*
Y038346D01*
X019594Y037925D02*
X019713D01*
X019654Y037866D02*
Y037984D01*
X019598Y039634D02*
X019717D01*
X019657Y039575D02*
Y039693D01*
X019988Y03935D02*
X020106D01*
X020047Y039291D02*
Y039409D01*
X019988Y038996D02*
X020106D01*
X020047Y038937D02*
Y039055D01*
X019988Y038642D02*
X020106D01*
X020047Y038583D02*
Y038701D01*
X019988Y038287D02*
X020106D01*
X020047Y038228D02*
Y038346D01*
X019988Y037925D02*
X020106D01*
X020047Y037866D02*
Y037984D01*
X019992Y039634D02*
X02011D01*
X020051Y039575D02*
Y039693D01*
X020382Y03935D02*
X0205D01*
X020441Y039291D02*
Y039409D01*
X020382Y038996D02*
X0205D01*
X020441Y038937D02*
Y039055D01*
X020382Y038642D02*
X0205D01*
X020441Y038583D02*
Y038701D01*
X020382Y038287D02*
X0205D01*
X020441Y038228D02*
Y038346D01*
X020382Y037925D02*
X0205D01*
X020441Y037866D02*
Y037984D01*
X020386Y039634D02*
X020504D01*
X020445Y039575D02*
Y039693D01*
X020776Y03935D02*
X020894D01*
X020835Y039291D02*
Y039409D01*
X020776Y038996D02*
X020894D01*
X020835Y038937D02*
Y039055D01*
X020776Y038642D02*
X020894D01*
X020835Y038583D02*
Y038701D01*
X020776Y038287D02*
X020894D01*
X020835Y038228D02*
Y038346D01*
X020776Y037925D02*
X020894D01*
X020835Y037866D02*
Y037984D01*
X02078Y039634D02*
X020898D01*
X020839Y039575D02*
Y039693D01*
X021134Y039343D02*
X021252D01*
X021193Y039283D02*
Y039402D01*
X021134Y038988D02*
X021252D01*
X021193Y038929D02*
Y039047D01*
X021134Y038634D02*
X021252D01*
X021193Y038575D02*
Y038693D01*
X021134Y03828D02*
X021252D01*
X021193Y03822D02*
Y038339D01*
X021134Y037917D02*
X021252D01*
X021193Y037858D02*
Y037976D01*
X021138Y039626D02*
X021256D01*
X021197Y039567D02*
Y039685D01*
X021528Y039343D02*
X021646D01*
X021587Y039283D02*
Y039402D01*
X021528Y038988D02*
X021646D01*
X021587Y038929D02*
Y039047D01*
X021528Y038634D02*
X021646D01*
X021587Y038575D02*
Y038693D01*
X021528Y03828D02*
X021646D01*
X021587Y03822D02*
Y038339D01*
X021528Y037917D02*
X021646D01*
X021587Y037858D02*
Y037976D01*
X021532Y039626D02*
X02165D01*
X021591Y039567D02*
Y039685D01*
X021921Y039343D02*
X022039D01*
X02198Y039283D02*
Y039402D01*
X021921Y038988D02*
X022039D01*
X02198Y038929D02*
Y039047D01*
X021921Y038634D02*
X022039D01*
X02198Y038575D02*
Y038693D01*
X021921Y03828D02*
X022039D01*
X02198Y03822D02*
Y038339D01*
X021921Y037917D02*
X022039D01*
X02198Y037858D02*
Y037976D01*
X021925Y039626D02*
X022043D01*
X021984Y039567D02*
Y039685D01*
X022281Y039336D02*
X0224D01*
X022341Y039277D02*
Y039396D01*
X022281Y038982D02*
X0224D01*
X022341Y038923D02*
Y039041D01*
X022281Y038628D02*
X0224D01*
X022341Y038569D02*
Y038687D01*
X022281Y038273D02*
X0224D01*
X022341Y038214D02*
Y038333D01*
X022281Y037911D02*
X0224D01*
X022341Y037852D02*
Y03797D01*
X022285Y03962D02*
X022404D01*
X022344Y039561D02*
Y039679D01*
X016185Y04063D02*
X016303D01*
X016244Y040571D02*
Y040689D01*
X016185Y040984D02*
X016303D01*
X016244Y040925D02*
Y041043D01*
X016185Y041339D02*
X016303D01*
X016244Y04128D02*
Y041398D01*
X016185Y040278D02*
X016303D01*
X016244Y040219D02*
Y040337D01*
X016189Y041634D02*
X016307D01*
X016248Y041575D02*
Y041693D01*
X016181Y041906D02*
X016299D01*
X01624Y041846D02*
Y041965D01*
X017654Y041906D02*
X017772D01*
X017713Y041846D02*
Y041965D01*
X018047Y041906D02*
X018165D01*
X018106Y041846D02*
Y041965D01*
X018441Y041906D02*
X018559D01*
X0185Y041846D02*
Y041965D01*
X016508Y041906D02*
X016626D01*
X016567Y041846D02*
Y041965D01*
X016902Y041906D02*
X01702D01*
X016961Y041846D02*
Y041965D01*
X01726Y041906D02*
X017378D01*
X017319Y041846D02*
Y041965D01*
X019193Y041886D02*
X019311D01*
X019252Y041827D02*
Y041945D01*
X018748Y041894D02*
X018866D01*
X018807Y041835D02*
Y041953D01*
X020374Y041886D02*
X020492D01*
X020433Y041827D02*
Y041945D01*
X01998Y041886D02*
X020098D01*
X020039Y041827D02*
Y041945D01*
X019587Y041886D02*
X019705D01*
X019646Y041827D02*
Y041945D01*
X021126Y041878D02*
X021244D01*
X021185Y041819D02*
Y041937D01*
X020768Y041886D02*
X020886D01*
X020827Y041827D02*
Y041945D01*
X021913Y041878D02*
X022032D01*
X021972Y041819D02*
Y041937D01*
X02152Y041878D02*
X021638D01*
X021579Y041819D02*
Y041937D01*
X022274Y041872D02*
X022392D01*
X022333Y041813D02*
Y041931D01*
X017661Y041634D02*
X01778D01*
X01772Y041575D02*
Y041693D01*
X018055Y041634D02*
X018173D01*
X018114Y041575D02*
Y041693D01*
X018449Y041634D02*
X018567D01*
X018508Y041575D02*
Y041693D01*
X016516Y041634D02*
X016634D01*
X016575Y041575D02*
Y041693D01*
X016909Y041634D02*
X017028D01*
X016968Y041575D02*
Y041693D01*
X017268Y041634D02*
X017386D01*
X017327Y041575D02*
Y041693D01*
X019201Y041614D02*
X019319D01*
X01926Y041555D02*
Y041673D01*
X018756Y041622D02*
X018874D01*
X018815Y041563D02*
Y041681D01*
X020382Y041614D02*
X0205D01*
X020441Y041555D02*
Y041673D01*
X019988Y041614D02*
X020106D01*
X020047Y041555D02*
Y041673D01*
X019594Y041614D02*
X019713D01*
X019654Y041555D02*
Y041673D01*
X021134Y041606D02*
X021252D01*
X021193Y041547D02*
Y041665D01*
X020776Y041614D02*
X020894D01*
X020835Y041555D02*
Y041673D01*
X021921Y041606D02*
X022039D01*
X02198Y041547D02*
Y041665D01*
X021528Y041606D02*
X021646D01*
X021587Y041547D02*
Y041665D01*
X022281Y0416D02*
X0224D01*
X022341Y041541D02*
Y041659D01*
X02113Y039898D02*
X021248D01*
X021189Y039839D02*
Y039957D01*
X020772Y039906D02*
X02089D01*
X020831Y039846D02*
Y039965D01*
X021917Y039898D02*
X022035D01*
X021976Y039839D02*
Y039957D01*
X021524Y039898D02*
X021642D01*
X021583Y039839D02*
Y039957D01*
X022278Y039892D02*
X022396D01*
X022337Y039833D02*
Y039951D01*
X02113Y04026D02*
X021248D01*
X021189Y040201D02*
Y040319D01*
X020772Y040268D02*
X02089D01*
X020831Y040209D02*
Y040327D01*
X021917Y04026D02*
X022035D01*
X021976Y040201D02*
Y040319D01*
X021524Y04026D02*
X021642D01*
X021583Y040201D02*
Y040319D01*
X022278Y040254D02*
X022396D01*
X022337Y040195D02*
Y040313D01*
X02113Y040614D02*
X021248D01*
X021189Y040555D02*
Y040673D01*
X020772Y040622D02*
X02089D01*
X020831Y040563D02*
Y040681D01*
X021917Y040614D02*
X022035D01*
X021976Y040555D02*
Y040673D01*
X021524Y040614D02*
X021642D01*
X021583Y040555D02*
Y040673D01*
X022278Y040608D02*
X022396D01*
X022337Y040549D02*
Y040667D01*
X02113Y040968D02*
X021248D01*
X021189Y040909D02*
Y041028D01*
X020772Y040976D02*
X02089D01*
X020831Y040917D02*
Y041035D01*
X021917Y040968D02*
X022035D01*
X021976Y040909D02*
Y041028D01*
X021524Y040968D02*
X021642D01*
X021583Y040909D02*
Y041028D01*
X022278Y040962D02*
X022396D01*
X022337Y040903D02*
Y041022D01*
X022278Y041317D02*
X022396D01*
X022337Y041258D02*
Y041376D01*
X021524Y041323D02*
X021642D01*
X021583Y041264D02*
Y041382D01*
X021917Y041323D02*
X022035D01*
X021976Y041264D02*
Y041382D01*
X020772Y041331D02*
X02089D01*
X020831Y041272D02*
Y04139D01*
X02113Y041323D02*
X021248D01*
X021189Y041264D02*
Y041382D01*
X019197Y039906D02*
X019315D01*
X019256Y039846D02*
Y039965D01*
X020378Y039906D02*
X020496D01*
X020437Y039846D02*
Y039965D01*
X019984Y039906D02*
X020102D01*
X020043Y039846D02*
Y039965D01*
X019591Y039906D02*
X019709D01*
X01965Y039846D02*
Y039965D01*
X019197Y040268D02*
X019315D01*
X019256Y040209D02*
Y040327D01*
X020378Y040268D02*
X020496D01*
X020437Y040209D02*
Y040327D01*
X019984Y040268D02*
X020102D01*
X020043Y040209D02*
Y040327D01*
X019591Y040268D02*
X019709D01*
X01965Y040209D02*
Y040327D01*
X019197Y040622D02*
X019315D01*
X019256Y040563D02*
Y040681D01*
X020378Y040622D02*
X020496D01*
X020437Y040563D02*
Y040681D01*
X019984Y040622D02*
X020102D01*
X020043Y040563D02*
Y040681D01*
X019591Y040622D02*
X019709D01*
X01965Y040563D02*
Y040681D01*
X019197Y040976D02*
X019315D01*
X019256Y040917D02*
Y041035D01*
X020378Y040976D02*
X020496D01*
X020437Y040917D02*
Y041035D01*
X019984Y040976D02*
X020102D01*
X020043Y040917D02*
Y041035D01*
X019591Y040976D02*
X019709D01*
X01965Y040917D02*
Y041035D01*
X019591Y041331D02*
X019709D01*
X01965Y041272D02*
Y04139D01*
X019984Y041331D02*
X020102D01*
X020043Y041272D02*
Y04139D01*
X020378Y041331D02*
X020496D01*
X020437Y041272D02*
Y04139D01*
X018752Y041339D02*
X01887D01*
X018811Y04128D02*
Y041398D01*
X019197Y041331D02*
X019315D01*
X019256Y041272D02*
Y04139D01*
X02974Y035962D02*
X029858D01*
X029799Y035903D02*
Y036021D01*
X029425Y035962D02*
X029543D01*
X029484Y035903D02*
Y036021D01*
X035151Y035252D02*
X035269D01*
X03521Y035193D02*
Y035311D01*
X035151Y035409D02*
X035269D01*
X03521Y03535D02*
Y035469D01*
X035151Y035114D02*
X035269D01*
X03521Y035055D02*
Y035173D01*
X034958Y035252D02*
X035077D01*
X035017Y035193D02*
Y035311D01*
X034958Y035409D02*
X035077D01*
X035017Y03535D02*
Y035469D01*
X034958Y035114D02*
X035077D01*
X035017Y035055D02*
Y035173D01*
X031083Y041141D02*
X031201D01*
X031142Y041082D02*
Y0412D01*
X030374Y041141D02*
X030492D01*
X030433Y041082D02*
Y0412D01*
X030728Y041141D02*
X030846D01*
X030787Y041082D02*
Y0412D01*
X029094Y035661D02*
X029213D01*
X029154Y035601D02*
Y03572D01*
X029098Y035128D02*
X029217D01*
X029157Y035069D02*
Y035188D01*
X029098Y035402D02*
X029217D01*
X029157Y035343D02*
Y035461D01*
X019665Y037283D02*
X019783D01*
X019724Y037224D02*
Y037343D01*
X01998Y037283D02*
X020098D01*
X020039Y037224D02*
Y037343D01*
X020295Y037283D02*
X020413D01*
X020354Y037224D02*
Y037343D01*
X02061Y037283D02*
X020728D01*
X020669Y037224D02*
Y037343D01*
X020925Y037283D02*
X021043D01*
X020984Y037224D02*
Y037343D01*
X02124Y037283D02*
X021358D01*
X021299Y037224D02*
Y037343D01*
X021555Y037283D02*
X021673D01*
X021614Y037224D02*
Y037343D01*
X02187Y037283D02*
X021988D01*
X021929Y037224D02*
Y037343D01*
X022185Y037283D02*
X022303D01*
X022244Y037224D02*
Y037343D01*
X0225Y037283D02*
X022618D01*
X022559Y037224D02*
Y037343D01*
X022815Y037283D02*
X022933D01*
X022874Y037224D02*
Y037343D01*
X02313Y037283D02*
X023248D01*
X023189Y037224D02*
Y037343D01*
X023445Y037283D02*
X023563D01*
X023504Y037224D02*
Y037343D01*
X02376Y037283D02*
X023878D01*
X023819Y037224D02*
Y037343D01*
X024075Y037283D02*
X024193D01*
X024134Y037224D02*
Y037343D01*
X02439Y037283D02*
X024508D01*
X024449Y037224D02*
Y037343D01*
X028484Y037283D02*
X028602D01*
X028543Y037224D02*
Y037343D01*
X028169Y037283D02*
X028287D01*
X028228Y037224D02*
Y037343D01*
X027854Y037283D02*
X027972D01*
X027913Y037224D02*
Y037343D01*
X027539Y037283D02*
X027657D01*
X027598Y037224D02*
Y037343D01*
X027224Y037283D02*
X027343D01*
X027283Y037224D02*
Y037343D01*
X026909Y037283D02*
X027028D01*
X026969Y037224D02*
Y037343D01*
X026594Y037283D02*
X026713D01*
X026654Y037224D02*
Y037343D01*
X02628Y037283D02*
X026398D01*
X026339Y037224D02*
Y037343D01*
X025965Y037283D02*
X026083D01*
X026024Y037224D02*
Y037343D01*
X02565Y037283D02*
X025768D01*
X025709Y037224D02*
Y037343D01*
X025335Y037283D02*
X025453D01*
X025394Y037224D02*
Y037343D01*
X02502Y037283D02*
X025138D01*
X025079Y037224D02*
Y037343D01*
X024705Y037283D02*
X024823D01*
X024764Y037224D02*
Y037343D01*
X019665Y036929D02*
X019783D01*
X019724Y03687D02*
Y036988D01*
X01998Y036929D02*
X020098D01*
X020039Y03687D02*
Y036988D01*
X020295Y036929D02*
X020413D01*
X020354Y03687D02*
Y036988D01*
X02061Y036929D02*
X020728D01*
X020669Y03687D02*
Y036988D01*
X020925Y036929D02*
X021043D01*
X020984Y03687D02*
Y036988D01*
X02124Y036929D02*
X021358D01*
X021299Y03687D02*
Y036988D01*
X021555Y036929D02*
X021673D01*
X021614Y03687D02*
Y036988D01*
X02187Y036929D02*
X021988D01*
X021929Y03687D02*
Y036988D01*
X022185Y036929D02*
X022303D01*
X022244Y03687D02*
Y036988D01*
X0225Y036929D02*
X022618D01*
X022559Y03687D02*
Y036988D01*
X022815Y036929D02*
X022933D01*
X022874Y03687D02*
Y036988D01*
X02313Y036929D02*
X023248D01*
X023189Y03687D02*
Y036988D01*
X023445Y036929D02*
X023563D01*
X023504Y03687D02*
Y036988D01*
X02376Y036929D02*
X023878D01*
X023819Y03687D02*
Y036988D01*
X024075Y036929D02*
X024193D01*
X024134Y03687D02*
Y036988D01*
X02439Y036929D02*
X024508D01*
X024449Y03687D02*
Y036988D01*
X028484Y036929D02*
X028602D01*
X028543Y03687D02*
Y036988D01*
X028169Y036929D02*
X028287D01*
X028228Y03687D02*
Y036988D01*
X027854Y036929D02*
X027972D01*
X027913Y03687D02*
Y036988D01*
X027539Y036929D02*
X027657D01*
X027598Y03687D02*
Y036988D01*
X027224Y036929D02*
X027343D01*
X027283Y03687D02*
Y036988D01*
X026909Y036929D02*
X027028D01*
X026969Y03687D02*
Y036988D01*
X026594Y036929D02*
X026713D01*
X026654Y03687D02*
Y036988D01*
X02628Y036929D02*
X026398D01*
X026339Y03687D02*
Y036988D01*
X025965Y036929D02*
X026083D01*
X026024Y03687D02*
Y036988D01*
X02565Y036929D02*
X025768D01*
X025709Y03687D02*
Y036988D01*
X025335Y036929D02*
X025453D01*
X025394Y03687D02*
Y036988D01*
X02502Y036929D02*
X025138D01*
X025079Y03687D02*
Y036988D01*
X024705Y036929D02*
X024823D01*
X024764Y03687D02*
Y036988D01*
X01935Y036614D02*
X019468D01*
X019409Y036555D02*
Y036673D01*
X019665Y036614D02*
X019783D01*
X019724Y036555D02*
Y036673D01*
X01998Y036614D02*
X020098D01*
X020039Y036555D02*
Y036673D01*
X020295Y036614D02*
X020413D01*
X020354Y036555D02*
Y036673D01*
X02061Y036614D02*
X020728D01*
X020669Y036555D02*
Y036673D01*
X020925Y036614D02*
X021043D01*
X020984Y036555D02*
Y036673D01*
X02124Y036614D02*
X021358D01*
X021299Y036555D02*
Y036673D01*
X021555Y036614D02*
X021673D01*
X021614Y036555D02*
Y036673D01*
X02187Y036614D02*
X021988D01*
X021929Y036555D02*
Y036673D01*
X022185Y036614D02*
X022303D01*
X022244Y036555D02*
Y036673D01*
X0225Y036614D02*
X022618D01*
X022559Y036555D02*
Y036673D01*
X022815Y036614D02*
X022933D01*
X022874Y036555D02*
Y036673D01*
X02313Y036614D02*
X023248D01*
X023189Y036555D02*
Y036673D01*
X023445Y036614D02*
X023563D01*
X023504Y036555D02*
Y036673D01*
X02376Y036614D02*
X023878D01*
X023819Y036555D02*
Y036673D01*
X024075Y036614D02*
X024193D01*
X024134Y036555D02*
Y036673D01*
X028484Y036614D02*
X028602D01*
X028543Y036555D02*
Y036673D01*
X028169Y036614D02*
X028287D01*
X028228Y036555D02*
Y036673D01*
X027854Y036614D02*
X027972D01*
X027913Y036555D02*
Y036673D01*
X027539Y036614D02*
X027657D01*
X027598Y036555D02*
Y036673D01*
X027224Y036614D02*
X027343D01*
X027283Y036555D02*
Y036673D01*
X026909Y036614D02*
X027028D01*
X026969Y036555D02*
Y036673D01*
X026594Y036614D02*
X026713D01*
X026654Y036555D02*
Y036673D01*
X02628Y036614D02*
X026398D01*
X026339Y036555D02*
Y036673D01*
X025965Y036614D02*
X026083D01*
X026024Y036555D02*
Y036673D01*
X02565Y036614D02*
X025768D01*
X025709Y036555D02*
Y036673D01*
X025335Y036614D02*
X025453D01*
X025394Y036555D02*
Y036673D01*
X02502Y036614D02*
X025138D01*
X025079Y036555D02*
Y036673D01*
X024705Y036614D02*
X024823D01*
X024764Y036555D02*
Y036673D01*
X02439Y036614D02*
X024508D01*
X024449Y036555D02*
Y036673D01*
X031015Y032096D02*
X031134D01*
X031075Y032037D02*
Y032155D01*
X031003Y031813D02*
X031121D01*
X031062Y031754D02*
Y031872D01*
X031007Y032362D02*
X031125D01*
X031066Y032303D02*
Y032421D01*
X040097Y035996D02*
X040215D01*
X040156Y035937D02*
Y036055D01*
X03997Y035992D02*
X040088D01*
X040029Y035933D02*
Y036051D01*
X039844Y035992D02*
X039962D01*
X039903Y035933D02*
Y036051D01*
X044241Y031641D02*
X04436D01*
X0443Y031582D02*
Y0317D01*
X041569Y022523D02*
X041687D01*
X041628Y022464D02*
Y022582D01*
X042169Y022523D02*
X042287D01*
X042228Y022464D02*
Y022582D01*
X041304Y022523D02*
X041422D01*
X041363Y022464D02*
Y022582D01*
X041844Y022523D02*
X041962D01*
X041903Y022464D02*
Y022582D01*
X041309Y022305D02*
X041427D01*
X041368Y022246D02*
Y022365D01*
X041848Y022305D02*
X041966D01*
X041907Y022246D02*
Y022365D01*
X041574Y022305D02*
X041692D01*
X041633Y022246D02*
Y022365D01*
X042165Y022313D02*
X042283D01*
X042224Y022254D02*
Y022373D01*
X047473Y027269D02*
X047591D01*
X047532Y02721D02*
Y027328D01*
X047718Y027015D02*
X047836D01*
X047777Y026956D02*
Y027074D01*
X04698Y027269D02*
X047098D01*
X047039Y02721D02*
Y027328D01*
X04698Y027015D02*
X047098D01*
X047039Y026956D02*
Y027074D01*
X047224Y026759D02*
X047342D01*
X047283Y0267D02*
Y026818D01*
X047473Y026759D02*
X047591D01*
X047532Y0267D02*
Y026818D01*
X04698Y026759D02*
X047098D01*
X047039Y0267D02*
Y026818D01*
X047473Y027015D02*
X047591D01*
X047532Y026956D02*
Y027074D01*
X047224Y027269D02*
X047342D01*
X047283Y02721D02*
Y027328D01*
X047224Y027015D02*
X047342D01*
X047283Y026956D02*
Y027074D01*
X047718Y026759D02*
X047836D01*
X047777Y0267D02*
Y026818D01*
X045212Y028945D02*
X04533D01*
X045271Y028885D02*
Y029004D01*
X044969Y028134D02*
X045087D01*
X045028Y028075D02*
Y028193D01*
X045346Y027854D02*
X045465D01*
X045406Y027795D02*
Y027913D01*
X045752Y024469D02*
X04587D01*
X045811Y024409D02*
Y024528D01*
X045752Y02484D02*
X04587D01*
X045811Y024781D02*
Y024899D01*
X045266Y026518D02*
X045385D01*
X045325Y026459D02*
Y026577D01*
X035331Y035409D02*
X035449D01*
X03539Y03535D02*
Y035469D01*
X035331Y035252D02*
X035449D01*
X03539Y035193D02*
Y035311D01*
X035331Y035114D02*
X035449D01*
X03539Y035055D02*
Y035173D01*
X036369Y034058D02*
X036487D01*
X036428Y033999D02*
Y034117D01*
X036003Y034462D02*
X036121D01*
X036062Y034403D02*
Y034521D01*
X02745Y032329D02*
X027568D01*
X027509Y03227D02*
Y032388D01*
X027941Y032608D02*
X028059D01*
X028Y032549D02*
Y032667D01*
X035258Y03601D02*
X035376D01*
X035317Y035951D02*
Y036069D01*
X03507Y03601D02*
X035188D01*
X035129Y035951D02*
Y036069D01*
X034857Y03601D02*
X034975D01*
X034916Y035951D02*
Y036069D01*
X034674Y03601D02*
X034792D01*
X034733Y035951D02*
Y036069D01*
X034491Y03601D02*
X034609D01*
X03455Y035951D02*
Y036069D01*
X03431Y03601D02*
X034428D01*
X034369Y035951D02*
Y036069D01*
X036086Y03827D02*
X036204D01*
X036145Y03821D02*
Y038329D01*
X036064Y037766D02*
X036182D01*
X036123Y037707D02*
Y037825D01*
X037003Y037547D02*
X037121D01*
X037062Y037488D02*
Y037606D01*
X041552Y024122D02*
X04167D01*
X041611Y024063D02*
Y024181D01*
X041287Y024122D02*
X041406D01*
X041346Y024063D02*
Y024181D01*
X041827Y024122D02*
X041945D01*
X041886Y024063D02*
Y024181D01*
X042152Y024122D02*
X04227D01*
X042211Y024063D02*
Y024181D01*
X029988Y017948D02*
X030106D01*
X030047Y017889D02*
Y018007D01*
X029988Y019159D02*
X030106D01*
X030047Y0191D02*
Y019218D01*
X029988Y017116D02*
X030106D01*
X030047Y017056D02*
Y017175D01*
X029988Y016851D02*
X030106D01*
X030047Y016792D02*
Y01691D01*
X029988Y016612D02*
X030106D01*
X030047Y016553D02*
Y016671D01*
X029988Y017662D02*
X030106D01*
X030047Y017603D02*
Y017721D01*
X029988Y016285D02*
X030106D01*
X030047Y016226D02*
Y016344D01*
X029988Y015999D02*
X030106D01*
X030047Y01594D02*
Y016058D01*
X029988Y020281D02*
X030106D01*
X030047Y020222D02*
Y02034D01*
X029988Y014126D02*
X030106D01*
X030047Y014067D02*
Y014185D01*
X029988Y017389D02*
X030106D01*
X030047Y017329D02*
Y017448D01*
X029988Y019979D02*
X030106D01*
X030047Y01992D02*
Y020038D01*
X029988Y015114D02*
X030106D01*
X030047Y015055D02*
Y015173D01*
X029988Y018556D02*
X030106D01*
X030047Y018497D02*
Y018615D01*
X029988Y014514D02*
X030106D01*
X030047Y014455D02*
Y014573D01*
X029988Y019486D02*
X030106D01*
X030047Y019427D02*
Y019545D01*
X029988Y014849D02*
X030106D01*
X030047Y01479D02*
Y014908D01*
X029988Y01828D02*
X030106D01*
X030047Y01822D02*
Y018339D01*
X029988Y0154D02*
X030106D01*
X030047Y015341D02*
Y015459D01*
X029988Y019722D02*
X030106D01*
X030047Y019663D02*
Y019781D01*
X029988Y015735D02*
X030106D01*
X030047Y015676D02*
Y015794D01*
X029988Y018842D02*
X030106D01*
X030047Y018783D02*
Y018901D01*
X039369Y032893D02*
X039488D01*
X039428Y032834D02*
Y032952D01*
X039428Y031551D02*
X039546D01*
X039487Y031492D02*
Y03161D01*
X039428Y032298D02*
X039546D01*
X039487Y032239D02*
Y032357D01*
X017264Y041339D02*
X017382D01*
X017323Y04128D02*
Y041398D01*
X034628Y047301D02*
X034746D01*
X034687Y047242D02*
Y04736D01*
X036814Y047685D02*
X036932D01*
X036873Y047626D02*
Y047744D01*
X036517Y047941D02*
X036635D01*
X036576Y047882D02*
Y048D01*
X038803Y048157D02*
X038921D01*
X038862Y048098D02*
Y048217D01*
X034469Y047303D02*
X034587D01*
X034528Y047244D02*
Y047362D01*
X03872Y045433D02*
X038838D01*
X038779Y045374D02*
Y045492D01*
X034902Y045909D02*
X03502D01*
X034961Y04585D02*
Y045968D01*
X03813Y045433D02*
X038248D01*
X038189Y045374D02*
Y045492D01*
X038353Y044127D02*
X038471D01*
X038412Y044068D02*
Y044186D01*
X039232Y045433D02*
X03935D01*
X039291Y045374D02*
Y045492D01*
X034902Y046238D02*
X03502D01*
X034961Y046179D02*
Y046297D01*
X034902Y04562D02*
X03502D01*
X034961Y045561D02*
Y045679D01*
X038419Y045433D02*
X038537D01*
X038478Y045374D02*
Y045492D01*
X034902Y046535D02*
X03502D01*
X034961Y046476D02*
Y046594D01*
X03894Y045433D02*
X039058D01*
X038999Y045374D02*
Y045492D01*
X039522Y045433D02*
X03964D01*
X039581Y045374D02*
Y045492D01*
X034917Y045065D02*
X035035D01*
X034976Y045006D02*
Y045124D01*
X034917Y045354D02*
X035035D01*
X034976Y045295D02*
Y045413D01*
X037123Y044468D02*
X037241D01*
X037182Y044409D02*
Y044528D01*
X031457Y011493D02*
X031575D01*
X031516Y011434D02*
Y011552D01*
X027866Y040053D02*
X027984D01*
X027925Y039994D02*
Y040112D01*
X028567Y040053D02*
X028685D01*
X028626Y039994D02*
Y040112D01*
X027866Y040342D02*
X027984D01*
X027925Y040283D02*
Y040401D01*
X028224Y040053D02*
X028342D01*
X028283Y039994D02*
Y040112D01*
X028567Y040342D02*
X028685D01*
X028626Y040283D02*
Y040401D01*
X028224Y040342D02*
X028342D01*
X028283Y040283D02*
Y040401D01*
X028925Y040053D02*
X029043D01*
X028984Y039994D02*
Y040112D01*
X028925Y040342D02*
X029043D01*
X028984Y040283D02*
Y040401D01*
X030374Y041417D02*
X030492D01*
X030433Y041358D02*
Y041476D01*
X030361Y041714D02*
X030479D01*
X03042Y041655D02*
Y041773D01*
X030364Y0427D02*
X030482D01*
X030423Y042641D02*
Y042759D01*
X030364Y042345D02*
X030482D01*
X030423Y042286D02*
Y042404D01*
X030364Y04203D02*
X030482D01*
X030423Y041971D02*
Y042089D01*
X030366Y043018D02*
X030484D01*
X030425Y042959D02*
Y043077D01*
X030306Y04537D02*
X030424D01*
X030365Y045311D02*
Y045429D01*
X030306Y045647D02*
X030424D01*
X030365Y045588D02*
Y045706D01*
X030293Y045944D02*
X030411D01*
X030352Y045885D02*
Y046003D01*
X030295Y046575D02*
X030413D01*
X030354Y046516D02*
Y046634D01*
X030295Y04626D02*
X030413D01*
X030354Y046201D02*
Y046319D01*
X030306Y046906D02*
X030424D01*
X030365Y046846D02*
Y046965D01*
X030306Y047182D02*
X030424D01*
X030365Y047123D02*
Y047241D01*
X030293Y047479D02*
X030411D01*
X030352Y04742D02*
Y047538D01*
X030295Y04811D02*
X030413D01*
X030354Y048051D02*
Y048169D01*
X030295Y047795D02*
X030413D01*
X030354Y047736D02*
Y047854D01*
X0306Y047818D02*
X030718D01*
X030659Y047759D02*
Y047877D01*
X0306Y048133D02*
X030718D01*
X030659Y048074D02*
Y048192D01*
X030598Y047502D02*
X030716D01*
X030657Y047443D02*
Y047561D01*
X03061Y047205D02*
X030728D01*
X030669Y047146D02*
Y047264D01*
X03061Y046928D02*
X030728D01*
X030669Y046869D02*
Y046987D01*
X0306Y046282D02*
X030718D01*
X030659Y046223D02*
Y046341D01*
X0306Y046597D02*
X030718D01*
X030659Y046538D02*
Y046656D01*
X030598Y045966D02*
X030716D01*
X030657Y045907D02*
Y046025D01*
X03061Y045669D02*
X030728D01*
X030669Y04561D02*
Y045728D01*
X03061Y045393D02*
X030728D01*
X030669Y045334D02*
Y045452D01*
X030295Y044488D02*
X030413D01*
X030354Y044429D02*
Y044547D01*
X030689Y044488D02*
X030807D01*
X030748Y044429D02*
Y044547D01*
X030295Y044213D02*
X030413D01*
X030354Y044154D02*
Y044272D01*
X030689Y044213D02*
X030807D01*
X030748Y044154D02*
Y044272D01*
X030295Y043898D02*
X030413D01*
X030354Y043839D02*
Y043957D01*
X030689Y043898D02*
X030807D01*
X030748Y043839D02*
Y043957D01*
X030728Y041417D02*
X030846D01*
X030787Y041358D02*
Y041476D01*
X030716Y041714D02*
X030834D01*
X030775Y041655D02*
Y041773D01*
X030718Y0427D02*
X030836D01*
X030777Y042641D02*
Y042759D01*
X030718Y042345D02*
X030836D01*
X030777Y042286D02*
Y042404D01*
X030718Y04203D02*
X030836D01*
X030777Y041971D02*
Y042089D01*
X03072Y043018D02*
X030839D01*
X03078Y042959D02*
Y043077D01*
X030965Y045393D02*
X031083D01*
X031024Y045334D02*
Y045452D01*
X030965Y045669D02*
X031083D01*
X031024Y04561D02*
Y045728D01*
X030965Y047205D02*
X031083D01*
X031024Y047146D02*
Y047264D01*
X030965Y046928D02*
X031083D01*
X031024Y046869D02*
Y046987D01*
X030954Y048133D02*
X031072D01*
X031013Y048074D02*
Y048192D01*
X030954Y047818D02*
X031072D01*
X031013Y047759D02*
Y047877D01*
X030954Y046282D02*
X031072D01*
X031013Y046223D02*
Y046341D01*
X030954Y046597D02*
X031072D01*
X031013Y046538D02*
Y046656D01*
X030952Y045966D02*
X03107D01*
X031011Y045907D02*
Y046025D01*
X030952Y047502D02*
X03107D01*
X031011Y047443D02*
Y047561D01*
X031309Y048133D02*
X031427D01*
X031368Y048074D02*
Y048192D01*
X032047Y048664D02*
X032165D01*
X032106Y048605D02*
Y048723D01*
X031673Y048664D02*
X031791D01*
X031732Y048605D02*
Y048723D01*
X03248Y048664D02*
X032598D01*
X032539Y048605D02*
Y048723D01*
X031309Y047818D02*
X031427D01*
X031368Y047759D02*
Y047877D01*
X047582Y042145D02*
X0477D01*
X047641Y042086D02*
Y042204D01*
X047582Y042736D02*
X0477D01*
X047641Y042677D02*
Y042795D01*
X047582Y04187D02*
X0477D01*
X047641Y041811D02*
Y041929D01*
X047582Y043051D02*
X0477D01*
X047641Y042992D02*
Y04311D01*
X047582Y04246D02*
X0477D01*
X047641Y042401D02*
Y042519D01*
X046234Y04224D02*
X046352D01*
X046293Y042181D02*
Y042299D01*
X045587Y04252D02*
X045705D01*
X045646Y042461D02*
Y042579D01*
X044961Y04252D02*
X045079D01*
X04502Y042461D02*
Y042579D01*
X04624Y042823D02*
X046358D01*
X046299Y042764D02*
Y042882D01*
X045925Y04252D02*
X046043D01*
X045984Y042461D02*
Y042579D01*
X044287Y04252D02*
X044406D01*
X044346Y042461D02*
Y042579D01*
X045276Y04252D02*
X045394D01*
X045335Y042461D02*
Y042579D01*
X04461Y04252D02*
X044728D01*
X044669Y042461D02*
Y042579D01*
X04624Y04252D02*
X046358D01*
X046299Y042461D02*
Y042579D01*
X046555Y04252D02*
X046673D01*
X046614Y042461D02*
Y042579D01*
X038012Y013602D02*
X03813D01*
X038071Y013543D02*
Y013661D01*
X038126Y013618D02*
X038244D01*
X038185Y013558D02*
Y013677D01*
X03961Y035689D02*
X039728D01*
X039669Y03563D02*
Y035748D01*
X040455Y024751D02*
X040573D01*
X040514Y024692D02*
Y02481D01*
X038069Y03498D02*
X038187D01*
X038128Y034921D02*
Y035039D01*
X038074Y035148D02*
X038193D01*
X038134Y035089D02*
Y035207D01*
X038188Y035052D02*
X038307D01*
X038248Y034993D02*
Y035111D01*
X03819Y034906D02*
X038308D01*
X038249Y034847D02*
Y034965D01*
X039161Y03589D02*
X03928D01*
X03922Y035831D02*
Y035949D01*
X039327Y035879D02*
X039445D01*
X039386Y03582D02*
Y035938D01*
X039247Y036015D02*
X039365D01*
X039306Y035956D02*
Y036074D01*
X039386Y036015D02*
X039504D01*
X039445Y035956D02*
Y036074D01*
X037189Y038015D02*
X037308D01*
X037249Y037956D02*
Y038074D01*
X037037Y038018D02*
X037155D01*
X037096Y037958D02*
Y038077D01*
X037333Y038018D02*
X037451D01*
X037392Y037958D02*
Y038077D01*
X039495Y044773D02*
X039614D01*
X039554Y044714D02*
Y044832D01*
X040407Y035111D02*
X040525D01*
X040466Y035052D02*
Y03517D01*
X040256Y035118D02*
X040374D01*
X040315Y035059D02*
Y035177D01*
X040335Y03524D02*
X040453D01*
X040394Y035181D02*
Y035299D01*
X040185Y03524D02*
X040303D01*
X040244Y035181D02*
Y035299D01*
X039522Y045144D02*
X03964D01*
X039581Y045085D02*
Y045203D01*
X03687Y044173D02*
X036988D01*
X036929Y044114D02*
Y044232D01*
X034125Y041675D02*
X034243D01*
X034184Y041616D02*
Y041734D01*
X032573Y038607D02*
X032691D01*
X032632Y038548D02*
Y038666D01*
X035557Y041193D02*
X035675D01*
X035616Y041134D02*
Y041252D01*
X032818Y038607D02*
X032936D01*
X032877Y038548D02*
Y038666D01*
X036358Y040906D02*
X036476D01*
X036417Y040846D02*
Y040965D01*
X033051Y038607D02*
X033169D01*
X03311Y038548D02*
Y038666D01*
X039539Y04961D02*
X039657D01*
X039598Y049551D02*
Y049669D01*
X037134Y040111D02*
X037252D01*
X037193Y040052D02*
Y04017D01*
X037406Y040111D02*
X037524D01*
X037465Y040052D02*
Y04017D01*
X038605Y044121D02*
X038723D01*
X038664Y044061D02*
Y04418D01*
X032044Y049422D02*
X032162D01*
X032103Y049363D02*
Y049481D01*
X042972Y04252D02*
X043091D01*
X043032Y042461D02*
Y042579D01*
X04265Y04252D02*
X042768D01*
X042709Y042461D02*
Y042579D01*
X032047Y049058D02*
X032165D01*
X032106Y048998D02*
Y049117D01*
X038882Y034886D02*
X039D01*
X038941Y034827D02*
Y034945D01*
X019685Y033263D02*
X019804D01*
X019745Y033204D02*
Y033322D01*
X019343Y033263D02*
X019461D01*
X019402Y033204D02*
Y033322D01*
X019508Y033263D02*
X019626D01*
X019567Y033204D02*
Y033322D01*
X019685Y033476D02*
X019803D01*
X019744Y033417D02*
Y033535D01*
X019508Y033476D02*
X019626D01*
X019567Y033417D02*
Y033535D01*
X019343Y033476D02*
X019461D01*
X019402Y033417D02*
Y033535D01*
X019145Y03326D02*
X019263D01*
X019204Y033201D02*
Y033319D01*
X018887Y03326D02*
X019005D01*
X018946Y033201D02*
Y033319D01*
X019142Y033479D02*
X01926D01*
X019201Y03342D02*
Y033538D01*
X018885Y033479D02*
X019003D01*
X018944Y03342D02*
Y033538D01*
X042218Y024751D02*
X042336D01*
X042277Y024692D02*
Y02481D01*
X043117Y024751D02*
X043235D01*
X043176Y024692D02*
Y02481D01*
X041957Y024751D02*
X042075D01*
X042016Y024692D02*
Y02481D01*
X040779Y024751D02*
X040898D01*
X040839Y024692D02*
Y02481D01*
X041628Y024751D02*
X041746D01*
X041687Y024692D02*
Y02481D01*
X041322Y024751D02*
X041441D01*
X041381Y024692D02*
Y02481D01*
X042848Y024751D02*
X042966D01*
X042907Y024692D02*
Y02481D01*
X042573Y024751D02*
X042691D01*
X042632Y024692D02*
Y02481D01*
X041033Y024751D02*
X041151D01*
X041092Y024692D02*
Y02481D01*
X033229Y025935D02*
X033348D01*
X033288Y025876D02*
Y025994D01*
X033052Y025935D02*
X03317D01*
X033111Y025876D02*
Y025994D01*
X032887Y025935D02*
X033005D01*
X032946Y025876D02*
Y025994D01*
X033235Y026093D02*
X033353D01*
X033294Y026034D02*
Y026152D01*
X033058Y026093D02*
X033176D01*
X033117Y026034D02*
Y026152D01*
X032893Y026093D02*
X033011D01*
X032952Y026034D02*
Y026152D01*
X022609Y035438D02*
X022727D01*
X022668Y035379D02*
Y035497D01*
X022609Y035273D02*
X022727D01*
X022668Y035214D02*
Y035332D01*
X022609Y035096D02*
X022727D01*
X022668Y035037D02*
Y035155D01*
X022452Y035444D02*
X02257D01*
X022511Y035385D02*
Y035503D01*
X022452Y035279D02*
X02257D01*
X022511Y03522D02*
Y035338D01*
X022452Y035102D02*
X02257D01*
X022511Y035042D02*
Y035161D01*
X022287Y035102D02*
X022406D01*
X022346Y035043D02*
Y035161D01*
X022287Y03528D02*
X022406D01*
X022346Y03522D02*
Y035339D01*
X022287Y035445D02*
X022406D01*
X022346Y035386D02*
Y035504D01*
X02471Y036022D02*
X024828D01*
X024769Y035963D02*
Y036081D01*
X025025Y036022D02*
X025143D01*
X025084Y035963D02*
Y036081D01*
X025339Y036022D02*
X025458D01*
X025399Y035963D02*
Y036081D01*
X025969Y036022D02*
X026088D01*
X026028Y035963D02*
Y036081D01*
X025654Y036022D02*
X025773D01*
X025714Y035963D02*
Y036081D01*
X026265Y03603D02*
X026383D01*
X026324Y035971D02*
Y036089D01*
X02784Y03603D02*
X027958D01*
X027899Y035971D02*
Y036089D01*
X02658Y03603D02*
X026698D01*
X026639Y035971D02*
Y036089D01*
X028155Y03603D02*
X028273D01*
X028214Y035971D02*
Y036089D01*
X027525Y03603D02*
X027643D01*
X027584Y035971D02*
Y036089D01*
X026895Y03603D02*
X027013D01*
X026954Y035971D02*
Y036089D01*
X02721Y03603D02*
X027328D01*
X027269Y035971D02*
Y036089D01*
X028799Y035382D02*
X028917D01*
X028858Y035323D02*
Y035441D01*
X028484Y035726D02*
X028602D01*
X028543Y035667D02*
Y035785D01*
X041055Y028014D02*
X041173D01*
X041114Y027955D02*
Y028073D01*
X049105Y046341D02*
X049223D01*
X049164Y046282D02*
Y0464D01*
X049105Y045972D02*
X049223D01*
X049164Y045913D02*
Y046031D01*
X049105Y044074D02*
X049223D01*
X049164Y044015D02*
Y044133D01*
X049105Y042574D02*
X049223D01*
X049164Y042515D02*
Y042633D01*
X049105Y045074D02*
X049223D01*
X049164Y045015D02*
Y045133D01*
X049105Y044574D02*
X049223D01*
X049164Y044515D02*
Y044633D01*
X049105Y041074D02*
X049223D01*
X049164Y041015D02*
Y041133D01*
X049105Y043574D02*
X049223D01*
X049164Y043515D02*
Y043633D01*
X049105Y042074D02*
X049223D01*
X049164Y042015D02*
Y042133D01*
X049105Y043074D02*
X049223D01*
X049164Y043015D02*
Y043133D01*
X049105Y045574D02*
X049223D01*
X049164Y045515D02*
Y045633D01*
X049105Y041574D02*
X049223D01*
X049164Y041515D02*
Y041633D01*
X027344Y025245D02*
X027462D01*
X027403Y025186D02*
Y025304D01*
X028139Y025245D02*
X028257D01*
X028198Y025186D02*
Y025304D01*
X027646Y025245D02*
X027764D01*
X027705Y025186D02*
Y025304D01*
X028466Y025245D02*
X028584D01*
X028525Y025186D02*
Y025304D01*
X027087Y025245D02*
X027205D01*
X027146Y025186D02*
Y025304D01*
X027903Y025245D02*
X028021D01*
X027962Y025186D02*
Y025304D01*
X02734Y025519D02*
X027458D01*
X027399Y02546D02*
Y025579D01*
X027083Y02552D02*
X027201D01*
X027142Y025461D02*
Y025579D01*
X028135Y025519D02*
X028254D01*
X028195Y02546D02*
Y025579D01*
X027899Y025519D02*
X028017D01*
X027958Y02546D02*
Y025579D01*
X027642Y025519D02*
X02776D01*
X027701Y02546D02*
Y025579D01*
X028462Y025519D02*
X02858D01*
X028521Y02546D02*
Y025579D01*
X028126Y02576D02*
X028244D01*
X028185Y025701D02*
Y025819D01*
X028453Y02576D02*
X028571D01*
X028512Y025701D02*
Y025819D01*
X02709Y025753D02*
X027208D01*
X027149Y025694D02*
Y025812D01*
X02789Y02576D02*
X028008D01*
X027949Y025701D02*
Y025819D01*
X027331Y02576D02*
X027449D01*
X02739Y025701D02*
Y025819D01*
X027633Y02576D02*
X027751D01*
X027692Y025701D02*
Y025819D01*
X027696Y02007D02*
X027814D01*
X027755Y020011D02*
Y020129D01*
X027394Y02007D02*
X027512D01*
X027453Y020011D02*
Y020129D01*
X027953Y02007D02*
X028071D01*
X028012Y020011D02*
Y020129D01*
X027153Y020063D02*
X027271D01*
X027212Y020004D02*
Y020122D01*
X028515Y02007D02*
X028633D01*
X028574Y020011D02*
Y020129D01*
X028189Y02007D02*
X028307D01*
X028248Y020011D02*
Y020129D01*
X028525Y01983D02*
X028643D01*
X028584Y019771D02*
Y019889D01*
X027705Y01983D02*
X027823D01*
X027764Y019771D02*
Y019889D01*
X027962Y01983D02*
X02808D01*
X028021Y019771D02*
Y019889D01*
X028198Y01983D02*
X028316D01*
X028257Y019771D02*
Y019889D01*
X027146Y01983D02*
X027264D01*
X027205Y019771D02*
Y019889D01*
X027403Y01983D02*
X027521D01*
X027462Y019771D02*
Y019889D01*
X027965Y019555D02*
X028083D01*
X028024Y019496D02*
Y019614D01*
X027149Y019555D02*
X027268D01*
X027208Y019496D02*
Y019615D01*
X028528Y019555D02*
X028646D01*
X028587Y019496D02*
Y019614D01*
X027708Y019555D02*
X027827D01*
X027767Y019496D02*
Y019614D01*
X028202Y019555D02*
X02832D01*
X028261Y019496D02*
Y019614D01*
X027406Y019555D02*
X027524D01*
X027465Y019496D02*
Y019614D01*
X038115Y026999D02*
X038233D01*
X038174Y02694D02*
Y027058D01*
X038123Y027248D02*
X038241D01*
X038182Y027189D02*
Y027307D01*
X038379Y026999D02*
X038497D01*
X038438Y02694D02*
Y027058D01*
X038397Y027249D02*
X038515D01*
X038456Y02719D02*
Y027308D01*
X038954Y026999D02*
X039072D01*
X039013Y02694D02*
Y027058D01*
X038948Y026751D02*
X039066D01*
X039007Y026692D02*
Y02681D01*
X038676Y026999D02*
X038794D01*
X038735Y02694D02*
Y027058D01*
X038651Y026749D02*
X038769D01*
X03871Y02669D02*
Y026808D01*
X038373Y026748D02*
X038491D01*
X038432Y026688D02*
Y026807D01*
X037858Y027514D02*
X037976D01*
X037917Y027455D02*
Y027573D01*
X036788Y027785D02*
X036906D01*
X036847Y027726D02*
Y027844D01*
X037599Y027514D02*
X037717D01*
X037658Y027455D02*
Y027573D01*
X03813Y027785D02*
X038249D01*
X038189Y027726D02*
Y027844D01*
X038676Y027785D02*
X038794D01*
X038735Y027726D02*
Y027844D01*
X038972Y027785D02*
X03909D01*
X039031Y027726D02*
Y027844D01*
X037039Y027514D02*
X037157D01*
X037098Y027455D02*
Y027573D01*
X037047Y027785D02*
X037165D01*
X037106Y027726D02*
Y027844D01*
X038972Y027514D02*
X03909D01*
X039031Y027455D02*
Y027573D01*
X037607Y027785D02*
X037725D01*
X037666Y027726D02*
Y027844D01*
X038676Y027514D02*
X038794D01*
X038735Y027455D02*
Y027573D01*
X037866Y027785D02*
X037984D01*
X037925Y027726D02*
Y027844D01*
X038123Y027514D02*
X038241D01*
X038182Y027455D02*
Y027573D01*
X037311Y027785D02*
X03743D01*
X037371Y027726D02*
Y027844D01*
X03678Y027514D02*
X036898D01*
X036839Y027455D02*
Y027573D01*
X037304Y027514D02*
X037422D01*
X037363Y027455D02*
Y027573D01*
X034915Y027514D02*
X035034D01*
X034975Y027455D02*
Y027573D01*
X034392Y027514D02*
X03451D01*
X034451Y027455D02*
Y027573D01*
X034923Y027785D02*
X035041D01*
X034982Y027726D02*
Y027844D01*
X035734Y027514D02*
X035852D01*
X035793Y027455D02*
Y027573D01*
X035477Y027785D02*
X035595D01*
X035536Y027726D02*
Y027844D01*
X036265Y027514D02*
X036383D01*
X036324Y027455D02*
Y027573D01*
X035218Y027785D02*
X035336D01*
X035277Y027726D02*
Y027844D01*
X03653Y027514D02*
X036648D01*
X036589Y027455D02*
Y027573D01*
X034658Y027785D02*
X034776D01*
X034717Y027726D02*
Y027844D01*
X034651Y027514D02*
X034769D01*
X03471Y027455D02*
Y027573D01*
X036537Y027785D02*
X036655D01*
X036596Y027726D02*
Y027844D01*
X036006Y027514D02*
X036124D01*
X036065Y027455D02*
Y027573D01*
X036272Y027785D02*
X036391D01*
X036331Y027726D02*
Y027844D01*
X035742Y027785D02*
X03586D01*
X035801Y027726D02*
Y027844D01*
X035211Y027514D02*
X035329D01*
X03527Y027455D02*
Y027573D01*
X034399Y027785D02*
X034517D01*
X034458Y027726D02*
Y027844D01*
X03547Y027514D02*
X035588D01*
X035529Y027455D02*
Y027573D01*
X036014Y027785D02*
X036132D01*
X036073Y027726D02*
Y027844D01*
X038202Y029062D02*
X03832D01*
X038261Y029003D02*
Y029121D01*
X036605Y029067D02*
X036723D01*
X036664Y029008D02*
Y029126D01*
X03687Y029067D02*
X036988D01*
X036929Y029008D02*
Y029126D01*
X036346Y029067D02*
X036464D01*
X036405Y029008D02*
Y029126D01*
X037424Y029067D02*
X037542D01*
X037483Y029008D02*
Y029126D01*
X037688Y029067D02*
X037807D01*
X037748Y029008D02*
Y029126D01*
X037165Y029067D02*
X037283D01*
X037224Y029008D02*
Y029126D01*
X03796Y029067D02*
X038078D01*
X038019Y029008D02*
Y029126D01*
X0328Y028022D02*
X032918D01*
X032859Y027963D02*
Y028082D01*
X0328Y028559D02*
X032918D01*
X032859Y0285D02*
Y028618D01*
X0328Y028284D02*
X032918D01*
X032859Y028225D02*
Y028343D01*
X03301Y02829D02*
X033128D01*
X033069Y028231D02*
Y028349D01*
X03301Y028565D02*
X033128D01*
X033069Y028506D02*
Y028624D01*
X03301Y028029D02*
X033128D01*
X033069Y02797D02*
Y028088D01*
X038043Y028492D02*
X038161D01*
X038102Y028433D02*
Y028551D01*
X038567Y028492D02*
X038685D01*
X038626Y028433D02*
Y028551D01*
X038302Y028492D02*
X03842D01*
X038361Y028433D02*
Y028551D01*
X037248Y028492D02*
X037366D01*
X037307Y028433D02*
Y028551D01*
X037772Y028492D02*
X03789D01*
X037831Y028433D02*
Y028551D01*
X037507Y028492D02*
X037625D01*
X037566Y028433D02*
Y028551D01*
X036429Y028492D02*
X036547D01*
X036488Y028433D02*
Y028551D01*
X036953Y028492D02*
X037071D01*
X037012Y028433D02*
Y028551D01*
X036688Y028492D02*
X036806D01*
X036747Y028433D02*
Y028551D01*
X019615Y026211D02*
X019733D01*
X019674Y026152D02*
Y02627D01*
X019358Y026211D02*
X019476D01*
X019417Y026152D02*
Y02627D01*
X019615Y025896D02*
X019733D01*
X019674Y025837D02*
Y025956D01*
X019358Y025896D02*
X019476D01*
X019417Y025837D02*
Y025956D01*
X01962Y020195D02*
X019738D01*
X019679Y020136D02*
Y020254D01*
X019363Y020195D02*
X019481D01*
X019422Y020136D02*
Y020254D01*
X019709Y020488D02*
X019827D01*
X019768Y020429D02*
Y020547D01*
X019452Y020488D02*
X01957D01*
X019511Y020429D02*
Y020547D01*
X019704Y013258D02*
X019822D01*
X019763Y013199D02*
Y013317D01*
X019704Y012943D02*
X019822D01*
X019763Y012884D02*
Y013002D01*
X019446Y012943D02*
X019565D01*
X019505Y012884D02*
Y013002D01*
X019446Y013258D02*
X019565D01*
X019505Y013199D02*
Y013317D01*
X011542Y031534D02*
X01166D01*
X011601Y031475D02*
Y031593D01*
X012605Y031534D02*
X012723D01*
X012664Y031475D02*
Y031593D01*
X01183Y031534D02*
X011948D01*
X011889Y031475D02*
Y031593D01*
X012094Y031534D02*
X012212D01*
X012153Y031475D02*
Y031593D01*
X01235Y031534D02*
X012469D01*
X012409Y031475D02*
Y031593D01*
X013015Y03125D02*
X013133D01*
X013074Y031191D02*
Y031309D01*
X013015Y03073D02*
X013133D01*
X013074Y030671D02*
Y030789D01*
X013015Y030994D02*
X013133D01*
X013074Y030935D02*
Y031053D01*
X012736Y030985D02*
X012854D01*
X012795Y030926D02*
Y031044D01*
X012736Y031241D02*
X012854D01*
X012795Y031182D02*
Y0313D01*
X012736Y03072D02*
X012854D01*
X012795Y030661D02*
Y030779D01*
X026064Y032227D02*
X026182D01*
X026123Y032168D02*
Y032286D01*
X026328Y032227D02*
X026446D01*
X026387Y032168D02*
Y032286D01*
X026606Y031975D02*
X026725D01*
X026666Y031916D02*
Y032034D01*
X026064Y031975D02*
X026182D01*
X026123Y031916D02*
Y032034D01*
X026328Y031975D02*
X026446D01*
X026387Y031916D02*
Y032034D01*
X026606Y031707D02*
X026725D01*
X026666Y031648D02*
Y031766D01*
X026064Y031707D02*
X026182D01*
X026123Y031648D02*
Y031766D01*
X026328Y031707D02*
X026446D01*
X026387Y031648D02*
Y031766D01*
X026336Y03147D02*
X026454D01*
X026395Y031411D02*
Y031529D01*
X026071Y03147D02*
X026189D01*
X02613Y031411D02*
Y031529D01*
X026614Y03147D02*
X026732D01*
X026673Y031411D02*
Y031529D01*
X026336Y031219D02*
X026454D01*
X026395Y031159D02*
Y031278D01*
X026071Y031219D02*
X026189D01*
X02613Y031159D02*
Y031278D01*
X026614Y031219D02*
X026732D01*
X026673Y031159D02*
Y031278D01*
X024729Y0312D02*
X024848D01*
X024788Y031141D02*
Y031259D01*
X025804Y031204D02*
X025923D01*
X025863Y031145D02*
Y031263D01*
X025261Y031204D02*
X02538D01*
X025321Y031145D02*
Y031263D01*
X025526Y031204D02*
X025644D01*
X025585Y031145D02*
Y031263D01*
X024988Y031204D02*
X025106D01*
X025047Y031145D02*
Y031263D01*
X024729Y031451D02*
X024848D01*
X024788Y031392D02*
Y03151D01*
X025804Y031455D02*
X025923D01*
X025863Y031396D02*
Y031514D01*
X025261Y031455D02*
X02538D01*
X025321Y031396D02*
Y031514D01*
X025526Y031455D02*
X025644D01*
X025585Y031396D02*
Y031514D01*
X024988Y031455D02*
X025106D01*
X025047Y031396D02*
Y031514D01*
X028799Y035653D02*
X028917D01*
X028858Y035594D02*
Y035712D01*
X029433Y035394D02*
X029551D01*
X029492Y035335D02*
Y035453D01*
X029433Y034856D02*
X029551D01*
X029492Y034797D02*
Y034915D01*
X029433Y035121D02*
X029551D01*
X029492Y035062D02*
Y03518D01*
X029429Y035653D02*
X029547D01*
X029488Y035594D02*
Y035712D01*
X029748Y035394D02*
X029866D01*
X029807Y035335D02*
Y035453D01*
X029748Y034856D02*
X029866D01*
X029807Y034797D02*
Y034915D01*
X029748Y035121D02*
X029866D01*
X029807Y035062D02*
Y03518D01*
X029748Y034578D02*
X029866D01*
X029807Y034519D02*
Y034637D01*
X029744Y035653D02*
X029862D01*
X029803Y035594D02*
Y035712D01*
X02745Y032608D02*
X027568D01*
X027509Y032549D02*
Y032667D01*
X027697Y032608D02*
X027815D01*
X027756Y032549D02*
Y032667D01*
X027697Y032329D02*
X027815D01*
X027756Y03227D02*
Y032388D01*
X027949Y032329D02*
X028067D01*
X028008Y03227D02*
Y032388D01*
X029318Y02189D02*
X029436D01*
X029377Y021831D02*
Y021949D01*
X029318Y022436D02*
X029436D01*
X029377Y022377D02*
Y022495D01*
X029318Y022144D02*
X029436D01*
X029377Y022085D02*
Y022203D01*
X029318Y021633D02*
X029436D01*
X029377Y021574D02*
Y021692D01*
X029318Y021378D02*
X029436D01*
X029377Y021319D02*
Y021437D01*
X029318Y021089D02*
X029436D01*
X029377Y02103D02*
Y021148D01*
X029083Y0211D02*
X029201D01*
X029142Y021041D02*
Y021159D01*
X029601Y021378D02*
X029719D01*
X02966Y021319D02*
Y021437D01*
X029083Y02139D02*
X029201D01*
X029142Y021331D02*
Y021449D01*
X029601Y021633D02*
X029719D01*
X02966Y021574D02*
Y021692D01*
X029083Y021644D02*
X029201D01*
X029142Y021585D02*
Y021703D01*
X029894Y021633D02*
X030012D01*
X029953Y021574D02*
Y021692D01*
X030188Y02189D02*
X030306D01*
X030247Y021831D02*
Y021949D01*
X029597Y02189D02*
X029715D01*
X029656Y021831D02*
Y021949D01*
X029083Y021902D02*
X029201D01*
X029142Y021843D02*
Y021961D01*
X02989Y02189D02*
X030008D01*
X029949Y021831D02*
Y021949D01*
X029893Y022144D02*
X030011D01*
X029952Y022085D02*
Y022203D01*
X029083Y022155D02*
X029201D01*
X029142Y022096D02*
Y022214D01*
X030468Y022135D02*
X030586D01*
X030527Y022076D02*
Y022194D01*
X0296Y022144D02*
X029718D01*
X029659Y022085D02*
Y022203D01*
X03019Y022144D02*
X030308D01*
X030249Y022085D02*
Y022203D01*
X044326Y038971D02*
X044444D01*
X044385Y038912D02*
Y03903D01*
X042934Y038618D02*
X043052D01*
X042993Y038559D02*
Y038677D01*
X043448Y038618D02*
X043566D01*
X043507Y038559D02*
Y038677D01*
X043192Y038618D02*
X04331D01*
X043251Y038559D02*
Y038677D01*
X043703Y038618D02*
X043821D01*
X043762Y038559D02*
Y038677D01*
X027592Y010634D02*
X02771D01*
X027651Y010575D02*
Y010693D01*
X027001Y010654D02*
X027119D01*
X02706Y010594D02*
Y010713D01*
X027974Y010634D02*
X028092D01*
X028033Y010575D02*
Y010693D01*
X028474Y010634D02*
X028592D01*
X028533Y010575D02*
Y010693D01*
X028974Y010634D02*
X029092D01*
X029033Y010575D02*
Y010693D01*
X029097Y014341D02*
X029215D01*
X029156Y014282D02*
Y0144D01*
X029097Y014676D02*
X029215D01*
X029156Y014617D02*
Y014735D01*
X029097Y015226D02*
X029215D01*
X029156Y015167D02*
Y015286D01*
X029097Y014941D02*
X029215D01*
X029156Y014881D02*
Y015D01*
X029094Y014064D02*
X029212D01*
X029153Y014005D02*
Y014123D01*
X029383Y014077D02*
X029501D01*
X029442Y014018D02*
Y014136D01*
X029386Y014953D02*
X029504D01*
X029445Y014894D02*
Y015012D01*
X029386Y015239D02*
X029504D01*
X029445Y01518D02*
Y015298D01*
X029386Y014688D02*
X029504D01*
X029445Y014629D02*
Y014747D01*
X029386Y014353D02*
X029504D01*
X029445Y014294D02*
Y014412D01*
X029185Y015902D02*
X029303D01*
X029244Y015843D02*
Y015961D01*
X029185Y016453D02*
X029303D01*
X029244Y016394D02*
Y016512D01*
X029185Y016167D02*
X029303D01*
X029244Y016108D02*
Y016226D01*
X029185Y01678D02*
X029303D01*
X029244Y016721D02*
Y016839D01*
X029185Y017283D02*
X029303D01*
X029244Y017224D02*
Y017342D01*
X029185Y017018D02*
X029303D01*
X029244Y016959D02*
Y017078D01*
X029185Y018116D02*
X029303D01*
X029244Y018056D02*
Y018175D01*
X029185Y017556D02*
X029303D01*
X029244Y017497D02*
Y017615D01*
X029185Y018723D02*
X029303D01*
X029244Y018664D02*
Y018783D01*
X029185Y019327D02*
X029303D01*
X029244Y019268D02*
Y019386D01*
X029185Y019009D02*
X029303D01*
X029244Y01895D02*
Y019068D01*
X029185Y019654D02*
X029303D01*
X029244Y019595D02*
Y019713D01*
X029185Y01783D02*
X029303D01*
X029244Y017771D02*
Y017889D01*
X029185Y01989D02*
X029303D01*
X029244Y019831D02*
Y019949D01*
X029185Y020147D02*
X029303D01*
X029244Y020088D02*
Y020206D01*
X029185Y020449D02*
X029303D01*
X029244Y02039D02*
Y020508D01*
X029185Y018447D02*
X029303D01*
X029244Y018388D02*
Y018506D01*
X030525Y01828D02*
X030643D01*
X030584Y01822D02*
Y018339D01*
X030269Y01828D02*
X030388D01*
X030328Y01822D02*
Y018339D01*
X030512Y014126D02*
X03063D01*
X030571Y014067D02*
Y014185D01*
X030256Y014126D02*
X030375D01*
X030315Y014067D02*
Y014185D01*
X030269Y014514D02*
X030388D01*
X030328Y014455D02*
Y014573D01*
X030269Y014849D02*
X030388D01*
X030328Y01479D02*
Y014908D01*
X030269Y0154D02*
X030388D01*
X030328Y015341D02*
Y015459D01*
X030269Y015114D02*
X030388D01*
X030328Y015055D02*
Y015173D01*
X030269Y015735D02*
X030388D01*
X030328Y015676D02*
Y015794D01*
X030525Y014849D02*
X030643D01*
X030584Y01479D02*
Y014908D01*
X030525Y014514D02*
X030643D01*
X030584Y014455D02*
Y014573D01*
X030525Y015114D02*
X030643D01*
X030584Y015055D02*
Y015173D01*
X030525Y015735D02*
X030643D01*
X030584Y015676D02*
Y015794D01*
X030525Y0154D02*
X030643D01*
X030584Y015341D02*
Y015459D01*
X030525Y015999D02*
X030643D01*
X030584Y01594D02*
Y016058D01*
X030525Y016851D02*
X030643D01*
X030584Y016792D02*
Y01691D01*
X030525Y016285D02*
X030643D01*
X030584Y016226D02*
Y016344D01*
X030525Y016612D02*
X030643D01*
X030584Y016553D02*
Y016671D01*
X030262Y02053D02*
X030381D01*
X030322Y020471D02*
Y020589D01*
X03027Y020281D02*
X030388D01*
X030329Y020222D02*
Y02034D01*
X030269Y019979D02*
X030388D01*
X030328Y01992D02*
Y020038D01*
X030269Y017948D02*
X030388D01*
X030328Y017889D02*
Y018007D01*
X030269Y019722D02*
X030388D01*
X030328Y019663D02*
Y019781D01*
X030269Y019159D02*
X030388D01*
X030328Y0191D02*
Y019218D01*
X030269Y019486D02*
X030388D01*
X030328Y019427D02*
Y019545D01*
X030269Y018842D02*
X030388D01*
X030328Y018783D02*
Y018901D01*
X030269Y017662D02*
X030388D01*
X030328Y017603D02*
Y017721D01*
X030269Y018556D02*
X030388D01*
X030328Y018497D02*
Y018615D01*
X030269Y017116D02*
X030388D01*
X030328Y017056D02*
Y017175D01*
X030269Y017389D02*
X030388D01*
X030328Y017329D02*
Y017448D01*
X030269Y016851D02*
X030388D01*
X030328Y016792D02*
Y01691D01*
X030269Y016285D02*
X030388D01*
X030328Y016226D02*
Y016344D01*
X030269Y016612D02*
X030388D01*
X030328Y016553D02*
Y016671D01*
X030269Y015999D02*
X030388D01*
X030328Y01594D02*
Y016058D01*
X030518Y020816D02*
X030636D01*
X030577Y020756D02*
Y020875D01*
X030525Y020538D02*
X030643D01*
X030584Y020479D02*
Y020597D01*
X030525Y020281D02*
X030643D01*
X030584Y020222D02*
Y02034D01*
X030525Y019979D02*
X030643D01*
X030584Y01992D02*
Y020038D01*
X030525Y019486D02*
X030643D01*
X030584Y019427D02*
Y019545D01*
X030525Y019722D02*
X030643D01*
X030584Y019663D02*
Y019781D01*
X030525Y019159D02*
X030643D01*
X030584Y0191D02*
Y019218D01*
X030525Y017948D02*
X030643D01*
X030584Y017889D02*
Y018007D01*
X030525Y018556D02*
X030643D01*
X030584Y018497D02*
Y018615D01*
X030525Y018842D02*
X030643D01*
X030584Y018783D02*
Y018901D01*
X030525Y017389D02*
X030643D01*
X030584Y017329D02*
Y017448D01*
X030525Y017662D02*
X030643D01*
X030584Y017603D02*
Y017721D01*
X030525Y017116D02*
X030643D01*
X030584Y017056D02*
Y017175D01*
X029114Y024981D02*
X029233D01*
X029173Y024922D02*
Y02504D01*
X029357Y02524D02*
X029475D01*
X029416Y025181D02*
Y025299D01*
X029097Y02445D02*
X029215D01*
X029156Y024391D02*
Y024509D01*
X029097Y024715D02*
X029215D01*
X029156Y024656D02*
Y024774D01*
X029097Y023907D02*
X029215D01*
X029156Y023848D02*
Y023966D01*
X029097Y023618D02*
X029215D01*
X029156Y023559D02*
Y023677D01*
X029097Y024172D02*
X029215D01*
X029156Y024113D02*
Y024231D01*
X029097Y023022D02*
X029215D01*
X029156Y022963D02*
Y023082D01*
X029097Y023272D02*
X029215D01*
X029156Y023213D02*
Y023331D01*
X029097Y022741D02*
X029215D01*
X029156Y022682D02*
Y0228D01*
X029357Y022741D02*
X029475D01*
X029416Y022682D02*
Y0228D01*
X029083Y022447D02*
X029201D01*
X029142Y022388D02*
Y022506D01*
X029357Y023272D02*
X029475D01*
X029416Y023212D02*
Y023331D01*
X029357Y023022D02*
X029475D01*
X029416Y022963D02*
Y023081D01*
X029577Y023279D02*
X029695D01*
X029636Y02322D02*
Y023338D01*
X029639Y025489D02*
X029757D01*
X029698Y02543D02*
Y025548D01*
X029882Y025489D02*
X03D01*
X029941Y02543D02*
Y025548D01*
X030146Y025489D02*
X030264D01*
X030205Y02543D02*
Y025548D01*
X030162Y02445D02*
X03028D01*
X030221Y024391D02*
Y024509D01*
X029357Y024172D02*
X029475D01*
X029416Y024112D02*
Y024231D01*
X0296Y024172D02*
X029718D01*
X029659Y024112D02*
Y024231D01*
X029864Y024172D02*
X029982D01*
X029923Y024112D02*
Y024231D01*
X030162Y024172D02*
X03028D01*
X030221Y024112D02*
Y024231D01*
X029357Y023618D02*
X029475D01*
X029416Y023558D02*
Y023677D01*
X029357Y023907D02*
X029475D01*
X029416Y023848D02*
Y023966D01*
X029357Y024715D02*
X029475D01*
X029416Y024655D02*
Y024774D01*
X029357Y024988D02*
X029475D01*
X029416Y024929D02*
Y025047D01*
X029357Y02445D02*
X029475D01*
X029416Y024391D02*
Y024509D01*
X0296Y023618D02*
X029718D01*
X029659Y023558D02*
Y023677D01*
X0296Y023907D02*
X029718D01*
X029659Y023848D02*
Y023966D01*
X0296Y024715D02*
X029718D01*
X029659Y024655D02*
Y024774D01*
X0296Y024988D02*
X029718D01*
X029659Y024929D02*
Y025047D01*
X0296Y02445D02*
X029718D01*
X029659Y024391D02*
Y024509D01*
X0296Y02524D02*
X029718D01*
X029659Y025181D02*
Y025299D01*
X03076Y022427D02*
X030878D01*
X030819Y022368D02*
Y022486D01*
X029594Y022436D02*
X029712D01*
X029653Y022377D02*
Y022495D01*
X029892Y022436D02*
X03001D01*
X029951Y022377D02*
Y022495D01*
X030185Y022436D02*
X030303D01*
X030244Y022377D02*
Y022495D01*
X030482Y022436D02*
X0306D01*
X030541Y022377D02*
Y022495D01*
X031046Y022732D02*
X031164D01*
X031105Y022673D02*
Y022791D01*
X029587Y022741D02*
X029705D01*
X029646Y022682D02*
Y0228D01*
X02988Y022741D02*
X029998D01*
X029939Y022682D02*
Y0228D01*
X030178Y022741D02*
X030296D01*
X030237Y022682D02*
Y0228D01*
X030471Y022741D02*
X030589D01*
X03053Y022682D02*
Y0228D01*
X030768Y022741D02*
X030886D01*
X030827Y022682D02*
Y0228D01*
X031332Y023008D02*
X03145D01*
X031391Y022949D02*
Y023067D01*
X029576Y023017D02*
X029694D01*
X029635Y022958D02*
Y023076D01*
X029873Y023017D02*
X029991D01*
X029932Y022958D02*
Y023076D01*
X030166Y023017D02*
X030284D01*
X030225Y022958D02*
Y023076D01*
X030464Y023017D02*
X030582D01*
X030523Y022958D02*
Y023076D01*
X030757Y023017D02*
X030875D01*
X030816Y022958D02*
Y023076D01*
X031054Y023017D02*
X031172D01*
X031113Y022958D02*
Y023076D01*
X031037Y025484D02*
X031156D01*
X031097Y025425D02*
Y025543D01*
X031335Y025484D02*
X031453D01*
X031394Y025425D02*
Y025543D01*
X030744Y025484D02*
X030863D01*
X030803Y025425D02*
Y025543D01*
X030738Y02524D02*
X030856D01*
X030797Y025181D02*
Y025299D01*
X030441Y02524D02*
X030559D01*
X0305Y025181D02*
Y025299D01*
X031329Y02524D02*
X031447D01*
X031388Y025181D02*
Y025299D01*
X031031Y02524D02*
X03115D01*
X03109Y025181D02*
Y025299D01*
X029864Y02524D02*
X029982D01*
X029923Y025181D02*
Y025299D01*
X031343Y02445D02*
X031461D01*
X031402Y024391D02*
Y024509D01*
X031045Y02445D02*
X031163D01*
X031104Y024391D02*
Y024509D01*
X031045Y024988D02*
X031163D01*
X031104Y024929D02*
Y025047D01*
X031343Y024988D02*
X031461D01*
X031402Y024929D02*
Y025047D01*
X031343Y024715D02*
X031461D01*
X031402Y024655D02*
Y024774D01*
X031045Y024715D02*
X031163D01*
X031104Y024655D02*
Y024774D01*
X031045Y023907D02*
X031163D01*
X031104Y023848D02*
Y023966D01*
X031045Y024172D02*
X031163D01*
X031104Y024112D02*
Y024231D01*
X031343Y024172D02*
X031461D01*
X031402Y024112D02*
Y024231D01*
X031343Y023618D02*
X031461D01*
X031402Y023558D02*
Y023677D01*
X031343Y023907D02*
X031461D01*
X031402Y023848D02*
Y023966D01*
X031045Y023618D02*
X031163D01*
X031104Y023558D02*
Y023677D01*
X031343Y023286D02*
X031461D01*
X031402Y023227D02*
Y023345D01*
X031045Y023286D02*
X031163D01*
X031104Y023227D02*
Y023345D01*
X030455Y02445D02*
X030573D01*
X030514Y024391D02*
Y024509D01*
X030455Y024988D02*
X030573D01*
X030514Y024929D02*
Y025047D01*
X030752Y024988D02*
X03087D01*
X030811Y024929D02*
Y025047D01*
X030752Y02445D02*
X03087D01*
X030811Y024391D02*
Y024509D01*
X030752Y024715D02*
X03087D01*
X030811Y024655D02*
Y024774D01*
X030455Y024715D02*
X030573D01*
X030514Y024655D02*
Y024774D01*
X030455Y023907D02*
X030573D01*
X030514Y023848D02*
Y023966D01*
X030455Y024172D02*
X030573D01*
X030514Y024112D02*
Y024231D01*
X030752Y024172D02*
X03087D01*
X030811Y024112D02*
Y024231D01*
X030752Y023618D02*
X03087D01*
X030811Y023558D02*
Y023677D01*
X030752Y023907D02*
X03087D01*
X030811Y023848D02*
Y023966D01*
X030455Y023618D02*
X030573D01*
X030514Y023558D02*
Y023677D01*
X030752Y023286D02*
X03087D01*
X030811Y023227D02*
Y023345D01*
X030455Y023286D02*
X030573D01*
X030514Y023227D02*
Y023345D01*
X029864Y02445D02*
X029982D01*
X029923Y024391D02*
Y024509D01*
X029864Y024988D02*
X029982D01*
X029923Y024929D02*
Y025047D01*
X030162Y024988D02*
X03028D01*
X030221Y024929D02*
Y025047D01*
X030162Y024715D02*
X03028D01*
X030221Y024655D02*
Y024774D01*
X029864Y024715D02*
X029982D01*
X029923Y024655D02*
Y024774D01*
X029864Y023907D02*
X029982D01*
X029923Y023848D02*
Y023966D01*
X030162Y023618D02*
X03028D01*
X030221Y023558D02*
Y023677D01*
X030162Y023907D02*
X03028D01*
X030221Y023848D02*
Y023966D01*
X029864Y023618D02*
X029982D01*
X029923Y023558D02*
Y023677D01*
X030162Y023286D02*
X03028D01*
X030221Y023227D02*
Y023345D01*
X029864Y023286D02*
X029982D01*
X029923Y023227D02*
Y023345D01*
X030162Y02524D02*
X03028D01*
X030221Y025181D02*
Y025299D01*
X030398Y025484D02*
X030516D01*
X030457Y025425D02*
Y025543D01*
X031621Y023277D02*
X031739D01*
X03168Y023218D02*
Y023336D01*
X031621Y023898D02*
X031739D01*
X03168Y023839D02*
Y023957D01*
X031621Y023609D02*
X031739D01*
X03168Y02355D02*
Y023668D01*
X031621Y024163D02*
X031739D01*
X03168Y024104D02*
Y024222D01*
X031621Y024706D02*
X031739D01*
X03168Y024647D02*
Y024765D01*
X031621Y024979D02*
X031739D01*
X03168Y02492D02*
Y025038D01*
X031621Y024441D02*
X031739D01*
X03168Y024382D02*
Y0245D01*
X031621Y02524D02*
X031739D01*
X03168Y025181D02*
Y025299D01*
X031621Y025484D02*
X031739D01*
X03168Y025425D02*
Y025543D01*
X020827Y010634D02*
X020945D01*
X020886Y010575D02*
Y010693D01*
X020445Y010634D02*
X020563D01*
X020504Y010575D02*
Y010693D01*
X021327Y010634D02*
X021445D01*
X021386Y010575D02*
Y010693D01*
X032192Y021845D02*
X03231D01*
X032251Y021786D02*
Y021904D01*
X031952Y021588D02*
X03207D01*
X032011Y021529D02*
Y021647D01*
X032192Y021582D02*
X03231D01*
X032251Y021523D02*
Y021641D01*
X031693Y021354D02*
X031811D01*
X031752Y021295D02*
Y021413D01*
X031937Y021346D02*
X032055D01*
X031996Y021287D02*
Y021406D01*
X032189Y02134D02*
X032307D01*
X032248Y021281D02*
Y021399D01*
X031453Y021106D02*
X031571D01*
X031512Y021047D02*
Y021165D01*
X031697Y021098D02*
X031815D01*
X031756Y021039D02*
Y021157D01*
X031949Y021092D02*
X032067D01*
X032008Y021033D02*
Y021151D01*
X032189Y021087D02*
X032307D01*
X032248Y021028D02*
Y021146D01*
X032188Y016304D02*
X032306D01*
X032247Y016245D02*
Y016363D01*
X032188Y016925D02*
X032306D01*
X032247Y016866D02*
Y016984D01*
X032188Y016636D02*
X032306D01*
X032247Y016577D02*
Y016695D01*
X032188Y01719D02*
X032306D01*
X032247Y017131D02*
Y017249D01*
X032188Y017694D02*
X032306D01*
X032247Y017635D02*
Y017753D01*
X032188Y017429D02*
X032306D01*
X032247Y01737D02*
Y017488D01*
X032188Y018861D02*
X032306D01*
X032247Y018802D02*
Y01892D01*
X032188Y018588D02*
X032306D01*
X032247Y018529D02*
Y018647D01*
X032188Y017967D02*
X032306D01*
X032247Y017908D02*
Y018026D01*
X032188Y019178D02*
X032306D01*
X032247Y019119D02*
Y019237D01*
X032188Y019799D02*
X032306D01*
X032247Y01974D02*
Y019858D01*
X032188Y01951D02*
X032306D01*
X032247Y019451D02*
Y019569D01*
X032188Y020064D02*
X032306D01*
X032247Y020005D02*
Y020123D01*
X032188Y018299D02*
X032306D01*
X032247Y01824D02*
Y018358D01*
X032188Y0203D02*
X032306D01*
X032247Y020241D02*
Y020359D01*
X032188Y020557D02*
X032307D01*
X032248Y020498D02*
Y020616D01*
X032181Y020835D02*
X032299D01*
X03224Y020776D02*
Y020894D01*
X031948Y01631D02*
X032066D01*
X032007Y016251D02*
Y016369D01*
X031948Y016931D02*
X032066D01*
X032007Y016872D02*
Y01699D01*
X031948Y016642D02*
X032066D01*
X032007Y016582D02*
Y016701D01*
X031948Y017196D02*
X032066D01*
X032007Y017136D02*
Y017255D01*
X031948Y017699D02*
X032066D01*
X032007Y01764D02*
Y017758D01*
X031948Y017434D02*
X032066D01*
X032007Y017375D02*
Y017493D01*
X031948Y018866D02*
X032066D01*
X032007Y018807D02*
Y018925D01*
X031948Y018593D02*
X032066D01*
X032007Y018534D02*
Y018652D01*
X031948Y017973D02*
X032066D01*
X032007Y017913D02*
Y018032D01*
X031948Y019184D02*
X032066D01*
X032007Y019125D02*
Y019243D01*
X031948Y019805D02*
X032066D01*
X032007Y019746D02*
Y019864D01*
X031948Y019516D02*
X032066D01*
X032007Y019456D02*
Y019575D01*
X031948Y02007D02*
X032066D01*
X032007Y02001D02*
Y020129D01*
X031948Y018304D02*
X032066D01*
X032007Y018245D02*
Y018363D01*
X031948Y020306D02*
X032066D01*
X032007Y020247D02*
Y020365D01*
X031948Y020563D02*
X032066D01*
X032007Y020504D02*
Y020622D01*
X031941Y02084D02*
X032059D01*
X032Y020781D02*
Y020899D01*
X031696Y016316D02*
X031814D01*
X031755Y016257D02*
Y016375D01*
X031696Y016937D02*
X031814D01*
X031755Y016878D02*
Y016996D01*
X031696Y016648D02*
X031814D01*
X031755Y016589D02*
Y016707D01*
X031696Y017202D02*
X031814D01*
X031755Y017143D02*
Y017261D01*
X031696Y017705D02*
X031814D01*
X031755Y017646D02*
Y017764D01*
X031696Y017441D02*
X031814D01*
X031755Y017382D02*
Y0175D01*
X031696Y018873D02*
X031814D01*
X031755Y018814D02*
Y018932D01*
X031696Y0186D02*
X031814D01*
X031755Y018541D02*
Y018659D01*
X031696Y017979D02*
X031814D01*
X031755Y01792D02*
Y018038D01*
X031696Y01919D02*
X031814D01*
X031755Y019131D02*
Y019249D01*
X031696Y019811D02*
X031814D01*
X031755Y019752D02*
Y01987D01*
X031696Y019522D02*
X031814D01*
X031755Y019463D02*
Y019581D01*
X031696Y020076D02*
X031814D01*
X031755Y020017D02*
Y020135D01*
X031696Y01831D02*
X031814D01*
X031755Y018251D02*
Y018369D01*
X031696Y020312D02*
X031814D01*
X031755Y020253D02*
Y020371D01*
X031696Y020569D02*
X031814D01*
X031755Y02051D02*
Y020628D01*
X031689Y020846D02*
X031807D01*
X031748Y020787D02*
Y020906D01*
X031452Y016324D02*
X03157D01*
X031511Y016265D02*
Y016383D01*
X031452Y016945D02*
X03157D01*
X031511Y016886D02*
Y017004D01*
X031452Y016656D02*
X03157D01*
X031511Y016597D02*
Y016715D01*
X031452Y01721D02*
X03157D01*
X031511Y017151D02*
Y017269D01*
X031452Y017713D02*
X03157D01*
X031511Y017654D02*
Y017772D01*
X031452Y017449D02*
X03157D01*
X031511Y01739D02*
Y017508D01*
X031452Y018881D02*
X03157D01*
X031511Y018821D02*
Y01894D01*
X031452Y018608D02*
X03157D01*
X031511Y018549D02*
Y018667D01*
X031452Y017987D02*
X03157D01*
X031511Y017928D02*
Y018046D01*
X031452Y019198D02*
X03157D01*
X031511Y019139D02*
Y019257D01*
X031452Y019819D02*
X03157D01*
X031511Y01976D02*
Y019878D01*
X031452Y01953D02*
X03157D01*
X031511Y019471D02*
Y019589D01*
X031452Y020084D02*
X03157D01*
X031511Y020025D02*
Y020143D01*
X031452Y018318D02*
X03157D01*
X031511Y018259D02*
Y018377D01*
X031452Y02032D02*
X03157D01*
X031511Y020261D02*
Y020379D01*
X031452Y020577D02*
X03157D01*
X031511Y020518D02*
Y020636D01*
X031445Y020854D02*
X031563D01*
X031504Y020795D02*
Y020913D01*
X031188Y016316D02*
X031306D01*
X031247Y016257D02*
Y016375D01*
X031188Y016937D02*
X031306D01*
X031247Y016878D02*
Y016996D01*
X031188Y016648D02*
X031306D01*
X031247Y016589D02*
Y016707D01*
X031188Y017202D02*
X031306D01*
X031247Y017143D02*
Y017261D01*
X031188Y017705D02*
X031306D01*
X031247Y017646D02*
Y017764D01*
X031188Y017441D02*
X031306D01*
X031247Y017382D02*
Y0175D01*
X031188Y018873D02*
X031306D01*
X031247Y018814D02*
Y018932D01*
X031188Y0186D02*
X031306D01*
X031247Y018541D02*
Y018659D01*
X031188Y017979D02*
X031306D01*
X031247Y01792D02*
Y018038D01*
X031188Y01919D02*
X031306D01*
X031247Y019131D02*
Y019249D01*
X031188Y019811D02*
X031306D01*
X031247Y019752D02*
Y01987D01*
X031188Y019522D02*
X031306D01*
X031247Y019463D02*
Y019581D01*
X031188Y020076D02*
X031306D01*
X031247Y020017D02*
Y020135D01*
X031188Y01831D02*
X031306D01*
X031247Y018251D02*
Y018369D01*
X031188Y020312D02*
X031306D01*
X031247Y020253D02*
Y020371D01*
X031188Y020569D02*
X031307D01*
X031248Y02051D02*
Y020628D01*
X031181Y020846D02*
X031299D01*
X03124Y020787D02*
Y020906D01*
X033535Y021567D02*
X033653D01*
X033594Y021508D02*
Y021626D01*
X03376Y021803D02*
X033878D01*
X033819Y021744D02*
Y021862D01*
X033307Y02135D02*
X033425D01*
X033366Y021291D02*
Y021409D01*
X034001Y021788D02*
X034119D01*
X03406Y021729D02*
Y021847D01*
X033586Y021312D02*
X033704D01*
X033645Y021253D02*
Y021371D01*
X033811Y021548D02*
X033929D01*
X03387Y021489D02*
Y021607D01*
X033307Y021094D02*
X033425D01*
X033366Y021035D02*
Y021153D01*
X033989Y021374D02*
X034107D01*
X034048Y021315D02*
Y021433D01*
X034226Y021571D02*
X034344D01*
X034285Y021512D02*
Y02163D01*
X034422Y021768D02*
X034541D01*
X034482Y021709D02*
Y021827D01*
X033586Y020898D02*
X033704D01*
X033645Y020838D02*
Y020957D01*
X0338Y021134D02*
X033918D01*
X033859Y021075D02*
Y021193D01*
X033307Y02068D02*
X033425D01*
X033366Y020621D02*
Y020739D01*
X033971Y020936D02*
X034089D01*
X03403Y020876D02*
Y020995D01*
X034208Y021132D02*
X034326D01*
X034267Y021073D02*
Y021191D01*
X034652Y021587D02*
X03477D01*
X034711Y021528D02*
Y021646D01*
X034889Y021815D02*
X035007D01*
X034948Y021756D02*
Y021874D01*
X034404Y021329D02*
X034523D01*
X034463Y02127D02*
Y021388D01*
X033566Y020459D02*
X033684D01*
X033625Y0204D02*
Y020518D01*
X033782Y020695D02*
X0339D01*
X033841Y020636D02*
Y020754D01*
X033307Y020242D02*
X033425D01*
X033366Y020182D02*
Y020301D01*
X033956Y020482D02*
X034074D01*
X034015Y020422D02*
Y020541D01*
X034192Y020678D02*
X03431D01*
X034251Y020619D02*
Y020737D01*
X034637Y021133D02*
X034755D01*
X034696Y021074D02*
Y021192D01*
X034874Y021361D02*
X034992D01*
X034933Y021302D02*
Y02142D01*
X034389Y020875D02*
X034507D01*
X034448Y020816D02*
Y020934D01*
X035093Y021572D02*
X035212D01*
X035153Y021513D02*
Y021631D01*
X035294Y021781D02*
X035413D01*
X035353Y021722D02*
Y02184D01*
X033566Y020005D02*
X033684D01*
X033625Y019946D02*
Y020064D01*
X033766Y020241D02*
X033885D01*
X033825Y020182D02*
Y0203D01*
X033307Y019788D02*
X033425D01*
X033366Y019729D02*
Y019847D01*
X033307Y019345D02*
X033425D01*
X033366Y019286D02*
Y019404D01*
X034014Y019306D02*
X034132D01*
X034073Y019247D02*
Y019365D01*
X033566Y0193D02*
X033684D01*
X033625Y019241D02*
Y019359D01*
X035256Y019291D02*
X035374D01*
X035315Y019232D02*
Y01935D01*
X034802Y019259D02*
X03492D01*
X034861Y0192D02*
Y019318D01*
X034289Y019188D02*
X034408D01*
X034348Y019129D02*
Y019247D01*
X033937Y020039D02*
X034055D01*
X033996Y01998D02*
Y020098D01*
X033307Y019048D02*
X033425D01*
X033366Y018989D02*
Y019107D01*
X033748Y019799D02*
X033866D01*
X033807Y01974D02*
Y019858D01*
X033566Y019563D02*
X033684D01*
X033625Y019504D02*
Y019622D01*
X036145Y021829D02*
X036263D01*
X036204Y02177D02*
Y021888D01*
X035977Y021646D02*
X036095D01*
X036036Y021587D02*
Y021705D01*
X036574Y021818D02*
X036693D01*
X036634Y021758D02*
Y021877D01*
X036398Y021634D02*
X036516D01*
X036457Y021575D02*
Y021693D01*
X035709Y021818D02*
X035827D01*
X035768Y021759D02*
Y021877D01*
X035512Y021621D02*
X03563D01*
X035571Y021562D02*
Y02168D01*
X035276Y021339D02*
X035394D01*
X035335Y02128D02*
Y021398D01*
X035075Y02113D02*
X035193D01*
X035134Y02107D02*
Y021189D01*
X03437Y020433D02*
X034488D01*
X034429Y020374D02*
Y020492D01*
X034855Y020919D02*
X034973D01*
X034914Y02086D02*
Y020978D01*
X034618Y020691D02*
X034736D01*
X034677Y020632D02*
Y02075D01*
X034173Y020236D02*
X034291D01*
X034232Y020177D02*
Y020295D01*
X035807Y021457D02*
X035925D01*
X035866Y021398D02*
Y021516D01*
X035606Y021248D02*
X035724D01*
X035665Y021189D02*
Y021307D01*
X034902Y020551D02*
X03502D01*
X034961Y020492D02*
Y02061D01*
X035386Y021037D02*
X035504D01*
X035445Y020978D02*
Y021096D01*
X035149Y020809D02*
X035268D01*
X035208Y02075D02*
Y020868D01*
X034705Y020354D02*
X034823D01*
X034764Y020295D02*
Y020413D01*
X034469Y020157D02*
X034587D01*
X034528Y020098D02*
Y020217D01*
X03624Y021457D02*
X036358D01*
X036299Y021398D02*
Y021516D01*
X036039Y021248D02*
X036157D01*
X036098Y021189D02*
Y021307D01*
X035335Y020551D02*
X035453D01*
X035394Y020492D02*
Y02061D01*
X035819Y021037D02*
X035937D01*
X035878Y020978D02*
Y021096D01*
X035583Y020809D02*
X035701D01*
X035642Y02075D02*
Y020868D01*
X035138Y020354D02*
X035256D01*
X035197Y020295D02*
Y020413D01*
X034902Y020157D02*
X03502D01*
X034961Y020098D02*
Y020217D01*
X036949Y021818D02*
X037067D01*
X037008Y021759D02*
Y021877D01*
X036752Y021621D02*
X03687D01*
X036811Y021562D02*
Y02168D01*
X036516Y021339D02*
X036634D01*
X036575Y02128D02*
Y021398D01*
X036315Y02113D02*
X036433D01*
X036374Y02107D02*
Y021189D01*
X03561Y020433D02*
X035728D01*
X035669Y020374D02*
Y020492D01*
X036095Y020919D02*
X036213D01*
X036154Y02086D02*
Y020978D01*
X035858Y020691D02*
X035976D01*
X035917Y020632D02*
Y02075D01*
X035413Y020236D02*
X035531D01*
X035472Y020177D02*
Y020295D01*
X035177Y020039D02*
X035295D01*
X035236Y01998D02*
Y020098D01*
X037421Y021818D02*
X037539D01*
X03748Y021759D02*
Y021877D01*
X037224Y021621D02*
X037343D01*
X037283Y021562D02*
Y02168D01*
X037028Y021417D02*
X037146D01*
X037087Y021358D02*
Y021476D01*
X036791Y021181D02*
X036909D01*
X03685Y021122D02*
Y02124D01*
X03659Y020972D02*
X036708D01*
X036649Y020913D02*
Y021031D01*
X035886Y020276D02*
X036004D01*
X035945Y020217D02*
Y020335D01*
X03637Y020762D02*
X036489D01*
X03643Y020703D02*
Y020821D01*
X036134Y020533D02*
X036252D01*
X036193Y020474D02*
Y020592D01*
X035689Y020079D02*
X035807D01*
X035748Y02002D02*
Y020138D01*
X035453Y019882D02*
X035571D01*
X035512Y019823D02*
Y019941D01*
X042224Y028777D02*
X042343D01*
X042284Y028718D02*
Y028836D01*
X04246Y028777D02*
X042578D01*
X042519Y028718D02*
Y028836D01*
X041308Y028512D02*
X041427D01*
X041368Y028453D02*
Y028571D01*
X041544Y028512D02*
X041662D01*
X041603Y028453D02*
Y028571D01*
X041763Y028512D02*
X041881D01*
X041822Y028453D02*
Y028571D01*
X041999Y028512D02*
X042117D01*
X042058Y028453D02*
Y028571D01*
X041308Y028777D02*
X041427D01*
X041368Y028718D02*
Y028836D01*
X041544Y028777D02*
X041662D01*
X041603Y028718D02*
Y028836D01*
X041763Y028777D02*
X041881D01*
X041822Y028718D02*
Y028836D01*
X041999Y028777D02*
X042117D01*
X042058Y028718D02*
Y028836D01*
X045266Y026283D02*
X045385D01*
X045325Y026224D02*
Y026342D01*
X045023Y026754D02*
X045141D01*
X045082Y026695D02*
Y026813D01*
X045023Y026518D02*
X045141D01*
X045082Y026459D02*
Y026577D01*
X045023Y026299D02*
X045141D01*
X045082Y02624D02*
Y026358D01*
X044799Y026987D02*
X044917D01*
X044858Y026928D02*
Y027046D01*
X044799Y026751D02*
X044917D01*
X044858Y026692D02*
Y026811D01*
X044799Y026532D02*
X044917D01*
X044858Y026473D02*
Y026591D01*
X044799Y026305D02*
X044917D01*
X044858Y026246D02*
Y026364D01*
X043556Y02654D02*
X043674D01*
X043615Y026481D02*
Y026599D01*
X0438Y026305D02*
X043918D01*
X043859Y026246D02*
Y026364D01*
X044049Y026305D02*
X044167D01*
X044108Y026246D02*
Y026364D01*
X044543Y026305D02*
X044661D01*
X044602Y026246D02*
Y026364D01*
X043556Y026305D02*
X043674D01*
X043615Y026246D02*
Y026364D01*
X044294Y026305D02*
X044412D01*
X044353Y026246D02*
Y026364D01*
X044294Y02654D02*
X044412D01*
X044353Y026481D02*
Y026599D01*
X044543Y02654D02*
X044661D01*
X044602Y026481D02*
Y026599D01*
X0438Y02654D02*
X043918D01*
X043859Y026481D02*
Y026599D01*
X043306Y02654D02*
X043425D01*
X043366Y026481D02*
Y026599D01*
X044049Y02654D02*
X044167D01*
X044108Y026481D02*
Y026599D01*
X043556Y026995D02*
X043674D01*
X043615Y026936D02*
Y027054D01*
X0438Y02676D02*
X043918D01*
X043859Y026701D02*
Y026819D01*
X044049Y02676D02*
X044167D01*
X044108Y026701D02*
Y026819D01*
X044543Y02676D02*
X044661D01*
X044602Y026701D02*
Y026819D01*
X043556Y02676D02*
X043674D01*
X043615Y026701D02*
Y026819D01*
X044294Y02676D02*
X044412D01*
X044353Y026701D02*
Y026819D01*
X043306Y02676D02*
X043425D01*
X043366Y026701D02*
Y026819D01*
X044294Y026995D02*
X044412D01*
X044353Y026936D02*
Y027054D01*
X044543Y026995D02*
X044661D01*
X044602Y026936D02*
Y027054D01*
X0438Y026995D02*
X043918D01*
X043859Y026936D02*
Y027054D01*
X043306Y026995D02*
X043425D01*
X043366Y026936D02*
Y027054D01*
X044049Y026995D02*
X044167D01*
X044108Y026936D02*
Y027054D01*
X047867Y029179D02*
X047985D01*
X047926Y02912D02*
Y029238D01*
X047867Y02945D02*
X047985D01*
X047926Y029391D02*
Y02951D01*
X047867Y02974D02*
X047985D01*
X047926Y029681D02*
Y029799D01*
X040455Y026752D02*
X040573D01*
X040514Y026693D02*
Y026811D01*
X040455Y025573D02*
X040573D01*
X040514Y025514D02*
Y025632D01*
X040455Y0253D02*
X040573D01*
X040514Y025241D02*
Y025359D01*
X040455Y02589D02*
X040573D01*
X040514Y025831D02*
Y025949D01*
X040455Y026487D02*
X040573D01*
X040514Y026428D02*
Y026546D01*
X040455Y026222D02*
X040573D01*
X040514Y026163D02*
Y026281D01*
X040455Y02501D02*
X040573D01*
X040514Y024951D02*
Y025069D01*
X040779Y026752D02*
X040898D01*
X040839Y026693D02*
Y026811D01*
X040779Y025573D02*
X040898D01*
X040839Y025514D02*
Y025632D01*
X040779Y0253D02*
X040898D01*
X040839Y025241D02*
Y025359D01*
X040779Y02589D02*
X040898D01*
X040839Y025831D02*
Y025949D01*
X040779Y026487D02*
X040898D01*
X040839Y026428D02*
Y026546D01*
X040779Y026222D02*
X040898D01*
X040839Y026163D02*
Y026281D01*
X040779Y02501D02*
X040898D01*
X040839Y024951D02*
Y025069D01*
X046056Y037289D02*
X046174D01*
X046115Y03723D02*
Y037348D01*
X046056Y03701D02*
X046174D01*
X046115Y036951D02*
Y037069D01*
X045799Y035107D02*
X045917D01*
X045858Y035048D02*
Y035166D01*
X045794Y035381D02*
X045912D01*
X045853Y035322D02*
Y03544D01*
X045551Y035107D02*
X045669D01*
X04561Y035048D02*
Y035166D01*
X04799Y035371D02*
X048109D01*
X048049Y035312D02*
Y03543D01*
X047995Y035098D02*
X048114D01*
X048054Y035039D02*
Y035157D01*
X047184Y03538D02*
X047302D01*
X047243Y035321D02*
Y035439D01*
X046303Y03538D02*
X046422D01*
X046362Y035321D02*
Y035439D01*
X046039Y03538D02*
X046157D01*
X046098Y035321D02*
Y035439D01*
X04686Y03538D02*
X046978D01*
X046919Y035321D02*
Y035439D01*
X046567Y03538D02*
X046685D01*
X046626Y035321D02*
Y035439D01*
X045551Y03538D02*
X045669D01*
X04561Y035321D02*
Y035439D01*
X047461Y03538D02*
X047579D01*
X04752Y035321D02*
Y035439D01*
X047739Y035106D02*
X047857D01*
X047798Y035047D02*
Y035165D01*
X047734Y03538D02*
X047852D01*
X047793Y035321D02*
Y035439D01*
X047855Y036263D02*
X047973D01*
X047914Y036204D02*
Y036322D01*
X047591Y036263D02*
X047709D01*
X04765Y036204D02*
Y036322D01*
X047591Y035985D02*
X047709D01*
X04765Y035925D02*
Y036044D01*
X047855Y035985D02*
X047973D01*
X047914Y035925D02*
Y036044D01*
X047935Y037283D02*
X048053D01*
X047994Y037224D02*
Y037343D01*
X047671Y037283D02*
X047789D01*
X04773Y037224D02*
Y037343D01*
X047671Y037005D02*
X047789D01*
X04773Y036946D02*
Y037064D01*
X047935Y037005D02*
X048053D01*
X047994Y036946D02*
Y037064D01*
X043602Y03666D02*
X04372D01*
X043661Y036601D02*
Y036719D01*
X04327Y03666D02*
X043388D01*
X043329Y036601D02*
Y036719D01*
X044156Y03666D02*
X044274D01*
X044215Y036601D02*
Y036719D01*
X042959Y03666D02*
X043077D01*
X043018Y036601D02*
Y036719D01*
X043891Y03666D02*
X044009D01*
X04395Y036601D02*
Y036719D01*
X044494Y03666D02*
X044612D01*
X044553Y036601D02*
Y036719D01*
X044561Y036896D02*
X04468D01*
X04462Y036837D02*
Y036955D01*
X043575Y036896D02*
X043693D01*
X043634Y036837D02*
Y036955D01*
X043907Y036896D02*
X044025D01*
X043966Y036837D02*
Y036955D01*
X044272Y036896D02*
X04439D01*
X044331Y036837D02*
Y036955D01*
X042976Y036898D02*
X043094D01*
X043035Y036839D02*
Y036957D01*
X043264Y036896D02*
X043382D01*
X043323Y036837D02*
Y036955D01*
X043982Y036443D02*
X0441D01*
X044041Y036384D02*
Y036502D01*
X044271Y036443D02*
X044389D01*
X04433Y036384D02*
Y036502D01*
X042973Y036443D02*
X043091D01*
X043032Y036384D02*
Y036502D01*
X042685Y036445D02*
X042803D01*
X042744Y036386D02*
Y036504D01*
X043616Y036443D02*
X043734D01*
X043675Y036384D02*
Y036502D01*
X043285Y036443D02*
X043403D01*
X043344Y036384D02*
Y036502D01*
X044012Y03618D02*
X044131D01*
X044072Y036121D02*
Y036239D01*
X043026Y03618D02*
X043144D01*
X043085Y036121D02*
Y036239D01*
X043358Y03618D02*
X043476D01*
X043417Y036121D02*
Y036239D01*
X043723Y03618D02*
X043841D01*
X043782Y036121D02*
Y036239D01*
X042427Y036182D02*
X042545D01*
X042486Y036123D02*
Y036241D01*
X042715Y03618D02*
X042833D01*
X042774Y036121D02*
Y036239D01*
X044575Y038031D02*
X044693D01*
X044634Y037972D02*
Y03809D01*
X044575Y038266D02*
X044693D01*
X044634Y038207D02*
Y038325D01*
X044575Y038503D02*
X044693D01*
X044634Y038444D02*
Y038562D01*
X044575Y038734D02*
X044693D01*
X044634Y038674D02*
Y038793D01*
X044542Y038973D02*
X044661D01*
X044601Y038914D02*
Y039032D01*
X044542Y039208D02*
X044661D01*
X044601Y039149D02*
Y039267D01*
X044283Y039208D02*
X044401D01*
X044342Y039149D02*
Y039267D01*
X043473Y039208D02*
X043591D01*
X043532Y039149D02*
Y039267D01*
X043762Y039208D02*
X04388D01*
X043821Y039149D02*
Y039267D01*
X044027Y039208D02*
X044145D01*
X044086Y039149D02*
Y039267D01*
X043141Y039208D02*
X043259D01*
X0432Y039149D02*
Y039267D01*
X046285Y039208D02*
X046403D01*
X046344Y039149D02*
Y039267D01*
X047171Y039208D02*
X047289D01*
X04723Y039149D02*
Y039267D01*
X046906Y039208D02*
X047024D01*
X046965Y039149D02*
Y039267D01*
X046617Y039208D02*
X046735D01*
X046676Y039149D02*
Y039267D01*
X045965Y039208D02*
X046083D01*
X046024Y039149D02*
Y039267D01*
X045125Y039208D02*
X045243D01*
X045184Y039149D02*
Y039267D01*
X045414Y039208D02*
X045532D01*
X045473Y039149D02*
Y039267D01*
X044793Y039208D02*
X044911D01*
X044852Y039149D02*
Y039267D01*
X045679Y039208D02*
X045797D01*
X045738Y039149D02*
Y039267D01*
X047426Y039208D02*
X047544D01*
X047485Y039149D02*
Y039267D01*
X047937Y039208D02*
X048055D01*
X047996Y039149D02*
Y039267D01*
X047686Y039208D02*
X047804D01*
X047745Y039149D02*
Y039267D01*
X046285Y038973D02*
X046403D01*
X046344Y038914D02*
Y039032D01*
X047171Y038973D02*
X047289D01*
X04723Y038914D02*
Y039032D01*
X046906Y038973D02*
X047024D01*
X046965Y038914D02*
Y039032D01*
X046617Y038973D02*
X046735D01*
X046676Y038914D02*
Y039032D01*
X045965Y038973D02*
X046083D01*
X046024Y038914D02*
Y039032D01*
X045125Y038973D02*
X045243D01*
X045184Y038914D02*
Y039032D01*
X045414Y038973D02*
X045532D01*
X045473Y038914D02*
Y039032D01*
X044793Y038973D02*
X044911D01*
X044852Y038914D02*
Y039032D01*
X045679Y038973D02*
X045797D01*
X045738Y038914D02*
Y039032D01*
X047426Y038973D02*
X047544D01*
X047485Y038914D02*
Y039032D01*
X047937Y038973D02*
X048055D01*
X047996Y038914D02*
Y039032D01*
X047686Y038973D02*
X047804D01*
X047745Y038914D02*
Y039032D01*
X046285Y038735D02*
X046403D01*
X046344Y038676D02*
Y038794D01*
X047171Y038735D02*
X047289D01*
X04723Y038676D02*
Y038794D01*
X046906Y038735D02*
X047024D01*
X046965Y038676D02*
Y038794D01*
X046617Y038735D02*
X046735D01*
X046676Y038676D02*
Y038794D01*
X045965Y038735D02*
X046083D01*
X046024Y038676D02*
Y038794D01*
X045125Y038735D02*
X045243D01*
X045184Y038676D02*
Y038794D01*
X045414Y038735D02*
X045532D01*
X045473Y038676D02*
Y038794D01*
X044793Y038735D02*
X044911D01*
X044852Y038676D02*
Y038794D01*
X045679Y038735D02*
X045797D01*
X045738Y038676D02*
Y038794D01*
X047426Y038735D02*
X047544D01*
X047485Y038676D02*
Y038794D01*
X047937Y038735D02*
X048055D01*
X047996Y038676D02*
Y038794D01*
X047686Y038735D02*
X047804D01*
X047745Y038676D02*
Y038794D01*
X046285Y038504D02*
X046403D01*
X046344Y038445D02*
Y038563D01*
X047171Y038504D02*
X047289D01*
X04723Y038445D02*
Y038563D01*
X046906Y038504D02*
X047024D01*
X046965Y038445D02*
Y038563D01*
X046617Y038504D02*
X046735D01*
X046676Y038445D02*
Y038563D01*
X045965Y038504D02*
X046083D01*
X046024Y038445D02*
Y038563D01*
X045125Y038504D02*
X045243D01*
X045184Y038445D02*
Y038563D01*
X045414Y038504D02*
X045532D01*
X045473Y038445D02*
Y038563D01*
X044793Y038504D02*
X044911D01*
X044852Y038445D02*
Y038563D01*
X045679Y038504D02*
X045797D01*
X045738Y038445D02*
Y038563D01*
X047426Y038504D02*
X047544D01*
X047485Y038445D02*
Y038563D01*
X047937Y038504D02*
X048055D01*
X047996Y038445D02*
Y038563D01*
X047686Y038504D02*
X047804D01*
X047745Y038445D02*
Y038563D01*
X047426Y038033D02*
X047544D01*
X047485Y037974D02*
Y038092D01*
X047686Y038033D02*
X047804D01*
X047745Y037974D02*
Y038092D01*
X047686Y038268D02*
X047804D01*
X047745Y038209D02*
Y038327D01*
X047937Y038268D02*
X048055D01*
X047996Y038209D02*
Y038327D01*
X02498Y031961D02*
X025098D01*
X025039Y031902D02*
Y03202D01*
X02498Y031693D02*
X025098D01*
X025039Y031634D02*
Y031752D01*
X025518Y031693D02*
X025637D01*
X025577Y031634D02*
Y031752D01*
X025254Y031693D02*
X025372D01*
X025313Y031634D02*
Y031752D01*
X025797Y031693D02*
X025915D01*
X025856Y031634D02*
Y031752D01*
X02302Y031689D02*
X023138D01*
X023079Y03163D02*
Y031748D01*
X023558Y031689D02*
X023676D01*
X023617Y03163D02*
Y031748D01*
X023293Y031689D02*
X023411D01*
X023352Y03163D02*
Y031748D01*
X023836Y031689D02*
X023954D01*
X023895Y03163D02*
Y031748D01*
X02439Y031689D02*
X024508D01*
X024449Y03163D02*
Y031748D01*
X024101Y031689D02*
X024219D01*
X02416Y03163D02*
Y031748D01*
X024722Y031689D02*
X02484D01*
X024781Y03163D02*
Y031748D01*
X025518Y031961D02*
X025637D01*
X025577Y031902D02*
Y03202D01*
X025254Y031961D02*
X025372D01*
X025313Y031902D02*
Y03202D01*
X025797Y031961D02*
X025915D01*
X025856Y031902D02*
Y03202D01*
X023024Y031957D02*
X023142D01*
X023083Y031898D02*
Y032016D01*
X023562Y031957D02*
X02368D01*
X023621Y031898D02*
Y032016D01*
X023297Y031957D02*
X023415D01*
X023356Y031898D02*
Y032016D01*
X02384Y031957D02*
X023958D01*
X023899Y031898D02*
Y032016D01*
X024394Y031957D02*
X024512D01*
X024453Y031898D02*
Y032016D01*
X024105Y031957D02*
X024223D01*
X024164Y031898D02*
Y032016D01*
X024722Y031957D02*
X02484D01*
X024781Y031898D02*
Y032016D01*
X02498Y032213D02*
X025098D01*
X025039Y032154D02*
Y032272D01*
X025518Y032213D02*
X025637D01*
X025577Y032154D02*
Y032272D01*
X025254Y032213D02*
X025372D01*
X025313Y032154D02*
Y032272D01*
X025797Y032213D02*
X025915D01*
X025856Y032154D02*
Y032272D01*
X023039Y032209D02*
X023157D01*
X023098Y03215D02*
Y032268D01*
X023577Y032209D02*
X023696D01*
X023637Y03215D02*
Y032268D01*
X023313Y032209D02*
X023431D01*
X023372Y03215D02*
Y032268D01*
X023856Y032209D02*
X023974D01*
X023915Y03215D02*
Y032268D01*
X02441Y032209D02*
X024528D01*
X024469Y03215D02*
Y032268D01*
X02412Y032209D02*
X024239D01*
X024179Y03215D02*
Y032268D01*
X024722Y032209D02*
X02484D01*
X024781Y03215D02*
Y032268D01*
X023035Y031445D02*
X023154D01*
X023094Y031386D02*
Y031504D01*
X023248Y029618D02*
X023366D01*
X023307Y029559D02*
Y029677D01*
X023248Y030239D02*
X023366D01*
X023307Y03018D02*
Y030298D01*
X023248Y02995D02*
X023366D01*
X023307Y029891D02*
Y030009D01*
X023248Y030504D02*
X023366D01*
X023307Y030445D02*
Y030563D01*
X023248Y031047D02*
X023366D01*
X023307Y030988D02*
Y031106D01*
X023248Y030782D02*
X023366D01*
X023307Y030723D02*
Y030841D01*
X023248Y03132D02*
X023366D01*
X023307Y031261D02*
Y031379D01*
X0235Y029748D02*
X023618D01*
X023559Y029689D02*
Y029807D01*
X0235Y030369D02*
X023618D01*
X023559Y03031D02*
Y030428D01*
X0235Y03008D02*
X023618D01*
X023559Y030021D02*
Y030139D01*
X0235Y030634D02*
X023618D01*
X023559Y030575D02*
Y030693D01*
X0235Y031177D02*
X023618D01*
X023559Y031118D02*
Y031236D01*
X0235Y030912D02*
X023618D01*
X023559Y030853D02*
Y030971D01*
X0235Y03145D02*
X023618D01*
X023559Y031391D02*
Y031509D01*
X023768Y030381D02*
X023886D01*
X023827Y030322D02*
Y03044D01*
X023768Y030092D02*
X023886D01*
X023827Y030033D02*
Y030151D01*
X023768Y030634D02*
X023886D01*
X023827Y030575D02*
Y030693D01*
X023768Y031177D02*
X023886D01*
X023827Y031118D02*
Y031236D01*
X023768Y030912D02*
X023886D01*
X023827Y030853D02*
Y030971D01*
X023768Y03145D02*
X023886D01*
X023827Y031391D02*
Y031509D01*
X023252Y028543D02*
X02337D01*
X023311Y028484D02*
Y028602D01*
X023252Y029086D02*
X02337D01*
X023311Y029027D02*
Y029145D01*
X023252Y028822D02*
X02337D01*
X023311Y028763D02*
Y028881D01*
X023252Y02936D02*
X02337D01*
X023311Y029301D02*
Y029419D01*
X02352Y028369D02*
X023638D01*
X023579Y02831D02*
Y028428D01*
X02352Y028634D02*
X023638D01*
X023579Y028575D02*
Y028693D01*
X02352Y029177D02*
X023638D01*
X023579Y029118D02*
Y029236D01*
X02352Y028912D02*
X023638D01*
X023579Y028853D02*
Y028971D01*
X02352Y02945D02*
X023638D01*
X023579Y029391D02*
Y029509D01*
X024028Y03145D02*
X024146D01*
X024087Y031391D02*
Y031509D01*
X024028Y030912D02*
X024146D01*
X024087Y030853D02*
Y030971D01*
X024028Y031177D02*
X024146D01*
X024087Y031118D02*
Y031236D01*
X024028Y030634D02*
X024146D01*
X024087Y030575D02*
Y030693D01*
X024295Y03145D02*
X024413D01*
X024354Y031391D02*
Y031509D01*
X024295Y030912D02*
X024413D01*
X024354Y030853D02*
Y030971D01*
X024295Y031177D02*
X024413D01*
X024354Y031118D02*
Y031236D01*
X024295Y030634D02*
X024413D01*
X024354Y030575D02*
Y030693D01*
X0232Y017651D02*
X023318D01*
X023259Y017592D02*
Y01771D01*
X0232Y018272D02*
X023318D01*
X023259Y018213D02*
Y018331D01*
X0232Y017983D02*
X023318D01*
X023259Y017924D02*
Y018042D01*
X0232Y018537D02*
X023318D01*
X023259Y018478D02*
Y018596D01*
X0232Y01908D02*
X023318D01*
X023259Y019021D02*
Y019139D01*
X0232Y018815D02*
X023318D01*
X023259Y018756D02*
Y018874D01*
X0232Y019353D02*
X023318D01*
X023259Y019294D02*
Y019412D01*
X023452Y017781D02*
X02357D01*
X023511Y017722D02*
Y01784D01*
X023452Y018402D02*
X02357D01*
X023511Y018343D02*
Y018461D01*
X023452Y018113D02*
X02357D01*
X023511Y018053D02*
Y018172D01*
X023452Y018667D02*
X02357D01*
X023511Y018607D02*
Y018726D01*
X023452Y01921D02*
X02357D01*
X023511Y01915D02*
Y019269D01*
X023452Y018945D02*
X02357D01*
X023511Y018886D02*
Y019004D01*
X023452Y019483D02*
X02357D01*
X023511Y019424D02*
Y019542D01*
X023719Y018667D02*
X023838D01*
X023778Y018607D02*
Y018726D01*
X023719Y01921D02*
X023838D01*
X023778Y01915D02*
Y019269D01*
X023719Y018945D02*
X023838D01*
X023778Y018886D02*
Y019004D01*
X023719Y019483D02*
X023838D01*
X023778Y019424D02*
Y019542D01*
X023204Y017119D02*
X023322D01*
X023263Y01706D02*
Y017178D01*
X023204Y017392D02*
X023322D01*
X023263Y017333D02*
Y017451D01*
X023471Y01721D02*
X023589D01*
X02353Y01715D02*
Y017269D01*
X023471Y016945D02*
X023589D01*
X02353Y016886D02*
Y017004D01*
X023471Y017483D02*
X023589D01*
X02353Y017424D02*
Y017542D01*
X023979Y019483D02*
X024097D01*
X024038Y019424D02*
Y019542D01*
X023979Y018945D02*
X024097D01*
X024038Y018886D02*
Y019004D01*
X023979Y01921D02*
X024097D01*
X024038Y01915D02*
Y019269D01*
X024247Y019483D02*
X024365D01*
X024306Y019424D02*
Y019542D01*
X024247Y018945D02*
X024365D01*
X024306Y018886D02*
Y019004D01*
X024247Y01921D02*
X024365D01*
X024306Y01915D02*
Y019269D01*
X024449Y024569D02*
X024567D01*
X024508Y02451D02*
Y024629D01*
X024449Y025112D02*
X024567D01*
X024508Y025053D02*
Y025171D01*
X024449Y024848D02*
X024567D01*
X024508Y024789D02*
Y024907D01*
X024449Y025386D02*
X024567D01*
X024508Y025327D02*
Y025445D01*
X024181Y024569D02*
X024299D01*
X02424Y02451D02*
Y024629D01*
X024181Y025112D02*
X024299D01*
X02424Y025053D02*
Y025171D01*
X024181Y024848D02*
X024299D01*
X02424Y024789D02*
Y024907D01*
X024181Y025386D02*
X024299D01*
X02424Y025327D02*
Y025445D01*
X023673Y023386D02*
X023791D01*
X023732Y023327D02*
Y023445D01*
X023673Y022848D02*
X023791D01*
X023732Y022789D02*
Y022907D01*
X023673Y023112D02*
X023791D01*
X023732Y023053D02*
Y023172D01*
X023673Y022569D02*
X023791D01*
X023732Y02251D02*
Y022629D01*
X023673Y022305D02*
X023791D01*
X023732Y022246D02*
Y022364D01*
X023406Y023295D02*
X023524D01*
X023465Y023236D02*
Y023354D01*
X023406Y022757D02*
X023524D01*
X023465Y022698D02*
Y022816D01*
X023406Y023022D02*
X023524D01*
X023465Y022963D02*
Y023081D01*
X023406Y022479D02*
X023524D01*
X023465Y02242D02*
Y022538D01*
X023921Y025386D02*
X024039D01*
X02398Y025327D02*
Y025445D01*
X023921Y024848D02*
X024039D01*
X02398Y024789D02*
Y024907D01*
X023921Y025112D02*
X024039D01*
X02398Y025053D02*
Y025171D01*
X023921Y024569D02*
X024039D01*
X02398Y02451D02*
Y024629D01*
X023921Y024027D02*
X024039D01*
X02398Y023968D02*
Y024086D01*
X023921Y024317D02*
X024039D01*
X02398Y024258D02*
Y024376D01*
X023654Y025386D02*
X023772D01*
X023713Y025327D02*
Y025445D01*
X023654Y024848D02*
X023772D01*
X023713Y024789D02*
Y024907D01*
X023654Y025112D02*
X023772D01*
X023713Y025053D02*
Y025171D01*
X023654Y024569D02*
X023772D01*
X023713Y02451D02*
Y024629D01*
X023654Y024015D02*
X023772D01*
X023713Y023956D02*
Y024075D01*
X023654Y024305D02*
X023772D01*
X023713Y024246D02*
Y024364D01*
X023654Y023684D02*
X023772D01*
X023713Y023625D02*
Y023743D01*
X023402Y025256D02*
X02352D01*
X023461Y025197D02*
Y025315D01*
X023402Y024718D02*
X02352D01*
X023461Y024659D02*
Y024777D01*
X023402Y024983D02*
X02352D01*
X023461Y024923D02*
Y025042D01*
X023402Y02444D02*
X02352D01*
X023461Y024381D02*
Y024499D01*
X023402Y023886D02*
X02352D01*
X023461Y023827D02*
Y023945D01*
X023402Y024175D02*
X02352D01*
X023461Y024116D02*
Y024234D01*
X023402Y023554D02*
X02352D01*
X023461Y023495D02*
Y023613D01*
X011464Y018608D02*
X011582D01*
X011523Y018549D02*
Y018668D01*
X012527Y018608D02*
X012645D01*
X012586Y018549D02*
Y018668D01*
X011752Y018608D02*
X01187D01*
X011811Y018549D02*
Y018668D01*
X012017Y018608D02*
X012135D01*
X012076Y018549D02*
Y018668D01*
X012273Y018608D02*
X012391D01*
X012332Y018549D02*
Y018668D01*
X012937Y018325D02*
X013055D01*
X012996Y018266D02*
Y018384D01*
X012937Y017804D02*
X013055D01*
X012996Y017745D02*
Y017863D01*
X012937Y018069D02*
X013055D01*
X012996Y01801D02*
Y018128D01*
X012658Y01806D02*
X012776D01*
X012717Y018D02*
Y018119D01*
X012658Y018316D02*
X012776D01*
X012717Y018257D02*
Y018375D01*
X012658Y017795D02*
X012776D01*
X012717Y017736D02*
Y017854D01*
X039537Y045731D02*
X039655D01*
X039596Y045672D02*
Y04579D01*
X039522Y046286D02*
X03964D01*
X039581Y046227D02*
Y046345D01*
X043949Y04252D02*
X044067D01*
X044008Y042461D02*
Y042579D01*
X039522Y046811D02*
X03964D01*
X039581Y046752D02*
Y04687D01*
X043323Y04252D02*
X043441D01*
X043382Y042461D02*
Y042579D01*
X043634Y04252D02*
X043752D01*
X043693Y042461D02*
Y042579D01*
X039522Y046575D02*
X03964D01*
X039581Y046516D02*
Y046634D01*
X039537Y04602D02*
X039655D01*
X039596Y045961D02*
Y046079D01*
X038962Y025952D02*
X03908D01*
X039021Y025893D02*
Y026011D01*
X038962Y02649D02*
X03908D01*
X039021Y026431D02*
Y026549D01*
X038962Y026217D02*
X03908D01*
X039021Y026158D02*
Y026276D01*
X038962Y025674D02*
X03908D01*
X039021Y025615D02*
Y025733D01*
X038962Y02512D02*
X03908D01*
X039021Y025061D02*
Y025179D01*
X038962Y025409D02*
X03908D01*
X039021Y02535D02*
Y025468D01*
X038962Y024788D02*
X03908D01*
X039021Y024729D02*
Y024847D01*
X038665Y02595D02*
X038783D01*
X038724Y025891D02*
Y026009D01*
X038665Y026488D02*
X038783D01*
X038724Y026429D02*
Y026547D01*
X038665Y026215D02*
X038783D01*
X038724Y026156D02*
Y026274D01*
X038665Y025672D02*
X038783D01*
X038724Y025613D02*
Y025731D01*
X038665Y025118D02*
X038783D01*
X038724Y025059D02*
Y025177D01*
X038665Y025407D02*
X038783D01*
X038724Y025348D02*
Y025466D01*
X038665Y024786D02*
X038783D01*
X038724Y024727D02*
Y024845D01*
X038387Y025949D02*
X038505D01*
X038446Y025889D02*
Y026008D01*
X038387Y026487D02*
X038505D01*
X038446Y026428D02*
Y026546D01*
X038387Y026213D02*
X038505D01*
X038446Y026154D02*
Y026272D01*
X038387Y02567D02*
X038505D01*
X038446Y025611D02*
Y025729D01*
X038387Y025116D02*
X038505D01*
X038446Y025057D02*
Y025175D01*
X038387Y025406D02*
X038505D01*
X038446Y025347D02*
Y025465D01*
X038387Y024785D02*
X038505D01*
X038446Y024726D02*
Y024844D01*
X038101Y026744D02*
X038219D01*
X03816Y026685D02*
Y026803D01*
X038115Y026483D02*
X038233D01*
X038174Y026424D02*
Y026542D01*
X037887Y027082D02*
X038005D01*
X037946Y027023D02*
Y027141D01*
X037881Y026838D02*
X037999D01*
X03794Y026779D02*
Y026897D01*
X034957Y025314D02*
X035076D01*
X035016Y025255D02*
Y025373D01*
X034957Y02507D02*
X035076D01*
X035016Y025011D02*
Y025129D01*
X034957Y024271D02*
X035076D01*
X035016Y024212D02*
Y02433D01*
X034957Y024809D02*
X035076D01*
X035016Y02475D02*
Y024869D01*
X034957Y024536D02*
X035076D01*
X035016Y024477D02*
Y024595D01*
X034957Y023993D02*
X035076D01*
X035016Y023934D02*
Y024052D01*
X034957Y023439D02*
X035076D01*
X035016Y02338D02*
Y023498D01*
X034957Y023728D02*
X035076D01*
X035016Y023669D02*
Y023787D01*
X034957Y023107D02*
X035076D01*
X035016Y023048D02*
Y023167D01*
X033735Y025346D02*
X033853D01*
X033794Y025287D02*
Y025406D01*
X033498Y02515D02*
X033616D01*
X033557Y025091D02*
Y025209D01*
X033201Y023116D02*
X033319D01*
X03326Y023057D02*
Y023175D01*
X033498Y023116D02*
X033616D01*
X033557Y023057D02*
Y023175D01*
X033201Y023448D02*
X033319D01*
X03326Y023389D02*
Y023507D01*
X033498Y023737D02*
X033616D01*
X033557Y023678D02*
Y023796D01*
X033498Y023448D02*
X033616D01*
X033557Y023389D02*
Y023507D01*
X033498Y024002D02*
X033616D01*
X033557Y023943D02*
Y024061D01*
X033201Y024002D02*
X033319D01*
X03326Y023943D02*
Y024061D01*
X033201Y023737D02*
X033319D01*
X03326Y023678D02*
Y023796D01*
X033498Y024545D02*
X033616D01*
X033557Y024486D02*
Y024604D01*
X033498Y02428D02*
X033616D01*
X033557Y024221D02*
Y024339D01*
X033498Y024818D02*
X033616D01*
X033557Y024759D02*
Y024877D01*
X033201Y02428D02*
X033319D01*
X03326Y024221D02*
Y024339D01*
X033791Y023116D02*
X033909D01*
X03385Y023057D02*
Y023175D01*
X034089Y023116D02*
X034207D01*
X034148Y023057D02*
Y023175D01*
X033791Y023448D02*
X033909D01*
X03385Y023389D02*
Y023507D01*
X034089Y023737D02*
X034207D01*
X034148Y023678D02*
Y023796D01*
X034089Y023448D02*
X034207D01*
X034148Y023389D02*
Y023507D01*
X034089Y024002D02*
X034207D01*
X034148Y023943D02*
Y024061D01*
X033791Y024002D02*
X033909D01*
X03385Y023943D02*
Y024061D01*
X033791Y023737D02*
X033909D01*
X03385Y023678D02*
Y023796D01*
X033791Y024545D02*
X033909D01*
X03385Y024486D02*
Y024604D01*
X034089Y024545D02*
X034207D01*
X034148Y024486D02*
Y024604D01*
X034089Y02428D02*
X034207D01*
X034148Y024221D02*
Y024339D01*
X034089Y024818D02*
X034207D01*
X034148Y024759D02*
Y024877D01*
X033791Y024818D02*
X033909D01*
X03385Y024759D02*
Y024877D01*
X033791Y02428D02*
X033909D01*
X03385Y024221D02*
Y024339D01*
X034382Y023116D02*
X0345D01*
X034441Y023057D02*
Y023175D01*
X034679Y023116D02*
X034797D01*
X034738Y023057D02*
Y023175D01*
X034382Y023448D02*
X0345D01*
X034441Y023389D02*
Y023507D01*
X034679Y023737D02*
X034797D01*
X034738Y023678D02*
Y023796D01*
X034679Y023448D02*
X034797D01*
X034738Y023389D02*
Y023507D01*
X034679Y024002D02*
X034797D01*
X034738Y023943D02*
Y024061D01*
X034382Y024002D02*
X0345D01*
X034441Y023943D02*
Y024061D01*
X034382Y023737D02*
X0345D01*
X034441Y023678D02*
Y023796D01*
X034382Y024545D02*
X0345D01*
X034441Y024486D02*
Y024604D01*
X034679Y024545D02*
X034797D01*
X034738Y024486D02*
Y024604D01*
X034679Y024818D02*
X034797D01*
X034738Y024759D02*
Y024877D01*
X034382Y024818D02*
X0345D01*
X034441Y024759D02*
Y024877D01*
X034382Y02428D02*
X0345D01*
X034441Y024221D02*
Y024339D01*
X034679Y02428D02*
X034797D01*
X034738Y024221D02*
Y024339D01*
X034368Y025079D02*
X034486D01*
X034427Y02502D02*
Y025138D01*
X034666Y025079D02*
X034784D01*
X034725Y02502D02*
Y025138D01*
X033777Y025079D02*
X033896D01*
X033837Y02502D02*
Y025138D01*
X034075Y025079D02*
X034193D01*
X034134Y02502D02*
Y025138D01*
X034081Y025323D02*
X034199D01*
X03414Y025264D02*
Y025382D01*
X034672Y025323D02*
X03479D01*
X034731Y025264D02*
Y025382D01*
X034374Y025323D02*
X034492D01*
X034433Y025264D02*
Y025382D01*
X04732Y025597D02*
X047438D01*
X047379Y025538D02*
Y025656D01*
X047084Y025597D02*
X047202D01*
X047143Y025538D02*
Y025656D01*
X041039Y02501D02*
X041158D01*
X041098Y024951D02*
Y025069D01*
X041329Y02501D02*
X041447D01*
X041388Y024951D02*
Y025069D01*
X012736Y023929D02*
X012854D01*
X012795Y02387D02*
Y023988D01*
X012736Y02445D02*
X012854D01*
X012795Y024391D02*
Y024509D01*
X012736Y024194D02*
X012854D01*
X012795Y024134D02*
Y024253D01*
X013015Y024203D02*
X013133D01*
X013074Y024144D02*
Y024262D01*
X013015Y023938D02*
X013133D01*
X013074Y023879D02*
Y023997D01*
X013015Y024459D02*
X013133D01*
X013074Y0244D02*
Y024518D01*
X01235Y024743D02*
X012469D01*
X012409Y024683D02*
Y024802D01*
X012094Y024743D02*
X012212D01*
X012153Y024683D02*
Y024802D01*
X01183Y024743D02*
X011948D01*
X011889Y024683D02*
Y024802D01*
X012605Y024743D02*
X012723D01*
X012664Y024683D02*
Y024802D01*
X011542Y024743D02*
X01166D01*
X011601Y024683D02*
Y024802D01*
X03924Y034811D02*
X039358D01*
X039299Y034752D02*
Y03487D01*
X044064Y032313D02*
X044182D01*
X044123Y032254D02*
Y032372D01*
X043041Y040095D02*
X043159D01*
X0431Y040036D02*
Y040154D01*
X041572Y027803D02*
X04169D01*
X041631Y027744D02*
Y027862D01*
X031224Y032096D02*
X031343D01*
X031283Y032037D02*
Y032155D01*
X031224Y032362D02*
X031343D01*
X031283Y032303D02*
Y032421D01*
X031224Y031813D02*
X031343D01*
X031283Y031754D02*
Y031872D01*
X036885Y029638D02*
X037003D01*
X036944Y029579D02*
Y029697D01*
X044983Y032484D02*
X045101D01*
X045042Y032425D02*
Y032543D01*
X017232Y010634D02*
X01735D01*
X017291Y010575D02*
Y010693D01*
X017563Y010634D02*
X017681D01*
X017622Y010575D02*
Y010693D01*
X019945Y010634D02*
X020063D01*
X020004Y010575D02*
Y010693D01*
X030884Y010634D02*
X031002D01*
X030943Y010575D02*
Y010693D01*
X031384Y010634D02*
X031502D01*
X031443Y010575D02*
Y010693D01*
X030502Y010634D02*
X03062D01*
X030561Y010575D02*
Y010693D01*
X026501Y010654D02*
X026619D01*
X02656Y010594D02*
Y010713D01*
X026001Y010654D02*
X026119D01*
X02606Y010594D02*
Y010713D01*
X025501Y010654D02*
X025619D01*
X02556Y010594D02*
Y010713D01*
X029974Y010634D02*
X030092D01*
X030033Y010575D02*
Y010693D01*
X029474Y010634D02*
X029592D01*
X029533Y010575D02*
Y010693D01*
X022799Y010634D02*
X022917D01*
X022858Y010575D02*
Y010693D01*
X041519Y030202D02*
X041638D01*
X041578Y030143D02*
Y030261D01*
X041363Y030202D02*
X041481D01*
X041422Y030143D02*
Y030261D01*
X041529Y03034D02*
X041647D01*
X041588Y030281D02*
Y030399D01*
X041687Y030202D02*
X041805D01*
X041746Y030143D02*
Y030261D01*
X041694Y030337D02*
X041813D01*
X041753Y030277D02*
Y030396D01*
X040678Y027208D02*
X040797D01*
X040738Y027149D02*
Y027267D01*
X038675Y029109D02*
X038793D01*
X038734Y02905D02*
Y029168D01*
X044234Y030806D02*
X044352D01*
X044293Y030747D02*
Y030865D01*
X043469Y031641D02*
X043587D01*
X043528Y031581D02*
Y0317D01*
X031354Y010945D02*
X031472D01*
X031413Y010886D02*
Y011004D01*
X031354Y011222D02*
X031472D01*
X031413Y011163D02*
Y011281D01*
X031079Y010949D02*
X031197D01*
X031138Y01089D02*
Y011008D01*
X031079Y011226D02*
X031197D01*
X031138Y011167D02*
Y011285D01*
X030823Y01095D02*
X030941D01*
X030882Y010891D02*
Y011009D01*
X030823Y011227D02*
X030941D01*
X030882Y011168D02*
Y011286D01*
X030571Y010957D02*
X030689D01*
X03063Y010898D02*
Y011016D01*
X030571Y011234D02*
X030689D01*
X03063Y011175D02*
Y011293D01*
X039276Y0195D02*
X039394D01*
X039335Y019441D02*
Y019559D01*
X039823Y019492D02*
X039941D01*
X039882Y019433D02*
Y019551D01*
X047651Y017657D02*
X047769D01*
X04771Y017598D02*
Y017717D01*
X047915Y017657D02*
X048034D01*
X047974Y017598D02*
Y017717D01*
X047376Y017657D02*
X047494D01*
X047435Y017598D02*
Y017717D01*
X047112Y017657D02*
X04723D01*
X047171Y017598D02*
Y017717D01*
X047651Y017402D02*
X047769D01*
X04771Y017343D02*
Y017461D01*
X047915Y017402D02*
X048034D01*
X047974Y017343D02*
Y017461D01*
X047376Y017402D02*
X047494D01*
X047435Y017343D02*
Y017461D01*
X047112Y017402D02*
X04723D01*
X047171Y017343D02*
Y017461D01*
X046471Y015644D02*
X04659D01*
X04653Y015585D02*
Y015703D01*
X046736Y015644D02*
X046854D01*
X046795Y015585D02*
Y015703D01*
X046467Y015417D02*
X046586D01*
X046526Y015358D02*
Y015476D01*
X046732Y015417D02*
X04685D01*
X046791Y015358D02*
Y015476D01*
X038923Y014207D02*
X039042D01*
X038983Y014148D02*
Y014266D01*
X038626Y014207D02*
X038744D01*
X038685Y014148D02*
Y014266D01*
X038626Y013875D02*
X038744D01*
X038685Y013816D02*
Y013934D01*
X038923Y013875D02*
X039042D01*
X038983Y013816D02*
Y013934D01*
X038923Y014496D02*
X039042D01*
X038983Y014437D02*
Y014555D01*
X038923Y014769D02*
X039042D01*
X038983Y01471D02*
Y014828D01*
X038626Y014769D02*
X038744D01*
X038685Y01471D02*
Y014828D01*
X038626Y014496D02*
X038744D01*
X038685Y014437D02*
Y014555D01*
X038923Y013602D02*
X039042D01*
X038983Y013543D02*
Y013661D01*
X038626Y013602D02*
X038744D01*
X038685Y013543D02*
Y013661D01*
X039238Y013602D02*
X039357D01*
X039297Y013543D02*
Y013661D01*
X039238Y014769D02*
X039357D01*
X039297Y01471D02*
Y014828D01*
X039238Y014496D02*
X039357D01*
X039297Y014437D02*
Y014555D01*
X039238Y013875D02*
X039357D01*
X039297Y013816D02*
Y013934D01*
X039238Y014207D02*
X039357D01*
X039297Y014148D02*
Y014266D01*
X039553Y013602D02*
X039672D01*
X039612Y013543D02*
Y013661D01*
X039553Y014769D02*
X039672D01*
X039612Y01471D02*
Y014828D01*
X039553Y014496D02*
X039672D01*
X039612Y014437D02*
Y014555D01*
X039553Y013875D02*
X039672D01*
X039612Y013816D02*
Y013934D01*
X039553Y014207D02*
X039672D01*
X039612Y014148D02*
Y014266D01*
X039868Y013602D02*
X039986D01*
X039927Y013543D02*
Y013661D01*
X039868Y014769D02*
X039986D01*
X039927Y01471D02*
Y014828D01*
X039868Y014496D02*
X039986D01*
X039927Y014437D02*
Y014555D01*
X039868Y013875D02*
X039986D01*
X039927Y013816D02*
Y013934D01*
X039868Y014207D02*
X039986D01*
X039927Y014148D02*
Y014266D01*
X04089Y01753D02*
X041008D01*
X040949Y017471D02*
Y017589D01*
X041205Y01753D02*
X041323D01*
X041264Y017471D02*
Y017589D01*
X040256Y01778D02*
X040374D01*
X040315Y01772D02*
Y017839D01*
X040256Y01753D02*
X040374D01*
X040315Y017471D02*
Y017589D01*
X040571Y01778D02*
X040689D01*
X04063Y01772D02*
Y017839D01*
X040571Y01753D02*
X040689D01*
X04063Y017471D02*
Y017589D01*
X044579Y032323D02*
X044697D01*
X044638Y032264D02*
Y032382D01*
X031558Y029682D02*
X031677D01*
X031618Y029623D02*
Y029741D01*
X031827Y029682D02*
X031945D01*
X031886Y029623D02*
Y029741D01*
X03209Y029682D02*
X032208D01*
X032149Y029623D02*
Y029741D01*
X032092Y029454D02*
X03221D01*
X032151Y029395D02*
Y029513D01*
X031829Y029454D02*
X031948D01*
X031889Y029395D02*
Y029513D01*
X033457Y030327D02*
X033575D01*
X033516Y030268D02*
Y030386D01*
X043949Y042823D02*
X044067D01*
X044008Y042764D02*
Y042882D01*
X043634Y042823D02*
X043752D01*
X043693Y042764D02*
Y042882D01*
X043323Y042823D02*
X043441D01*
X043382Y042764D02*
Y042882D01*
X042972Y042823D02*
X043091D01*
X043032Y042764D02*
Y042882D01*
X04265Y042823D02*
X042768D01*
X042709Y042764D02*
Y042882D01*
X044287Y042823D02*
X044406D01*
X044346Y042764D02*
Y042882D01*
X046555Y042823D02*
X046673D01*
X046614Y042764D02*
Y042882D01*
X016906Y040278D02*
X017024D01*
X016965Y040219D02*
Y040337D01*
X016512Y040278D02*
X01663D01*
X016571Y040219D02*
Y040337D01*
X016906Y039924D02*
X017024D01*
X016965Y039865D02*
Y039983D01*
X016512Y039924D02*
X01663D01*
X016571Y039865D02*
Y039983D01*
X016906Y041339D02*
X017024D01*
X016965Y04128D02*
Y041398D01*
X016512Y041339D02*
X01663D01*
X016571Y04128D02*
Y041398D01*
X016906Y040984D02*
X017024D01*
X016965Y040925D02*
Y041043D01*
X016512Y040984D02*
X01663D01*
X016571Y040925D02*
Y041043D01*
X016512Y04063D02*
X01663D01*
X016571Y040571D02*
Y040689D01*
X016906Y04063D02*
X017024D01*
X016965Y040571D02*
Y040689D01*
X047601Y044151D02*
X047719D01*
X04766Y044092D02*
Y04421D01*
X047776Y044346D02*
X047894D01*
X047835Y044287D02*
Y044406D01*
X047299Y043594D02*
X047417D01*
X047358Y043535D02*
Y043654D01*
X04739Y04398D02*
X047508D01*
X047449Y043921D02*
Y044039D01*
X047876Y044669D02*
X047994D01*
X047935Y04461D02*
Y044728D01*
X047876Y04418D02*
X047994D01*
X047935Y044121D02*
Y044239D01*
X047185Y043775D02*
X047303D01*
X047244Y043716D02*
Y043834D01*
X047539Y043775D02*
X047657D01*
X047598Y043716D02*
Y043834D01*
X047842Y043888D02*
X047961D01*
X047902Y043829D02*
Y043947D01*
X044602Y042823D02*
X04472D01*
X044661Y042764D02*
Y042882D01*
X044961Y042823D02*
X045079D01*
X04502Y042764D02*
Y042882D01*
X045276Y042823D02*
X045394D01*
X045335Y042764D02*
Y042882D01*
X045587Y042823D02*
X045705D01*
X045646Y042764D02*
Y042882D01*
X045925Y042823D02*
X046043D01*
X045984Y042764D02*
Y042882D01*
X02371Y010634D02*
X023828D01*
X023769Y010575D02*
Y010693D01*
X02421Y010634D02*
X024328D01*
X024269Y010575D02*
Y010693D01*
X02471Y010634D02*
X024828D01*
X024769Y010575D02*
Y010693D01*
X025119Y010654D02*
X025237D01*
X025178Y010594D02*
Y010713D01*
X023327Y010634D02*
X023445D01*
X023386Y010575D02*
Y010693D01*
X022327Y010634D02*
X022445D01*
X022386Y010575D02*
Y010693D01*
X021827Y010634D02*
X021945D01*
X021886Y010575D02*
Y010693D01*
X016945Y010634D02*
X017063D01*
X017004Y010575D02*
Y010693D01*
X017945Y010634D02*
X018063D01*
X018004Y010575D02*
Y010693D01*
X019445Y010634D02*
X019563D01*
X019504Y010575D02*
Y010693D01*
X018945Y010634D02*
X019063D01*
X019004Y010575D02*
Y010693D01*
X018445Y010634D02*
X018563D01*
X018504Y010575D02*
Y010693D01*
X015063Y010634D02*
X015181D01*
X015122Y010575D02*
Y010693D01*
X015563Y010634D02*
X015681D01*
X015622Y010575D02*
Y010693D01*
X016063Y010634D02*
X016181D01*
X016122Y010575D02*
Y010693D01*
X016563Y010634D02*
X016681D01*
X016622Y010575D02*
Y010693D01*
X014563Y010634D02*
X014681D01*
X014622Y010575D02*
Y010693D01*
X014063Y010634D02*
X014181D01*
X014122Y010575D02*
Y010693D01*
X013563Y010634D02*
X013681D01*
X013622Y010575D02*
Y010693D01*
X011681Y010634D02*
X011799D01*
X01174Y010575D02*
Y010693D01*
X012181Y010634D02*
X012299D01*
X01224Y010575D02*
Y010693D01*
X012681Y010634D02*
X012799D01*
X01274Y010575D02*
Y010693D01*
X013181Y010634D02*
X013299D01*
X01324Y010575D02*
Y010693D01*
X011181Y010634D02*
X011299D01*
X01124Y010575D02*
Y010693D01*
X010681Y010634D02*
X010799D01*
X01074Y010575D02*
Y010693D01*
X010181Y010634D02*
X010299D01*
X01024Y010575D02*
Y010693D01*
X037067Y041024D02*
X037185D01*
X037126Y040965D02*
Y041083D01*
X037382Y041024D02*
X0375D01*
X037441Y040965D02*
Y041083D01*
X037697Y041024D02*
X037815D01*
X037756Y040965D02*
Y041083D01*
X03894Y046811D02*
X039058D01*
X038999Y046752D02*
Y04687D01*
X03872Y046811D02*
X038838D01*
X038779Y046752D02*
Y04687D01*
X03813Y046811D02*
X038248D01*
X038189Y046752D02*
Y04687D01*
X038419Y046811D02*
X038537D01*
X038478Y046752D02*
Y04687D01*
X039232Y046811D02*
X03935D01*
X039291Y046752D02*
Y04687D01*
X03813Y045144D02*
X038248D01*
X038189Y045085D02*
Y045203D01*
X038419Y045144D02*
X038537D01*
X038478Y045085D02*
Y045203D01*
X03872Y045144D02*
X038838D01*
X038779Y045085D02*
Y045203D01*
X03894Y045144D02*
X039058D01*
X038999Y045085D02*
Y045203D01*
X039232Y045144D02*
X03935D01*
X039291Y045085D02*
Y045203D01*
X039232Y046575D02*
X03935D01*
X039291Y046516D02*
Y046634D01*
X039232Y046286D02*
X03935D01*
X039291Y046227D02*
Y046345D01*
X039248Y045731D02*
X039366D01*
X039307Y045672D02*
Y04579D01*
X039248Y04602D02*
X039366D01*
X039307Y045961D02*
Y046079D01*
X038419Y046575D02*
X038537D01*
X038478Y046516D02*
Y046634D01*
X03813Y046575D02*
X038248D01*
X038189Y046516D02*
Y046634D01*
X03813Y046286D02*
X038248D01*
X038189Y046227D02*
Y046345D01*
X038419Y046286D02*
X038537D01*
X038478Y046227D02*
Y046345D01*
X03872Y046575D02*
X038838D01*
X038779Y046516D02*
Y046634D01*
X03872Y046286D02*
X038838D01*
X038779Y046227D02*
Y046345D01*
X03894Y046575D02*
X039058D01*
X038999Y046516D02*
Y046634D01*
X03894Y046286D02*
X039058D01*
X038999Y046227D02*
Y046345D01*
X038956Y045731D02*
X039074D01*
X039015Y045672D02*
Y04579D01*
X038956Y04602D02*
X039074D01*
X039015Y045961D02*
Y046079D01*
X038735Y045731D02*
X038853D01*
X038794Y045672D02*
Y04579D01*
X038735Y04602D02*
X038853D01*
X038794Y045961D02*
Y046079D01*
X038435Y045731D02*
X038553D01*
X038494Y045672D02*
Y04579D01*
X038146Y045731D02*
X038264D01*
X038205Y045672D02*
Y04579D01*
X038146Y04602D02*
X038264D01*
X038205Y045961D02*
Y046079D01*
X038435Y04602D02*
X038553D01*
X038494Y045961D02*
Y046079D01*
X033996Y045354D02*
X034114D01*
X034055Y045295D02*
Y045413D01*
X033996Y045065D02*
X034114D01*
X034055Y045006D02*
Y045124D01*
X034617Y045354D02*
X034735D01*
X034676Y045295D02*
Y045413D01*
X034328Y045354D02*
X034446D01*
X034387Y045295D02*
Y045413D01*
X034328Y045065D02*
X034446D01*
X034387Y045006D02*
Y045124D01*
X034617Y045065D02*
X034735D01*
X034676Y045006D02*
Y045124D01*
X035217Y045354D02*
X035335D01*
X035276Y045295D02*
Y045413D01*
X035217Y045065D02*
X035335D01*
X035276Y045006D02*
Y045124D01*
X035837Y045354D02*
X035956D01*
X035897Y045295D02*
Y045413D01*
X035548Y045354D02*
X035666D01*
X035607Y045295D02*
Y045413D01*
X035548Y045065D02*
X035666D01*
X035607Y045006D02*
Y045124D01*
X035837Y045065D02*
X035956D01*
X035897Y045006D02*
Y045124D01*
X036138Y045354D02*
X036256D01*
X036197Y045295D02*
Y045413D01*
X036138Y045065D02*
X036256D01*
X036197Y045006D02*
Y045124D01*
X036358Y045354D02*
X036476D01*
X036417Y045295D02*
Y045413D01*
X036358Y045065D02*
X036476D01*
X036417Y045006D02*
Y045124D01*
X036979Y045354D02*
X037097D01*
X037038Y045295D02*
Y045413D01*
X03669Y045354D02*
X036808D01*
X036749Y045295D02*
Y045413D01*
X03669Y045065D02*
X036808D01*
X036749Y045006D02*
Y045124D01*
X036979Y045065D02*
X037097D01*
X037038Y045006D02*
Y045124D01*
X037279Y045354D02*
X037398D01*
X037339Y045295D02*
Y045413D01*
X037279Y045065D02*
X037398D01*
X037339Y045006D02*
Y045124D01*
X037264Y04562D02*
X037382D01*
X037323Y045561D02*
Y045679D01*
X037264Y046238D02*
X037382D01*
X037323Y046179D02*
Y046297D01*
X037264Y045909D02*
X037382D01*
X037323Y04585D02*
Y045968D01*
X036963Y046535D02*
X037082D01*
X037023Y046476D02*
Y046594D01*
X036963Y04562D02*
X037082D01*
X037023Y045561D02*
Y045679D01*
X036674Y04562D02*
X036792D01*
X036733Y045561D02*
Y045679D01*
X036674Y045909D02*
X036792D01*
X036733Y04585D02*
Y045968D01*
X036963Y045909D02*
X037082D01*
X037023Y04585D02*
Y045968D01*
X036674Y046238D02*
X036792D01*
X036733Y046179D02*
Y046297D01*
X036963Y046238D02*
X037082D01*
X037023Y046179D02*
Y046297D01*
X036674Y046535D02*
X036792D01*
X036733Y046476D02*
Y046594D01*
X036343Y04562D02*
X036461D01*
X036402Y045561D02*
Y045679D01*
X036343Y046238D02*
X036461D01*
X036402Y046179D02*
Y046297D01*
X036343Y045909D02*
X036461D01*
X036402Y04585D02*
Y045968D01*
X036343Y046535D02*
X036461D01*
X036402Y046476D02*
Y046594D01*
X036122Y04562D02*
X03624D01*
X036181Y045561D02*
Y045679D01*
X036122Y046238D02*
X03624D01*
X036181Y046179D02*
Y046297D01*
X036122Y045909D02*
X03624D01*
X036181Y04585D02*
Y045968D01*
X036122Y046535D02*
X03624D01*
X036181Y046476D02*
Y046594D01*
X035822Y046535D02*
X03594D01*
X035881Y046476D02*
Y046594D01*
X035822Y04562D02*
X03594D01*
X035881Y045561D02*
Y045679D01*
X035532Y04562D02*
X035651D01*
X035592Y045561D02*
Y045679D01*
X035532Y045909D02*
X035651D01*
X035592Y04585D02*
Y045968D01*
X035822Y045909D02*
X03594D01*
X035881Y04585D02*
Y045968D01*
X035532Y046238D02*
X035651D01*
X035592Y046179D02*
Y046297D01*
X035822Y046238D02*
X03594D01*
X035881Y046179D02*
Y046297D01*
X035532Y046535D02*
X035651D01*
X035592Y046476D02*
Y046594D01*
X035201Y04562D02*
X035319D01*
X03526Y045561D02*
Y045679D01*
X035201Y046238D02*
X035319D01*
X03526Y046179D02*
Y046297D01*
X035201Y045909D02*
X035319D01*
X03526Y04585D02*
Y045968D01*
X035201Y046535D02*
X035319D01*
X03526Y046476D02*
Y046594D01*
X034601Y046535D02*
X034719D01*
X03466Y046476D02*
Y046594D01*
X034601Y04562D02*
X034719D01*
X03466Y045561D02*
Y045679D01*
X034312Y04562D02*
X03443D01*
X034371Y045561D02*
Y045679D01*
X034312Y045909D02*
X03443D01*
X034371Y04585D02*
Y045968D01*
X034601Y045909D02*
X034719D01*
X03466Y04585D02*
Y045968D01*
X034312Y046238D02*
X03443D01*
X034371Y046179D02*
Y046297D01*
X034601Y046238D02*
X034719D01*
X03466Y046179D02*
Y046297D01*
X034312Y046535D02*
X03443D01*
X034371Y046476D02*
Y046594D01*
X03398Y04562D02*
X034098D01*
X034039Y045561D02*
Y045679D01*
X03398Y046238D02*
X034098D01*
X034039Y046179D02*
Y046297D01*
X03398Y045909D02*
X034098D01*
X034039Y04585D02*
Y045968D01*
X03398Y046535D02*
X034098D01*
X034039Y046476D02*
Y046594D01*
X033307Y017498D02*
X033425D01*
X033366Y017439D02*
Y017557D01*
X033307Y01834D02*
X033425D01*
X033366Y018281D02*
Y018399D01*
X033307Y018655D02*
X033425D01*
X033366Y018596D02*
Y018714D01*
X033307Y017985D02*
X033425D01*
X033366Y017926D02*
Y018044D01*
X034238Y019954D02*
X034357D01*
X034297Y019895D02*
Y020013D01*
X034037Y019745D02*
X034156D01*
X034097Y019686D02*
Y019804D01*
X033748Y019534D02*
X033866D01*
X033807Y019475D02*
Y019594D01*
X034671Y019954D02*
X03479D01*
X034731Y019895D02*
Y020013D01*
X034471Y019745D02*
X034589D01*
X03453Y019686D02*
Y019804D01*
X033748Y019048D02*
X033866D01*
X033807Y018989D02*
Y019107D01*
X034251Y019534D02*
X034369D01*
X03431Y019475D02*
Y019594D01*
X033566Y018852D02*
X033684D01*
X033625Y018793D02*
Y018911D01*
X034947Y019836D02*
X035065D01*
X035006Y019777D02*
Y019895D01*
X034746Y019627D02*
X034864D01*
X034805Y019568D02*
Y019686D01*
X034042Y01893D02*
X03416D01*
X034101Y018871D02*
Y018989D01*
X034526Y019416D02*
X034644D01*
X034585Y019357D02*
Y019475D01*
X033748Y018733D02*
X033866D01*
X033807Y018674D02*
Y018793D01*
X033566Y018537D02*
X033684D01*
X033625Y018478D02*
Y018596D01*
X033384Y013819D02*
X033502D01*
X033443Y01376D02*
Y013878D01*
X033681Y013819D02*
X033799D01*
X03374Y01376D02*
Y013878D01*
X033974Y013819D02*
X034092D01*
X034033Y01376D02*
Y013878D01*
X034272Y013819D02*
X03439D01*
X034331Y01376D02*
Y013878D01*
X035256Y013661D02*
X035374D01*
X035315Y013602D02*
Y01372D01*
X034958Y013661D02*
X035077D01*
X035017Y013602D02*
Y01372D01*
X035846Y013661D02*
X035965D01*
X035906Y013602D02*
Y01372D01*
X035549Y013661D02*
X035667D01*
X035608Y013602D02*
Y01372D01*
X036437Y013661D02*
X036555D01*
X036496Y013602D02*
Y01372D01*
X03614Y013661D02*
X036258D01*
X036199Y013602D02*
Y01372D01*
X03939Y020866D02*
X039508D01*
X039449Y020807D02*
Y020925D01*
X038484Y020157D02*
X038602D01*
X038543Y020098D02*
Y020217D01*
X039731Y020669D02*
X039849D01*
X03979Y02061D02*
Y020728D01*
X039075Y020669D02*
X039193D01*
X039134Y02061D02*
Y020728D01*
X03939Y020669D02*
X039508D01*
X039449Y02061D02*
Y020728D01*
X03876Y020433D02*
X038878D01*
X038819Y020374D02*
Y020492D01*
X039075Y020433D02*
X039193D01*
X039134Y020374D02*
Y020492D01*
X03939Y020433D02*
X039508D01*
X039449Y020374D02*
Y020492D01*
X039731Y020433D02*
X039849D01*
X03979Y020374D02*
Y020492D01*
X03876Y020157D02*
X038878D01*
X038819Y020098D02*
Y020217D01*
X039075Y020157D02*
X039193D01*
X039134Y020098D02*
Y020217D01*
X038169Y019882D02*
X038287D01*
X038228Y019823D02*
Y019941D01*
X038484Y019882D02*
X038602D01*
X038543Y019823D02*
Y019941D01*
X038005Y019629D02*
X038123D01*
X038064Y01957D02*
Y019688D01*
X03832Y019629D02*
X038438D01*
X038379Y01957D02*
Y019688D01*
X037697Y019351D02*
X037815D01*
X037756Y019292D02*
Y01941D01*
X038012Y019351D02*
X03813D01*
X038071Y019292D02*
Y01941D01*
X038327Y019351D02*
X038445D01*
X038386Y019292D02*
Y01941D01*
X037382Y019094D02*
X0375D01*
X037441Y019035D02*
Y019154D01*
X037697Y019094D02*
X037815D01*
X037756Y019035D02*
Y019154D01*
X038012Y019094D02*
X03813D01*
X038071Y019035D02*
Y019154D01*
X038327Y019094D02*
X038445D01*
X038386Y019035D02*
Y019154D01*
X03644Y018159D02*
X036558D01*
X036499Y0181D02*
Y018218D01*
X036136Y017868D02*
X036254D01*
X036195Y017809D02*
Y017927D01*
X036433Y017868D02*
X036551D01*
X036492Y017809D02*
Y017927D01*
X036132Y017614D02*
X03625D01*
X036191Y017555D02*
Y017673D01*
X036429Y017614D02*
X036547D01*
X036488Y017555D02*
Y017673D01*
X035839Y017614D02*
X035957D01*
X035898Y017555D02*
Y017673D01*
X035833Y01737D02*
X035951D01*
X035892Y017311D02*
Y017429D01*
X035535Y01737D02*
X035653D01*
X035594Y017311D02*
Y017429D01*
X036423Y01737D02*
X036541D01*
X036482Y017311D02*
Y017429D01*
X036126Y01737D02*
X036244D01*
X036185Y017311D02*
Y017429D01*
X03498Y017383D02*
X035098D01*
X035039Y017324D02*
Y017442D01*
X033406Y015811D02*
X033524D01*
X033465Y015752D02*
Y01587D01*
X034087Y016549D02*
X034205D01*
X034146Y01649D02*
Y016608D01*
X033681Y015811D02*
X033799D01*
X03374Y015752D02*
Y01587D01*
X034272Y016293D02*
X03439D01*
X034331Y016233D02*
Y016352D01*
X034272Y016063D02*
X03439D01*
X034331Y016004D02*
Y016122D01*
X033975Y016063D02*
X034093D01*
X034034Y016004D02*
Y016122D01*
X034272Y015811D02*
X03439D01*
X034331Y015752D02*
Y01587D01*
X033975Y015811D02*
X034093D01*
X034034Y015752D02*
Y01587D01*
X036437Y016571D02*
X036555D01*
X036496Y016512D02*
Y01663D01*
X033974Y014089D02*
X034092D01*
X034033Y01403D02*
Y014148D01*
X034272Y014089D02*
X03439D01*
X034331Y01403D02*
Y014148D01*
X033974Y014983D02*
X034092D01*
X034033Y014924D02*
Y015042D01*
X033974Y015256D02*
X034092D01*
X034033Y015197D02*
Y015315D01*
X034272Y015256D02*
X03439D01*
X034331Y015197D02*
Y015315D01*
X034272Y014983D02*
X03439D01*
X034331Y014924D02*
Y015042D01*
X034272Y014362D02*
X03439D01*
X034331Y014303D02*
Y014422D01*
X033974Y014362D02*
X034092D01*
X034033Y014303D02*
Y014422D01*
X033974Y015574D02*
X034092D01*
X034033Y015515D02*
Y015633D01*
X034272Y015574D02*
X03439D01*
X034331Y015515D02*
Y015633D01*
X033974Y014694D02*
X034092D01*
X034033Y014635D02*
Y014753D01*
X034272Y014694D02*
X03439D01*
X034331Y014635D02*
Y014753D01*
X033384Y014089D02*
X033502D01*
X033443Y01403D02*
Y014148D01*
X033681Y014089D02*
X033799D01*
X03374Y01403D02*
Y014148D01*
X033384Y014983D02*
X033502D01*
X033443Y014924D02*
Y015042D01*
X033384Y015256D02*
X033502D01*
X033443Y015197D02*
Y015315D01*
X033681Y015256D02*
X033799D01*
X03374Y015197D02*
Y015315D01*
X033681Y014983D02*
X033799D01*
X03374Y014924D02*
Y015042D01*
X033681Y014362D02*
X033799D01*
X03374Y014303D02*
Y014422D01*
X033384Y014362D02*
X033502D01*
X033443Y014303D02*
Y014422D01*
X033384Y015574D02*
X033502D01*
X033443Y015515D02*
Y015633D01*
X033681Y015574D02*
X033799D01*
X03374Y015515D02*
Y015633D01*
X033384Y014694D02*
X033502D01*
X033443Y014635D02*
Y014753D01*
X033681Y014694D02*
X033799D01*
X03374Y014635D02*
Y014753D01*
X03614Y016571D02*
X036258D01*
X036199Y016512D02*
Y01663D01*
X03614Y017109D02*
X036258D01*
X036199Y01705D02*
Y017168D01*
X036437Y017109D02*
X036555D01*
X036496Y01705D02*
Y017168D01*
X036437Y016836D02*
X036555D01*
X036496Y016777D02*
Y016895D01*
X03614Y016836D02*
X036258D01*
X036199Y016777D02*
Y016895D01*
X036437Y014528D02*
X036555D01*
X036496Y014468D02*
Y014587D01*
X03614Y014528D02*
X036258D01*
X036199Y014468D02*
Y014587D01*
X03614Y016028D02*
X036258D01*
X036199Y015969D02*
Y016087D01*
X03614Y016293D02*
X036258D01*
X036199Y016234D02*
Y016352D01*
X036437Y016293D02*
X036555D01*
X036496Y016234D02*
Y016352D01*
X036437Y015739D02*
X036555D01*
X036496Y01568D02*
Y015798D01*
X036437Y016028D02*
X036555D01*
X036496Y015969D02*
Y016087D01*
X03614Y015739D02*
X036258D01*
X036199Y01568D02*
Y015798D01*
X036437Y015407D02*
X036555D01*
X036496Y015348D02*
Y015466D01*
X03614Y015407D02*
X036258D01*
X036199Y015348D02*
Y015466D01*
X03614Y014196D02*
X036258D01*
X036199Y014137D02*
Y014255D01*
X036437Y014196D02*
X036555D01*
X036496Y014137D02*
Y014255D01*
X036437Y014817D02*
X036555D01*
X036496Y014758D02*
Y014876D01*
X036437Y01509D02*
X036555D01*
X036496Y015031D02*
Y015149D01*
X03614Y01509D02*
X036258D01*
X036199Y015031D02*
Y015149D01*
X03614Y014817D02*
X036258D01*
X036199Y014758D02*
Y014876D01*
X036437Y013923D02*
X036555D01*
X036496Y013864D02*
Y013982D01*
X03614Y013923D02*
X036258D01*
X036199Y013864D02*
Y013982D01*
X035549Y016571D02*
X035667D01*
X035608Y016512D02*
Y01663D01*
X035549Y017109D02*
X035667D01*
X035608Y01705D02*
Y017168D01*
X035846Y017109D02*
X035965D01*
X035906Y01705D02*
Y017168D01*
X035846Y016571D02*
X035965D01*
X035906Y016512D02*
Y01663D01*
X035846Y016836D02*
X035965D01*
X035906Y016777D02*
Y016895D01*
X035549Y016836D02*
X035667D01*
X035608Y016777D02*
Y016895D01*
X035846Y014528D02*
X035965D01*
X035906Y014468D02*
Y014587D01*
X035549Y014528D02*
X035667D01*
X035608Y014468D02*
Y014587D01*
X035549Y016028D02*
X035667D01*
X035608Y015969D02*
Y016087D01*
X035549Y016293D02*
X035667D01*
X035608Y016234D02*
Y016352D01*
X035846Y016293D02*
X035965D01*
X035906Y016234D02*
Y016352D01*
X035846Y015739D02*
X035965D01*
X035906Y01568D02*
Y015798D01*
X035846Y016028D02*
X035965D01*
X035906Y015969D02*
Y016087D01*
X035549Y015739D02*
X035667D01*
X035608Y01568D02*
Y015798D01*
X035846Y015407D02*
X035965D01*
X035906Y015348D02*
Y015466D01*
X035549Y015407D02*
X035667D01*
X035608Y015348D02*
Y015466D01*
X035549Y014196D02*
X035667D01*
X035608Y014137D02*
Y014255D01*
X035846Y014196D02*
X035965D01*
X035906Y014137D02*
Y014255D01*
X035846Y014817D02*
X035965D01*
X035906Y014758D02*
Y014876D01*
X035846Y01509D02*
X035965D01*
X035906Y015031D02*
Y015149D01*
X035549Y01509D02*
X035667D01*
X035608Y015031D02*
Y015149D01*
X035549Y014817D02*
X035667D01*
X035608Y014758D02*
Y014876D01*
X035846Y013923D02*
X035965D01*
X035906Y013864D02*
Y013982D01*
X035549Y013923D02*
X035667D01*
X035608Y013864D02*
Y013982D01*
X034958Y016571D02*
X035077D01*
X035017Y016512D02*
Y01663D01*
X034958Y017109D02*
X035077D01*
X035017Y01705D02*
Y017168D01*
X035256Y017109D02*
X035374D01*
X035315Y01705D02*
Y017168D01*
X035256Y016571D02*
X035374D01*
X035315Y016512D02*
Y01663D01*
X035256Y016836D02*
X035374D01*
X035315Y016777D02*
Y016895D01*
X034958Y016836D02*
X035077D01*
X035017Y016777D02*
Y016895D01*
X035256Y014528D02*
X035374D01*
X035315Y014468D02*
Y014587D01*
X034958Y014528D02*
X035077D01*
X035017Y014468D02*
Y014587D01*
X034958Y016028D02*
X035077D01*
X035017Y015969D02*
Y016087D01*
X034958Y016293D02*
X035077D01*
X035017Y016234D02*
Y016352D01*
X035256Y016293D02*
X035374D01*
X035315Y016234D02*
Y016352D01*
X035256Y015739D02*
X035374D01*
X035315Y01568D02*
Y015798D01*
X035256Y016028D02*
X035374D01*
X035315Y015969D02*
Y016087D01*
X034958Y015739D02*
X035077D01*
X035017Y01568D02*
Y015798D01*
X035256Y015407D02*
X035374D01*
X035315Y015348D02*
Y015466D01*
X034958Y015407D02*
X035077D01*
X035017Y015348D02*
Y015466D01*
X034958Y014196D02*
X035077D01*
X035017Y014137D02*
Y014255D01*
X035256Y014196D02*
X035374D01*
X035315Y014137D02*
Y014255D01*
X035256Y014817D02*
X035374D01*
X035315Y014758D02*
Y014876D01*
X035256Y01509D02*
X035374D01*
X035315Y015031D02*
Y015149D01*
X034958Y01509D02*
X035077D01*
X035017Y015031D02*
Y015149D01*
X034958Y014817D02*
X035077D01*
X035017Y014758D02*
Y014876D01*
X035256Y013923D02*
X035374D01*
X035315Y013864D02*
Y013982D01*
X034958Y013923D02*
X035077D01*
X035017Y013864D02*
Y013982D01*
X044794Y018307D02*
X044912D01*
X044853Y018248D02*
Y018366D01*
X045059Y018307D02*
X045177D01*
X045118Y018248D02*
Y018366D01*
X045059Y018063D02*
X045177D01*
X045118Y018004D02*
Y018122D01*
X044794Y018063D02*
X044912D01*
X044853Y018004D02*
Y018122D01*
X045852Y01885D02*
X04597D01*
X045911Y018791D02*
Y018909D01*
X045313Y01885D02*
X045431D01*
X045372Y018791D02*
Y018909D01*
X045578Y01885D02*
X045696D01*
X045637Y018791D02*
Y018909D01*
X046117Y018063D02*
X046235D01*
X046176Y018004D02*
Y018122D01*
X045852Y018063D02*
X04597D01*
X045911Y018004D02*
Y018122D01*
X045313Y018063D02*
X045431D01*
X045372Y018004D02*
Y018122D01*
X045578Y018063D02*
X045696D01*
X045637Y018004D02*
Y018122D01*
X045852Y018622D02*
X04597D01*
X045911Y018563D02*
Y018681D01*
X045313Y018622D02*
X045431D01*
X045372Y018563D02*
Y018681D01*
X045578Y018622D02*
X045696D01*
X045637Y018563D02*
Y018681D01*
X045578Y018307D02*
X045696D01*
X045637Y018248D02*
Y018366D01*
X045313Y018307D02*
X045431D01*
X045372Y018248D02*
Y018366D01*
X045852Y018307D02*
X04597D01*
X045911Y018248D02*
Y018366D01*
X046139Y018307D02*
X046257D01*
X046198Y018248D02*
Y018366D01*
X046171Y012613D02*
X046289D01*
X04623Y012554D02*
Y012672D01*
X045856Y011675D02*
X045974D01*
X045915Y011616D02*
Y011734D01*
X045856Y011402D02*
X045974D01*
X045915Y011343D02*
Y011461D01*
X045856Y010781D02*
X045974D01*
X045915Y010722D02*
Y01084D01*
X045856Y011992D02*
X045974D01*
X045915Y011933D02*
Y012051D01*
X045856Y012613D02*
X045974D01*
X045915Y012554D02*
Y012672D01*
X045856Y012324D02*
X045974D01*
X045915Y012265D02*
Y012383D01*
X045856Y012878D02*
X045974D01*
X045915Y012819D02*
Y012937D01*
X045856Y011112D02*
X045974D01*
X045915Y011053D02*
Y011171D01*
X045856Y013417D02*
X045974D01*
X045915Y013358D02*
Y013476D01*
X045856Y013152D02*
X045974D01*
X045915Y013093D02*
Y013211D01*
X046171Y013152D02*
X046289D01*
X04623Y013093D02*
Y013211D01*
X046171Y013417D02*
X046289D01*
X04623Y013358D02*
Y013476D01*
X046171Y012878D02*
X046289D01*
X04623Y012819D02*
Y012937D01*
X046171Y010781D02*
X046289D01*
X04623Y010722D02*
Y01084D01*
X045265Y011675D02*
X045383D01*
X045324Y011616D02*
Y011734D01*
X045265Y011402D02*
X045383D01*
X045324Y011343D02*
Y011461D01*
X045265Y010781D02*
X045383D01*
X045324Y010722D02*
Y01084D01*
X045265Y011992D02*
X045383D01*
X045324Y011933D02*
Y012051D01*
X045265Y012613D02*
X045383D01*
X045324Y012554D02*
Y012672D01*
X045265Y012324D02*
X045383D01*
X045324Y012265D02*
Y012383D01*
X045265Y012878D02*
X045383D01*
X045324Y012819D02*
Y012937D01*
X045265Y011112D02*
X045383D01*
X045324Y011053D02*
Y011171D01*
X045265Y013417D02*
X045383D01*
X045324Y013358D02*
Y013476D01*
X045265Y013152D02*
X045383D01*
X045324Y013093D02*
Y013211D01*
X04558Y013152D02*
X045698D01*
X045639Y013093D02*
Y013211D01*
X04558Y013417D02*
X045698D01*
X045639Y013358D02*
Y013476D01*
X04558Y011112D02*
X045698D01*
X045639Y011053D02*
Y011171D01*
X04558Y012878D02*
X045698D01*
X045639Y012819D02*
Y012937D01*
X04558Y012324D02*
X045698D01*
X045639Y012265D02*
Y012383D01*
X04558Y012613D02*
X045698D01*
X045639Y012554D02*
Y012672D01*
X04558Y011992D02*
X045698D01*
X045639Y011933D02*
Y012051D01*
X04558Y010781D02*
X045698D01*
X045639Y010722D02*
Y01084D01*
X04558Y011402D02*
X045698D01*
X045639Y011343D02*
Y011461D01*
X04558Y011675D02*
X045698D01*
X045639Y011616D02*
Y011734D01*
X04498Y011675D02*
X045098D01*
X045039Y011616D02*
Y011734D01*
X04498Y011402D02*
X045098D01*
X045039Y011343D02*
Y011461D01*
X04498Y010781D02*
X045098D01*
X045039Y010722D02*
Y01084D01*
X04498Y011992D02*
X045098D01*
X045039Y011933D02*
Y012051D01*
X04498Y012613D02*
X045098D01*
X045039Y012554D02*
Y012672D01*
X04498Y012324D02*
X045098D01*
X045039Y012265D02*
Y012383D01*
X04498Y012878D02*
X045098D01*
X045039Y012819D02*
Y012937D01*
X04498Y011112D02*
X045098D01*
X045039Y011053D02*
Y011171D01*
X04498Y013417D02*
X045098D01*
X045039Y013358D02*
Y013476D01*
X04498Y013152D02*
X045098D01*
X045039Y013093D02*
Y013211D01*
X04498Y014564D02*
X045098D01*
X045039Y014505D02*
Y014623D01*
X04498Y014291D02*
X045098D01*
X045039Y014232D02*
Y01435D01*
X04498Y01367D02*
X045098D01*
X045039Y013611D02*
Y01373D01*
X04498Y014882D02*
X045098D01*
X045039Y014823D02*
Y014941D01*
X04498Y014002D02*
X045098D01*
X045039Y013943D02*
Y014061D01*
X044665Y014022D02*
X044783D01*
X044724Y013963D02*
Y014081D01*
X044665Y014902D02*
X044783D01*
X044724Y014843D02*
Y014961D01*
X044665Y01369D02*
X044783D01*
X044724Y013631D02*
Y013749D01*
X044665Y014311D02*
X044783D01*
X044724Y014252D02*
Y01437D01*
X044665Y014584D02*
X044783D01*
X044724Y014525D02*
Y014643D01*
X044665Y013152D02*
X044783D01*
X044724Y013093D02*
Y013211D01*
X044665Y013417D02*
X044783D01*
X044724Y013358D02*
Y013476D01*
X044665Y012878D02*
X044783D01*
X044724Y012819D02*
Y012937D01*
X044665Y012613D02*
X044783D01*
X044724Y012554D02*
Y012672D01*
X038327Y017093D02*
X038445D01*
X038386Y017034D02*
Y017152D01*
X038327Y018858D02*
X038445D01*
X038386Y018799D02*
Y018917D01*
X038327Y018304D02*
X038445D01*
X038386Y018245D02*
Y018363D01*
X038327Y018594D02*
X038445D01*
X038386Y018535D02*
Y018653D01*
X038327Y017973D02*
X038445D01*
X038386Y017914D02*
Y018032D01*
X038327Y016761D02*
X038445D01*
X038386Y016702D02*
Y01682D01*
X038327Y017382D02*
X038445D01*
X038386Y017323D02*
Y017441D01*
X038327Y017655D02*
X038445D01*
X038386Y017596D02*
Y017714D01*
X038327Y016223D02*
X038445D01*
X038386Y016164D02*
Y016282D01*
X038327Y016488D02*
X038445D01*
X038386Y016429D02*
Y016547D01*
X038327Y014207D02*
X038445D01*
X038386Y014148D02*
Y014266D01*
X038327Y015984D02*
X038445D01*
X038386Y015925D02*
Y016043D01*
X038327Y01543D02*
X038445D01*
X038386Y015371D02*
Y015489D01*
X038327Y01572D02*
X038445D01*
X038386Y015661D02*
Y015779D01*
X038327Y015099D02*
X038445D01*
X038386Y01504D02*
Y015158D01*
X038327Y013875D02*
X038445D01*
X038386Y013816D02*
Y013934D01*
X038327Y014496D02*
X038445D01*
X038386Y014437D02*
Y014555D01*
X038327Y014769D02*
X038445D01*
X038386Y01471D02*
Y014828D01*
X038327Y013602D02*
X038445D01*
X038386Y013543D02*
Y013661D01*
X038012Y017093D02*
X03813D01*
X038071Y017034D02*
Y017152D01*
X038012Y018858D02*
X03813D01*
X038071Y018799D02*
Y018917D01*
X038012Y018304D02*
X03813D01*
X038071Y018245D02*
Y018363D01*
X038012Y018594D02*
X03813D01*
X038071Y018535D02*
Y018653D01*
X038012Y017973D02*
X03813D01*
X038071Y017914D02*
Y018032D01*
X038012Y016761D02*
X03813D01*
X038071Y016702D02*
Y01682D01*
X038012Y017382D02*
X03813D01*
X038071Y017323D02*
Y017441D01*
X038012Y017655D02*
X03813D01*
X038071Y017596D02*
Y017714D01*
X038012Y016223D02*
X03813D01*
X038071Y016164D02*
Y016282D01*
X038012Y016488D02*
X03813D01*
X038071Y016429D02*
Y016547D01*
X038012Y014207D02*
X03813D01*
X038071Y014148D02*
Y014266D01*
X038012Y015984D02*
X03813D01*
X038071Y015925D02*
Y016043D01*
X038012Y01543D02*
X03813D01*
X038071Y015371D02*
Y015489D01*
X038012Y01572D02*
X03813D01*
X038071Y015661D02*
Y015779D01*
X038012Y015099D02*
X03813D01*
X038071Y01504D02*
Y015158D01*
X038012Y013875D02*
X03813D01*
X038071Y013816D02*
Y013934D01*
X038012Y014496D02*
X03813D01*
X038071Y014437D02*
Y014555D01*
X038012Y014769D02*
X03813D01*
X038071Y01471D02*
Y014828D01*
X037697Y017093D02*
X037815D01*
X037756Y017034D02*
Y017152D01*
X037697Y018858D02*
X037815D01*
X037756Y018799D02*
Y018917D01*
X037697Y018304D02*
X037815D01*
X037756Y018245D02*
Y018363D01*
X037697Y018594D02*
X037815D01*
X037756Y018535D02*
Y018653D01*
X037697Y017973D02*
X037815D01*
X037756Y017914D02*
Y018032D01*
X037697Y016761D02*
X037815D01*
X037756Y016702D02*
Y01682D01*
X037697Y017382D02*
X037815D01*
X037756Y017323D02*
Y017441D01*
X037697Y017655D02*
X037815D01*
X037756Y017596D02*
Y017714D01*
X037697Y016223D02*
X037815D01*
X037756Y016164D02*
Y016282D01*
X037697Y016488D02*
X037815D01*
X037756Y016429D02*
Y016547D01*
X037697Y014207D02*
X037815D01*
X037756Y014148D02*
Y014266D01*
X037697Y015984D02*
X037815D01*
X037756Y015925D02*
Y016043D01*
X037697Y01543D02*
X037815D01*
X037756Y015371D02*
Y015489D01*
X037697Y01572D02*
X037815D01*
X037756Y015661D02*
Y015779D01*
X037697Y015099D02*
X037815D01*
X037756Y01504D02*
Y015158D01*
X037697Y013875D02*
X037815D01*
X037756Y013816D02*
Y013934D01*
X037697Y014496D02*
X037815D01*
X037756Y014437D02*
Y014555D01*
X037697Y014769D02*
X037815D01*
X037756Y01471D02*
Y014828D01*
X037084Y013602D02*
X037203D01*
X037143Y013543D02*
Y013661D01*
X037382Y013602D02*
X0375D01*
X037441Y013543D02*
Y013661D01*
X037084Y014496D02*
X037203D01*
X037143Y014437D02*
Y014555D01*
X037084Y014769D02*
X037203D01*
X037143Y01471D02*
Y014828D01*
X037382Y014769D02*
X0375D01*
X037441Y01471D02*
Y014828D01*
X037382Y014496D02*
X0375D01*
X037441Y014437D02*
Y014555D01*
X037382Y013875D02*
X0375D01*
X037441Y013816D02*
Y013934D01*
X037084Y013875D02*
X037203D01*
X037143Y013816D02*
Y013934D01*
X037084Y015099D02*
X037203D01*
X037143Y01504D02*
Y015158D01*
X037382Y015099D02*
X0375D01*
X037441Y01504D02*
Y015158D01*
X037084Y01543D02*
X037203D01*
X037143Y015371D02*
Y015489D01*
X037382Y01572D02*
X0375D01*
X037441Y015661D02*
Y015779D01*
X037382Y01543D02*
X0375D01*
X037441Y015371D02*
Y015489D01*
X037382Y015984D02*
X0375D01*
X037441Y015925D02*
Y016043D01*
X037084Y015984D02*
X037203D01*
X037143Y015925D02*
Y016043D01*
X037084Y01572D02*
X037203D01*
X037143Y015661D02*
Y015779D01*
X037084Y014207D02*
X037203D01*
X037143Y014148D02*
Y014266D01*
X037382Y014207D02*
X0375D01*
X037441Y014148D02*
Y014266D01*
X037084Y016488D02*
X037203D01*
X037143Y016429D02*
Y016547D01*
X037382Y016488D02*
X0375D01*
X037441Y016429D02*
Y016547D01*
X037382Y016223D02*
X0375D01*
X037441Y016164D02*
Y016282D01*
X037084Y017382D02*
X037203D01*
X037143Y017323D02*
Y017441D01*
X037084Y017655D02*
X037203D01*
X037143Y017596D02*
Y017714D01*
X037382Y017655D02*
X0375D01*
X037441Y017596D02*
Y017714D01*
X037382Y017382D02*
X0375D01*
X037441Y017323D02*
Y017441D01*
X037382Y016761D02*
X0375D01*
X037441Y016702D02*
Y01682D01*
X037084Y016761D02*
X037203D01*
X037143Y016702D02*
Y01682D01*
X037084Y017973D02*
X037203D01*
X037143Y017914D02*
Y018032D01*
X037382Y017973D02*
X0375D01*
X037441Y017914D02*
Y018032D01*
X037084Y018304D02*
X037203D01*
X037143Y018245D02*
Y018363D01*
X037382Y018594D02*
X0375D01*
X037441Y018535D02*
Y018653D01*
X037382Y018304D02*
X0375D01*
X037441Y018245D02*
Y018363D01*
X037382Y018858D02*
X0375D01*
X037441Y018799D02*
Y018917D01*
X037084Y018858D02*
X037203D01*
X037143Y018799D02*
Y018917D01*
X037084Y018594D02*
X037203D01*
X037143Y018535D02*
Y018653D01*
X037084Y017093D02*
X037203D01*
X037143Y017034D02*
Y017152D01*
X037382Y017093D02*
X0375D01*
X037441Y017034D02*
Y017152D01*
X037084Y016211D02*
X037203D01*
X037143Y016152D02*
Y01627D01*
X039738Y021273D02*
X039856D01*
X039797Y021214D02*
Y021332D01*
X039501Y021096D02*
X039619D01*
X03956Y021037D02*
Y021155D01*
X039731Y020866D02*
X039849D01*
X03979Y020807D02*
Y020925D01*
X035453Y019488D02*
X035571D01*
X035512Y019429D02*
Y019547D01*
X03502Y019055D02*
X035138D01*
X035079Y018996D02*
Y019114D01*
X034819Y018846D02*
X034937D01*
X034878Y018787D02*
Y018905D01*
X034114Y01815D02*
X034232D01*
X034173Y018091D02*
Y018209D01*
X034599Y018636D02*
X034717D01*
X034658Y018577D02*
Y018695D01*
X034362Y018407D02*
X03448D01*
X034421Y018348D02*
Y018466D01*
X033748Y017953D02*
X033866D01*
X033807Y017894D02*
Y018012D01*
X033566Y017756D02*
X033684D01*
X033625Y017697D02*
Y017815D01*
X033748Y018379D02*
X033866D01*
X033807Y01832D02*
Y018438D01*
X03412Y018576D02*
X034238D01*
X034179Y018517D02*
Y018635D01*
X034565Y01903D02*
X034683D01*
X034624Y018971D02*
Y019089D01*
X034317Y018773D02*
X034435D01*
X034376Y018714D02*
Y018832D01*
X035022Y019469D02*
X03514D01*
X035081Y01941D02*
Y019528D01*
X035223Y019678D02*
X035341D01*
X035282Y019619D02*
Y019737D01*
X033566Y018182D02*
X033684D01*
X033625Y018123D02*
Y018241D01*
X034272Y017165D02*
X03439D01*
X034331Y017106D02*
Y017224D01*
X034307Y016759D02*
X034425D01*
X034366Y0167D02*
Y016818D01*
X033602Y016063D02*
X03372D01*
X033661Y016004D02*
Y016122D01*
X03385Y016293D02*
X033968D01*
X033909Y016233D02*
Y016352D01*
X033372Y016293D02*
X03349D01*
X033431Y016233D02*
Y016352D01*
X033609Y016489D02*
X033727D01*
X033668Y01643D02*
Y016548D01*
X034053Y016944D02*
X034171D01*
X034112Y016885D02*
Y017003D01*
X033805Y016686D02*
X033923D01*
X033864Y016627D02*
Y016745D01*
X037067Y019173D02*
X037185D01*
X037126Y019114D02*
Y019232D01*
X035262Y017867D02*
X03538D01*
X035321Y017808D02*
Y017926D01*
X035026Y01767D02*
X035144D01*
X035085Y017611D02*
Y01773D01*
X035892Y018458D02*
X03601D01*
X035951Y018399D02*
Y018517D01*
X03614Y018715D02*
X036258D01*
X036199Y018656D02*
Y018775D01*
X035695Y018261D02*
X035813D01*
X035754Y018202D02*
Y01832D01*
X035459Y018064D02*
X035577D01*
X035518Y018005D02*
Y018123D01*
X035256Y017441D02*
X035374D01*
X035315Y017382D02*
Y0175D01*
X035492Y017638D02*
X03561D01*
X035551Y017579D02*
Y017697D01*
X035937Y018092D02*
X036055D01*
X035996Y018033D02*
Y018151D01*
X036174Y018321D02*
X036292D01*
X036233Y018262D02*
Y01838D01*
X035689Y017835D02*
X035807D01*
X035748Y017776D02*
Y017894D01*
X036394Y018531D02*
X036512D01*
X036453Y018472D02*
Y01859D01*
X036358Y018937D02*
X036476D01*
X036417Y018878D02*
Y018996D01*
X038406Y020866D02*
X038524D01*
X038465Y020807D02*
Y020925D01*
X039272Y02126D02*
X03939D01*
X039331Y021201D02*
Y021319D01*
X039756Y021746D02*
X039874D01*
X039815Y021687D02*
Y021805D01*
X03952Y021517D02*
X039638D01*
X039579Y021458D02*
Y021576D01*
X039075Y021096D02*
X039193D01*
X039134Y021037D02*
Y021155D01*
X03876Y020866D02*
X038878D01*
X038819Y020807D02*
Y020925D01*
X039042Y021489D02*
X03916D01*
X039101Y02143D02*
Y021548D01*
X039278Y021686D02*
X039396D01*
X039337Y021627D02*
Y021745D01*
X038609Y021096D02*
X038727D01*
X038668Y021037D02*
Y021155D01*
X038845Y021293D02*
X038963D01*
X038904Y021233D02*
Y021352D01*
X03876Y020669D02*
X038878D01*
X038819Y02061D02*
Y020728D01*
X038484Y020433D02*
X038602D01*
X038543Y020374D02*
Y020492D01*
X037736Y019764D02*
X037854D01*
X037795Y019705D02*
Y019823D01*
X038221Y02025D02*
X038339D01*
X03828Y020191D02*
Y020309D01*
X037984Y020021D02*
X038102D01*
X038043Y019962D02*
Y02008D01*
X037539Y019567D02*
X037657D01*
X037598Y019508D02*
Y019626D01*
X037303Y01937D02*
X037421D01*
X037362Y019311D02*
Y019429D01*
X037506Y019993D02*
X037624D01*
X037565Y019934D02*
Y020052D01*
X037742Y02019D02*
X03786D01*
X037801Y020131D02*
Y020249D01*
X038187Y020645D02*
X038305D01*
X038246Y020586D02*
Y020704D01*
X037939Y020387D02*
X038057D01*
X037998Y020328D02*
Y020446D01*
X037073Y0196D02*
X037191D01*
X037132Y019541D02*
Y019659D01*
X037309Y019796D02*
X037427D01*
X037368Y019737D02*
Y019856D01*
X035683Y019692D02*
X035801D01*
X035742Y019633D02*
Y019751D01*
X035919Y019889D02*
X036037D01*
X035978Y01983D02*
Y019948D01*
X036364Y020343D02*
X036482D01*
X036423Y020284D02*
Y020402D01*
X036601Y020571D02*
X036719D01*
X03666Y020512D02*
Y020631D01*
X036116Y020085D02*
X036234D01*
X036175Y020026D02*
Y020144D01*
X03682Y020782D02*
X036939D01*
X036879Y020723D02*
Y020841D01*
X037021Y020991D02*
X03714D01*
X03708Y020932D02*
Y02105D01*
X037258Y021227D02*
X037376D01*
X037317Y021168D02*
Y021286D01*
X037454Y021424D02*
X037573D01*
X037514Y021365D02*
Y021483D01*
X037651Y021621D02*
X037769D01*
X03771Y021562D02*
Y02168D01*
X037848Y021818D02*
X037966D01*
X037907Y021759D02*
Y021877D01*
X036083Y030315D02*
X036201D01*
X036142Y030256D02*
Y030374D01*
X032918Y030327D02*
X033036D01*
X032977Y030268D02*
Y030386D01*
X034342Y030327D02*
X03446D01*
X034401Y030268D02*
Y030386D01*
X03265Y030327D02*
X032768D01*
X032709Y030268D02*
Y030386D01*
X033788Y030327D02*
X033906D01*
X033847Y030268D02*
Y030386D01*
X034078Y030327D02*
X034196D01*
X034137Y030268D02*
Y030386D01*
X033181Y030327D02*
X033299D01*
X03324Y030268D02*
Y030386D01*
X037461Y029311D02*
X037579D01*
X03752Y029252D02*
Y02937D01*
X037725Y029311D02*
X037843D01*
X037784Y029252D02*
Y02937D01*
X037202Y029311D02*
X03732D01*
X037261Y029252D02*
Y02937D01*
X038453Y030038D02*
X038571D01*
X038512Y029979D02*
Y030097D01*
X037972Y030039D02*
X038091D01*
X038031Y02998D02*
Y030098D01*
X038237Y030039D02*
X038355D01*
X038296Y02998D02*
Y030098D01*
X041083Y028512D02*
X041201D01*
X041142Y028453D02*
Y028571D01*
X041083Y028777D02*
X041201D01*
X041142Y028718D02*
Y028836D01*
X041634Y026222D02*
X041752D01*
X041693Y026163D02*
Y026281D01*
X042252Y02501D02*
X04237D01*
X042311Y024951D02*
Y025069D01*
X041963Y02501D02*
X042081D01*
X042022Y024951D02*
Y025069D01*
X041634Y02501D02*
X041753D01*
X041693Y024951D02*
Y025069D01*
X042579Y02501D02*
X042697D01*
X042638Y024951D02*
Y025069D01*
X042854Y02501D02*
X042972D01*
X042913Y024951D02*
Y025069D01*
X042579Y0253D02*
X042697D01*
X042638Y025241D02*
Y025359D01*
X041634Y025573D02*
X041753D01*
X041693Y025514D02*
Y025632D01*
X041963Y025573D02*
X042081D01*
X042022Y025514D02*
Y025632D01*
X042252Y025573D02*
X04237D01*
X042311Y025514D02*
Y025632D01*
X042252Y0253D02*
X04237D01*
X042311Y025241D02*
Y025359D01*
X041963Y0253D02*
X042081D01*
X042022Y025241D02*
Y025359D01*
X041634Y0253D02*
X041753D01*
X041693Y025241D02*
Y025359D01*
X041963Y02589D02*
X042081D01*
X042022Y025831D02*
Y025949D01*
X041634Y02589D02*
X041753D01*
X041693Y025831D02*
Y025949D01*
X041329Y026487D02*
X041447D01*
X041388Y026428D02*
Y026546D01*
X041329Y026222D02*
X041447D01*
X041388Y026163D02*
Y026281D01*
X041039Y026222D02*
X041158D01*
X041098Y026163D02*
Y026281D01*
X041039Y026487D02*
X041158D01*
X041098Y026428D02*
Y026546D01*
X041329Y02589D02*
X041447D01*
X041388Y025831D02*
Y025949D01*
X041039Y02589D02*
X041158D01*
X041098Y025831D02*
Y025949D01*
X041039Y0253D02*
X041158D01*
X041098Y025241D02*
Y025359D01*
X041329Y0253D02*
X041447D01*
X041388Y025241D02*
Y025359D01*
X041329Y025573D02*
X041447D01*
X041388Y025514D02*
Y025632D01*
X041039Y025573D02*
X041158D01*
X041098Y025514D02*
Y025632D01*
X041039Y026752D02*
X041158D01*
X041098Y026693D02*
Y026811D01*
X041476Y021024D02*
X041594D01*
X041535Y020965D02*
Y021083D01*
X042081Y021024D02*
X0422D01*
X04214Y020965D02*
Y021083D01*
X04175Y021024D02*
X041868D01*
X041809Y020965D02*
Y021083D01*
X041476Y020748D02*
X041594D01*
X041535Y020689D02*
Y020807D01*
X042081Y020748D02*
X0422D01*
X04214Y020689D02*
Y020807D01*
X04175Y020748D02*
X041868D01*
X041809Y020689D02*
Y020807D01*
X040571Y021024D02*
X040689D01*
X04063Y020965D02*
Y021083D01*
X041176Y021024D02*
X041294D01*
X041235Y020965D02*
Y021083D01*
X040844Y021024D02*
X040962D01*
X040903Y020965D02*
Y021083D01*
X040571Y020748D02*
X040689D01*
X04063Y020689D02*
Y020807D01*
X041176Y020748D02*
X041294D01*
X041235Y020689D02*
Y020807D01*
X040844Y020748D02*
X040962D01*
X040903Y020689D02*
Y020807D01*
X041476Y021575D02*
X041594D01*
X041535Y021516D02*
Y021634D01*
X042081Y021575D02*
X0422D01*
X04214Y021516D02*
Y021634D01*
X04175Y021575D02*
X041868D01*
X041809Y021516D02*
Y021634D01*
X041476Y021299D02*
X041594D01*
X041535Y02124D02*
Y021358D01*
X042081Y021299D02*
X0422D01*
X04214Y02124D02*
Y021358D01*
X04175Y021299D02*
X041868D01*
X041809Y02124D02*
Y021358D01*
X040571Y021575D02*
X040689D01*
X04063Y021516D02*
Y021634D01*
X041176Y021575D02*
X041294D01*
X041235Y021516D02*
Y021634D01*
X040844Y021575D02*
X040962D01*
X040903Y021516D02*
Y021634D01*
X040571Y021299D02*
X040689D01*
X04063Y02124D02*
Y021358D01*
X041176Y021299D02*
X041294D01*
X041235Y02124D02*
Y021358D01*
X040844Y021299D02*
X040962D01*
X040903Y02124D02*
Y021358D01*
X045465Y019909D02*
X045583D01*
X045524Y01985D02*
Y019968D01*
X045753Y019687D02*
X045871D01*
X045812Y019628D02*
Y019746D01*
X04547Y019687D02*
X045588D01*
X045529Y019628D02*
Y019746D01*
X029114Y035984D02*
X029232D01*
X029173Y035925D02*
Y036043D01*
X016555Y036614D02*
X016673D01*
X016614Y036555D02*
Y036673D01*
X016555Y036969D02*
X016673D01*
X016614Y036909D02*
Y037028D01*
X016555Y037283D02*
X016673D01*
X016614Y037224D02*
Y037343D01*
X01935Y036929D02*
X019468D01*
X019409Y03687D02*
Y036988D01*
X01935Y037283D02*
X019468D01*
X019409Y037224D02*
Y037343D01*
X016831Y037283D02*
X016949D01*
X01689Y037224D02*
Y037343D01*
X017146Y037283D02*
X017264D01*
X017205Y037224D02*
Y037343D01*
X017461Y037283D02*
X017579D01*
X01752Y037224D02*
Y037343D01*
X017776Y037283D02*
X017894D01*
X017835Y037224D02*
Y037343D01*
X018091Y037283D02*
X018209D01*
X01815Y037224D02*
Y037343D01*
X018406Y037283D02*
X018524D01*
X018465Y037224D02*
Y037343D01*
X01872Y037283D02*
X018839D01*
X01878Y037224D02*
Y037343D01*
X019035Y037283D02*
X019154D01*
X019094Y037224D02*
Y037343D01*
X016831Y036969D02*
X016949D01*
X01689Y036909D02*
Y037028D01*
X017146Y036969D02*
X017264D01*
X017205Y036909D02*
Y037028D01*
X017461Y036969D02*
X017579D01*
X01752Y036909D02*
Y037028D01*
X017776Y036969D02*
X017894D01*
X017835Y036909D02*
Y037028D01*
X018091Y036969D02*
X018209D01*
X01815Y036909D02*
Y037028D01*
X018406Y036969D02*
X018524D01*
X018465Y036909D02*
Y037028D01*
X01872Y036969D02*
X018839D01*
X01878Y036909D02*
Y037028D01*
X019035Y036969D02*
X019154D01*
X019094Y036909D02*
Y037028D01*
X016831Y036614D02*
X016949D01*
X01689Y036555D02*
Y036673D01*
X017146Y036614D02*
X017264D01*
X017205Y036555D02*
Y036673D01*
X017461Y036614D02*
X017579D01*
X01752Y036555D02*
Y036673D01*
X017776Y036614D02*
X017894D01*
X017835Y036555D02*
Y036673D01*
X018091Y036614D02*
X018209D01*
X01815Y036555D02*
Y036673D01*
X018406Y036614D02*
X018524D01*
X018465Y036555D02*
Y036673D01*
X01872Y036614D02*
X018839D01*
X01878Y036555D02*
Y036673D01*
X019035Y036614D02*
X019154D01*
X019094Y036555D02*
Y036673D01*
X028799Y035984D02*
X028917D01*
X028858Y035925D02*
Y036043D01*
X028484Y035984D02*
X028602D01*
X028543Y035925D02*
Y036043D01*
X024705Y036299D02*
X024823D01*
X024764Y03624D02*
Y036358D01*
X02502Y036299D02*
X025138D01*
X025079Y03624D02*
Y036358D01*
X025335Y036299D02*
X025453D01*
X025394Y03624D02*
Y036358D01*
X02565Y036299D02*
X025768D01*
X025709Y03624D02*
Y036358D01*
X025965Y036299D02*
X026083D01*
X026024Y03624D02*
Y036358D01*
X02628Y036299D02*
X026398D01*
X026339Y03624D02*
Y036358D01*
X026594Y036299D02*
X026713D01*
X026654Y03624D02*
Y036358D01*
X026909Y036299D02*
X027028D01*
X026969Y03624D02*
Y036358D01*
X027224Y036299D02*
X027343D01*
X027283Y03624D02*
Y036358D01*
X027539Y036299D02*
X027657D01*
X027598Y03624D02*
Y036358D01*
X027854Y036299D02*
X027972D01*
X027913Y03624D02*
Y036358D01*
X028169Y036299D02*
X028287D01*
X028228Y03624D02*
Y036358D01*
X028484Y036299D02*
X028602D01*
X028543Y03624D02*
Y036358D01*
X028799Y036299D02*
X028917D01*
X028858Y03624D02*
Y036358D01*
X02439Y036299D02*
X024508D01*
X024449Y03624D02*
Y036358D01*
X024075Y036299D02*
X024193D01*
X024134Y03624D02*
Y036358D01*
X02376Y036299D02*
X023878D01*
X023819Y03624D02*
Y036358D01*
X023445Y036299D02*
X023563D01*
X023504Y03624D02*
Y036358D01*
X02313Y036299D02*
X023248D01*
X023189Y03624D02*
Y036358D01*
X022815Y036299D02*
X022933D01*
X022874Y03624D02*
Y036358D01*
X0225Y036299D02*
X022618D01*
X022559Y03624D02*
Y036358D01*
X022185Y036299D02*
X022303D01*
X022244Y03624D02*
Y036358D01*
X02187Y036299D02*
X021988D01*
X021929Y03624D02*
Y036358D01*
X021555Y036299D02*
X021673D01*
X021614Y03624D02*
Y036358D01*
X02124Y036299D02*
X021358D01*
X021299Y03624D02*
Y036358D01*
X020925Y036299D02*
X021043D01*
X020984Y03624D02*
Y036358D01*
X02061Y036299D02*
X020728D01*
X020669Y03624D02*
Y036358D01*
X020295Y036299D02*
X020413D01*
X020354Y03624D02*
Y036358D01*
X01998Y036299D02*
X020098D01*
X020039Y03624D02*
Y036358D01*
X019665Y036299D02*
X019783D01*
X019724Y03624D02*
Y036358D01*
X01935Y036299D02*
X019468D01*
X019409Y03624D02*
Y036358D01*
X019035Y036299D02*
X019154D01*
X019094Y03624D02*
Y036358D01*
X01872Y036299D02*
X018839D01*
X01878Y03624D02*
Y036358D01*
X018406Y036299D02*
X018524D01*
X018465Y03624D02*
Y036358D01*
X018091Y036299D02*
X018209D01*
X01815Y03624D02*
Y036358D01*
X017776Y036299D02*
X017894D01*
X017835Y03624D02*
Y036358D01*
X017461Y036299D02*
X017579D01*
X01752Y03624D02*
Y036358D01*
X017146Y036299D02*
X017264D01*
X017205Y03624D02*
Y036358D01*
X016831Y036299D02*
X016949D01*
X01689Y03624D02*
Y036358D01*
X031337Y043018D02*
X031455D01*
X031396Y042959D02*
Y043077D01*
X031316Y04203D02*
X031435D01*
X031376Y041971D02*
Y042089D01*
X031316Y042345D02*
X031435D01*
X031376Y042286D02*
Y042404D01*
X031316Y0427D02*
X031435D01*
X031376Y042641D02*
Y042759D01*
X031316Y041714D02*
X031435D01*
X031376Y041655D02*
Y041773D01*
X031316Y041417D02*
X031435D01*
X031376Y041358D02*
Y041476D01*
X031316Y041141D02*
X031435D01*
X031376Y041082D02*
Y0412D01*
X031316Y040631D02*
X031435D01*
X031376Y040572D02*
Y04069D01*
X031316Y040354D02*
X031435D01*
X031376Y040295D02*
Y040413D01*
X031316Y039764D02*
X031435D01*
X031376Y039705D02*
Y039823D01*
X031316Y040079D02*
X031435D01*
X031376Y04002D02*
Y040138D01*
X031316Y039448D02*
X031435D01*
X031376Y039389D02*
Y039507D01*
X031316Y039151D02*
X031435D01*
X031376Y039092D02*
Y03921D01*
X031316Y038874D02*
X031435D01*
X031376Y038815D02*
Y038933D01*
X032124Y032559D02*
X032242D01*
X032183Y0325D02*
Y032618D01*
X032124Y031938D02*
X032242D01*
X032183Y031879D02*
Y031997D01*
X032124Y032824D02*
X032242D01*
X032183Y032764D02*
Y032883D01*
X032124Y03308D02*
X032242D01*
X032183Y033021D02*
Y033139D01*
X032124Y03227D02*
X032242D01*
X032183Y03221D02*
Y032329D01*
X032124Y031662D02*
X032242D01*
X032183Y031603D02*
Y031721D01*
X031831Y031668D02*
X031949D01*
X03189Y031609D02*
Y031727D01*
X031831Y032275D02*
X031949D01*
X03189Y032216D02*
Y032334D01*
X031831Y033085D02*
X031949D01*
X03189Y033026D02*
Y033144D01*
X031831Y032829D02*
X031949D01*
X03189Y03277D02*
Y032888D01*
X031831Y031944D02*
X031949D01*
X03189Y031885D02*
Y032003D01*
X031831Y032565D02*
X031949D01*
X03189Y032506D02*
Y032624D01*
X041673Y034055D02*
X041791D01*
X041732Y033996D02*
Y034114D01*
X041673Y03378D02*
X041791D01*
X041732Y03372D02*
Y033839D01*
X043411Y03378D02*
X043529D01*
X04347Y03372D02*
Y033839D01*
X044296Y03378D02*
X044415D01*
X044356Y03372D02*
Y033839D01*
X044032Y03378D02*
X04415D01*
X044091Y03372D02*
Y033839D01*
X043742Y03378D02*
X043861D01*
X043802Y03372D02*
Y033839D01*
X043091Y03378D02*
X043209D01*
X04315Y03372D02*
Y033839D01*
X04228Y03378D02*
X042399D01*
X04234Y03372D02*
Y033839D01*
X04257Y03378D02*
X042688D01*
X042629Y03372D02*
Y033839D01*
X041949Y03378D02*
X042067D01*
X042008Y03372D02*
Y033839D01*
X042834Y03378D02*
X042953D01*
X042893Y03372D02*
Y033839D01*
X044547Y03378D02*
X044665D01*
X044606Y03372D02*
Y033839D01*
X043411Y034055D02*
X043529D01*
X04347Y033996D02*
Y034114D01*
X044296Y034055D02*
X044415D01*
X044356Y033996D02*
Y034114D01*
X044032Y034055D02*
X04415D01*
X044091Y033996D02*
Y034114D01*
X043742Y034055D02*
X043861D01*
X043802Y033996D02*
Y034114D01*
X043091Y034055D02*
X043209D01*
X04315Y033996D02*
Y034114D01*
X04228Y034055D02*
X042399D01*
X04234Y033996D02*
Y034114D01*
X04257Y034055D02*
X042688D01*
X042629Y033996D02*
Y034114D01*
X041949Y034055D02*
X042067D01*
X042008Y033996D02*
Y034114D01*
X042834Y034055D02*
X042953D01*
X042893Y033996D02*
Y034114D01*
X044547Y034055D02*
X044665D01*
X044606Y033996D02*
Y034114D01*
X045065Y030854D02*
X045183D01*
X045124Y030795D02*
Y030913D01*
X045305Y030855D02*
X045423D01*
X045364Y030796D02*
Y030914D01*
X045299Y031064D02*
X045417D01*
X045358Y031005D02*
Y031123D01*
X044983Y032721D02*
X045101D01*
X045042Y032662D02*
Y03278D01*
X044983Y03226D02*
X045101D01*
X045042Y032201D02*
Y032319D01*
X038669Y034028D02*
X038787D01*
X038728Y033969D02*
Y034087D01*
X038433Y034028D02*
X038551D01*
X038492Y033969D02*
Y034087D01*
X037685Y041232D02*
X037803D01*
X037744Y041173D02*
Y041291D01*
X03737Y041232D02*
X037488D01*
X037429Y041173D02*
Y041291D01*
X037055Y041232D02*
X037173D01*
X037114Y041173D02*
Y041291D01*
X037101Y044233D02*
X037219D01*
X03716Y044174D02*
Y044292D01*
X038416Y043898D02*
X038534D01*
X038475Y043839D02*
Y043957D01*
X037687Y040111D02*
X037805D01*
X037746Y040052D02*
Y04017D01*
X047466Y035106D02*
X047584D01*
X047525Y035047D02*
Y035165D01*
X046865Y035106D02*
X046983D01*
X046924Y035047D02*
Y035165D01*
X046572Y035106D02*
X04669D01*
X046631Y035047D02*
Y035165D01*
X046044Y035106D02*
X046162D01*
X046103Y035047D02*
Y035165D01*
X046308Y035106D02*
X046427D01*
X046368Y035047D02*
Y035165D01*
X047189Y035106D02*
X047307D01*
X047248Y035047D02*
Y035165D01*
X047318Y03598D02*
X047436D01*
X047377Y035921D02*
Y036039D01*
X045571Y035981D02*
X045689D01*
X04563Y035922D02*
Y03604D01*
X045571Y036263D02*
X045689D01*
X04563Y036204D02*
Y036322D01*
X047002Y036263D02*
X047121D01*
X047061Y036204D02*
Y036322D01*
X04671Y036263D02*
X046828D01*
X046769Y036204D02*
Y036322D01*
X045892Y036263D02*
X04601D01*
X045951Y036204D02*
Y036322D01*
X046181Y036263D02*
X0463D01*
X046241Y036204D02*
Y036322D01*
X046446Y036263D02*
X046564D01*
X046505Y036204D02*
Y036322D01*
X046446Y035981D02*
X046564D01*
X046505Y035922D02*
Y03604D01*
X046181Y035981D02*
X0463D01*
X046241Y035922D02*
Y03604D01*
X045892Y035981D02*
X04601D01*
X045951Y035922D02*
Y03604D01*
X04671Y035981D02*
X046828D01*
X046769Y035922D02*
Y03604D01*
X047002Y035981D02*
X047121D01*
X047061Y035922D02*
Y03604D01*
X047406Y037005D02*
X047525D01*
X047465Y036946D02*
Y037064D01*
X047114Y037005D02*
X047232D01*
X047173Y036946D02*
Y037064D01*
X046296Y037005D02*
X046414D01*
X046355Y036946D02*
Y037064D01*
X046585Y037005D02*
X046704D01*
X046645Y036946D02*
Y037064D01*
X04685Y037005D02*
X046968D01*
X046909Y036946D02*
Y037064D01*
X04685Y037283D02*
X046968D01*
X046909Y037224D02*
Y037343D01*
X046585Y037283D02*
X046704D01*
X046645Y037224D02*
Y037343D01*
X046296Y037283D02*
X046414D01*
X046355Y037224D02*
Y037343D01*
X047114Y037283D02*
X047232D01*
X047173Y037224D02*
Y037343D01*
X043111Y035984D02*
X043229D01*
X04317Y035925D02*
Y036043D01*
X042226Y035984D02*
X042344D01*
X042285Y035925D02*
Y036043D01*
X042846Y035984D02*
X042965D01*
X042906Y035925D02*
Y036043D01*
X042557Y035984D02*
X042675D01*
X042616Y035925D02*
Y036043D01*
X041914Y035984D02*
X042032D01*
X041973Y035925D02*
Y036043D01*
X043399Y035984D02*
X043517D01*
X043458Y035925D02*
Y036043D01*
X043607Y035789D02*
X043725D01*
X043666Y03573D02*
Y035848D01*
X045316Y037524D02*
X045434D01*
X045375Y037465D02*
Y037583D01*
X044783Y037008D02*
X044902D01*
X044843Y036949D02*
Y037067D01*
X044719Y03729D02*
X044837D01*
X044778Y037231D02*
Y037349D01*
X045037Y037278D02*
X045155D01*
X045096Y037219D02*
Y037337D01*
X044916Y037536D02*
X045034D01*
X044975Y037476D02*
Y037595D01*
X044584Y037536D02*
X044703D01*
X044644Y037476D02*
Y037595D01*
X044996Y037783D02*
X045114D01*
X045055Y037724D02*
Y037842D01*
X045285Y037783D02*
X045403D01*
X045344Y037724D02*
Y037842D01*
X044664Y037783D02*
X044782D01*
X044723Y037724D02*
Y037842D01*
X04555Y037783D02*
X045668D01*
X045609Y037724D02*
Y037842D01*
X047426Y038268D02*
X047544D01*
X047485Y038209D02*
Y038327D01*
X045679Y038268D02*
X045797D01*
X045738Y038209D02*
Y038327D01*
X044793Y038268D02*
X044911D01*
X044852Y038209D02*
Y038327D01*
X045414Y038268D02*
X045532D01*
X045473Y038209D02*
Y038327D01*
X045125Y038268D02*
X045243D01*
X045184Y038209D02*
Y038327D01*
X045965Y038268D02*
X046083D01*
X046024Y038209D02*
Y038327D01*
X045679Y038033D02*
X045797D01*
X045738Y037974D02*
Y038092D01*
X044793Y038033D02*
X044911D01*
X044852Y037974D02*
Y038092D01*
X045414Y038033D02*
X045532D01*
X045473Y037974D02*
Y038092D01*
X045125Y038033D02*
X045243D01*
X045184Y037974D02*
Y038092D01*
X045965Y038033D02*
X046083D01*
X046024Y037974D02*
Y038092D01*
X046617Y038268D02*
X046735D01*
X046676Y038209D02*
Y038327D01*
X046906Y038268D02*
X047024D01*
X046965Y038209D02*
Y038327D01*
X047171Y038268D02*
X047289D01*
X04723Y038209D02*
Y038327D01*
X046285Y038268D02*
X046403D01*
X046344Y038209D02*
Y038327D01*
X046617Y038033D02*
X046735D01*
X046676Y037974D02*
Y038092D01*
X046906Y038033D02*
X047024D01*
X046965Y037974D02*
Y038092D01*
X046285Y038033D02*
X046403D01*
X046344Y037974D02*
Y038092D01*
X047171Y038033D02*
X047289D01*
X04723Y037974D02*
Y038092D01*
X043341Y040092D02*
X043459D01*
X0434Y040033D02*
Y040151D01*
X043341Y04039D02*
X043459D01*
X0434Y040331D02*
Y040449D01*
X043009Y04039D02*
X043127D01*
X043068Y040331D02*
Y040449D01*
X043646Y04039D02*
X043764D01*
X043705Y040331D02*
Y040449D01*
X043646Y040092D02*
X043764D01*
X043705Y040033D02*
Y040151D01*
X043978Y04039D02*
X044096D01*
X044037Y040331D02*
Y040449D01*
X044267Y040092D02*
X044385D01*
X044326Y040033D02*
Y040151D01*
X043978Y040092D02*
X044096D01*
X044037Y040033D02*
Y040151D01*
X044267Y04039D02*
X044385D01*
X044326Y040331D02*
Y040449D01*
X044567Y04039D02*
X044686D01*
X044626Y040331D02*
Y040449D01*
X044567Y040092D02*
X044686D01*
X044626Y040033D02*
Y040151D01*
X044899Y04039D02*
X045017D01*
X044958Y040331D02*
Y040449D01*
X045188Y040092D02*
X045306D01*
X045247Y040033D02*
Y040151D01*
X044899Y040092D02*
X045017D01*
X044958Y040033D02*
Y040151D01*
X045188Y04039D02*
X045306D01*
X045247Y040331D02*
Y040449D01*
X047028Y043543D02*
X047146D01*
X047087Y043484D02*
Y043602D01*
X047204Y043314D02*
X047322D01*
X047263Y043255D02*
Y043373D01*
X0475Y043583D02*
X047618D01*
X047559Y043524D02*
Y043642D01*
X0475Y043307D02*
X047618D01*
X047559Y043248D02*
Y043366D01*
X048752Y045855D02*
X04887D01*
X048811Y045796D02*
Y045914D01*
X048659Y045572D02*
X048777D01*
X048718Y045513D02*
Y045631D01*
X048558Y046002D02*
X048676D01*
X048617Y045943D02*
Y046061D01*
X048504Y045106D02*
X048622D01*
X048563Y045047D02*
Y045165D01*
X047951Y044358D02*
X048069D01*
X04801Y044299D02*
Y044417D01*
X048735Y04187D02*
X048853D01*
X048794Y041811D02*
Y041929D01*
X046096Y04039D02*
X046215D01*
X046155Y040331D02*
Y040449D01*
X045807Y040092D02*
X045925D01*
X045866Y040033D02*
Y040151D01*
X046096Y040092D02*
X046215D01*
X046155Y040033D02*
Y040151D01*
X045807Y04039D02*
X045925D01*
X045866Y040331D02*
Y040449D01*
X045476Y040092D02*
X045594D01*
X045535Y040033D02*
Y040151D01*
X045476Y04039D02*
X045594D01*
X045535Y040331D02*
Y040449D01*
X047838Y042435D02*
X047956D01*
X047897Y042376D02*
Y042494D01*
X047838Y043026D02*
X047956D01*
X047897Y042967D02*
Y043085D01*
X047838Y043301D02*
X047956D01*
X047897Y043242D02*
Y04336D01*
X047838Y043616D02*
X047956D01*
X047897Y043557D02*
Y043675D01*
X047838Y042711D02*
X047956D01*
X047897Y042652D02*
Y04277D01*
X047838Y04187D02*
X047956D01*
X047897Y041811D02*
Y041929D01*
X047838Y042145D02*
X047956D01*
X047897Y042086D02*
Y042204D01*
X048723Y044664D02*
X048841D01*
X048782Y044605D02*
Y044723D01*
X048459Y044403D02*
X048577D01*
X048518Y044344D02*
Y044463D01*
X048723Y044396D02*
X048841D01*
X048782Y044337D02*
Y044455D01*
X048723Y044134D02*
X048841D01*
X048782Y044075D02*
Y044193D01*
X048459Y044134D02*
X048577D01*
X048518Y044075D02*
Y044193D01*
X048169Y042717D02*
X048287D01*
X048228Y042657D02*
Y042776D01*
X048459Y042441D02*
X048577D01*
X048518Y042382D02*
Y0425D01*
X048169Y042441D02*
X048287D01*
X048228Y042382D02*
Y0425D01*
X048459Y042145D02*
X048577D01*
X048518Y042086D02*
Y042204D01*
X048169Y042145D02*
X048287D01*
X048228Y042086D02*
Y042204D01*
X048169Y04187D02*
X048287D01*
X048228Y041811D02*
Y041929D01*
X048459Y04187D02*
X048577D01*
X048518Y041811D02*
Y041929D01*
X048723Y042145D02*
X048841D01*
X048782Y042086D02*
Y042204D01*
X048723Y042427D02*
X048841D01*
X048782Y042368D02*
Y042486D01*
X048723Y042703D02*
X048841D01*
X048782Y042644D02*
Y042762D01*
X048459Y042711D02*
X048577D01*
X048518Y042652D02*
Y04277D01*
X048169Y043898D02*
X048287D01*
X048228Y043839D02*
Y043957D01*
X048459Y043622D02*
X048577D01*
X048518Y043563D02*
Y043681D01*
X048169Y043622D02*
X048287D01*
X048228Y043563D02*
Y043681D01*
X048459Y043307D02*
X048577D01*
X048518Y043248D02*
Y043366D01*
X048169Y043307D02*
X048287D01*
X048228Y043248D02*
Y043366D01*
X048169Y043032D02*
X048287D01*
X048228Y042972D02*
Y043091D01*
X048459Y043032D02*
X048577D01*
X048518Y042972D02*
Y043091D01*
X048723Y043018D02*
X048841D01*
X048782Y042959D02*
Y043077D01*
X048723Y043294D02*
X048841D01*
X048782Y043235D02*
Y043353D01*
X048723Y043609D02*
X048841D01*
X048782Y043549D02*
Y043668D01*
X048723Y043884D02*
X048841D01*
X048782Y043825D02*
Y043943D01*
X048459Y043892D02*
X048577D01*
X048518Y043833D02*
Y043951D01*
X045466Y046333D02*
X045585D01*
X045526Y046274D02*
Y046392D01*
X045453Y047244D02*
X045571D01*
X045512Y047185D02*
Y047303D01*
X045453Y046929D02*
X045571D01*
X045512Y04687D02*
Y046988D01*
X045177Y046929D02*
X045295D01*
X045236Y04687D02*
Y046988D01*
X048545Y046237D02*
X048664D01*
X048605Y046178D02*
Y046296D01*
X04639Y04634D02*
X046508D01*
X046449Y046281D02*
Y046399D01*
X045731Y046325D02*
X045849D01*
X04579Y046266D02*
Y046384D01*
X046007Y046325D02*
X046125D01*
X046066Y046266D02*
Y046384D01*
X046007Y046049D02*
X046125D01*
X046066Y04599D02*
Y046109D01*
X045731Y046049D02*
X045849D01*
X04579Y04599D02*
Y046109D01*
X046007Y045735D02*
X046125D01*
X046066Y045675D02*
Y045794D01*
X045731Y045735D02*
X045849D01*
X04579Y045675D02*
Y045794D01*
X045731Y045459D02*
X045849D01*
X04579Y0454D02*
Y045518D01*
X045453Y045472D02*
X045571D01*
X045512Y045413D02*
Y045532D01*
X045177Y045472D02*
X045295D01*
X045236Y045413D02*
Y045532D01*
X044862Y045472D02*
X04498D01*
X044921Y045413D02*
Y045532D01*
X043878Y045472D02*
X043996D01*
X043937Y045413D02*
Y045532D01*
X044193Y045472D02*
X044311D01*
X044252Y045413D02*
Y045532D01*
X044509Y045472D02*
X044627D01*
X044568Y045413D02*
Y045532D01*
X043209Y045472D02*
X043327D01*
X043268Y045413D02*
Y045532D01*
X042894Y045472D02*
X043012D01*
X042953Y045413D02*
Y045532D01*
X043524Y045472D02*
X043642D01*
X043583Y045413D02*
Y045532D01*
X042476Y046591D02*
X042594D01*
X042535Y046532D02*
Y04665D01*
X042476Y046276D02*
X042594D01*
X042535Y046217D02*
Y046335D01*
X042476Y046D02*
X042594D01*
X042535Y045941D02*
Y04606D01*
X042161Y046D02*
X042279D01*
X04222Y045941D02*
Y04606D01*
X042476Y045686D02*
X042594D01*
X042535Y045626D02*
Y045745D01*
X042161Y045686D02*
X042279D01*
X04222Y045626D02*
Y045745D01*
X042146Y049134D02*
X042264D01*
X042205Y049075D02*
Y049193D01*
X042143Y04938D02*
X042261D01*
X042202Y049321D02*
Y049439D01*
X0425Y04748D02*
X042618D01*
X042559Y047421D02*
Y047539D01*
X0425Y04685D02*
X042618D01*
X042559Y046791D02*
Y046909D01*
X0425Y047165D02*
X042618D01*
X042559Y047106D02*
Y047224D01*
X0425Y048466D02*
X042618D01*
X042559Y048407D02*
Y048525D01*
X0425Y04815D02*
X042618D01*
X042559Y048091D02*
Y048209D01*
X0425Y047835D02*
X042618D01*
X042559Y047776D02*
Y047894D01*
X0425Y048819D02*
X042618D01*
X042559Y04876D02*
Y048878D01*
X0425Y049134D02*
X042618D01*
X042559Y049075D02*
Y049193D01*
X042497Y04938D02*
X042615D01*
X042556Y049321D02*
Y049439D01*
X043524Y045748D02*
X043642D01*
X043583Y045689D02*
Y045807D01*
X042894Y045748D02*
X043012D01*
X042953Y045689D02*
Y045807D01*
X043209Y045748D02*
X043327D01*
X043268Y045689D02*
Y045807D01*
X044509Y045748D02*
X044627D01*
X044568Y045689D02*
Y045807D01*
X044193Y045748D02*
X044311D01*
X044252Y045689D02*
Y045807D01*
X043878Y045748D02*
X043996D01*
X043937Y045689D02*
Y045807D01*
X044862Y045748D02*
X04498D01*
X044921Y045689D02*
Y045807D01*
X045177Y045748D02*
X045295D01*
X045236Y045689D02*
Y045807D01*
X045453Y045748D02*
X045571D01*
X045512Y045689D02*
Y045807D01*
X043524Y046063D02*
X043642D01*
X043583Y046004D02*
Y046122D01*
X042894Y046063D02*
X043012D01*
X042953Y046004D02*
Y046122D01*
X043209Y046063D02*
X043327D01*
X043268Y046004D02*
Y046122D01*
X044509Y046063D02*
X044627D01*
X044568Y046004D02*
Y046122D01*
X044193Y046063D02*
X044311D01*
X044252Y046004D02*
Y046122D01*
X043878Y046063D02*
X043996D01*
X043937Y046004D02*
Y046122D01*
X044862Y046063D02*
X04498D01*
X044921Y046004D02*
Y046122D01*
X045177Y046063D02*
X045295D01*
X045236Y046004D02*
Y046122D01*
X045453Y046063D02*
X045571D01*
X045512Y046004D02*
Y046122D01*
X043524Y046339D02*
X043642D01*
X043583Y04628D02*
Y046398D01*
X042894Y046339D02*
X043012D01*
X042953Y04628D02*
Y046398D01*
X043209Y046339D02*
X043327D01*
X043268Y04628D02*
Y046398D01*
X044509Y046339D02*
X044627D01*
X044568Y04628D02*
Y046398D01*
X044193Y046339D02*
X044311D01*
X044252Y04628D02*
Y046398D01*
X043878Y046339D02*
X043996D01*
X043937Y04628D02*
Y046398D01*
X044862Y046339D02*
X04498D01*
X044921Y04628D02*
Y046398D01*
X045177Y046339D02*
X045295D01*
X045236Y04628D02*
Y046398D01*
X043524Y046654D02*
X043642D01*
X043583Y046594D02*
Y046713D01*
X042894Y046654D02*
X043012D01*
X042953Y046594D02*
Y046713D01*
X043209Y046654D02*
X043327D01*
X043268Y046594D02*
Y046713D01*
X044509Y046654D02*
X044627D01*
X044568Y046594D02*
Y046713D01*
X044193Y046654D02*
X044311D01*
X044252Y046594D02*
Y046713D01*
X043878Y046654D02*
X043996D01*
X043937Y046594D02*
Y046713D01*
X044862Y046654D02*
X04498D01*
X044921Y046594D02*
Y046713D01*
X045177Y046654D02*
X045295D01*
X045236Y046594D02*
Y046713D01*
X045453Y046654D02*
X045571D01*
X045512Y046594D02*
Y046713D01*
X031673Y049058D02*
X031791D01*
X031732Y048998D02*
Y049117D01*
X03167Y04942D02*
X031788D01*
X031729Y049361D02*
Y049479D01*
X032477Y049422D02*
X032595D01*
X032536Y049363D02*
Y049481D01*
X03248Y049058D02*
X032598D01*
X032539Y048998D02*
Y049117D01*
X026713Y042441D02*
X026831D01*
X026772Y042382D02*
Y0425D01*
X026339Y042439D02*
X026457D01*
X026398Y042379D02*
Y042498D01*
X025886Y042441D02*
X026004D01*
X025945Y042382D02*
Y0425D01*
X025453Y042441D02*
X025571D01*
X025512Y042382D02*
Y0425D01*
X025059Y042441D02*
X025177D01*
X025118Y042382D02*
Y0425D01*
X024705Y042441D02*
X024823D01*
X024764Y042382D02*
Y0425D01*
X02435Y042441D02*
X024469D01*
X024409Y042382D02*
Y0425D01*
X02435Y045315D02*
X024469D01*
X024409Y045256D02*
Y045374D01*
X02435Y045D02*
X024469D01*
X024409Y044941D02*
Y045059D01*
X02435Y044685D02*
X024469D01*
X024409Y044626D02*
Y044744D01*
X02435Y04437D02*
X024469D01*
X024409Y044311D02*
Y044429D01*
X02435Y043385D02*
X024469D01*
X024409Y043326D02*
Y043444D01*
X02435Y043701D02*
X024469D01*
X024409Y043642D02*
Y04376D01*
X02435Y044016D02*
X024469D01*
X024409Y043957D02*
Y044075D01*
X024411Y043031D02*
X024529D01*
X02447Y042972D02*
Y04309D01*
X02435Y042717D02*
X024469D01*
X024409Y042657D02*
Y042776D01*
X031306Y047502D02*
X031424D01*
X031365Y047443D02*
Y047561D01*
X031319Y047205D02*
X031437D01*
X031378Y047146D02*
Y047264D01*
X031319Y046928D02*
X031437D01*
X031378Y046869D02*
Y046987D01*
X031309Y046282D02*
X031427D01*
X031368Y046223D02*
Y046341D01*
X031309Y046597D02*
X031427D01*
X031368Y046538D02*
Y046656D01*
X031306Y045966D02*
X031424D01*
X031365Y045907D02*
Y046025D01*
X031319Y045669D02*
X031437D01*
X031378Y04561D02*
Y045728D01*
X031319Y045393D02*
X031437D01*
X031378Y045334D02*
Y045452D01*
X031043Y044488D02*
X031161D01*
X031102Y044429D02*
Y044547D01*
X031398Y044488D02*
X031516D01*
X031457Y044429D02*
Y044547D01*
X031043Y044213D02*
X031161D01*
X031102Y044154D02*
Y044272D01*
X031398Y044213D02*
X031516D01*
X031457Y044154D02*
Y044272D01*
X031043Y043898D02*
X031161D01*
X031102Y043839D02*
Y043957D01*
X031398Y043898D02*
X031516D01*
X031457Y043839D02*
Y043957D01*
X031083Y041417D02*
X031201D01*
X031142Y041358D02*
Y041476D01*
X028206Y041141D02*
X028324D01*
X028265Y041082D02*
Y0412D01*
X028561Y041141D02*
X028679D01*
X02862Y041082D02*
Y0412D01*
X028876Y041141D02*
X028994D01*
X028935Y041082D02*
Y0412D01*
X028878Y041714D02*
X028996D01*
X028937Y041655D02*
Y041773D01*
X028878Y041417D02*
X028996D01*
X028937Y041358D02*
Y041476D01*
X028563Y041714D02*
X028681D01*
X028622Y041655D02*
Y041773D01*
X028563Y041417D02*
X028681D01*
X028622Y041358D02*
Y041476D01*
X028209Y041714D02*
X028327D01*
X028268Y041655D02*
Y041773D01*
X028209Y041417D02*
X028327D01*
X028268Y041358D02*
Y041476D01*
X03107Y041714D02*
X031188D01*
X031129Y041655D02*
Y041773D01*
X031072Y0427D02*
X03119D01*
X031131Y042641D02*
Y042759D01*
X031072Y042345D02*
X03119D01*
X031131Y042286D02*
Y042404D01*
X031072Y04203D02*
X03119D01*
X031131Y041971D02*
Y042089D01*
X031075Y043018D02*
X031193D01*
X031134Y042959D02*
Y043077D01*
X028878Y043701D02*
X028996D01*
X028937Y043642D02*
Y04376D01*
X028878Y043385D02*
X028996D01*
X028937Y043326D02*
Y043444D01*
X028563Y043701D02*
X028681D01*
X028622Y043642D02*
Y04376D01*
X028563Y043385D02*
X028681D01*
X028622Y043326D02*
Y043444D01*
X028206Y042345D02*
X028324D01*
X028265Y042286D02*
Y042404D01*
X028206Y0427D02*
X028324D01*
X028265Y042641D02*
Y042759D01*
X028206Y043015D02*
X028324D01*
X028265Y042956D02*
Y043074D01*
X028561Y042345D02*
X028679D01*
X02862Y042286D02*
Y042404D01*
X028561Y0427D02*
X028679D01*
X02862Y042641D02*
Y042759D01*
X028561Y043015D02*
X028679D01*
X02862Y042956D02*
Y043074D01*
X028876Y042345D02*
X028994D01*
X028935Y042286D02*
Y042404D01*
X028876Y0427D02*
X028994D01*
X028935Y042641D02*
Y042759D01*
X028876Y043015D02*
X028994D01*
X028935Y042956D02*
Y043074D01*
X028873Y04203D02*
X028991D01*
X028932Y041971D02*
Y042089D01*
X028558Y04203D02*
X028676D01*
X028617Y041971D02*
Y042089D01*
X028204Y04203D02*
X028322D01*
X028263Y041971D02*
Y042089D01*
X027537Y043385D02*
X027655D01*
X027596Y043326D02*
Y043444D01*
X027891Y043385D02*
X028009D01*
X02795Y043326D02*
Y043444D01*
X028206Y043385D02*
X028324D01*
X028265Y043326D02*
Y043444D01*
X028209Y04437D02*
X028327D01*
X028268Y044311D02*
Y044429D01*
X028209Y044016D02*
X028327D01*
X028268Y043957D02*
Y044075D01*
X028209Y043701D02*
X028327D01*
X028268Y043642D02*
Y04376D01*
X028209Y045D02*
X028327D01*
X028268Y044941D02*
Y045059D01*
X028209Y045315D02*
X028327D01*
X028268Y045256D02*
Y045374D01*
X028209Y045709D02*
X028327D01*
X028268Y04565D02*
Y045768D01*
X028209Y046102D02*
X028327D01*
X028268Y046043D02*
Y046161D01*
X028209Y046496D02*
X028327D01*
X028268Y046437D02*
Y046555D01*
X028209Y04685D02*
X028327D01*
X028268Y046791D02*
Y046909D01*
X028209Y044685D02*
X028327D01*
X028268Y044626D02*
Y044744D01*
X028209Y047205D02*
X028327D01*
X028268Y047146D02*
Y047264D01*
X028209Y047835D02*
X028327D01*
X028268Y047776D02*
Y047894D01*
X028209Y04752D02*
X028327D01*
X028268Y047461D02*
Y047579D01*
X027894Y04437D02*
X028012D01*
X027953Y044311D02*
Y044429D01*
X027894Y044016D02*
X028012D01*
X027953Y043957D02*
Y044075D01*
X027894Y043701D02*
X028012D01*
X027953Y043642D02*
Y04376D01*
X027894Y045D02*
X028012D01*
X027953Y044941D02*
Y045059D01*
X027894Y045315D02*
X028012D01*
X027953Y045256D02*
Y045374D01*
X027894Y045709D02*
X028012D01*
X027953Y04565D02*
Y045768D01*
X027894Y046102D02*
X028012D01*
X027953Y046043D02*
Y046161D01*
X027894Y046496D02*
X028012D01*
X027953Y046437D02*
Y046555D01*
X027894Y04685D02*
X028012D01*
X027953Y046791D02*
Y046909D01*
X027894Y044685D02*
X028012D01*
X027953Y044626D02*
Y044744D01*
X027894Y047205D02*
X028012D01*
X027953Y047146D02*
Y047264D01*
X027894Y047835D02*
X028012D01*
X027953Y047776D02*
Y047894D01*
X027894Y04752D02*
X028012D01*
X027953Y047461D02*
Y047579D01*
X027539Y04437D02*
X027657D01*
X027598Y044311D02*
Y044429D01*
X027539Y044016D02*
X027657D01*
X027598Y043957D02*
Y044075D01*
X027539Y043701D02*
X027657D01*
X027598Y043642D02*
Y04376D01*
X027539Y045D02*
X027657D01*
X027598Y044941D02*
Y045059D01*
X027539Y045315D02*
X027657D01*
X027598Y045256D02*
Y045374D01*
X027539Y045709D02*
X027657D01*
X027598Y04565D02*
Y045768D01*
X027539Y046102D02*
X027657D01*
X027598Y046043D02*
Y046161D01*
X027539Y046496D02*
X027657D01*
X027598Y046437D02*
Y046555D01*
X027539Y04685D02*
X027657D01*
X027598Y046791D02*
Y046909D01*
X027539Y044685D02*
X027657D01*
X027598Y044626D02*
Y044744D01*
X027539Y047205D02*
X027657D01*
X027598Y047146D02*
Y047264D01*
X027539Y047835D02*
X027657D01*
X027598Y047776D02*
Y047894D01*
X027539Y04752D02*
X027657D01*
X027598Y047461D02*
Y047579D01*
X027146Y047205D02*
X027264D01*
X027205Y047146D02*
Y047264D01*
X027146Y04752D02*
X027264D01*
X027205Y047461D02*
Y047579D01*
X027146Y047835D02*
X027264D01*
X027205Y047776D02*
Y047894D01*
X027146Y048228D02*
X027264D01*
X027205Y048169D02*
Y048287D01*
X027146Y048622D02*
X027264D01*
X027205Y048563D02*
Y048681D01*
X027146Y049016D02*
X027264D01*
X027205Y048957D02*
Y049075D01*
X027146Y04685D02*
X027264D01*
X027205Y046791D02*
Y046909D01*
X027146Y04437D02*
X027264D01*
X027205Y044311D02*
Y044429D01*
X027146Y046496D02*
X027264D01*
X027205Y046437D02*
Y046555D01*
X027146Y046102D02*
X027264D01*
X027205Y046043D02*
Y046161D01*
X027146Y045709D02*
X027264D01*
X027205Y04565D02*
Y045768D01*
X027146Y045315D02*
X027264D01*
X027205Y045256D02*
Y045374D01*
X027146Y045D02*
X027264D01*
X027205Y044941D02*
Y045059D01*
X027146Y044685D02*
X027264D01*
X027205Y044626D02*
Y044744D01*
X027146Y043385D02*
X027264D01*
X027205Y043326D02*
Y043444D01*
X027146Y043701D02*
X027264D01*
X027205Y043642D02*
Y04376D01*
X027146Y044016D02*
X027264D01*
X027205Y043957D02*
Y044075D01*
X024705Y042717D02*
X024823D01*
X024764Y042657D02*
Y042776D01*
X025059Y042717D02*
X025177D01*
X025118Y042657D02*
Y042776D01*
X025453Y042717D02*
X025571D01*
X025512Y042657D02*
Y042776D01*
X025886Y042717D02*
X026004D01*
X025945Y042657D02*
Y042776D01*
X026339Y042714D02*
X026457D01*
X026398Y042655D02*
Y042773D01*
X026713Y042717D02*
X026831D01*
X026772Y042657D02*
Y042776D01*
X026713Y043032D02*
X026831D01*
X026772Y042972D02*
Y043091D01*
X026713Y044016D02*
X026831D01*
X026772Y043957D02*
Y044075D01*
X026713Y043701D02*
X026831D01*
X026772Y043642D02*
Y04376D01*
X026713Y043385D02*
X026831D01*
X026772Y043326D02*
Y043444D01*
X026339Y043029D02*
X026457D01*
X026398Y04297D02*
Y043088D01*
X026339Y044016D02*
X026457D01*
X026398Y043957D02*
Y044075D01*
X026339Y043701D02*
X026457D01*
X026398Y043642D02*
Y04376D01*
X026339Y043385D02*
X026457D01*
X026398Y043326D02*
Y043444D01*
X025886Y043032D02*
X026004D01*
X025945Y042972D02*
Y043091D01*
X025886Y044016D02*
X026004D01*
X025945Y043957D02*
Y044075D01*
X025886Y043701D02*
X026004D01*
X025945Y043642D02*
Y04376D01*
X025886Y043385D02*
X026004D01*
X025945Y043326D02*
Y043444D01*
X025453Y043032D02*
X025571D01*
X025512Y042972D02*
Y043091D01*
X025453Y044016D02*
X025571D01*
X025512Y043957D02*
Y044075D01*
X025453Y043701D02*
X025571D01*
X025512Y043642D02*
Y04376D01*
X025453Y043385D02*
X025571D01*
X025512Y043326D02*
Y043444D01*
X025119Y043031D02*
X025238D01*
X025178Y042972D02*
Y04309D01*
X025059Y044016D02*
X025177D01*
X025118Y043957D02*
Y044075D01*
X025059Y043701D02*
X025177D01*
X025118Y043642D02*
Y04376D01*
X025059Y043385D02*
X025177D01*
X025118Y043326D02*
Y043444D01*
X024765Y043031D02*
X024883D01*
X024824Y042972D02*
Y04309D01*
X024705Y044016D02*
X024823D01*
X024764Y043957D02*
Y044075D01*
X024705Y043701D02*
X024823D01*
X024764Y043642D02*
Y04376D01*
X024705Y043385D02*
X024823D01*
X024764Y043326D02*
Y043444D01*
X024705Y044685D02*
X024823D01*
X024764Y044626D02*
Y044744D01*
X024705Y045D02*
X024823D01*
X024764Y044941D02*
Y045059D01*
X024705Y045315D02*
X024823D01*
X024764Y045256D02*
Y045374D01*
X024705Y045709D02*
X024823D01*
X024764Y04565D02*
Y045768D01*
X024705Y046102D02*
X024823D01*
X024764Y046043D02*
Y046161D01*
X024705Y046496D02*
X024823D01*
X024764Y046437D02*
Y046555D01*
X024705Y04437D02*
X024823D01*
X024764Y044311D02*
Y044429D01*
X025059Y044685D02*
X025177D01*
X025118Y044626D02*
Y044744D01*
X025059Y045D02*
X025177D01*
X025118Y044941D02*
Y045059D01*
X025059Y045315D02*
X025177D01*
X025118Y045256D02*
Y045374D01*
X025059Y045709D02*
X025177D01*
X025118Y04565D02*
Y045768D01*
X025059Y046102D02*
X025177D01*
X025118Y046043D02*
Y046161D01*
X025059Y046496D02*
X025177D01*
X025118Y046437D02*
Y046555D01*
X025059Y04437D02*
X025177D01*
X025118Y044311D02*
Y044429D01*
X025453Y044685D02*
X025571D01*
X025512Y044626D02*
Y044744D01*
X025453Y045D02*
X025571D01*
X025512Y044941D02*
Y045059D01*
X025453Y045315D02*
X025571D01*
X025512Y045256D02*
Y045374D01*
X025453Y045709D02*
X025571D01*
X025512Y04565D02*
Y045768D01*
X025453Y046102D02*
X025571D01*
X025512Y046043D02*
Y046161D01*
X025453Y046496D02*
X025571D01*
X025512Y046437D02*
Y046555D01*
X025453Y04437D02*
X025571D01*
X025512Y044311D02*
Y044429D01*
X025886Y044685D02*
X026004D01*
X025945Y044626D02*
Y044744D01*
X025886Y045D02*
X026004D01*
X025945Y044941D02*
Y045059D01*
X025886Y045315D02*
X026004D01*
X025945Y045256D02*
Y045374D01*
X025886Y045709D02*
X026004D01*
X025945Y04565D02*
Y045768D01*
X025886Y046102D02*
X026004D01*
X025945Y046043D02*
Y046161D01*
X025886Y046496D02*
X026004D01*
X025945Y046437D02*
Y046555D01*
X025886Y04437D02*
X026004D01*
X025945Y044311D02*
Y044429D01*
X026339Y044685D02*
X026457D01*
X026398Y044626D02*
Y044744D01*
X026339Y045D02*
X026457D01*
X026398Y044941D02*
Y045059D01*
X026339Y045315D02*
X026457D01*
X026398Y045256D02*
Y045374D01*
X026339Y045709D02*
X026457D01*
X026398Y04565D02*
Y045768D01*
X026339Y046102D02*
X026457D01*
X026398Y046043D02*
Y046161D01*
X026339Y046496D02*
X026457D01*
X026398Y046437D02*
Y046555D01*
X026339Y04437D02*
X026457D01*
X026398Y044311D02*
Y044429D01*
X026713Y044685D02*
X026831D01*
X026772Y044626D02*
Y044744D01*
X026713Y045D02*
X026831D01*
X026772Y044941D02*
Y045059D01*
X026713Y045315D02*
X026831D01*
X026772Y045256D02*
Y045374D01*
X026713Y045709D02*
X026831D01*
X026772Y04565D02*
Y045768D01*
X026713Y046102D02*
X026831D01*
X026772Y046043D02*
Y046161D01*
X026713Y046496D02*
X026831D01*
X026772Y046437D02*
Y046555D01*
X026713Y04437D02*
X026831D01*
X026772Y044311D02*
Y044429D01*
X026713Y04685D02*
X026831D01*
X026772Y046791D02*
Y046909D01*
X026713Y049016D02*
X026831D01*
X026772Y048957D02*
Y049075D01*
X026713Y048622D02*
X026831D01*
X026772Y048563D02*
Y048681D01*
X026713Y048228D02*
X026831D01*
X026772Y048169D02*
Y048287D01*
X026713Y047835D02*
X026831D01*
X026772Y047776D02*
Y047894D01*
X026713Y04752D02*
X026831D01*
X026772Y047461D02*
Y047579D01*
X026713Y047205D02*
X026831D01*
X026772Y047146D02*
Y047264D01*
X026339Y04685D02*
X026457D01*
X026398Y046791D02*
Y046909D01*
X026339Y049013D02*
X026457D01*
X026398Y048954D02*
Y049072D01*
X026339Y048622D02*
X026457D01*
X026398Y048563D02*
Y048681D01*
X026339Y048228D02*
X026457D01*
X026398Y048169D02*
Y048287D01*
X026339Y047835D02*
X026457D01*
X026398Y047776D02*
Y047894D01*
X026339Y04752D02*
X026457D01*
X026398Y047461D02*
Y047579D01*
X026339Y047205D02*
X026457D01*
X026398Y047146D02*
Y047264D01*
X025886Y04685D02*
X026004D01*
X025945Y046791D02*
Y046909D01*
X025886Y049016D02*
X026004D01*
X025945Y048957D02*
Y049075D01*
X025886Y048622D02*
X026004D01*
X025945Y048563D02*
Y048681D01*
X025886Y048228D02*
X026004D01*
X025945Y048169D02*
Y048287D01*
X025886Y047835D02*
X026004D01*
X025945Y047776D02*
Y047894D01*
X025886Y04752D02*
X026004D01*
X025945Y047461D02*
Y047579D01*
X025886Y047205D02*
X026004D01*
X025945Y047146D02*
Y047264D01*
X025453Y04685D02*
X025571D01*
X025512Y046791D02*
Y046909D01*
X025453Y049016D02*
X025571D01*
X025512Y048957D02*
Y049075D01*
X025453Y048622D02*
X025571D01*
X025512Y048563D02*
Y048681D01*
X025453Y048228D02*
X025571D01*
X025512Y048169D02*
Y048287D01*
X025453Y047835D02*
X025571D01*
X025512Y047776D02*
Y047894D01*
X025453Y04752D02*
X025571D01*
X025512Y047461D02*
Y047579D01*
X025453Y047205D02*
X025571D01*
X025512Y047146D02*
Y047264D01*
X025059Y04685D02*
X025177D01*
X025118Y046791D02*
Y046909D01*
X025059Y049016D02*
X025177D01*
X025118Y048957D02*
Y049075D01*
X025059Y048622D02*
X025177D01*
X025118Y048563D02*
Y048681D01*
X025059Y048228D02*
X025177D01*
X025118Y048169D02*
Y048287D01*
X025059Y047835D02*
X025177D01*
X025118Y047776D02*
Y047894D01*
X025059Y04752D02*
X025177D01*
X025118Y047461D02*
Y047579D01*
X025059Y047205D02*
X025177D01*
X025118Y047146D02*
Y047264D01*
X024705Y04685D02*
X024823D01*
X024764Y046791D02*
Y046909D01*
X024705Y049016D02*
X024823D01*
X024764Y048957D02*
Y049075D01*
X024705Y048622D02*
X024823D01*
X024764Y048563D02*
Y048681D01*
X024705Y048228D02*
X024823D01*
X024764Y048169D02*
Y048287D01*
X024705Y047835D02*
X024823D01*
X024764Y047776D02*
Y047894D01*
X024705Y04752D02*
X024823D01*
X024764Y047461D02*
Y047579D01*
X024705Y047205D02*
X024823D01*
X024764Y047146D02*
Y047264D01*
X013214Y046547D02*
X013333D01*
X013274Y046488D02*
Y046606D01*
X010516Y046888D02*
X010634D01*
X010575Y046829D02*
Y046947D01*
X010988Y046888D02*
X011106D01*
X011047Y046829D02*
Y046947D01*
X012445Y046888D02*
X012563D01*
X012504Y046829D02*
Y046947D01*
X012839Y046888D02*
X012957D01*
X012898Y046829D02*
Y046947D01*
X010516Y046545D02*
X010634D01*
X010575Y046486D02*
Y046604D01*
X010988Y046545D02*
X011106D01*
X011047Y046486D02*
Y046604D01*
X012445Y046545D02*
X012563D01*
X012504Y046486D02*
Y046604D01*
X012839Y046545D02*
X012957D01*
X012898Y046486D02*
Y046604D01*
X013209Y044575D02*
X013327D01*
X013268Y044516D02*
Y044634D01*
X013209Y045075D02*
X013327D01*
X013268Y045016D02*
Y045134D01*
X013209Y045575D02*
X013327D01*
X013268Y045516D02*
Y045634D01*
X013209Y046075D02*
X013327D01*
X013268Y046016D02*
Y046134D01*
X012815Y045075D02*
X012933D01*
X012874Y045016D02*
Y045134D01*
X012815Y045575D02*
X012933D01*
X012874Y045516D02*
Y045634D01*
X012815Y046075D02*
X012933D01*
X012874Y046016D02*
Y046134D01*
X012421Y045575D02*
X012539D01*
X01248Y045516D02*
Y045634D01*
X012421Y046075D02*
X012539D01*
X01248Y046016D02*
Y046134D01*
X011988Y045575D02*
X012106D01*
X012047Y045516D02*
Y045634D01*
X011988Y046075D02*
X012106D01*
X012047Y046016D02*
Y046134D01*
X011358Y045575D02*
X011476D01*
X011417Y045516D02*
Y045634D01*
X011358Y046075D02*
X011476D01*
X011417Y046016D02*
Y046134D01*
X010886Y045575D02*
X011004D01*
X010945Y045516D02*
Y045634D01*
X010886Y046075D02*
X011004D01*
X010945Y046016D02*
Y046134D01*
X010492Y045075D02*
X01061D01*
X010551Y045016D02*
Y045134D01*
X010492Y045575D02*
X01061D01*
X010551Y045516D02*
Y045634D01*
X010492Y046075D02*
X01061D01*
X010551Y046016D02*
Y046134D01*
X018752Y040984D02*
X01887D01*
X018811Y040925D02*
Y041043D01*
X018752Y04063D02*
X01887D01*
X018811Y040571D02*
Y040689D01*
X018752Y040276D02*
X01887D01*
X018811Y040217D02*
Y040335D01*
X018752Y039913D02*
X01887D01*
X018811Y039854D02*
Y039972D01*
X018437Y039924D02*
X018555D01*
X018496Y039865D02*
Y039983D01*
X018043Y039924D02*
X018161D01*
X018102Y039865D02*
Y039983D01*
X01765Y039924D02*
X017768D01*
X017709Y039865D02*
Y039983D01*
X017256Y039924D02*
X017374D01*
X017315Y039865D02*
Y039983D01*
X017264Y040278D02*
X017382D01*
X017323Y040219D02*
Y040337D01*
X017657Y040278D02*
X017776D01*
X017717Y040219D02*
Y040337D01*
X018051Y040278D02*
X018169D01*
X01811Y040219D02*
Y040337D01*
X018445Y040278D02*
X018563D01*
X018504Y040219D02*
Y040337D01*
X017264Y04063D02*
X017382D01*
X017323Y040571D02*
Y040689D01*
X017657Y04063D02*
X017776D01*
X017717Y040571D02*
Y040689D01*
X018051Y04063D02*
X018169D01*
X01811Y040571D02*
Y040689D01*
X018445Y04063D02*
X018563D01*
X018504Y040571D02*
Y040689D01*
X017264Y040984D02*
X017382D01*
X017323Y040925D02*
Y041043D01*
X017657Y040984D02*
X017776D01*
X017717Y040925D02*
Y041043D01*
X018051Y040984D02*
X018169D01*
X01811Y040925D02*
Y041043D01*
X018445Y040984D02*
X018563D01*
X018504Y040925D02*
Y041043D01*
X018445Y041339D02*
X018563D01*
X018504Y04128D02*
Y041398D01*
X018051Y041339D02*
X018169D01*
X01811Y04128D02*
Y041398D01*
X017657Y041339D02*
X017776D01*
X017717Y04128D02*
Y041398D01*
X034039Y04961D02*
X034157D01*
X034098Y049551D02*
Y049669D01*
X034539Y04961D02*
X034657D01*
X034598Y049551D02*
Y049669D01*
X033539Y04961D02*
X033657D01*
X033598Y049551D02*
Y049669D01*
X033039Y04961D02*
X033157D01*
X033098Y049551D02*
Y049669D01*
X032539Y04961D02*
X032657D01*
X032598Y049551D02*
Y049669D01*
X032039Y04961D02*
X032157D01*
X032098Y049551D02*
Y049669D01*
X031539Y04961D02*
X031657D01*
X031598Y049551D02*
Y049669D01*
X031039Y04961D02*
X031157D01*
X031098Y049551D02*
Y049669D01*
X046437Y046142D02*
X046555D01*
X046496Y046083D02*
Y046201D01*
X046358Y045827D02*
X046476D01*
X046417Y045768D02*
Y045886D01*
X046201Y045512D02*
X046319D01*
X04626Y045453D02*
Y045571D01*
X045951Y045246D02*
X046069D01*
X04601Y045187D02*
Y045305D01*
X045689Y045079D02*
X045807D01*
X045748Y04502D02*
Y045138D01*
X044986Y044948D02*
X045104D01*
X045045Y044889D02*
Y045007D01*
X045429Y045003D02*
X045547D01*
X045488Y044944D02*
Y045062D01*
X044077Y044955D02*
X044195D01*
X044136Y044896D02*
Y045015D01*
X044432Y044955D02*
X04455D01*
X044491Y044896D02*
Y045015D01*
X04376Y044961D02*
X043878D01*
X043819Y044902D02*
Y04502D01*
X043366Y044961D02*
X043484D01*
X043425Y044902D02*
Y04502D01*
X043012Y044961D02*
X04313D01*
X043071Y044902D02*
Y04502D01*
X042524Y044937D02*
X042642D01*
X042583Y044878D02*
Y044996D01*
X042264Y044961D02*
X042382D01*
X042323Y044902D02*
Y04502D01*
X048484Y045748D02*
X048602D01*
X048543Y045689D02*
Y045807D01*
X048484Y045354D02*
X048602D01*
X048543Y045295D02*
Y045413D01*
X048366Y044843D02*
X048484D01*
X048425Y044783D02*
Y044902D01*
X048191Y045211D02*
X048309D01*
X04825Y045152D02*
Y04527D01*
X048091Y044567D02*
X048209D01*
X04815Y044508D02*
Y044626D01*
X046791Y043465D02*
X046909D01*
X04685Y043406D02*
Y043524D01*
X04398Y044944D02*
X044098D01*
X044039Y044885D02*
Y045003D01*
X045965Y043268D02*
X046083D01*
X046024Y043209D02*
Y043327D01*
X046594Y046299D02*
X046713D01*
X046654Y04624D02*
Y046358D01*
X046594Y045945D02*
X046713D01*
X046654Y045886D02*
Y046004D01*
X046476Y045591D02*
X046594D01*
X046535Y045532D02*
Y04565D01*
X04624Y045276D02*
X046358D01*
X046299Y045217D02*
Y045335D01*
X046004Y045039D02*
X046122D01*
X046063Y04498D02*
Y045098D01*
X045689Y044843D02*
X045807D01*
X045748Y044783D02*
Y044902D01*
X045216Y044818D02*
X045334D01*
X045275Y044759D02*
Y044877D01*
X044744Y044764D02*
X044862D01*
X044803Y044705D02*
Y044823D01*
X044311Y044764D02*
X044429D01*
X04437Y044705D02*
Y044823D01*
X043917Y044764D02*
X044035D01*
X043976Y044705D02*
Y044823D01*
X043563Y044764D02*
X043681D01*
X043622Y044705D02*
Y044823D01*
X043209Y044764D02*
X043327D01*
X043268Y044705D02*
Y044823D01*
X04272Y04474D02*
X042839D01*
X04278Y044681D02*
Y044799D01*
X042421Y044764D02*
X042539D01*
X04248Y044705D02*
Y044823D01*
X042067Y044764D02*
X042185D01*
X042126Y044705D02*
Y044823D01*
X048287Y04622D02*
X048406D01*
X048346Y046161D02*
Y04628D01*
X048287Y045906D02*
X048406D01*
X048346Y045846D02*
Y045965D01*
X048248Y045551D02*
X048366D01*
X048307Y045492D02*
Y04561D01*
X048012Y044882D02*
X04813D01*
X048071Y044823D02*
Y044941D01*
X04687Y04374D02*
X046988D01*
X046929Y043681D02*
Y043799D01*
X046476Y043583D02*
X046594D01*
X046535Y043524D02*
Y043642D01*
X046082Y04347D02*
X0462D01*
X046141Y043411D02*
Y043529D01*
X045728Y043425D02*
X045846D01*
X045787Y043366D02*
Y043484D01*
X043025Y015017D02*
X043143D01*
X043084Y014958D02*
Y015076D01*
X039547Y019488D02*
X039665D01*
X039606Y019429D02*
Y019547D01*
X039547Y020118D02*
X039665D01*
X039606Y020059D02*
Y020177D01*
X045807Y01748D02*
X045925D01*
X045866Y017421D02*
Y017539D01*
X043957Y018386D02*
X044075D01*
X044016Y018327D02*
Y018445D01*
X048169Y017402D02*
X048287D01*
X048228Y017343D02*
Y017461D01*
X044328Y032323D02*
X044446D01*
X044387Y032264D02*
Y032382D01*
X044501Y029694D02*
X044619D01*
X04456Y029635D02*
Y029753D01*
X047406Y037283D02*
X047525D01*
X047465Y037224D02*
Y037343D01*
X047326Y036263D02*
X047445D01*
X047385Y036204D02*
Y036322D01*
X042776Y03561D02*
X042894D01*
X042835Y035551D02*
Y035669D01*
X045059Y031063D02*
X045177D01*
X045118Y031004D02*
Y031122D01*
X031316Y038622D02*
X031435D01*
X031376Y038563D02*
Y038681D01*
X043039Y04961D02*
X043157D01*
X043098Y049551D02*
Y049669D01*
X043539Y04961D02*
X043657D01*
X043598Y049551D02*
Y049669D01*
X044039Y04961D02*
X044157D01*
X044098Y049551D02*
Y049669D01*
X044539Y04961D02*
X044657D01*
X044598Y049551D02*
Y049669D01*
X045039Y04961D02*
X045157D01*
X045098Y049551D02*
Y049669D01*
X045539Y04961D02*
X045657D01*
X045598Y049551D02*
Y049669D01*
X035539Y04961D02*
X035657D01*
X035598Y049551D02*
Y049669D01*
X036039Y04961D02*
X036157D01*
X036098Y049551D02*
Y049669D01*
X036539Y04961D02*
X036657D01*
X036598Y049551D02*
Y049669D01*
X037039Y04961D02*
X037157D01*
X037098Y049551D02*
Y049669D01*
X037539Y04961D02*
X037657D01*
X037598Y049551D02*
Y049669D01*
X038039Y04961D02*
X038157D01*
X038098Y049551D02*
Y049669D01*
X038539Y04961D02*
X038657D01*
X038598Y049551D02*
Y049669D01*
X039039Y04961D02*
X039157D01*
X039098Y049551D02*
Y049669D01*
X042539Y04961D02*
X042657D01*
X042598Y049551D02*
Y049669D01*
X042039Y04961D02*
X042157D01*
X042098Y049551D02*
Y049669D01*
X041539Y04961D02*
X041657D01*
X041598Y049551D02*
Y049669D01*
X041039Y04961D02*
X041157D01*
X041098Y049551D02*
Y049669D01*
X040539Y04961D02*
X040657D01*
X040598Y049551D02*
Y049669D01*
X040039Y04961D02*
X040157D01*
X040098Y049551D02*
Y049669D01*
X028039Y04961D02*
X028157D01*
X028098Y049551D02*
Y049669D01*
X028539Y04961D02*
X028657D01*
X028598Y049551D02*
Y049669D01*
X029039Y04961D02*
X029157D01*
X029098Y049551D02*
Y049669D01*
X029539Y04961D02*
X029657D01*
X029598Y049551D02*
Y049669D01*
X030039Y04961D02*
X030157D01*
X030098Y049551D02*
Y049669D01*
X030539Y04961D02*
X030657D01*
X030598Y049551D02*
Y049669D01*
X035039Y04961D02*
X035157D01*
X035098Y049551D02*
Y049669D01*
X038386Y043163D02*
X038504D01*
X038445Y043104D02*
Y043222D01*
X037616Y04283D02*
X037734D01*
X037675Y042771D02*
Y042889D01*
X035631Y042794D02*
X035749D01*
X03569Y042735D02*
Y042853D01*
X04089Y01778D02*
X041008D01*
X040949Y01772D02*
Y017839D01*
X010177Y017067D02*
X010295D01*
X010236Y017008D02*
Y017126D01*
X010177Y016567D02*
X010295D01*
X010236Y016508D02*
Y016626D01*
X010177Y016067D02*
X010295D01*
X010236Y016008D02*
Y016126D01*
X010177Y015567D02*
X010295D01*
X010236Y015508D02*
Y015626D01*
X010177Y015067D02*
X010295D01*
X010236Y015008D02*
Y015126D01*
X010177Y014567D02*
X010295D01*
X010236Y014508D02*
Y014626D01*
X010177Y014067D02*
X010295D01*
X010236Y014008D02*
Y014126D01*
X010177Y013567D02*
X010295D01*
X010236Y013508D02*
Y013626D01*
X010177Y013067D02*
X010295D01*
X010236Y013008D02*
Y013126D01*
X010177Y011067D02*
X010295D01*
X010236Y011008D02*
Y011126D01*
X010177Y011567D02*
X010295D01*
X010236Y011508D02*
Y011626D01*
X010177Y012567D02*
X010295D01*
X010236Y012508D02*
Y012626D01*
X010177Y024567D02*
X010295D01*
X010236Y024508D02*
Y024626D01*
X010177Y024067D02*
X010295D01*
X010236Y024008D02*
Y024126D01*
X010177Y023567D02*
X010295D01*
X010236Y023508D02*
Y023626D01*
X010177Y023067D02*
X010295D01*
X010236Y023008D02*
Y023126D01*
X010177Y022567D02*
X010295D01*
X010236Y022508D02*
Y022626D01*
X010177Y022067D02*
X010295D01*
X010236Y022008D02*
Y022126D01*
X010177Y021567D02*
X010295D01*
X010236Y021508D02*
Y021626D01*
X010177Y021067D02*
X010295D01*
X010236Y021008D02*
Y021126D01*
X010177Y020567D02*
X010295D01*
X010236Y020508D02*
Y020626D01*
X010177Y017567D02*
X010295D01*
X010236Y017508D02*
Y017626D01*
X010177Y018067D02*
X010295D01*
X010236Y018008D02*
Y018126D01*
X010177Y018567D02*
X010295D01*
X010236Y018508D02*
Y018626D01*
X010177Y019067D02*
X010295D01*
X010236Y019008D02*
Y019126D01*
X010177Y019567D02*
X010295D01*
X010236Y019508D02*
Y019626D01*
X010177Y020067D02*
X010295D01*
X010236Y020008D02*
Y020126D01*
X010177Y032067D02*
X010295D01*
X010236Y032008D02*
Y032126D01*
X010177Y031567D02*
X010295D01*
X010236Y031508D02*
Y031626D01*
X010177Y031067D02*
X010295D01*
X010236Y031008D02*
Y031126D01*
X010177Y030567D02*
X010295D01*
X010236Y030508D02*
Y030626D01*
X010177Y030067D02*
X010295D01*
X010236Y030008D02*
Y030126D01*
X010177Y029567D02*
X010295D01*
X010236Y029508D02*
Y029626D01*
X010177Y029067D02*
X010295D01*
X010236Y029008D02*
Y029126D01*
X010177Y028567D02*
X010295D01*
X010236Y028508D02*
Y028626D01*
X010177Y028067D02*
X010295D01*
X010236Y028008D02*
Y028126D01*
X010177Y025067D02*
X010295D01*
X010236Y025008D02*
Y025126D01*
X010177Y025567D02*
X010295D01*
X010236Y025508D02*
Y025626D01*
X010177Y026067D02*
X010295D01*
X010236Y026008D02*
Y026126D01*
X010177Y026567D02*
X010295D01*
X010236Y026508D02*
Y026626D01*
X010177Y027067D02*
X010295D01*
X010236Y027008D02*
Y027126D01*
X010177Y027567D02*
X010295D01*
X010236Y027508D02*
Y027626D01*
X010177Y039567D02*
X010295D01*
X010236Y039508D02*
Y039626D01*
X010177Y039067D02*
X010295D01*
X010236Y039008D02*
Y039126D01*
X010177Y038567D02*
X010295D01*
X010236Y038508D02*
Y038626D01*
X010177Y038067D02*
X010295D01*
X010236Y038008D02*
Y038126D01*
X010177Y037567D02*
X010295D01*
X010236Y037508D02*
Y037626D01*
X010177Y037067D02*
X010295D01*
X010236Y037008D02*
Y037126D01*
X010177Y036567D02*
X010295D01*
X010236Y036508D02*
Y036626D01*
X010177Y036067D02*
X010295D01*
X010236Y036008D02*
Y036126D01*
X010177Y035567D02*
X010295D01*
X010236Y035508D02*
Y035626D01*
X010177Y032567D02*
X010295D01*
X010236Y032508D02*
Y032626D01*
X010177Y033067D02*
X010295D01*
X010236Y033008D02*
Y033126D01*
X010177Y033567D02*
X010295D01*
X010236Y033508D02*
Y033626D01*
X010177Y034067D02*
X010295D01*
X010236Y034008D02*
Y034126D01*
X010177Y034567D02*
X010295D01*
X010236Y034508D02*
Y034626D01*
X010177Y035067D02*
X010295D01*
X010236Y035008D02*
Y035126D01*
X010177Y047067D02*
X010295D01*
X010236Y047008D02*
Y047126D01*
X010177Y046567D02*
X010295D01*
X010236Y046508D02*
Y046626D01*
X010177Y046067D02*
X010295D01*
X010236Y046008D02*
Y046126D01*
X010177Y045567D02*
X010295D01*
X010236Y045508D02*
Y045626D01*
X010177Y045067D02*
X010295D01*
X010236Y045008D02*
Y045126D01*
X010177Y044567D02*
X010295D01*
X010236Y044508D02*
Y044626D01*
X010177Y044067D02*
X010295D01*
X010236Y044008D02*
Y044126D01*
X010177Y040067D02*
X010295D01*
X010236Y040008D02*
Y040126D01*
X010177Y040567D02*
X010295D01*
X010236Y040508D02*
Y040626D01*
X010177Y041067D02*
X010295D01*
X010236Y041008D02*
Y041126D01*
X010177Y041567D02*
X010295D01*
X010236Y041508D02*
Y041626D01*
X010177Y042067D02*
X010295D01*
X010236Y042008D02*
Y042126D01*
X010177Y042567D02*
X010295D01*
X010236Y042508D02*
Y042626D01*
X010177Y047567D02*
X010295D01*
X010236Y047508D02*
Y047626D01*
X010177Y048067D02*
X010295D01*
X010236Y048008D02*
Y048126D01*
X010177Y048567D02*
X010295D01*
X010236Y048508D02*
Y048626D01*
X010177Y049067D02*
X010295D01*
X010236Y049008D02*
Y049126D01*
X010174Y049538D02*
X010292D01*
X010233Y049479D02*
Y049597D01*
X013039Y04961D02*
X013157D01*
X013098Y049551D02*
Y049669D01*
X012539Y04961D02*
X012657D01*
X012598Y049551D02*
Y049669D01*
X012039Y04961D02*
X012157D01*
X012098Y049551D02*
Y049669D01*
X011539Y04961D02*
X011657D01*
X011598Y049551D02*
Y049669D01*
X011039Y04961D02*
X011157D01*
X011098Y049551D02*
Y049669D01*
X010539Y04961D02*
X010657D01*
X010598Y049551D02*
Y049669D01*
X013539Y04961D02*
X013657D01*
X013598Y049551D02*
Y049669D01*
X014039Y04961D02*
X014157D01*
X014098Y049551D02*
Y049669D01*
X014539Y04961D02*
X014657D01*
X014598Y049551D02*
Y049669D01*
X015039Y04961D02*
X015157D01*
X015098Y049551D02*
Y049669D01*
X015539Y04961D02*
X015657D01*
X015598Y049551D02*
Y049669D01*
X016039Y04961D02*
X016157D01*
X016098Y049551D02*
Y049669D01*
X016539Y04961D02*
X016657D01*
X016598Y049551D02*
Y049669D01*
X017039Y04961D02*
X017157D01*
X017098Y049551D02*
Y049669D01*
X017539Y04961D02*
X017657D01*
X017598Y049551D02*
Y049669D01*
X018039Y04961D02*
X018157D01*
X018098Y049551D02*
Y049669D01*
X018539Y04961D02*
X018657D01*
X018598Y049551D02*
Y049669D01*
X019039Y04961D02*
X019157D01*
X019098Y049551D02*
Y049669D01*
X019539Y04961D02*
X019657D01*
X019598Y049551D02*
Y049669D01*
X020039Y04961D02*
X020157D01*
X020098Y049551D02*
Y049669D01*
X020539Y04961D02*
X020657D01*
X020598Y049551D02*
Y049669D01*
X026039Y04961D02*
X026157D01*
X026098Y049551D02*
Y049669D01*
X023539Y04961D02*
X023657D01*
X023598Y049551D02*
Y049669D01*
X021039Y04961D02*
X021157D01*
X021098Y049551D02*
Y049669D01*
X024539Y04961D02*
X024657D01*
X024598Y049551D02*
Y049669D01*
X027039Y04961D02*
X027157D01*
X027098Y049551D02*
Y049669D01*
X025539Y04961D02*
X025657D01*
X025598Y049551D02*
Y049669D01*
X023039Y04961D02*
X023157D01*
X023098Y049551D02*
Y049669D01*
X027539Y04961D02*
X027657D01*
X027598Y049551D02*
Y049669D01*
X025039Y04961D02*
X025157D01*
X025098Y049551D02*
Y049669D01*
X021539Y04961D02*
X021657D01*
X021598Y049551D02*
Y049669D01*
X022539Y04961D02*
X022657D01*
X022598Y049551D02*
Y049669D01*
X026539Y04961D02*
X026657D01*
X026598Y049551D02*
Y049669D01*
X024039Y04961D02*
X024157D01*
X024098Y049551D02*
Y049669D01*
X022039Y04961D02*
X022157D01*
X022098Y049551D02*
Y049669D01*
X034744Y04315D02*
X034862D01*
X034803Y043091D02*
Y043209D01*
M02*
