G04*
G04 #@! TF.GenerationSoftware,Altium Limited,Altium Designer,21.0.8 (223)*
G04*
G04 Layer_Color=255*
%FSTAX24Y24*%
%MOIN*%
G70*
G04*
G04 #@! TF.SameCoordinates,802AE027-55FB-4EE0-B797-8BAC3B94A1FA*
G04*
G04*
G04 #@! TF.FilePolarity,Positive*
G04*
G01*
G75*
%ADD26O,0.0669X0.0236*%
%ADD27R,0.1181X0.0394*%
%ADD28R,0.0433X0.0394*%
%ADD29R,0.0197X0.0571*%
%ADD30R,0.0394X0.0433*%
%ADD31R,0.0984X0.0669*%
G04:AMPARAMS|DCode=32|XSize=250mil|YSize=40.2mil|CornerRadius=10mil|HoleSize=0mil|Usage=FLASHONLY|Rotation=270.000|XOffset=0mil|YOffset=0mil|HoleType=Round|Shape=RoundedRectangle|*
%AMROUNDEDRECTD32*
21,1,0.2500,0.0201,0,0,270.0*
21,1,0.2299,0.0402,0,0,270.0*
1,1,0.0201,-0.0100,-0.1150*
1,1,0.0201,-0.0100,0.1150*
1,1,0.0201,0.0100,0.1150*
1,1,0.0201,0.0100,-0.1150*
%
%ADD32ROUNDEDRECTD32*%
%ADD33R,0.3937X0.3032*%
%ADD34R,0.0354X0.1299*%
%ADD35R,0.1102X0.0374*%
%ADD36R,0.0571X0.0197*%
%ADD37R,0.0472X0.0157*%
%ADD38R,0.0787X0.0236*%
%ADD39R,0.0236X0.0787*%
%ADD40R,0.0394X0.1181*%
G04:AMPARAMS|DCode=41|XSize=31.5mil|YSize=74.8mil|CornerRadius=7.9mil|HoleSize=0mil|Usage=FLASHONLY|Rotation=180.000|XOffset=0mil|YOffset=0mil|HoleType=Round|Shape=RoundedRectangle|*
%AMROUNDEDRECTD41*
21,1,0.0315,0.0591,0,0,180.0*
21,1,0.0157,0.0748,0,0,180.0*
1,1,0.0157,-0.0079,0.0295*
1,1,0.0157,0.0079,0.0295*
1,1,0.0157,0.0079,-0.0295*
1,1,0.0157,-0.0079,-0.0295*
%
%ADD41ROUNDEDRECTD41*%
%ADD42R,0.1280X0.0748*%
%ADD43R,0.0551X0.0787*%
%ADD44R,0.0512X0.0217*%
G04:AMPARAMS|DCode=45|XSize=86.6mil|YSize=59.1mil|CornerRadius=7.4mil|HoleSize=0mil|Usage=FLASHONLY|Rotation=180.000|XOffset=0mil|YOffset=0mil|HoleType=Round|Shape=RoundedRectangle|*
%AMROUNDEDRECTD45*
21,1,0.0866,0.0443,0,0,180.0*
21,1,0.0719,0.0591,0,0,180.0*
1,1,0.0148,-0.0359,0.0221*
1,1,0.0148,0.0359,0.0221*
1,1,0.0148,0.0359,-0.0221*
1,1,0.0148,-0.0359,-0.0221*
%
%ADD45ROUNDEDRECTD45*%
%ADD46R,0.0276X0.0433*%
%ADD47R,0.0787X0.0650*%
%ADD48R,0.0236X0.0630*%
%ADD49R,0.0472X0.0118*%
%ADD50R,0.0118X0.0472*%
%ADD51R,0.1535X0.1693*%
%ADD52R,0.0669X0.0984*%
%ADD53R,0.0480X0.0236*%
%ADD54R,0.1024X0.0787*%
%ADD55R,0.0433X0.0276*%
%ADD56O,0.0610X0.0236*%
%ADD113R,0.1260X0.0591*%
%ADD114C,0.0591*%
%ADD115R,0.0591X0.0591*%
%ADD116O,0.0600X0.0900*%
%ADD117R,0.0600X0.0900*%
%ADD118C,0.1200*%
%ADD119C,0.0197*%
%ADD120C,0.1100*%
%ADD121R,0.0591X0.0591*%
%ADD122C,0.2953*%
%ADD123C,0.0827*%
%ADD124C,0.1102*%
%ADD125R,0.0900X0.0650*%
%ADD126O,0.0900X0.0650*%
%ADD127C,0.0984*%
D26*
X040972Y019278D02*
D03*
Y018278D02*
D03*
Y018778D02*
D03*
Y019778D02*
D03*
X043098Y018278D02*
D03*
Y018778D02*
D03*
Y019278D02*
D03*
Y019778D02*
D03*
D27*
X011102Y041126D02*
D03*
X012874D02*
D03*
X017429Y048072D02*
D03*
X0192D02*
D03*
D28*
X048819Y028587D02*
D03*
X04815D02*
D03*
X017805Y045706D02*
D03*
X018474D02*
D03*
X035756Y028291D02*
D03*
X035087D02*
D03*
X048841Y026234D02*
D03*
X048171D02*
D03*
X048154Y027854D02*
D03*
X048823D02*
D03*
X017791Y044984D02*
D03*
X018461D02*
D03*
X011626Y03939D02*
D03*
X012295D02*
D03*
X044154Y017638D02*
D03*
X044823D02*
D03*
X045965Y033307D02*
D03*
X046634D02*
D03*
X045948Y034092D02*
D03*
X046617D02*
D03*
X033346Y031354D02*
D03*
X032677D02*
D03*
X033346Y032555D02*
D03*
X032677D02*
D03*
X048815Y040551D02*
D03*
X048146D02*
D03*
X043654Y044169D02*
D03*
X044323D02*
D03*
D29*
X048281Y027044D02*
D03*
X04895D02*
D03*
X048256Y04138D02*
D03*
X048925D02*
D03*
X048921Y039748D02*
D03*
X048252D02*
D03*
D30*
X031941Y035055D02*
D03*
Y035724D02*
D03*
X031961Y033571D02*
D03*
Y03424D02*
D03*
X042591Y042193D02*
D03*
Y041524D02*
D03*
X035228Y037248D02*
D03*
Y037917D02*
D03*
X046441Y024961D02*
D03*
Y024291D02*
D03*
X026453Y042551D02*
D03*
Y041882D02*
D03*
X027071Y039244D02*
D03*
Y038575D02*
D03*
X043319Y042189D02*
D03*
Y04152D02*
D03*
X046972Y041504D02*
D03*
Y042173D02*
D03*
X045307Y044157D02*
D03*
Y044827D02*
D03*
X042685D02*
D03*
Y044157D02*
D03*
X038087Y012756D02*
D03*
Y012087D02*
D03*
X026362Y038575D02*
D03*
X026362Y039244D02*
D03*
X045118Y030374D02*
D03*
Y029705D02*
D03*
X033906Y03726D02*
D03*
Y037929D02*
D03*
X033134Y03726D02*
D03*
Y037929D02*
D03*
X021992Y033732D02*
D03*
Y034402D02*
D03*
X028465Y034358D02*
D03*
Y033689D02*
D03*
X024327Y018661D02*
D03*
Y017992D02*
D03*
X02528D02*
D03*
Y018661D02*
D03*
X026224Y018661D02*
D03*
Y017992D02*
D03*
X021327Y011256D02*
D03*
Y011925D02*
D03*
X042736Y02937D02*
D03*
Y028701D02*
D03*
X043453Y02937D02*
D03*
Y028701D02*
D03*
X024327Y030035D02*
D03*
Y029366D02*
D03*
X02528Y030035D02*
D03*
Y029366D02*
D03*
X026224Y030063D02*
D03*
Y029394D02*
D03*
Y023398D02*
D03*
Y024067D02*
D03*
X02528Y023402D02*
D03*
Y024071D02*
D03*
X024327Y023398D02*
D03*
Y024067D02*
D03*
X036366Y034382D02*
D03*
Y035051D02*
D03*
X037075Y034374D02*
D03*
Y035043D02*
D03*
X037819D02*
D03*
Y034374D02*
D03*
X035547Y030227D02*
D03*
Y029558D02*
D03*
X03472Y030227D02*
D03*
Y029558D02*
D03*
X026453Y04089D02*
D03*
Y04022D02*
D03*
X028571Y039244D02*
D03*
Y038575D02*
D03*
X027811Y039244D02*
D03*
Y038575D02*
D03*
X044882Y01898D02*
D03*
Y01965D02*
D03*
X03385Y012114D02*
D03*
Y012783D02*
D03*
X036024Y012091D02*
D03*
Y01276D02*
D03*
X039803Y01811D02*
D03*
Y01878D02*
D03*
X038945Y01878D02*
D03*
Y01811D02*
D03*
X038921Y016276D02*
D03*
Y016945D02*
D03*
X03978D02*
D03*
Y016276D02*
D03*
X046496Y019626D02*
D03*
Y018957D02*
D03*
X046689Y016756D02*
D03*
Y016087D02*
D03*
X045839Y016756D02*
D03*
Y016087D02*
D03*
X044961Y016752D02*
D03*
Y016083D02*
D03*
X044094Y016752D02*
D03*
Y016083D02*
D03*
X044016Y01965D02*
D03*
Y01898D02*
D03*
X046732Y014488D02*
D03*
Y013819D02*
D03*
X034665Y026091D02*
D03*
Y02676D02*
D03*
X042736Y032358D02*
D03*
Y033028D02*
D03*
X046441Y022642D02*
D03*
Y023311D02*
D03*
X043453Y032354D02*
D03*
Y033024D02*
D03*
X031177Y030551D02*
D03*
Y03122D02*
D03*
X031929Y030551D02*
D03*
Y03122D02*
D03*
X035626Y031748D02*
D03*
Y032417D02*
D03*
X040024Y037933D02*
D03*
Y037264D02*
D03*
X041283Y037264D02*
D03*
Y037933D02*
D03*
X042055Y037264D02*
D03*
Y037933D02*
D03*
D31*
X014554Y048189D02*
D03*
X016154D02*
D03*
X01083Y037937D02*
D03*
X01243D02*
D03*
D32*
X023618Y043748D02*
D03*
X022949D02*
D03*
X02228D02*
D03*
X02161D02*
D03*
X020941D02*
D03*
D33*
X022201Y047597D02*
D03*
D34*
X024272Y037941D02*
D03*
Y039752D02*
D03*
D35*
X044409Y042205D02*
D03*
Y04126D02*
D03*
X045874Y042197D02*
D03*
Y041252D02*
D03*
X037299Y027008D02*
D03*
Y026063D02*
D03*
X035858D02*
D03*
Y027008D02*
D03*
D36*
X0195Y045642D02*
D03*
Y044972D02*
D03*
D37*
X03662Y03827D02*
D03*
Y038014D02*
D03*
Y037758D02*
D03*
Y037502D02*
D03*
Y037246D02*
D03*
Y03699D02*
D03*
Y036734D02*
D03*
Y036478D02*
D03*
Y036222D02*
D03*
Y035967D02*
D03*
X038746Y036222D02*
D03*
Y036478D02*
D03*
Y036734D02*
D03*
Y03699D02*
D03*
Y037246D02*
D03*
Y037502D02*
D03*
Y037758D02*
D03*
Y038014D02*
D03*
Y03827D02*
D03*
Y035967D02*
D03*
D38*
X041603Y048387D02*
D03*
Y047993D02*
D03*
Y0476D02*
D03*
Y039726D02*
D03*
Y040119D02*
D03*
Y040513D02*
D03*
X032154Y039726D02*
D03*
Y040119D02*
D03*
Y040513D02*
D03*
Y047206D02*
D03*
Y048387D02*
D03*
Y047993D02*
D03*
Y0476D02*
D03*
Y043269D02*
D03*
Y043663D02*
D03*
Y044056D02*
D03*
Y04445D02*
D03*
Y044844D02*
D03*
Y045631D02*
D03*
Y046025D02*
D03*
Y046418D02*
D03*
Y046812D02*
D03*
Y045237D02*
D03*
Y042875D02*
D03*
X041603Y043269D02*
D03*
Y042481D02*
D03*
Y042088D02*
D03*
Y041694D02*
D03*
Y0413D02*
D03*
Y040907D02*
D03*
Y043663D02*
D03*
Y044056D02*
D03*
Y042875D02*
D03*
Y04445D02*
D03*
Y044844D02*
D03*
X032154Y042481D02*
D03*
Y0413D02*
D03*
Y042088D02*
D03*
Y041694D02*
D03*
Y040907D02*
D03*
X041603Y045237D02*
D03*
Y045631D02*
D03*
Y046025D02*
D03*
Y046418D02*
D03*
Y046812D02*
D03*
Y047206D02*
D03*
D39*
X033729Y048781D02*
D03*
X03806D02*
D03*
X037666D02*
D03*
X034517D02*
D03*
X03491D02*
D03*
X035304D02*
D03*
X035698D02*
D03*
X036091D02*
D03*
X036485D02*
D03*
X036879D02*
D03*
X034123D02*
D03*
X037272D02*
D03*
X038454D02*
D03*
X033729Y039332D02*
D03*
X034517D02*
D03*
X03491D02*
D03*
X035304D02*
D03*
X034123D02*
D03*
X037272D02*
D03*
X036879D02*
D03*
X036485D02*
D03*
X036091D02*
D03*
X035698D02*
D03*
X037666D02*
D03*
X038847D02*
D03*
X039241D02*
D03*
X039635D02*
D03*
X040028D02*
D03*
X03806D02*
D03*
X038454D02*
D03*
X040028Y048781D02*
D03*
X039635D02*
D03*
X039241D02*
D03*
X038847D02*
D03*
D40*
X020272Y033067D02*
D03*
Y034839D02*
D03*
X023181Y013114D02*
D03*
Y011343D02*
D03*
X026028Y013114D02*
D03*
Y011343D02*
D03*
X026673Y035075D02*
D03*
Y033303D02*
D03*
D41*
X024724Y035165D02*
D03*
X022913D02*
D03*
X023819D02*
D03*
D42*
Y033039D02*
D03*
D43*
X029957Y030736D02*
D03*
Y033256D02*
D03*
D44*
X018748Y037675D02*
D03*
Y038175D02*
D03*
Y038675D02*
D03*
X01674Y037675D02*
D03*
Y038175D02*
D03*
Y038675D02*
D03*
X018748Y039175D02*
D03*
X01674D02*
D03*
D45*
X025815Y020327D02*
D03*
X024161D02*
D03*
X025811Y026087D02*
D03*
X024157D02*
D03*
X024161Y014945D02*
D03*
X025815D02*
D03*
D46*
X025252Y022551D02*
D03*
X024504D02*
D03*
X024878Y021528D02*
D03*
Y027496D02*
D03*
X024504Y02852D02*
D03*
X025252D02*
D03*
Y017165D02*
D03*
X024504D02*
D03*
X024878Y016142D02*
D03*
X034059Y028272D02*
D03*
X033311D02*
D03*
X033685Y027248D02*
D03*
X031819Y037102D02*
D03*
X031445Y038126D02*
D03*
X032193D02*
D03*
D47*
X032945Y034929D02*
D03*
Y033906D02*
D03*
D48*
X045974Y03248D02*
D03*
X046474D02*
D03*
X046974D02*
D03*
X047474D02*
D03*
Y029646D02*
D03*
X046974D02*
D03*
X046474D02*
D03*
X045974D02*
D03*
D49*
X038406Y032988D02*
D03*
Y032791D02*
D03*
X041752Y032988D02*
D03*
Y032791D02*
D03*
Y032594D02*
D03*
Y032398D02*
D03*
Y032201D02*
D03*
Y032004D02*
D03*
Y031807D02*
D03*
Y03161D02*
D03*
Y031413D02*
D03*
Y031217D02*
D03*
Y03102D02*
D03*
Y030823D02*
D03*
X038406D02*
D03*
Y03102D02*
D03*
Y031217D02*
D03*
Y031413D02*
D03*
Y03161D02*
D03*
Y031807D02*
D03*
Y032004D02*
D03*
Y032201D02*
D03*
Y032398D02*
D03*
Y032594D02*
D03*
Y032791D02*
D03*
D50*
X041161Y033579D02*
D03*
X040965D02*
D03*
X040768D02*
D03*
X040571D02*
D03*
X040374D02*
D03*
X040177D02*
D03*
X03998D02*
D03*
X039783D02*
D03*
X039587D02*
D03*
X03939D02*
D03*
X040965Y030232D02*
D03*
X041161D02*
D03*
X040768D02*
D03*
X040571D02*
D03*
X040374D02*
D03*
X040177D02*
D03*
X03998D02*
D03*
X039783D02*
D03*
X039587D02*
D03*
X03939D02*
D03*
X039193Y033579D02*
D03*
Y030232D02*
D03*
X038996Y033579D02*
D03*
Y030232D02*
D03*
D51*
X012075Y034768D02*
D03*
X015815D02*
D03*
D52*
X01465Y0466D02*
D03*
Y045D02*
D03*
D53*
X045065Y014291D02*
D03*
X045959Y014567D02*
D03*
Y014016D02*
D03*
D54*
X034547Y031307D02*
D03*
Y032764D02*
D03*
D55*
X043098Y037972D02*
D03*
Y037224D02*
D03*
X044122Y037598D02*
D03*
D56*
X043071Y015392D02*
D03*
Y015892D02*
D03*
Y016392D02*
D03*
Y016892D02*
D03*
X040945Y015392D02*
D03*
Y015892D02*
D03*
Y016392D02*
D03*
Y016892D02*
D03*
D113*
X030984Y026929D02*
D03*
Y028268D02*
D03*
D114*
X028335Y012823D02*
D03*
X037059Y011051D02*
D03*
X034929Y011055D02*
D03*
X048654Y030528D02*
D03*
Y031528D02*
D03*
Y032528D02*
D03*
X032823Y011071D02*
D03*
X048654Y023319D02*
D03*
Y024319D02*
D03*
Y025319D02*
D03*
X047654Y022319D02*
D03*
Y023319D02*
D03*
Y024319D02*
D03*
Y025319D02*
D03*
X048654Y033638D02*
D03*
Y034638D02*
D03*
Y035638D02*
D03*
Y036638D02*
D03*
Y037638D02*
D03*
D115*
X031335Y012828D02*
D03*
X038059Y011051D02*
D03*
X035929Y011055D02*
D03*
X033823Y011071D02*
D03*
D116*
X027382Y029906D02*
D03*
X028382D02*
D03*
Y026906D02*
D03*
X028358Y015492D02*
D03*
Y018492D02*
D03*
X027358D02*
D03*
Y023902D02*
D03*
X028358D02*
D03*
Y020902D02*
D03*
D117*
X027382Y026906D02*
D03*
X027358Y015492D02*
D03*
Y020902D02*
D03*
D118*
X020366Y018315D02*
D03*
Y013591D02*
D03*
X015563Y018391D02*
D03*
Y013591D02*
D03*
X021154Y015953D02*
D03*
X021126Y028747D02*
D03*
X015535Y026385D02*
D03*
Y031185D02*
D03*
X020339Y026385D02*
D03*
Y031109D02*
D03*
X020354Y024728D02*
D03*
Y020004D02*
D03*
X015551Y024804D02*
D03*
Y020004D02*
D03*
X021142Y022366D02*
D03*
D119*
X017744Y037756D02*
D03*
Y038228D02*
D03*
Y038661D02*
D03*
Y039134D02*
D03*
X01798D02*
D03*
Y038661D02*
D03*
Y038228D02*
D03*
Y037756D02*
D03*
X017508D02*
D03*
Y038228D02*
D03*
Y038661D02*
D03*
Y039134D02*
D03*
X012386Y011457D02*
D03*
X010811Y012638D02*
D03*
X010614Y012047D02*
D03*
X011598Y011063D02*
D03*
X012583Y012047D02*
D03*
X012386Y012638D02*
D03*
X011598Y013032D02*
D03*
X010811Y011457D02*
D03*
X043465Y047598D02*
D03*
X044252Y049173D02*
D03*
X045039Y04878D02*
D03*
X045236Y048189D02*
D03*
X044252Y047205D02*
D03*
X043268Y048189D02*
D03*
X043465Y04878D02*
D03*
X045039Y047598D02*
D03*
X048513Y011502D02*
D03*
X046939Y012683D02*
D03*
X046742Y012092D02*
D03*
X047726Y011108D02*
D03*
X04871Y012092D02*
D03*
X048513Y012683D02*
D03*
X047726Y013076D02*
D03*
X046939Y011502D02*
D03*
X010965Y043453D02*
D03*
X011752Y045028D02*
D03*
X012539Y044634D02*
D03*
X012736Y044043D02*
D03*
X011752Y043059D02*
D03*
X010768Y044043D02*
D03*
X010965Y044634D02*
D03*
X012539Y043453D02*
D03*
D120*
X011976Y024102D02*
D03*
Y022102D02*
D03*
Y030894D02*
D03*
Y028894D02*
D03*
X01202Y015972D02*
D03*
Y017972D02*
D03*
X0117Y0466D02*
D03*
Y0486D02*
D03*
D121*
X048654Y029528D02*
D03*
Y022319D02*
D03*
Y038638D02*
D03*
D122*
X011598Y012047D02*
D03*
X044252Y048189D02*
D03*
X047726Y012092D02*
D03*
X011752Y044043D02*
D03*
D123*
X041661Y01385D02*
D03*
X042661D02*
D03*
D124*
X039661Y01185D02*
D03*
X043661D02*
D03*
D125*
X048264Y01439D02*
D03*
X048241Y020465D02*
D03*
D126*
X048264Y01539D02*
D03*
Y01639D02*
D03*
X048241Y019465D02*
D03*
Y018465D02*
D03*
D127*
X0466Y0472D02*
D03*
X0486D02*
D03*
Y0492D02*
D03*
X0466D02*
D03*
X0476Y0482D02*
D03*
M02*
