G04*
G04 #@! TF.GenerationSoftware,Altium Limited,Altium Designer,21.0.8 (223)*
G04*
G04 Layer_Color=0*
%FSTAX24Y24*%
%MOIN*%
G70*
G04*
G04 #@! TF.SameCoordinates,802AE027-55FB-4EE0-B797-8BAC3B94A1FA*
G04*
G04*
G04 #@! TF.FilePolarity,Positive*
G04*
G01*
G75*
%ADD19C,0.0059*%
%ADD144C,0.0020*%
G36*
X034754Y040336D02*
X03495D01*
Y040306D01*
X034754Y040168D01*
X03472D01*
Y040299D01*
X034648D01*
Y040336D01*
X03472D01*
Y040377D01*
X034754D01*
Y040336D01*
D02*
G37*
G36*
Y040101D02*
X03495D01*
Y040071D01*
X034754Y039933D01*
X03472D01*
Y040064D01*
X034648D01*
Y040101D01*
X03472D01*
Y040142D01*
X034754D01*
Y040101D01*
D02*
G37*
G36*
X034753Y039871D02*
X034747Y039869D01*
X03474Y039867D01*
X034734Y039865D01*
X034728Y039863D01*
X034723Y03986D01*
X034719Y039857D01*
X034714Y039854D01*
X03471Y039852D01*
X034707Y039849D01*
X034704Y039847D01*
X034701Y039845D01*
X034699Y039843D01*
X034698Y039841D01*
X034697Y03984D01*
X034696Y039839D01*
X034696Y039839D01*
X034692Y039835D01*
X03469Y03983D01*
X034685Y03982D01*
X034681Y039811D01*
X034679Y039802D01*
X034677Y039794D01*
X034677Y039791D01*
Y039788D01*
X034677Y039785D01*
Y039782D01*
X034677Y039772D01*
X034679Y039763D01*
X034681Y039754D01*
X034684Y039746D01*
X034686Y03974D01*
X034688Y039737D01*
X034688Y039735D01*
X034689Y039733D01*
X03469Y039732D01*
X034691Y039731D01*
Y039731D01*
X034697Y039722D01*
X034703Y039715D01*
X034711Y039709D01*
X034718Y039704D01*
X034724Y0397D01*
X034729Y039698D01*
X034731Y039697D01*
X034733Y039696D01*
X034733Y039696D01*
X034734D01*
X034745Y039692D01*
X034757Y03969D01*
X034768Y039687D01*
X034778Y039686D01*
X034783Y039686D01*
X034788Y039685D01*
X034792D01*
X034795Y039685D01*
X034797D01*
X034799D01*
X034801D01*
X034801D01*
X034813Y039685D01*
X034823Y039686D01*
X034833Y039688D01*
X034841Y03969D01*
X034849Y039691D01*
X034852Y039692D01*
X034854Y039693D01*
X034857Y039693D01*
X034858Y039693D01*
X034859Y039694D01*
X034859D01*
X034869Y039698D01*
X034878Y039703D01*
X034886Y039708D01*
X034892Y039714D01*
X034898Y039719D01*
X034901Y039723D01*
X034903Y039726D01*
X034904Y039726D01*
Y039727D01*
X03491Y039736D01*
X034914Y039746D01*
X034917Y039756D01*
X034919Y039765D01*
X03492Y039773D01*
X034921Y039776D01*
Y03978D01*
X034921Y039782D01*
Y039785D01*
X034921Y039796D01*
X034919Y039806D01*
X034917Y039815D01*
X034914Y039822D01*
X034911Y039828D01*
X034909Y039832D01*
X034907Y039835D01*
X034906Y039835D01*
X034899Y039842D01*
X034892Y039849D01*
X034884Y039854D01*
X034876Y039859D01*
X034869Y039862D01*
X034866Y039863D01*
X034863Y039864D01*
X034861Y039865D01*
X034859Y039866D01*
X034858Y039867D01*
X034858D01*
X034867Y039906D01*
X034875Y039903D01*
X034882Y039901D01*
X034889Y039897D01*
X034895Y039894D01*
X034901Y039891D01*
X034906Y039887D01*
X034911Y039883D01*
X034916Y03988D01*
X034919Y039876D01*
X034923Y039873D01*
X034926Y03987D01*
X034928Y039868D01*
X03493Y039866D01*
X034931Y039864D01*
X034932Y039863D01*
X034932Y039863D01*
X034936Y039856D01*
X03494Y03985D01*
X034943Y039844D01*
X034946Y039838D01*
X03495Y039825D01*
X034952Y039813D01*
X034954Y039807D01*
X034954Y039802D01*
X034955Y039797D01*
X034955Y039794D01*
X034955Y03979D01*
Y039786D01*
X034955Y039772D01*
X034952Y039758D01*
X03495Y039745D01*
X034948Y03974D01*
X034946Y039735D01*
X034944Y03973D01*
X034943Y039725D01*
X034941Y039722D01*
X03494Y039718D01*
X034939Y039716D01*
X034938Y039714D01*
X034937Y039713D01*
X034937Y039713D01*
X03493Y039701D01*
X034921Y039691D01*
X034912Y039682D01*
X034903Y039675D01*
X034896Y039669D01*
X034892Y039667D01*
X034889Y039665D01*
X034887Y039663D01*
X034885Y039662D01*
X034884Y039662D01*
X034883Y039662D01*
X03487Y039655D01*
X034856Y039651D01*
X034842Y039648D01*
X034829Y039646D01*
X034823Y039645D01*
X034818Y039645D01*
X034813Y039644D01*
X034809D01*
X034806Y039644D01*
X034803D01*
X034802D01*
X034801D01*
X034785Y039645D01*
X03477Y039646D01*
X034757Y039648D01*
X03475Y03965D01*
X034744Y039652D01*
X034739Y039653D01*
X034734Y039655D01*
X03473Y039656D01*
X034726Y039657D01*
X034724Y039658D01*
X034722Y039659D01*
X03472Y039659D01*
X03472D01*
X034707Y039666D01*
X034695Y039673D01*
X034685Y039681D01*
X034681Y039685D01*
X034677Y039689D01*
X034674Y039692D01*
X03467Y039696D01*
X034668Y039699D01*
X034666Y039701D01*
X034664Y039703D01*
X034663Y039705D01*
X034663Y039706D01*
X034662Y039706D01*
X034659Y039712D01*
X034656Y039718D01*
X034651Y039731D01*
X034647Y039745D01*
X034645Y039757D01*
X034644Y039763D01*
X034643Y039769D01*
X034643Y039773D01*
Y039777D01*
X034643Y039781D01*
Y039786D01*
X034643Y039794D01*
X034644Y039803D01*
X034645Y039811D01*
X034646Y039818D01*
X034649Y039825D01*
X034651Y039832D01*
X034653Y039838D01*
X034656Y039843D01*
X034658Y039848D01*
X03466Y039853D01*
X034662Y039856D01*
X034664Y03986D01*
X034666Y039862D01*
X034667Y039864D01*
X034668Y039865D01*
X034668Y039866D01*
X034674Y039872D01*
X034679Y039877D01*
X034685Y039882D01*
X034691Y039887D01*
X034703Y039894D01*
X034715Y039901D01*
X034721Y039903D01*
X034726Y039905D01*
X034731Y039907D01*
X034735Y039908D01*
X034739Y03991D01*
X034741Y039911D01*
X034743Y039911D01*
X034743D01*
X034753Y039871D01*
D02*
G37*
G36*
X035574Y040378D02*
X035584Y040377D01*
X035592Y040374D01*
X035599Y040371D01*
X035605Y040369D01*
X035609Y040366D01*
X035612Y040364D01*
X035613Y040364D01*
X035619Y040358D01*
X035625Y040351D01*
X035629Y040344D01*
X035633Y040337D01*
X035635Y040331D01*
X035637Y040326D01*
X035638Y040325D01*
X035638Y040323D01*
X035638Y040322D01*
Y040322D01*
X035642Y040329D01*
X035646Y040335D01*
X035651Y040341D01*
X035655Y040345D01*
X035658Y040349D01*
X035661Y040351D01*
X035663Y040352D01*
X035664Y040353D01*
X03567Y040356D01*
X035676Y040359D01*
X035682Y040361D01*
X035688Y040363D01*
X035693Y040363D01*
X035696Y040364D01*
X035699D01*
X0357D01*
X035707Y040363D01*
X035714Y040362D01*
X035721Y04036D01*
X035727Y040358D01*
X035731Y040356D01*
X035735Y040354D01*
X035738Y040353D01*
X035738Y040352D01*
X035745Y040348D01*
X035751Y040343D01*
X035756Y040338D01*
X03576Y040332D01*
X035763Y040328D01*
X035766Y040324D01*
X035767Y040321D01*
X035767Y040321D01*
Y040321D01*
X035771Y040313D01*
X035773Y040305D01*
X035776Y040297D01*
X035777Y04029D01*
X035778Y040284D01*
X035778Y040279D01*
Y040269D01*
X035777Y040262D01*
X035775Y040251D01*
X035772Y040241D01*
X035768Y040232D01*
X035766Y040228D01*
X035764Y040225D01*
X035763Y040222D01*
X035761Y04022D01*
X035759Y040218D01*
X035759Y040217D01*
X035758Y040216D01*
X035758Y040215D01*
X035749Y040207D01*
X03574Y0402D01*
X035731Y040195D01*
X035721Y040191D01*
X035713Y040188D01*
X035709Y040187D01*
X035706Y040186D01*
X035704Y040186D01*
X035702Y040185D01*
X0357Y040185D01*
X0357D01*
X035693Y040222D01*
X035703Y040224D01*
X035711Y040226D01*
X035718Y040229D01*
X035724Y040232D01*
X035728Y040235D01*
X035731Y040238D01*
X035734Y04024D01*
X035734Y04024D01*
X035738Y040246D01*
X035742Y040252D01*
X035744Y040258D01*
X035746Y040263D01*
X035747Y040269D01*
X035748Y040272D01*
Y040276D01*
X035747Y040284D01*
X035745Y040291D01*
X035743Y040297D01*
X035741Y040302D01*
X035738Y040306D01*
X035736Y040309D01*
X035735Y040311D01*
X035734Y040312D01*
X035729Y040317D01*
X035723Y04032D01*
X035717Y040322D01*
X035712Y040324D01*
X035707Y040325D01*
X035704Y040326D01*
X035701D01*
X035701D01*
X0357D01*
X035696D01*
X035691Y040325D01*
X035684Y040323D01*
X035677Y04032D01*
X035672Y040316D01*
X035668Y040313D01*
X035665Y04031D01*
X035663Y040307D01*
X035662Y040307D01*
Y040307D01*
X035659Y040299D01*
X035655Y040292D01*
X035653Y040285D01*
X035652Y040278D01*
X035651Y040272D01*
X03565Y040268D01*
Y040262D01*
X035651Y04026D01*
Y040258D01*
X035618Y040254D01*
X035619Y040259D01*
X03562Y040265D01*
X035621Y040269D01*
X035621Y040273D01*
X035622Y040276D01*
Y04028D01*
X035621Y040289D01*
X035619Y040297D01*
X035617Y040305D01*
X035613Y040311D01*
X03561Y040316D01*
X035608Y040319D01*
X035606Y040321D01*
X035605Y040322D01*
X035599Y040328D01*
X035592Y040332D01*
X035585Y040335D01*
X035578Y040337D01*
X035572Y040338D01*
X035567Y040339D01*
X035565Y040339D01*
X035564D01*
X035563D01*
X035563D01*
X035553Y040338D01*
X035544Y040336D01*
X035537Y040334D01*
X03553Y04033D01*
X035525Y040327D01*
X035521Y040324D01*
X035519Y040322D01*
X035518Y040321D01*
X035512Y040314D01*
X035507Y040307D01*
X035504Y040299D01*
X035502Y040292D01*
X035501Y040286D01*
X0355Y040281D01*
X0355Y040279D01*
Y040277D01*
X0355Y040269D01*
X035502Y040262D01*
X035504Y040255D01*
X035507Y04025D01*
X035509Y040245D01*
X035511Y040242D01*
X035513Y04024D01*
X035513Y040239D01*
X03552Y040234D01*
X035527Y04023D01*
X035534Y040226D01*
X035542Y040223D01*
X035548Y04022D01*
X035551Y04022D01*
X035554Y040219D01*
X035556Y040219D01*
X035558Y040218D01*
X035559Y040218D01*
X035559D01*
X035554Y040181D01*
X035547Y040182D01*
X035541Y040183D01*
X035529Y040187D01*
X035518Y040192D01*
X035514Y040194D01*
X035509Y040197D01*
X035506Y0402D01*
X035502Y040202D01*
X035499Y040204D01*
X035497Y040207D01*
X035496Y040208D01*
X035494Y040209D01*
X035493Y04021D01*
X035493Y04021D01*
X035489Y040216D01*
X035485Y040221D01*
X035482Y040226D01*
X035479Y040232D01*
X035475Y040243D01*
X035472Y040253D01*
X035471Y040258D01*
X035471Y040262D01*
X03547Y040266D01*
X03547Y04027D01*
X035469Y040272D01*
Y040276D01*
X03547Y040285D01*
X035471Y040292D01*
X035472Y0403D01*
X035474Y040307D01*
X035476Y040313D01*
X035478Y040319D01*
X035481Y040325D01*
X035483Y040329D01*
X035485Y040334D01*
X035488Y040338D01*
X03549Y040342D01*
X035492Y040344D01*
X035494Y040346D01*
X035496Y040348D01*
X035496Y040349D01*
X035497Y040349D01*
X035502Y040355D01*
X035508Y040359D01*
X035513Y040363D01*
X035519Y040366D01*
X035524Y040369D01*
X03553Y040372D01*
X035541Y040375D01*
X035545Y040376D01*
X03555Y040377D01*
X035554Y040378D01*
X035557Y040378D01*
X03556Y040379D01*
X035562D01*
X035563D01*
X035564D01*
X035574Y040378D01*
D02*
G37*
G36*
X035581Y040101D02*
X035777D01*
Y040071D01*
X035581Y039933D01*
X035547D01*
Y040064D01*
X035475D01*
Y040101D01*
X035547D01*
Y040142D01*
X035581D01*
Y040101D01*
D02*
G37*
G36*
X03558Y039871D02*
X035573Y039869D01*
X035567Y039867D01*
X035561Y039865D01*
X035555Y039863D01*
X03555Y03986D01*
X035545Y039857D01*
X035541Y039854D01*
X035537Y039852D01*
X035534Y039849D01*
X035531Y039847D01*
X035528Y039845D01*
X035526Y039843D01*
X035525Y039841D01*
X035523Y03984D01*
X035523Y039839D01*
X035523Y039839D01*
X035519Y039835D01*
X035516Y03983D01*
X035512Y03982D01*
X035508Y039811D01*
X035506Y039802D01*
X035504Y039794D01*
X035504Y039791D01*
Y039788D01*
X035503Y039785D01*
Y039782D01*
X035504Y039772D01*
X035506Y039763D01*
X035508Y039754D01*
X03551Y039746D01*
X035513Y03974D01*
X035514Y039737D01*
X035515Y039735D01*
X035516Y039733D01*
X035517Y039732D01*
X035517Y039731D01*
Y039731D01*
X035523Y039722D01*
X03553Y039715D01*
X035537Y039709D01*
X035544Y039704D01*
X035551Y0397D01*
X035556Y039698D01*
X035558Y039697D01*
X035559Y039696D01*
X03556Y039696D01*
X035561D01*
X035572Y039692D01*
X035583Y03969D01*
X035595Y039687D01*
X035605Y039686D01*
X03561Y039686D01*
X035614Y039685D01*
X035618D01*
X035621Y039685D01*
X035624D01*
X035626D01*
X035627D01*
X035628D01*
X035639Y039685D01*
X03565Y039686D01*
X035659Y039688D01*
X035668Y03969D01*
X035676Y039691D01*
X035679Y039692D01*
X035681Y039693D01*
X035683Y039693D01*
X035685Y039693D01*
X035686Y039694D01*
X035686D01*
X035696Y039698D01*
X035705Y039703D01*
X035713Y039708D01*
X035719Y039714D01*
X035724Y039719D01*
X035728Y039723D01*
X03573Y039726D01*
X035731Y039726D01*
Y039727D01*
X035737Y039736D01*
X035741Y039746D01*
X035744Y039756D01*
X035746Y039765D01*
X035747Y039773D01*
X035748Y039776D01*
Y03978D01*
X035748Y039782D01*
Y039785D01*
X035748Y039796D01*
X035746Y039806D01*
X035743Y039815D01*
X035741Y039822D01*
X035738Y039828D01*
X035735Y039832D01*
X035734Y039835D01*
X035733Y039835D01*
X035726Y039842D01*
X035719Y039849D01*
X035711Y039854D01*
X035703Y039859D01*
X035696Y039862D01*
X035693Y039863D01*
X03569Y039864D01*
X035688Y039865D01*
X035686Y039866D01*
X035685Y039867D01*
X035685D01*
X035694Y039906D01*
X035702Y039903D01*
X035709Y039901D01*
X035715Y039897D01*
X035722Y039894D01*
X035728Y039891D01*
X035733Y039887D01*
X035738Y039883D01*
X035742Y03988D01*
X035746Y039876D01*
X035749Y039873D01*
X035752Y03987D01*
X035755Y039868D01*
X035757Y039866D01*
X035758Y039864D01*
X035759Y039863D01*
X035759Y039863D01*
X035763Y039856D01*
X035767Y03985D01*
X03577Y039844D01*
X035773Y039838D01*
X035776Y039825D01*
X035779Y039813D01*
X03578Y039807D01*
X035781Y039802D01*
X035781Y039797D01*
X035782Y039794D01*
X035782Y03979D01*
Y039786D01*
X035781Y039772D01*
X035779Y039758D01*
X035776Y039745D01*
X035775Y03974D01*
X035773Y039735D01*
X035771Y03973D01*
X03577Y039725D01*
X035768Y039722D01*
X035767Y039718D01*
X035766Y039716D01*
X035765Y039714D01*
X035764Y039713D01*
X035764Y039713D01*
X035756Y039701D01*
X035748Y039691D01*
X035739Y039682D01*
X03573Y039675D01*
X035722Y039669D01*
X035719Y039667D01*
X035716Y039665D01*
X035714Y039663D01*
X035712Y039662D01*
X03571Y039662D01*
X03571Y039662D01*
X035697Y039655D01*
X035683Y039651D01*
X035669Y039648D01*
X035656Y039646D01*
X03565Y039645D01*
X035645Y039645D01*
X03564Y039644D01*
X035636D01*
X035633Y039644D01*
X03563D01*
X035628D01*
X035628D01*
X035612Y039645D01*
X035597Y039646D01*
X035583Y039648D01*
X035577Y03965D01*
X035571Y039652D01*
X035566Y039653D01*
X035561Y039655D01*
X035557Y039656D01*
X035553Y039657D01*
X035551Y039658D01*
X035548Y039659D01*
X035547Y039659D01*
X035547D01*
X035534Y039666D01*
X035522Y039673D01*
X035512Y039681D01*
X035508Y039685D01*
X035504Y039689D01*
X0355Y039692D01*
X035497Y039696D01*
X035495Y039699D01*
X035493Y039701D01*
X035491Y039703D01*
X03549Y039705D01*
X035489Y039706D01*
X035489Y039706D01*
X035485Y039712D01*
X035482Y039718D01*
X035478Y039731D01*
X035474Y039745D01*
X035472Y039757D01*
X035471Y039763D01*
X03547Y039769D01*
X03547Y039773D01*
Y039777D01*
X035469Y039781D01*
Y039786D01*
X03547Y039794D01*
X035471Y039803D01*
X035471Y039811D01*
X035473Y039818D01*
X035475Y039825D01*
X035478Y039832D01*
X03548Y039838D01*
X035482Y039843D01*
X035485Y039848D01*
X035487Y039853D01*
X035489Y039856D01*
X035491Y03986D01*
X035493Y039862D01*
X035494Y039864D01*
X035495Y039865D01*
X035495Y039866D01*
X0355Y039872D01*
X035506Y039877D01*
X035512Y039882D01*
X035518Y039887D01*
X03553Y039894D01*
X035542Y039901D01*
X035548Y039903D01*
X035553Y039905D01*
X035558Y039907D01*
X035562Y039908D01*
X035565Y03991D01*
X035568Y039911D01*
X03557Y039911D01*
X03557D01*
X03558Y039871D01*
D02*
G37*
G36*
X036605Y040284D02*
X036598Y04028D01*
X036591Y040275D01*
X036584Y040269D01*
X036577Y040264D01*
X036572Y040259D01*
X036568Y040255D01*
X036567Y040253D01*
X036565Y040252D01*
X036565Y040252D01*
X036564Y040251D01*
X036557Y040242D01*
X03655Y040233D01*
X036544Y040224D01*
X036539Y040215D01*
X036535Y040208D01*
X036533Y040205D01*
X036532Y040202D01*
X03653Y0402D01*
X03653Y040198D01*
X036529Y040197D01*
Y040197D01*
X036493D01*
X036496Y040203D01*
X036499Y04021D01*
X036502Y040217D01*
X036505Y040223D01*
X036508Y040228D01*
X03651Y040232D01*
X036511Y040235D01*
X036512Y040235D01*
Y040236D01*
X036517Y040244D01*
X036522Y040251D01*
X036526Y040257D01*
X03653Y040262D01*
X036533Y040266D01*
X036536Y040269D01*
X036537Y040271D01*
X036538Y040271D01*
X036301D01*
Y040308D01*
X036605D01*
Y040284D01*
D02*
G37*
G36*
X0366Y039936D02*
X036564D01*
Y040084D01*
X036551Y040074D01*
X036538Y040064D01*
X036525Y040055D01*
X036512Y040047D01*
X036506Y040043D01*
X036501Y04004D01*
X036496Y040037D01*
X036492Y040035D01*
X036489Y040033D01*
X036487Y040032D01*
X036485Y040031D01*
X036484Y04003D01*
X036467Y040022D01*
X036449Y040014D01*
X036433Y040007D01*
X036425Y040005D01*
X036418Y040002D01*
X036411Y039999D01*
X036405Y039998D01*
X0364Y039996D01*
X036396Y039995D01*
X036392Y039993D01*
X036389Y039992D01*
X036387Y039992D01*
X036387D01*
X036369Y039988D01*
X03636Y039986D01*
X036352Y039985D01*
X036345Y039983D01*
X036338Y039982D01*
X036331Y039981D01*
X036325Y03998D01*
X03632Y03998D01*
X036315Y039979D01*
X036311Y039979D01*
X036307D01*
X036305Y039978D01*
X036303D01*
X036302D01*
X036301D01*
Y040016D01*
X036318Y040018D01*
X036333Y04002D01*
X036347Y040022D01*
X036354Y040023D01*
X03636Y040025D01*
X036365Y040026D01*
X03637Y040027D01*
X036374Y040028D01*
X036378Y040029D01*
X03638Y04003D01*
X036383Y04003D01*
X036384Y04003D01*
X036384D01*
X036404Y040037D01*
X036423Y040044D01*
X036432Y040047D01*
X036441Y040051D01*
X036449Y040055D01*
X036457Y040058D01*
X036464Y040061D01*
X03647Y040064D01*
X036475Y040067D01*
X03648Y040069D01*
X036484Y040071D01*
X036487Y040073D01*
X036488Y040074D01*
X036489Y040074D01*
X036498Y040079D01*
X036507Y040085D01*
X036515Y04009D01*
X036523Y040095D01*
X03653Y0401D01*
X036537Y040105D01*
X036543Y040109D01*
X036549Y040113D01*
X036554Y040117D01*
X036558Y040121D01*
X036562Y040124D01*
X036565Y040127D01*
X036567Y040129D01*
X036569Y04013D01*
X03657Y040131D01*
X03657Y040132D01*
X0366D01*
Y039936D01*
D02*
G37*
G36*
X036407Y039859D02*
X0364Y039857D01*
X036393Y039855D01*
X036387Y039853D01*
X036382Y039851D01*
X036376Y039848D01*
X036372Y039846D01*
X036368Y039842D01*
X036364Y03984D01*
X03636Y039838D01*
X036358Y039835D01*
X036355Y039833D01*
X036353Y039831D01*
X036352Y039829D01*
X03635Y039828D01*
X03635Y039828D01*
X036349Y039827D01*
X036346Y039823D01*
X036343Y039818D01*
X036338Y039808D01*
X036335Y039799D01*
X036333Y03979D01*
X036331Y039782D01*
X036331Y039779D01*
Y039776D01*
X03633Y039773D01*
Y03977D01*
X036331Y03976D01*
X036332Y039751D01*
X036335Y039742D01*
X036337Y039734D01*
X03634Y039728D01*
X036341Y039725D01*
X036342Y039723D01*
X036343Y039721D01*
X036344Y03972D01*
X036344Y039719D01*
Y039719D01*
X03635Y039711D01*
X036357Y039704D01*
X036364Y039697D01*
X036371Y039693D01*
X036377Y039689D01*
X036383Y039686D01*
X036385Y039685D01*
X036386Y039684D01*
X036387Y039684D01*
X036387D01*
X036399Y03968D01*
X03641Y039678D01*
X036421Y039676D01*
X036432Y039674D01*
X036437Y039674D01*
X036441Y039673D01*
X036445D01*
X036448Y039673D01*
X036451D01*
X036453D01*
X036454D01*
X036455D01*
X036466Y039673D01*
X036477Y039674D01*
X036486Y039676D01*
X036495Y039678D01*
X036502Y039679D01*
X036505Y03968D01*
X036508Y039681D01*
X03651Y039681D01*
X036511Y039682D01*
X036512Y039682D01*
X036513D01*
X036523Y039686D01*
X036532Y039691D01*
X036539Y039697D01*
X036546Y039702D01*
X036551Y039707D01*
X036555Y039711D01*
X036557Y039714D01*
X036558Y039714D01*
Y039715D01*
X036563Y039724D01*
X036568Y039734D01*
X036571Y039744D01*
X036573Y039753D01*
X036574Y039761D01*
X036574Y039765D01*
Y039768D01*
X036575Y03977D01*
Y039773D01*
X036574Y039784D01*
X036573Y039794D01*
X03657Y039803D01*
X036567Y03981D01*
X036564Y039816D01*
X036562Y03982D01*
X03656Y039823D01*
X03656Y039824D01*
X036553Y039831D01*
X036546Y039837D01*
X036538Y039842D01*
X03653Y039847D01*
X036523Y03985D01*
X036519Y039852D01*
X036517Y039853D01*
X036515Y039853D01*
X036513Y039854D01*
X036512Y039855D01*
X036511D01*
X036521Y039894D01*
X036529Y039891D01*
X036536Y039889D01*
X036542Y039885D01*
X036549Y039882D01*
X036554Y039879D01*
X03656Y039875D01*
X036565Y039871D01*
X036569Y039868D01*
X036573Y039864D01*
X036576Y039861D01*
X036579Y039858D01*
X036581Y039856D01*
X036584Y039854D01*
X036585Y039852D01*
X036585Y039851D01*
X036586Y039851D01*
X03659Y039845D01*
X036594Y039839D01*
X036597Y039832D01*
X036599Y039826D01*
X036603Y039813D01*
X036606Y039801D01*
X036607Y039795D01*
X036608Y03979D01*
X036608Y039786D01*
X036609Y039782D01*
X036609Y039779D01*
Y039774D01*
X036608Y03976D01*
X036606Y039746D01*
X036603Y039734D01*
X036602Y039728D01*
X0366Y039723D01*
X036598Y039718D01*
X036596Y039714D01*
X036595Y03971D01*
X036594Y039707D01*
X036592Y039704D01*
X036591Y039703D01*
X036591Y039701D01*
X036591Y039701D01*
X036583Y039689D01*
X036574Y039679D01*
X036566Y03967D01*
X036557Y039663D01*
X036549Y039657D01*
X036546Y039655D01*
X036543Y039653D01*
X03654Y039652D01*
X036539Y039651D01*
X036537Y03965D01*
X036537Y03965D01*
X036523Y039644D01*
X036509Y039639D01*
X036495Y039636D01*
X036483Y039634D01*
X036477Y039633D01*
X036471Y039633D01*
X036467Y039632D01*
X036463D01*
X036459Y039632D01*
X036457D01*
X036455D01*
X036455D01*
X036439Y039633D01*
X036424Y039634D01*
X03641Y039637D01*
X036404Y039638D01*
X036398Y03964D01*
X036393Y039641D01*
X036388Y039643D01*
X036383Y039644D01*
X03638Y039645D01*
X036377Y039646D01*
X036375Y039647D01*
X036374Y039648D01*
X036373D01*
X03636Y039654D01*
X036348Y039662D01*
X036338Y039669D01*
X036335Y039673D01*
X036331Y039677D01*
X036327Y03968D01*
X036324Y039684D01*
X036321Y039687D01*
X03632Y03969D01*
X036318Y039691D01*
X036317Y039693D01*
X036316Y039694D01*
X036316Y039694D01*
X036312Y0397D01*
X036309Y039707D01*
X036304Y03972D01*
X036301Y039733D01*
X036299Y039745D01*
X036298Y039752D01*
X036297Y039757D01*
X036296Y039762D01*
Y039766D01*
X036296Y039769D01*
Y039774D01*
X036296Y039783D01*
X036297Y039791D01*
X036298Y039799D01*
X0363Y039806D01*
X036302Y039813D01*
X036304Y03982D01*
X036307Y039826D01*
X036309Y039832D01*
X036311Y039836D01*
X036314Y039841D01*
X036316Y039845D01*
X036318Y039848D01*
X03632Y03985D01*
X036321Y039853D01*
X036321Y039853D01*
X036322Y039854D01*
X036327Y03986D01*
X036332Y039865D01*
X036338Y03987D01*
X036345Y039875D01*
X036357Y039883D01*
X036369Y039889D01*
X036375Y039891D01*
X03638Y039894D01*
X036385Y039895D01*
X036389Y039897D01*
X036392Y039898D01*
X036395Y039899D01*
X036397Y039899D01*
X036397D01*
X036407Y039859D01*
D02*
G37*
G36*
X038451Y040995D02*
X038458Y040994D01*
X038466Y040992D01*
X038472Y040991D01*
X038478Y040988D01*
X038484Y040986D01*
X03849Y040984D01*
X038494Y040981D01*
X038499Y040979D01*
X038503Y040976D01*
X038506Y040974D01*
X038509Y040972D01*
X038511Y04097D01*
X038512Y040969D01*
X038513Y040968D01*
X038514Y040968D01*
X038519Y040962D01*
X038523Y040957D01*
X038526Y040951D01*
X038529Y040946D01*
X038533Y04094D01*
X038535Y040934D01*
X038538Y040924D01*
X038539Y040919D01*
X03854Y040915D01*
X03854Y040911D01*
X038541Y040907D01*
X038541Y040905D01*
Y040895D01*
X03854Y04089D01*
X038538Y040879D01*
X038535Y04087D01*
X038532Y040861D01*
X038528Y040854D01*
X038526Y040851D01*
X038525Y040848D01*
X038524Y040846D01*
X038523Y040845D01*
X038522Y040844D01*
X038522Y040843D01*
X038604Y04086D01*
Y040981D01*
X038639D01*
Y04083D01*
X038484Y040801D01*
X038479Y040836D01*
X038484Y040839D01*
X038487Y040843D01*
X038491Y040846D01*
X038494Y04085D01*
X038497Y040853D01*
X038499Y040856D01*
X0385Y040858D01*
X0385Y040858D01*
X038503Y040864D01*
X038505Y04087D01*
X038506Y040875D01*
X038508Y04088D01*
X038508Y040884D01*
X038508Y040888D01*
Y040896D01*
X038508Y040902D01*
X038505Y040911D01*
X038502Y040919D01*
X038499Y040926D01*
X038496Y040931D01*
X038493Y040935D01*
X038491Y040937D01*
X03849Y040938D01*
X03849D01*
X038482Y040944D01*
X038474Y040948D01*
X038466Y040951D01*
X038458Y040954D01*
X038451Y040955D01*
X038448Y040955D01*
X038445D01*
X038443Y040956D01*
X038441D01*
X03844D01*
X03844D01*
X038434D01*
X038428Y040955D01*
X038417Y040953D01*
X038408Y04095D01*
X038401Y040947D01*
X038394Y040943D01*
X03839Y04094D01*
X038388Y040939D01*
X038387Y040938D01*
X038387Y040937D01*
X038386Y040937D01*
X038383Y040933D01*
X03838Y04093D01*
X038374Y040922D01*
X038371Y040915D01*
X038369Y040907D01*
X038367Y040901D01*
X038366Y040896D01*
X038366Y040894D01*
Y040891D01*
X038366Y040883D01*
X038368Y040876D01*
X03837Y040869D01*
X038373Y040864D01*
X038376Y040859D01*
X038378Y040856D01*
X03838Y040854D01*
X03838Y040853D01*
X038386Y040848D01*
X038393Y040843D01*
X0384Y04084D01*
X038407Y040837D01*
X038413Y040836D01*
X038418Y040834D01*
X03842Y040834D01*
X038422Y040833D01*
X038422D01*
X038423D01*
X03842Y040794D01*
X038413Y040795D01*
X038406Y040797D01*
X038394Y040801D01*
X038383Y040805D01*
X038379Y040808D01*
X038375Y040811D01*
X038371Y040813D01*
X038367Y040815D01*
X038365Y040818D01*
X038363Y04082D01*
X038361Y040822D01*
X038359Y040822D01*
X038359Y040823D01*
X038358Y040824D01*
X038354Y040829D01*
X038351Y040834D01*
X038348Y04084D01*
X038345Y040846D01*
X038341Y040857D01*
X038338Y040867D01*
X038337Y040872D01*
X038337Y040877D01*
X038336Y040881D01*
X038336Y040884D01*
X038335Y040888D01*
Y040891D01*
X038336Y040901D01*
X038337Y040909D01*
X038339Y040918D01*
X038341Y040925D01*
X038344Y040932D01*
X038347Y040939D01*
X03835Y040945D01*
X038354Y04095D01*
X038357Y040955D01*
X03836Y040959D01*
X038364Y040963D01*
X038366Y040966D01*
X038369Y040968D01*
X03837Y04097D01*
X038372Y040971D01*
X038372Y040971D01*
X038378Y040975D01*
X038384Y040979D01*
X03839Y040982D01*
X038396Y040985D01*
X038408Y040989D01*
X038419Y040992D01*
X038424Y040993D01*
X038428Y040994D01*
X038432Y040994D01*
X038436Y040995D01*
X038439Y040995D01*
X038441D01*
X038442D01*
X038443D01*
X038451Y040995D01*
D02*
G37*
G36*
X038447Y040715D02*
X038643D01*
Y040685D01*
X038447Y040547D01*
X038413D01*
Y040678D01*
X038341D01*
Y040715D01*
X038413D01*
Y040756D01*
X038447D01*
Y040715D01*
D02*
G37*
G36*
X038446Y040485D02*
X038439Y040483D01*
X038433Y040481D01*
X038427Y040479D01*
X038421Y040477D01*
X038416Y040474D01*
X038411Y040472D01*
X038407Y040468D01*
X038403Y040466D01*
X0384Y040464D01*
X038397Y040461D01*
X038394Y040459D01*
X038392Y040457D01*
X038391Y040455D01*
X03839Y040454D01*
X038389Y040454D01*
X038389Y040453D01*
X038385Y040449D01*
X038383Y040444D01*
X038378Y040434D01*
X038374Y040425D01*
X038372Y040416D01*
X03837Y040408D01*
X03837Y040405D01*
Y040402D01*
X03837Y040399D01*
Y040396D01*
X03837Y040386D01*
X038372Y040377D01*
X038374Y040368D01*
X038377Y04036D01*
X038379Y040354D01*
X03838Y040351D01*
X038381Y040349D01*
X038382Y040347D01*
X038383Y040346D01*
X038383Y040345D01*
Y040345D01*
X03839Y040336D01*
X038396Y040329D01*
X038404Y040323D01*
X038411Y040319D01*
X038417Y040315D01*
X038422Y040312D01*
X038424Y040311D01*
X038425Y04031D01*
X038426Y04031D01*
X038427D01*
X038438Y040306D01*
X038449Y040304D01*
X038461Y040302D01*
X038471Y0403D01*
X038476Y0403D01*
X038481Y040299D01*
X038484D01*
X038487Y040299D01*
X03849D01*
X038492D01*
X038494D01*
X038494D01*
X038505Y040299D01*
X038516Y0403D01*
X038526Y040302D01*
X038534Y040304D01*
X038542Y040305D01*
X038545Y040306D01*
X038547Y040307D01*
X03855Y040307D01*
X038551Y040308D01*
X038552Y040308D01*
X038552D01*
X038562Y040312D01*
X038571Y040317D01*
X038579Y040322D01*
X038585Y040328D01*
X038591Y040333D01*
X038594Y040337D01*
X038596Y04034D01*
X038597Y04034D01*
Y040341D01*
X038603Y04035D01*
X038607Y04036D01*
X03861Y04037D01*
X038612Y040379D01*
X038613Y040387D01*
X038614Y040391D01*
Y040394D01*
X038614Y040396D01*
Y040399D01*
X038614Y04041D01*
X038612Y04042D01*
X038609Y040429D01*
X038607Y040436D01*
X038604Y040442D01*
X038602Y040446D01*
X0386Y040449D01*
X038599Y04045D01*
X038592Y040457D01*
X038585Y040463D01*
X038577Y040468D01*
X038569Y040473D01*
X038562Y040476D01*
X038559Y040478D01*
X038556Y040479D01*
X038554Y040479D01*
X038552Y04048D01*
X038551Y040481D01*
X038551D01*
X03856Y04052D01*
X038568Y040517D01*
X038575Y040515D01*
X038581Y040511D01*
X038588Y040508D01*
X038594Y040505D01*
X038599Y040501D01*
X038604Y040497D01*
X038609Y040494D01*
X038612Y04049D01*
X038616Y040487D01*
X038619Y040484D01*
X038621Y040482D01*
X038623Y04048D01*
X038624Y040478D01*
X038625Y040477D01*
X038625Y040477D01*
X038629Y040471D01*
X038633Y040465D01*
X038636Y040458D01*
X038639Y040452D01*
X038643Y040439D01*
X038645Y040427D01*
X038647Y040421D01*
X038647Y040416D01*
X038647Y040412D01*
X038648Y040408D01*
X038648Y040405D01*
Y0404D01*
X038647Y040386D01*
X038645Y040372D01*
X038643Y04036D01*
X038641Y040354D01*
X038639Y040349D01*
X038637Y040344D01*
X038636Y04034D01*
X038634Y040336D01*
X038633Y040333D01*
X038632Y04033D01*
X038631Y040329D01*
X03863Y040327D01*
X03863Y040327D01*
X038623Y040315D01*
X038614Y040305D01*
X038605Y040296D01*
X038596Y040289D01*
X038588Y040283D01*
X038585Y040281D01*
X038582Y040279D01*
X03858Y040277D01*
X038578Y040277D01*
X038577Y040276D01*
X038576Y040276D01*
X038563Y04027D01*
X038549Y040265D01*
X038535Y040262D01*
X038522Y04026D01*
X038516Y040259D01*
X038511Y040259D01*
X038506Y040258D01*
X038502D01*
X038499Y040258D01*
X038496D01*
X038494D01*
X038494D01*
X038478Y040259D01*
X038463Y04026D01*
X038449Y040263D01*
X038443Y040264D01*
X038437Y040266D01*
X038432Y040267D01*
X038427Y040269D01*
X038423Y04027D01*
X038419Y040271D01*
X038417Y040272D01*
X038415Y040273D01*
X038413Y040274D01*
X038413D01*
X0384Y04028D01*
X038388Y040288D01*
X038378Y040295D01*
X038374Y040299D01*
X03837Y040303D01*
X038366Y040306D01*
X038363Y04031D01*
X038361Y040313D01*
X038359Y040316D01*
X038357Y040317D01*
X038356Y040319D01*
X038356Y04032D01*
X038355Y04032D01*
X038352Y040326D01*
X038349Y040333D01*
X038344Y040346D01*
X03834Y040359D01*
X038338Y040371D01*
X038337Y040378D01*
X038336Y040383D01*
X038336Y040388D01*
Y040392D01*
X038335Y040395D01*
Y0404D01*
X038336Y040409D01*
X038337Y040417D01*
X038338Y040425D01*
X038339Y040432D01*
X038342Y040439D01*
X038344Y040446D01*
X038346Y040452D01*
X038349Y040458D01*
X038351Y040462D01*
X038353Y040467D01*
X038355Y040471D01*
X038357Y040474D01*
X038359Y040476D01*
X03836Y040479D01*
X038361Y040479D01*
X038361Y04048D01*
X038366Y040486D01*
X038372Y040491D01*
X038378Y040496D01*
X038384Y040501D01*
X038396Y040509D01*
X038408Y040515D01*
X038414Y040517D01*
X038419Y04052D01*
X038424Y040521D01*
X038428Y040523D01*
X038432Y040524D01*
X038434Y040525D01*
X038436Y040525D01*
X038436D01*
X038446Y040485D01*
D02*
G37*
G36*
X039316Y040985D02*
X039324Y040984D01*
X039331Y040982D01*
X039338Y040981D01*
X039344Y040979D01*
X03935Y040977D01*
X039355Y040974D01*
X03936Y040972D01*
X039365Y040969D01*
X039369Y040967D01*
X039372Y040965D01*
X039375Y040963D01*
X039377Y040961D01*
X039378Y04096D01*
X039379Y040959D01*
X039379Y040959D01*
X039384Y040954D01*
X039389Y040949D01*
X039392Y040943D01*
X039395Y040938D01*
X039398Y040933D01*
X0394Y040927D01*
X039403Y040917D01*
X039405Y040913D01*
X039406Y040909D01*
X039406Y040905D01*
X039407Y040902D01*
X039407Y040899D01*
Y040895D01*
X039407Y040888D01*
X039405Y04088D01*
X039404Y040873D01*
X039402Y040867D01*
X0394Y040862D01*
X039399Y040858D01*
X039397Y040855D01*
X039397Y040855D01*
Y040854D01*
X039393Y040847D01*
X039388Y040841D01*
X039383Y040836D01*
X039378Y040831D01*
X039373Y040827D01*
X03937Y040824D01*
X039367Y040822D01*
X039367Y040822D01*
X039375D01*
X039382Y040822D01*
X039389Y040823D01*
X039396Y040824D01*
X039403Y040824D01*
X039408Y040825D01*
X039414Y040826D01*
X039418Y040827D01*
X039423Y040828D01*
X039426Y040829D01*
X039429Y04083D01*
X039432Y04083D01*
X039434Y040831D01*
X039435Y040832D01*
X039436Y040832D01*
X039436D01*
X039445Y040836D01*
X039453Y040841D01*
X039459Y040846D01*
X039464Y04085D01*
X039469Y040854D01*
X039472Y040857D01*
X039473Y040859D01*
X039474Y04086D01*
X039477Y040865D01*
X039479Y04087D01*
X039481Y040876D01*
X039483Y040881D01*
X039483Y040885D01*
X039484Y040888D01*
Y040891D01*
X039483Y040899D01*
X039481Y040907D01*
X039479Y040913D01*
X039476Y040919D01*
X039473Y040923D01*
X03947Y040926D01*
X039469Y040928D01*
X039468Y040929D01*
X039464Y040932D01*
X039459Y040935D01*
X039454Y040937D01*
X039448Y040939D01*
X039444Y040941D01*
X03944Y040942D01*
X039437Y040943D01*
X039437Y040943D01*
X039436D01*
X039439Y04098D01*
X039452Y040978D01*
X039462Y040974D01*
X039472Y040969D01*
X03948Y040964D01*
X039486Y04096D01*
X039489Y040958D01*
X039491Y040956D01*
X039492Y040954D01*
X039493Y040953D01*
X039494Y040953D01*
X039494Y040952D01*
X039498Y040948D01*
X039501Y040943D01*
X039506Y040933D01*
X03951Y040924D01*
X039512Y040915D01*
X039514Y040906D01*
X039514Y040903D01*
Y0409D01*
X039514Y040897D01*
Y040894D01*
X039514Y040885D01*
X039513Y040877D01*
X039511Y040869D01*
X039509Y040861D01*
X039506Y040855D01*
X039504Y040848D01*
X0395Y040843D01*
X039497Y040837D01*
X039494Y040833D01*
X03949Y040829D01*
X039488Y040825D01*
X039485Y040822D01*
X039483Y04082D01*
X039481Y040818D01*
X03948Y040818D01*
X039479Y040817D01*
X039472Y040811D01*
X039462Y040807D01*
X039453Y040802D01*
X039443Y040798D01*
X039432Y040795D01*
X039422Y040793D01*
X039411Y040791D01*
X039401Y040789D01*
X039391Y040787D01*
X039382Y040787D01*
X039373Y040786D01*
X039366Y040785D01*
X03936D01*
X039356Y040785D01*
X039354D01*
X039353D01*
X039352D01*
X039352D01*
X039338Y040785D01*
X039325Y040786D01*
X039313Y040787D01*
X039301Y04079D01*
X039291Y040792D01*
X039282Y040794D01*
X039274Y040797D01*
X039266Y0408D01*
X03926Y040802D01*
X039254Y040805D01*
X03925Y040807D01*
X039246Y04081D01*
X039243Y040811D01*
X039241Y040813D01*
X03924Y040814D01*
X03924Y040814D01*
X039233Y04082D01*
X039228Y040826D01*
X039224Y040832D01*
X03922Y040838D01*
X039216Y040845D01*
X039214Y040851D01*
X039212Y040857D01*
X03921Y040863D01*
X039209Y040868D01*
X039207Y040874D01*
X039206Y040878D01*
X039206Y040882D01*
Y040885D01*
X039206Y040888D01*
Y04089D01*
X039206Y0409D01*
X039208Y040909D01*
X039209Y040917D01*
X039212Y040925D01*
X039214Y04093D01*
X039216Y040935D01*
X039217Y040936D01*
X039218Y040938D01*
X039218Y040938D01*
Y040939D01*
X039223Y040946D01*
X03923Y040953D01*
X039236Y040959D01*
X039242Y040964D01*
X039247Y040967D01*
X039252Y04097D01*
X039254Y040971D01*
X039255Y040972D01*
X039255Y040972D01*
X039256D01*
X039265Y040977D01*
X039275Y04098D01*
X039283Y040982D01*
X039292Y040983D01*
X039299Y040985D01*
X039301D01*
X039304Y040985D01*
X039306D01*
X039307D01*
X039308D01*
X039309D01*
X039316Y040985D01*
D02*
G37*
G36*
X039317Y040707D02*
X039513D01*
Y040677D01*
X039317Y040539D01*
X039283D01*
Y04067D01*
X039211D01*
Y040707D01*
X039283D01*
Y040749D01*
X039317D01*
Y040707D01*
D02*
G37*
G36*
X039316Y040477D02*
X039309Y040475D01*
X039303Y040473D01*
X039297Y040471D01*
X039291Y040469D01*
X039286Y040466D01*
X039282Y040464D01*
X039277Y040461D01*
X039273Y040458D01*
X03927Y040456D01*
X039267Y040453D01*
X039264Y040451D01*
X039262Y040449D01*
X039261Y040447D01*
X03926Y040446D01*
X039259Y040446D01*
X039259Y040445D01*
X039255Y040441D01*
X039253Y040436D01*
X039248Y040427D01*
X039244Y040417D01*
X039242Y040408D01*
X03924Y0404D01*
X03924Y040397D01*
Y040394D01*
X03924Y040392D01*
Y040388D01*
X03924Y040378D01*
X039242Y040369D01*
X039244Y04036D01*
X039247Y040352D01*
X039249Y040346D01*
X039251Y040343D01*
X039251Y040341D01*
X039252Y04034D01*
X039253Y040338D01*
X039254Y040337D01*
Y040337D01*
X03926Y040329D01*
X039266Y040322D01*
X039274Y040315D01*
X039281Y040311D01*
X039287Y040307D01*
X039292Y040304D01*
X039294Y040303D01*
X039296Y040302D01*
X039296Y040302D01*
X039297D01*
X039308Y040298D01*
X03932Y040296D01*
X039331Y040294D01*
X039341Y040292D01*
X039346Y040292D01*
X039351Y040291D01*
X039355D01*
X039358Y040291D01*
X03936D01*
X039362D01*
X039364D01*
X039364D01*
X039375Y040291D01*
X039386Y040292D01*
X039396Y040294D01*
X039404Y040296D01*
X039412Y040297D01*
X039415Y040298D01*
X039417Y040299D01*
X03942Y040299D01*
X039421Y0403D01*
X039422Y0403D01*
X039422D01*
X039432Y040305D01*
X039441Y040309D01*
X039449Y040315D01*
X039455Y04032D01*
X039461Y040325D01*
X039464Y040329D01*
X039466Y040332D01*
X039467Y040333D01*
Y040333D01*
X039473Y040342D01*
X039477Y040352D01*
X03948Y040362D01*
X039482Y040371D01*
X039483Y040379D01*
X039484Y040383D01*
Y040386D01*
X039484Y040388D01*
Y040392D01*
X039484Y040402D01*
X039482Y040413D01*
X039479Y040421D01*
X039477Y040428D01*
X039474Y040434D01*
X039472Y040438D01*
X03947Y040441D01*
X039469Y040442D01*
X039462Y040449D01*
X039455Y040455D01*
X039447Y040461D01*
X039439Y040465D01*
X039432Y040468D01*
X039429Y04047D01*
X039426Y040471D01*
X039424Y040472D01*
X039422Y040472D01*
X039421Y040473D01*
X039421D01*
X03943Y040512D01*
X039438Y04051D01*
X039445Y040507D01*
X039452Y040503D01*
X039458Y0405D01*
X039464Y040497D01*
X039469Y040493D01*
X039474Y040489D01*
X039479Y040486D01*
X039482Y040482D01*
X039486Y040479D01*
X039489Y040476D01*
X039491Y040474D01*
X039493Y040472D01*
X039494Y04047D01*
X039495Y040469D01*
X039495Y040469D01*
X039499Y040463D01*
X039503Y040457D01*
X039506Y040451D01*
X039509Y040444D01*
X039513Y040431D01*
X039515Y040419D01*
X039517Y040413D01*
X039517Y040409D01*
X039518Y040404D01*
X039518Y0404D01*
X039518Y040397D01*
Y040392D01*
X039518Y040378D01*
X039515Y040364D01*
X039513Y040352D01*
X039511Y040346D01*
X039509Y040341D01*
X039507Y040336D01*
X039506Y040332D01*
X039504Y040328D01*
X039503Y040325D01*
X039502Y040322D01*
X039501Y040321D01*
X0395Y040319D01*
X0395Y040319D01*
X039493Y040307D01*
X039484Y040297D01*
X039475Y040288D01*
X039466Y040281D01*
X039459Y040275D01*
X039455Y040273D01*
X039452Y040271D01*
X03945Y04027D01*
X039448Y040269D01*
X039447Y040268D01*
X039446Y040268D01*
X039433Y040262D01*
X039419Y040257D01*
X039405Y040254D01*
X039392Y040252D01*
X039386Y040251D01*
X039381Y040251D01*
X039376Y04025D01*
X039372D01*
X039369Y04025D01*
X039366D01*
X039365D01*
X039364D01*
X039348Y040251D01*
X039333Y040253D01*
X03932Y040255D01*
X039313Y040257D01*
X039307Y040258D01*
X039302Y040259D01*
X039297Y040261D01*
X039293Y040262D01*
X039289Y040263D01*
X039287Y040264D01*
X039285Y040265D01*
X039283Y040266D01*
X039283D01*
X03927Y040272D01*
X039258Y04028D01*
X039248Y040288D01*
X039244Y040291D01*
X03924Y040295D01*
X039237Y040298D01*
X039233Y040302D01*
X039231Y040305D01*
X039229Y040308D01*
X039227Y040309D01*
X039226Y040311D01*
X039226Y040312D01*
X039225Y040312D01*
X039222Y040319D01*
X039219Y040325D01*
X039214Y040338D01*
X03921Y040351D01*
X039208Y040364D01*
X039207Y04037D01*
X039206Y040375D01*
X039206Y04038D01*
Y040384D01*
X039206Y040387D01*
Y040392D01*
X039206Y040401D01*
X039207Y040409D01*
X039208Y040417D01*
X039209Y040424D01*
X039212Y040431D01*
X039214Y040438D01*
X039216Y040444D01*
X039219Y04045D01*
X039221Y040454D01*
X039223Y040459D01*
X039225Y040463D01*
X039227Y040466D01*
X039229Y040468D01*
X03923Y040471D01*
X039231Y040472D01*
X039231Y040472D01*
X039237Y040478D01*
X039242Y040483D01*
X039248Y040488D01*
X039254Y040493D01*
X039266Y040501D01*
X039278Y040507D01*
X039284Y04051D01*
X039289Y040512D01*
X039294Y040513D01*
X039298Y040515D01*
X039302Y040516D01*
X039304Y040517D01*
X039306Y040517D01*
X039306D01*
X039316Y040477D01*
D02*
G37*
G36*
X038133Y04181D02*
X038139Y041809D01*
X038144Y041808D01*
X038149Y041806D01*
X038152Y041804D01*
X038155Y041803D01*
X038157Y041801D01*
X038157Y041801D01*
X038157D01*
X038162Y041797D01*
X038166Y041793D01*
X038169Y041789D01*
X038172Y041785D01*
X038173Y041781D01*
X038175Y041777D01*
X038175Y041776D01*
X038176Y041775D01*
X038176Y041775D01*
Y041775D01*
X038178Y04178D01*
X038181Y041784D01*
X038183Y041787D01*
X038186Y04179D01*
X038188Y041793D01*
X03819Y041794D01*
X038191Y041795D01*
X038191Y041796D01*
X038195Y041798D01*
X038199Y0418D01*
X038203Y041801D01*
X038207Y041802D01*
X03821Y041803D01*
X038212Y041803D01*
X038214D01*
X038214D01*
X038214D01*
X038218Y041803D01*
X038222Y041802D01*
X038229Y0418D01*
X038235Y041798D01*
X03824Y041795D01*
X038244Y041792D01*
X038246Y041791D01*
X038248Y04179D01*
X038249Y041789D01*
X03825Y041788D01*
X03825Y041788D01*
X03825Y041787D01*
X038253Y041784D01*
X038255Y041781D01*
X038257Y041778D01*
X038259Y041775D01*
X038261Y041768D01*
X038263Y041761D01*
X038264Y041759D01*
X038264Y041756D01*
X038264Y041753D01*
X038265Y041751D01*
X038265Y041749D01*
Y041747D01*
X038265Y041742D01*
X038264Y041738D01*
X038263Y04173D01*
X038262Y041727D01*
X03826Y041723D01*
X038259Y04172D01*
X038258Y041718D01*
X038256Y041715D01*
X038255Y041713D01*
X038254Y041711D01*
X038253Y04171D01*
X038252Y041709D01*
X038251Y041708D01*
X038251Y041707D01*
X03825Y041707D01*
X038248Y041705D01*
X038245Y041702D01*
X038242Y0417D01*
X038239Y041698D01*
X038233Y041696D01*
X038227Y041694D01*
X038223Y041693D01*
X038221Y041693D01*
X038219Y041692D01*
X038217Y041692D01*
X038216D01*
X038216D01*
X038215D01*
X03821Y041692D01*
X038206Y041693D01*
X038201Y041694D01*
X038198Y041696D01*
X038195Y041697D01*
X038193Y041698D01*
X038192Y041699D01*
X038191Y041699D01*
X038188Y041702D01*
X038185Y041705D01*
X038182Y041709D01*
X03818Y041713D01*
X038178Y041716D01*
X038177Y041718D01*
X038177Y041719D01*
X038176Y04172D01*
X038176Y041721D01*
Y041721D01*
X038174Y041714D01*
X038172Y041709D01*
X038168Y041705D01*
X038166Y041701D01*
X038163Y041698D01*
X038161Y041695D01*
X038159Y041694D01*
X038159Y041694D01*
X038159D01*
X038154Y041691D01*
X038149Y041688D01*
X038144Y041686D01*
X038139Y041685D01*
X038134Y041685D01*
X038132Y041685D01*
X038131D01*
X038129Y041684D01*
X038128D01*
X038128D01*
X038127D01*
X038123Y041685D01*
X038119Y041685D01*
X038114Y041686D01*
X03811Y041687D01*
X038103Y04169D01*
X0381Y041691D01*
X038097Y041693D01*
X038095Y041695D01*
X038092Y041696D01*
X03809Y041698D01*
X038089Y041699D01*
X038087Y0417D01*
X038086Y041701D01*
X038086Y041701D01*
X038086Y041701D01*
X038083Y041705D01*
X03808Y041708D01*
X038078Y041712D01*
X038076Y041716D01*
X038075Y04172D01*
X038073Y041724D01*
X038071Y041731D01*
X03807Y041734D01*
X03807Y041737D01*
X03807Y04174D01*
X038069Y041743D01*
X038069Y041745D01*
Y041747D01*
X038069Y041753D01*
X03807Y041757D01*
X038071Y041762D01*
X038072Y041767D01*
X038073Y04177D01*
X038074Y041774D01*
X038076Y041778D01*
X038077Y041781D01*
X038079Y041784D01*
X03808Y041786D01*
X038082Y041788D01*
X038083Y04179D01*
X038084Y041791D01*
X038085Y041792D01*
X038085Y041793D01*
X038086Y041793D01*
X038089Y041796D01*
X038092Y041799D01*
X038096Y041801D01*
X038099Y041803D01*
X038103Y041805D01*
X038106Y041806D01*
X038113Y041808D01*
X038116Y041809D01*
X038118Y04181D01*
X038121Y04181D01*
X038123Y04181D01*
X038124Y041811D01*
X038126D01*
X038127D01*
X038127D01*
X038133Y04181D01*
D02*
G37*
G36*
X038264Y041626D02*
X038153D01*
X038147D01*
X038141Y041626D01*
X038136Y041625D01*
X038131Y041624D01*
X038126Y041624D01*
X038122Y041623D01*
X038118Y041622D01*
X038115Y041621D01*
X038113Y041619D01*
X03811Y041618D01*
X038109Y041617D01*
X038107Y041616D01*
X038106Y041616D01*
X038105Y041615D01*
X038105Y041615D01*
X038104Y041614D01*
X038102Y041612D01*
X0381Y041609D01*
X038097Y041603D01*
X038095Y041597D01*
X038094Y04159D01*
X038093Y041584D01*
X038092Y041582D01*
Y041579D01*
X038092Y041577D01*
Y041575D01*
X038092Y041569D01*
X038093Y041564D01*
X038094Y041559D01*
X038095Y041555D01*
X038096Y041551D01*
X038097Y041549D01*
X038098Y041547D01*
X038098Y041547D01*
X038101Y041543D01*
X038104Y04154D01*
X038107Y041537D01*
X03811Y041535D01*
X038113Y041533D01*
X038114Y041532D01*
X038116Y041531D01*
X038116Y041531D01*
X038119Y04153D01*
X038121Y04153D01*
X038127Y041529D01*
X038133Y041528D01*
X038139Y041527D01*
X038145Y041527D01*
X038147D01*
X038149Y041527D01*
X038151D01*
X038152D01*
X038153D01*
X038153D01*
X038264D01*
Y041501D01*
X038153D01*
X038148D01*
X038142Y041501D01*
X038137Y041502D01*
X038133Y041502D01*
X038129Y041503D01*
X038125Y041503D01*
X038121Y041504D01*
X038118Y041505D01*
X038115Y041505D01*
X038112Y041506D01*
X03811Y041507D01*
X038108Y041507D01*
X038107Y041508D01*
X038106Y041508D01*
X038105Y041508D01*
X038105D01*
X038099Y041511D01*
X038093Y041515D01*
X038089Y041519D01*
X038085Y041523D01*
X038082Y041527D01*
X03808Y04153D01*
X038079Y041531D01*
X038079Y041532D01*
X038078Y041532D01*
Y041533D01*
X038075Y04154D01*
X038073Y041547D01*
X038071Y041554D01*
X03807Y041561D01*
X03807Y041564D01*
X03807Y041567D01*
X038069Y04157D01*
Y041572D01*
X038069Y041574D01*
Y041577D01*
X03807Y041587D01*
X03807Y041591D01*
X038071Y041595D01*
X038072Y0416D01*
X038072Y041603D01*
X038073Y041606D01*
X038074Y041609D01*
X038075Y041612D01*
X038076Y041614D01*
X038077Y041617D01*
X038078Y041618D01*
X038079Y04162D01*
X038079Y041621D01*
X03808Y041621D01*
Y041621D01*
X038084Y041627D01*
X038088Y041632D01*
X038093Y041636D01*
X038097Y04164D01*
X038101Y041642D01*
X038104Y041644D01*
X038105Y041644D01*
X038106Y041645D01*
X038107Y041645D01*
X038107D01*
X03811Y041646D01*
X038114Y041647D01*
X038121Y041649D01*
X038129Y04165D01*
X038137Y041651D01*
X03814Y041651D01*
X038143Y041652D01*
X038146D01*
X038149Y041652D01*
X03815D01*
X038152D01*
X038153D01*
X038153D01*
X038264D01*
Y041626D01*
D02*
G37*
G36*
X036553Y042269D02*
X036419D01*
Y042217D01*
X036419Y042213D01*
Y042209D01*
X03642Y042206D01*
X03642Y042204D01*
Y042202D01*
X036421Y042201D01*
Y042201D01*
X036423Y042194D01*
X036424Y042191D01*
X036425Y042188D01*
X036427Y042185D01*
X036428Y042184D01*
X036428Y042183D01*
X036428Y042182D01*
X036431Y042179D01*
X036434Y042175D01*
X036441Y042169D01*
X036444Y042166D01*
X036446Y042164D01*
X036448Y042162D01*
X036449Y042162D01*
X036455Y042157D01*
X036461Y042153D01*
X036468Y042148D01*
X036475Y042143D01*
X036481Y042139D01*
X036486Y042136D01*
X036487Y042135D01*
X036489Y042134D01*
X03649Y042133D01*
X03649D01*
X036553Y042093D01*
Y042043D01*
X036471Y042095D01*
X036462Y042102D01*
X036454Y042107D01*
X036448Y042113D01*
X036442Y042118D01*
X036437Y042122D01*
X036434Y042126D01*
X036432Y042128D01*
X036431Y042129D01*
X036428Y042132D01*
X036425Y042136D01*
X03642Y042144D01*
X036418Y042147D01*
X036417Y04215D01*
X036416Y042152D01*
X036415Y042153D01*
X036414Y042145D01*
X036413Y042137D01*
X036411Y042131D01*
X036409Y042124D01*
X036407Y042119D01*
X036404Y042113D01*
X036402Y042109D01*
X0364Y042104D01*
X036397Y042101D01*
X036395Y042097D01*
X036393Y042095D01*
X036391Y042092D01*
X03639Y042091D01*
X036389Y042089D01*
X036388Y042089D01*
X036388Y042088D01*
X036383Y042085D01*
X036379Y042081D01*
X03637Y042076D01*
X036361Y042073D01*
X036352Y04207D01*
X036345Y042068D01*
X036342Y042068D01*
X036338D01*
X036336Y042067D01*
X036335D01*
X036334D01*
X036333D01*
X036324Y042068D01*
X036316Y042069D01*
X036308Y042071D01*
X036301Y042074D01*
X036296Y042076D01*
X036291Y042078D01*
X036289Y04208D01*
X036288Y04208D01*
X036288D01*
X036281Y042085D01*
X036275Y042091D01*
X036269Y042096D01*
X036265Y042102D01*
X036262Y042106D01*
X036261Y04211D01*
X036259Y042113D01*
X036259Y042113D01*
Y042114D01*
X036258Y042118D01*
X036256Y042123D01*
X036254Y042132D01*
X036253Y042143D01*
X036252Y042152D01*
X036251Y042161D01*
Y042165D01*
X036251Y042169D01*
Y042309D01*
X036553D01*
Y042269D01*
D02*
G37*
G36*
Y041824D02*
X036517D01*
Y041973D01*
X03651Y041968D01*
X036507Y041966D01*
X036504Y041963D01*
X036501Y041961D01*
X036499Y04196D01*
X036498Y041958D01*
X036498Y041958D01*
X036495Y041956D01*
X036493Y041953D01*
X036487Y041947D01*
X036481Y04194D01*
X036474Y041932D01*
X036469Y041925D01*
X036466Y041922D01*
X036463Y04192D01*
X036462Y041918D01*
X03646Y041916D01*
X03646Y041915D01*
X036459Y041914D01*
X036453Y041908D01*
X036447Y041901D01*
X036442Y041894D01*
X036437Y041889D01*
X036432Y041883D01*
X036428Y041879D01*
X036424Y041875D01*
X03642Y041871D01*
X036417Y041868D01*
X036414Y041865D01*
X036412Y041863D01*
X03641Y041861D01*
X036407Y041859D01*
X036406Y041858D01*
X036399Y041852D01*
X036392Y041846D01*
X036386Y041842D01*
X03638Y041838D01*
X036376Y041836D01*
X036372Y041834D01*
X03637Y041833D01*
X036369Y041833D01*
X036363Y04183D01*
X036356Y041828D01*
X03635Y041827D01*
X036345Y041826D01*
X03634Y041825D01*
X036336Y041825D01*
X036334D01*
X036333D01*
X036327Y041825D01*
X036321Y041826D01*
X036314Y041827D01*
X036309Y041829D01*
X036299Y041833D01*
X03629Y041838D01*
X036286Y04184D01*
X036283Y041842D01*
X03628Y041845D01*
X036278Y041847D01*
X036276Y041849D01*
X036275Y041849D01*
X036274Y04185D01*
X036274Y041851D01*
X036269Y041856D01*
X036265Y041861D01*
X036262Y041866D01*
X03626Y041872D01*
X036255Y041883D01*
X036252Y041895D01*
X036252Y0419D01*
X036251Y041904D01*
X03625Y041909D01*
X03625Y041912D01*
X036249Y041915D01*
Y04192D01*
X03625Y041928D01*
X03625Y041935D01*
X036252Y041942D01*
X036253Y041949D01*
X036255Y041955D01*
X036256Y04196D01*
X036258Y041966D01*
X036261Y04197D01*
X036263Y041975D01*
X036265Y041978D01*
X036267Y041981D01*
X036269Y041984D01*
X03627Y041986D01*
X036271Y041987D01*
X036272Y041988D01*
X036272Y041989D01*
X036276Y041993D01*
X036281Y041997D01*
X036286Y042001D01*
X036292Y042004D01*
X036302Y042009D01*
X036313Y042013D01*
X036318Y042014D01*
X036322Y042015D01*
X036326Y042016D01*
X03633Y042017D01*
X036333Y042018D01*
X036335D01*
X036336Y042018D01*
X036337D01*
X036341Y04198D01*
X036331Y041979D01*
X036322Y041977D01*
X036314Y041975D01*
X036308Y041972D01*
X036303Y041969D01*
X036299Y041967D01*
X036297Y041965D01*
X036296Y041964D01*
X036291Y041957D01*
X036287Y04195D01*
X036284Y041943D01*
X036282Y041936D01*
X036281Y04193D01*
X03628Y041925D01*
X03628Y041923D01*
Y041921D01*
X03628Y041911D01*
X036282Y041903D01*
X036285Y041896D01*
X036287Y04189D01*
X03629Y041885D01*
X036293Y041882D01*
X036294Y04188D01*
X036295Y041879D01*
X036301Y041874D01*
X036307Y04187D01*
X036314Y041867D01*
X03632Y041865D01*
X036324Y041864D01*
X036329Y041863D01*
X036331Y041863D01*
X036332D01*
X036332D01*
X03634Y041864D01*
X036349Y041866D01*
X036356Y041869D01*
X036363Y041872D01*
X036369Y041875D01*
X036373Y041878D01*
X036375Y041879D01*
X036376Y04188D01*
X036377Y041881D01*
X036377D01*
X036382Y041884D01*
X036387Y041889D01*
X036392Y041894D01*
X036397Y041899D01*
X036408Y04191D01*
X036418Y041921D01*
X036423Y041926D01*
X036428Y041931D01*
X036432Y041936D01*
X036435Y04194D01*
X036438Y041943D01*
X03644Y041946D01*
X036441Y041947D01*
X036442Y041948D01*
X036451Y041959D01*
X03646Y041969D01*
X036467Y041977D01*
X036474Y041984D01*
X03648Y041989D01*
X036484Y041993D01*
X036486Y041995D01*
X036487Y041996D01*
X036487D01*
X036494Y042002D01*
X036501Y042007D01*
X036508Y042012D01*
X036515Y042015D01*
X03652Y042018D01*
X036524Y042019D01*
X036526Y04202D01*
X036527Y042021D01*
X036527D01*
X036532Y042022D01*
X036536Y042023D01*
X036541Y042024D01*
X036545Y042025D01*
X036548Y042025D01*
X036551D01*
X036553D01*
X036553D01*
Y041824D01*
D02*
G37*
G36*
X036473Y041785D02*
X03648Y041784D01*
X036487Y041783D01*
X036493Y041781D01*
X036504Y041776D01*
X036509Y041774D01*
X036514Y041772D01*
X036518Y041769D01*
X036522Y041767D01*
X036525Y041764D01*
X036527Y041762D01*
X036529Y041761D01*
X036531Y041759D01*
X036532Y041758D01*
X036532Y041758D01*
X036537Y041753D01*
X036541Y041747D01*
X036544Y041741D01*
X036547Y041735D01*
X03655Y041729D01*
X036552Y041723D01*
X036555Y041711D01*
X036556Y041706D01*
X036557Y041701D01*
X036557Y041697D01*
X036558Y041693D01*
X036558Y04169D01*
Y041686D01*
X036558Y041677D01*
X036557Y04167D01*
X036556Y041662D01*
X036554Y041655D01*
X036552Y041649D01*
X03655Y041643D01*
X036548Y041637D01*
X036545Y041633D01*
X036543Y041628D01*
X03654Y041624D01*
X036538Y041621D01*
X036536Y041618D01*
X036535Y041616D01*
X036533Y041615D01*
X036532Y041614D01*
X036532Y041613D01*
X036527Y041609D01*
X036522Y041604D01*
X036516Y041601D01*
X036511Y041598D01*
X036505Y041595D01*
X0365Y041592D01*
X03649Y041589D01*
X036485Y041588D01*
X036481Y041587D01*
X036477Y041587D01*
X036474Y041586D01*
X036471Y041586D01*
X036469D01*
X036467D01*
X036467D01*
X036457Y041586D01*
X036448Y041588D01*
X036439Y041591D01*
X036432Y041593D01*
X036427Y041596D01*
X036422Y041599D01*
X03642Y0416D01*
X036419Y041601D01*
X036419D01*
X036412Y041607D01*
X036406Y041613D01*
X036401Y04162D01*
X036397Y041627D01*
X036394Y041633D01*
X036391Y041638D01*
X03639Y04164D01*
X03639Y041641D01*
X03639Y041642D01*
Y041643D01*
X036386Y041635D01*
X036382Y041628D01*
X036378Y041623D01*
X036374Y041618D01*
X036371Y041614D01*
X036368Y041612D01*
X036366Y04161D01*
X036366Y041609D01*
X036359Y041606D01*
X036353Y041603D01*
X036347Y041601D01*
X036341Y041599D01*
X036336Y041599D01*
X036332Y041598D01*
X03633D01*
X036329D01*
X036329D01*
X036323Y041599D01*
X036317Y041599D01*
X036306Y041602D01*
X036297Y041606D01*
X036288Y04161D01*
X036282Y041615D01*
X036279Y041617D01*
X036276Y041619D01*
X036275Y04162D01*
X036273Y041622D01*
X036273Y041622D01*
X036272Y041623D01*
X036269Y041627D01*
X036265Y041632D01*
X036262Y041637D01*
X036259Y041643D01*
X036255Y041653D01*
X036252Y041664D01*
X036251Y041668D01*
X036251Y041672D01*
X03625Y041676D01*
X03625Y04168D01*
X036249Y041682D01*
Y041686D01*
X03625Y041693D01*
X03625Y0417D01*
X036253Y041713D01*
X036255Y041718D01*
X036256Y041724D01*
X036258Y041728D01*
X036261Y041733D01*
X036263Y041736D01*
X036265Y04174D01*
X036267Y041743D01*
X036269Y041745D01*
X03627Y041747D01*
X036271Y041748D01*
X036272Y041749D01*
X036272Y041749D01*
X036276Y041753D01*
X036281Y041757D01*
X036286Y04176D01*
X03629Y041763D01*
X0363Y041767D01*
X036308Y04177D01*
X036316Y041772D01*
X036319Y041772D01*
X036322Y041772D01*
X036324Y041773D01*
X036326D01*
X036327D01*
X036328D01*
X036335Y041772D01*
X036343Y041771D01*
X036349Y041769D01*
X036355Y041767D01*
X036359Y041765D01*
X036363Y041764D01*
X036365Y041762D01*
X036366Y041762D01*
X036371Y041757D01*
X036376Y041752D01*
X03638Y041746D01*
X036383Y041741D01*
X036386Y041735D01*
X036388Y041731D01*
X036389Y04173D01*
X036389Y041728D01*
X03639Y041728D01*
Y041727D01*
X036393Y041738D01*
X036397Y041746D01*
X036401Y041753D01*
X036406Y041759D01*
X03641Y041764D01*
X036414Y041768D01*
X036416Y041769D01*
X036416Y04177D01*
X036417D01*
X036425Y041775D01*
X036433Y041779D01*
X036441Y041782D01*
X036449Y041783D01*
X036456Y041784D01*
X036459Y041785D01*
X036461D01*
X036463Y041785D01*
X036465D01*
X036466D01*
X036466D01*
X036473Y041785D01*
D02*
G37*
G36*
X03572Y042282D02*
X035585D01*
Y04223D01*
X035586Y042226D01*
Y042222D01*
X035586Y042219D01*
X035587Y042217D01*
Y042215D01*
X035587Y042214D01*
Y042214D01*
X035589Y042207D01*
X035591Y042204D01*
X035592Y042201D01*
X035593Y042198D01*
X035594Y042197D01*
X035595Y042196D01*
X035595Y042195D01*
X035598Y042192D01*
X035601Y042188D01*
X035607Y042182D01*
X03561Y042179D01*
X035613Y042177D01*
X035615Y042175D01*
X035615Y042175D01*
X035621Y04217D01*
X035628Y042166D01*
X035635Y042161D01*
X035641Y042156D01*
X035647Y042152D01*
X035652Y042149D01*
X035654Y042148D01*
X035655Y042147D01*
X035656Y042146D01*
X035657D01*
X03572Y042106D01*
Y042056D01*
X035637Y042108D01*
X035629Y042115D01*
X035621Y04212D01*
X035614Y042126D01*
X035608Y042131D01*
X035604Y042135D01*
X0356Y042139D01*
X035598Y042141D01*
X035597Y042142D01*
X035595Y042145D01*
X035592Y042149D01*
X035587Y042157D01*
X035585Y04216D01*
X035583Y042163D01*
X035582Y042165D01*
X035582Y042166D01*
X035581Y042158D01*
X035579Y04215D01*
X035577Y042144D01*
X035575Y042137D01*
X035573Y042132D01*
X035571Y042126D01*
X035568Y042122D01*
X035566Y042117D01*
X035564Y042114D01*
X035561Y04211D01*
X03556Y042108D01*
X035558Y042105D01*
X035557Y042104D01*
X035555Y042102D01*
X035555Y042102D01*
X035554Y042101D01*
X03555Y042098D01*
X035546Y042094D01*
X035536Y042089D01*
X035527Y042086D01*
X035519Y042083D01*
X035511Y042081D01*
X035508Y042081D01*
X035505D01*
X035503Y04208D01*
X035501D01*
X0355D01*
X0355D01*
X035491Y042081D01*
X035482Y042082D01*
X035474Y042084D01*
X035468Y042087D01*
X035462Y042089D01*
X035458Y042091D01*
X035455Y042093D01*
X035455Y042093D01*
X035454D01*
X035447Y042098D01*
X035441Y042104D01*
X035436Y042109D01*
X035432Y042115D01*
X035429Y042119D01*
X035427Y042123D01*
X035426Y042126D01*
X035425Y042126D01*
Y042127D01*
X035424Y042131D01*
X035423Y042136D01*
X035421Y042145D01*
X035419Y042156D01*
X035418Y042165D01*
X035418Y042174D01*
Y042178D01*
X035417Y042182D01*
Y042322D01*
X03572D01*
Y042282D01*
D02*
G37*
G36*
X035647Y042031D02*
X035653Y04203D01*
X035665Y042026D01*
X035676Y042021D01*
X03568Y042019D01*
X035685Y042016D01*
X035689Y042014D01*
X035692Y042011D01*
X035695Y042009D01*
X035697Y042007D01*
X035699Y042005D01*
X0357Y042004D01*
X035701Y042003D01*
X035701Y042003D01*
X035705Y041997D01*
X035709Y041992D01*
X035712Y041987D01*
X035715Y041981D01*
X035719Y04197D01*
X035722Y04196D01*
X035723Y041955D01*
X035724Y041951D01*
X035724Y041947D01*
X035724Y041943D01*
X035725Y041941D01*
Y041937D01*
X035724Y041928D01*
X035724Y041921D01*
X035722Y041913D01*
X03572Y041907D01*
X035718Y0419D01*
X035716Y041894D01*
X035713Y041889D01*
X035711Y041884D01*
X035709Y041879D01*
X035706Y041875D01*
X035704Y041872D01*
X035702Y041869D01*
X0357Y041867D01*
X035699Y041865D01*
X035698Y041864D01*
X035697Y041864D01*
X035692Y041858D01*
X035686Y041854D01*
X035681Y04185D01*
X035675Y041847D01*
X03567Y041844D01*
X035664Y041841D01*
X035654Y041838D01*
X035649Y041837D01*
X035644Y041836D01*
X03564Y041835D01*
X035637Y041835D01*
X035634Y041834D01*
X035632D01*
X035631D01*
X03563D01*
X03562Y041835D01*
X03561Y041837D01*
X035602Y041839D01*
X035595Y041842D01*
X035589Y041844D01*
X035585Y041847D01*
X035582Y041849D01*
X035581Y041849D01*
X035575Y041855D01*
X035569Y041862D01*
X035565Y041869D01*
X035561Y041876D01*
X035559Y041882D01*
X035557Y041887D01*
X035557Y041889D01*
X035556Y04189D01*
X035556Y041891D01*
Y041891D01*
X035552Y041884D01*
X035548Y041878D01*
X035543Y041872D01*
X03554Y041868D01*
X035536Y041865D01*
X035533Y041862D01*
X035531Y041861D01*
X03553Y04186D01*
X035524Y041857D01*
X035518Y041854D01*
X035512Y041852D01*
X035506Y041851D01*
X035502Y04185D01*
X035498Y041849D01*
X035495D01*
X035495D01*
X035487Y04185D01*
X03548Y041851D01*
X035473Y041853D01*
X035467Y041855D01*
X035463Y041857D01*
X035459Y041859D01*
X035457Y04186D01*
X035456Y041861D01*
X035449Y041865D01*
X035443Y04187D01*
X035439Y041875D01*
X035434Y041881D01*
X035431Y041885D01*
X035429Y041889D01*
X035427Y041892D01*
X035427Y041892D01*
Y041893D01*
X035423Y0419D01*
X035421Y041908D01*
X035418Y041916D01*
X035417Y041923D01*
X035416Y041929D01*
X035416Y041934D01*
Y041945D01*
X035417Y041951D01*
X035419Y041962D01*
X035422Y041972D01*
X035426Y041981D01*
X035428Y041985D01*
X03543Y041988D01*
X035432Y041991D01*
X035433Y041993D01*
X035435Y041995D01*
X035436Y041997D01*
X035436Y041997D01*
X035436Y041998D01*
X035445Y042006D01*
X035454Y042013D01*
X035463Y042018D01*
X035473Y042022D01*
X035481Y042025D01*
X035485Y042026D01*
X035488Y042027D01*
X035491Y042028D01*
X035492Y042028D01*
X035494Y042028D01*
X035494D01*
X035501Y041991D01*
X035491Y04199D01*
X035483Y041987D01*
X035476Y041984D01*
X03547Y041981D01*
X035466Y041978D01*
X035463Y041975D01*
X03546Y041973D01*
X03546Y041973D01*
X035456Y041967D01*
X035452Y041961D01*
X03545Y041955D01*
X035448Y04195D01*
X035447Y041945D01*
X035446Y041941D01*
Y041937D01*
X035447Y041929D01*
X035449Y041922D01*
X035451Y041916D01*
X035453Y041911D01*
X035456Y041907D01*
X035458Y041904D01*
X03546Y041902D01*
X03546Y041901D01*
X035465Y041896D01*
X035471Y041893D01*
X035477Y041891D01*
X035482Y041889D01*
X035487Y041888D01*
X03549Y041887D01*
X035493D01*
X035493D01*
X035494D01*
X035498D01*
X035503Y041888D01*
X03551Y04189D01*
X035517Y041893D01*
X035522Y041897D01*
X035526Y0419D01*
X035529Y041903D01*
X035531Y041906D01*
X035532Y041906D01*
Y041907D01*
X035536Y041914D01*
X035539Y041921D01*
X035541Y041928D01*
X035542Y041935D01*
X035543Y041941D01*
X035544Y041945D01*
Y041951D01*
X035543Y041953D01*
Y041955D01*
X035576Y041959D01*
X035575Y041954D01*
X035574Y041948D01*
X035573Y041944D01*
X035573Y04194D01*
X035572Y041937D01*
Y041933D01*
X035573Y041924D01*
X035575Y041916D01*
X035578Y041908D01*
X035581Y041902D01*
X035584Y041897D01*
X035586Y041894D01*
X035588Y041892D01*
X035589Y041891D01*
X035595Y041885D01*
X035602Y041881D01*
X035609Y041878D01*
X035616Y041876D01*
X035622Y041875D01*
X035627Y041874D01*
X035629Y041874D01*
X03563D01*
X035631D01*
X035631D01*
X035641Y041875D01*
X03565Y041877D01*
X035657Y041879D01*
X035664Y041883D01*
X035669Y041886D01*
X035673Y041889D01*
X035675Y041891D01*
X035676Y041892D01*
X035682Y041899D01*
X035687Y041907D01*
X03569Y041914D01*
X035692Y041921D01*
X035693Y041927D01*
X035694Y041932D01*
X035694Y041934D01*
Y041936D01*
X035694Y041944D01*
X035692Y041952D01*
X03569Y041958D01*
X035687Y041963D01*
X035685Y041968D01*
X035683Y041971D01*
X035681Y041973D01*
X035681Y041974D01*
X035675Y041979D01*
X035668Y041983D01*
X03566Y041987D01*
X035652Y04199D01*
X035646Y041993D01*
X035643Y041993D01*
X03564Y041994D01*
X035638Y041994D01*
X035636Y041995D01*
X035635Y041995D01*
X035635D01*
X03564Y042032D01*
X035647Y042031D01*
D02*
G37*
G36*
X035586Y041797D02*
X0356Y041796D01*
X035613Y041795D01*
X035626Y041793D01*
X035637Y041791D01*
X035647Y041788D01*
X035656Y041785D01*
X035664Y041783D01*
X035671Y04178D01*
X035677Y041777D01*
X035682Y041775D01*
X035686Y041773D01*
X03569Y041771D01*
X035692Y041769D01*
X035693Y041768D01*
X035694Y041768D01*
X035699Y041763D01*
X035704Y041758D01*
X035708Y041752D01*
X035712Y041747D01*
X035715Y041741D01*
X035717Y041735D01*
X035719Y04173D01*
X035721Y041724D01*
X035722Y041719D01*
X035723Y041714D01*
X035724Y04171D01*
X035724Y041706D01*
X035725Y041703D01*
Y041699D01*
X035724Y041687D01*
X035722Y041676D01*
X035719Y041667D01*
X035716Y041659D01*
X035713Y041653D01*
X035711Y04165D01*
X03571Y041648D01*
X035709Y041646D01*
X035708Y041645D01*
X035707Y041645D01*
Y041644D01*
X0357Y041636D01*
X035692Y04163D01*
X035683Y041624D01*
X035675Y04162D01*
X035668Y041616D01*
X035665Y041615D01*
X035662Y041614D01*
X03566Y041613D01*
X035658Y041612D01*
X035657Y041612D01*
X035657D01*
X03565Y041609D01*
X035644Y041608D01*
X03563Y041605D01*
X035615Y041603D01*
X035601Y041601D01*
X035595Y041601D01*
X035589Y041601D01*
X035584D01*
X035579Y0416D01*
X035576D01*
X035573D01*
X035571D01*
X035571D01*
X035562D01*
X035554Y041601D01*
X035547D01*
X03554Y041601D01*
X035534Y041602D01*
X035528Y041602D01*
X035523Y041603D01*
X035518Y041604D01*
X035514Y041604D01*
X03551Y041605D01*
X035507Y041605D01*
X035504Y041606D01*
X035502Y041606D01*
X035501Y041607D01*
X0355Y041607D01*
X035499D01*
X03549Y04161D01*
X035481Y041613D01*
X035474Y041616D01*
X035467Y041619D01*
X035461Y041622D01*
X035457Y041624D01*
X035455Y041626D01*
X035454Y041626D01*
X035448Y041631D01*
X035442Y041636D01*
X035437Y041641D01*
X035433Y041646D01*
X03543Y04165D01*
X035428Y041653D01*
X035426Y041656D01*
X035426Y041656D01*
Y041657D01*
X035422Y041664D01*
X03542Y041671D01*
X035418Y041678D01*
X035417Y041685D01*
X035416Y04169D01*
X035416Y041695D01*
Y041699D01*
X035417Y041711D01*
X035418Y041722D01*
X035422Y041731D01*
X035425Y041739D01*
X035428Y041745D01*
X035429Y041748D01*
X035431Y04175D01*
X035432Y041752D01*
X035433Y041753D01*
X035434Y041754D01*
Y041754D01*
X035441Y041762D01*
X035449Y041768D01*
X035457Y041774D01*
X035465Y041778D01*
X035473Y041782D01*
X035476Y041784D01*
X035479Y041785D01*
X035481Y041785D01*
X035483Y041786D01*
X035484Y041787D01*
X035484D01*
X035491Y041789D01*
X035497Y04179D01*
X035512Y041793D01*
X035526Y041795D01*
X03554Y041796D01*
X035546Y041797D01*
X035552Y041797D01*
X035557D01*
X035562Y041798D01*
X035565D01*
X035568D01*
X03557D01*
X035571D01*
X035586Y041797D01*
D02*
G37*
G36*
X034893Y042286D02*
X034759D01*
Y042234D01*
X034759Y042229D01*
Y042226D01*
X03476Y042223D01*
X03476Y042221D01*
Y042219D01*
X03476Y042218D01*
Y042218D01*
X034763Y042211D01*
X034764Y042208D01*
X034765Y042205D01*
X034767Y042202D01*
X034767Y042201D01*
X034768Y0422D01*
X034768Y042199D01*
X034771Y042196D01*
X034774Y042192D01*
X03478Y042186D01*
X034784Y042183D01*
X034786Y042181D01*
X034788Y042179D01*
X034788Y042179D01*
X034794Y042174D01*
X034801Y04217D01*
X034808Y042165D01*
X034815Y04216D01*
X034821Y042156D01*
X034825Y042153D01*
X034827Y042152D01*
X034829Y042151D01*
X034829Y04215D01*
X03483D01*
X034893Y04211D01*
Y04206D01*
X034811Y042112D01*
X034802Y042118D01*
X034794Y042124D01*
X034787Y04213D01*
X034781Y042135D01*
X034777Y042139D01*
X034773Y042142D01*
X034771Y042145D01*
X03477Y042146D01*
X034768Y042149D01*
X034765Y042153D01*
X03476Y042161D01*
X034758Y042164D01*
X034756Y042167D01*
X034756Y042169D01*
X034755Y04217D01*
X034754Y042162D01*
X034753Y042154D01*
X03475Y042148D01*
X034749Y042141D01*
X034746Y042136D01*
X034744Y04213D01*
X034742Y042125D01*
X034739Y042121D01*
X034737Y042118D01*
X034735Y042114D01*
X034733Y042111D01*
X034731Y042109D01*
X03473Y042108D01*
X034728Y042106D01*
X034728Y042106D01*
X034728Y042105D01*
X034723Y042102D01*
X034719Y042098D01*
X03471Y042093D01*
X034701Y04209D01*
X034692Y042087D01*
X034684Y042085D01*
X034681Y042085D01*
X034678D01*
X034676Y042084D01*
X034674D01*
X034673D01*
X034673D01*
X034664Y042085D01*
X034656Y042086D01*
X034648Y042088D01*
X034641Y04209D01*
X034635Y042093D01*
X034631Y042095D01*
X034628Y042097D01*
X034628Y042097D01*
X034628D01*
X034621Y042102D01*
X034614Y042108D01*
X034609Y042113D01*
X034605Y042118D01*
X034602Y042123D01*
X0346Y042127D01*
X034599Y04213D01*
X034599Y04213D01*
Y042131D01*
X034597Y042135D01*
X034596Y042139D01*
X034594Y042149D01*
X034593Y04216D01*
X034591Y042169D01*
X034591Y042178D01*
Y042182D01*
X03459Y042186D01*
Y042326D01*
X034893D01*
Y042286D01*
D02*
G37*
G36*
Y041841D02*
X034857D01*
Y04199D01*
X03485Y041985D01*
X034846Y041983D01*
X034843Y04198D01*
X034841Y041978D01*
X034839Y041976D01*
X034838Y041975D01*
X034837Y041975D01*
X034835Y041972D01*
X034833Y04197D01*
X034827Y041964D01*
X034821Y041957D01*
X034814Y041949D01*
X034808Y041942D01*
X034806Y041939D01*
X034803Y041937D01*
X034801Y041934D01*
X0348Y041933D01*
X034799Y041932D01*
X034799Y041931D01*
X034793Y041924D01*
X034787Y041917D01*
X034781Y041911D01*
X034777Y041906D01*
X034772Y0419D01*
X034767Y041896D01*
X034763Y041892D01*
X03476Y041888D01*
X034756Y041885D01*
X034754Y041882D01*
X034752Y04188D01*
X034749Y041878D01*
X034747Y041875D01*
X034746Y041875D01*
X034739Y041869D01*
X034732Y041863D01*
X034725Y041859D01*
X03472Y041855D01*
X034715Y041853D01*
X034712Y041851D01*
X03471Y04185D01*
X034709Y04185D01*
X034702Y041847D01*
X034696Y041845D01*
X03469Y041844D01*
X034684Y041843D01*
X03468Y041842D01*
X034676Y041842D01*
X034674D01*
X034673D01*
X034666Y041842D01*
X03466Y041843D01*
X034654Y041844D01*
X034649Y041846D01*
X034638Y04185D01*
X03463Y041855D01*
X034626Y041857D01*
X034623Y041859D01*
X03462Y041862D01*
X034618Y041864D01*
X034616Y041865D01*
X034614Y041866D01*
X034614Y041867D01*
X034614Y041868D01*
X034609Y041872D01*
X034605Y041878D01*
X034602Y041883D01*
X0346Y041889D01*
X034595Y0419D01*
X034592Y041912D01*
X034591Y041917D01*
X03459Y041921D01*
X03459Y041926D01*
X03459Y041929D01*
X034589Y041932D01*
Y041937D01*
X03459Y041945D01*
X03459Y041952D01*
X034591Y041959D01*
X034593Y041966D01*
X034594Y041972D01*
X034596Y041977D01*
X034598Y041983D01*
X0346Y041987D01*
X034603Y041992D01*
X034605Y041995D01*
X034607Y041998D01*
X034608Y042001D01*
X03461Y042003D01*
X034611Y042004D01*
X034611Y042005D01*
X034612Y042006D01*
X034616Y04201D01*
X034621Y042014D01*
X034626Y042018D01*
X034631Y042021D01*
X034642Y042026D01*
X034652Y04203D01*
X034657Y042031D01*
X034662Y042032D01*
X034666Y042033D01*
X034669Y042034D01*
X034673Y042035D01*
X034675D01*
X034676Y042035D01*
X034676D01*
X03468Y041997D01*
X03467Y041996D01*
X034662Y041994D01*
X034654Y041992D01*
X034648Y041989D01*
X034642Y041986D01*
X034639Y041983D01*
X034637Y041982D01*
X034636Y041981D01*
X034631Y041974D01*
X034627Y041967D01*
X034624Y04196D01*
X034622Y041953D01*
X034621Y041947D01*
X03462Y041942D01*
X03462Y04194D01*
Y041938D01*
X03462Y041928D01*
X034622Y04192D01*
X034624Y041913D01*
X034627Y041907D01*
X03463Y041902D01*
X034632Y041899D01*
X034634Y041897D01*
X034635Y041896D01*
X034641Y041891D01*
X034647Y041887D01*
X034653Y041884D01*
X034659Y041882D01*
X034664Y041881D01*
X034669Y04188D01*
X034671Y04188D01*
X034672D01*
X034672D01*
X03468Y041881D01*
X034688Y041882D01*
X034696Y041886D01*
X034703Y041889D01*
X034708Y041892D01*
X034713Y041895D01*
X034715Y041896D01*
X034716Y041897D01*
X034717Y041898D01*
X034717D01*
X034722Y041901D01*
X034727Y041906D01*
X034732Y04191D01*
X034737Y041916D01*
X034748Y041927D01*
X034758Y041938D01*
X034763Y041943D01*
X034767Y041948D01*
X034771Y041953D01*
X034775Y041957D01*
X034777Y04196D01*
X03478Y041962D01*
X034781Y041964D01*
X034781Y041965D01*
X034791Y041976D01*
X034799Y041986D01*
X034807Y041994D01*
X034814Y042D01*
X034819Y042006D01*
X034823Y04201D01*
X034826Y042012D01*
X034826Y042013D01*
X034827D01*
X034834Y042019D01*
X034841Y042024D01*
X034848Y042028D01*
X034854Y042032D01*
X03486Y042035D01*
X034864Y042036D01*
X034866Y042037D01*
X034867Y042038D01*
X034867D01*
X034872Y042039D01*
X034876Y04204D01*
X034881Y042041D01*
X034885Y042042D01*
X034888Y042042D01*
X034891D01*
X034892D01*
X034893D01*
Y041841D01*
D02*
G37*
G36*
X0347Y041801D02*
X034707Y0418D01*
X034715Y041799D01*
X034722Y041798D01*
X034728Y041796D01*
X034734Y041793D01*
X034739Y041791D01*
X034744Y041789D01*
X034748Y041786D01*
X034752Y041784D01*
X034755Y041782D01*
X034758Y04178D01*
X03476Y041778D01*
X034762Y041777D01*
X034763Y041776D01*
X034763Y041776D01*
X034768Y041771D01*
X034772Y041766D01*
X034776Y041761D01*
X034779Y041755D01*
X034781Y04175D01*
X034784Y041744D01*
X034787Y041734D01*
X034788Y04173D01*
X034789Y041726D01*
X034789Y041722D01*
X03479Y041719D01*
X03479Y041716D01*
Y041712D01*
X03479Y041704D01*
X034788Y041696D01*
X034787Y041689D01*
X034784Y041683D01*
X034783Y041678D01*
X034781Y041674D01*
X03478Y041671D01*
X034779Y041671D01*
X034775Y041664D01*
X03477Y041657D01*
X034765Y041652D01*
X034761Y041648D01*
X034756Y041645D01*
X034753Y041642D01*
X034751Y04164D01*
X03475Y04164D01*
X034754D01*
X034756D01*
X034757D01*
X034758D01*
X034767Y04164D01*
X034775Y041641D01*
X034782Y041642D01*
X034789Y041643D01*
X034795Y041644D01*
X034799Y041645D01*
X034801Y041645D01*
X034802D01*
X034803Y041646D01*
X034803D01*
X034811Y041648D01*
X034818Y04165D01*
X034824Y041652D01*
X034829Y041654D01*
X034833Y041656D01*
X034836Y041658D01*
X034839Y041659D01*
X034839Y041659D01*
X034844Y041663D01*
X034848Y041666D01*
X034851Y04167D01*
X034854Y041673D01*
X034857Y041676D01*
X034859Y041678D01*
X03486Y04168D01*
X03486Y041681D01*
X034863Y041685D01*
X034864Y041691D01*
X034866Y041695D01*
X034867Y0417D01*
X034867Y041704D01*
X034867Y041707D01*
Y04171D01*
X034867Y041717D01*
X034866Y041724D01*
X034864Y04173D01*
X034862Y041734D01*
X03486Y041738D01*
X034858Y041741D01*
X034857Y041743D01*
X034857Y041743D01*
X034852Y041747D01*
X034846Y041751D01*
X03484Y041754D01*
X034834Y041756D01*
X034829Y041758D01*
X034824Y041759D01*
X034822Y04176D01*
X034821D01*
X03482Y04176D01*
X03482D01*
X034823Y041796D01*
X034836Y041793D01*
X034846Y04179D01*
X034856Y041785D01*
X034864Y041781D01*
X03487Y041777D01*
X034873Y041775D01*
X034875Y041773D01*
X034876Y041771D01*
X034878Y04177D01*
X034878Y04177D01*
X034878Y041769D01*
X034882Y041765D01*
X034885Y04176D01*
X03489Y041751D01*
X034893Y041741D01*
X034895Y041732D01*
X034897Y041723D01*
X034898Y04172D01*
Y041717D01*
X034898Y041715D01*
Y041711D01*
X034897Y041699D01*
X034895Y041688D01*
X034892Y041678D01*
X034889Y04167D01*
X034888Y041666D01*
X034886Y041663D01*
X034884Y04166D01*
X034883Y041657D01*
X034882Y041656D01*
X034881Y041654D01*
X03488Y041653D01*
Y041653D01*
X034873Y041644D01*
X034864Y041636D01*
X034856Y04163D01*
X034847Y041625D01*
X03484Y041621D01*
X034836Y041619D01*
X034834Y041618D01*
X034831Y041617D01*
X034829Y041616D01*
X034829Y041615D01*
X034828D01*
X034822Y041613D01*
X034814Y041611D01*
X034799Y041608D01*
X034784Y041606D01*
X034769Y041605D01*
X034762Y041604D01*
X034756Y041603D01*
X03475D01*
X034745Y041603D01*
X034741D01*
X034738D01*
X034736D01*
X034735D01*
X034725D01*
X034716Y041603D01*
X034707Y041604D01*
X034699Y041605D01*
X034691Y041606D01*
X034684Y041607D01*
X034678Y041608D01*
X034672Y041609D01*
X034667Y041611D01*
X034663Y041612D01*
X034659Y041613D01*
X034656Y041614D01*
X034654Y041615D01*
X034652Y041615D01*
X034651Y041616D01*
X034651D01*
X03464Y041621D01*
X034631Y041627D01*
X034623Y041633D01*
X034617Y041639D01*
X034612Y041645D01*
X034608Y041649D01*
X034607Y041651D01*
X034606Y041652D01*
X034605Y041653D01*
Y041653D01*
X0346Y041662D01*
X034596Y041671D01*
X034593Y041681D01*
X034591Y041689D01*
X03459Y041696D01*
X03459Y041699D01*
Y041702D01*
X034589Y041704D01*
Y041707D01*
X03459Y041714D01*
X03459Y041721D01*
X034592Y041728D01*
X034593Y041734D01*
X034598Y041746D01*
X0346Y041751D01*
X034603Y041756D01*
X034606Y04176D01*
X034608Y041764D01*
X034611Y041767D01*
X034613Y04177D01*
X034615Y041772D01*
X034616Y041773D01*
X034617Y041774D01*
X034617Y041775D01*
X034623Y041779D01*
X034629Y041783D01*
X034635Y041787D01*
X034641Y04179D01*
X034647Y041793D01*
X034653Y041795D01*
X034665Y041798D01*
X03467Y041799D01*
X034675Y0418D01*
X03468Y041801D01*
X034684Y041801D01*
X034687Y041802D01*
X034689D01*
X034691D01*
X034691D01*
X0347Y041801D01*
D02*
G37*
%LPC*%
G36*
X03489Y040299D02*
X034754D01*
Y040204D01*
X03489Y040299D01*
D02*
G37*
G36*
Y040064D02*
X034754D01*
Y039969D01*
X03489Y040064D01*
D02*
G37*
G36*
X035717D02*
X035581D01*
Y039969D01*
X035717Y040064D01*
D02*
G37*
G36*
X038583Y040678D02*
X038447D01*
Y040583D01*
X038583Y040678D01*
D02*
G37*
G36*
X039309Y040947D02*
X039308D01*
X039307D01*
X039306D01*
X039295Y040946D01*
X039285Y040944D01*
X039276Y040942D01*
X039268Y040939D01*
X039263Y040935D01*
X039258Y040933D01*
X039256Y040931D01*
X039255Y04093D01*
X039255D01*
X039251Y040927D01*
X039249Y040923D01*
X039244Y040916D01*
X039241Y040909D01*
X039238Y040903D01*
X039237Y040898D01*
X039237Y040893D01*
X039236Y040891D01*
Y040889D01*
X039237Y040883D01*
X039237Y040877D01*
X039239Y040872D01*
X039241Y040868D01*
X039242Y040864D01*
X039244Y040861D01*
X039245Y040859D01*
X039245Y040858D01*
X039249Y040853D01*
X039253Y040849D01*
X039258Y040845D01*
X039262Y040842D01*
X039266Y040839D01*
X039269Y040837D01*
X039271Y040836D01*
X039272Y040836D01*
X039278Y040833D01*
X039285Y040831D01*
X039291Y040829D01*
X039297Y040829D01*
X039302Y040828D01*
X039306Y040828D01*
X039308D01*
X039309D01*
X039319Y040829D01*
X039328Y04083D01*
X039337Y040833D01*
X039343Y040836D01*
X039349Y040839D01*
X039353Y040843D01*
X039355Y040844D01*
X039356Y040845D01*
X039362Y040852D01*
X039366Y040859D01*
X03937Y040867D01*
X039372Y040873D01*
X039373Y040879D01*
X039374Y040884D01*
X039374Y040885D01*
Y040888D01*
X039373Y040897D01*
X039371Y040905D01*
X039369Y040912D01*
X039365Y040919D01*
X039362Y040923D01*
X039359Y040927D01*
X039357Y040929D01*
X039356Y04093D01*
X039348Y040936D01*
X039341Y04094D01*
X039332Y040943D01*
X039324Y040945D01*
X039317Y040946D01*
X039314Y040947D01*
X039312D01*
X039309Y040947D01*
D02*
G37*
G36*
X039453Y04067D02*
X039317D01*
Y040575D01*
X039453Y04067D01*
D02*
G37*
G36*
X038217Y041779D02*
X038215D01*
X038215D01*
X038215D01*
X03821Y041778D01*
X038206Y041777D01*
X038203Y041776D01*
X0382Y041774D01*
X038197Y041773D01*
X038195Y041771D01*
X038194Y04177D01*
X038194Y04177D01*
X038191Y041767D01*
X038189Y041763D01*
X038187Y041759D01*
X038186Y041755D01*
X038186Y041752D01*
X038185Y04175D01*
X038185Y041748D01*
Y041747D01*
X038185Y041742D01*
X038186Y041738D01*
X038188Y041734D01*
X03819Y041731D01*
X038191Y041728D01*
X038192Y041726D01*
X038193Y041725D01*
X038194Y041725D01*
X038197Y041722D01*
X038201Y04172D01*
X038204Y041718D01*
X038208Y041717D01*
X038211Y041717D01*
X038214Y041716D01*
X038215Y041716D01*
X038216D01*
X038216D01*
X03822Y041716D01*
X038224Y041718D01*
X038228Y041719D01*
X038231Y041721D01*
X038233Y041722D01*
X038235Y041723D01*
X038236Y041724D01*
X038237Y041725D01*
X03824Y041728D01*
X038242Y041732D01*
X038243Y041736D01*
X038244Y041739D01*
X038245Y041743D01*
X038245Y041745D01*
Y041747D01*
X038245Y041752D01*
X038244Y041757D01*
X038243Y04176D01*
X038241Y041764D01*
X038239Y041766D01*
X038238Y041768D01*
X038237Y041769D01*
X038237Y04177D01*
X038233Y041773D01*
X038229Y041775D01*
X038226Y041777D01*
X038222Y041778D01*
X038219Y041778D01*
X038217Y041779D01*
D02*
G37*
G36*
X038128Y041786D02*
X038127D01*
X038127D01*
X038127D01*
X038121Y041786D01*
X038115Y041785D01*
X038111Y041783D01*
X038107Y041781D01*
X038104Y041779D01*
X038101Y041777D01*
X0381Y041776D01*
X038099Y041775D01*
X038096Y041771D01*
X038093Y041767D01*
X038091Y041762D01*
X03809Y041757D01*
X038089Y041754D01*
X038089Y04175D01*
X038088Y041749D01*
Y041747D01*
X038089Y041744D01*
X038089Y04174D01*
X03809Y041736D01*
X038091Y041733D01*
X038092Y041731D01*
X038093Y041729D01*
X038093Y041727D01*
X038093Y041727D01*
X038096Y041724D01*
X038098Y041721D01*
X0381Y041718D01*
X038103Y041716D01*
X038105Y041715D01*
X038106Y041714D01*
X038108Y041713D01*
X038108Y041713D01*
X038112Y041711D01*
X038115Y04171D01*
X038118Y041709D01*
X038121Y041709D01*
X038124Y041709D01*
X038126Y041708D01*
X038127D01*
X038127D01*
X038133Y041709D01*
X038139Y04171D01*
X038143Y041712D01*
X038147Y041714D01*
X03815Y041716D01*
X038153Y041718D01*
X038154Y041719D01*
X038155Y041719D01*
X038159Y041723D01*
X038161Y041728D01*
X038163Y041732D01*
X038165Y041737D01*
X038165Y041741D01*
X038166Y041744D01*
X038166Y041745D01*
Y041747D01*
X038165Y041753D01*
X038164Y041758D01*
X038162Y041763D01*
X03816Y041767D01*
X038158Y041771D01*
X038156Y041773D01*
X038155Y041775D01*
X038155Y041775D01*
X03815Y041779D01*
X038145Y041782D01*
X038141Y041784D01*
X038137Y041785D01*
X038132Y041786D01*
X038129Y041786D01*
X038128Y041786D01*
D02*
G37*
G36*
X036384Y042269D02*
X036284D01*
Y042174D01*
X036285Y042162D01*
X036286Y042152D01*
X036289Y042143D01*
X036291Y042136D01*
X036294Y042131D01*
X036296Y042127D01*
X036298Y042125D01*
X036298Y042124D01*
X036304Y042119D01*
X03631Y042115D01*
X036316Y042112D01*
X036321Y04211D01*
X036326Y042109D01*
X03633Y042109D01*
X036333Y042109D01*
X036333D01*
X036334D01*
X036339Y042109D01*
X036344Y04211D01*
X036349Y042111D01*
X036352Y042112D01*
X036356Y042114D01*
X036359Y042116D01*
X03636Y042116D01*
X036361Y042117D01*
X036365Y04212D01*
X036369Y042124D01*
X036372Y042128D01*
X036375Y042132D01*
X036376Y042135D01*
X036378Y042138D01*
X036379Y04214D01*
X036379Y04214D01*
X036381Y042147D01*
X036382Y042154D01*
X036383Y042161D01*
X036383Y042168D01*
X036384Y042174D01*
X036384Y042179D01*
Y042269D01*
D02*
G37*
G36*
X036328Y041735D02*
X036327D01*
X036327D01*
X03632Y041734D01*
X036314Y041733D01*
X036308Y041731D01*
X036303Y041728D01*
X036299Y041726D01*
X036296Y041724D01*
X036294Y041722D01*
X036294Y041721D01*
X036289Y041716D01*
X036286Y04171D01*
X036283Y041704D01*
X036282Y041698D01*
X036281Y041693D01*
X03628Y041689D01*
Y041686D01*
X03628Y041678D01*
X036282Y041671D01*
X036284Y041665D01*
X036287Y04166D01*
X03629Y041656D01*
X036292Y041653D01*
X036293Y041651D01*
X036294Y041651D01*
X0363Y041646D01*
X036305Y041642D01*
X036311Y04164D01*
X036316Y041638D01*
X036321Y041637D01*
X036325Y041636D01*
X036328D01*
X036328D01*
X036328D01*
X036335Y041637D01*
X036342Y041638D01*
X036348Y04164D01*
X036352Y041643D01*
X036356Y041646D01*
X036359Y041648D01*
X036361Y04165D01*
X036362Y04165D01*
X036366Y041655D01*
X03637Y041661D01*
X036372Y041667D01*
X036373Y041673D01*
X036374Y041678D01*
X036375Y041682D01*
X036375Y041685D01*
Y041686D01*
X036375Y041693D01*
X036373Y0417D01*
X036371Y041706D01*
X036368Y041712D01*
X036366Y041716D01*
X036364Y041719D01*
X036362Y041721D01*
X036362Y041721D01*
X036356Y041726D01*
X03635Y041729D01*
X036345Y041731D01*
X036339Y041733D01*
X036334Y041734D01*
X03633Y041734D01*
X036328Y041735D01*
D02*
G37*
G36*
X036469Y041747D02*
X036467D01*
X036466D01*
X036457Y041746D01*
X036449Y041744D01*
X036441Y041742D01*
X036435Y041738D01*
X03643Y041735D01*
X036426Y041733D01*
X036424Y041731D01*
X036423Y04173D01*
X036417Y041724D01*
X036413Y041716D01*
X03641Y041709D01*
X036408Y041702D01*
X036406Y041696D01*
X036406Y041691D01*
X036405Y041689D01*
Y041687D01*
X036406Y041677D01*
X036408Y041668D01*
X036411Y041661D01*
X036414Y041654D01*
X036418Y041649D01*
X036421Y041645D01*
X036422Y041643D01*
X036423Y041642D01*
X03643Y041636D01*
X036438Y041631D01*
X036445Y041628D01*
X036452Y041626D01*
X036458Y041625D01*
X036463Y041624D01*
X036465Y041624D01*
X036466D01*
X036467D01*
X036467D01*
X036477Y041625D01*
X036485Y041627D01*
X036493Y04163D01*
X036499Y041633D01*
X036504Y041636D01*
X036508Y041639D01*
X03651Y04164D01*
X036511Y041641D01*
X036516Y041648D01*
X036521Y041655D01*
X036523Y041663D01*
X036526Y04167D01*
X036527Y041676D01*
X036527Y041681D01*
X036528Y041683D01*
Y041686D01*
X036527Y041692D01*
X036526Y041698D01*
X036525Y041703D01*
X036524Y041708D01*
X036522Y041712D01*
X036521Y041715D01*
X03652Y041717D01*
X03652Y041718D01*
X036516Y041723D01*
X036513Y041727D01*
X036509Y041731D01*
X036505Y041734D01*
X036502Y041737D01*
X036499Y041739D01*
X036497Y04174D01*
X036497Y04174D01*
X036491Y041742D01*
X036486Y041744D01*
X036481Y041745D01*
X036476Y041746D01*
X036472Y041747D01*
X036469Y041747D01*
D02*
G37*
G36*
X035551Y042282D02*
X035451D01*
Y042187D01*
X035451Y042175D01*
X035453Y042165D01*
X035455Y042156D01*
X035458Y042149D01*
X03546Y042144D01*
X035463Y04214D01*
X035464Y042138D01*
X035465Y042137D01*
X03547Y042132D01*
X035476Y042128D01*
X035482Y042125D01*
X035488Y042123D01*
X035493Y042122D01*
X035497Y042122D01*
X035499Y042122D01*
X0355D01*
X0355D01*
X035505Y042122D01*
X035511Y042123D01*
X035515Y042124D01*
X035519Y042125D01*
X035522Y042127D01*
X035525Y042129D01*
X035527Y042129D01*
X035527Y04213D01*
X035532Y042133D01*
X035536Y042137D01*
X035539Y042141D01*
X035541Y042145D01*
X035543Y042148D01*
X035544Y042151D01*
X035545Y042153D01*
X035546Y042153D01*
X035547Y04216D01*
X035549Y042167D01*
X03555Y042174D01*
X03555Y042181D01*
X03555Y042187D01*
X035551Y042192D01*
Y042282D01*
D02*
G37*
G36*
X035578Y04176D02*
X035574D01*
X035571D01*
X035571D01*
X035557Y041759D01*
X035545Y041759D01*
X035533Y041758D01*
X035523Y041757D01*
X035514Y041755D01*
X035505Y041754D01*
X035498Y041752D01*
X035491Y04175D01*
X035486Y041748D01*
X035481Y041747D01*
X035477Y041745D01*
X035474Y041744D01*
X035471Y041743D01*
X03547Y041742D01*
X035469Y041741D01*
X035468D01*
X035464Y041738D01*
X035461Y041735D01*
X035458Y041731D01*
X035456Y041728D01*
X035452Y041721D01*
X035449Y041714D01*
X035448Y041709D01*
X035447Y041704D01*
X035446Y041702D01*
Y041699D01*
X035447Y041695D01*
X035447Y04169D01*
X035449Y041685D01*
X03545Y041681D01*
X035454Y041674D01*
X035459Y041667D01*
X035463Y041663D01*
X035467Y041659D01*
X035469Y041657D01*
X03547Y041657D01*
X035471Y041656D01*
X035471D01*
X035477Y041653D01*
X035483Y04165D01*
X03549Y041647D01*
X035497Y041646D01*
X035505Y041644D01*
X035513Y041643D01*
X03553Y04164D01*
X035538Y041639D01*
X035546Y041639D01*
X035553Y041639D01*
X035558D01*
X035564Y041638D01*
X035568D01*
X03557D01*
X03557D01*
X035571D01*
X035584D01*
X035596Y041639D01*
X035607Y04164D01*
X035618Y041641D01*
X035626Y041642D01*
X035635Y041644D01*
X035642Y041646D01*
X035648Y041647D01*
X035654Y041649D01*
X035658Y04165D01*
X035662Y041652D01*
X035665Y041653D01*
X035667Y041654D01*
X035668Y041655D01*
X035669Y041656D01*
X03567D01*
X035674Y04166D01*
X035678Y041663D01*
X035681Y041667D01*
X035684Y04167D01*
X035688Y041678D01*
X035691Y041684D01*
X035693Y04169D01*
X035694Y041695D01*
X035694Y041696D01*
Y041699D01*
X035694Y041704D01*
X035693Y041708D01*
X03569Y041716D01*
X035686Y041724D01*
X035682Y04173D01*
X035678Y041735D01*
X035674Y041739D01*
X035671Y041741D01*
X03567Y041742D01*
X03567D01*
X035665Y041745D01*
X035658Y041748D01*
X035651Y04175D01*
X035644Y041752D01*
X035636Y041754D01*
X035628Y041755D01*
X035611Y041757D01*
X035603Y041758D01*
X035595Y041759D01*
X035588Y041759D01*
X035583D01*
X035578Y04176D01*
D02*
G37*
G36*
X034724Y042286D02*
X034624D01*
Y042191D01*
X034624Y042179D01*
X034626Y042169D01*
X034628Y04216D01*
X034631Y042153D01*
X034634Y042148D01*
X034636Y042144D01*
X034638Y042142D01*
X034638Y042141D01*
X034644Y042136D01*
X034649Y042132D01*
X034656Y042129D01*
X034661Y042127D01*
X034666Y042126D01*
X03467Y042126D01*
X034673Y042125D01*
X034673D01*
X034673D01*
X034679Y042126D01*
X034684Y042127D01*
X034688Y042128D01*
X034692Y042129D01*
X034696Y042131D01*
X034698Y042132D01*
X0347Y042133D01*
X034701Y042134D01*
X034705Y042137D01*
X034709Y042141D01*
X034712Y042145D01*
X034715Y042149D01*
X034716Y042152D01*
X034718Y042155D01*
X034718Y042156D01*
X034719Y042157D01*
X034721Y042163D01*
X034722Y04217D01*
X034723Y042177D01*
X034723Y042184D01*
X034724Y042191D01*
X034724Y042196D01*
Y042286D01*
D02*
G37*
G36*
X034695Y041764D02*
X034694D01*
X034693D01*
X034693D01*
X034681Y041763D01*
X034671Y041761D01*
X034662Y041758D01*
X034654Y041754D01*
X034648Y041751D01*
X034644Y041748D01*
X034642Y041747D01*
X034641Y041747D01*
X034641Y041746D01*
X03464D01*
X034637Y041742D01*
X034633Y041739D01*
X034628Y041731D01*
X034624Y041724D01*
X034622Y041717D01*
X034621Y041711D01*
X03462Y041706D01*
X03462Y041705D01*
Y041698D01*
X034621Y041693D01*
X034623Y041685D01*
X034626Y041678D01*
X034629Y041672D01*
X034632Y041667D01*
X034635Y041664D01*
X034638Y041662D01*
X034638Y041661D01*
X034638D01*
X034646Y041655D01*
X034654Y041651D01*
X034663Y041648D01*
X034671Y041646D01*
X034678Y041645D01*
X034681Y041644D01*
X034684D01*
X034687Y041644D01*
X034688D01*
X034689D01*
X03469D01*
X034701Y041645D01*
X034711Y041646D01*
X034719Y041649D01*
X034726Y041652D01*
X034732Y041656D01*
X034736Y041658D01*
X034739Y04166D01*
X034739Y041661D01*
X034746Y041667D01*
X03475Y041674D01*
X034753Y041681D01*
X034755Y041688D01*
X034756Y041694D01*
X034757Y041699D01*
X034757Y041701D01*
Y041703D01*
X034756Y041712D01*
X034755Y041721D01*
X034752Y041728D01*
X034748Y041735D01*
X034745Y04174D01*
X034742Y041744D01*
X03474Y041746D01*
X034739Y041747D01*
X034732Y041752D01*
X034725Y041757D01*
X034717Y041759D01*
X034709Y041761D01*
X034703Y041763D01*
X0347Y041763D01*
X034697D01*
X034695Y041764D01*
D02*
G37*
%LPD*%
D19*
X038279Y050815D02*
X038457D01*
X034992D02*
X035169D01*
X038457Y050638D02*
Y050815D01*
X037914D02*
X038091D01*
X037549D02*
X037726D01*
X037184D02*
X037361D01*
X036818D02*
X036996D01*
X036453D02*
X03663D01*
X036088D02*
X036265D01*
X035723D02*
X0359D01*
X035357D02*
X035535D01*
X034992Y050638D02*
Y050815D01*
Y050283D02*
Y050461D01*
X038457Y050283D02*
Y050461D01*
X034992Y049929D02*
Y050106D01*
X038457Y049929D02*
Y050106D01*
X034992Y049673D02*
X038457D01*
X034992Y04548D02*
Y049673D01*
X038457Y044831D02*
Y049673D01*
X034992Y04548D02*
X035642Y044831D01*
X038457D01*
X034374Y040831D02*
X035161D01*
X034374Y039256D02*
X035161D01*
Y040831D01*
X034374Y039256D02*
Y040831D01*
X035201D02*
X035988D01*
X035201Y039256D02*
X035988D01*
Y040831D01*
X035201Y039256D02*
Y040831D01*
X036028Y040819D02*
X036815D01*
X036028Y039244D02*
X036815D01*
Y040819D01*
X036028Y039244D02*
Y040819D01*
X038067Y041445D02*
X038854D01*
X038067Y03987D02*
X038854D01*
Y041445D01*
X038067Y03987D02*
Y041445D01*
X038937Y041437D02*
X039724D01*
X038937Y039862D02*
X039724D01*
Y041437D01*
X038937Y039862D02*
Y041437D01*
X036039Y041122D02*
X036827D01*
X036039Y042697D02*
X036827D01*
X036039Y041122D02*
Y042697D01*
X036827Y041122D02*
Y042697D01*
X035206Y041135D02*
X035993D01*
X035206Y04271D02*
X035993D01*
X035206Y041135D02*
Y04271D01*
X035993Y041135D02*
Y04271D01*
X034379Y041139D02*
X035167D01*
X034379Y042714D02*
X035167D01*
X034379Y041139D02*
Y042714D01*
X035167Y041139D02*
Y042714D01*
D144*
X037638Y041421D02*
Y04152D01*
X037256D02*
X037638D01*
X037256D02*
Y042583D01*
X037638D01*
Y042681D01*
X038567D01*
Y042583D02*
Y042681D01*
Y042583D02*
X038949D01*
Y04152D02*
Y042583D01*
X038567Y04152D02*
X038949D01*
X038567Y041421D02*
Y04152D01*
X037638Y041421D02*
X038567D01*
M02*
