M48
;Layer_Color=9474304
;FILE_FORMAT=2:4
INCH,LZ
;TYPE=PLATED
T1F00S00C0.0118
T2F00S00C0.0197
T3F00S00C0.0300
T4F00S00C0.0310
T5F00S00C0.0315
T6F00S00C0.0354
T7F00S00C0.0394
T8F00S00C0.0450
T10F00S00C0.0500
T11F00S00C0.0591
T12F00S00C0.0827
T13F00S00C0.1260
%
T01
X01024Y010634
X010236Y011067
Y011567
Y012567
Y013067
Y013567
Y014067
Y014567
Y015067
Y015567
X01074Y010634
X01124
X01174
X01224
X01274
X01324
X013622
X014122
X014622
X015122
X015622
X016122
X016622
X017004
X017291
X017622
X018004
X018504
X019004
X019504
X020004
X020504
X020886
X021386
X021886
X022386
X022858
X023386
X023769
X024269
X024769
X025178Y010654
X02556
X02606
X02656
X02706
X027651Y010634
X028033
X028533
X029033
X029533
X030033
X030561
X030943
X030882Y01095
X031138Y010949
Y011226
X030882Y011227
X03063Y011234
Y010957
X030571Y014126
X030315
X030047
Y014514
X030328
X030584
Y014849
X030328
Y015114
X030584
Y0154
X030328
X030047
Y015114
Y014849
X029445Y014953
Y014688
X029156Y014676
Y014941
Y015226
X029445Y015239
Y014353
X029442Y014077
X029153Y014064
X029156Y014341
X019763Y013258
X019505
Y012943
X019763
X031516Y011493
X031413Y011222
Y010945
X031443Y010634
X033443Y013819
Y014089
Y014362
X03374
Y014089
Y013819
X034033
Y014089
Y014362
X034331
Y014089
Y013819
X035017Y013923
Y013661
X035315
Y013923
Y014196
X035608
Y013923
Y013661
X035906
Y013923
Y014196
X036199
Y013923
Y013661
X036496
Y013923
Y014196
Y014528
Y014817
Y01509
X036199
Y014817
Y014528
X035906
Y014817
Y01509
X035608
Y014817
Y014528
X035315
Y014817
Y01509
X035017
Y014817
Y014528
Y014196
X034331Y014694
Y014983
Y015256
X034033
Y014983
Y014694
X03374
Y014983
Y015256
X033443
Y014983
Y014694
Y015574
X03374
X034033
X034331
X035017Y015407
X035315
X035608
X035906
X036199
X036496
X037143Y01543
X037441
X037756
X038071
X038386
Y015099
X038071
X037756
X037441
X037143
Y014769
Y014496
Y014207
X037441
Y014496
Y014769
X037756
Y014496
Y014207
X038071
Y014496
Y014769
X038386
Y014496
Y014207
X038685
Y014496
Y014769
X038983
Y014496
Y014207
X039297
Y014496
Y014769
X039612
Y014496
Y014207
X039927
Y014496
Y014769
Y013875
Y013602
X039612
Y013875
X039297
Y013602
X038983
Y013875
X038685
Y013602
X038386
X038185Y013618
X038071Y013602
Y013875
X037756
X037441
Y013602
X037143
Y013875
X038386
X043084Y015017
X044724Y014902
Y014584
Y014311
Y014022
Y01369
Y013417
Y013152
Y012878
Y012613
X045039
Y012878
Y013152
Y013417
Y01367
Y014002
Y014291
Y014564
Y014882
X045324Y013417
Y013152
Y012878
Y012613
Y012324
X045039
Y011992
X045324
X045639
X045915
Y011675
Y011402
X045639
Y011675
X045324
Y011402
X045039
Y011675
Y011112
X045324
X045639
X045915
Y010781
X045639
X045324
X045039
X04623
Y012613
Y012878
Y013152
Y013417
X045915
Y013152
Y012878
Y012613
X045639
Y012878
Y013152
Y013417
Y012324
X045915
X046526Y015417
X046791
X047171Y017402
Y017657
X047435
Y017402
X04771
Y017657
X047974
Y017402
X048228Y017402
X047379Y025597
X047143
X047039Y026759
X047283
X047532
X047777
Y027015
X047532
X047283
X047039
Y027269
X047283
X047532
X047926Y029179
Y02945
Y02974
X04456Y029694
X044293Y030806
X045124Y030854
X045118Y031063
X045358Y031064
X045364Y030855
X045271Y028945
X045028Y028134
X045406Y027854
X044858Y026987
Y026751
Y026532
Y026305
X045082Y026299
Y026518
Y026754
X045325Y026518
Y026283
X044602Y026305
Y02654
Y02676
Y026995
X044353
Y02676
Y02654
Y026305
X044108
Y02654
Y02676
Y026995
X043859
Y02676
Y02654
Y026305
X043615
Y02654
Y02676
Y026995
X043366
Y02676
Y02654
X042638Y0253
Y02501
X042632Y024751
X042907
X042913Y02501
X043176Y024751
X042277Y024751
X042016Y024751
X042022Y02501
X042311
Y0253
Y025573
X042022
Y0253
X041693
Y025573
X041388
Y0253
X041098
X040839
Y025573
X041098
Y02589
X040839
X040514
Y025573
Y0253
Y02501
Y024751
X040839
X041092
X041098Y02501
X040839
X041388
X041381Y024751
X041687
X041693Y02501
Y02589
X041388
Y026222
Y026487
X041098
X040839
Y026752
X041098
Y026222
X040839
X040514
Y026487
Y026752
X040738Y027208
X041114Y028014
X041142Y028512
X041368
X041603
X041822
X042058
Y028777
X042284
X042519
X041822
X041603
X041368
X041142
X041631Y027803
X041693Y026222
X042022Y02589
X041886Y024122
X041611
X041346
X042211Y024122
X042228Y022523
X042224Y022313
X041907Y022305
X041903Y022523
X041628
X041633Y022305
X041368
X041363Y022523
X041235Y021575
Y021299
Y021024
Y020748
X041535
X041809
Y021024
X041535
Y021299
X041809
Y021575
X041535
X04214
Y021299
Y021024
Y020748
X040903
X04063
Y021024
X040903
Y021299
X04063
Y021575
X040903
X039815Y021746
X039579Y021517
X039337Y021686
X039331Y02126
X039134Y021096
X039134Y020669
Y020433
Y020157
X038819
X038543
Y019882
X038228
X038043Y020021
X037801Y02019
X037998Y020387
X03828Y02025
X038246Y020645
X038465Y020866
X038819
Y020669
Y020433
X038543
X038668Y021096
X038904Y021293
X039101Y021489
X03956Y021096
X039449Y020866
Y020669
Y020433
X03979
Y020669
Y020866
X039797Y021273
X039606Y020118
Y019488
X039882Y019492
X039335Y0195
X038379Y019629
X038386Y019351
X038386Y019094
Y018858
Y018594
Y018304
X038071
Y018594
Y018858
Y019094
X038071Y019351
X038064Y019629
X037795Y019764
X037598Y019567
X037756Y019351
X037756Y019094
Y018858
Y018594
Y018304
X037441
Y018594
Y018858
Y019094
X037362Y01937
X037368Y019796
X037565Y019993
X037132Y0196
X037126Y019173
X037143Y018858
Y018594
Y018304
Y017973
X037441
X037756
X038071
X038386
Y017655
Y017382
Y017093
X038071
Y017382
Y017655
X037756
Y017382
Y017093
X037441
Y017382
Y017655
X037143
Y017382
Y017093
Y016761
Y016488
Y016211
Y015984
Y01572
X037441
Y015984
Y016223
Y016488
Y016761
X037756
Y016488
Y016223
Y015984
Y01572
X038071
Y015984
Y016223
Y016488
Y016761
X038386
Y016488
Y016223
Y015984
Y01572
X036496Y015739
Y016028
Y016293
Y016571
Y016836
Y017109
X036482Y01737
X036488Y017614
X036492Y017868
X036195
X036191Y017614
X036185Y01737
X036199Y017109
Y016836
Y016571
Y016293
Y016028
Y015739
X035906
Y016028
Y016293
Y016571
Y016836
Y017109
X035892Y01737
X035898Y017614
X035551Y017638
X035594Y01737
X035608Y017109
Y016836
Y016571
Y016293
Y016028
Y015739
X035315
Y016028
Y016293
Y016571
Y016836
Y017109
X035017
Y016836
Y016571
Y016293
Y016028
Y015739
X034331Y015811
Y016063
X034331Y016293
X033909
X034034Y016063
Y015811
X03374
X033465
X033661Y016063
X033668Y016489
X033864Y016686
X034146Y016549
X034112Y016944
X034366Y016759
X034331Y017165
X035039Y017383
X035085Y01767
X035321Y017867
X035518Y018064
X035754Y018261
X035951Y018458
X035996Y018092
X036233Y018321
X036499Y018159
X036453Y018531
X036199Y018715
X036417Y018937
X035978Y019889
X036175Y020085
X035945Y020276
X035748Y020079
X035742Y019692
X035512Y019882
X035472Y020236
X035394Y020551
X035197Y020354
X035236Y020039
X034961Y020157
X035006Y019836
X034731Y019954
X034805Y019627
X03453Y019745
X034585Y019416
X03431Y019534
X034348Y019188
X034073Y019306
X034101Y01893
X033807Y019048
Y018733
X033625Y018852
Y018537
X033807Y018379
X033625Y018182
X033807Y017953
X033625Y017756
X033366Y017985
Y01834
Y018655
Y019048
Y019345
X033625Y0193
Y019563
X033807Y019534
Y019799
X034097Y019745
X033996Y020039
X033825Y020241
X034232Y020236
X034297Y019954
X034528Y020157
X034429Y020433
X034764Y020354
X034961Y020551
X034914Y020919
X035208Y020809
X035134Y02113
X035445Y021037
X035335Y021339
X035153Y021572
X035353Y021781
X035571Y021621
X035768Y021818
X036036Y021646
X036204Y021829
X036634Y021818
X036457Y021634
X036299Y021457
X036575Y021339
X036374Y02113
X036098Y021248
X036154Y020919
X035878Y021037
X035917Y020691
X035642Y020809
X035669Y020433
X036193Y020533
X036423Y020343
X03643Y020762
X03666Y020571
X036649Y020972
X03685Y021181
X03708Y020991
X036879Y020782
X037087Y021417
X037283Y021621
X03748Y021818
X037514Y021424
X03771Y021621
X037907Y021818
X037008
X036811Y021621
X037317Y021227
X035665Y021248
X035866Y021457
X034933Y021361
X034711Y021587
X034482Y021768
X034285Y021571
X034463Y021329
X034267Y021132
X033859Y021134
X03403Y020936
X033645Y020898
X033841Y020695
X034015Y020482
X033625Y020459
Y020005
X033366Y019788
Y020242
Y02068
Y021094
Y02135
X033645Y021312
X033594Y021567
X03387Y021548
X033819Y021803
X03406Y021788
X034048Y021374
X034696Y021133
X034677Y020691
X034448Y020875
X034251Y020678
X034948Y021815
X035016Y023107
X034738Y023116
X034441
X034148
X03385
X033557
X03326
Y023448
Y023737
Y024002
Y02428
X033557
Y024545
Y024818
X03385
Y024545
Y02428
Y024002
Y023737
Y023448
X033557
Y023737
Y024002
X034148
Y023737
Y023448
X034441
Y023737
Y024002
Y02428
Y024545
Y024818
X034427Y025079
X034433Y025323
X03414
X034134Y025079
X034148Y024818
Y024545
Y02428
X034738
Y024545
Y024818
X034725Y025079
X034731Y025323
X035016Y025314
Y02507
Y024809
Y024536
Y024271
Y023993
Y023728
X034738Y023737
Y024002
Y023448
X035016Y023439
X033837Y025079
X033794Y025346
X033557Y02515
X033288Y025935
X033294Y026093
X033117
X033111Y025935
X032946
X032952Y026093
X03168Y025484
Y02524
Y024979
Y024706
Y024441
Y024163
Y023898
X031402Y023907
Y024172
Y02445
Y024715
Y024988
X031388Y02524
X031394Y025484
X031402Y023618
X03168Y023609
Y023277
X031402Y023286
X031391Y023008
X031752Y021354
X031996Y021346
X032011Y021588
X032251Y021582
X032248Y02134
X032248Y021087
X032008Y021092
X031756Y021098
X031512Y021106
X031504Y020854
X031748Y020846
X032Y02084
X03224Y020835
X032248Y020557
X032007Y020563
X032007Y020306
Y02007
X032247Y020064
Y0203
Y019799
X032007Y019805
X031755Y019811
X031511Y019819
Y020084
Y02032
X031755Y020312
Y020076
X031755Y020569
X031511Y020577
X031511Y01953
X031755Y019522
X032007Y019516
X032247Y01951
Y019178
X032007Y019184
X031755Y01919
X031511Y019198
Y018881
X031755Y018873
X032007Y018866
X032247Y018861
Y018588
X032007Y018593
X031755Y0186
X031511Y018608
Y018318
X031755Y01831
X032007Y018304
X032247Y018299
Y017967
X032007Y017973
X031755Y017979
X031511Y017987
Y017713
X031755Y017705
X032007Y017699
X032247Y017694
Y017429
Y01719
X032007Y017196
Y017434
X031755Y017441
Y017202
X031511Y01721
Y017449
Y016945
X031755Y016937
X032007Y016931
X032247Y016925
Y016636
X032007Y016642
X031755Y016648
X031511Y016656
Y016324
X031755Y016316
X032007Y01631
X032247Y016304
X033431Y016293
X033366Y017498
X034173Y01815
X034179Y018576
X034376Y018773
X034421Y018407
X034658Y018636
X034624Y01903
X034878Y018846
X035079Y019055
X035081Y019469
X035282Y019678
X035512Y019488
X035315Y019291
X034861Y019259
X035315Y017441
X035748Y017835
X040315Y01778
Y01753
X04063
Y01778
X040949
Y01753
X041264
X044016Y018386
X044853Y018307
Y018063
X045118
Y018307
X045372Y018307
Y018063
X045637
Y018307
X045911
Y018063
X046176
X046198Y018307
X045911Y018622
Y01885
X045637
Y018622
X045372
Y01885
X045529Y019687
X045524Y019909
X045812Y019687
X045866Y01748
X04653Y015644
X046795
X045811Y024469
Y02484
X039021Y024788
X038724Y024786
X038446Y024785
Y025116
X038724Y025118
Y025407
Y025672
Y02595
Y026215
Y026488
X03871Y026749
X038735Y026999
X039013
X039007Y026751
X039021Y02649
Y026217
Y025952
Y025674
Y025409
Y02512
X038446Y025406
Y02567
Y025949
Y026213
Y026487
X038432Y026748
X038438Y026999
X038174
X038182Y027248
X038182Y027514
X037917
X037658
X037666Y027785
X037925
X038189
X038735
Y027514
X039031
Y027785
X038456Y027249
X037946Y027082
X03794Y026838
X03816Y026744
X038174Y026483
X037363Y027514
X037098
X036839
X036589
X036324
X036065
X035793
X035529
X03527
X035277Y027785
X035536
X035801
X036073
X036331
X036596
X036847
X037106
X037371
X037307Y028492
X037566
X037831
X038102
X038361
X038626
X038734Y029109
X038261Y029062
X038019Y029067
X037748
X037483
X037224
X037261Y029311
X03752
X037784
X038031Y030039
X038296
X038512Y030038
X036944Y029638
X036929Y029067
X036664
X036405
X036488Y028492
X036747
X037012
X036142Y030315
X034401Y030327
X034137
X033847
X033516
X03324
X032977
X032709
X032149Y029682
X032151Y029454
X031889
X031886Y029682
X031618
X032859Y028559
X033069Y028565
Y02829
X032859Y028284
Y028022
X033069Y028029
X034458Y027785
X034717
X034982
X034975Y027514
X03471
X034451
X032251Y021845
X041422Y030202
X041578
X041588Y03034
X041753Y030337
X041746Y030202
X031097Y025484
X03109Y02524
X031104Y024988
Y024715
Y02445
Y024172
Y023907
Y023618
X030811
Y023907
Y024172
Y02445
Y024715
Y024988
X030797Y02524
X030803Y025484
X030457
X030205Y025489
X030221Y02524
Y024988
Y024715
Y02445
Y024172
Y023907
Y023618
X030514
Y023907
Y024172
Y02445
Y024715
Y024988
X0305Y02524
X029923
Y024988
X029659
X029416
X029173Y024981
X029156Y024715
X029416Y024715
X029659
X029923
Y02445
X029659
X029416
X029156Y02445
Y024172
X029416Y024172
X029659
X029923
Y023907
X029659
X029416
X029156Y023907
Y023618
X029416Y023618
X029659
X029923
Y023286
X029932Y023017
X029939Y022741
X029646
X029416
X029156Y022741
Y023022
Y023272
X029416Y023272
X029636Y023279
X029635Y023017
X029416Y023022
X029377Y022436
X029142Y022447
Y022155
X029377Y022144
Y02189
X029142Y021902
Y021644
X029377Y021633
Y021378
X029142Y02139
Y0211
X029377Y021089
X02966Y021378
X02966Y021633
X029656Y02189
X029659Y022144
X029952
X029949Y02189
X029953Y021633
X030247Y02189
X030249Y022144
X030527Y022135
X030541Y022436
X030819Y022427
X030827Y022741
X031105Y022732
X031113Y023017
X031104Y023286
X030811
X030816Y023017
X030523
X030514Y023286
X030221
X030225Y023017
X030237Y022741
X03053
X030244Y022436
X029951
X029653
X029244Y020449
Y020147
Y01989
Y019654
Y019327
Y019009
Y018723
Y018447
Y018116
Y01783
Y017556
Y017283
Y017018
Y01678
Y016453
Y016167
Y015902
X030047Y015999
Y015735
X030328
X030584
Y015999
X030328
Y016285
X030584
Y016612
Y016851
X030328
Y016612
X030047
Y016851
Y017116
Y017389
Y017662
X030328
X030584
Y017389
X030328
Y017116
X030584
X031247Y017202
Y017441
Y017705
Y017979
Y01831
Y0186
Y018873
Y01919
Y019522
Y019811
Y020076
Y020312
X031248Y020569
X03124Y020846
X030577Y020816
X030584Y020538
X030584Y020281
X030329
X030322Y02053
X030047Y020281
Y019979
Y019722
Y019486
X030328
Y019722
X030584
Y019486
Y019159
X030328
X030047
Y018842
X030328
X030584
Y018556
X030328
Y01828
X030584
Y017948
X030328
X030047
Y01828
Y018556
X030328Y019979
X030584
X028574Y02007
X028584Y01983
X028587Y019555
X028261Y019555
X028024Y019555
X027767
X027764Y01983
X027755Y02007
X028012
X028248Y02007
X028257Y01983
X028021Y01983
X027462
X027453Y02007
X027212Y020063
X027205Y01983
X027208Y019555
X027465Y019555
X024306Y019483
X024038
X023778
X023511
Y01921
Y018945
X023778
X024038
Y01921
X023778
X024306
Y018945
X023778Y018667
X023511
Y018402
Y018113
Y017781
X02353Y017483
Y01721
Y016945
X023263Y017119
Y017392
X023259Y017651
Y017983
Y018272
Y018537
Y018815
Y01908
Y019353
X023465Y022479
Y022757
Y023022
Y023295
X023461Y023554
Y023886
Y024175
Y02444
Y024718
Y024983
Y025256
X023713Y025386
X02398
X02424
X024508
Y025112
Y024848
X02424
X02398
Y025112
X02424
X023713
Y024848
Y024569
Y024305
X02398Y024317
Y024569
X02424
X024508
X02398Y024027
X023713Y024015
Y023684
X023732Y023386
Y023112
Y022848
Y022569
Y022305
X019768Y020488
X019511
X019422Y020195
X019679
X019674Y025896
X019417
Y026211
X019674
X023311Y028543
Y028822
Y029086
Y02936
X023307Y029618
Y02995
Y030239
Y030504
Y030782
Y031047
X023559Y031177
Y030912
X023827
X024087
Y031177
X023827
X024354
Y030912
Y030634
X024087
X023827
Y030381
X023559Y030369
Y030634
Y03008
X023827Y030092
X023559Y029748
X023579Y02945
Y029177
Y028912
Y028634
Y028369
X024788Y0312
X025047Y031204
X025321
X025585
X025863
X02613Y031219
X026395
X026673
X027149Y025753
X027142Y02552
X027399Y025519
X02739Y02576
X027692
X027701Y025519
X027958
X028195Y025519
X028185Y02576
X027949Y02576
X027962Y025245
X028198Y025245
X028525Y025245
X028521Y025519
X028512Y02576
X027705Y025245
X027403
X027146Y025245
X029416Y02524
X029659
X029698Y025489
X029941
X030047Y016285
X031247Y016316
Y016648
Y016937
X012996Y017804
Y018069
Y018325
X012717Y018316
Y01806
Y017795
X012586Y018608
X012332
X012076
X011811
X011523
X010236Y018567
Y018067
Y017567
Y017067
Y016567
Y016067
Y019067
Y019567
Y020067
Y020567
Y021067
Y021567
Y022067
Y022567
Y023067
Y023567
Y024067
Y024567
Y025067
Y025567
Y026067
Y026567
Y027067
Y027567
Y028067
Y028567
Y029067
Y029567
Y030067
Y030567
Y031067
X012795Y030985
Y031241
Y03072
X013074Y03073
Y030994
Y024459
Y024203
Y023938
X012795Y023929
Y024194
Y02445
X012664Y024743
X012409
X012153
X011889
X011601
Y031534
X011889
X012153
X012409
X012664
X013074Y03125
X010236Y031567
Y032067
Y032567
Y033067
Y033567
Y034067
Y034567
Y035067
Y035567
Y036067
Y036567
Y037067
Y037567
Y038067
Y038567
Y039067
Y039567
Y040067
Y040567
Y041067
Y041567
Y042067
Y042567
Y044067
Y044567
Y045067
X010551Y045075
Y045575
X010236Y045567
Y046067
X010551Y046075
X010945
X011417
Y045575
X010945
X011047Y046545
X010575
X010236Y046567
X012504Y046545
X012898
X013274Y046547
X013268Y046075
X012874
X01248
X012047
Y045575
X01248
X012874
X013268
Y045075
X012874
X013268Y044575
X01624Y041906
X016248Y041634
X016244Y041339
X016571
X016575Y041634
X016567Y041906
X016961
X016968Y041634
X016965Y041339
Y040984
Y04063
Y040278
Y039924
X017315
X017323Y040278
Y04063
Y040984
Y041339
X017327Y041634
X017319Y041906
X017713
X01772Y041634
X017717Y041339
Y040984
Y04063
Y040278
X017709Y039924
X018102
X01811Y040278
Y04063
Y040984
Y041339
X018114Y041634
X018106Y041906
X0185
X018508Y041634
X018504Y041339
X018811
X018815Y041622
X018807Y041894
X019252Y041886
X01926Y041614
X019256Y041331
Y040976
Y040622
Y040268
Y039906
X019264Y039634
X01926Y03935
Y038996
Y038642
Y038287
Y037925
X019654
Y038287
Y038642
Y038996
Y03935
X019657Y039634
X01965Y039906
Y040268
Y040622
Y040976
Y041331
X019654Y041614
X019646Y041886
X020039
X020047Y041614
X020043Y041331
Y040976
Y040622
Y040268
Y039906
X020051Y039634
X020047Y03935
Y038996
Y038642
Y038287
Y037925
X020441
Y038287
Y038642
Y038996
Y03935
X020445Y039634
X020437Y039906
Y040268
Y040622
Y040976
Y041331
X020441Y041614
X020433Y041886
X020827
X020835Y041614
X020831Y041331
Y040976
Y040622
Y040268
Y039906
X020839Y039634
X020835Y03935
Y038996
Y038642
Y038287
Y037925
X021193Y037917
Y03828
Y038634
Y038988
Y039343
X021197Y039626
X021189Y039898
Y04026
Y040614
Y040968
Y041323
X021193Y041606
X021185Y041878
X021579
X021587Y041606
X021583Y041323
Y040968
Y040614
Y04026
Y039898
X021591Y039626
X021587Y039343
Y038988
Y038634
Y03828
Y037917
X02198
Y03828
Y038634
Y038988
Y039343
X021984Y039626
X021976Y039898
Y04026
Y040614
Y040968
Y041323
X02198Y041606
X021972Y041878
X022333Y041872
X022341Y0416
X022337Y041317
Y040962
Y040608
Y040254
Y039892
X022344Y03962
X022341Y039336
Y038982
Y038628
Y038273
Y037911
X022244Y037283
X021929
X021614
X021299
X020984
X020669
X020354
X020039
X019724
X019409
X019094
X01878
X018465
X01815
X017835
X01752
X017205
X01689
X016614
Y036969
X01689
X017205
X01752
X017835
X01815
X018465
X01878
X019094
X019409Y036929
X019724
X020039
X020354
X020669
X020984
X021299
X021614
X021929
X022244
X022559
X022874
X023189
X023504
X023819
X024134
X024449
X024764
X025079
X025394
X025709
X026024
X026339
X026654
X026969
X027283
X027598
X027913
X028228
X028543
Y036614
Y036299
X028228
X028214Y03603
X027899
X027913Y036299
Y036614
X028228
X027598
Y036299
X027584Y03603
X027269
X027283Y036299
X027283Y036614
X026969
Y036299
X026954Y03603
X026639
X026654Y036299
Y036614
X026339
X026024
Y036299
X026028Y036022
X026324Y03603
X026339Y036299
X025709
X025714Y036022
X025399
X025394Y036299
X025394Y036614
X025079
Y036299
X025084Y036022
X024769
X024764Y036299
X024764Y036614
X024449
Y036299
X024134
Y036614
X023819
X023504
Y036299
X023819
X023189
Y036614
X022874
X022559
X022244
X022244Y036299
X021929
X021614
X021614Y036614
X021299
Y036299
X020984
Y036614
X020669
X020354
Y036299
X020669
X020039
Y036614
X019724
X019409
Y036299
X019724
X019094
Y036614
X01878
Y036299
X018465
Y036614
X01815
X017835
Y036299
X01815
X01752
Y036614
X017205
Y036299
X01689
Y036614
X016614
X016571Y039924
Y040278
X016244
Y04063
X016571
Y040984
X016244
X018504
X018811
Y04063
X018504
Y040278
X018811Y040276
Y039913
X018496Y039924
X022559Y037283
X022874
X023189
X023504
X023819
X024134
X024449
X024764
X025079
X025394
X025709
X026024
X026339
X026654
X026969
X027283
X027598
X027913
X028228
X028543
Y035984
Y035726
X028858Y035653
Y035382
X029157Y035402
X029154Y035661
X029488Y035653
X029492Y035394
Y035121
Y034856
X029807
Y035121
Y035394
X029803Y035653
X029799Y035962
X029484
X029173Y035984
X028858
Y036299
X029157Y035128
X029807Y034578
X031066Y032362
X031075Y032096
X031062Y031813
X028008Y032329
X027756
X027509
Y032608
X027756
X028
X026666Y031975
Y031707
X026673Y03147
X026395
X026387Y031707
X026123
X02613Y03147
X025863Y031455
X025856Y031693
Y031961
Y032213
X025577
Y031961
X025313
Y032213
X025039
Y031961
X024781Y031957
Y032209
X024469
X024453Y031957
X024449Y031689
X02416
X023895
X023899Y031957
X024164
X024179Y032209
X023915
X023637
X023372
X023356Y031957
X023621
X023617Y031689
X023352
X023079
X023094Y031445
X023307Y03132
X023559Y03145
X023827
X024087
X024354
X024788Y031451
X024781Y031689
X025039Y031693
X025047Y031455
X025321
X025313Y031693
X025577
X025585Y031455
X026123Y031975
Y032227
X026387
Y031975
X023083Y031957
X023098Y032209
X022668Y035096
X022511Y035102
X022346Y035102
Y03528
X022511Y035279
X022668Y035273
Y035438
X022511Y035444
X022346Y035445
X022559Y036299
X022874
X021929Y036614
X025709
X027925Y040053
Y040342
X028283
Y040053
X028626
Y040342
X028984
Y040053
X028935Y041141
X028937Y041417
Y041714
X028622
Y041417
X02862Y041141
X028265
X028268Y041417
Y041714
X028263Y04203
X028265Y042345
Y0427
Y043015
X02862
Y0427
X028935
Y043015
X028937Y043385
X028622
Y043701
X028937
X028268
X027953
Y044016
X028268
Y04437
Y044685
Y045
X027953
Y044685
Y04437
X027598
Y044685
Y045
Y045315
X027953
X028268
Y045709
X027953
X027598
Y046102
X027953
X028268
Y046496
X027953
Y04685
X028268
X027598
Y046496
X027205
Y04685
X026772
Y046496
X026398
Y04685
X025945
Y046496
Y046102
Y045709
Y045315
Y045
Y044685
Y04437
Y044016
Y043701
Y043385
Y043032
Y042717
Y042441
X025512
Y042717
Y043032
X025178Y043031
X024824
X02447
X024409Y042717
Y042441
X024764
Y042717
X025118
Y042441
Y043385
Y043701
Y044016
X024764
Y043701
Y043385
X024409
Y043701
Y044016
Y04437
Y044685
Y045
Y045315
X024764
Y045
Y044685
Y04437
X025118
Y044685
Y045
Y045315
Y045709
X024764
Y046102
X025118
Y046496
X024764
Y04685
X025118
X025512
Y046496
Y046102
Y045709
Y045315
Y045
Y044685
Y04437
Y044016
Y043701
Y043385
X026398
Y043701
Y044016
Y04437
Y044685
Y045
Y045315
X026772
Y045
Y044685
Y04437
Y044016
Y043701
Y043385
Y043032
Y042717
Y042441
X026398Y042439
Y042714
Y043029
X027205Y043385
Y043701
Y044016
Y04437
Y044685
Y045
Y045315
Y045709
Y046102
X026772
X026398
Y045709
X026772
X027598Y044016
Y043701
X027596Y043385
X02795
X028265
X02862Y042345
X028935
X028932Y04203
X028617
X030423
Y042345
X030777
Y04203
X030775Y041714
X030787Y041417
Y041141
X030433
Y041417
X03042Y041714
X031129
X031142Y041417
Y041141
X031131Y04203
Y042345
Y0427
X031134Y043018
X03078
X030777Y0427
X030423
X030425Y043018
X030354Y043898
Y044213
Y044488
X030748
Y044213
Y043898
X031102
Y044213
Y044488
X031024Y045393
Y045669
X031011Y045966
X031013Y046282
Y046597
X030659
Y046282
X030657Y045966
X030669Y045669
Y045393
X030365Y04537
Y045647
X030352Y045944
X030354Y04626
Y046575
X019744Y033476
X019567
X019402
X019201Y033479
X019204Y03326
X019402Y033263
X019567
X019745
X018946Y03326
X018944Y033479
X03189Y033085
Y032829
Y032565
Y032275
X032183Y03227
Y032559
Y032824
Y03308
Y031938
Y031662
X03189Y031668
Y031944
X031283Y031813
Y032096
Y032362
X031376Y038622
Y038874
Y039151
Y039448
Y039764
Y040079
Y040354
Y040631
Y041141
Y041417
Y041714
Y04203
Y042345
Y0427
X031396Y043018
X031457Y043898
Y044213
Y044488
X031378Y045393
Y045669
X031365Y045966
X031368Y046282
Y046597
X034039Y046535
Y046238
Y045909
Y04562
X034055Y045354
Y045065
X034387
Y045354
X034371Y04562
Y045909
X03466
Y04562
X034676Y045354
Y045065
X034976
Y045354
X034961Y04562
Y045909
X03526
Y04562
X035276Y045354
Y045065
X035607
Y045354
X035592Y04562
Y045909
X035881
Y04562
X035897Y045354
Y045065
X036197
X036417
Y045354
X036197
X036181Y04562
X036402
Y045909
X036181
Y046238
X036402
Y046535
X036181
X035881
X035592
Y046238
X035881
X03526
Y046535
X034961
Y046238
X03466
X034371
Y046535
X03466
X036733
X037023
Y046238
X036733
Y045909
Y04562
X036749Y045354
Y045065
X037038
Y045354
X037023Y04562
Y045909
X037323
Y04562
X037339Y045354
Y045065
X037182Y044468
X03716Y044233
X036929Y044173
X038412Y044127
X038664Y044121
X038475Y043898
X038445Y043163
X037675Y04283
X037744Y041232
X037756Y041024
X037441
X037429Y041232
X037114
X037126Y041024
X036417Y040906
X035616Y041193
X03569Y042794
X034803Y04315
X034184Y041675
X03311Y038607
X032877
X032632
X036145Y03827
X036123Y037766
X037062Y037547
X037096Y038018
X037249Y038015
X037392Y038018
X037465Y040111
X037193
X037746
X038134Y035148
X038128Y03498
X038248Y035052
X038249Y034906
X038941Y034886
X039299Y034811
X039386Y035879
X03922Y03589
X039306Y036015
X039445
X039903Y035992
X040029
X040156Y035996
X039669Y035689
X040244Y03524
X040394
X040315Y035118
X040466Y035111
X041732Y034055
Y03378
X042008
Y034055
X04234
Y03378
X042629
X042893
X04315
Y034055
X042893
X042629
X04347
Y03378
X043802
Y034055
X044091
X044356
X044606
Y03378
X044356
X044091
X044123Y032313
X044387Y032323
X044638
X045042Y03226
Y032484
Y032721
X0443Y031641
X043528Y031641
X039487Y031551
Y032298
X039428Y032893
X038728Y034028
X038492
X036428Y034058
X036062Y034462
X03539Y035114
Y035252
Y035409
X03521
Y035252
Y035114
X035017
Y035252
Y035409
X034916Y03601
X034733
X03455
X034369
X035129
X035317
X041973Y035984
X042285
X042616
X042906
X04317
X043085Y03618
X042774
X042486Y036182
X042744Y036445
X043032Y036443
X043018Y03666
X043035Y036898
X043323Y036896
X043329Y03666
X043344Y036443
X043675
X043661Y03666
X043634Y036896
X043966
X04395Y03666
X044215
X04433Y036443
X044041
X044072Y03618
X043782
X043417
X043458Y035984
X043666Y035789
X042835Y03561
X044553Y03666
X04462Y036896
X044331
X044843Y037008
X044778Y03729
X045096Y037278
X044975Y037536
X045055Y037783
X045344
X045609
X045738Y038033
Y038268
Y038504
Y038735
Y038973
Y039208
X045473
Y038973
Y038735
Y038504
Y038268
Y038033
X045184
Y038268
Y038504
Y038735
Y038973
Y039208
X044852
Y038973
Y038735
X044634Y038734
Y038503
X044852Y038504
Y038268
X044634Y038266
Y038031
X044852Y038033
X044723Y037783
X044644Y037536
X045375Y037524
X046115Y037289
X046355Y037283
Y037005
X046115Y03701
X046645Y037005
Y037283
X046676Y038033
Y038268
Y038504
Y038735
Y038973
Y039208
X046344
Y038973
Y038735
Y038504
Y038268
Y038033
X046024
Y038268
Y038504
Y038735
Y038973
Y039208
X046155Y040092
X045866
Y04039
X046155
X045535
X045247
X044958
Y040092
X045247
X045535
X044626
Y04039
X044326
X044037
Y040092
X044326
X043705
Y04039
X0434
Y040092
X0431Y040095
X043068Y04039
X0432Y039208
X043532
X043821
X044086
X044342
X044601
Y038973
X044385Y038971
X043762Y038618
X043507
X043251
X042993
X043032Y04252
Y042823
X042709
Y04252
X043382
Y042823
X043693
Y04252
X044008
Y042823
X044346
Y04252
X044669
X044661Y042823
X04502
Y04252
X045335
Y042823
X045646
Y04252
X045984
Y042823
X046299
Y04252
X046293Y04224
X046614Y04252
Y042823
X046535Y043583
X04685Y043465
X046141Y04347
X046024Y043268
X045787Y043425
X045748Y044843
Y045079
X045488Y045003
X045275Y044818
X045045Y044948
X044803Y044764
X04437
X044491Y044955
X044136
X044039Y044944
X043819Y044961
X043976Y044764
X043622
X043268
X043425Y044961
X043071
X04278Y04474
X04248Y044764
X042583Y044937
X042323Y044961
X042126Y044764
X04222Y045686
X042535
Y046
Y046276
Y046591
X042559Y04685
X042953Y046654
Y046339
Y046063
X043268
Y046339
Y046654
X043583
Y046339
Y046063
Y045748
Y045472
X043268
Y045748
X042953
Y045472
X043937
Y045748
Y046063
Y046339
Y046654
X044252
Y046339
Y046063
Y045748
Y045472
X044568
Y045748
Y046063
Y046339
Y046654
X044921
Y046339
Y046063
Y045748
Y045472
X045236
X045512
Y045748
X045236
Y046063
X045512
X045526Y046333
X04579Y046325
X046066
Y046049
X04579
Y045735
X046066
X04626Y045512
X046299Y045276
X04601Y045246
X046063Y045039
X04579Y045459
X046535Y045591
X046417Y045827
X046654Y045945
X046496Y046142
X046449Y04634
X046654Y046299
X045236Y046339
Y046654
X045512
X04222Y046
X039596Y04602
X039581Y046286
Y046575
Y046811
X039291
Y046575
Y046286
X039307Y04602
Y045731
X039596
X039581Y045433
Y045144
X039291
Y045433
X038999
X038779
Y045144
X038999
X038478
Y045433
X038189
Y045144
X038205Y045731
Y04602
X038189Y046286
Y046575
Y046811
X038478
Y046575
Y046286
X038494Y04602
Y045731
X038794
X039015
Y04602
X038794
X038779Y046286
X038999
Y046575
X038779
Y046811
X038999
X037323Y046238
X039554Y044773
X04563Y036263
Y035981
X045951Y035981
Y036263
X046241
X046505
X046769
Y035981
X046505
X046241
X046362Y03538
X046626
X046631Y035106
X046368
X046103
X045858Y035107
X04561Y035107
Y03538
X045853Y035381
X046098Y03538
X046919
X046924Y035106
X047248
X047525
X047798
X048054Y035098
X048049Y035371
X047793Y03538
X04752
X047243
X047377Y03598
X04765Y035985
X047914
Y036263
X04765
X047385
X047061
Y035981
X047173Y037005
X046909
Y037283
X047173
X047465
X04773
X047994
Y037005
X04773
X047465
X047485Y038033
Y038268
Y038504
Y038735
Y038973
Y039208
X04723
Y038973
Y038735
Y038504
Y038268
Y038033
X046965
Y038268
Y038504
Y038735
Y038973
Y039208
X047745
Y038973
Y038735
Y038504
Y038268
Y038033
X047996Y038268
Y038504
Y038735
Y038973
Y039208
X047897Y04187
X047641
Y042145
X047897
Y042435
Y042711
X047641Y042736
Y04246
Y043051
X047897Y043026
Y043301
Y043616
X047902Y043888
X047935Y04418
X04801Y044358
X047835Y044346
X04766Y044151
X047449Y04398
X047598Y043775
X047559Y043583
X047358Y043594
X047244Y043775
X046929Y04374
X047087Y043543
X047263Y043314
X047559Y043307
X048228Y043307
Y043032
X048518
Y043307
X048782Y043294
Y043018
Y042703
X048518Y042711
Y042441
X048782Y042427
Y042145
X048518
Y04187
X048794
X048228
Y042145
Y042441
Y042717
Y043622
Y043898
X048518Y043892
Y044134
X048782
Y043884
Y043609
X048518Y043622
X049164Y043574
Y044074
Y044574
X048782Y044664
Y044396
X048518Y044403
X048425Y044843
X048071Y044882
X047935Y044669
X04815Y044567
X04825Y045211
X048307Y045551
X048346Y045906
Y04622
X048605Y046237
X048617Y046002
X048543Y045748
X048718Y045572
X048811Y045855
X049164Y045972
Y046341
Y045574
Y045074
X048563Y045106
X048543Y045354
X049164Y043074
Y042574
Y042074
Y041574
Y041074
X045512Y046929
X045236
X045512Y047244
X045598Y04961
X045098
X044598
X044098
X043598
X043098
X042598
X042556Y04938
X042559Y049134
Y048819
Y048466
Y04815
Y047835
Y04748
Y047165
X042205Y049134
X042202Y04938
X042098Y04961
X041598
X041098
X040598
X040098
X039598
X039098
X038598
X038098
X037598
X037098
X036598
X036098
X035598
X035098
X034598
X034098
X033598
X033098
X032598
X032536Y049422
X032539Y049058
Y048664
X032106
X031732
Y049058
X031729Y04942
X031598Y04961
X032098
X032103Y049422
X032106Y049058
X031368Y048133
Y047818
X031365Y047502
X031378Y047205
Y046928
X034528Y047303
X034687Y047301
X036576Y047941
X036873Y047685
X038862Y048157
X031013Y048133
Y047818
X031011Y047502
X031024Y047205
Y046928
X030669
Y047205
X030657Y047502
X030659Y047818
Y048133
X030354Y04811
Y047795
X030352Y047479
X030365Y047182
Y046906
X028268Y047205
Y04752
X027953
Y047205
X027598
Y04752
Y047835
X027953
X028268
X027205
Y04752
Y047205
X026772
Y04752
Y047835
X026398
Y04752
Y047205
X025945
Y04752
Y047835
Y048228
Y048622
Y049016
X025512
Y048622
Y048228
Y047835
Y04752
Y047205
X025118
Y04752
Y047835
X024764
Y04752
Y047205
Y048228
X025118
Y048622
X024764
Y049016
X025118
X025098Y04961
X024598
X024098
X023598
X023098
X022598
X022098
X021598
X021098
X020598
X020098
X019598
X019098
X018598
X018098
X017598
X017098
X016598
X016098
X025598
X026098
X026598
X027098
X027598
X028098
X028598
X029098
X029598
X030098
X030598
X031098
X027205Y049016
Y048622
Y048228
X026772
X026398
Y048622
X026772
Y049016
X026398Y049013
X015598Y04961
X015098
X014598
X014098
X013598
X013098
X012598
X012098
X011598
X011098
X010598
X010233Y049538
X010236Y049067
Y048567
Y048067
Y047567
Y047067
X010575Y046888
X011047
X012504
X012898
T02
X010811Y011457
X010614Y012047
X010811Y012638
X011598Y013032
X012386Y012638
X012583Y012047
X012386Y011457
X011598Y011063
X046742Y012092
X046939Y012683
Y011502
X047726Y011108
X048513Y011502
X04871Y012092
X048513Y012683
X047726Y013076
X012539Y043453
X012736Y044043
X012539Y044634
X011752Y045028
X010965Y044634
X010768Y044043
X010965Y043453
X011752Y043059
X017508Y039134
X017744
X01798
Y038661
X017744
X017508
Y038228
X017744
X01798
Y037756
X017744
X017508
X043465Y047598
X043268Y048189
X043465Y04878
X044252Y049173
X045039Y04878
X045236Y048189
X045039Y047598
X044252Y047205
T03
X048264Y01439
Y01539
Y01639
X048241Y018465
Y019465
Y020465
T04
X027358Y015492
X028358
Y018492
X027358
Y020902
X028358
Y023902
X027358
X027382Y026906
X028382
Y029906
X027382
T05
X028335Y012823
X031335Y012828
T06
X032823Y011071
X033823
X034929Y011055
X035929
X037059Y011051
X038059
X047654Y022319
X048654
Y023319
Y024319
Y025319
X047654
Y024319
Y023319
X048654Y029528
Y030528
Y031528
Y032528
Y033638
Y034638
Y035638
Y036638
Y037638
Y038638
T07
X041661Y01385
X042661
T08
X015563Y013591
X020366
X021154Y015953
X020366Y018315
X020354Y020004
X021142Y022366
X020354Y024728
X020339Y026385
X021126Y028747
X020339Y031109
X015535Y031185
Y026385
X015551Y024804
Y020004
X015563Y018391
T10
X01202Y015972
Y017972
X011976Y022102
Y024102
Y028894
Y030894
X0117Y0466
Y0486
T11
X0486Y0472
Y0492
X0476Y0482
X0466Y0472
Y0492
T12
X039661Y01185
X043661
T13
X011598Y012047
X047726Y012092
X011752Y044043
X044252Y048189
M30
